<?xml version="1.0" standalone="no"?>
<!DOCTYPE svg PUBLIC "-//W3C//DTD SVG 20010904//EN"
 "http://www.w3.org/TR/2001/REC-SVG-20010904/DTD/svg10.dtd">
<svg version="1.0" xmlns="http://www.w3.org/2000/svg"
 width="536.000000pt" height="536.000000pt" viewBox="0 0 536.000000 536.000000"
 preserveAspectRatio="xMidYMid meet">
<metadata>
Created by potrace 1.14, written by Peter Selinger 2001-2017
</metadata>
<g transform="translate(0.000000,536.000000) scale(0.100000,-0.100000)"
fill="#000000" stroke="none">
<path d="M1001 4408 c-21 -46 -63 -135 -94 -198 -195 -410 -247 -520 -247
-525 0 -3 242 -5 538 -5 l537 0 17 38 c10 20 52 109 94 197 42 88 121 253 174
368 l98 207 -539 0 -540 0 -38 -82z"/>
<path d="M2492 4377 c-28 -62 -113 -239 -187 -395 -74 -155 -135 -287 -135
-292 0 -7 373 -10 1034 -10 1136 0 1129 0 1282 61 148 58 286 168 371 294 35
52 223 430 223 449 0 3 -570 6 -1267 5 l-1268 0 -53 -112z"/>
<path d="M453 3248 c-9 -13 -172 -352 -176 -368 -2 -9 664 -830 674 -830 6 0
71 133 259 530 56 118 151 318 211 444 60 125 109 230 109 232 0 2 -240 4
-534 4 -415 0 -536 -3 -543 -12z"/>
<path d="M1892 3113 c-85 -178 -350 -733 -531 -1116 -73 -153 -131 -283 -129
-290 5 -19 659 -817 670 -817 5 0 12 10 17 22 5 13 93 198 195 412 102 214
186 390 186 391 0 2 45 96 100 210 55 114 100 208 100 210 0 2 34 73 75 159
l75 156 527 0 c486 0 534 2 608 19 92 22 195 66 263 113 62 42 165 141 208
200 43 58 234 442 234 469 0 5 -548 9 -1263 9 l-1264 0 -71 -147z"/>
</g>
</svg>
