<?xml version="1.0" standalone="no"?>
<!DOCTYPE svg PUBLIC "-//W3C//DTD SVG 1.1//EN" "http://www.w3.org/Graphics/SVG/1.1/DTD/svg11.dtd" >
<svg xmlns="http://www.w3.org/2000/svg" xmlns:xlink="http://www.w3.org/1999/xlink" version="1.1">
<metadata>
Created by FontForge 20170731 at Thu Jan 13 15:26:18 2022
 By Aleksey,,,
Copyright (c) 2014 by Rene' Bieder. All rights reserved.
</metadata>
<defs>
<font id="GalanoClassic-Medium" horiz-adv-x="1372" >
  <font-face 
    font-family="GalanoClassic-Medium"
    font-weight="400"
    font-stretch="normal"
    units-per-em="2048"
    panose-1="0 0 6 0 0 0 0 0 0 0"
    ascent="1483"
    descent="-565"
    x-height="1016"
    cap-height="1556"
    bbox="-365 -635 6121 2103"
    underline-thickness="102"
    underline-position="-204"
    unicode-range="U+0020-FB02"
  />
<missing-glyph horiz-adv-x="1757" 
d="M881 1575q328 0 559 -228t231 -573q0 -340 -231 -566q-230 -226 -559 -226q-331 0 -563 226t-232 566q0 345 232 573t563 228zM881 1477q-288 0 -490 -200q-201 -199 -201 -501q0 -298 202 -498t489 -200q283 0 485 200q201 200 201 498q0 302 -201 501
q-202 200 -485 200zM1180 928q0 -103 -71 -169q-72 -67 -185 -79v-90h-117v190h74q76 0 126 41t50 107q0 70 -48 114q-47 43 -126 43q-81 0 -133 -50q-52 -51 -58 -134l-121 23q4 115 92 195q86 79 220 79q133 0 215 -75t82 -195zM864 492q33 0 57 -24q23 -23 23 -54
q0 -34 -23 -57t-57 -23q-33 0 -56 23q-24 24 -24 57q0 30 24 54t56 24z" />
    <glyph glyph-name="fi" unicode="fi" horiz-adv-x="1261" 
d="M1112 1016v-1016h-213v840h-479v-840h-213v840h-207v176h207v184q0 212 130 339q131 128 343 128q191 0 364 -139l-92 -166q-135 115 -272 115q-116 0 -188 -75t-72 -202v-184h692z" />
    <glyph glyph-name="fl" unicode="fl" horiz-adv-x="1267" 
d="M1106 1638v-1638h-213v840h-473v-840h-213v840h-207v176h207v184q0 212 130 339q131 128 343 128q114 0 213 -45v16h213zM893 1016v391q-100 70 -213 70q-116 0 -188 -75t-72 -202v-184h473z" />
    <glyph glyph-name="f_f" unicode="ff" horiz-adv-x="1507" 
d="M1520 840h-400v-840h-213v840h-487v-840h-213v840h-207v176h207v184q0 212 130 339q131 128 343 128q171 0 324 -108q104 110 278 110q94 0 172 -37l-49 -174q-53 21 -109 21q-79 0 -128 -54q-48 -53 -48 -139v-270h400v-176zM907 1016v270q0 47 11 105q-113 86 -238 86
q-116 0 -188 -75t-72 -202v-184h487z" />
    <glyph glyph-name="f_f_i" unicode="ffi" horiz-adv-x="1941" 
d="M1794 1016v-1016h-215v840h-479v-840h-213v840h-467v-840h-213v840h-207v176h207v184q0 212 130 339q131 128 343 128q180 0 342 -123q128 123 338 123q191 0 364 -139l-92 -166q-135 115 -272 115q-117 0 -189 -75q-71 -74 -71 -202v-184h694zM887 1016v184
q0 100 33 189q-113 88 -240 88q-116 0 -188 -75t-72 -202v-184h467z" />
    <glyph glyph-name="f_f_l" unicode="ffl" horiz-adv-x="1959" 
d="M1800 1638v-1638h-215v840h-473v-840h-213v840h-479v-840h-213v840h-207v176h207v184q0 212 130 339q131 128 343 128q184 0 350 -127q130 127 344 127q110 0 211 -43v14h215zM899 1016v184q0 98 31 180q-123 97 -250 97q-116 0 -188 -75t-72 -202v-184h479zM1585 1016
v391q-100 70 -211 70q-118 0 -190 -75t-72 -202v-184h473z" />
    <glyph glyph-name=".notdef" horiz-adv-x="1757" 
d="M881 1575q328 0 559 -228t231 -573q0 -340 -231 -566q-230 -226 -559 -226q-331 0 -563 226t-232 566q0 345 232 573t563 228zM881 1477q-288 0 -490 -200q-201 -199 -201 -501q0 -298 202 -498t489 -200q283 0 485 200q201 200 201 498q0 302 -201 501
q-202 200 -485 200zM1180 928q0 -103 -71 -169q-72 -67 -185 -79v-90h-117v190h74q76 0 126 41t50 107q0 70 -48 114q-47 43 -126 43q-81 0 -133 -50q-52 -51 -58 -134l-121 23q4 115 92 195q86 79 220 79q133 0 215 -75t82 -195zM864 492q33 0 57 -24q23 -23 23 -54
q0 -34 -23 -57t-57 -23q-33 0 -56 23q-24 24 -24 57q0 30 24 54t56 24z" />
    <glyph glyph-name=".null" horiz-adv-x="0" 
 />
    <glyph glyph-name="nonmarkingreturn" horiz-adv-x="681" 
 />
    <glyph glyph-name="space" unicode=" " horiz-adv-x="505" 
 />
    <glyph glyph-name="exclam" unicode="!" horiz-adv-x="571" 
d="M403 1556v-71l-8 -998h-217l-8 998v71h233zM285 252q56 0 96 -38q39 -38 39 -91q0 -55 -39 -93q-40 -38 -96 -38q-58 0 -96 38q-37 37 -37 93q0 54 37 91q38 38 96 38z" />
    <glyph glyph-name="quotedbl" unicode="&#x22;" horiz-adv-x="780" 
d="M109 967v589h215v-589h-215zM457 967v589h215v-589h-215z" />
    <glyph glyph-name="numbersign" unicode="#" horiz-adv-x="1404" 
d="M1096 958l-86 -393h221l-49 -180h-213l-84 -385h-191l86 385h-323l-84 -385h-191l84 385h-219l49 180h211l86 393h-221l47 181h213l92 417h191l-92 -417h323l92 417h189l-92 -417h221l-51 -181h-209zM907 958h-323l-86 -393h321z" />
    <glyph glyph-name="dollar" unicode="$" horiz-adv-x="1374" 
d="M1268 424q0 -182 -120 -300q-118 -117 -321 -144v-299h-217v296q-205 22 -347 140q-141 117 -165 313l238 49q24 -151 129 -231q106 -80 264 -80q148 0 232 66q83 65 83 184q0 85 -49 135q-51 53 -159 82l-318 90q-73 20 -135 48q-54 25 -118 75q-57 45 -91 121
q-33 73 -33 168q0 180 115 300q113 118 313 142v252h215v-254q185 -27 305 -138q119 -110 154 -288l-223 -47q-24 131 -119 208t-231 77q-124 0 -209 -65q-84 -64 -84 -179q0 -82 49 -130q51 -49 152 -79l352 -102q338 -101 338 -410z" />
    <glyph glyph-name="percent" unicode="%" horiz-adv-x="1720" 
d="M432 1585q143 0 241 -91q99 -92 99 -239q0 -143 -99 -235q-100 -92 -241 -92t-241 92q-99 92 -99 235q0 147 99 239q98 91 241 91zM270 0l1016 1556h146l-1016 -1556h-146zM432 1438q-72 0 -125 -50t-53 -131q0 -82 53 -132t125 -50t125 50t53 132q0 81 -53 131t-125 50z
M1288 629q143 0 241 -91q99 -92 99 -237q0 -147 -99 -238q-100 -92 -241 -92q-140 0 -240 92t-100 238q0 145 100 237q98 91 240 91zM1288 483q-72 0 -125 -50t-53 -132q0 -80 53 -130t125 -50t125 50t53 130q0 82 -53 132t-125 50z" />
    <glyph glyph-name="ampersand" unicode="&#x26;" horiz-adv-x="1568" 
d="M1397 -51l-238 209q-185 -187 -471 -187q-259 0 -415 129t-156 342q0 135 76 239q77 106 204 171q-123 151 -123 319q0 185 127 299q129 115 322 115q192 0 312 -111t143 -307l-201 -37q-23 273 -254 273q-108 0 -176 -62t-68 -172q0 -99 62 -187q61 -87 223 -226
l354 -310q43 111 43 244v105h191v-105q0 -214 -82 -377l252 -219zM688 152q193 0 326 133l-416 366l-80 72q-192 -101 -192 -281q0 -132 100 -211t262 -79z" />
    <glyph glyph-name="quotesingle" unicode="'" horiz-adv-x="432" 
d="M109 967v589h215v-589h-215z" />
    <glyph glyph-name="parenleft" unicode="(" horiz-adv-x="735" 
d="M489 1724l150 -135q-173 -196 -242 -390q-69 -195 -69 -433q0 -235 69 -430q69 -194 242 -393l-150 -131q-391 398 -391 954q0 560 391 958z" />
    <glyph glyph-name="parenright" unicode=")" horiz-adv-x="735" 
d="M98 1589l150 135q391 -398 391 -958q0 -556 -391 -954l-150 131q173 199 242 393q70 198 70 430q0 235 -70 433q-69 194 -242 390z" />
    <glyph glyph-name="asterisk" unicode="*" horiz-adv-x="876" 
d="M565 1186l234 -135l-68 -115l-225 129v-250h-152v250l-225 -129l-68 115l234 135l-234 135l68 117l225 -131v249h152v-249l225 131l68 -117z" />
    <glyph glyph-name="plus" unicode="+" horiz-adv-x="1187" 
d="M1055 530h-367v-372h-188v372h-367v189h367v373h188v-373h367v-189z" />
    <glyph glyph-name="comma" unicode="," horiz-adv-x="473" 
d="M188 -270h-161l129 544h247v-6z" />
    <glyph glyph-name="hyphen" unicode="-" horiz-adv-x="913" 
d="M791 430h-668v184h668v-184z" />
    <glyph glyph-name="period" unicode="." horiz-adv-x="452" 
d="M227 252q58 0 96 -38q37 -37 37 -91q0 -56 -37 -93q-38 -38 -96 -38q-56 0 -96 38q-39 38 -39 93q0 53 39 91q40 38 96 38z" />
    <glyph glyph-name="slash" unicode="/" horiz-adv-x="804" 
d="M786 1700l-589 -1866h-179l590 1866h178z" />
    <glyph glyph-name="zero" unicode="0" horiz-adv-x="1767" 
d="M885 1585q329 0 557 -235q227 -234 227 -576q0 -336 -227 -569q-228 -234 -557 -234q-331 0 -559 233q-228 232 -228 570q0 340 228 576q228 235 559 235zM885 178q237 0 400 171q163 170 163 425q0 257 -163 430q-163 174 -400 174q-239 0 -402 -174
q-164 -175 -164 -430t163 -425q164 -171 403 -171z" />
    <glyph glyph-name="one" unicode="1" horiz-adv-x="888" 
d="M664 1556v-1556h-215v1290l-398 -135v199l572 202h41z" />
    <glyph glyph-name="two" unicode="2" horiz-adv-x="1241" 
d="M1133 199v-199h-1059v80l561 596q85 90 101 108q24 27 73 92q45 60 60 113q16 56 16 117q0 128 -81 208q-80 79 -212 79q-147 0 -238 -97q-90 -96 -96 -247l-205 38q11 228 160 363q150 135 379 135q227 0 369 -131q141 -130 141 -346q0 -150 -70 -267
q-71 -118 -248 -309l-311 -333h660z" />
    <glyph glyph-name="three" unicode="3" horiz-adv-x="1288" 
d="M1186 1493l-471 -520q220 -11 350 -138q131 -128 131 -341q0 -228 -159 -376q-160 -149 -398 -149q-234 0 -399 145t-166 390l213 41q0 -179 103 -278t253 -99q144 0 244 91t100 233q0 133 -90 217t-233 84h-306l-14 43l469 522h-653v198h1026v-63z" />
    <glyph glyph-name="four" unicode="4" horiz-adv-x="1507" 
d="M1491 291h-330v-291h-213v291h-919v108l1005 1157h127v-1071h330v-194zM948 485v678l-575 -678h575z" />
    <glyph glyph-name="five" unicode="5" horiz-adv-x="1298" 
d="M399 987h293q231 0 375 -135q143 -134 143 -358q0 -228 -158 -376q-160 -149 -401 -149q-234 0 -399 145q-164 144 -164 390l211 41q0 -179 103 -278t253 -99q144 0 244 91t100 233q0 133 -90 217t-233 84h-518l127 763h878v-198h-700z" />
    <glyph glyph-name="six" unicode="6" horiz-adv-x="1353" 
d="M635 1083l45 2q242 0 410 -156q167 -155 167 -399t-167 -401q-169 -158 -410 -158q-245 0 -414 158q-168 157 -168 401q0 200 123 353l504 673h262zM680 168q149 0 254 101q106 102 106 261q0 161 -106 261t-254 100q-152 0 -259 -100q-108 -101 -108 -261
q0 -162 108 -262q107 -100 259 -100z" />
    <glyph glyph-name="seven" unicode="7" horiz-adv-x="1230" 
d="M1178 1556v-61l-693 -1495h-252l639 1358h-802v198h1108z" />
    <glyph glyph-name="eight" unicode="8" horiz-adv-x="1318" 
d="M950 793q117 -46 182 -151q64 -103 64 -232q0 -196 -149 -317q-151 -122 -385 -122q-238 0 -389 122q-150 121 -150 317q0 129 67 233t181 150q-94 46 -147 142q-52 94 -52 208q0 194 143 318t347 124q202 0 344 -125q141 -124 141 -317q0 -114 -52 -208
q-53 -95 -145 -142zM379 1145q-2 -114 77 -182q81 -70 201 -70q122 0 204 70q81 69 81 180q0 114 -84 183t-199 69q-111 0 -196 -68q-84 -67 -84 -182zM655 166q130 0 223 73q91 72 91 193q0 122 -91 194q-92 72 -223 72q-129 0 -216 -72t-87 -194q0 -121 88 -193
q90 -73 215 -73z" />
    <glyph glyph-name="nine" unicode="9" horiz-adv-x="1366" 
d="M1257 1028q0 -206 -124 -352l-504 -676h-260l352 473l-45 -2q-244 0 -411 158t-167 399t167 399t411 158q245 0 414 -158q167 -157 167 -399zM313 1028q0 -159 108 -261q107 -101 255 -101q150 0 257 101t107 261t-107 261q-108 102 -257 102q-147 0 -255 -102t-108 -261
z" />
    <glyph glyph-name="colon" unicode=":" horiz-adv-x="452" 
d="M227 969q58 0 96 -38q37 -37 37 -91q0 -55 -37 -92t-96 -37q-58 0 -96 37q-39 38 -39 92t39 91q40 38 96 38zM227 252q58 0 96 -38q37 -37 37 -91q0 -56 -37 -93q-38 -38 -96 -38q-56 0 -96 38q-39 38 -39 93q0 53 39 91q40 38 96 38z" />
    <glyph glyph-name="semicolon" unicode=";" horiz-adv-x="514" 
d="M287 969q56 0 96 -38q39 -37 39 -91t-39 -92q-38 -37 -96 -37q-59 0 -96 37t-37 92q0 54 37 91q38 38 96 38zM188 -270h-161l129 544h247v-6z" />
    <glyph glyph-name="less" unicode="&#x3c;" horiz-adv-x="907" 
d="M829 242l-763 307v221l763 311v-227l-512 -192l512 -197v-223z" />
    <glyph glyph-name="equal" unicode="=" horiz-adv-x="1187" 
d="M1055 760h-922v186h922v-186zM1055 365h-922v186h922v-186z" />
    <glyph glyph-name="greater" unicode="&#x3e;" horiz-adv-x="907" 
d="M594 662l-512 192v227l764 -311v-221l-764 -307v223z" />
    <glyph glyph-name="question" unicode="?" horiz-adv-x="1081" 
d="M555 1585q207 0 341 -123t134 -321q0 -180 -110 -287q-112 -109 -293 -127v-240h-197v404h123q115 0 191 72q77 72 77 182q0 109 -75 179q-76 71 -191 71q-122 0 -198 -71q-75 -70 -87 -194l-202 41q11 180 142 297q132 117 345 117zM526 252q58 0 96 -38q37 -37 37 -91
q0 -56 -37 -93q-38 -38 -96 -38q-56 0 -96 38q-39 38 -39 93q0 53 39 91q40 38 96 38z" />
    <glyph glyph-name="at" unicode="@" horiz-adv-x="2113" 
d="M1477 1096v-676q0 -64 43 -104t106 -40q113 0 170 125t57 291q0 335 -226 549q-227 215 -560 215q-346 0 -577 -232q-230 -231 -230 -581t226 -580q226 -231 554 -231q137 0 286 44q145 43 257 126l72 -115q-113 -88 -282 -138q-168 -50 -329 -50q-386 0 -656 267
q-269 266 -269 675q0 408 271 676t677 268q389 0 659 -252q271 -253 271 -631q0 -97 -22 -196q-21 -96 -64 -177q-44 -83 -122 -132q-80 -50 -181 -50q-98 0 -169 46q-69 45 -93 124q-117 -159 -334 -159q-194 0 -325 132q-130 131 -130 343q0 215 131 349t322 134
q205 0 323 -151v131h144zM1030 301q125 0 214 92t89 242q0 149 -89 241q-88 91 -214 91t-214 -90q-89 -91 -89 -242q0 -150 89 -242t214 -92z" />
    <glyph glyph-name="A" unicode="A" horiz-adv-x="1648" 
d="M1638 0h-245l-154 338h-829l-154 -338h-246l727 1556h174zM1149 539l-324 716l-325 -716h649z" />
    <glyph glyph-name="B" unicode="B" horiz-adv-x="1521" 
d="M1155 877q127 -51 198 -160q70 -107 70 -252q0 -211 -147 -338q-146 -127 -397 -127h-717v1556h682q208 0 330 -106t122 -285q0 -192 -141 -288zM381 1356v-416h473q106 0 166 56q61 57 61 151q0 95 -63 152t-174 57h-463zM381 201h498q155 0 242 74q89 75 89 202
q0 129 -92 207t-250 78h-487v-561z" />
    <glyph glyph-name="C" unicode="C" horiz-adv-x="1748" 
d="M897 176q201 0 345 114q146 115 196 324l213 -45q-61 -277 -268 -439q-206 -161 -486 -161q-336 0 -567 234q-232 235 -232 573q0 340 232 575q231 234 567 234q277 0 484 -160t270 -426l-213 -59q-51 209 -196 324q-144 114 -345 114q-245 0 -411 -174
q-167 -175 -167 -428q0 -254 167 -427t411 -173z" />
    <glyph glyph-name="D" unicode="D" horiz-adv-x="1705" 
d="M162 1556h606q379 0 609 -214q231 -214 231 -564t-231 -564q-230 -214 -609 -214h-606v1556zM381 199h399q274 0 440 159t166 420t-166 420q-168 160 -440 160h-399v-1159z" />
    <glyph glyph-name="E" unicode="E" horiz-adv-x="1368" 
d="M1251 199v-199h-1089v1556h1083v-200h-864v-455h813v-196h-813v-506h870z" />
    <glyph glyph-name="F" unicode="F" horiz-adv-x="1286" 
d="M381 1358v-457h813v-196h-813v-705h-219v1556h1069v-198h-850z" />
    <glyph glyph-name="G" unicode="G" horiz-adv-x="1775" 
d="M748 868h925q4 -65 4 -94q0 -342 -218 -574q-217 -231 -556 -231t-572 234q-233 235 -233 573q0 340 232 575q231 234 565 234q257 0 460 -133t281 -369l-198 -69q-74 181 -219 272q-146 92 -324 92q-241 0 -408 -174q-165 -172 -165 -428t168 -427q170 -173 419 -173
q223 0 374 137t181 357h-716v198z" />
    <glyph glyph-name="H" unicode="H" horiz-adv-x="1619" 
d="M1460 1556v-1556h-221v682h-858v-682h-219v1556h219v-675h858v675h221z" />
    <glyph glyph-name="I" unicode="I" horiz-adv-x="542" 
d="M381 0h-219v1556h219v-1556z" />
    <glyph glyph-name="J" unicode="J" horiz-adv-x="1382" 
d="M1227 1556v-995q0 -259 -165 -426q-165 -166 -431 -166q-244 0 -401 137q-156 137 -191 367l209 45q23 -161 123 -255q101 -95 260 -95q167 0 271 110t104 283v995h221z" />
    <glyph glyph-name="K" unicode="K" horiz-adv-x="1466" 
d="M1137 0l-756 709v-709h-219v1556h219v-731l760 731h282l-811 -778l828 -778h-303z" />
    <glyph glyph-name="L" unicode="L" horiz-adv-x="1284" 
d="M1206 199v-199h-1044v1556h219v-1357h825z" />
    <glyph glyph-name="M" unicode="M" horiz-adv-x="1923" 
d="M1763 1556v-1556h-215v1176l-534 -631h-101l-538 631v-1176h-213v1556h147l654 -765l653 765h147z" />
    <glyph glyph-name="N" unicode="N" horiz-adv-x="1746" 
d="M1585 1556v-1556h-155l-1047 1157l-2 -1157h-219v1556h155l1049 -1173v1173h219z" />
    <glyph glyph-name="O" unicode="O" horiz-adv-x="1792" 
d="M897 1585q336 0 567 -235q232 -237 232 -576q0 -334 -232 -569q-231 -234 -567 -234t-567 234q-232 235 -232 569q0 339 232 576q231 235 567 235zM897 178q245 0 411 171q167 172 167 425q0 255 -167 430q-166 174 -411 174t-411 -174q-167 -175 -167 -430
q0 -253 167 -425q166 -171 411 -171z" />
    <glyph glyph-name="P" unicode="P" horiz-adv-x="1286" 
d="M162 1556h561q233 0 371 -116q139 -117 139 -314q0 -198 -139 -316t-371 -118h-342v-692h-219v1556zM381 893h342q134 0 212 62q79 63 79 171q0 106 -79 169t-212 63h-342v-465z" />
    <glyph glyph-name="Q" unicode="Q" horiz-adv-x="1792" 
d="M1620 -438l-387 481q-159 -72 -336 -72q-336 0 -567 234q-232 235 -232 569q0 339 232 576q231 235 567 235t567 -235q232 -237 232 -576q0 -187 -76 -348t-211 -272l473 -592h-262zM319 774q0 -253 167 -425q166 -171 411 -171t411 171q167 172 167 425q0 255 -167 430
q-166 174 -411 174t-411 -174q-167 -175 -167 -430z" />
    <glyph glyph-name="R" unicode="R" horiz-adv-x="1591" 
d="M1612 0h-277l-661 702h-293v-702h-219v1556h571q229 0 364 -117q136 -118 136 -309q0 -144 -81 -251t-226 -150zM381 903h352q128 0 205 63q76 63 76 164q0 102 -75 165t-206 63h-352v-455z" />
    <glyph glyph-name="S" unicode="S" horiz-adv-x="1374" 
d="M668 1585q231 0 383 -116q151 -115 192 -318l-223 -47q-24 131 -119 208t-231 77q-124 0 -209 -65q-84 -64 -84 -179q0 -82 49 -130q51 -49 152 -79l352 -102q338 -101 338 -410q0 -209 -154 -331t-403 -122q-245 0 -415 120t-198 339l238 49q24 -151 129 -231
q106 -80 264 -80q148 0 232 66q83 65 83 184q0 85 -49 135q-51 53 -159 82l-318 90q-73 20 -135 48q-54 25 -118 75q-57 45 -91 121q-33 73 -33 168q0 204 145 326t382 122z" />
    <glyph glyph-name="T" unicode="T" horiz-adv-x="1314" 
d="M1270 1358h-502v-1358h-221v1358h-500v198h1223v-198z" />
    <glyph glyph-name="U" unicode="U" horiz-adv-x="1638" 
d="M1483 1556v-872q0 -322 -183 -518q-183 -197 -481 -197q-302 0 -487 197t-185 518v872h220v-872q0 -232 123 -367q125 -137 329 -137q199 0 321 138q122 139 122 366v872h221z" />
    <glyph glyph-name="V" unicode="V" horiz-adv-x="1638" 
d="M1612 1556l-717 -1556h-152l-716 1556h241l551 -1196l551 1196h242z" />
    <glyph glyph-name="W" unicode="W" horiz-adv-x="2238" 
d="M2212 1556l-510 -1556h-172l-412 1128l-411 -1128h-170l-510 1556h229l377 -1142l418 1142h135l418 -1142l376 1142h232z" />
    <glyph glyph-name="X" unicode="X" horiz-adv-x="1515" 
d="M1221 0l-463 608l-463 -608h-268l594 780l-584 776h268l453 -600l452 600h269l-586 -776l596 -780h-268z" />
    <glyph glyph-name="Y" unicode="Y" horiz-adv-x="1568" 
d="M891 504v-504h-221v504l-643 1052h243l510 -825l510 825h252z" />
    <glyph glyph-name="Z" unicode="Z" horiz-adv-x="1464" 
d="M1370 188v-188h-1261v80l940 1288h-916v188h1227v-77l-924 -1291h934z" />
    <glyph glyph-name="bracketleft" unicode="[" horiz-adv-x="815" 
d="M369 1516v-1520h350v-184h-557v1888h557v-184h-350z" />
    <glyph glyph-name="backslash" unicode="\" horiz-adv-x="804" 
d="M786 -166h-178l-590 1866h179z" />
    <glyph glyph-name="bracketright" unicode="]" horiz-adv-x="815" 
d="M653 1700v-1888h-555v184h351v1520h-351v184h555z" />
    <glyph glyph-name="asciicircum" unicode="^" horiz-adv-x="858" 
d="M236 1094h-189l307 462h152l307 -462h-190l-193 286z" />
    <glyph glyph-name="underscore" unicode="_" horiz-adv-x="1071" 
d="M1030 -293h-989v178h989v-178z" />
    <glyph glyph-name="grave" unicode="`" horiz-adv-x="1228" 
d="M571 1452l150 -291h-184l-215 291h249z" />
    <glyph glyph-name="a" unicode="a" horiz-adv-x="1159" 
d="M1122 195l17 -170q-73 -35 -146 -35q-159 0 -202 141q-131 -160 -361 -160q-160 0 -258 85t-98 225q0 141 105 225q104 83 306 98l293 23v18q0 101 -59 159t-162 58q-88 0 -149 -47q-59 -46 -76 -133l-197 43q28 146 144 233q115 86 286 86q188 0 301 -101
q115 -103 115 -281v-396q0 -34 15 -57t40 -23q12 0 20 1q14 2 30 3q7 1 19 3t17 2zM471 143q130 0 218 79q89 80 89 196v61l-276 -28q-213 -21 -213 -162q0 -70 50 -108t132 -38z" />
    <glyph glyph-name="b" unicode="b" horiz-adv-x="1320" 
d="M743 1044q205 0 355 -151q149 -150 149 -385q0 -237 -148 -386q-149 -151 -356 -151q-228 0 -368 146v-117h-213v1638h213v-739q139 145 368 145zM709 160q142 0 237 95q94 94 94 253t-94 253q-95 95 -237 95q-134 0 -234 -97t-100 -251t100 -251t234 -97z" />
    <glyph glyph-name="c" unicode="c" horiz-adv-x="1193" 
d="M621 164q111 0 193 58t120 171l196 -51q-45 -166 -185 -267q-141 -102 -324 -102q-229 0 -389 151q-158 149 -158 384q0 234 158 385t389 151q179 0 319 -99q139 -99 190 -265l-204 -59q-30 111 -113 172q-81 59 -192 59q-149 0 -243 -97q-95 -98 -95 -247t95 -247
q94 -97 243 -97z" />
    <glyph glyph-name="d" unicode="d" horiz-adv-x="1320" 
d="M1161 1638v-1638h-215v115q-144 -144 -368 -144q-205 0 -355 152q-149 150 -149 385t149 385q150 151 355 151q227 0 368 -145v739h215zM612 160q134 0 234 96t100 252q0 154 -100 251t-234 97q-140 0 -235 -96q-94 -95 -94 -252q0 -159 94 -253q95 -95 235 -95z" />
    <glyph glyph-name="e" unicode="e" horiz-adv-x="1181" 
d="M1108 530v-73h-823q15 -138 102 -219q88 -82 205 -82q210 0 299 176l190 -41q-62 -158 -189 -239q-128 -81 -300 -81q-213 0 -366 150q-152 149 -152 385q0 239 152 388q153 150 374 150q206 0 353 -144t155 -370zM600 856q-108 0 -197 -65q-89 -66 -112 -183h598
q-24 121 -103 185q-78 63 -186 63z" />
    <glyph glyph-name="f" unicode="f" horiz-adv-x="806" 
d="M819 840h-399v-840h-213v840h-207v176h207v270q0 173 102 278t273 105q91 0 174 -37l-51 -174q-53 21 -109 21q-79 0 -128 -54q-48 -53 -48 -139v-270h399v-176z" />
    <glyph glyph-name="g" unicode="g" horiz-adv-x="1243" 
d="M1223 840l-228 -2q54 -93 54 -203q0 -174 -125 -290t-314 -116q-153 0 -266 80q-59 -28 -59 -86q0 -52 41 -82q40 -30 106 -30h346q177 0 288 -97q110 -96 110 -254q0 -177 -139 -286t-371 -109h-142q-222 0 -350 105q-127 105 -127 272q0 168 133 274q-90 74 -90 197
q0 143 135 223q-53 89 -53 199q0 176 126 293q125 116 312 116q90 0 168 -28h445v-176zM610 410q104 0 173 65q71 66 71 160q0 96 -71 162q-69 65 -173 65q-106 0 -174 -65q-69 -66 -69 -162q0 -97 69 -161q68 -64 174 -64zM778 -66h-313q-92 0 -149 -48q-56 -47 -56 -132
q0 -92 73 -153q72 -60 206 -60h127q136 0 216 62q79 61 79 159q0 78 -50 125t-133 47z" />
    <glyph glyph-name="h" unicode="h" horiz-adv-x="1269" 
d="M727 1044q183 0 295 -119q113 -121 113 -311v-614h-215v571q0 123 -67 201q-66 76 -175 76q-141 0 -222 -96t-81 -283v-469h-213v1638h213v-747q129 153 352 153z" />
    <glyph glyph-name="i" unicode="i" horiz-adv-x="567" 
d="M285 1511q57 0 96 -40q39 -41 39 -95t-39 -92q-38 -37 -96 -37q-61 0 -99 37q-39 38 -39 92t39 95q39 40 99 40zM391 0h-213v1016h213v-1016z" />
    <glyph glyph-name="j" unicode="j" horiz-adv-x="595" 
d="M311 1511q58 0 98 -40t40 -95q0 -54 -39 -92q-38 -37 -99 -37q-58 0 -96 37q-39 38 -39 92t39 95q39 40 96 40zM-43 -557l41 186q54 -22 96 -22q52 0 83 28q32 29 32 74v1307h213v-1335q0 -123 -76 -199t-201 -76q-98 0 -188 37z" />
    <glyph glyph-name="k" unicode="k" horiz-adv-x="1175" 
d="M870 0l-495 420v-420h-213v1638h213v-1054l477 432h274l-551 -508l590 -508h-295z" />
    <glyph glyph-name="l" unicode="l" horiz-adv-x="536" 
d="M375 0h-213v1638h213v-1638z" />
    <glyph glyph-name="m" unicode="m" horiz-adv-x="1939" 
d="M1417 1044q164 0 274 -110q111 -111 111 -287v-647h-211v604q0 112 -64 177q-65 67 -165 67q-128 0 -201 -88q-74 -89 -74 -256v-504h-213v604q0 112 -64 177q-65 67 -165 67q-126 0 -198 -88t-72 -256v-504h-213v1016h213v-115q116 143 325 143q112 0 200 -49
q89 -50 138 -137q134 186 379 186z" />
    <glyph glyph-name="n" unicode="n" horiz-adv-x="1269" 
d="M727 1044q183 0 295 -119q113 -121 113 -311v-614h-215v571q0 123 -67 201q-66 76 -175 76q-141 0 -222 -96t-81 -283v-469h-213v1016h213v-125q129 153 352 153z" />
    <glyph glyph-name="o" unicode="o" horiz-adv-x="1245" 
d="M625 1044q230 0 388 -151t158 -385t-158 -385q-160 -152 -388 -152q-232 0 -392 152q-159 151 -159 385t159 385q158 151 392 151zM625 160q142 0 240 97q100 98 100 251t-100 251q-98 97 -240 97q-145 0 -244 -96q-98 -95 -98 -252t98 -252q99 -96 244 -96z" />
    <glyph glyph-name="p" unicode="p" horiz-adv-x="1320" 
d="M743 1044q205 0 355 -151q149 -150 149 -385q0 -237 -148 -386q-149 -151 -356 -151q-228 0 -368 146v-690h-213v1589h213v-117q139 145 368 145zM709 160q142 0 237 95q94 94 94 253t-94 253q-95 95 -237 95q-134 0 -234 -97t-100 -251t100 -251t234 -97z" />
    <glyph glyph-name="q" unicode="q" horiz-adv-x="1320" 
d="M1161 1016v-1589h-215v688q-144 -144 -368 -144q-205 0 -355 152q-149 150 -149 385t149 385q150 151 355 151q227 0 368 -145v117h215zM612 160q134 0 234 96t100 252q0 154 -100 251t-234 97q-140 0 -235 -96q-94 -95 -94 -252q0 -159 94 -253q95 -95 235 -95z" />
    <glyph glyph-name="r" unicode="r" horiz-adv-x="860" 
d="M762 1028q43 0 72 -8l-15 -205q-22 2 -59 2q-188 0 -287 -122q-98 -120 -98 -337v-358h-213v1016h213v-209q128 221 387 221z" />
    <glyph glyph-name="s" unicode="s" horiz-adv-x="962" 
d="M76 272l215 45q11 -89 69 -133q60 -45 146 -45q85 0 132 40q48 41 48 102q0 87 -111 116l-210 56q-261 66 -261 276q0 140 103 228q102 87 272 87q163 0 270 -80t134 -212l-203 -43q-12 75 -64 124q-51 48 -137 48q-73 0 -117 -35q-43 -34 -43 -94q0 -92 134 -125
l198 -54q244 -63 244 -276q0 -154 -110 -240t-291 -86q-166 0 -284 76t-134 225z" />
    <glyph glyph-name="t" unicode="t" horiz-adv-x="858" 
d="M432 840v-494q0 -81 41 -128q40 -46 113 -46q89 0 172 55l63 -178q-127 -78 -250 -78q-168 0 -260 95t-92 264v510h-219v176h219v393l213 66v-459h420v-176h-420z" />
    <glyph glyph-name="u" unicode="u" horiz-adv-x="1269" 
d="M1108 1016v-1016h-213v125q-130 -154 -350 -154q-185 0 -296 120q-112 121 -112 312v613h213v-570q0 -123 67 -201q66 -77 177 -77q142 0 221 96q80 97 80 283v469h213z" />
    <glyph glyph-name="v" unicode="v" horiz-adv-x="1177" 
d="M1153 1018l-481 -1018h-164l-481 1018h229l334 -715l334 715h229z" />
    <glyph glyph-name="w" unicode="w" horiz-adv-x="1685" 
d="M1659 1016l-379 -1020h-182l-254 684l-256 -684h-182l-379 1020h227l252 -697l254 697h166l254 -701l252 701h227z" />
    <glyph glyph-name="x" unicode="x" horiz-adv-x="1226" 
d="M770 498l381 -498h-256l-281 371l-282 -371h-254l379 498l-379 518h254l282 -387l281 387h256z" />
    <glyph glyph-name="y" unicode="y" horiz-adv-x="1189" 
d="M1163 1016l-731 -1589h-229l274 598l-450 991h229l336 -746l342 746h229z" />
    <glyph glyph-name="z" unicode="z" horiz-adv-x="1013" 
d="M952 176v-176h-870v63l549 777h-535v176h850v-76l-547 -764h553z" />
    <glyph glyph-name="braceleft" unicode="{" horiz-adv-x="874" 
d="M487 1391v-383q0 -186 -137 -252q137 -66 137 -252v-383q0 -125 121 -125h168v-184h-186q-150 0 -229 75q-80 76 -80 209v383q0 150 -160 180l-53 15v162l53 16q160 30 160 180v381q0 134 80 210q82 77 229 77h186v-184h-168q-121 0 -121 -125z" />
    <glyph glyph-name="bar" unicode="|" horiz-adv-x="528" 
d="M369 -166h-207v1866h207v-1866z" />
    <glyph glyph-name="braceright" unicode="}" horiz-adv-x="874" 
d="M807 836v-162l-53 -15q-160 -30 -160 -180v-383q0 -133 -81 -209q-79 -75 -228 -75h-187v184h168q121 0 121 125v383q0 186 137 252q-137 66 -137 252v383q0 125 -121 125h-168v184h187q146 0 228 -77q81 -77 81 -210v-381q0 -150 160 -180z" />
    <glyph glyph-name="asciitilde" unicode="~" horiz-adv-x="999" 
d="M264 479h-168q0 149 74 217t170 68q83 0 169 -53q88 -54 128 -54q44 0 68 30q24 31 20 79h180q0 -154 -78 -223q-79 -70 -176 -70q-86 0 -169 53q-85 54 -122 54q-45 0 -73 -28t-23 -73z" />
    <glyph glyph-name="exclamdown" unicode="&#xa1;" horiz-adv-x="571" 
d="M285 780q-59 0 -96 39q-37 38 -37 92q0 56 37 93q36 36 96 36q59 0 96 -36q39 -38 39 -93q0 -53 -39 -92t-96 -39zM170 -453l8 1000h217l8 -1000v-71h-233v71z" />
    <glyph glyph-name="cent" unicode="&#xa2;" horiz-adv-x="1204" 
d="M621 164q111 0 193 58t120 171l196 -51q-40 -143 -147 -237q-108 -95 -258 -123v-248h-213v250q-190 34 -314 178q-124 143 -124 346q0 204 124 347q125 145 314 179v256h213v-256q147 -27 254 -121q108 -94 151 -233l-204 -59q-30 111 -113 172q-81 59 -192 59
q-149 0 -243 -97q-95 -98 -95 -247t95 -247q94 -97 243 -97z" />
    <glyph glyph-name="sterling" unicode="&#xa3;" horiz-adv-x="1447" 
d="M1364 199v-199h-1266v135l197 43v420h-197v199h197v262q0 236 146 381t386 145q236 0 378 -143q143 -144 153 -381l-207 -41q-7 168 -94 261q-85 91 -230 91q-139 0 -225 -86t-86 -227v-262h500v-199h-500v-399h848z" />
    <glyph glyph-name="yen" unicode="&#xa5;" horiz-adv-x="1490" 
d="M938 743h336v-163h-422v-160h422v-166h-422v-254h-219v254h-414v166h414v160h-414v163h328l-496 813h244l446 -755l447 755h252z" />
    <glyph glyph-name="section" unicode="&#xa7;" horiz-adv-x="1218" 
d="M1147 553q0 -114 -54 -193q-53 -78 -143 -118q80 -89 80 -213q0 -167 -123 -261q-125 -96 -317 -96q-225 0 -353 113t-126 299l184 35q6 -139 80 -210t205 -71q107 0 173 54t66 141q0 116 -147 182l-334 145q-149 61 -216 142t-67 203q0 208 195 307q-78 90 -78 213
q0 168 122 264t316 96q214 0 338 -111t129 -292l-192 -37q-2 131 -73 201q-70 69 -191 69q-107 0 -174 -53q-66 -52 -66 -141q0 -118 149 -181l334 -145q150 -61 216 -141q67 -81 67 -201zM764 369l41 -19q145 66 145 191q0 59 -39 103q-41 45 -135 91l-340 152l-45 20
q-141 -61 -141 -190q0 -61 38 -107t138 -92z" />
    <glyph glyph-name="dieresis" unicode="&#xa8;" horiz-adv-x="1228" 
d="M383 1436q57 0 96 -39t39 -92q0 -58 -38 -96t-97 -38t-97 38t-38 96q0 53 39 92t96 39zM848 1436q57 0 96 -39t39 -92q0 -58 -38 -96t-97 -38t-97 38t-38 96q0 53 39 92t96 39z" />
    <glyph glyph-name="copyright" unicode="&#xa9;" horiz-adv-x="1734" 
d="M868 1585q332 0 565 -231q232 -231 232 -582q0 -345 -232 -573q-233 -228 -565 -228q-331 0 -565 228q-233 227 -233 573q0 352 233 582q234 231 565 231zM868 1485q-286 0 -487 -203q-201 -202 -201 -508q0 -304 201 -502t487 -198q288 0 487 198t199 502
q0 309 -199 509q-200 202 -487 202zM881 1210q165 0 275 -88q112 -89 134 -221l-145 -33q-23 93 -95 147t-169 54q-121 0 -200 -82t-79 -213q0 -130 79 -212q80 -83 200 -83q95 0 171 58q75 57 93 153l145 -26q-21 -143 -132 -235q-110 -91 -277 -91q-180 0 -308 122
q-127 121 -127 314q0 194 127 315t308 121z" />
    <glyph glyph-name="ordfeminine" unicode="&#xaa;" horiz-adv-x="862" 
d="M838 944l14 -137q-70 -29 -119 -29q-117 0 -155 103q-85 -103 -252 -103q-122 0 -198 64q-75 63 -75 162q0 211 322 241l190 19v16q0 68 -43 110q-44 42 -112 42q-139 0 -172 -138l-154 33q27 115 111 175q85 61 204 61q152 0 242 -75t90 -220v-271q0 -57 39 -57
q1 0 29 2t39 2zM362 903q93 0 148 51t55 131v66l-176 -16q-168 -12 -168 -119q0 -52 38 -82q39 -31 103 -31z" />
    <glyph glyph-name="guillemotleft" unicode="&#xab;" horiz-adv-x="907" 
d="M51 537l240 364h213l-240 -364l240 -365h-213zM406 537l239 364h211l-240 -364l240 -365h-211z" />
    <glyph glyph-name="registered" unicode="&#xae;" horiz-adv-x="1024" 
d="M512 1585q172 0 291 -117t119 -294q0 -176 -119 -293t-291 -117t-291 117t-119 293q0 177 119 294t291 117zM512 831q142 0 241 99t99 244q0 146 -99 245t-241 99q-140 0 -239 -99t-99 -245q0 -145 99 -244t239 -99zM690 1251q0 -99 -104 -123l125 -135h-86l-119 129h-72
v-129h-69v383h172q70 0 111 -34q42 -34 42 -91zM434 1184h103q37 0 59 18t22 47q0 28 -22 46q-23 18 -59 18h-103v-129z" />
    <glyph glyph-name="macron" unicode="&#xaf;" horiz-adv-x="1228" 
d="M924 1184h-617v174h617v-174z" />
    <glyph glyph-name="degree" unicode="&#xb0;" horiz-adv-x="843" 
d="M424 1585q122 0 208 -80q85 -79 85 -207q0 -126 -86 -206t-207 -80q-122 0 -210 80q-87 80 -87 206q0 128 87 207q88 80 210 80zM424 1149q58 0 102 41q43 40 43 108t-44 110t-101 42q-60 0 -105 -42t-45 -110t45 -108q46 -41 105 -41z" />
    <glyph glyph-name="plusminus" unicode="&#xb1;" horiz-adv-x="1187" 
d="M1055 860v-186h-367v-322h-188v322h-367v186h367v352h188v-352h367zM133 186h922v-186h-922v186z" />
    <glyph glyph-name="twosuperior" unicode="&#xb2;" horiz-adv-x="710" 
d="M342 1135h285v-138h-566v39l281 293q102 107 119 139q14 28 14 64q0 54 -34 85q-35 32 -91 32q-60 0 -100 -45q-42 -46 -43 -119l-135 31q0 119 76 192q77 74 202 74q123 0 201 -67q76 -66 76 -181q0 -51 -31 -110q-29 -54 -56 -85q-17 -19 -104 -106z" />
    <glyph glyph-name="threesuperior" unicode="&#xb3;" horiz-adv-x="686" 
d="M627 1698l-183 -234q89 -17 142 -80q53 -64 53 -157q0 -118 -81 -190t-212 -72q-122 0 -203 65q-82 66 -94 162l150 29q11 -58 51 -91q39 -32 96 -32q62 0 101 32q40 33 40 91q0 57 -37 91t-98 34h-131l-8 20l178 242h-305l4 139h537v-49z" />
    <glyph glyph-name="acute" unicode="&#xb4;" horiz-adv-x="1228" 
d="M666 1161h-183l150 291h250z" />
    <glyph glyph-name="paragraph" unicode="&#xb6;" horiz-adv-x="1183" 
d="M737 0h-166v797h-102q-185 0 -307 105q-121 105 -121 282q0 181 107 276q108 96 292 96h297v-1556zM1024 0h-166v1556h166v-1556z" />
    <glyph glyph-name="periodcentered" unicode="&#xb7;" horiz-adv-x="452" 
d="M227 664q58 0 96 -38q37 -37 37 -91q0 -56 -37 -93q-36 -36 -96 -36q-59 0 -96 36q-39 38 -39 93q0 53 39 91q40 38 96 38z" />
    <glyph glyph-name="cedilla" unicode="&#xb8;" horiz-adv-x="1228" 
d="M602 0h160l-133 -338h-228z" />
    <glyph glyph-name="onesuperior" unicode="&#xb9;" horiz-adv-x="468" 
d="M369 993h-160v557l-186 -69v151l317 129h29v-768z" />
    <glyph glyph-name="ordmasculine" unicode="&#xba;" horiz-adv-x="911" 
d="M457 1563q164 0 278 -108q115 -109 115 -275q0 -170 -114 -278q-113 -107 -279 -107q-168 0 -281 107q-115 109 -115 278q0 167 116 275t280 108zM457 936q101 0 170 69t69 175q0 102 -69 173q-69 70 -170 70q-99 0 -168 -69q-70 -70 -70 -174q0 -106 69 -175t169 -69z
" />
    <glyph glyph-name="guillemotright" unicode="&#xbb;" horiz-adv-x="907" 
d="M51 172l240 365l-240 364h213l240 -364l-240 -365h-213zM406 172l239 365l-239 364h210l240 -364l-240 -365h-210z" />
    <glyph glyph-name="onequarter" unicode="&#xbc;" horiz-adv-x="1392" 
d="M209 1346l-186 -70v151l317 129h29v-768h-160v558zM1253 1556l-1015 -1556h-146l1016 1556h145zM1356 135h-127v-137h-148v137h-405v76l489 555h64v-502h127v-129zM1081 264v217l-188 -217h188z" />
    <glyph glyph-name="onehalf" unicode="&#xbd;" horiz-adv-x="1470" 
d="M217 1346l-186 -70v151l317 129h27v-768h-158v558zM1229 1556l-1016 -1556h-145l1015 1556h146zM1106 137h285v-137h-566v39l281 293q102 107 119 139q14 28 14 64q0 54 -34 85t-91 31q-60 0 -100 -45q-42 -46 -43 -119l-135 31q0 120 76 193t202 73q124 0 201 -66
q76 -66 76 -181q0 -51 -31 -110q-29 -54 -56 -85q-17 -19 -104 -106z" />
    <glyph glyph-name="threequarters" unicode="&#xbe;" horiz-adv-x="1529" 
d="M645 1036q0 -117 -81 -189q-82 -73 -212 -73q-120 0 -202 66q-83 67 -95 161l150 29q11 -57 51 -90t96 -33q62 0 102 33t40 90q0 56 -38 91q-37 34 -98 34h-131l-8 21l178 241h-305l4 139h537v-49l-182 -233q88 -16 141 -80t53 -158zM1417 1556l-1016 -1556h-145
l1016 1556h145zM1491 135h-127v-137h-147v137h-406v76l489 555h64v-502h127v-129zM1217 264v217l-189 -217h189z" />
    <glyph glyph-name="questiondown" unicode="&#xbf;" horiz-adv-x="1081" 
d="M571 780q-57 0 -96 39t-39 92q0 55 39 93q37 36 96 36q60 0 96 -36q38 -38 38 -93q0 -52 -38 -92q-37 -39 -96 -39zM827 -98l203 -39q-11 -180 -142 -297q-132 -117 -345 -117q-209 0 -342 123t-133 322q0 179 110 286q112 109 293 127v240h197v-406h-123
q-117 0 -192 -71q-77 -72 -77 -181q0 -108 75 -180q74 -71 192 -71q120 0 196 70t88 194z" />
    <glyph glyph-name="Agrave" unicode="&#xc0;" horiz-adv-x="1648" 
d="M731 1702l-217 291h250l149 -291h-182zM1638 0h-245l-154 338h-829l-154 -338h-246l727 1556h174zM1149 539l-324 716l-325 -716h649z" />
    <glyph glyph-name="Aacute" unicode="&#xc1;" horiz-adv-x="1648" 
d="M926 1702h-183l150 291h250zM1638 0h-245l-154 338h-829l-154 -338h-246l727 1556h174zM1149 539l-324 716l-325 -716h649z" />
    <glyph glyph-name="Acircumflex" unicode="&#xc2;" horiz-adv-x="1648" 
d="M702 1694h-213l236 299h203l237 -299h-215l-123 159zM1638 0h-245l-154 338h-829l-154 -338h-246l727 1556h174zM1149 539l-324 716l-325 -716h649z" />
    <glyph glyph-name="Atilde" unicode="&#xc3;" horiz-adv-x="1648" 
d="M717 1829q-31 0 -49 -23q-19 -24 -19 -59h-145q0 125 59 181q60 57 139 57q68 0 141 -45q71 -44 111 -44q29 0 48 25q18 24 18 64h143q0 -129 -57 -186q-56 -56 -139 -56q-74 0 -142 43t-108 43zM1638 0h-245l-154 338h-829l-154 -338h-246l727 1556h174zM1149 539
l-324 716l-325 -716h649z" />
    <glyph glyph-name="Adieresis" unicode="&#xc4;" horiz-adv-x="1648" 
d="M594 1712q-59 0 -97 38t-38 95q0 53 39 92t96 39t96 -39t39 -92q0 -57 -38 -95t-97 -38zM1059 1712q-59 0 -97 38t-38 95q0 53 39 92t96 39t96 -39t39 -92q0 -57 -38 -95t-97 -38zM1638 0h-245l-154 338h-829l-154 -338h-246l727 1556h174zM1149 539l-324 716l-325 -716
h649z" />
    <glyph glyph-name="Aring" unicode="&#xc5;" horiz-adv-x="1648" 
d="M825 1663q-95 0 -160 64q-67 65 -67 155q0 92 67 157q65 64 160 64q97 0 162 -64q66 -65 66 -157q0 -93 -66 -156t-162 -63zM825 1978q-43 0 -71 -27q-29 -27 -29 -69q0 -38 29 -67t71 -29q43 0 72 29t29 67q0 42 -29 69t-72 27zM1638 0h-245l-154 338h-829l-154 -338
h-246l727 1556h174zM1149 539l-324 716l-325 -716h649z" />
    <glyph glyph-name="AE" unicode="&#xc6;" horiz-adv-x="2367" 
d="M2249 199v-199h-1090v338h-651l-244 -338h-254l1137 1556h1096v-200h-863v-455h811v-196h-811v-506h869zM1159 539v698l-506 -698h506z" />
    <glyph glyph-name="Ccedilla" unicode="&#xc7;" horiz-adv-x="1748" 
d="M897 176q201 0 345 114q146 115 196 324l213 -45q-57 -263 -247 -423q-188 -158 -452 -175l-121 -309h-227l187 313q-299 39 -496 266t-197 535q0 340 232 575q231 234 567 234q277 0 484 -160t270 -426l-213 -59q-51 209 -196 324q-144 114 -345 114q-245 0 -411 -174
q-167 -175 -167 -428q0 -254 167 -427t411 -173z" />
    <glyph glyph-name="Egrave" unicode="&#xc8;" horiz-adv-x="1368" 
d="M643 1702l-217 291h250l149 -291h-182zM1251 199v-199h-1089v1556h1083v-200h-864v-455h813v-196h-813v-506h870z" />
    <glyph glyph-name="Eacute" unicode="&#xc9;" horiz-adv-x="1368" 
d="M836 1702h-183l150 291h250zM1251 199v-199h-1089v1556h1083v-200h-864v-455h813v-196h-813v-506h870z" />
    <glyph glyph-name="Ecircumflex" unicode="&#xca;" horiz-adv-x="1368" 
d="M612 1694h-213l236 299h203l237 -299h-215l-123 159zM1251 199v-199h-1089v1556h1083v-200h-864v-455h813v-196h-813v-506h870z" />
    <glyph glyph-name="Edieresis" unicode="&#xcb;" horiz-adv-x="1368" 
d="M504 1712q-59 0 -97 38t-38 95q0 53 39 92t96 39t96 -39t39 -92q0 -57 -38 -95t-97 -38zM969 1712q-60 0 -98 38q-37 37 -37 95q0 54 38 92q39 39 97 39q57 0 96 -39t39 -92q0 -57 -38 -95t-97 -38zM1251 199v-199h-1089v1556h1083v-200h-864v-455h813v-196h-813v-506
h870z" />
    <glyph glyph-name="Igrave" unicode="&#xcc;" horiz-adv-x="542" 
d="M211 1993l149 -291h-182l-217 291h250zM381 0h-219v1556h219v-1556z" />
    <glyph glyph-name="Iacute" unicode="&#xcd;" horiz-adv-x="542" 
d="M371 1702h-183l150 291h250zM381 0h-219v1556h219v-1556z" />
    <glyph glyph-name="Icircumflex" unicode="&#xce;" horiz-adv-x="542" 
d="M610 1694h-215l-123 159l-125 -159h-213l236 299h203zM162 1556h219v-1556h-219v1556z" />
    <glyph glyph-name="Idieresis" unicode="&#xcf;" horiz-adv-x="542" 
d="M39 1976q57 0 96 -39t39 -92q0 -57 -38 -95t-97 -38q-60 0 -97 37q-38 38 -38 96q0 52 38 92q38 39 97 39zM504 1976q57 0 96 -39t39 -92q0 -57 -38 -95t-97 -38t-97 38t-38 95q0 53 39 92t96 39zM381 0h-219v1556h219v-1556z" />
    <glyph glyph-name="Eth" unicode="&#xd0;" horiz-adv-x="1746" 
d="M203 1556h606q379 0 609 -214q231 -214 231 -564t-231 -564q-230 -214 -609 -214h-606v672h-142v200h142v684zM422 199h399q273 0 440 159q166 159 166 420t-166 420q-168 160 -440 160h-399v-486h301v-200h-301v-473z" />
    <glyph glyph-name="Ntilde" unicode="&#xd1;" horiz-adv-x="1746" 
d="M762 1829q-31 0 -49 -23q-19 -24 -19 -59h-145q0 125 59 181q60 57 140 57q67 0 140 -45q71 -44 111 -44q30 0 49 25q17 23 17 64h143q0 -129 -57 -186q-56 -56 -139 -56q-74 0 -142 43t-108 43zM1585 1556v-1556h-155l-1047 1157l-2 -1157h-219v1556h155l1049 -1173
v1173h219z" />
    <glyph glyph-name="Ograve" unicode="&#xd2;" horiz-adv-x="1792" 
d="M803 1702l-217 291h250l149 -291h-182zM897 1585q336 0 567 -235q232 -237 232 -576q0 -334 -232 -569q-231 -234 -567 -234t-567 234q-232 235 -232 569q0 339 232 576q231 235 567 235zM897 178q245 0 411 171q167 172 167 425q0 255 -167 430q-166 174 -411 174
t-411 -174q-167 -175 -167 -430q0 -253 167 -425q166 -171 411 -171z" />
    <glyph glyph-name="Oacute" unicode="&#xd3;" horiz-adv-x="1792" 
d="M997 1702h-182l150 291h249zM897 1585q336 0 567 -235q232 -237 232 -576q0 -334 -232 -569q-231 -234 -567 -234t-567 234q-232 235 -232 569q0 339 232 576q231 235 567 235zM897 178q245 0 411 171q167 172 167 425q0 255 -167 430q-166 174 -411 174t-411 -174
q-167 -175 -167 -430q0 -253 167 -425q166 -171 411 -171z" />
    <glyph glyph-name="Ocircumflex" unicode="&#xd4;" horiz-adv-x="1792" 
d="M774 1694h-213l236 299h202l238 -299h-215l-123 159zM897 1585q336 0 567 -235q232 -237 232 -576q0 -334 -232 -569q-231 -234 -567 -234t-567 234q-232 235 -232 569q0 339 232 576q231 235 567 235zM897 178q245 0 411 171q167 172 167 425q0 255 -167 430
q-166 174 -411 174t-411 -174q-167 -175 -167 -430q0 -253 167 -425q166 -171 411 -171z" />
    <glyph glyph-name="Otilde" unicode="&#xd5;" horiz-adv-x="1792" 
d="M788 1829q-31 0 -49 -23q-18 -22 -18 -59h-146q0 124 60 181t139 57q67 0 140 -45q71 -44 112 -44q29 0 48 25q18 24 18 64h143q0 -129 -57 -186q-56 -56 -140 -56q-73 0 -141 43t-109 43zM897 1585q336 0 567 -235q232 -237 232 -576q0 -334 -232 -569
q-231 -234 -567 -234t-567 234q-232 235 -232 569q0 339 232 576q231 235 567 235zM897 178q245 0 411 171q167 172 167 425q0 255 -167 430q-166 174 -411 174t-411 -174q-167 -175 -167 -430q0 -253 167 -425q166 -171 411 -171z" />
    <glyph glyph-name="Odieresis" unicode="&#xd6;" horiz-adv-x="1792" 
d="M666 1712q-60 0 -98 38t-38 95q0 53 39 92t97 39q57 0 96 -39t39 -92q0 -57 -38 -95t-97 -38zM1130 1712q-59 0 -97 38t-38 95q0 53 39 92t96 39q58 0 97 -39t39 -92q0 -57 -38 -95t-98 -38zM897 1585q336 0 567 -235q232 -237 232 -576q0 -334 -232 -569
q-231 -234 -567 -234t-567 234q-232 235 -232 569q0 339 232 576q231 235 567 235zM897 178q245 0 411 171q167 172 167 425q0 255 -167 430q-166 174 -411 174t-411 -174q-167 -175 -167 -430q0 -253 167 -425q166 -171 411 -171z" />
    <glyph glyph-name="multiply" unicode="&#xd7;" horiz-adv-x="1103" 
d="M688 625l283 -281l-135 -137l-283 282l-285 -282l-135 137l283 281l-283 282l135 135l285 -282l283 282l135 -135z" />
    <glyph glyph-name="Oslash" unicode="&#xd8;" horiz-adv-x="1792" 
d="M1636 1462l-137 -151q197 -226 197 -537q0 -334 -232 -569q-231 -234 -567 -234q-265 0 -475 154l-139 -154l-131 123l139 154q-193 222 -193 526q0 339 232 576q231 235 567 235q263 0 469 -151l139 153zM319 774q0 -207 117 -366l787 868q-144 102 -326 102
q-245 0 -411 -174q-167 -175 -167 -430zM897 178q245 0 411 171q167 172 167 425q0 214 -121 377l-789 -868q150 -105 332 -105z" />
    <glyph glyph-name="Ugrave" unicode="&#xd9;" horiz-adv-x="1638" 
d="M719 1702l-217 291h250l149 -291h-182zM1483 1556v-872q0 -322 -183 -518q-183 -197 -481 -197q-302 0 -487 197t-185 518v872h220v-872q0 -232 123 -367q125 -137 329 -137q199 0 321 138q122 139 122 366v872h221z" />
    <glyph glyph-name="Uacute" unicode="&#xda;" horiz-adv-x="1638" 
d="M913 1702h-182l150 291h249zM1483 1556v-872q0 -322 -183 -518q-183 -197 -481 -197q-302 0 -487 197t-185 518v872h220v-872q0 -232 123 -367q125 -137 329 -137q199 0 321 138q122 139 122 366v872h221z" />
    <glyph glyph-name="Ucircumflex" unicode="&#xdb;" horiz-adv-x="1638" 
d="M690 1694h-213l236 299h202l238 -299h-215l-123 159zM1483 1556v-872q0 -322 -183 -518q-183 -197 -481 -197q-302 0 -487 197t-185 518v872h220v-872q0 -232 123 -367q125 -137 329 -137q199 0 321 138q122 139 122 366v872h221z" />
    <glyph glyph-name="Udieresis" unicode="&#xdc;" horiz-adv-x="1638" 
d="M582 1712q-60 0 -98 38t-38 95q0 53 39 92t97 39q57 0 96 -39t39 -92q0 -57 -38 -95t-97 -38zM1047 1712q-60 0 -98 38t-38 95q0 53 39 92t97 39q57 0 96 -39t39 -92q0 -57 -38 -95t-97 -38zM1483 1556v-872q0 -322 -183 -518q-183 -197 -481 -197q-302 0 -487 197
t-185 518v872h220v-872q0 -232 123 -367q125 -137 329 -137q199 0 321 138q122 139 122 366v872h221z" />
    <glyph glyph-name="Yacute" unicode="&#xdd;" horiz-adv-x="1568" 
d="M885 1702h-183l150 291h250zM891 504v-504h-221v504l-643 1052h243l510 -825l510 825h252z" />
    <glyph glyph-name="Thorn" unicode="&#xde;" horiz-adv-x="1290" 
d="M381 1212h377q219 0 348 -113q131 -114 131 -311q0 -195 -131 -309q-130 -114 -348 -114h-377v-365h-219v1556h219v-344zM381 563h367q125 0 197 60q73 61 73 165q0 105 -73 166q-72 60 -197 60h-367v-451z" />
    <glyph glyph-name="germandbls" unicode="&#xdf;" horiz-adv-x="1382" 
d="M995 856q143 -38 224 -140t81 -267q0 -205 -130 -334t-347 -129q-156 0 -309 47l29 176q139 -43 264 -43q138 0 220 79q83 80 83 204q0 147 -105 224q-106 77 -284 77h-88v176h57q130 0 207 62q78 63 78 161q0 112 -76 181q-77 69 -201 69q-146 0 -234 -93
q-89 -94 -89 -251v-1055h-213v1040q0 245 147 395t389 150q213 0 346 -118q134 -119 134 -296q0 -108 -48 -193q-47 -83 -135 -122z" />
    <glyph glyph-name="agrave" unicode="&#xe0;" horiz-adv-x="1159" 
d="M463 1239l-217 291h250l149 -291h-182zM1122 195l17 -170q-73 -35 -146 -35q-159 0 -202 141q-131 -160 -361 -160q-160 0 -258 85t-98 225q0 141 105 225q104 83 306 98l293 23v18q0 101 -59 159t-162 58q-88 0 -149 -47q-59 -46 -76 -133l-197 43q28 146 144 233
q115 86 286 86q188 0 301 -101q115 -103 115 -281v-396q0 -34 15 -57t40 -23q12 0 20 1q14 2 30 3q7 1 19 3t17 2zM471 143q130 0 218 79q89 80 89 196v61l-276 -28q-213 -21 -213 -162q0 -70 50 -108t132 -38z" />
    <glyph glyph-name="aacute" unicode="&#xe1;" horiz-adv-x="1159" 
d="M655 1239h-182l150 291h249zM1122 195l17 -170q-73 -35 -146 -35q-159 0 -202 141q-131 -160 -361 -160q-160 0 -258 85t-98 225q0 141 105 225q104 83 306 98l293 23v18q0 101 -59 159t-162 58q-88 0 -149 -47q-59 -46 -76 -133l-197 43q28 146 144 233q115 86 286 86
q188 0 301 -101q115 -103 115 -281v-396q0 -34 15 -57t40 -23q12 0 20 1q14 2 30 3q7 1 19 3t17 2zM471 143q130 0 218 79q89 80 89 196v61l-276 -28q-213 -21 -213 -162q0 -70 50 -108t132 -38z" />
    <glyph glyph-name="acircumflex" unicode="&#xe2;" horiz-adv-x="1159" 
d="M432 1231h-213l236 299h202l238 -299h-215l-123 160zM1122 195l17 -170q-73 -35 -146 -35q-159 0 -202 141q-131 -160 -361 -160q-160 0 -258 85t-98 225q0 141 105 225q104 83 306 98l293 23v18q0 101 -59 159t-162 58q-88 0 -149 -47q-59 -46 -76 -133l-197 43
q28 146 144 233q115 86 286 86q188 0 301 -101q115 -103 115 -281v-396q0 -34 15 -57t40 -23q12 0 20 1q14 2 30 3q7 1 19 3t17 2zM471 143q130 0 218 79q89 80 89 196v61l-276 -28q-213 -21 -213 -162q0 -70 50 -108t132 -38z" />
    <glyph glyph-name="atilde" unicode="&#xe3;" horiz-adv-x="1159" 
d="M449 1364q-32 0 -50 -23t-18 -59h-145q0 125 59 181q60 57 139 57q69 0 140 -44t112 -44q30 0 48 24t18 64h143q0 -129 -57 -186q-56 -56 -140 -56q-73 0 -141 43t-108 43zM1122 195l17 -170q-73 -35 -146 -35q-159 0 -202 141q-131 -160 -361 -160q-160 0 -258 85
t-98 225q0 141 105 225q104 83 306 98l293 23v18q0 101 -59 159t-162 58q-88 0 -149 -47q-59 -46 -76 -133l-197 43q28 146 144 233q115 86 286 86q188 0 301 -101q115 -103 115 -281v-396q0 -34 15 -57t40 -23q12 0 20 1q14 2 30 3q7 1 19 3t17 2zM471 143q130 0 218 79
q89 80 89 196v61l-276 -28q-213 -21 -213 -162q0 -70 50 -108t132 -38z" />
    <glyph glyph-name="adieresis" unicode="&#xe4;" horiz-adv-x="1159" 
d="M324 1249q-60 0 -98 38t-38 95q0 54 39 93q38 38 97 38q58 0 96 -38q39 -39 39 -93q0 -57 -38 -95t-97 -38zM788 1249q-59 0 -97 38t-38 95q0 54 39 93q38 38 96 38q59 0 97 -38q39 -39 39 -93q0 -57 -38 -95t-98 -38zM1122 195l17 -170q-73 -35 -146 -35
q-159 0 -202 141q-131 -160 -361 -160q-160 0 -258 85t-98 225q0 141 105 225q104 83 306 98l293 23v18q0 101 -59 159t-162 58q-88 0 -149 -47q-59 -46 -76 -133l-197 43q28 146 144 233q115 86 286 86q188 0 301 -101q115 -103 115 -281v-396q0 -34 15 -57t40 -23
q12 0 20 1q14 2 30 3q7 1 19 3t17 2zM471 143q130 0 218 79q89 80 89 196v61l-276 -28q-213 -21 -213 -162q0 -70 50 -108t132 -38z" />
    <glyph glyph-name="aring" unicode="&#xe5;" horiz-adv-x="1159" 
d="M555 1198q-94 0 -161 65q-66 65 -66 154q0 93 66 157q65 64 161 64q97 0 162 -64t65 -157t-65 -155q-67 -64 -162 -64zM555 1513q-43 0 -72 -27q-28 -27 -28 -69q0 -39 28 -67q29 -29 72 -29t72 29q28 28 28 67q0 42 -28 69q-29 27 -72 27zM1122 195l17 -170
q-73 -35 -146 -35q-159 0 -202 141q-131 -160 -361 -160q-160 0 -258 85t-98 225q0 141 105 225q104 83 306 98l293 23v18q0 101 -59 159t-162 58q-88 0 -149 -47q-59 -46 -76 -133l-197 43q28 146 144 233q115 86 286 86q188 0 301 -101q115 -103 115 -281v-396
q0 -34 15 -57t40 -23q12 0 20 1q14 2 30 3q7 1 19 3t17 2zM471 143q130 0 218 79q89 80 89 196v61l-276 -28q-213 -21 -213 -162q0 -70 50 -108t132 -38z" />
    <glyph glyph-name="ae" unicode="&#xe6;" horiz-adv-x="1871" 
d="M1798 436h-803q21 -132 103 -206q81 -74 205 -74q81 0 158 41q76 40 120 133l191 -41q-40 -140 -173 -230q-130 -88 -303 -88q-262 0 -407 205q-65 -91 -180 -148q-114 -57 -254 -57q-181 0 -281 90t-100 228q0 137 106 219t281 82h338v61q0 96 -64 155q-62 58 -168 58
q-96 0 -160 -49q-65 -50 -77 -133l-197 43q17 140 137 229q122 90 299 90q243 0 357 -159q147 159 366 159q214 0 359 -149q146 -150 147 -385v-74zM995 590h588q-21 130 -97 201q-75 71 -186 71q-113 0 -200 -71q-88 -72 -105 -201zM799 436h-338q-83 0 -133 -38
q-49 -37 -49 -103q0 -68 55 -110q56 -42 145 -42q128 0 223 79q97 80 97 192v22z" />
    <glyph glyph-name="ccedilla" unicode="&#xe7;" horiz-adv-x="1193" 
d="M621 164q111 0 193 58t120 171l196 -51q-40 -149 -156 -245q-118 -97 -276 -120l-125 -315h-227l189 318q-200 29 -330 174q-131 146 -131 354q0 234 158 385t389 151q179 0 319 -99q139 -99 190 -265l-204 -59q-30 111 -113 172q-81 59 -192 59q-149 0 -243 -97
q-95 -98 -95 -247t95 -247q94 -97 243 -97z" />
    <glyph glyph-name="egrave" unicode="&#xe8;" horiz-adv-x="1181" 
d="M508 1239l-217 291h250l149 -291h-182zM1108 530v-73h-823q15 -138 102 -219q88 -82 205 -82q210 0 299 176l190 -41q-62 -158 -189 -239q-128 -81 -300 -81q-213 0 -366 150q-152 149 -152 385q0 239 152 388q153 150 374 150q206 0 353 -144t155 -370zM600 856
q-108 0 -197 -65q-89 -66 -112 -183h598q-24 121 -103 185q-78 63 -186 63z" />
    <glyph glyph-name="eacute" unicode="&#xe9;" horiz-adv-x="1181" 
d="M702 1239h-182l150 291h250zM1108 530v-73h-823q15 -138 102 -219q88 -82 205 -82q210 0 299 176l190 -41q-62 -158 -189 -239q-128 -81 -300 -81q-213 0 -366 150q-152 149 -152 385q0 239 152 388q153 150 374 150q206 0 353 -144t155 -370zM600 856q-108 0 -197 -65
q-89 -66 -112 -183h598q-24 121 -103 185q-78 63 -186 63z" />
    <glyph glyph-name="ecircumflex" unicode="&#xea;" horiz-adv-x="1181" 
d="M479 1231h-213l236 299h203l237 -299h-215l-123 160zM1108 530v-73h-823q15 -138 102 -219q88 -82 205 -82q210 0 299 176l190 -41q-62 -158 -189 -239q-128 -81 -300 -81q-213 0 -366 150q-152 149 -152 385q0 239 152 388q153 150 374 150q206 0 353 -144t155 -370z
M600 856q-108 0 -197 -65q-89 -66 -112 -183h598q-24 121 -103 185q-78 63 -186 63z" />
    <glyph glyph-name="edieresis" unicode="&#xeb;" horiz-adv-x="1181" 
d="M371 1249q-60 0 -98 38q-37 37 -37 95q0 55 38 93t97 38q58 0 96 -38q39 -39 39 -93q0 -57 -38 -95t-97 -38zM836 1249q-60 0 -98 38t-38 95q0 54 39 93q38 38 97 38q58 0 96 -38q39 -39 39 -93q0 -57 -38 -95t-97 -38zM1108 530v-73h-823q15 -138 102 -219
q88 -82 205 -82q210 0 299 176l190 -41q-62 -158 -189 -239q-128 -81 -300 -81q-213 0 -366 150q-152 149 -152 385q0 239 152 388q153 150 374 150q206 0 353 -144t155 -370zM600 856q-108 0 -197 -65q-89 -66 -112 -183h598q-24 121 -103 185q-78 63 -186 63z" />
    <glyph glyph-name="igrave" unicode="&#xec;" horiz-adv-x="587" 
d="M233 1530l150 -291h-182l-217 291h249zM401 0h-213v1016h213v-1016z" />
    <glyph glyph-name="iacute" unicode="&#xed;" horiz-adv-x="587" 
d="M395 1239h-182l149 291h250zM401 0h-213v1016h213v-1016z" />
    <glyph glyph-name="icircumflex" unicode="&#xee;" horiz-adv-x="587" 
d="M635 1231h-215l-123 160l-125 -160h-213l236 299h202zM188 1016h213v-1016h-213v1016z" />
    <glyph glyph-name="idieresis" unicode="&#xef;" horiz-adv-x="587" 
d="M63 1513q59 0 97 -38q39 -39 39 -93q0 -57 -38 -95t-98 -38t-97 37q-38 38 -38 96q0 53 38 93q37 38 97 38zM528 1513q59 0 97 -38q39 -39 39 -93q0 -57 -38 -95t-98 -38q-59 0 -97 38t-38 95q0 54 39 93q38 38 96 38zM401 0h-213v1016h213v-1016z" />
    <glyph glyph-name="eth" unicode="&#xf0;" horiz-adv-x="1241" 
d="M975 1403l-133 -55q141 -181 233 -403q90 -217 90 -415q0 -265 -159 -412t-379 -147q-228 0 -391 152q-162 151 -162 385q0 231 159 384q158 152 373 152q142 0 248 -65q-72 151 -209 285l-283 -119l-61 149l213 90q-153 120 -340 209v45h340q104 -52 215 -163l184 77z
M629 160q151 0 238 108t87 246q0 148 -98 245t-240 97q-139 0 -236 -97t-97 -249q0 -154 101 -252t245 -98z" />
    <glyph glyph-name="ntilde" unicode="&#xf1;" horiz-adv-x="1269" 
d="M541 1364q-31 0 -49 -23q-19 -24 -19 -59h-145q0 125 59 181q60 57 139 57q70 0 141 -44t111 -44q30 0 48 24t18 64h143q0 -129 -57 -186q-56 -56 -139 -56q-74 0 -142 43t-108 43zM727 1044q183 0 295 -119q113 -121 113 -311v-614h-215v571q0 123 -67 201
q-66 76 -175 76q-141 0 -222 -96t-81 -283v-469h-213v1016h213v-125q129 153 352 153z" />
    <glyph glyph-name="ograve" unicode="&#xf2;" horiz-adv-x="1245" 
d="M530 1239l-217 291h250l150 -291h-183zM625 1044q230 0 388 -151t158 -385t-158 -385q-160 -152 -388 -152q-232 0 -392 152q-159 151 -159 385t159 385q158 151 392 151zM625 160q142 0 240 97q100 98 100 251t-100 251q-98 97 -240 97q-145 0 -244 -96
q-98 -95 -98 -252t98 -252q99 -96 244 -96z" />
    <glyph glyph-name="oacute" unicode="&#xf3;" horiz-adv-x="1245" 
d="M725 1239h-182l149 291h250zM625 1044q230 0 388 -151t158 -385t-158 -385q-160 -152 -388 -152q-232 0 -392 152q-159 151 -159 385t159 385q158 151 392 151zM625 160q142 0 240 97q100 98 100 251t-100 251q-98 97 -240 97q-145 0 -244 -96q-98 -95 -98 -252t98 -252
q99 -96 244 -96z" />
    <glyph glyph-name="ocircumflex" unicode="&#xf4;" horiz-adv-x="1245" 
d="M502 1231h-213l235 299h203l238 -299h-215l-123 160zM625 1044q230 0 388 -151t158 -385t-158 -385q-160 -152 -388 -152q-232 0 -392 152q-159 151 -159 385t159 385q158 151 392 151zM625 160q142 0 240 97q100 98 100 251t-100 251q-98 97 -240 97q-145 0 -244 -96
q-98 -95 -98 -252t98 -252q99 -96 244 -96z" />
    <glyph glyph-name="otilde" unicode="&#xf5;" horiz-adv-x="1245" 
d="M516 1364q-31 0 -49 -23t-18 -59h-146q0 125 59 181q60 57 140 57q69 0 140 -44t112 -44q30 0 48 24q17 23 17 64h144q0 -128 -58 -186q-56 -56 -139 -56q-73 0 -141 43t-109 43zM625 1044q230 0 388 -151t158 -385t-158 -385q-160 -152 -388 -152q-232 0 -392 152
q-159 151 -159 385t159 385q158 151 392 151zM625 160q142 0 240 97q100 98 100 251t-100 251q-98 97 -240 97q-145 0 -244 -96q-98 -95 -98 -252t98 -252q99 -96 244 -96z" />
    <glyph glyph-name="odieresis" unicode="&#xf6;" horiz-adv-x="1245" 
d="M393 1249q-59 0 -97 38t-38 95q0 54 39 93q38 38 96 38t96 -38q39 -39 39 -93q0 -57 -38 -95t-97 -38zM858 1249q-59 0 -97 38t-38 95q0 54 39 93q38 38 96 38t96 -38q39 -39 39 -93q0 -57 -38 -95t-97 -38zM625 1044q230 0 388 -151t158 -385t-158 -385
q-160 -152 -388 -152q-232 0 -392 152q-159 151 -159 385t159 385q158 151 392 151zM625 160q142 0 240 97q100 98 100 251t-100 251q-98 97 -240 97q-145 0 -244 -96q-98 -95 -98 -252t98 -252q99 -96 244 -96z" />
    <glyph glyph-name="divide" unicode="&#xf7;" horiz-adv-x="1187" 
d="M586 1118q57 0 96 -39t39 -92t-39 -91q-40 -38 -96 -38q-59 0 -96 37t-37 92q0 54 37 92q38 39 96 39zM1055 530h-922v189h922v-189zM586 393q57 0 96 -39t39 -92q0 -54 -39 -92q-38 -37 -96 -37q-59 0 -96 37t-37 92q0 54 37 92q38 39 96 39z" />
    <glyph glyph-name="oslash" unicode="&#xf8;" horiz-adv-x="1234" 
d="M1165 934l-100 -100q106 -139 106 -326q0 -234 -158 -385q-160 -152 -388 -152q-181 0 -326 97l-104 -105l-121 121l102 102q-102 141 -102 322q0 234 159 385q158 151 392 151q181 0 315 -94l104 105zM283 508q0 -97 41 -174l475 475q-79 47 -174 47q-145 0 -244 -96
q-98 -95 -98 -252zM625 160q142 0 240 97q100 98 100 251q0 100 -45 180l-480 -479q85 -49 185 -49z" />
    <glyph glyph-name="ugrave" unicode="&#xf9;" horiz-adv-x="1269" 
d="M532 1239l-217 291h250l150 -291h-183zM1108 1016v-1016h-213v125q-130 -154 -350 -154q-185 0 -296 120q-112 121 -112 312v613h213v-570q0 -123 67 -201q66 -77 177 -77q142 0 221 96q80 97 80 283v469h213z" />
    <glyph glyph-name="uacute" unicode="&#xfa;" horiz-adv-x="1269" 
d="M727 1239h-182l149 291h250zM1108 1016v-1016h-213v125q-130 -154 -350 -154q-185 0 -296 120q-112 121 -112 312v613h213v-570q0 -123 67 -201q66 -77 177 -77q142 0 221 96q80 97 80 283v469h213z" />
    <glyph glyph-name="ucircumflex" unicode="&#xfb;" horiz-adv-x="1269" 
d="M504 1231h-213l235 299h203l238 -299h-215l-123 160zM1108 1016v-1016h-213v125q-130 -154 -350 -154q-185 0 -296 120q-112 121 -112 312v613h213v-570q0 -123 67 -201q66 -77 177 -77q142 0 221 96q80 97 80 283v469h213z" />
    <glyph glyph-name="udieresis" unicode="&#xfc;" horiz-adv-x="1269" 
d="M395 1249q-59 0 -97 38t-38 95q0 54 39 93q38 38 96 38q59 0 97 -38t38 -93q0 -58 -37 -95q-38 -38 -98 -38zM860 1249q-59 0 -97 38t-38 95q0 54 39 93q38 38 96 38t96 -38q39 -39 39 -93q0 -57 -38 -95t-97 -38zM1108 1016v-1016h-213v125q-130 -154 -350 -154
q-185 0 -296 120q-112 121 -112 312v613h213v-570q0 -123 67 -201q66 -77 177 -77q142 0 221 96q80 97 80 283v469h213z" />
    <glyph glyph-name="yacute" unicode="&#xfd;" horiz-adv-x="1189" 
d="M707 1239h-183l150 291h250zM1163 1016l-731 -1589h-229l274 598l-450 991h229l336 -746l342 746h229z" />
    <glyph glyph-name="thorn" unicode="&#xfe;" horiz-adv-x="1320" 
d="M743 1044q205 0 355 -151q149 -150 149 -385q0 -237 -148 -386q-149 -151 -356 -151q-228 0 -368 146v-690h-213v2211h213v-739q139 145 368 145zM709 160q142 0 237 95q94 94 94 253t-94 253q-95 95 -237 95q-134 0 -234 -97t-100 -251t100 -251t234 -97z" />
    <glyph glyph-name="ydieresis" unicode="&#xff;" horiz-adv-x="1189" 
d="M373 1249q-60 0 -98 38q-37 37 -37 95q0 55 38 93t97 38q58 0 96 -38q39 -39 39 -93q0 -57 -38 -95t-97 -38zM838 1249q-60 0 -98 38t-38 95q0 54 39 93q38 38 97 38q58 0 96 -38q39 -39 39 -93q0 -57 -38 -95t-97 -38zM1163 1016l-731 -1589h-229l274 598l-450 991h229
l336 -746l342 746h229z" />
    <glyph glyph-name="Amacron" unicode="&#x100;" horiz-adv-x="1648" 
d="M1135 1724h-617v174h617v-174zM1638 0h-245l-154 338h-829l-154 -338h-246l727 1556h174zM1149 539l-324 716l-325 -716h649z" />
    <glyph glyph-name="amacron" unicode="&#x101;" horiz-adv-x="1159" 
d="M864 1262h-616v174h616v-174zM1122 195l17 -170q-73 -35 -146 -35q-159 0 -202 141q-131 -160 -361 -160q-160 0 -258 85t-98 225q0 141 105 225q104 83 306 98l293 23v18q0 101 -59 159t-162 58q-88 0 -149 -47q-59 -46 -76 -133l-197 43q28 146 144 233q115 86 286 86
q188 0 301 -101q115 -103 115 -281v-396q0 -34 15 -57t40 -23q12 0 20 1q14 2 30 3q7 1 19 3t17 2zM471 143q130 0 218 79q89 80 89 196v61l-276 -28q-213 -21 -213 -162q0 -70 50 -108t132 -38z" />
    <glyph glyph-name="Abreve" unicode="&#x102;" horiz-adv-x="1648" 
d="M825 1671q-146 0 -232 79q-87 79 -87 212h178q0 -62 41 -103q40 -40 100 -40q63 0 103 40q41 41 41 103h176q0 -132 -87 -212q-86 -79 -233 -79zM1638 0h-245l-154 338h-829l-154 -338h-246l727 1556h174zM1149 539l-324 716l-325 -716h649z" />
    <glyph glyph-name="abreve" unicode="&#x103;" horiz-adv-x="1159" 
d="M555 1206q-146 0 -232 79q-87 79 -87 212h178q0 -62 41 -103q40 -40 100 -40q62 0 102 40q41 41 41 103h176q0 -133 -87 -212q-86 -79 -232 -79zM1122 195l17 -170q-73 -35 -146 -35q-159 0 -202 141q-131 -160 -361 -160q-160 0 -258 85t-98 225q0 141 105 225
q104 83 306 98l293 23v18q0 101 -59 159t-162 58q-88 0 -149 -47q-59 -46 -76 -133l-197 43q28 146 144 233q115 86 286 86q188 0 301 -101q115 -103 115 -281v-396q0 -34 15 -57t40 -23q12 0 20 1q14 2 30 3q7 1 19 3t17 2zM471 143q130 0 218 79q89 80 89 196v61l-276 -28
q-213 -21 -213 -162q0 -70 50 -108t132 -38z" />
    <glyph glyph-name="Aogonek" unicode="&#x104;" horiz-adv-x="1648" 
d="M1671 -250l10 -135q-87 -35 -155 -35q-80 0 -131 45q-52 46 -52 131q0 120 144 244h-94l-154 338h-829l-154 -338h-246l727 1556h174l727 -1556q-65 -72 -82 -91q-14 -17 -35 -53q-18 -31 -18 -61q0 -67 70 -67q28 0 98 22zM1149 539l-324 716l-325 -716h649z" />
    <glyph glyph-name="aogonek" unicode="&#x105;" horiz-adv-x="1159" 
d="M1171 -225l11 -135q-87 -35 -156 -35q-80 0 -131 45t-51 131q0 105 108 211q-124 18 -161 139q-131 -160 -361 -160q-160 0 -258 85t-98 225q0 141 105 225q104 83 306 98l293 23v18q0 101 -59 159t-162 58q-88 0 -149 -47q-59 -46 -76 -133l-197 43q28 146 144 233
q115 86 286 86q188 0 301 -101q115 -103 115 -282v-395q0 -34 15 -57t40 -23q12 0 20 1q14 2 30 3q7 1 19 3t17 2l17 -170q-51 -56 -82 -92q-17 -20 -36 -53q-17 -30 -17 -60q0 -68 69 -68q24 0 98 23zM471 143q130 0 218 79q89 80 89 196v61l-276 -28q-213 -21 -213 -162
q0 -70 50 -108t132 -38z" />
    <glyph glyph-name="Cacute" unicode="&#x106;" horiz-adv-x="1748" 
d="M997 1702h-182l150 291h249zM897 176q201 0 345 114q146 115 196 324l213 -45q-61 -277 -268 -439q-206 -161 -486 -161q-336 0 -567 234q-232 235 -232 573q0 340 232 575q231 234 567 234q277 0 484 -160t270 -426l-213 -59q-51 209 -196 324q-144 114 -345 114
q-245 0 -411 -174q-167 -175 -167 -428q0 -254 167 -427t411 -173z" />
    <glyph glyph-name="cacute" unicode="&#x107;" horiz-adv-x="1193" 
d="M723 1239h-182l149 291h250zM621 164q111 0 193 58t120 171l196 -51q-45 -166 -185 -267q-141 -102 -324 -102q-229 0 -389 151q-158 149 -158 384q0 234 158 385t389 151q179 0 319 -99q139 -99 190 -265l-204 -59q-30 111 -113 172q-81 59 -192 59q-149 0 -243 -97
q-95 -98 -95 -247t95 -247q94 -97 243 -97z" />
    <glyph glyph-name="Cdotaccent" unicode="&#x10a;" horiz-adv-x="1748" 
d="M895 1706q-58 0 -98 38q-39 38 -39 97q0 55 39 94t98 39t99 -39t40 -94q0 -57 -40 -96t-99 -39zM897 176q201 0 345 114q146 115 196 324l213 -45q-61 -277 -268 -439q-206 -161 -486 -161q-336 0 -567 234q-232 235 -232 573q0 340 232 575q231 234 567 234
q277 0 484 -160t270 -426l-213 -59q-51 209 -196 324q-144 114 -345 114q-245 0 -411 -174q-167 -175 -167 -428q0 -254 167 -427t411 -173z" />
    <glyph glyph-name="cdotaccent" unicode="&#x10b;" horiz-adv-x="1193" 
d="M621 1243q-59 0 -99 38q-39 37 -39 97q0 56 39 95q38 38 99 38q60 0 99 -38q40 -39 40 -95q0 -57 -40 -96t-99 -39zM621 164q111 0 193 58t120 171l196 -51q-45 -166 -185 -267q-141 -102 -324 -102q-229 0 -389 151q-158 149 -158 384q0 234 158 385t389 151
q179 0 319 -99q139 -99 190 -265l-204 -59q-30 111 -113 172q-81 59 -192 59q-149 0 -243 -97q-95 -98 -95 -247t95 -247q94 -97 243 -97z" />
    <glyph glyph-name="Ccaron" unicode="&#x10c;" horiz-adv-x="1748" 
d="M797 1694l-236 299h213l125 -160l123 160h215l-238 -299h-202zM897 176q201 0 345 114q146 115 196 324l213 -45q-61 -277 -268 -439q-206 -161 -486 -161q-336 0 -567 234q-232 235 -232 573q0 340 232 575q231 234 567 234q277 0 484 -160t270 -426l-213 -59
q-51 209 -196 324q-144 114 -345 114q-245 0 -411 -174q-167 -175 -167 -428q0 -254 167 -427t411 -173z" />
    <glyph glyph-name="ccaron" unicode="&#x10d;" horiz-adv-x="1193" 
d="M522 1231l-235 299h213l125 -160l123 160h215l-238 -299h-203zM621 164q111 0 193 58t120 171l196 -51q-45 -166 -185 -267q-141 -102 -324 -102q-229 0 -389 151q-158 149 -158 384q0 234 158 385t389 151q179 0 319 -99q139 -99 190 -265l-204 -59q-30 111 -113 172
q-81 59 -192 59q-149 0 -243 -97q-95 -98 -95 -247t95 -247q94 -97 243 -97z" />
    <glyph glyph-name="Dcaron" unicode="&#x10e;" horiz-adv-x="1705" 
d="M705 1694l-236 299h213l125 -160l123 160h215l-238 -299h-202zM162 1556h606q379 0 609 -214q231 -214 231 -564t-231 -564q-230 -214 -609 -214h-606v1556zM381 199h399q274 0 440 159t166 420t-166 420q-168 160 -440 160h-399v-1159z" />
    <glyph glyph-name="dcaron" unicode="&#x10f;" horiz-adv-x="1320" 
d="M946 1638h215v-1638h-215v115q-144 -144 -368 -144q-205 0 -355 152q-149 150 -149 385t149 385q150 151 355 151q227 0 368 -145v739zM1518 1638l-48 -381h-167v381h215zM612 160q134 0 234 96t100 252q0 154 -100 251t-234 97q-140 0 -235 -96q-94 -95 -94 -252
q0 -159 94 -253q95 -95 235 -95z" />
    <glyph glyph-name="Dcroat" unicode="&#x110;" horiz-adv-x="1746" 
d="M203 1556h606q379 0 609 -214q231 -214 231 -564t-231 -564q-230 -214 -609 -214h-606v672h-142v200h142v684zM422 199h399q273 0 440 159q166 159 166 420t-166 420q-168 160 -440 160h-399v-486h301v-200h-301v-473z" />
    <glyph glyph-name="dcroat" unicode="&#x111;" horiz-adv-x="1390" 
d="M1329 1233h-168v-1233h-215v115q-144 -144 -368 -144q-205 0 -355 152q-149 150 -149 385t149 385q150 151 355 151q227 0 368 -145v334h-325v174h325v231h215v-231h168v-174zM612 160q134 0 234 96t100 252q0 154 -100 251t-234 97q-140 0 -235 -96q-94 -95 -94 -252
q0 -159 94 -253q95 -95 235 -95z" />
    <glyph glyph-name="Emacron" unicode="&#x112;" horiz-adv-x="1368" 
d="M1044 1724h-616v174h616v-174zM1251 199v-199h-1089v1556h1083v-200h-864v-455h813v-196h-813v-506h870z" />
    <glyph glyph-name="emacron" unicode="&#x113;" horiz-adv-x="1181" 
d="M911 1262h-616v174h616v-174zM1108 530v-73h-823q15 -138 102 -219q88 -82 205 -82q210 0 299 176l190 -41q-62 -158 -189 -239q-128 -81 -300 -81q-213 0 -366 150q-152 149 -152 385q0 239 152 388q153 150 374 150q206 0 353 -144t155 -370zM600 856q-108 0 -197 -65
q-89 -66 -112 -183h598q-24 121 -103 185q-78 63 -186 63z" />
    <glyph glyph-name="Edotaccent" unicode="&#x116;" horiz-adv-x="1368" 
d="M735 1706q-58 0 -98 38q-39 38 -39 97q0 55 39 94t98 39t100 -39q39 -38 39 -94q0 -58 -39 -96q-41 -39 -100 -39zM1251 199v-199h-1089v1556h1083v-200h-864v-455h813v-196h-813v-506h870z" />
    <glyph glyph-name="edotaccent" unicode="&#x117;" horiz-adv-x="1181" 
d="M600 1243q-58 0 -98 38q-39 37 -39 97q0 56 39 95q38 38 98 38t99 -38q40 -39 40 -95q0 -57 -40 -96q-41 -39 -99 -39zM1108 530v-73h-823q15 -138 102 -219q88 -82 205 -82q210 0 299 176l190 -41q-62 -158 -189 -239q-128 -81 -300 -81q-213 0 -366 150
q-152 149 -152 385q0 239 152 388q153 150 374 150q206 0 353 -144t155 -370zM600 856q-108 0 -197 -65q-89 -66 -112 -183h598q-24 121 -103 185q-78 63 -186 63z" />
    <glyph glyph-name="Eogonek" unicode="&#x118;" horiz-adv-x="1368" 
d="M1251 0h-61q-65 -72 -82 -91q-17 -20 -36 -53q-17 -30 -17 -61q0 -67 69 -67q29 0 99 22l10 -135q-87 -35 -156 -35q-80 0 -131 45t-51 131q0 120 143 244h-876v1556h1083v-200h-864v-455h813v-196h-813v-506h870v-199z" />
    <glyph glyph-name="eogonek" unicode="&#x119;" horiz-adv-x="1181" 
d="M1108 457h-823q15 -138 101 -219q86 -82 204 -82q219 0 303 178l188 -41q-34 -70 -131 -172q-102 -111 -148 -182q-44 -68 -44 -132q0 -35 23 -55t63 -20q30 0 96 22l27 -137q-75 -37 -162 -37q-97 0 -155 55t-58 150t84 195q-40 -9 -84 -9q-214 0 -367 151
q-151 150 -151 386q0 237 152 386q153 150 370 150q215 0 362 -148q149 -150 150 -380v-59zM289 608h598q-18 124 -98 187q-79 63 -189 63q-109 0 -199 -66q-89 -65 -112 -184z" />
    <glyph glyph-name="Ecaron" unicode="&#x11a;" horiz-adv-x="1368" 
d="M635 1694l-236 299h213l125 -160l123 160h215l-237 -299h-203zM1251 199v-199h-1089v1556h1083v-200h-864v-455h813v-196h-813v-506h870z" />
    <glyph glyph-name="ecaron" unicode="&#x11b;" horiz-adv-x="1181" 
d="M502 1231l-236 299h213l125 -160l123 160h215l-237 -299h-203zM1108 530v-73h-823q15 -138 102 -219q88 -82 205 -82q210 0 299 176l190 -41q-62 -158 -189 -239q-128 -81 -300 -81q-213 0 -366 150q-152 149 -152 385q0 239 152 388q153 150 374 150q206 0 353 -144
t155 -370zM600 856q-108 0 -197 -65q-89 -66 -112 -183h598q-24 121 -103 185q-78 63 -186 63z" />
    <glyph glyph-name="Gbreve" unicode="&#x11e;" horiz-adv-x="1775" 
d="M907 1671q-146 0 -232 79q-87 79 -87 212h178q0 -62 41 -103q40 -40 100 -40q63 0 103 40q41 41 41 103h176q0 -132 -87 -212q-86 -79 -233 -79zM748 868h925q4 -65 4 -94q0 -342 -218 -574q-217 -231 -556 -231t-572 234q-233 235 -233 573q0 340 232 575
q231 234 565 234q257 0 460 -133t281 -369l-198 -69q-74 181 -219 272q-146 92 -324 92q-241 0 -408 -174q-165 -172 -165 -428t168 -427q170 -173 419 -173q223 0 374 137t181 357h-716v198z" />
    <glyph glyph-name="gbreve" unicode="&#x11f;" horiz-adv-x="1243" 
d="M629 1206q-147 0 -233 79q-87 79 -87 212h178q0 -62 41 -103q40 -40 101 -40q62 0 102 40q41 41 41 103h176q0 -133 -87 -212q-86 -79 -232 -79zM1223 840l-228 -2q54 -93 54 -203q0 -174 -125 -290t-314 -116q-153 0 -266 80q-59 -28 -59 -86q0 -52 41 -82
q40 -30 106 -30h346q177 0 288 -97q110 -96 110 -254q0 -177 -139 -286t-371 -109h-142q-222 0 -350 105q-127 105 -127 272q0 168 133 274q-90 74 -90 197q0 143 135 223q-53 89 -53 199q0 176 126 293q125 116 312 116q90 0 168 -28h445v-176zM610 410q104 0 173 65
q71 66 71 160q0 96 -71 162q-69 65 -173 65q-106 0 -174 -65q-69 -66 -69 -162q0 -97 69 -161q68 -64 174 -64zM778 -66h-313q-92 0 -149 -48q-56 -47 -56 -132q0 -92 73 -153q72 -60 206 -60h127q136 0 216 62q79 61 79 159q0 78 -50 125t-133 47z" />
    <glyph glyph-name="Gdotaccent" unicode="&#x120;" horiz-adv-x="1775" 
d="M905 1706q-58 0 -98 38q-39 38 -39 97q0 55 39 94t98 39t100 -39q39 -38 39 -94q0 -58 -39 -96q-41 -39 -100 -39zM748 868h925q4 -65 4 -94q0 -342 -218 -574q-217 -231 -556 -231t-572 234q-233 235 -233 573q0 340 232 575q231 234 565 234q257 0 460 -133t281 -369
l-198 -69q-74 181 -219 272q-146 92 -324 92q-241 0 -408 -174q-165 -172 -165 -428t168 -427q170 -173 419 -173q223 0 374 137t181 357h-716v198z" />
    <glyph glyph-name="gdotaccent" unicode="&#x121;" horiz-adv-x="1243" 
d="M629 1243q-59 0 -99 38q-38 37 -38 97q0 57 38 95t99 38q60 0 99 -38q40 -39 40 -95q0 -57 -40 -96t-99 -39zM1223 840l-228 -2q54 -93 54 -203q0 -174 -125 -290t-314 -116q-153 0 -266 80q-59 -28 -59 -86q0 -52 41 -82q40 -30 106 -30h346q177 0 288 -97
q110 -96 110 -254q0 -177 -139 -286t-371 -109h-142q-222 0 -350 105q-127 105 -127 272q0 168 133 274q-90 74 -90 197q0 143 135 223q-53 89 -53 199q0 176 126 293q125 116 312 116q90 0 168 -28h445v-176zM610 410q104 0 173 65q71 66 71 160q0 96 -71 162
q-69 65 -173 65q-106 0 -174 -65q-69 -66 -69 -162q0 -97 69 -161q68 -64 174 -64zM778 -66h-313q-92 0 -149 -48q-56 -47 -56 -132q0 -92 73 -153q72 -60 206 -60h127q136 0 216 62q79 61 79 159q0 78 -50 125t-133 47z" />
    <glyph glyph-name="Gcommaaccent" unicode="&#x122;" horiz-adv-x="1775" 
d="M748 868h925q4 -65 4 -94q0 -342 -218 -574q-217 -231 -556 -231t-572 234q-233 235 -233 573q0 340 232 575q231 234 565 234q257 0 460 -133t281 -369l-198 -69q-74 181 -219 272q-146 92 -324 92q-241 0 -408 -174q-165 -172 -165 -428t168 -427q170 -173 419 -173
q223 0 374 137t181 357h-716v198zM772 -92h232l-173 -299h-161z" />
    <glyph glyph-name="gcommaaccent" unicode="&#x123;" horiz-adv-x="1243" 
d="M737 1227h-231l172 301h162zM1223 840l-228 -2q54 -93 54 -203q0 -174 -125 -290t-314 -116q-153 0 -266 80q-59 -28 -59 -86q0 -52 41 -82q40 -30 106 -30h346q177 0 288 -97q110 -96 110 -254q0 -177 -139 -286t-371 -109h-142q-222 0 -350 105q-127 105 -127 272
q0 168 133 274q-90 74 -90 197q0 143 135 223q-53 89 -53 199q0 176 126 293q125 116 312 116q90 0 168 -28h445v-176zM610 410q104 0 173 65q71 66 71 160q0 96 -71 162q-69 65 -173 65q-106 0 -174 -65q-69 -66 -69 -162q0 -97 69 -161q68 -64 174 -64zM778 -66h-313
q-92 0 -149 -48q-56 -47 -56 -132q0 -92 73 -153q72 -60 206 -60h127q136 0 216 62q79 61 79 159q0 78 -50 125t-133 47z" />
    <glyph glyph-name="Hbar" unicode="&#x126;" horiz-adv-x="1701" 
d="M1640 1106h-129v-1106h-221v651h-878v-651h-219v1106h-132v182h132v268h219v-268h878v268h221v-268h129v-182zM1290 1106h-878v-256h878v256z" />
    <glyph glyph-name="hbar" unicode="&#x127;" horiz-adv-x="1308" 
d="M764 1044q186 0 296 -119q111 -120 111 -311v-614h-213v571q0 125 -66 201t-177 76q-141 0 -221 -96q-80 -97 -80 -283v-469h-213v1235h-140v172h140v231h213v-231h325v-172h-325v-344q128 153 350 153z" />
    <glyph glyph-name="Imacron" unicode="&#x12a;" horiz-adv-x="542" 
d="M580 1724h-619v174h619v-174zM381 0h-219v1556h219v-1556z" />
    <glyph glyph-name="imacron" unicode="&#x12b;" horiz-adv-x="587" 
d="M604 1262h-618v174h618v-174zM401 0h-213v1016h213v-1016z" />
    <glyph glyph-name="Iogonek" unicode="&#x12e;" horiz-adv-x="542" 
d="M414 -250l10 -135q-87 -35 -156 -35q-80 0 -131 45t-51 131q0 120 143 244h-67v1556h219v-1556q-65 -72 -82 -91q-17 -20 -36 -53q-17 -30 -17 -61q0 -67 69 -67q29 0 99 22z" />
    <glyph glyph-name="iogonek" unicode="&#x12f;" horiz-adv-x="587" 
d="M293 1243q-58 0 -98 38q-39 37 -39 97q0 56 39 95q38 38 98 38t99 -38q40 -39 40 -95q0 -57 -40 -96t-99 -39zM434 -250l10 -135q-87 -35 -155 -35q-80 0 -131 45q-52 46 -52 131q0 120 144 244h-62v1016h213v-1016q-65 -72 -82 -91q-14 -17 -35 -53q-18 -32 -18 -61
q0 -67 70 -67q28 0 98 22z" />
    <glyph glyph-name="Idotaccent" unicode="&#x130;" horiz-adv-x="542" 
d="M270 1974q60 0 100 -39t40 -94q0 -57 -40 -96t-100 -39q-58 0 -98 38q-39 38 -39 97q0 55 39 94t98 39zM381 0h-219v1556h219v-1556z" />
    <glyph glyph-name="dotlessi" unicode="&#x131;" horiz-adv-x="587" 
d="M401 0h-213v1016h213v-1016z" />
    <glyph glyph-name="IJ" unicode="&#x132;" horiz-adv-x="1925" 
d="M162 1556h219v-1556h-219v1556zM1769 1556v-995q0 -261 -164 -426q-165 -166 -431 -166q-244 0 -401 137q-156 137 -191 367l209 45q23 -162 122 -255q101 -95 261 -95q167 0 271 110q103 109 103 283v995h221z" />
    <glyph glyph-name="ij" unicode="&#x133;" horiz-adv-x="1163" 
d="M285 1511q57 0 96 -40q39 -41 39 -95t-39 -92q-38 -37 -96 -37q-61 0 -99 37q-39 38 -39 92t39 95q39 40 99 40zM879 1511q57 0 97 -40t40 -95q0 -54 -39 -92q-38 -37 -98 -37q-59 0 -97 37q-39 38 -39 92t39 95q39 40 97 40zM391 0h-213v1016h213v-1016zM524 -557
l43 186q50 -22 95 -22q51 0 82 28q32 29 32 74v1307h213v-1335q0 -123 -76 -199t-200 -76q-99 0 -189 37z" />
    <glyph glyph-name="Kcommaaccent" unicode="&#x136;" horiz-adv-x="1466" 
d="M1440 0h-303l-756 709v-709h-219v1556h219v-731l760 731h282l-811 -778zM625 -92h231l-172 -299h-162z" />
    <glyph glyph-name="kcommaaccent" unicode="&#x137;" horiz-adv-x="1175" 
d="M1165 0h-295l-495 420v-420h-213v1638h213v-1054l477 432h274l-551 -508zM496 -92h231l-172 -299h-162z" />
    <glyph glyph-name="Lacute" unicode="&#x139;" horiz-adv-x="1284" 
d="M369 1702h-183l150 291h250zM1206 199v-199h-1044v1556h219v-1357h825z" />
    <glyph glyph-name="lacute" unicode="&#x13a;" horiz-adv-x="536" 
d="M369 1784h-183l150 291h250zM375 0h-213v1638h213v-1638z" />
    <glyph glyph-name="Lcommaaccent" unicode="&#x13b;" horiz-adv-x="1284" 
d="M1206 199v-199h-1044v1556h219v-1357h825zM555 -92h231l-172 -299h-161z" />
    <glyph glyph-name="lcommaaccent" unicode="&#x13c;" horiz-adv-x="536" 
d="M375 0h-213v1638h213v-1638zM51 -391l103 299h231l-172 -299h-162z" />
    <glyph glyph-name="Lcaron" unicode="&#x13d;" horiz-adv-x="1284" 
d="M1206 199v-199h-1044v1556h219v-1357h825zM827 1176h-168v380h215z" />
    <glyph glyph-name="lcaron" unicode="&#x13e;" horiz-adv-x="536" 
d="M375 0h-213v1638h213v-1638zM678 1257h-168v381h215z" />
    <glyph glyph-name="Ldot" unicode="&#x13f;" horiz-adv-x="1339" 
d="M1206 199v-199h-1044v1556h219v-1357h825zM815 565q-58 0 -98 38q-39 37 -39 97q0 53 39 94q39 40 98 40t99 -40t40 -94q0 -57 -40 -96t-99 -39z" />
    <glyph glyph-name="ldot" unicode="&#x140;" horiz-adv-x="751" 
d="M375 0h-213v1638h213v-1638zM606 827q56 0 97 -39q40 -39 40 -94q0 -58 -38 -96q-39 -39 -99 -39q-58 0 -98 38q-39 38 -39 97q0 55 39 94t98 39z" />
    <glyph glyph-name="Lslash" unicode="&#x141;" horiz-adv-x="1318" 
d="M1243 199v-199h-1046v623l-136 -64v215l136 64v718h221v-612l289 137v-215l-289 -137v-530h825z" />
    <glyph glyph-name="lslash" unicode="&#x142;" horiz-adv-x="636" 
d="M575 762l-149 -90v-672h-213v545l-152 -90v207l152 90v886h213v-759l149 90v-207z" />
    <glyph glyph-name="Nacute" unicode="&#x143;" horiz-adv-x="1746" 
d="M971 1702h-183l150 291h250zM1585 1556v-1556h-155l-1047 1157l-2 -1157h-219v1556h155l1049 -1173v1173h219z" />
    <glyph glyph-name="nacute" unicode="&#x144;" horiz-adv-x="1269" 
d="M750 1239h-183l150 291h250zM727 1044q183 0 295 -119q113 -121 113 -311v-614h-215v571q0 123 -67 201q-66 76 -175 76q-141 0 -222 -96t-81 -283v-469h-213v1016h213v-125q129 153 352 153z" />
    <glyph glyph-name="Ncommaaccent" unicode="&#x145;" horiz-adv-x="1746" 
d="M1585 1556v-1556h-155l-1047 1157l-2 -1157h-219v1556h155l1049 -1173v1173h219zM766 -92h231l-172 -299h-161z" />
    <glyph glyph-name="ncommaaccent" unicode="&#x146;" horiz-adv-x="1269" 
d="M727 1044q183 0 295 -119q113 -121 113 -311v-614h-215v571q0 123 -67 201q-66 76 -175 76q-141 0 -222 -96t-81 -283v-469h-213v1016h213v-125q129 153 352 153zM543 -92h231l-172 -299h-162z" />
    <glyph glyph-name="Ncaron" unicode="&#x147;" horiz-adv-x="1746" 
d="M770 1694l-235 299h213l124 -160l123 160h215l-237 -299h-203zM1585 1556v-1556h-155l-1047 1157l-2 -1157h-219v1556h155l1049 -1173v1173h219z" />
    <glyph glyph-name="ncaron" unicode="&#x148;" horiz-adv-x="1269" 
d="M549 1231l-236 299h213l125 -160l123 160h215l-237 -299h-203zM727 1044q183 0 295 -119q113 -121 113 -311v-614h-215v571q0 123 -67 201q-66 76 -175 76q-141 0 -222 -96t-81 -283v-469h-213v1016h213v-125q129 153 352 153z" />
    <glyph glyph-name="Eng" unicode="&#x14a;" horiz-adv-x="1746" 
d="M1585 1556v-1861q0 -125 -76 -207t-200 -82q-112 0 -215 47l41 197q66 -27 122 -27q50 0 83 28q32 27 32 75v337l-989 1094l-2 -1157h-219v1556h155l1049 -1173v1173h219z" />
    <glyph glyph-name="eng" unicode="&#x14b;" horiz-adv-x="1271" 
d="M727 1044q183 0 295 -119q113 -121 113 -311v-694q0 -124 -77 -207q-76 -82 -200 -82q-115 0 -217 35l25 187q68 -21 155 -21q44 0 72 25q27 24 27 63v651q0 123 -67 201q-66 76 -175 76q-141 0 -222 -96t-81 -283v-469h-213v1016h213v-125q129 153 352 153z" />
    <glyph glyph-name="Omacron" unicode="&#x14c;" horiz-adv-x="1792" 
d="M1206 1724h-616v174h616v-174zM897 1585q336 0 567 -235q232 -237 232 -576q0 -334 -232 -569q-231 -234 -567 -234t-567 234q-232 235 -232 569q0 339 232 576q231 235 567 235zM897 178q245 0 411 171q167 172 167 425q0 255 -167 430q-166 174 -411 174t-411 -174
q-167 -175 -167 -430q0 -253 167 -425q166 -171 411 -171z" />
    <glyph glyph-name="omacron" unicode="&#x14d;" horiz-adv-x="1245" 
d="M934 1262h-617v174h617v-174zM625 1044q230 0 388 -151t158 -385t-158 -385q-160 -152 -388 -152q-232 0 -392 152q-159 151 -159 385t159 385q158 151 392 151zM625 160q142 0 240 97q100 98 100 251t-100 251q-98 97 -240 97q-145 0 -244 -96q-98 -95 -98 -252t98 -252
q99 -96 244 -96z" />
    <glyph glyph-name="Ohungarumlaut" unicode="&#x150;" horiz-adv-x="1792" 
d="M813 1702h-192l149 291h264zM969 1702l147 291h264l-219 -291h-192zM897 1585q336 0 567 -235q232 -237 232 -576q0 -334 -232 -569q-231 -234 -567 -234t-567 234q-232 235 -232 569q0 339 232 576q231 235 567 235zM897 178q245 0 411 171q167 172 167 425
q0 255 -167 430q-166 174 -411 174t-411 -174q-167 -175 -167 -430q0 -253 167 -425q166 -171 411 -171z" />
    <glyph glyph-name="ohungarumlaut" unicode="&#x151;" horiz-adv-x="1245" 
d="M541 1239h-193l150 291h264zM696 1239l148 291h264l-219 -291h-193zM625 1044q230 0 388 -151t158 -385t-158 -385q-160 -152 -388 -152q-232 0 -392 152q-159 151 -159 385t159 385q158 151 392 151zM625 160q142 0 240 97q100 98 100 251t-100 251q-98 97 -240 97
q-145 0 -244 -96q-98 -95 -98 -252t98 -252q99 -96 244 -96z" />
    <glyph glyph-name="OE" unicode="&#x152;" horiz-adv-x="2279" 
d="M2163 199v-199h-1198q-393 0 -629 214q-238 215 -238 566q0 347 239 562q238 214 628 214h1192v-200h-865v-455h813v-196h-813v-506h871zM1073 199v1159h-108q-291 0 -468 -159q-178 -160 -178 -419q0 -262 178 -422q177 -159 468 -159h108z" />
    <glyph glyph-name="oe" unicode="&#x153;" horiz-adv-x="2074" 
d="M2001 530v-73h-823q15 -137 103 -219t206 -82q209 0 299 176l190 -41q-63 -159 -190 -239q-128 -81 -299 -81q-127 0 -238 57t-182 156q-75 -99 -191 -156t-251 -57q-232 0 -392 152q-159 151 -159 385t159 385q158 151 392 151q140 0 253 -56q116 -57 189 -159
q72 102 184 159q111 56 242 56q206 0 353 -144t155 -370zM625 160q142 0 240 97q100 98 100 251t-100 251q-98 97 -240 97q-145 0 -244 -96q-98 -95 -98 -252t98 -252q99 -96 244 -96zM1493 856q-108 0 -197 -65q-89 -66 -112 -183h600q-24 122 -104 185q-79 63 -187 63z
" />
    <glyph glyph-name="Racute" unicode="&#x154;" horiz-adv-x="1591" 
d="M745 1702h-182l150 291h250zM1612 0h-277l-661 702h-293v-702h-219v1556h571q229 0 364 -117q136 -118 136 -309q0 -144 -81 -251t-226 -150zM381 903h352q128 0 205 63q76 63 76 164q0 102 -75 165t-206 63h-352v-455z" />
    <glyph glyph-name="racute" unicode="&#x155;" horiz-adv-x="860" 
d="M555 1239h-182l149 291h250zM762 1028q43 0 72 -8l-15 -205q-22 2 -59 2q-188 0 -287 -122q-98 -120 -98 -337v-358h-213v1016h213v-209q128 221 387 221z" />
    <glyph glyph-name="Rcommaaccent" unicode="&#x156;" horiz-adv-x="1591" 
d="M1612 0h-277l-661 702h-293v-702h-219v1556h571q229 0 364 -117q136 -118 136 -309q0 -144 -81 -251t-226 -150zM381 903h352q128 0 205 63q76 63 76 164q0 102 -75 165t-206 63h-352v-455zM698 -92h232l-172 -299h-162z" />
    <glyph glyph-name="rcommaaccent" unicode="&#x157;" horiz-adv-x="860" 
d="M762 1028q43 0 72 -8l-15 -205q-22 2 -59 2q-188 0 -287 -122q-98 -120 -98 -337v-358h-213v1016h213v-209q128 221 387 221zM154 -92h231l-172 -299h-162z" />
    <glyph glyph-name="Rcaron" unicode="&#x158;" horiz-adv-x="1591" 
d="M545 1694l-236 299h213l125 -160l123 160h215l-237 -299h-203zM1612 0h-277l-661 702h-293v-702h-219v1556h571q229 0 364 -117q136 -118 136 -309q0 -144 -81 -251t-226 -150zM381 903h352q128 0 205 63q76 63 76 164q0 102 -75 165t-206 63h-352v-455z" />
    <glyph glyph-name="rcaron" unicode="&#x159;" horiz-adv-x="860" 
d="M354 1231l-235 299h213l125 -160l123 160h215l-238 -299h-203zM762 1028q43 0 72 -8l-15 -205q-22 2 -59 2q-188 0 -287 -122q-98 -120 -98 -337v-358h-213v1016h213v-209q128 221 387 221z" />
    <glyph glyph-name="Sacute" unicode="&#x15a;" horiz-adv-x="1374" 
d="M788 1702h-182l150 291h250zM668 1585q231 0 383 -116q151 -115 192 -318l-223 -47q-24 131 -119 208t-231 77q-124 0 -209 -65q-84 -64 -84 -179q0 -82 49 -130q51 -49 152 -79l352 -102q338 -101 338 -410q0 -209 -154 -331t-403 -122q-245 0 -415 120t-198 339l238 49
q24 -151 129 -231q106 -80 264 -80q148 0 232 66q83 65 83 184q0 85 -49 135q-51 53 -159 82l-318 90q-73 20 -135 48q-54 25 -118 75q-57 45 -91 121q-33 73 -33 168q0 204 145 326t382 122z" />
    <glyph glyph-name="sacute" unicode="&#x15b;" horiz-adv-x="962" 
d="M600 1239h-182l149 291h250zM76 272l215 45q11 -89 69 -133q60 -45 146 -45q85 0 132 40q48 41 48 102q0 87 -111 116l-210 56q-261 66 -261 276q0 140 103 228q102 87 272 87q163 0 270 -80t134 -212l-203 -43q-12 75 -64 124q-51 48 -137 48q-73 0 -117 -35
q-43 -34 -43 -94q0 -92 134 -125l198 -54q244 -63 244 -276q0 -154 -110 -240t-291 -86q-166 0 -284 76t-134 225z" />
    <glyph glyph-name="Scedilla" unicode="&#x15e;" horiz-adv-x="1374" 
d="M1268 424q0 -194 -134 -314t-358 -137l-123 -311h-227l186 315q-207 22 -349 140q-141 117 -165 313l238 49q24 -151 129 -231q106 -80 264 -80q148 0 232 66q83 65 83 184q0 85 -49 135q-51 53 -159 82l-318 90q-73 20 -135 48q-54 25 -118 75q-57 45 -91 121
q-33 73 -33 168q0 204 145 326t382 122q231 0 383 -116q151 -115 192 -318l-223 -47q-24 131 -119 208t-231 77q-124 0 -209 -65q-84 -64 -84 -179q0 -82 49 -130q51 -49 152 -79l352 -102q338 -101 338 -410z" />
    <glyph glyph-name="scedilla" unicode="&#x15f;" horiz-adv-x="962" 
d="M895 297q0 -139 -90 -222q-91 -84 -244 -100l-123 -313h-227l188 315q-133 21 -222 95t-101 200l215 45q11 -89 69 -133q60 -45 146 -45q85 0 132 40q48 41 48 102q0 87 -111 116l-210 56q-261 66 -261 276q0 140 103 228q102 87 272 87q163 0 270 -80t134 -212l-203 -43
q-12 75 -64 124q-51 48 -137 48q-73 0 -117 -35q-43 -34 -43 -94q0 -92 134 -125l198 -54q244 -63 244 -276z" />
    <glyph glyph-name="Scaron" unicode="&#x160;" horiz-adv-x="1374" 
d="M588 1694l-236 299h213l125 -160l123 160h215l-237 -299h-203zM578 936l352 -102q338 -101 338 -410q0 -209 -154 -331t-403 -122q-245 0 -415 120t-198 339l238 49q24 -151 129 -231q106 -80 264 -80q148 0 232 66q83 65 83 184q0 85 -49 135q-51 53 -159 82l-318 90
q-73 20 -135 48q-54 25 -118 75q-57 45 -91 121q-33 73 -33 168q0 204 145 326t382 122q231 0 383 -116q151 -115 192 -318l-223 -47q-24 131 -119 208t-231 77q-124 0 -209 -65q-84 -64 -84 -179q0 -82 49 -130q51 -49 152 -79z" />
    <glyph glyph-name="scaron" unicode="&#x161;" horiz-adv-x="962" 
d="M399 1231l-235 299h213l125 -160l123 160h215l-238 -299h-203zM453 627l198 -54q244 -63 244 -276q0 -154 -110 -240t-291 -86q-166 0 -284 76t-134 225l215 45q11 -89 69 -133q60 -45 146 -45q85 0 132 40q48 41 48 102q0 87 -111 116l-210 56q-261 66 -261 276
q0 140 103 228q102 87 272 87q163 0 270 -80t134 -212l-203 -43q-12 75 -64 124q-51 48 -137 48q-73 0 -117 -35q-43 -34 -43 -94q0 -92 134 -125z" />
    <glyph glyph-name="tcedilla" unicode="&#x163;" horiz-adv-x="858" 
d="M432 840v-494q0 -81 41 -128q40 -46 113 -46q89 0 172 55l63 -178q-119 -70 -215 -76l-123 -311h-227l193 326q-110 30 -170 118t-60 224v510h-219v176h219v393l213 66v-459h420v-176h-420z" />
    <glyph glyph-name="Tcaron" unicode="&#x164;" horiz-adv-x="1314" 
d="M557 1694l-235 299h213l124 -160l123 160h215l-237 -299h-203zM1270 1358h-502v-1358h-221v1358h-500v198h1223v-198z" />
    <glyph glyph-name="tcaron" unicode="&#x165;" horiz-adv-x="858" 
d="M756 1174h-168v380h215zM432 840v-494q0 -81 41 -128q40 -46 113 -46q89 0 172 55l63 -178q-127 -78 -250 -78q-168 0 -260 95t-92 264v510h-219v176h219v393l213 66v-459h420v-176h-420z" />
    <glyph glyph-name="Tbar" unicode="&#x166;" horiz-adv-x="1314" 
d="M768 1358v-580h260v-184h-260v-594h-221v594h-258v184h258v580h-500v198h1223v-198h-502z" />
    <glyph glyph-name="tbar" unicode="&#x167;" horiz-adv-x="858" 
d="M432 840v-146h387v-174h-387v-174q0 -81 41 -128q40 -46 113 -46q89 0 172 55l63 -178q-127 -78 -250 -78q-168 0 -260 95t-92 264v190h-194v174h194v146h-219v176h219v393l213 66v-459h420v-176h-420z" />
    <glyph glyph-name="Umacron" unicode="&#x16a;" horiz-adv-x="1638" 
d="M1122 1724h-616v174h616v-174zM1483 1556v-872q0 -322 -183 -518q-183 -197 -481 -197q-302 0 -487 197t-185 518v872h220v-872q0 -232 123 -367q125 -137 329 -137q199 0 321 138q122 139 122 366v872h221z" />
    <glyph glyph-name="umacron" unicode="&#x16b;" horiz-adv-x="1269" 
d="M936 1262h-617v174h617v-174zM1108 1016v-1016h-213v125q-130 -154 -350 -154q-185 0 -296 120q-112 121 -112 312v613h213v-570q0 -123 67 -201q66 -77 177 -77q142 0 221 96q80 97 80 283v469h213z" />
    <glyph glyph-name="Uring" unicode="&#x16e;" horiz-adv-x="1638" 
d="M813 1663q-96 0 -161 64q-66 65 -66 155q0 92 66 157q65 64 161 64q97 0 162 -64t65 -157q0 -94 -65 -156q-66 -63 -162 -63zM813 1978q-43 0 -72 -27q-28 -27 -28 -69q0 -39 28 -67q29 -29 72 -29t72 29q28 28 28 67q0 42 -28 69q-29 27 -72 27zM1483 1556v-872
q0 -322 -183 -518q-183 -197 -481 -197q-302 0 -487 197t-185 518v872h220v-872q0 -232 123 -367q125 -137 329 -137q199 0 321 138q122 139 122 366v872h221z" />
    <glyph glyph-name="uring" unicode="&#x16f;" horiz-adv-x="1269" 
d="M627 1198q-94 0 -161 65t-67 154q0 92 67 157q65 64 161 64t161 -64q66 -64 66 -157q0 -92 -66 -155q-67 -64 -161 -64zM627 1513q-43 0 -72 -27t-29 -69q0 -38 29 -67t72 -29q42 0 71 29t29 67q0 42 -29 69t-71 27zM1108 1016v-1016h-213v125q-130 -154 -350 -154
q-185 0 -296 120q-112 121 -112 312v613h213v-570q0 -123 67 -201q66 -77 177 -77q142 0 221 96q80 97 80 283v469h213z" />
    <glyph glyph-name="Uhungarumlaut" unicode="&#x170;" horiz-adv-x="1638" 
d="M729 1702h-192l149 291h264zM885 1702l147 291h264l-219 -291h-192zM1483 1556v-872q0 -322 -183 -518q-183 -197 -481 -197q-302 0 -487 197t-185 518v872h220v-872q0 -232 123 -367q125 -137 329 -137q199 0 321 138q122 139 122 366v872h221z" />
    <glyph glyph-name="uhungarumlaut" unicode="&#x171;" horiz-adv-x="1269" 
d="M543 1239h-193l150 291h264zM698 1239l148 291h264l-219 -291h-193zM895 1016h213v-1016h-213v125q-130 -154 -350 -154q-185 0 -296 120q-112 121 -112 312v613h213v-570q0 -123 67 -201q66 -77 177 -77q142 0 221 96q80 97 80 283v469z" />
    <glyph glyph-name="Uogonek" unicode="&#x172;" horiz-adv-x="1636" 
d="M1481 1556v-884q0 -186 -68 -331q-67 -144 -180 -228q-149 -115 -199 -171q-53 -59 -53 -122q0 -82 88 -82q43 0 135 33l15 -148q-91 -47 -181 -47q-96 0 -154 51q-59 51 -59 142q0 119 107 211q-94 -9 -123 -9q-293 0 -477 195q-185 196 -185 506v884h220v-884
q0 -219 125 -356q124 -136 323 -136t322 136q123 137 123 356v884h221z" />
    <glyph glyph-name="uogonek" unicode="&#x173;" horiz-adv-x="1269" 
d="M1141 -250l10 -135q-87 -35 -156 -35q-80 0 -131 45t-51 131q0 120 143 244h-61v125q-130 -154 -350 -154q-185 0 -296 120q-112 121 -112 312v613h213v-570q0 -123 67 -201q66 -77 177 -77q142 0 221 96q80 97 80 283v469h213v-1016q-65 -72 -82 -91q-17 -20 -36 -53
q-17 -30 -17 -61q0 -67 69 -67q29 0 99 22z" />
    <glyph glyph-name="Wcircumflex" unicode="&#x174;" horiz-adv-x="2238" 
d="M995 1694h-213l236 299h203l237 -299h-215l-123 159zM2212 1556l-510 -1556h-172l-412 1128l-411 -1128h-170l-510 1556h229l377 -1142l418 1142h135l418 -1142l376 1142h232z" />
    <glyph glyph-name="wcircumflex" unicode="&#x175;" horiz-adv-x="1685" 
d="M721 1231h-213l235 299h203l238 -299h-215l-123 160zM1659 1016l-379 -1020h-182l-254 684l-256 -684h-182l-379 1020h227l252 -697l254 697h166l254 -701l252 701h227z" />
    <glyph glyph-name="Ycircumflex" unicode="&#x176;" horiz-adv-x="1568" 
d="M662 1694h-213l235 299h203l237 -299h-215l-123 159zM891 504v-504h-221v504l-643 1052h243l510 -825l510 825h252z" />
    <glyph glyph-name="ycircumflex" unicode="&#x177;" horiz-adv-x="1189" 
d="M481 1231h-213l236 299h203l237 -299h-215l-123 160zM1163 1016l-731 -1589h-229l274 598l-450 991h229l336 -746l342 746h229z" />
    <glyph glyph-name="Ydieresis" unicode="&#x178;" horiz-adv-x="1568" 
d="M553 1712q-59 0 -97 38t-38 95q0 53 39 92t96 39t96 -39t39 -92q0 -57 -38 -95t-97 -38zM1018 1712q-59 0 -97 38t-38 95q0 53 39 92t96 39t96 -39t39 -92q0 -57 -38 -95t-97 -38zM891 504v-504h-221v504l-643 1052h243l510 -825l510 825h252z" />
    <glyph glyph-name="Zacute" unicode="&#x179;" horiz-adv-x="1464" 
d="M848 1702h-182l149 291h250zM1370 188v-188h-1261v80l940 1288h-916v188h1227v-77l-924 -1291h934z" />
    <glyph glyph-name="zacute" unicode="&#x17a;" horiz-adv-x="1013" 
d="M627 1239h-183l150 291h250zM952 176v-176h-870v63l549 777h-535v176h850v-76l-547 -764h553z" />
    <glyph glyph-name="Zdotaccent" unicode="&#x17b;" horiz-adv-x="1464" 
d="M745 1706q-58 0 -98 38q-39 38 -39 97q0 55 39 94t98 39t100 -39q40 -39 40 -94q0 -57 -40 -96q-41 -39 -100 -39zM1370 188v-188h-1261v80l940 1288h-916v188h1227v-77l-924 -1291h934z" />
    <glyph glyph-name="zdotaccent" unicode="&#x17c;" horiz-adv-x="1013" 
d="M524 1243q-58 0 -98 38q-39 37 -39 97q0 56 39 95q38 38 98 38q61 0 100 -38q40 -39 40 -95q0 -57 -40 -96q-41 -39 -100 -39zM952 176v-176h-870v63l549 777h-535v176h850v-76l-547 -764h553z" />
    <glyph glyph-name="Zcaron" unicode="&#x17d;" horiz-adv-x="1464" 
d="M647 1694l-235 299h213l125 -160l122 160h215l-237 -299h-203zM1370 188v-188h-1261v80l940 1288h-916v188h1227v-77l-924 -1291h934z" />
    <glyph glyph-name="zcaron" unicode="&#x17e;" horiz-adv-x="1013" 
d="M426 1231l-236 299h213l125 -160l123 160h215l-237 -299h-203zM952 176v-176h-870v63l549 777h-535v176h850v-76l-547 -764h553z" />
    <glyph glyph-name="florin" unicode="&#x192;" horiz-adv-x="1165" 
d="M930 1395q-83 0 -141 -52q-56 -50 -74 -145l-78 -401h336v-201h-375l-119 -616q-29 -146 -125 -232q-97 -86 -237 -86q-97 0 -189 53l70 172q60 -24 121 -24q57 0 99 33q41 33 52 84l117 616h-237v201h276l76 401q34 178 151 283q116 104 289 104q137 0 238 -74l-76 -174
q-75 58 -174 58z" />
    <glyph glyph-name="AEacute" unicode="&#x1fc;" horiz-adv-x="2367" 
d="M1683 1702h-182l150 291h250zM2249 199v-199h-1090v338h-651l-244 -338h-254l1137 1556h1096v-200h-863v-455h811v-196h-811v-506h869zM1159 539v698l-506 -698h506z" />
    <glyph glyph-name="aeacute" unicode="&#x1fd;" horiz-adv-x="1871" 
d="M1018 1249h-182l149 291h250zM1798 436h-803q21 -132 103 -206q81 -74 205 -74q81 0 158 41q76 40 120 133l191 -41q-40 -140 -173 -230q-130 -88 -303 -88q-262 0 -407 205q-65 -91 -180 -148q-114 -57 -254 -57q-181 0 -281 90t-100 228q0 137 106 219t281 82h338v61
q0 96 -64 155q-62 58 -168 58q-96 0 -160 -49q-65 -50 -77 -133l-197 43q17 140 137 229q122 90 299 90q243 0 357 -159q147 159 366 159q214 0 359 -149q146 -150 147 -385v-74zM995 590h588q-21 130 -97 201q-75 71 -186 71q-113 0 -200 -71q-88 -72 -105 -201zM799 436
h-338q-83 0 -133 -38q-49 -37 -49 -103q0 -68 55 -110q56 -42 145 -42q128 0 223 79q97 80 97 192v22z" />
    <glyph glyph-name="Scommaaccent" unicode="&#x218;" horiz-adv-x="1374" 
d="M668 1585q231 0 383 -116q151 -115 192 -318l-223 -47q-24 131 -119 208t-231 77q-124 0 -209 -65q-84 -64 -84 -179q0 -82 49 -130q51 -49 152 -79l352 -102q338 -101 338 -410q0 -209 -154 -331t-403 -122q-245 0 -415 120t-198 339l238 49q24 -151 129 -231
q106 -80 264 -80q148 0 232 66q83 65 83 184q0 85 -49 135q-51 53 -159 82l-318 90q-73 20 -135 48q-54 25 -118 75q-57 45 -91 121q-33 73 -33 168q0 204 145 326t382 122zM469 -391l102 299h232l-172 -299h-162z" />
    <glyph glyph-name="scommaaccent" unicode="&#x219;" horiz-adv-x="962" 
d="M76 272l215 45q11 -89 69 -133q60 -45 146 -45q85 0 132 40q48 41 48 102q0 87 -111 116l-210 56q-261 66 -261 276q0 140 103 228q102 87 272 87q163 0 270 -80t134 -212l-203 -43q-12 75 -64 124q-51 48 -137 48q-73 0 -117 -35q-43 -34 -43 -94q0 -92 134 -125
l198 -54q244 -63 244 -276q0 -154 -110 -240t-291 -86q-166 0 -284 76t-134 225zM254 -391l102 299h232l-172 -299h-162z" />
    <glyph glyph-name="uni021A" unicode="&#x21a;" horiz-adv-x="1314" 
d="M1270 1556v-198h-502v-1358h-221v1358h-500v198h1223zM543 -92h231l-172 -299h-162z" />
    <glyph glyph-name="uni021B" unicode="&#x21b;" horiz-adv-x="858" 
d="M432 840v-494q0 -81 41 -128q40 -46 113 -46q89 0 172 55l63 -178q-127 -78 -250 -78q-168 0 -260 95t-92 264v510h-219v176h219v393l213 66v-459h420v-176h-420zM401 -92h232l-172 -299h-162z" />
    <glyph glyph-name="circumflex" unicode="&#x2c6;" horiz-adv-x="1228" 
d="M739 1153l-123 160l-124 -160h-213l235 299h203l237 -299h-215z" />
    <glyph glyph-name="caron" unicode="&#x2c7;" horiz-adv-x="1228" 
d="M954 1452l-237 -299h-203l-235 299h213l124 -160l123 160h215z" />
    <glyph glyph-name="breve" unicode="&#x2d8;" horiz-adv-x="1228" 
d="M614 1128q-146 0 -232 79q-87 79 -87 212h178q0 -62 41 -103q40 -40 100 -40q63 0 103 40q41 41 41 103h176q0 -133 -87 -212q-86 -79 -233 -79z" />
    <glyph glyph-name="dotaccent" unicode="&#x2d9;" horiz-adv-x="1228" 
d="M614 1434q60 0 100 -39t40 -95q0 -57 -40 -96t-100 -39q-58 0 -98 38q-39 37 -39 97q0 56 39 95t98 39z" />
    <glyph glyph-name="ring" unicode="&#x2da;" horiz-adv-x="1228" 
d="M842 1339q0 -92 -66 -155q-67 -64 -162 -64q-93 0 -160 65t-67 154q0 92 67 157t160 65q95 0 162 -65q66 -64 66 -157zM715 1339q0 42 -29 69q-30 28 -72 28q-41 0 -71 -28q-29 -27 -29 -69q0 -38 29 -67t71 -29q43 0 72 29t29 67z" />
    <glyph glyph-name="ogonek" unicode="&#x2db;" horiz-adv-x="1228" 
d="M524 6l146 -6q-65 -72 -82 -91q-17 -20 -36 -53q-17 -30 -17 -61q0 -67 69 -67q28 0 98 22l11 -135q-87 -35 -156 -35q-80 0 -131 45t-51 131q0 63 33 120q33 58 116 130z" />
    <glyph glyph-name="tilde" unicode="&#x2dc;" horiz-adv-x="1228" 
d="M440 1206h-145q0 126 59 182t140 56q69 0 140 -44t111 -44q31 0 49 24q17 23 17 64h143q0 -129 -57 -186q-56 -56 -139 -56q-74 0 -142 43t-108 43q-31 0 -49 -22q-19 -24 -19 -60z" />
    <glyph glyph-name="hungarumlaut" unicode="&#x2dd;" horiz-adv-x="1228" 
d="M453 1161h-193l150 291h264zM801 1161h-193l148 291h264z" />
    <glyph glyph-name="uni0326" unicode="&#x326;" horiz-adv-x="0" 
d="M430 -391l102 299h232l-172 -299h-162z" />
    <glyph glyph-name="Wgrave" unicode="&#x1e80;" horiz-adv-x="2238" 
d="M1026 1702l-217 291h250l149 -291h-182zM2212 1556l-510 -1556h-172l-412 1128l-411 -1128h-170l-510 1556h229l377 -1142l418 1142h135l418 -1142l376 1142h232z" />
    <glyph glyph-name="wgrave" unicode="&#x1e81;" horiz-adv-x="1685" 
d="M750 1239l-218 291h250l150 -291h-182zM1659 1016l-379 -1020h-182l-254 684l-256 -684h-182l-379 1020h227l252 -697l254 697h166l254 -701l252 701h227z" />
    <glyph glyph-name="Wacute" unicode="&#x1e82;" horiz-adv-x="2238" 
d="M1219 1702h-183l150 291h250zM2212 1556l-510 -1556h-172l-412 1128l-411 -1128h-170l-510 1556h229l377 -1142l418 1142h135l418 -1142l376 1142h232z" />
    <glyph glyph-name="wacute" unicode="&#x1e83;" horiz-adv-x="1685" 
d="M944 1239h-182l149 291h250zM1659 1016l-379 -1020h-182l-254 684l-256 -684h-182l-379 1020h227l252 -697l254 697h166l254 -701l252 701h227z" />
    <glyph glyph-name="Wdieresis" unicode="&#x1e84;" horiz-adv-x="2238" 
d="M887 1712q-60 0 -98 38q-37 37 -37 95q0 53 39 92t96 39t96 -39t39 -92q0 -57 -38 -95t-97 -38zM1352 1712q-60 0 -98 38t-38 95q0 53 39 92t97 39q57 0 96 -39t39 -92q0 -57 -38 -95t-97 -38zM2212 1556l-510 -1556h-172l-412 1128l-411 -1128h-170l-510 1556h229
l377 -1142l418 1142h135l418 -1142l376 1142h232z" />
    <glyph glyph-name="wdieresis" unicode="&#x1e85;" horiz-adv-x="1685" 
d="M612 1249q-59 0 -97 38t-38 95q0 54 39 93q38 38 96 38q59 0 97 -38q39 -39 39 -93q0 -57 -38 -95t-98 -38zM1077 1249q-59 0 -97 38t-38 95q0 54 39 93q38 38 96 38t96 -38q39 -39 39 -93q0 -58 -37 -95q-38 -38 -98 -38zM1659 1016l-379 -1020h-182l-254 684l-256 -684
h-183l-378 1020h227l252 -697l254 697h166l254 -701l252 701h227z" />
    <glyph glyph-name="Ygrave" unicode="&#x1ef2;" horiz-adv-x="1568" 
d="M690 1702l-217 291h250l149 -291h-182zM891 504v-504h-221v504l-643 1052h243l510 -825l510 825h252z" />
    <glyph glyph-name="ygrave" unicode="&#x1ef3;" horiz-adv-x="1189" 
d="M512 1239l-217 291h250l149 -291h-182zM1163 1016l-731 -1589h-229l274 598l-450 991h229l336 -746l342 746h229z" />
    <glyph glyph-name="endash" unicode="&#x2013;" horiz-adv-x="1269" 
d="M1147 440h-1024v164h1024v-164z" />
    <glyph glyph-name="emdash" unicode="&#x2014;" horiz-adv-x="2560" 
d="M2437 440h-2314v164h2314v-164z" />
    <glyph glyph-name="quoteleft" unicode="&#x2018;" horiz-adv-x="544" 
d="M299 1556h162l-129 -542h-248v4z" />
    <glyph glyph-name="quoteright" unicode="&#x2019;" horiz-adv-x="544" 
d="M248 1014h-164l129 542h248v-6z" />
    <glyph glyph-name="quotesinglbase" unicode="&#x201a;" horiz-adv-x="544" 
d="M248 -270h-164l129 544h248v-6z" />
    <glyph glyph-name="quotedblleft" unicode="&#x201c;" horiz-adv-x="909" 
d="M299 1556h162l-129 -542h-248v4zM664 1556h161l-129 -542h-247v4z" />
    <glyph glyph-name="quotedblright" unicode="&#x201d;" horiz-adv-x="909" 
d="M248 1014h-164l129 542h248v-6zM610 1014h-161l129 542h247v-6z" />
    <glyph glyph-name="quotedblbase" unicode="&#x201e;" horiz-adv-x="909" 
d="M248 -270h-164l129 544h248v-6zM610 -270h-161l129 544h247v-6z" />
    <glyph glyph-name="dagger" unicode="&#x2020;" horiz-adv-x="780" 
d="M694 1372v-139h-229v-500h-150v500h-227v139h227v184h150v-184h229z" />
    <glyph glyph-name="daggerdbl" unicode="&#x2021;" horiz-adv-x="780" 
d="M465 1233v-176h229v-139h-229v-185h-150v185h-227v139h227v176h-227v139h227v184h150v-184h229v-139h-229z" />
    <glyph glyph-name="bullet" unicode="&#x2022;" horiz-adv-x="839" 
d="M420 852q139 0 233 -94q95 -95 95 -223q0 -135 -94 -226q-93 -90 -234 -90q-142 0 -235 90t-93 226q0 129 94 223t234 94z" />
    <glyph glyph-name="ellipsis" unicode="&#x2026;" horiz-adv-x="1456" 
d="M227 252q58 0 96 -38q37 -37 37 -91q0 -56 -37 -93q-38 -38 -96 -38q-56 0 -96 38q-39 38 -39 93q0 53 39 91q40 38 96 38zM729 252q57 0 95 -38t38 -91q0 -55 -38 -93t-95 -38q-56 0 -96 38q-39 38 -39 93q0 53 39 91q40 38 96 38zM1231 252q57 0 95 -38t38 -91
q0 -55 -38 -93t-95 -38q-56 0 -96 38q-39 38 -39 93q0 53 39 91q40 38 96 38z" />
    <glyph glyph-name="perthousand" unicode="&#x2030;" horiz-adv-x="2529" 
d="M432 1585q143 0 241 -91q99 -92 99 -239q0 -143 -99 -235q-100 -92 -241 -92t-241 92q-99 92 -99 235q0 147 99 239q98 91 241 91zM272 0l1016 1556h146l-1016 -1556h-146zM432 1438q-72 0 -125 -50t-53 -131q0 -82 53 -132t125 -50t125 50t53 132q0 81 -53 131t-125 50z
M1288 629q143 0 241 -91q99 -92 99 -237q0 -147 -99 -238q-100 -92 -241 -92q-140 0 -240 92t-100 238q0 145 100 237q98 91 240 91zM2097 629q143 0 241 -91q99 -92 99 -237q0 -147 -99 -238q-100 -92 -241 -92q-140 0 -240 92t-100 238q0 145 100 237q98 91 240 91z
M1288 483q-72 0 -125 -50t-53 -132q0 -80 53 -130t125 -50t125 50t53 130q0 82 -53 132t-125 50zM2097 483q-72 0 -125 -50t-53 -132q0 -80 53 -130t125 -50t125 50t53 130q0 82 -53 132t-125 50z" />
    <glyph glyph-name="guilsinglleft" unicode="&#x2039;" horiz-adv-x="555" 
d="M51 537l240 364h213l-240 -364l240 -365h-213z" />
    <glyph glyph-name="guilsinglright" unicode="&#x203a;" horiz-adv-x="555" 
d="M51 172l240 365l-240 364h213l240 -364l-240 -365h-213z" />
    <glyph glyph-name="fraction" unicode="&#x2044;" horiz-adv-x="464" 
d="M-365 0l1018 1556h146l-1018 -1556h-146z" />
    <glyph glyph-name="zerosuperior" unicode="&#x2070;" horiz-adv-x="976" 
d="M487 1782q174 0 294 -111t120 -287q0 -177 -120 -288t-294 -111q-168 0 -289 112q-120 111 -120 287q0 175 120 286q121 112 289 112zM487 1128q103 0 176 68q72 68 72 188q0 118 -72 185q-71 67 -176 67q-98 0 -170 -68q-73 -69 -73 -184q0 -118 73 -187q74 -69 170 -69
z" />
    <glyph glyph-name="foursuperior" unicode="&#x2074;" horiz-adv-x="765" 
d="M727 1130h-127v-135h-147v135h-406v76l490 555h63v-501h127v-130zM453 1260v217l-189 -217h189z" />
    <glyph glyph-name="fivesuperior" unicode="&#x2075;" horiz-adv-x="679" 
d="M262 1485h119q106 0 176 -67t70 -177q0 -117 -79 -189q-81 -73 -204 -73q-119 0 -197 65q-80 66 -92 162l150 27q10 -55 48 -88t91 -33q56 0 93 33q38 33 38 90q0 58 -39 88q-40 31 -98 31h-238l62 407h438v-139h-317z" />
    <glyph glyph-name="sixsuperior" unicode="&#x2076;" horiz-adv-x="677" 
d="M537 1761l-162 -215q110 -12 184 -89t74 -191q0 -123 -85 -202t-208 -79t-208 79t-85 202q0 103 64 182l239 313h187zM340 1122q57 0 102 39t45 107q0 67 -45 106t-102 39q-59 0 -104 -39q-46 -40 -46 -106q0 -67 46 -107q45 -39 104 -39z" />
    <glyph glyph-name="sevensuperior" unicode="&#x2077;" horiz-adv-x="595" 
d="M575 1761v-24l-327 -742h-170l291 627h-355v139h561z" />
    <glyph glyph-name="eightsuperior" unicode="&#x2078;" horiz-adv-x="708" 
d="M498 1403q145 -51 145 -195q0 -95 -79 -158q-80 -63 -210 -63q-127 0 -208 63q-80 62 -80 158q0 146 145 195q-117 49 -117 170q0 88 76 148q78 61 186 61q110 0 186 -61q74 -59 74 -148q0 -121 -118 -170zM354 1665q-52 0 -86 -30q-35 -30 -35 -79q0 -42 35 -72
q34 -30 86 -30q49 0 84 29q36 29 37 73q0 52 -34 80q-35 29 -87 29zM354 1112q54 0 91 32q36 32 36 83q0 49 -35 82q-33 32 -92 32q-58 0 -93 -31q-36 -32 -36 -83q0 -52 37 -83q38 -32 92 -32z" />
    <glyph glyph-name="ninesuperior" unicode="&#x2079;" horiz-adv-x="677" 
d="M633 1501q0 -105 -68 -184l-235 -311h-187l160 215q-110 12 -183 89q-73 78 -73 191q0 123 85 202t208 79t208 -79t85 -202zM190 1499q0 -66 46 -106q45 -39 104 -39q57 0 102 39t45 106q0 68 -45 107t-102 39q-59 0 -104 -39q-46 -40 -46 -107z" />
    <glyph glyph-name="zeroinferior" unicode="&#x2080;" horiz-adv-x="976" 
d="M487 553q174 0 294 -111t120 -286q0 -178 -120 -289t-294 -111q-168 0 -289 112q-120 111 -120 288q0 174 120 285q121 112 289 112zM487 -100q105 0 176 67q72 67 72 189q0 116 -72 184q-73 68 -176 68q-97 0 -170 -69t-73 -183q0 -119 73 -188q72 -68 170 -68z" />
    <glyph glyph-name="oneinferior" unicode="&#x2081;" horiz-adv-x="468" 
d="M369 -236h-160v558l-186 -70v151l317 129h29v-768z" />
    <glyph glyph-name="twoinferior" unicode="&#x2082;" horiz-adv-x="710" 
d="M342 -94h285v-137h-566v38l281 293q101 106 119 140q14 28 14 63q0 54 -34 85q-35 32 -91 32q-60 0 -100 -45q-42 -46 -43 -119l-135 31q0 119 76 192q77 74 202 74q123 0 201 -67q76 -66 76 -181q0 -50 -31 -109q-29 -54 -56 -85q-26 -29 -104 -107z" />
    <glyph glyph-name="threeinferior" unicode="&#x2083;" horiz-adv-x="686" 
d="M633 483l-182 -233q88 -16 141 -80t53 -158q0 -117 -81 -189q-82 -73 -212 -73q-119 0 -202 65t-95 162l150 29q11 -57 51 -90t96 -33q62 0 102 33t40 90q0 56 -38 91q-37 34 -98 34h-131l-8 21l178 241h-305l4 139h537v-49z" />
    <glyph glyph-name="fourinferior" unicode="&#x2084;" horiz-adv-x="765" 
d="M727 -98h-127v-138h-147v138h-406v75l490 555h63v-501h127v-129zM453 31v217l-189 -217h189z" />
    <glyph glyph-name="fiveinferior" unicode="&#x2085;" horiz-adv-x="679" 
d="M262 256h119q106 0 176 -67t70 -177q0 -117 -79 -189q-81 -73 -204 -73q-117 0 -197 65t-92 162l150 27q10 -55 48 -88q37 -33 91 -33q56 0 93 33q38 33 38 90q0 58 -39 88q-40 31 -98 31h-238l62 407h438v-139h-317z" />
    <glyph glyph-name="sixinferior" unicode="&#x2086;" horiz-adv-x="677" 
d="M537 532l-162 -215q110 -12 184 -89t74 -191q0 -123 -85 -202t-208 -79t-208 79t-85 202q0 103 64 182l239 313h187zM340 -106q58 0 102 38q45 39 45 107q0 67 -45 106t-102 39q-59 0 -104 -39q-46 -40 -46 -106q0 -67 46 -107q44 -38 104 -38z" />
    <glyph glyph-name="seveninferior" unicode="&#x2087;" horiz-adv-x="595" 
d="M575 532v-24l-327 -744h-170l291 629h-355v139h561z" />
    <glyph glyph-name="eightinferior" unicode="&#x2088;" horiz-adv-x="708" 
d="M498 174q145 -51 145 -194q0 -98 -79 -161q-80 -63 -210 -63q-129 0 -209 63q-79 63 -79 161q0 145 145 194q-117 49 -117 170q0 89 76 149q77 60 186 60q111 0 186 -60q74 -59 74 -149q0 -121 -118 -170zM354 436q-53 0 -86 -29q-35 -30 -35 -79q0 -43 35 -73
q34 -30 86 -30q49 0 84 29q36 29 37 74q0 52 -34 80t-87 28zM354 -119q54 0 91 32q36 31 36 85q0 49 -35 82q-34 33 -92 33q-56 0 -93 -32q-36 -32 -36 -85q0 -52 37 -83q38 -32 92 -32z" />
    <glyph glyph-name="nineinferior" unicode="&#x2089;" horiz-adv-x="677" 
d="M633 272q0 -105 -68 -184l-235 -311h-187l160 215q-110 12 -183 89q-73 78 -73 191q0 123 85 202t208 79t208 -79t85 -202zM190 270q0 -66 46 -106q45 -39 104 -39q57 0 102 39t45 106q0 68 -45 107t-102 39q-59 0 -104 -39q-46 -40 -46 -107z" />
    <glyph glyph-name="Euro" unicode="&#x20ac;" horiz-adv-x="2052" 
d="M1202 176q201 0 345 114q146 115 196 324l213 -45q-61 -278 -267 -439t-487 -161q-271 0 -483 159q-211 159 -285 413h-272v157h244q-5 55 -5 78q0 40 2 70h-241v158h270q73 257 285 419q211 162 485 162q278 0 485 -160q206 -159 269 -426l-213 -59q-51 209 -196 324
q-144 114 -345 114q-185 0 -329 -102t-207 -272h737l-41 -158h-733q-4 -40 -4 -70q0 -34 4 -78h690l-41 -157h-608q67 -168 209 -266q144 -99 323 -99z" />
    <glyph glyph-name="uni2116" unicode="&#x2116;" horiz-adv-x="3037" 
d="M2324 1573q233 0 392 -150t159 -383q0 -235 -159 -385q-158 -149 -392 -149q-228 0 -387 150t-159 384q0 233 159 383t387 150zM1366 1556h219v-1556h-155l-1047 1157l-2 -1157h-219v1556h155l1049 -1173v1173zM2322 694q142 0 245 98q102 98 102 248t-102 247
q-101 97 -245 97q-136 0 -235 -98q-100 -99 -100 -246q0 -148 100 -247q101 -99 235 -99z" />
    <glyph glyph-name="uni2117" unicode="&#x2117;" horiz-adv-x="1734" 
d="M868 1585q332 0 565 -231q232 -231 232 -582q0 -345 -232 -573q-233 -228 -565 -228q-331 0 -565 228q-233 227 -233 573q0 352 233 582q234 231 565 231zM868 74q288 0 487 198t199 502q0 309 -199 509q-200 202 -487 202q-286 0 -487 -203q-201 -202 -201 -508
q0 -304 201 -502t487 -198zM575 1169h396q140 0 221 -68q82 -69 82 -181q0 -118 -82 -188t-221 -70h-262v-314h-134v821zM709 784h284q73 0 111 37q39 37 39 99q0 60 -39 94q-40 35 -111 35h-284v-265z" />
    <glyph glyph-name="trademark" unicode="&#x2122;" horiz-adv-x="1349" 
d="M563 1450h-182v-444h-127v444h-180v106h489v-106zM1253 1006h-118v348l-150 -221h-76l-149 221v-348h-119v550h121l186 -274l187 274h118v-550z" />
    <glyph glyph-name="oneeighth" unicode="&#x215b;" horiz-adv-x="1454" 
d="M209 1346l-186 -70v151l317 129h29v-768h-160v558zM1247 1556l-1016 -1556h-145l1016 1556h145zM1243 403q146 -51 146 -194q0 -97 -80 -160q-79 -63 -209 -63q-127 0 -208 63t-81 160q0 145 145 194q-116 49 -116 170q0 90 75 149q77 60 187 60t185 -60t75 -149
q0 -120 -119 -170zM1100 666q-52 0 -86 -30q-35 -30 -35 -79q0 -43 35 -73q33 -29 86 -29q50 0 84 28q36 29 37 74q0 52 -34 80q-35 29 -87 29zM1100 113q56 0 91 31q36 31 36 83q0 49 -35 82q-34 33 -92 33q-56 0 -93 -32q-36 -32 -36 -83q0 -52 37 -83t92 -31z" />
    <glyph glyph-name="threeeighths" unicode="&#x215c;" horiz-adv-x="1615" 
d="M645 1036q0 -117 -81 -189q-82 -73 -212 -73q-120 0 -202 66q-83 67 -95 161l150 29q11 -57 51 -90t96 -33q62 0 102 33t40 90q0 56 -38 91q-37 34 -98 34h-131l-8 21l178 241h-305l4 139h537v-49l-182 -233q88 -16 141 -80t53 -158zM1399 1556l-1016 -1556h-145
l1015 1556h146zM1405 403q145 -51 145 -194q0 -97 -80 -160t-208 -63q-127 0 -208 63t-81 160q0 145 145 194q-117 49 -117 170q0 89 76 149q77 60 187 60t185 -60t75 -149q0 -120 -119 -170zM1262 666q-51 0 -86 -30t-35 -79q0 -43 35 -73q33 -29 86 -29q50 0 84 28t36 74
q0 53 -33 80q-35 29 -87 29zM1262 113q56 0 91 31q36 31 36 83q0 49 -35 82q-34 33 -92 33q-57 0 -94 -32q-35 -31 -35 -83q0 -53 36 -83q37 -31 93 -31z" />
    <glyph glyph-name="fiveeighths" unicode="&#x215d;" horiz-adv-x="1585" 
d="M627 1036q0 -117 -79 -189q-81 -73 -204 -73q-118 0 -197 66q-80 67 -92 161l150 27q10 -55 48 -88t91 -33q56 0 93 33q38 33 38 90q0 58 -39 88q-40 31 -98 31h-238l62 407h438v-139h-317l-21 -137h119q106 0 176 -67t70 -177zM1358 1556l-1016 -1556h-145l1015 1556
h146zM1374 403q146 -51 146 -194q0 -97 -80 -160q-79 -63 -209 -63q-127 0 -208 63t-81 160q0 145 145 194q-116 49 -116 170q0 89 76 149q77 60 186 60q110 0 185 -60t75 -149q0 -120 -119 -170zM1231 666q-51 0 -86 -30t-35 -79q0 -43 35 -73q33 -29 86 -29q50 0 84 28
q36 29 37 74q0 52 -34 80q-35 29 -87 29zM1231 113q56 0 91 31q36 31 36 83q0 49 -35 82t-92 33q-56 0 -93 -32q-36 -32 -36 -83q0 -52 37 -83t92 -31z" />
    <glyph glyph-name="seveneighths" unicode="&#x215e;" horiz-adv-x="1435" 
d="M1176 1556l-1016 -1556h-146l1016 1556h146zM395 1417h-354v139h561v-24l-328 -741h-170zM1225 403q145 -51 145 -194q0 -97 -80 -160t-209 -63q-127 0 -208 63q-80 62 -80 160q0 145 145 194q-117 49 -117 170q0 89 76 149q77 60 186 60q111 0 186 -60q74 -59 74 -149
q0 -121 -118 -170zM1081 666q-51 0 -86 -30q-34 -30 -34 -79q0 -43 34 -73q33 -29 86 -29q50 0 84 28q36 29 37 74q0 52 -34 80q-35 29 -87 29zM1081 113q56 0 91 31q36 32 36 83q0 49 -34 82t-93 33q-56 0 -93 -32q-36 -32 -36 -83q0 -52 37 -83t92 -31z" />
    <glyph glyph-name="arrowleft" unicode="&#x2190;" horiz-adv-x="1714" 
d="M1632 676h-1147l414 -414l-156 -158l-682 682l684 684l156 -157l-416 -416h1147v-221z" />
    <glyph glyph-name="arrowup" unicode="&#x2191;" horiz-adv-x="1529" 
d="M1292 733l-415 416v-1149h-222v1149l-415 -418l-158 156l684 684l682 -682z" />
    <glyph glyph-name="arrowright" unicode="&#x2192;" horiz-adv-x="1714" 
d="M1653 786l-682 -682l-156 158l416 414h-1149v221h1149l-418 416l156 157z" />
    <glyph glyph-name="arrowdown" unicode="&#x2193;" horiz-adv-x="1529" 
d="M1448 668l-682 -682l-684 684l158 155l415 -415v1146h222v-1146l415 413z" />
    <glyph glyph-name="uni2196" unicode="&#x2196;" horiz-adv-x="1714" 
d="M1477 -12l-1194 1194v-633h-220v1007h1006l-2 -221l-629 2l1194 -1194z" />
    <glyph glyph-name="uni2197" unicode="&#x2197;" horiz-adv-x="1712" 
d="M1651 1556v-1007h-219v633l-1194 -1194l-156 155l1194 1194l-629 -2l-2 221h1006z" />
    <glyph glyph-name="uni2198" unicode="&#x2198;" horiz-adv-x="1712" 
d="M1651 1008v-1008h-1006l2 221h629l-1194 1192l156 156l1194 -1194v633h219z" />
    <glyph glyph-name="uni2199" unicode="&#x2199;" horiz-adv-x="1712" 
d="M436 221h631v-221h-1006v1008h222v-631l1192 1192l155 -156z" />
    <glyph glyph-name="minus" unicode="&#x2212;" horiz-adv-x="1187" 
d="M1055 530h-922v189h922v-189z" />
    <glyph glyph-name="approxequal" unicode="&#x2248;" horiz-adv-x="1187" 
d="M1055 909v-180q-79 -41 -205 -41q-106 0 -245 50t-236 50q-163 0 -236 -63v178q79 64 236 64q100 0 245 -51q142 -50 238 -50q135 0 203 43zM1055 598v-180q-82 -43 -205 -43q-107 0 -245 51t-236 51q-163 0 -236 -63v178q78 63 236 63q103 0 245 -50t238 -50
q135 0 203 43z" />
    <glyph glyph-name="notequal" unicode="&#x2260;" horiz-adv-x="1187" 
d="M750 760l-119 -209h424v-186h-531l-94 -164h-194l94 164h-197v186h303l121 209h-424v186h531l98 170h192l-98 -170h199v-186h-305z" />
    <glyph glyph-name="lessequal" unicode="&#x2264;" horiz-adv-x="870" 
d="M795 412l-729 262v203l729 262v-219l-494 -146l494 -149v-213zM795 362v-186h-727v186h727z" />
    <glyph glyph-name="greaterequal" unicode="&#x2265;" horiz-adv-x="870" 
d="M575 774l-493 146v219l727 -262v-203l-727 -262v213zM807 176h-725v186h725v-186z" />
    <glyph glyph-name="K.ss03" horiz-adv-x="1699" 
d="M1673 0h-307l-530 612l-455 -612h-219v1556h219v-1206l891 1206h264l-559 -753z" />
    <glyph glyph-name="Kcommaaccent.ss03" horiz-adv-x="1699" 
d="M1673 0h-307l-530 612l-455 -612h-219v1556h219v-1206l891 1206h264l-559 -753zM758 -92h231l-172 -299h-162z" />
    <glyph glyph-name="Q.ss04" horiz-adv-x="1792" 
d="M1542 -307l-293 358q-168 -80 -352 -80q-336 0 -567 234q-232 235 -232 569q0 339 232 576q231 235 567 235t567 -235q232 -237 232 -576q0 -177 -71 -336q-70 -157 -198 -268l273 -334zM897 178q111 0 213 41l-301 367l174 131l311 -381q181 175 181 438q0 255 -167 430
q-166 174 -411 174t-411 -174q-167 -175 -167 -430q0 -253 167 -425q166 -171 411 -171z" />
    <glyph glyph-name="I.ss05" horiz-adv-x="1132" 
d="M676 1358v-1159h368v-199h-956v199h369v1159h-369v198h956v-198h-368z" />
    <glyph glyph-name="IJ.ss05" horiz-adv-x="2596" 
d="M1044 1556v-198h-368v-1159h368v-199h-956v199h369v1159h-369v198h956zM2441 1556v-872q0 -322 -177 -518q-177 -197 -466 -197q-234 0 -401 131q-165 130 -226 357l209 73q38 -165 148 -257q111 -93 270 -93q190 0 307 138t117 366v674h-745v198h964z" />
    <glyph glyph-name="Iacute.ss05" horiz-adv-x="1132" 
d="M674 1702h-182l149 291h250zM676 1358v-1159h368v-199h-956v199h369v1159h-369v198h956v-198h-368z" />
    <glyph glyph-name="Icircumflex.ss05" horiz-adv-x="1132" 
d="M449 1694h-213l235 299h203l237 -299h-215l-123 159zM676 1358v-1159h368v-199h-956v199h369v1159h-369v198h956v-198h-368z" />
    <glyph glyph-name="Idieresis.ss05" horiz-adv-x="1132" 
d="M340 1712q-59 0 -97 38t-38 95q0 53 39 92t96 39t96 -39t39 -92q0 -57 -38 -95t-97 -38zM805 1712q-59 0 -97 38t-38 95q0 53 39 92t96 39t96 -39t39 -92q0 -57 -38 -95t-97 -38zM676 1358v-1159h368v-199h-956v199h369v1159h-369v198h956v-198h-368z" />
    <glyph glyph-name="Idotaccent.ss05" horiz-adv-x="1132" 
d="M571 1706q-58 0 -98 38q-39 38 -39 97q0 55 39 94t98 39t100 -39q40 -39 40 -94q0 -57 -40 -96t-100 -39zM676 1358v-1159h368v-199h-956v199h369v1159h-369v198h956v-198h-368z" />
    <glyph glyph-name="Igrave.ss05" horiz-adv-x="1132" 
d="M479 1702l-217 291h250l150 -291h-183zM676 1358v-1159h368v-199h-956v199h369v1159h-369v198h956v-198h-368z" />
    <glyph glyph-name="Imacron.ss05" horiz-adv-x="1132" 
d="M881 1724h-617v174h617v-174zM676 1358v-1159h368v-199h-956v199h369v1159h-369v198h956v-198h-368z" />
    <glyph glyph-name="Iogonek.ss05" horiz-adv-x="1132" 
d="M676 1358v-1159h368v-199h-368q-65 -72 -82 -91q-17 -20 -36 -53q-17 -30 -17 -61q0 -67 69 -67q29 0 99 22l10 -135q-87 -35 -156 -35q-80 0 -131 45t-51 131q0 120 143 244h-436v199h369v1159h-369v198h956v-198h-368z" />
    <glyph glyph-name="J.ss05" horiz-adv-x="1466" 
d="M1309 1556v-872q0 -322 -177 -518q-177 -197 -466 -197q-235 0 -402 131q-164 129 -225 357l209 73q38 -166 147 -257q111 -93 271 -93q190 0 307 138t117 366v674h-746v198h965z" />
    <glyph glyph-name="P.ss08" horiz-adv-x="1542" 
d="M162 1556h647q289 0 474 -160t185 -423q0 -265 -185 -425q-187 -161 -474 -161h-428v-387h-219v1556zM381 586h428q191 0 315 106q125 107 125 281t-125 279q-126 106 -315 106h-428v-772z" />
    <glyph glyph-name="R.ss08" horiz-adv-x="1587" 
d="M1561 0h-291l-418 387h-45h-426v-387h-219v1556h645q295 0 477 -160t182 -423q0 -192 -98 -330q-100 -140 -270 -207zM381 586h426q197 0 318 106q122 107 122 281q0 171 -122 278t-318 107h-426v-772z" />
    <glyph glyph-name="Racute.ss08" horiz-adv-x="1587" 
d="M842 1702h-183l150 291h250zM1561 0h-291l-418 387h-45h-426v-387h-219v1556h645q295 0 477 -160t182 -423q0 -192 -98 -330q-100 -140 -270 -207zM381 586h426q197 0 318 106q122 107 122 281q0 171 -122 278t-318 107h-426v-772z" />
    <glyph glyph-name="Rcaron.ss08" horiz-adv-x="1587" 
d="M641 1694l-235 299h212l125 -160l123 160h215l-237 -299h-203zM1561 0h-291l-418 387h-45h-426v-387h-219v1556h645q295 0 477 -160t182 -423q0 -192 -98 -330q-100 -140 -270 -207zM381 586h426q197 0 318 106q122 107 122 281q0 171 -122 278t-318 107h-426v-772z" />
    <glyph glyph-name="Rcommaaccent.ss08" horiz-adv-x="1587" 
d="M1561 0h-291l-418 387h-45h-426v-387h-219v1556h645q295 0 477 -160t182 -423q0 -192 -98 -330q-100 -140 -270 -207zM381 586h426q197 0 318 106q122 107 122 281q0 171 -122 278t-318 107h-426v-772zM666 -92h231l-172 -299h-162z" />
    <glyph glyph-name="E.ss09" horiz-adv-x="1419" 
d="M1303 199v-199h-1141v1556h1134v-200h-915v-475h893v-199h-893v-483h922z" />
    <glyph glyph-name="Eacute.ss09" horiz-adv-x="1419" 
d="M862 1702h-182l149 291h250zM1303 199v-199h-1141v1556h1134v-200h-915v-475h893v-199h-893v-483h922z" />
    <glyph glyph-name="Ecaron.ss09" horiz-adv-x="1419" 
d="M662 1694l-236 299h213l125 -160l123 160h215l-238 -299h-202zM1303 199v-199h-1141v1556h1134v-200h-915v-475h893v-199h-893v-483h922z" />
    <glyph glyph-name="Ecircumflex.ss09" horiz-adv-x="1419" 
d="M639 1694h-213l236 299h202l238 -299h-215l-123 159zM1303 199v-199h-1141v1556h1134v-200h-915v-475h893v-199h-893v-483h922z" />
    <glyph glyph-name="Edieresis.ss09" horiz-adv-x="1419" 
d="M530 1712q-59 0 -97 38t-38 95q0 53 39 92t96 39q58 0 97 -39t39 -92q0 -57 -38 -95t-98 -38zM995 1712q-59 0 -97 38t-38 95q0 53 39 92t96 39q58 0 97 -39q38 -38 38 -92q0 -58 -37 -95q-38 -38 -98 -38zM1303 199v-199h-1141v1556h1134v-200h-915v-475h893v-199h-893
v-483h922z" />
    <glyph glyph-name="Edotaccent.ss09" horiz-adv-x="1419" 
d="M760 1706q-58 0 -98 38q-39 38 -39 97q0 55 39 94t98 39q58 0 99 -39q40 -39 40 -94q0 -57 -40 -96q-41 -39 -99 -39zM1303 199v-199h-1141v1556h1134v-200h-915v-475h893v-199h-893v-483h922z" />
    <glyph glyph-name="Egrave.ss09" horiz-adv-x="1419" 
d="M668 1702l-217 291h249l150 -291h-182zM1303 199v-199h-1141v1556h1134v-200h-915v-475h893v-199h-893v-483h922z" />
    <glyph glyph-name="Emacron.ss09" horiz-adv-x="1419" 
d="M1071 1724h-616v174h616v-174zM1303 199v-199h-1141v1556h1134v-200h-915v-475h893v-199h-893v-483h922z" />
    <glyph glyph-name="Eogonek.ss09" horiz-adv-x="1419" 
d="M1303 0h-66q-65 -72 -82 -91q-17 -20 -36 -53q-17 -30 -17 -61q0 -67 69 -67q29 0 99 22l10 -135q-87 -35 -156 -35q-80 0 -131 45t-51 131q0 120 143 244h-923v1556h1134v-200h-915v-475h893v-199h-893v-483h922v-199z" />
    <glyph glyph-name="F.ss09" horiz-adv-x="1337" 
d="M381 1358v-477h864v-199h-864v-682h-219v1556h1120v-198h-901z" />
    <glyph glyph-name="M.ss10" horiz-adv-x="2031" 
d="M1870 1556v-1556h-213v1049l-604 -893h-72l-606 893v-1049h-213v1556h131l723 -1083l725 1083h129z" />
    <glyph glyph-name="N.ss12" horiz-adv-x="1746" 
d="M1585 1556v-1556h-219v479l-983 742l-2 -1221h-219v1556h155l1049 -813v813h219z" />
    <glyph glyph-name="Nacute.ss12" horiz-adv-x="1746" 
d="M971 1702h-183l150 291h250zM1585 1556v-1556h-219v479l-983 742l-2 -1221h-219v1556h155l1049 -813v813h219z" />
    <glyph glyph-name="Ncaron.ss12" horiz-adv-x="1746" 
d="M770 1694l-235 299h213l124 -160l123 160h215l-237 -299h-203zM1585 1556v-1556h-219v479l-983 742l-2 -1221h-219v1556h155l1049 -813v813h219z" />
    <glyph glyph-name="Ncommaaccent.ss12" horiz-adv-x="1746" 
d="M1585 1556v-1556h-219v479l-983 742l-2 -1221h-219v1556h155l1049 -813v813h219zM766 -92h231l-172 -299h-161z" />
    <glyph glyph-name="Eng.ss12" horiz-adv-x="1746" 
d="M1585 1556v-1861q0 -125 -76 -207t-200 -82q-112 0 -215 47l34 197q68 -27 123 -27q50 0 83 28q32 27 32 75v753l-983 742l-2 -1221h-219v1556h155l1049 -813v813h219z" />
    <glyph glyph-name="Ntilde.ss12" horiz-adv-x="1746" 
d="M762 1829q-31 0 -49 -23q-19 -24 -19 -59h-145q0 125 59 181q60 57 140 57q67 0 140 -45q71 -44 111 -44q30 0 49 25q17 23 17 64h143q0 -129 -57 -186q-56 -56 -139 -56q-74 0 -142 43t-108 43zM1585 1556v-1556h-219v479l-983 742l-2 -1221h-219v1556h155l1049 -813
v813h219z" />
    <glyph glyph-name="G.ss14" horiz-adv-x="1818" 
d="M1663 694v-694h-190l-11 240q-193 -271 -559 -271q-339 0 -572 234q-233 235 -233 573q0 340 232 575q231 234 565 234q257 0 460 -133t281 -369l-198 -69q-74 181 -219 272q-146 92 -324 92q-241 0 -408 -174q-165 -172 -165 -428t168 -427q170 -173 419 -173
q172 0 302 82t196 236h-659v200h915z" />
    <glyph glyph-name="Gbreve.ss14" horiz-adv-x="1818" 
d="M907 1671q-146 0 -232 79q-87 79 -87 212h178q0 -62 41 -103q40 -40 100 -40q63 0 103 40q41 41 41 103h176q0 -132 -87 -212q-86 -79 -233 -79zM1663 694v-694h-190l-11 240q-193 -271 -559 -271q-339 0 -572 234q-233 235 -233 573q0 340 232 575q231 234 565 234
q257 0 460 -133t281 -369l-198 -69q-74 181 -219 272q-146 92 -324 92q-241 0 -408 -174q-165 -172 -165 -428t168 -427q170 -173 419 -173q172 0 302 82t196 236h-659v200h915z" />
    <glyph glyph-name="Gcommaaccent.ss14" horiz-adv-x="1818" 
d="M1663 694v-694h-190l-11 240q-193 -271 -559 -271q-339 0 -572 234q-233 235 -233 573q0 340 232 575q231 234 565 234q257 0 460 -133t281 -369l-198 -69q-74 181 -219 272q-146 92 -324 92q-241 0 -408 -174q-165 -172 -165 -428t168 -427q170 -173 419 -173
q172 0 302 82t196 236h-659v200h915zM772 -92h232l-173 -299h-161z" />
    <glyph glyph-name="Gdotaccent.ss14" horiz-adv-x="1818" 
d="M905 1706q-58 0 -98 38q-39 38 -39 97q0 55 39 94t98 39t100 -39q39 -38 39 -94q0 -58 -39 -96q-41 -39 -100 -39zM1663 694v-694h-190l-11 240q-193 -271 -559 -271q-339 0 -572 234q-233 235 -233 573q0 340 232 575q231 234 565 234q257 0 460 -133t281 -369l-198 -69
q-74 181 -219 272q-146 92 -324 92q-241 0 -408 -174q-165 -172 -165 -428t168 -427q170 -173 419 -173q172 0 302 82t196 236h-659v200h915z" />
    <glyph glyph-name="i.loclTRK" horiz-adv-x="587" 
d="M293 1511q60 0 99 -38q40 -39 40 -95q0 -57 -40 -96t-99 -39q-58 0 -98 38q-39 37 -39 97q0 56 39 95q38 38 98 38zM401 0h-213v1016h213v-1016z" />
    <glyph glyph-name="germandbls.case" horiz-adv-x="2746" 
d="M668 1585q231 0 383 -116q151 -115 192 -318l-223 -47q-24 131 -119 208t-231 77q-124 0 -209 -65q-84 -64 -84 -179q0 -82 49 -130q51 -49 152 -79l352 -102q338 -101 338 -410q0 -209 -154 -331t-403 -122q-245 0 -415 120t-198 339l238 49q24 -151 129 -231
q106 -80 264 -80q148 0 232 66q83 65 83 184q0 85 -49 135q-51 53 -159 82l-318 90q-73 20 -135 48q-54 25 -118 75q-57 45 -91 121q-33 73 -33 168q0 204 145 326t382 122zM2042 1585q231 0 383 -116q151 -115 192 -318l-223 -47q-24 131 -119 208t-231 77q-124 0 -209 -65
q-84 -64 -84 -179q0 -82 49 -130q51 -49 152 -79l352 -102q338 -101 338 -410q0 -209 -154 -331t-403 -122q-245 0 -415 120q-168 119 -197 339l237 49q24 -151 129 -231q106 -80 264 -80q148 0 232 66t84 184q0 85 -49 135q-51 53 -160 82l-318 90q-73 20 -135 48
q-54 25 -118 75q-57 45 -91 121q-32 71 -32 168q0 205 144 326q145 122 382 122z" />
    <glyph glyph-name="a.ss01" horiz-adv-x="1320" 
d="M1161 1016v-1016h-215v115q-144 -144 -368 -144q-205 0 -355 152q-149 150 -149 385t149 385q150 151 355 151q227 0 368 -145v117h215zM612 160q134 0 234 96t100 252q0 154 -100 251t-234 97q-140 0 -235 -96q-94 -95 -94 -252q0 -159 94 -253q95 -95 235 -95z" />
    <glyph glyph-name="aacute.ss01" horiz-adv-x="1320" 
d="M741 1239h-182l150 291h249zM1161 1016v-1016h-215v115q-144 -144 -368 -144q-205 0 -355 152q-149 150 -149 385t149 385q150 151 355 151q227 0 368 -145v117h215zM612 160q134 0 234 96t100 252q0 154 -100 251t-234 97q-140 0 -235 -96q-94 -95 -94 -252
q0 -159 94 -253q95 -95 235 -95z" />
    <glyph glyph-name="abreve.ss01" horiz-adv-x="1320" 
d="M641 1206q-146 0 -232 79q-87 79 -87 212h178q0 -62 41 -103q40 -40 100 -40q62 0 102 40q41 41 41 103h177q0 -132 -88 -212q-86 -79 -232 -79zM1161 1016v-1016h-215v115q-144 -144 -368 -144q-205 0 -355 152q-149 150 -149 385t149 385q150 151 355 151
q227 0 368 -145v117h215zM612 160q134 0 234 96t100 252q0 154 -100 251t-234 97q-140 0 -235 -96q-94 -95 -94 -252q0 -159 94 -253q95 -95 235 -95z" />
    <glyph glyph-name="acircumflex.ss01" horiz-adv-x="1320" 
d="M518 1231h-213l236 299h202l238 -299h-215l-123 160zM1161 1016v-1016h-215v115q-144 -144 -368 -144q-205 0 -355 152q-149 150 -149 385t149 385q150 151 355 151q227 0 368 -145v117h215zM612 160q134 0 234 96t100 252q0 154 -100 251t-234 97q-140 0 -235 -96
q-94 -95 -94 -252q0 -159 94 -253q95 -95 235 -95z" />
    <glyph glyph-name="adieresis.ss01" horiz-adv-x="1320" 
d="M410 1249q-60 0 -98 38t-38 95q0 54 39 93q38 38 97 38q58 0 96 -38q39 -39 39 -93q0 -57 -38 -95t-97 -38zM874 1249q-59 0 -97 38t-38 95q0 54 39 93q38 38 96 38q59 0 97 -38q39 -39 39 -93q0 -57 -38 -95t-98 -38zM1161 1016v-1016h-215v115q-144 -144 -368 -144
q-205 0 -355 152q-149 150 -149 385t149 385q150 151 355 151q227 0 368 -145v117h215zM612 160q134 0 234 96t100 252q0 154 -100 251t-234 97q-140 0 -235 -96q-94 -95 -94 -252q0 -159 94 -253q95 -95 235 -95z" />
    <glyph glyph-name="agrave.ss01" horiz-adv-x="1320" 
d="M547 1239l-217 291h250l149 -291h-182zM1161 1016v-1016h-215v115q-144 -144 -368 -144q-205 0 -355 152q-149 150 -149 385t149 385q150 151 355 151q227 0 368 -145v117h215zM612 160q134 0 234 96t100 252q0 154 -100 251t-234 97q-140 0 -235 -96q-94 -95 -94 -252
q0 -159 94 -253q95 -95 235 -95z" />
    <glyph glyph-name="amacron.ss01" horiz-adv-x="1320" 
d="M950 1262h-616v174h616v-174zM1161 1016v-1016h-215v115q-144 -144 -368 -144q-205 0 -355 152q-149 150 -149 385t149 385q150 151 355 151q227 0 368 -145v117h215zM612 160q134 0 234 96t100 252q0 154 -100 251t-234 97q-140 0 -235 -96q-94 -95 -94 -252
q0 -159 94 -253q95 -95 235 -95z" />
    <glyph glyph-name="aogonek.ss01" horiz-adv-x="1320" 
d="M1194 -250l10 -135q-87 -35 -155 -35q-80 0 -131 45q-52 46 -52 131q0 120 144 244h-64v115q-144 -144 -368 -144q-205 0 -355 152q-149 150 -149 385t149 385q150 151 355 151q227 0 368 -145v117h215v-1016q-65 -72 -82 -91q-17 -20 -36 -53q-17 -30 -17 -61
q0 -67 70 -67q28 0 98 22zM612 160q134 0 234 96t100 252q0 154 -100 251t-234 97q-140 0 -235 -96q-94 -95 -94 -252q0 -159 94 -253q95 -95 235 -95z" />
    <glyph glyph-name="aring.ss01" horiz-adv-x="1320" 
d="M641 1198q-94 0 -161 65q-66 65 -66 154q0 93 66 157q65 64 161 64q97 0 162 -64t65 -157t-65 -155q-67 -64 -162 -64zM641 1513q-43 0 -72 -27q-28 -27 -28 -69q0 -39 28 -67q29 -29 72 -29t72 29q28 28 28 67q0 42 -28 69q-29 27 -72 27zM1161 1016v-1016h-215v115
q-144 -144 -368 -144q-205 0 -355 152q-149 150 -149 385t149 385q150 151 355 151q227 0 368 -145v117h215zM612 160q134 0 234 96t100 252q0 154 -100 251t-234 97q-140 0 -235 -96q-94 -95 -94 -252q0 -159 94 -253q95 -95 235 -95z" />
    <glyph glyph-name="atilde.ss01" horiz-adv-x="1320" 
d="M532 1364q-31 0 -49 -23t-18 -59h-146q0 124 60 181t139 57q69 0 140 -44t112 -44q30 0 48 24t18 64h143q0 -129 -57 -186q-56 -56 -140 -56q-73 0 -141 43t-109 43zM1161 1016v-1016h-215v115q-144 -144 -368 -144q-205 0 -355 152q-149 150 -149 385t149 385
q150 151 355 151q227 0 368 -145v117h215zM612 160q134 0 234 96t100 252q0 154 -100 251t-234 97q-140 0 -235 -96q-94 -95 -94 -252q0 -159 94 -253q95 -95 235 -95z" />
    <glyph glyph-name="l.ss02" horiz-adv-x="655" 
d="M354 1638v-1347q0 -53 37 -86t94 -33q53 0 123 31l41 -178q-102 -54 -200 -54q-137 0 -223 84q-85 84 -85 224v1359h213z" />
    <glyph glyph-name="lacute.ss02" horiz-adv-x="655" 
d="M344 1784h-182l149 291h250zM354 1638v-1347q0 -53 37 -86t94 -33q53 0 123 31l41 -178q-102 -54 -200 -54q-137 0 -223 84q-85 84 -85 224v1359h213z" />
    <glyph glyph-name="lcaron.ss02" horiz-adv-x="655" 
d="M354 1638v-1347q0 -53 37 -86t94 -33q53 0 123 31l41 -178q-102 -54 -200 -54q-137 0 -223 84q-85 84 -85 224v1359h213zM641 1257h-168v381h215z" />
    <glyph glyph-name="lcommaaccent.ss02" horiz-adv-x="655" 
d="M354 1638v-1347q0 -53 37 -86t94 -33q53 0 123 31l41 -178q-102 -54 -200 -54q-137 0 -223 84q-85 84 -85 224v1359h213zM178 -391l103 299h231l-172 -299h-162z" />
    <glyph glyph-name="ldot.ss02" horiz-adv-x="786" 
d="M375 1638v-1347q0 -53 37 -86t94 -33q53 0 123 31l41 -178q-102 -54 -201 -54q-137 0 -222 84t-85 224v1359h213zM641 827q59 0 99 -39t40 -94q0 -57 -40 -96t-99 -39q-58 0 -98 38q-39 38 -39 97q0 55 39 94t98 39z" />
    <glyph glyph-name="lslash.ss02" horiz-adv-x="714" 
d="M668 203l39 -178q-102 -54 -199 -54q-139 0 -223 84t-84 224v260l-140 -84v207l140 83v893h213v-766l161 97v-207l-161 -96v-375q0 -53 36 -86t93 -33q55 0 125 31z" />
    <glyph glyph-name="k.ss03" horiz-adv-x="1306" 
d="M1296 0h-286l-361 350l-274 -350h-213v1638h213v-1300l553 678h246l-392 -498z" />
    <glyph glyph-name="kcommaaccent.ss03" horiz-adv-x="1306" 
d="M1296 0h-286l-361 350l-274 -350h-213v1638h213v-1300l553 678h246l-392 -498zM575 -92h232l-172 -299h-162z" />
    <glyph glyph-name="g.ss06" horiz-adv-x="1320" 
d="M1161 1016v-1131q-2 -221 -157 -350q-156 -129 -398 -129q-359 0 -495 244l176 143q57 -91 131 -135q73 -43 188 -43q148 0 244 81t96 220v199q-144 -144 -368 -144q-205 0 -355 152q-149 150 -149 385t149 385q150 151 355 151q227 0 368 -145v117h215zM612 160
q134 0 234 96t100 252q0 154 -100 251t-234 97q-140 0 -235 -96q-94 -95 -94 -252q0 -159 94 -253q95 -95 235 -95z" />
    <glyph glyph-name="gbreve.ss06" horiz-adv-x="1320" 
d="M643 1206q-146 0 -232 79q-87 79 -87 212h178q0 -62 41 -103q40 -40 100 -40q62 0 102 40q41 41 41 103h177q0 -133 -87 -212q-86 -79 -233 -79zM1161 1016v-1131q-2 -221 -157 -350q-156 -129 -398 -129q-359 0 -495 244l176 143q57 -91 131 -135q73 -43 188 -43
q148 0 244 81t96 220v199q-144 -144 -368 -144q-205 0 -355 152q-149 150 -149 385t149 385q150 151 355 151q227 0 368 -145v117h215zM612 160q134 0 234 96t100 252q0 154 -100 251t-234 97q-140 0 -235 -96q-94 -95 -94 -252q0 -159 94 -253q95 -95 235 -95z" />
    <glyph glyph-name="gcommaaccent.ss06" horiz-adv-x="1320" 
d="M725 1221h-231l172 301h161zM1161 1016v-1131q-2 -221 -157 -350q-156 -129 -398 -129q-359 0 -495 244l176 143q57 -91 131 -135q73 -43 188 -43q148 0 244 81t96 220v199q-144 -144 -368 -144q-205 0 -355 152q-149 150 -149 385t149 385q150 151 355 151
q227 0 368 -145v117h215zM612 160q134 0 234 96t100 252q0 154 -100 251t-234 97q-140 0 -235 -96q-94 -95 -94 -252q0 -159 94 -253q95 -95 235 -95z" />
    <glyph glyph-name="gdotaccent.ss06" horiz-adv-x="1320" 
d="M641 1243q-58 0 -98 38q-39 37 -39 97q0 56 39 95q38 38 98 38t99 -38q40 -39 40 -95q0 -57 -40 -96t-99 -39zM1161 1016v-1131q-2 -221 -157 -350q-156 -129 -398 -129q-359 0 -495 244l176 143q57 -91 131 -135q73 -43 188 -43q148 0 244 81t96 220v199
q-144 -144 -368 -144q-205 0 -355 152q-149 150 -149 385t149 385q150 151 355 151q227 0 368 -145v117h215zM612 160q134 0 234 96t100 252q0 154 -100 251t-234 97q-140 0 -235 -96q-94 -95 -94 -252q0 -159 94 -253q95 -95 235 -95z" />
    <glyph glyph-name="y.ss07" horiz-adv-x="1269" 
d="M1108 1016v-1151q0 -199 -142 -329t-370 -130q-356 0 -492 244l177 143q61 -93 131 -135q71 -43 184 -43q132 0 215 82q84 82 84 199v229q-130 -154 -350 -154q-185 0 -296 120q-112 121 -112 310v615h213v-572q0 -122 67 -200q66 -76 177 -76q142 0 221 96q80 97 80 283
v469h213z" />
    <glyph glyph-name="yacute.ss07" horiz-adv-x="1269" 
d="M739 1249h-182l150 291h249zM1108 1016v-1151q0 -199 -142 -329t-370 -130q-356 0 -492 244l177 143q61 -93 131 -135q71 -43 184 -43q132 0 215 82q84 82 84 199v229q-130 -154 -350 -154q-185 0 -296 120q-112 121 -112 310v615h213v-572q0 -122 67 -200
q66 -76 177 -76q142 0 221 96q80 97 80 283v469h213z" />
    <glyph glyph-name="ycircumflex.ss07" horiz-adv-x="1269" 
d="M516 1241h-213l236 299h202l238 -299h-215l-123 160zM1108 1016v-1151q0 -199 -142 -329t-370 -130q-356 0 -492 244l177 143q61 -93 131 -135q71 -43 184 -43q132 0 215 82q84 82 84 199v229q-130 -154 -350 -154q-185 0 -296 120q-112 121 -112 310v615h213v-572
q0 -122 67 -200q66 -76 177 -76q142 0 221 96q80 97 80 283v469h213z" />
    <glyph glyph-name="ydieresis.ss07" horiz-adv-x="1269" 
d="M408 1260q-61 0 -98 37q-38 38 -38 96q0 53 39 92t97 39q57 0 96 -39t39 -92q0 -58 -38 -96q-37 -37 -97 -37zM872 1260q-60 0 -97 37q-38 38 -38 96q0 53 39 92t96 39q58 0 97 -39t39 -92q0 -58 -38 -96q-37 -37 -98 -37zM1108 1016v-1151q0 -199 -142 -329t-370 -130
q-356 0 -492 244l177 143q61 -93 131 -135q71 -43 184 -43q132 0 215 82q84 82 84 199v229q-130 -154 -350 -154q-185 0 -296 120q-112 121 -112 310v615h213v-572q0 -122 67 -200q66 -76 177 -76q142 0 221 96q80 97 80 283v469h213z" />
    <glyph glyph-name="ygrave.ss07" horiz-adv-x="1269" 
d="M545 1249l-217 291h250l149 -291h-182zM1108 1016v-1151q0 -199 -142 -329t-370 -130q-356 0 -492 244l177 143q61 -93 131 -135q71 -43 184 -43q132 0 215 82q84 82 84 199v229q-130 -154 -350 -154q-185 0 -296 120q-112 121 -112 310v615h213v-572q0 -122 67 -200
q66 -76 177 -76q142 0 221 96q80 97 80 283v469h213z" />
    <glyph glyph-name="germandbls.ss11" horiz-adv-x="1470" 
d="M1358 975l-451 -559q226 -5 364 -135q138 -131 138 -347q0 -230 -157 -379t-396 -149q-183 0 -327 90q-142 89 -203 250l198 86q39 -108 131 -171q90 -62 203 -62q143 0 245 93q101 92 101 234q0 136 -91 221q-92 86 -234 86h-289l-17 52l439 555h-637v-840h-213v1294
q0 171 102 270t273 99q91 0 174 -37l-52 -174q-58 23 -108 23q-79 0 -128 -49q-48 -48 -48 -132v-278h983v-41z" />
    <glyph glyph-name="j.ss13" horiz-adv-x="567" 
d="M285 1511q57 0 96 -40q39 -41 39 -95t-39 -92q-38 -37 -96 -37q-61 0 -99 37q-39 38 -39 92t39 95q39 40 99 40zM391 -573h-213v1589h213v-1589z" />
    <glyph glyph-name="ij.ss13" horiz-adv-x="1136" 
d="M285 1511q57 0 96 -40q39 -41 39 -95t-39 -92q-38 -37 -96 -37q-61 0 -99 37q-39 38 -39 92t39 95q39 40 99 40zM852 1511q57 0 96 -40q39 -41 39 -95t-39 -92q-38 -37 -96 -37q-60 0 -98 37q-39 38 -39 92t39 95q39 40 98 40zM391 0h-213v1016h213v-1016zM958 -573h-213
v1589h213v-1589z" />
    <glyph glyph-name="f_j" horiz-adv-x="1284" 
d="M1135 1016v-1335q0 -123 -76 -199t-201 -76q-99 0 -186 37l41 186q50 -22 94 -22q52 0 83 28q32 29 32 74v1131h-502v-840h-213v840h-207v176h207v184q0 212 130 339q131 128 343 128q191 0 364 -139l-92 -166q-135 115 -272 115q-116 0 -188 -75t-72 -202v-184h715z" />
    <glyph glyph-name="f_f_f" horiz-adv-x="2199" 
d="M2212 840h-400v-840h-213v840h-487v-840h-213v840h-479v-840h-213v840h-207v176h207v184q0 212 130 339q131 128 343 128q184 0 350 -127q130 127 344 127q172 0 324 -108q104 110 276 110q94 0 172 -37l-49 -174q-53 21 -108 21q-79 0 -128 -54t-49 -139v-270h400v-176z
M899 1016v184q0 98 31 180q-123 97 -250 97q-116 0 -188 -75t-72 -202v-184h479zM1599 1016v270q0 47 11 105q-113 86 -236 86q-118 0 -190 -75t-72 -202v-184h487z" />
    <glyph glyph-name="f_k" horiz-adv-x="1908" 
d="M1604 0l-496 420v-420h-213v840h-475v-840h-213v840h-207v176h207v184q0 212 130 339q131 128 343 128q116 0 215 -45v16h213v-1054l477 432h275l-551 -508l589 -508h-294zM895 1016v391q-103 70 -215 70q-116 0 -188 -75t-72 -202v-184h475z" />
    <glyph glyph-name="f_f_k" horiz-adv-x="2596" 
d="M2292 0l-498 422v-422h-213v840h-469v-840h-215v840h-477v-840h-213v840h-207v176h207v184q0 212 130 339q131 128 343 128q182 0 348 -127q130 127 344 127q111 0 209 -43v14h213v-1054l479 432h273l-551 -508l592 -508h-295zM897 1016v184q0 95 31 182q-122 95 -248 95
q-116 0 -188 -75t-72 -202v-184h477zM1581 1016v393q-101 68 -209 68q-118 0 -189 -75q-71 -76 -71 -202v-184h469z" />
    <glyph glyph-name="r_t" horiz-adv-x="1687" 
d="M1264 840v-494q0 -82 40 -128t111 -46q89 0 172 55l64 -178q-127 -78 -250 -78q-165 0 -259 96q-93 95 -93 263v510h-228q-202 0 -324 -134t-122 -348v-358h-213v1016h213v-197q147 197 418 197h256v393l215 66v-459h417v-176h-417z" />
    <glyph glyph-name="f_k.ss03" horiz-adv-x="2031" 
d="M2021 0h-288l-359 348l-274 -348h-215v840h-465v-840h-213v840h-207v176h207v184q0 212 130 339q131 128 343 128q109 0 205 -41v12h215v-1298l551 676h247l-391 -498zM885 1016v397q-102 64 -205 64q-116 0 -188 -75t-72 -202v-184h465z" />
    <glyph glyph-name="f_f_k.ss03" horiz-adv-x="2725" 
d="M2716 0h-287l-361 348l-274 -348h-213v840h-469v-840h-215v840h-477v-840h-213v840h-207v176h207v184q0 212 130 339q131 128 343 128q182 0 348 -127q130 127 344 127q111 0 209 -43v14h213v-1302l553 680h248l-393 -498zM897 1016v184q0 95 31 182q-122 95 -248 95
q-116 0 -188 -75t-72 -202v-184h477zM1581 1016v393q-101 68 -209 68q-118 0 -189 -75q-71 -76 -71 -202v-184h469z" />
    <glyph glyph-name="fl.ss02" horiz-adv-x="1390" 
d="M1343 203l39 -178q-102 -54 -198 -54q-139 0 -223 84t-84 224v561h-457v-840h-213v840h-207v176h207v184q0 212 130 339q131 128 343 128q104 0 197 -37v8h213v-1347q0 -54 35 -86q36 -33 94 -33q54 0 124 31zM877 1016v403q-93 58 -197 58q-116 0 -188 -75t-72 -202
v-184h457z" />
    <glyph glyph-name="f_h" horiz-adv-x="2002" 
d="M1460 1044q183 0 295 -119q113 -121 113 -311v-614h-215v571q0 123 -67 201q-66 76 -175 76q-141 0 -222 -96t-81 -283v-469h-213v840h-475v-840h-213v840h-207v176h207v184q0 212 130 339q131 128 343 128q116 0 215 -45v16h213v-747q129 153 352 153zM895 1016v391
q-103 70 -215 70q-116 0 -188 -75t-72 -202v-184h475z" />
    <glyph glyph-name="t_z" horiz-adv-x="1849" 
d="M1720 981l-436 -565q228 -4 366 -135t138 -347q0 -230 -158 -379t-397 -149q-183 0 -327 90t-204 250l201 86q37 -108 129 -171q90 -62 205 -62q141 0 243 93q101 92 101 234q0 136 -91 221q-92 86 -235 86h-299l-16 50l432 557h-940v-494q0 -81 41 -128q40 -46 113 -46
q89 0 172 55l63 -178q-127 -78 -250 -78q-168 0 -260 95t-92 264v510h-219v176h219v393l213 66v-459h1288v-35z" />
    <glyph glyph-name="y_t" horiz-adv-x="2048" 
d="M1622 840v-494q0 -81 41 -128q40 -46 113 -46q88 0 170 55l65 -178q-128 -78 -250 -78q-168 0 -260 95t-92 264v510h-328l-649 -1413h-229l274 598l-450 991h229l336 -746l342 746h475v393l213 66v-459h420v-176h-420z" />
    <glyph glyph-name="L_A" horiz-adv-x="2633" 
d="M2623 0h-243l-154 338h-831l-154 -338h-1079v1556h219v-1357h709l634 1357h172zM2134 539l-324 716l-325 -716h649z" />
    <glyph glyph-name="R_A" horiz-adv-x="3100" 
d="M3090 0h-245l-154 338h-829l-154 -338h-373l-661 702h-293v-702h-219v1556h571q229 0 364 -117q136 -118 136 -309q0 -144 -81 -251t-226 -150l585 -623l678 1450h174zM381 903h352q128 0 205 63q76 63 76 164q0 102 -75 165t-206 63h-352v-455zM2601 539l-324 716
l-325 -716h649z" />
    <glyph glyph-name="t_i" horiz-adv-x="1425" 
d="M1141 1247q-59 0 -97 37t-38 92q0 56 38 95q39 40 97 40q57 0 97 -40t40 -95q0 -54 -39 -92q-38 -37 -98 -37zM1249 1016v-1016h-215v840h-602v-494q0 -81 41 -128q40 -46 113 -46q89 0 172 55l63 -178q-127 -78 -250 -78q-168 0 -260 95t-92 264v510h-219v176h219v393
l213 66v-459h817z" />
    <glyph glyph-name="t_h" horiz-adv-x="2127" 
d="M1583 1044q186 0 296 -119q112 -121 112 -311v-614h-213v571q0 123 -67 201q-66 76 -177 76q-142 0 -221 -96q-80 -97 -80 -283v-469h-213v840h-588v-494q0 -81 41 -128q40 -46 113 -46q89 0 172 55l63 -178q-127 -78 -250 -78q-168 0 -260 95t-92 264v510h-219v176h219
v393l213 66v-459h588v622h213v-747q127 153 350 153z" />
    <glyph glyph-name="t_u" horiz-adv-x="2107" 
d="M1946 1016v-1016h-213v125q-128 -154 -353 -154q-182 0 -295 120q-112 119 -112 312v437h-541v-494q0 -81 41 -128q40 -46 113 -46q89 0 172 55l63 -178q-127 -78 -250 -78q-168 0 -260 95t-92 264v510h-219v176h219v393l213 66v-459h756v-570q0 -124 66 -201t176 -77
q141 0 222 96t81 283v469h213z" />
    <glyph glyph-name="t_y" horiz-adv-x="2048" 
d="M2021 1016l-731 -1589h-229l274 598l-372 815h-531v-494q0 -81 41 -128q40 -46 113 -46q89 0 172 55l63 -178q-127 -78 -250 -78q-168 0 -260 95t-92 264v510h-219v176h219v393l213 66v-459h682l336 -746l342 746h229z" />
    <glyph glyph-name="w_w_w" horiz-adv-x="4499" 
d="M4473 1016l-379 -1020h-182l-254 684l-256 -684h-183l-266 717l-266 -717h-182l-254 684l-256 -684h-183l-266 717l-266 -717h-182l-254 684l-256 -684h-182l-379 1020h227l252 -697l254 697h166l254 -701l252 701h229l252 -697l254 697h166l254 -701l252 701h229
l252 -697l254 697h166l254 -701l252 701h227z" />
    <glyph glyph-name="W_W_W" horiz-adv-x="6211" 
d="M6121 1556l-509 -1556h-173l-411 1128l-412 -1128h-170l-393 1204l-395 -1204h-174l-410 1128l-412 -1128h-172l-393 1204l-395 -1204h-172l-412 1128l-411 -1128h-170l-510 1556h229l377 -1142l418 1142h135l418 -1142l376 1142h232v-4l375 -1138l417 1142h138
l417 -1142l377 1142h232v-4l374 -1138l418 1142h135l418 -1142l377 1142h231z" />
    <glyph glyph-name="r_f" horiz-adv-x="1656" 
d="M1669 840h-399v-840h-213v840h-236q-202 0 -324 -134t-122 -348v-358h-213v1016h213v-197q147 197 418 197h264v270q0 173 102 278t273 105q91 0 174 -37l-52 -174q-52 21 -108 21q-79 0 -128 -54q-48 -53 -48 -139v-270h399v-176z" />
    <glyph glyph-name="E_R" horiz-adv-x="3006" 
d="M3027 0h-279l-661 702h-291v-702h-221v705h-1194v-506h870v-199h-1089v1556h1083v-200h-864v-455h1194v655h573q230 0 363 -117q135 -119 135 -309q0 -144 -80 -250t-225 -151zM1796 1358v-455h352q127 0 205 64q76 63 76 163q0 102 -76 165t-205 63h-352z" />
    <glyph glyph-name="f_f_j" horiz-adv-x="1976" 
d="M1827 1016v-1335q0 -123 -76 -199t-201 -76q-96 0 -186 37l41 186q54 -22 94 -22q51 0 83 27t32 75v1131h-502v-840h-213v840h-479v-840h-213v840h-207v176h207v184q0 212 130 339q131 128 343 128q184 0 350 -127q130 127 344 127q187 0 365 -139l-94 -166
q-135 115 -271 115q-118 0 -190 -75t-72 -202v-184h715zM899 1016v184q0 98 31 180q-123 97 -250 97q-116 0 -188 -75t-72 -202v-184h479z" />
    <glyph glyph-name="f_f_l.ss02" horiz-adv-x="2082" 
d="M2036 203l41 -178q-102 -54 -201 -54q-139 0 -223 84t-84 224v561h-457v-840h-213v840h-479v-840h-213v840h-207v176h207v184q0 212 130 339q131 128 343 128q184 0 350 -127q130 127 344 127q105 0 195 -37v8h213v-1347q0 -53 37 -86t94 -33q53 0 123 31zM899 1016v184
q0 98 31 180q-123 97 -250 97q-116 0 -188 -75t-72 -202v-184h479zM1569 1016v403q-93 58 -195 58q-118 0 -190 -75t-72 -202v-184h457z" />
    <glyph glyph-name="f_f_j.ss13" horiz-adv-x="1953" 
d="M1806 1016v-1589h-213v1413h-481v-840h-213v840h-479v-840h-213v840h-207v176h207v184q0 212 130 339q131 128 343 128q184 0 350 -127q130 127 344 127q187 0 365 -139l-94 -166q-135 115 -271 115q-118 0 -190 -75t-72 -202v-184h694zM899 1016v184q0 98 31 180
q-123 97 -250 97q-116 0 -188 -75t-72 -202v-184h479z" />
    <glyph glyph-name="f_j.ss13" horiz-adv-x="1261" 
d="M1114 1016v-1589h-215v1413h-479v-840h-213v840h-207v176h207v184q0 212 130 339q131 128 343 128q191 0 364 -139l-92 -166q-135 115 -272 115q-116 0 -188 -75t-72 -202v-184h694z" />
    <glyph glyph-name="zero.osf" horiz-adv-x="1423" 
d="M713 1249q268 0 452 -186q185 -187 185 -455q0 -267 -185 -452t-452 -185q-270 0 -455 185q-184 184 -184 452q0 270 184 455q184 186 455 186zM713 178q178 0 298 123q119 122 119 307q0 187 -119 310q-120 124 -298 124q-179 0 -298 -123q-120 -125 -120 -311
q0 -184 120 -307t298 -123z" />
    <glyph glyph-name="one.osf" horiz-adv-x="1218" 
d="M1143 199v-199h-981v199h401v764l-317 -109v197l491 178h41v-1030h365z" />
    <glyph glyph-name="two.osf" horiz-adv-x="1185" 
d="M1075 199v-199h-1020v76l477 377q105 82 152 126q49 46 86 108t37 130q0 108 -69 177t-183 69q-120 0 -203 -74q-82 -73 -88 -211l-198 39q10 197 147 315q135 117 342 117t330 -120t123 -312q0 -152 -82 -258q-85 -109 -264 -246l-152 -114h565z" />
    <glyph glyph-name="three.osf" horiz-adv-x="1288" 
d="M1186 1163l-471 -520q220 -11 350 -138q131 -128 131 -341q0 -228 -159 -376q-158 -148 -398 -148q-235 0 -399 144q-165 145 -166 390l213 41q0 -178 103 -277q105 -100 253 -100q144 0 244 91t100 233q0 133 -90 217t-233 84h-306l-14 43l469 522h-653v199h1026v-64z
" />
    <glyph glyph-name="four.osf" horiz-adv-x="1507" 
d="M1491 0h-330v-293h-213v293h-919v109l1005 1118h127v-1028h330v-199zM948 199v657l-569 -657h569z" />
    <glyph glyph-name="five.osf" horiz-adv-x="1298" 
d="M399 657h293q231 0 375 -135q143 -134 143 -358q0 -228 -158 -376t-401 -148q-235 0 -399 144t-164 390l211 41q0 -178 103 -277q105 -100 253 -100q144 0 244 91t100 233q0 133 -90 217t-233 84h-518l127 764h878v-199h-700z" />
    <glyph glyph-name="six.osf" horiz-adv-x="1353" 
d="M635 1083l45 2q242 0 410 -156q167 -155 167 -399t-167 -401q-169 -158 -410 -158q-245 0 -414 158q-168 157 -168 401q0 200 123 353l504 673h262zM680 168q149 0 254 101q106 102 106 261q0 161 -106 261t-254 100q-152 0 -259 -100q-108 -101 -108 -261
q0 -162 108 -262q107 -100 259 -100z" />
    <glyph glyph-name="seven.osf" horiz-adv-x="1230" 
d="M1178 1227v-62l-693 -1495h-252l639 1358h-802v199h1108z" />
    <glyph glyph-name="eight.osf" horiz-adv-x="1318" 
d="M950 793q117 -46 182 -151q64 -103 64 -232q0 -196 -149 -317q-151 -122 -385 -122q-238 0 -389 122q-150 121 -150 317q0 129 67 233t181 150q-94 46 -147 142q-52 94 -52 208q0 194 143 318t347 124q202 0 344 -125q141 -124 141 -317q0 -114 -52 -208
q-53 -95 -145 -142zM379 1145q-2 -114 77 -182q81 -70 201 -70q122 0 204 70q81 69 81 180q0 114 -84 183t-199 69q-111 0 -196 -68q-84 -67 -84 -182zM655 166q130 0 223 73q91 72 91 193q0 122 -91 194q-92 72 -223 72q-129 0 -216 -72t-87 -194q0 -121 88 -193
q90 -73 215 -73z" />
    <glyph glyph-name="nine.osf" horiz-adv-x="1366" 
d="M1257 692q0 -206 -124 -352l-504 -676h-260l352 473l-45 -2q-244 0 -411 158t-167 399q0 242 167 400q166 157 411 157q247 0 414 -157t167 -400zM313 692q0 -159 108 -261q107 -101 255 -101q150 0 257 101t107 261t-107 261q-108 102 -257 102q-147 0 -255 -102
t-108 -261z" />
    <glyph glyph-name="zero.tf" 
d="M686 1585q289 0 467 -223t178 -584q0 -362 -177 -584q-178 -223 -468 -223q-288 0 -467 224q-178 223 -178 583q0 361 178 584t467 223zM686 174q190 0 306 167t116 437q0 269 -116 436q-115 166 -306 166t-306 -166q-116 -167 -116 -436q0 -270 116 -437t306 -167z" />
    <glyph glyph-name="one.tf" 
d="M1239 199v-199h-1106v199h457v1091l-397 -135v199l571 202h41v-1357h434z" />
    <glyph glyph-name="two.tf" 
d="M1225 199v-199h-1059v80l561 596q85 90 101 108q24 27 73 92q46 62 61 113q15 53 15 117q0 128 -81 208q-80 79 -212 79q-147 0 -238 -97q-90 -96 -96 -247l-205 38q11 228 160 363q150 135 379 135q227 0 369 -131q141 -130 141 -346q0 -150 -70 -267
q-72 -121 -247 -309l-312 -333h660z" />
    <glyph glyph-name="three.tf" 
d="M1237 1493l-473 -520q219 -11 351 -138t132 -341q0 -228 -158 -376q-160 -149 -401 -149q-232 0 -397 145t-166 390l213 41q0 -179 103 -278t253 -99q145 0 243 91q99 91 99 233q0 133 -90 217t-233 84h-303l-15 43l469 522h-655v198h1028v-63z" />
    <glyph glyph-name="four.tf" 
d="M1335 291h-243v-291h-213v291h-844v94l944 1171h113v-1071h243v-194zM879 485v662l-510 -662h510z" />
    <glyph glyph-name="five.tf" 
d="M436 987h293q231 0 375 -135q143 -134 143 -358q0 -228 -158 -376q-160 -149 -401 -149q-234 0 -399 145q-164 144 -164 390l211 41q0 -179 103 -278t253 -99q144 0 244 91t100 233q0 133 -90 217t-233 84h-518l127 763h878v-198h-700z" />
    <glyph glyph-name="six.tf" 
d="M643 1083l45 2q244 0 411 -156t167 -399t-167 -401t-411 -158q-245 0 -414 158q-168 157 -168 401q0 198 117 344l512 682h260zM688 168q148 0 255 101q108 102 108 261q0 160 -108 261q-107 100 -255 100q-150 0 -257 -100t-107 -261q0 -162 107 -262t257 -100z" />
    <glyph glyph-name="seven.tf" 
d="M1292 1556v-108l-757 -1448h-246l721 1358h-877v198h1159z" />
    <glyph glyph-name="eight.tf" 
d="M977 793q116 -46 181 -151q65 -104 65 -232q0 -196 -150 -317q-151 -122 -385 -122q-237 0 -388 122q-150 121 -150 317q0 129 67 233q67 105 180 150q-92 45 -146 142q-52 94 -52 208q0 194 143 318t346 124q202 0 344 -125t142 -317q0 -113 -53 -208q-53 -96 -144 -142
zM406 1145q-2 -115 76 -182q81 -70 202 -70q122 0 204 70q81 69 81 180q0 114 -84 183t-199 69q-112 0 -197 -68q-83 -67 -83 -182zM682 166q129 0 222 73q91 72 91 193q0 122 -91 194q-92 72 -222 72q-129 0 -216 -72t-87 -194q0 -121 88 -193q90 -73 215 -73z" />
    <glyph glyph-name="nine.tf" 
d="M1264 1028q0 -211 -129 -358l-498 -670h-262l352 473l-45 -2q-241 0 -410 158q-168 157 -168 399t168 399q169 158 410 158q245 0 414 -158q168 -157 168 -399zM319 1028q0 -159 108 -261q107 -101 255 -101q151 0 258 101q109 103 109 261t-109 261q-108 102 -258 102
q-147 0 -255 -102t-108 -261z" />
    <glyph glyph-name="zero.zero.tf" 
d="M684 1585q289 0 467 -223t178 -584q0 -362 -177 -584q-178 -223 -468 -223q-288 0 -467 224q-178 223 -178 583q0 361 178 584t467 223zM684 1380q-191 0 -306 -166q-116 -167 -116 -436q0 -195 62 -336l620 828q-104 110 -260 110zM684 174q190 0 306 167t116 437
q0 201 -66 348l-624 -833q108 -119 268 -119z" />
    <glyph glyph-name="zero.zero" horiz-adv-x="1767" 
d="M885 1585q329 0 557 -235q227 -234 227 -576q0 -336 -227 -569q-228 -234 -557 -234q-331 0 -559 233q-228 232 -228 570q0 340 228 576q228 235 559 235zM319 774q0 -236 144 -403l713 923q-134 84 -291 84q-239 0 -402 -174q-164 -175 -164 -430zM885 178
q237 0 400 171q163 170 163 425q0 244 -150 414l-710 -926q135 -84 297 -84z" />
    <glyph glyph-name="zero.zero.osf" horiz-adv-x="1470" 
d="M713 1249q268 0 452 -186q185 -187 185 -455q0 -267 -185 -452t-452 -185q-270 0 -455 185q-184 184 -184 452q0 270 184 455q184 186 455 186zM713 1042q-179 0 -298 -123q-120 -125 -120 -311q0 -157 92 -276l516 665q-90 45 -190 45zM713 178q178 0 298 123
q119 122 119 307q0 165 -100 287l-518 -668q89 -49 201 -49z" />
    <glyph glyph-name="zero.dnom" horiz-adv-x="976" 
d="M487 784q175 0 294 -110q120 -111 120 -287q0 -178 -120 -289q-119 -110 -294 -110q-169 0 -289 111t-120 288q0 175 120 286t289 111zM487 131q103 0 176 68q72 67 72 188q0 116 -72 184q-73 68 -176 68q-97 0 -170 -69t-73 -183q0 -118 73 -187t170 -69z" />
    <glyph glyph-name="one.dnom" horiz-adv-x="468" 
d="M369 0h-160v557l-186 -70v152l317 129h29v-768z" />
    <glyph glyph-name="two.dnom" horiz-adv-x="710" 
d="M342 137h285v-137h-566v39l281 293q102 107 119 139q14 28 14 64q0 54 -34 85t-91 31q-60 0 -100 -45q-42 -46 -43 -119l-135 31q0 120 76 193t202 73q124 0 201 -66q76 -66 76 -181q0 -51 -31 -110q-29 -54 -56 -85q-17 -19 -104 -106z" />
    <glyph glyph-name="three.dnom" horiz-adv-x="686" 
d="M633 721l-182 -234q89 -17 141 -79q53 -64 53 -158q0 -118 -81 -190t-212 -72q-121 0 -202 65q-83 66 -95 162l150 29q11 -57 51 -90t96 -33q62 0 102 33t40 90q0 56 -38 91q-37 34 -98 34h-131l-8 20l178 242h-305l4 139h537v-49z" />
    <glyph glyph-name="four.dnom" horiz-adv-x="765" 
d="M727 135h-127v-137h-147v137h-406v76l490 555h63v-502h127v-129zM453 264v217l-189 -217h189z" />
    <glyph glyph-name="five.dnom" horiz-adv-x="679" 
d="M262 494h119q106 0 176 -67t70 -177q0 -118 -79 -190q-80 -72 -204 -72q-119 0 -197 65q-80 66 -92 162l150 27q10 -55 48 -88q37 -33 91 -33q56 0 93 33q38 33 38 90q0 58 -39 88t-98 30h-238l62 408h438v-139h-317z" />
    <glyph glyph-name="six.dnom" horiz-adv-x="677" 
d="M537 764l-162 -215q110 -12 184 -89t74 -192q0 -122 -85 -201t-208 -79t-208 79t-85 201q0 104 64 183l239 313h187zM340 125q57 0 102 39t45 106q0 68 -45 107t-102 39q-59 0 -104 -39q-46 -40 -46 -107q0 -66 46 -106q45 -39 104 -39z" />
    <glyph glyph-name="seven.dnom" horiz-adv-x="595" 
d="M575 766v-25l-327 -743h-170l291 629h-355v139h561z" />
    <glyph glyph-name="eight.dnom" horiz-adv-x="708" 
d="M498 403q145 -51 145 -194q0 -97 -80 -160q-79 -63 -209 -63q-127 0 -208 63q-80 62 -80 160q0 145 145 194q-117 49 -117 170q0 89 76 149q77 60 186 60q111 0 186 -60q74 -59 74 -149q0 -121 -118 -170zM354 666q-52 0 -86 -30q-35 -30 -35 -79q0 -43 35 -73
q33 -29 86 -29q50 0 84 28q36 29 37 74q0 52 -34 80q-35 29 -87 29zM354 113q56 0 91 31q36 32 36 83q0 49 -35 82q-34 33 -92 33q-56 0 -93 -32q-36 -32 -36 -83q0 -52 37 -83t92 -31z" />
    <glyph glyph-name="nine.dnom" horiz-adv-x="677" 
d="M633 496q0 -106 -68 -185l-235 -311h-187l160 215q-110 12 -183 89q-73 78 -73 192q0 122 85 201t208 79t208 -79t85 -201zM190 494q0 -67 46 -107q45 -39 104 -39q57 0 102 39t45 107q0 67 -45 106t-102 39q-59 0 -104 -39q-46 -40 -46 -106z" />
    <glyph glyph-name="zero.numr" horiz-adv-x="976" 
d="M487 1577q174 0 294 -111t120 -286q0 -178 -120 -289t-294 -111q-168 0 -289 112q-120 111 -120 288q0 174 120 285q121 112 289 112zM487 924q105 0 176 67q72 67 72 189q0 116 -72 184q-73 68 -176 68q-97 0 -170 -69t-73 -183q0 -119 73 -188q72 -68 170 -68z" />
    <glyph glyph-name="one.numr" horiz-adv-x="468" 
d="M369 788h-160v558l-186 -70v151l317 129h29v-768z" />
    <glyph glyph-name="two.numr" horiz-adv-x="710" 
d="M342 930h285v-137h-566v38l281 293q101 106 119 140q14 28 14 63q0 54 -34 85q-35 32 -91 32q-60 0 -100 -45q-42 -46 -43 -119l-135 31q0 119 76 192q77 74 202 74q123 0 201 -67q76 -66 76 -181q0 -50 -31 -109q-29 -54 -56 -85q-26 -28 -104 -107z" />
    <glyph glyph-name="three.numr" horiz-adv-x="686" 
d="M633 1507l-182 -233q88 -16 141 -80t53 -158q0 -117 -81 -189q-82 -73 -212 -73q-120 0 -202 66q-83 67 -95 161l150 29q11 -57 51 -90t96 -33q62 0 102 33t40 90q0 56 -38 91q-37 34 -98 34h-131l-8 21l178 241h-305l4 139h537v-49z" />
    <glyph glyph-name="four.numr" horiz-adv-x="765" 
d="M727 926h-127v-135h-147v135h-406v75l490 555h63v-501h127v-129zM453 1055v217l-189 -217h189z" />
    <glyph glyph-name="five.numr" horiz-adv-x="679" 
d="M262 1280h119q106 0 176 -67t70 -177q0 -117 -79 -189q-81 -73 -204 -73q-118 0 -197 66q-80 67 -92 161l150 27q10 -55 48 -88t91 -33q56 0 93 33q38 33 38 90q0 58 -39 88q-40 31 -98 31h-238l62 407h438v-139h-317z" />
    <glyph glyph-name="six.numr" horiz-adv-x="677" 
d="M537 1556l-162 -215q110 -12 184 -89t74 -191q0 -123 -85 -202t-208 -79t-208 79t-85 202q0 103 64 182l239 313h187zM340 918q58 0 102 38q45 39 45 107q0 67 -45 106t-102 39q-59 0 -104 -39q-46 -40 -46 -106q0 -67 46 -107q44 -38 104 -38z" />
    <glyph glyph-name="seven.numr" horiz-adv-x="595" 
d="M575 1556v-24l-327 -741h-170l291 626h-355v139h561z" />
    <glyph glyph-name="eight.numr" horiz-adv-x="708" 
d="M498 1198q145 -51 145 -194q0 -96 -79 -159q-80 -63 -210 -63q-127 0 -208 63q-80 62 -80 159q0 145 145 194q-117 50 -117 170q0 89 76 149t186 60q111 0 186 -60q74 -59 74 -149q0 -121 -118 -170zM354 1460q-53 0 -86 -29q-35 -30 -35 -79q0 -43 35 -73q34 -30 86 -30
q49 0 84 29q36 29 37 74q0 52 -34 80t-87 28zM354 907q54 0 91 32q36 31 36 83q0 49 -35 82q-34 33 -92 33q-56 0 -93 -32q-36 -31 -36 -83t37 -83q38 -32 92 -32z" />
    <glyph glyph-name="nine.numr" horiz-adv-x="677" 
d="M633 1296q0 -105 -68 -184l-235 -311h-187l160 215q-110 12 -183 89q-73 78 -73 191q0 123 85 202t208 79t208 -79t85 -202zM190 1294q0 -66 46 -106q45 -39 104 -39q57 0 102 39t45 106q0 68 -45 107t-102 39q-59 0 -104 -39q-46 -40 -46 -107z" />
    <glyph glyph-name="backslash.case" horiz-adv-x="804" 
d="M752 0h-211l-486 1556h209z" />
    <glyph glyph-name="periodcentered.case" horiz-adv-x="452" 
d="M227 895q59 0 96 -39q37 -38 37 -92q0 -55 -37 -92t-96 -37q-58 0 -96 37q-39 38 -39 92q0 53 39 92t96 39z" />
    <glyph glyph-name="bullet.case" horiz-adv-x="839" 
d="M420 1094q138 0 233 -95t95 -223q0 -134 -94 -225q-93 -90 -234 -90q-142 0 -235 90t-93 225q0 129 94 223q95 95 234 95z" />
    <glyph glyph-name="colon.case" horiz-adv-x="452" 
d="M227 1225q58 0 96 -38q37 -37 37 -91q0 -55 -37 -92t-96 -37q-58 0 -96 37q-39 38 -39 92t39 91q40 38 96 38zM227 555q59 0 96 -39q37 -38 37 -92q0 -55 -37 -92t-96 -37q-58 0 -96 37q-39 38 -39 92q0 53 39 92t96 39z" />
    <glyph glyph-name="exclamdown.case" horiz-adv-x="571" 
d="M285 1305q-59 0 -96 38t-37 93t37 92t96 37q56 0 96 -38q39 -37 39 -91t-39 -93q-38 -38 -96 -38zM170 72l8 999h217l8 -999v-72h-233v72z" />
    <glyph glyph-name="questiondown.case" horiz-adv-x="1081" 
d="M571 1305q-58 0 -96 38q-39 39 -39 93t39 92q38 37 96 37q59 0 96 -37q38 -38 38 -92q0 -53 -38 -93q-37 -38 -96 -38zM827 426l203 -39q-11 -180 -142 -297q-132 -117 -345 -117q-209 0 -342 123t-133 322q0 180 110 287q111 108 293 126v240h197v-405h-123
q-115 0 -192 -72t-77 -180q0 -110 75 -180q74 -70 192 -70q122 0 197 69t87 193z" />
    <glyph glyph-name="semicolon.case" horiz-adv-x="514" 
d="M287 1225q56 0 96 -38q39 -37 39 -91t-39 -92q-38 -37 -96 -37q-59 0 -96 37t-37 92q0 54 37 91q38 38 96 38zM188 -270h-161l129 544h247v-6z" />
    <glyph glyph-name="slash.case" horiz-adv-x="907" 
d="M289 0h-193l520 1556h193z" />
    <glyph glyph-name="braceleft.case" horiz-adv-x="874" 
d="M487 1253v-223q0 -92 -35 -158q-36 -68 -100 -98q64 -30 100 -98q35 -66 35 -158v-213q0 -54 31 -88q30 -33 82 -33h176v-184h-217q-126 0 -202 82t-76 215v197q0 154 -160 184l-53 16v162l53 14q160 35 160 183v209q0 135 75 214q76 80 203 80h217v-184h-176
q-52 0 -82 -33q-31 -34 -31 -86z" />
    <glyph glyph-name="braceright.case" horiz-adv-x="874" 
d="M807 856v-162l-53 -16q-160 -30 -160 -184v-197q0 -132 -77 -215q-76 -82 -202 -82h-217v184h176q52 0 82 33q31 34 31 88v213q0 90 36 158t99 98q-63 30 -99 98q-36 67 -36 158v223q0 52 -31 86q-30 33 -82 33h-176v184h217q127 0 203 -80t76 -214v-209q0 -148 160 -183
z" />
    <glyph glyph-name="bracketleft.case" horiz-adv-x="815" 
d="M369 1372v-1188h350v-184h-557v1556h557v-184h-350z" />
    <glyph glyph-name="bracketright.case" horiz-adv-x="815" 
d="M653 1556v-1556h-555v184h351v1188h-351v184h555z" />
    <glyph glyph-name="parenleft.case" horiz-adv-x="677" 
d="M449 1585l133 -129q-254 -314 -254 -682q0 -364 254 -678l-133 -129q-351 343 -351 807q0 468 351 811z" />
    <glyph glyph-name="parenright.case" horiz-adv-x="677" 
d="M98 1456l133 129q351 -345 351 -811q0 -462 -351 -807l-133 129q254 319 254 678q0 363 -254 682z" />
    <glyph glyph-name="emdash.case" horiz-adv-x="2560" 
d="M2437 694h-2314v164h2314v-164z" />
    <glyph glyph-name="endash.case" horiz-adv-x="1269" 
d="M1147 694h-1024v164h1024v-164z" />
    <glyph glyph-name="hyphen.case" horiz-adv-x="913" 
d="M791 684h-668v184h668v-184z" />
    <glyph glyph-name="guillemotleft.case" horiz-adv-x="907" 
d="M51 782l240 365h213l-240 -365l240 -364h-213zM406 782l239 365h213l-240 -365l240 -364h-213z" />
    <glyph glyph-name="guillemotright.case" horiz-adv-x="907" 
d="M51 418l240 364l-240 365h213l240 -365l-240 -364h-213zM403 418l240 364l-240 365h213l240 -365l-240 -364h-213z" />
    <glyph glyph-name="guilsinglleft.case" horiz-adv-x="555" 
d="M51 782l240 365h213l-240 -365l240 -364h-213z" />
    <glyph glyph-name="guilsinglright.case" horiz-adv-x="555" 
d="M51 418l240 364l-240 365h213l240 -365l-240 -364h-213z" />
    <glyph glyph-name="cent.tf" 
d="M698 164q111 0 193 58q81 58 119 171l198 -51q-40 -143 -148 -238t-259 -122v-248h-211v250q-191 35 -315 178q-123 142 -123 346q0 205 123 347q125 145 315 179v256h211v-254q145 -27 255 -122q108 -93 152 -234l-204 -59q-30 111 -113 172q-81 59 -193 59
q-150 0 -244 -97q-96 -99 -96 -247q0 -150 96 -248q94 -96 244 -96z" />
    <glyph glyph-name="dollar.tf" 
d="M1253 424q0 -182 -119 -300q-118 -117 -321 -144v-299h-215v296q-208 22 -348 140t-164 313l238 49q24 -151 129 -231q106 -80 264 -80q147 0 231 66t84 184q0 81 -50 134t-159 83l-319 90q-74 20 -134 48q-52 24 -118 75q-59 45 -91 121q-32 75 -32 168q0 180 115 300
q113 118 313 142v252h215v-254q184 -27 304 -138t155 -288l-223 -47q-24 131 -119 208t-232 77q-127 0 -210 -65q-82 -64 -82 -179q0 -82 49 -130q51 -50 151 -79l353 -102q335 -100 335 -410z" />
    <glyph glyph-name="Euro.tf" 
d="M743 178q235 0 336 361l219 -41q-52 -238 -200 -383q-147 -144 -355 -144q-216 0 -365 146t-198 407h-119v160h99q-2 40 -2 94q0 48 2 84h-99v158h117q46 268 197 417q149 148 368 148q209 0 355 -145q148 -146 200 -391l-219 -39q-39 177 -128 274q-89 96 -208 96
q-125 0 -214 -93t-126 -267h482l-39 -158h-463q-2 -36 -2 -84q0 -27 1 -48t1 -46h428l-35 -160h-370q40 -171 126 -257q89 -89 211 -89z" />
    <glyph glyph-name="florin.tf" 
d="M1053 1395q-85 0 -143 -52q-56 -50 -74 -145l-78 -401h338v-201h-375l-119 -616q-29 -147 -126 -232q-98 -86 -238 -86q-98 0 -187 53l70 172q60 -24 119 -24q57 0 99 33q41 33 52 84l119 616h-240v201h277l78 401q34 178 150 283q114 104 290 104q134 0 235 -74
l-73 -174q-78 58 -174 58z" />
    <glyph glyph-name="sterling.tf" 
d="M1290 199v-199h-1214v135l190 43v420h-190v199h190v276q0 229 141 370q140 140 369 140q227 0 364 -137q135 -135 146 -369l-199 -35q-33 330 -311 330q-129 0 -210 -82t-81 -217v-276h467v-199h-467v-399h805z" />
    <glyph glyph-name="yen.tf" 
d="M846 696h334v-164h-387v-114h387v-164h-387v-254h-222v254h-378v164h378v114h-378v164h325l-483 860h244l403 -757l401 757h254z" />
    <glyph glyph-name="approxequal.tf" 
d="M1147 909v-180q-79 -41 -205 -41q-106 0 -244 50t-237 50q-163 0 -236 -63v178q79 64 236 64q100 0 245 -51q142 -50 238 -50q135 0 203 43zM1147 598v-180q-82 -43 -205 -43q-107 0 -244 51q-136 51 -237 51q-163 0 -236 -63v178q78 63 236 63q103 0 245 -50t238 -50
q135 0 203 43z" />
    <glyph glyph-name="divide.tf" 
d="M686 1104q57 0 96 -39t39 -92q0 -55 -39 -92q-38 -37 -96 -37t-95 37q-38 38 -38 92q0 52 38 92q37 39 95 39zM1147 530h-922v189h922v-189zM686 377q57 0 96 -39t39 -92q0 -54 -39 -91q-40 -38 -96 -38q-58 0 -95 37q-38 38 -38 92q0 52 38 92q37 39 95 39z" />
    <glyph glyph-name="equal.tf" 
d="M1147 760h-922v186h922v-186zM1147 365h-922v186h922v-186z" />
    <glyph glyph-name="greater.tf" 
d="M844 662l-512 192v227l764 -311v-221l-764 -307v223z" />
    <glyph glyph-name="greaterequal.tf" 
d="M834 774l-494 146v219l727 -262v-203l-727 -262v213zM1065 176h-725v186h725v-186z" />
    <glyph glyph-name="less.tf" 
d="M1040 242l-764 307v221l764 311v-227l-512 -192l512 -197v-223z" />
    <glyph glyph-name="lessequal.tf" 
d="M1026 412l-729 262v203l729 262v-219l-494 -146l494 -149v-213zM1026 362v-186h-727v186h727z" />
    <glyph glyph-name="minus.tf" 
d="M1147 530h-922v189h922v-189z" />
    <glyph glyph-name="multiply.tf" 
d="M844 625l282 -281l-135 -137l-282 282l-285 -282l-135 137l282 281l-282 282l135 135l285 -282l282 282l135 -135z" />
    <glyph glyph-name="notequal.tf" 
d="M842 760l-119 -209h424v-186h-531l-94 -164h-194l94 164h-197v186h303l121 209h-424v186h531l98 170h193l-99 -170h199v-186h-305z" />
    <glyph glyph-name="plus.tf" 
d="M1147 530h-367v-372h-188v372h-367v189h367v373h188v-373h367v-189z" />
    <glyph glyph-name="plusminus.tf" 
d="M1147 860v-186h-367v-322h-188v322h-367v186h367v352h188v-352h367zM225 186h922v-186h-922v186z" />
    <glyph glyph-name="bar.case" horiz-adv-x="528" 
d="M369 0h-207v1556h207v-1556z" />
    <glyph glyph-name="at.case" horiz-adv-x="2113" 
d="M1477 1219v-676q0 -64 43 -104t106 -40q113 0 170 125q57 124 57 291q0 335 -226 549q-227 215 -560 215q-346 0 -577 -232q-230 -231 -230 -581t226 -580q226 -231 554 -231q137 0 286 44q145 43 257 126l72 -115q-113 -88 -282 -138q-168 -50 -329 -50q-386 0 -656 267
q-269 266 -269 675q0 408 271 676t677 268q389 0 659 -252q271 -253 271 -631q0 -97 -22 -196q-21 -96 -64 -177q-45 -85 -122 -133q-79 -49 -181 -49q-100 0 -169 45t-93 125q-117 -159 -334 -159q-194 0 -325 132q-130 131 -130 343q0 215 131 349t322 134q204 0 323 -152
v132h144zM1030 424q125 0 214 92t89 242q0 148 -89 240t-214 92t-214 -91t-89 -241t89 -242t214 -92z" />
    <glyph glyph-name="caron.alt" horiz-adv-x="1228" 
d="M700 950h-168v381h216z" />
    </font>
</defs>
</svg>
