<?xml version="1.0" standalone="no"?>
<!DOCTYPE svg PUBLIC "-//W3C//DTD SVG 1.1//EN" "http://www.w3.org/Graphics/SVG/1.1/DTD/svg11.dtd" >
<svg xmlns="http://www.w3.org/2000/svg" xmlns:xlink="http://www.w3.org/1999/xlink" version="1.1">
<metadata>
Created by FontForge 20170731 at Thu Jan 13 15:26:20 2022
 By Aleksey,,,
Copyright (c) 2014 by Rene' Bieder. All rights reserved.
</metadata>
<defs>
<font id="GalanoClassic-Heavy" horiz-adv-x="1372" >
  <font-face 
    font-family="GalanoClassic-Heavy"
    font-weight="400"
    font-stretch="normal"
    units-per-em="2048"
    panose-1="0 0 9 0 0 0 0 0 0 0"
    ascent="1483"
    descent="-565"
    x-height="1036"
    cap-height="1556"
    bbox="-334 -635 5966 2175"
    underline-thickness="102"
    underline-position="-204"
    unicode-range="U+0020-FB02"
  />
<missing-glyph horiz-adv-x="1748" 
d="M874 1569q328 0 561 -228q232 -228 232 -567q0 -341 -232 -566q-231 -224 -561 -224t-562 225t-232 565q0 339 232 567q233 228 562 228zM874 1452q-276 0 -472 -194q-195 -194 -195 -484q0 -288 195 -482q196 -194 472 -194q277 0 473 194q195 193 195 482
q0 290 -195 484q-196 194 -473 194zM1196 928q0 -91 -60 -154t-163 -86v-63h-228v209h101q51 0 83 21t32 58t-25 60q-23 22 -68 22q-44 0 -70 -26q-28 -28 -32 -70l-231 45q21 111 110 182q90 72 242 72q137 0 223 -78t86 -192zM856 578q52 0 90 -38q37 -37 37 -87
q0 -51 -36 -88t-91 -37t-92 37t-37 88q0 49 38 87t91 38z" />
    <glyph glyph-name="fi" unicode="fi" horiz-adv-x="1355" 
d="M1274 1038v-1038h-412v719h-301v-719h-411v719h-150v319h150v138q0 220 159 357q158 136 410 136q198 0 403 -123l-151 -303q-99 84 -219 84q-86 0 -138 -48q-53 -48 -53 -128v-113h713z" />
    <glyph glyph-name="fl" unicode="fl" horiz-adv-x="1425" 
d="M1315 1638v-1638h-412v719h-342v-719h-411v719h-150v319h150v138q0 220 159 357q158 136 410 136q100 0 205 -31h391zM903 1038v252q-71 37 -151 37q-86 0 -138 -48q-53 -48 -53 -128v-113h342z" />
    <glyph glyph-name="f_f" unicode="ff" horiz-adv-x="1572" 
d="M1274 1038h301v-319h-301v-719h-412v719h-301v-719h-411v719h-150v319h150v138q0 220 159 357q158 136 410 136q165 0 323 -78q112 78 267 78q160 0 276 -100l-131 -266q-35 24 -80 24q-46 0 -74 -28q-26 -26 -26 -72v-189zM862 1038v187q0 41 6 82q-50 20 -116 20
q-86 0 -138 -48q-53 -48 -53 -128v-113h301z" />
    <glyph glyph-name="f_f_i" unicode="ffi" horiz-adv-x="2074" 
d="M1993 1038v-1038h-412v719h-301v-719h-412v719h-307v-719h-411v719h-150v319h150v138q0 220 159 357q158 136 410 136q179 0 360 -98q144 98 359 98q198 0 403 -123l-151 -303q-99 84 -220 84q-84 0 -137 -48t-53 -128v-113h713zM868 1038v138q0 56 15 124
q-61 27 -131 27q-86 0 -138 -48q-53 -48 -53 -128v-113h307z" />
    <glyph glyph-name="f_f_l" unicode="ffl" horiz-adv-x="2138" 
d="M2030 1638v-1638h-414v719h-342v-719h-412v719h-301v-719h-411v719h-150v319h150v138q0 220 159 357q158 136 410 136q176 0 356 -96q151 96 357 96q100 0 204 -31h394zM862 1038v138q0 59 17 127q-63 24 -127 24q-86 0 -138 -48q-53 -48 -53 -128v-113h301zM1616 1038
v252q-71 37 -150 37q-84 0 -138 -48t-54 -128v-113h342z" />
    <glyph glyph-name=".notdef" horiz-adv-x="1748" 
d="M874 1569q328 0 561 -228q232 -228 232 -567q0 -341 -232 -566q-231 -224 -561 -224t-562 225t-232 565q0 339 232 567q233 228 562 228zM874 1452q-276 0 -472 -194q-195 -194 -195 -484q0 -288 195 -482q196 -194 472 -194q277 0 473 194q195 193 195 482
q0 290 -195 484q-196 194 -473 194zM1196 928q0 -91 -60 -154t-163 -86v-63h-228v209h101q51 0 83 21t32 58t-25 60q-23 22 -68 22q-44 0 -70 -26q-28 -28 -32 -70l-231 45q21 111 110 182q90 72 242 72q137 0 223 -78t86 -192zM856 578q52 0 90 -38q37 -37 37 -87
q0 -51 -36 -88t-91 -37t-92 37t-37 88q0 49 38 87t91 38z" />
    <glyph glyph-name=".null" horiz-adv-x="0" 
 />
    <glyph glyph-name="nonmarkingreturn" horiz-adv-x="681" 
 />
    <glyph glyph-name="space" unicode=" " horiz-adv-x="442" 
 />
    <glyph glyph-name="exclam" unicode="!" horiz-adv-x="636" 
d="M553 1556v-65l-37 -944h-395l-37 944v65h469zM330 420q94 0 160 -64q65 -63 65 -151q0 -93 -63 -154q-62 -61 -162 -61t-162 61q-64 62 -64 154q0 87 64 151t162 64z" />
    <glyph glyph-name="quotedbl" unicode="&#x22;" horiz-adv-x="989" 
d="M86 860v696h360v-696h-360zM543 860v696h362v-696h-362z" />
    <glyph glyph-name="numbersign" unicode="#" horiz-adv-x="1513" 
d="M1208 907l-61 -282h203l-78 -293h-191l-71 -332h-320l72 332h-201l-72 -332h-319l72 332h-201l78 293h186l62 282h-203l78 291h188l78 358h319l-77 -358h202l78 358h320l-78 -358h201l-78 -291h-187zM889 907h-203l-61 -282h200z" />
    <glyph glyph-name="dollar" unicode="$" horiz-adv-x="1386" 
d="M1335 475q0 -192 -111 -312t-290 -167v-315h-381v303q-205 38 -339 159q-137 124 -161 306l430 88q45 -207 238 -207q77 0 120 30q44 30 44 84q0 86 -103 115l-284 84q-195 57 -297 163q-101 106 -101 279q0 193 111 316q112 124 301 164v266h381v-266q175 -38 287 -147
q113 -110 143 -279l-412 -84q-39 188 -213 188q-62 0 -105 -31q-42 -30 -42 -82q0 -81 86 -110l287 -92q213 -72 312 -174t99 -279z" />
    <glyph glyph-name="percent" unicode="%" horiz-adv-x="1867" 
d="M457 1587q156 0 266 -100q111 -101 111 -260q0 -157 -111 -258q-112 -101 -266 -101q-156 0 -268 101q-111 101 -111 258q0 159 111 260q110 100 268 100zM340 0l971 1556h213l-973 -1556h-211zM455 1358q-51 0 -91 -36t-40 -93q0 -59 40 -96t91 -37t91 37t40 96
q0 57 -40 93q-41 36 -91 36zM1415 690q156 0 266 -100q111 -100 111 -262q0 -158 -111 -258q-112 -101 -266 -101q-155 0 -267 101t-112 258q0 161 112 262q110 100 267 100zM1413 461q-51 0 -91 -36t-40 -95q0 -60 40 -96q39 -35 91 -35t91 35q40 36 40 96q0 59 -40 95
t-91 36z" />
    <glyph glyph-name="ampersand" unicode="&#x26;" horiz-adv-x="1562" 
d="M1321 -55l-193 168q-207 -144 -479 -144q-265 0 -431 129q-167 129 -167 342q0 264 268 408q-112 146 -112 303q0 193 144 315q143 121 372 121q236 0 366 -118q129 -118 158 -310l-373 -69q-18 180 -149 180q-54 0 -89 -35q-34 -34 -34 -90q0 -61 39 -121t133 -145
l275 -238q12 60 12 131v80h381v-80q0 -228 -86 -397l200 -174zM680 289q91 0 180 55l-315 275q-84 -66 -84 -148q0 -80 58 -131q59 -51 161 -51z" />
    <glyph glyph-name="quotesingle" unicode="'" horiz-adv-x="532" 
d="M86 860v696h360v-696h-360z" />
    <glyph glyph-name="parenleft" unicode="(" horiz-adv-x="819" 
d="M483 770q0 -208 70 -363q68 -150 211 -339l-291 -256q-197 220 -306 445q-110 228 -110 513t110 513q108 224 306 443l277 -258q-74 -106 -104 -154q-35 -57 -81 -151q-42 -86 -62 -186q-20 -98 -20 -207z" />
    <glyph glyph-name="parenright" unicode=")" horiz-adv-x="819" 
d="M70 1468l276 258q196 -217 307 -442t111 -514t-111 -514q-112 -226 -307 -444l-289 256q141 188 209 339q70 155 70 363q0 109 -20 207q-20 100 -62 186q-46 94 -81 151q-39 62 -103 154z" />
    <glyph glyph-name="asterisk" unicode="*" horiz-adv-x="913" 
d="M662 1182l188 -109l-102 -178l-181 102v-194h-221v198l-182 -104l-103 176l189 109l-189 106l103 178l182 -104v194h221v-192l181 102l102 -176z" />
    <glyph glyph-name="plus" unicode="+" horiz-adv-x="1153" 
d="M1081 461h-348v-350h-313v350h-348v311h348v350h313v-350h348v-311z" />
    <glyph glyph-name="comma" unicode="," horiz-adv-x="579" 
d="M301 -270h-315l118 651h439v-10z" />
    <glyph glyph-name="hyphen" unicode="-" horiz-adv-x="933" 
d="M811 391h-688v340h688v-340z" />
    <glyph glyph-name="period" unicode="." horiz-adv-x="530" 
d="M264 438q96 0 162 -67q66 -68 66 -158q0 -96 -65 -161q-64 -64 -163 -64t-162 64t-63 161q0 94 64 159q65 66 161 66z" />
    <glyph glyph-name="slash" unicode="/" horiz-adv-x="942" 
d="M895 1698l-590 -1864h-260l590 1864h260z" />
    <glyph glyph-name="zero" unicode="0" horiz-adv-x="1738" 
d="M870 1585q342 0 578 -234q235 -234 235 -575q0 -339 -235 -573q-236 -234 -578 -234t-577 234q-236 234 -236 573q0 341 236 575q235 234 577 234zM870 346q168 0 278 123q109 122 109 307q0 184 -109 308t-278 124q-167 0 -278 -124t-111 -308t111 -307t278 -123z" />
    <glyph glyph-name="one" unicode="1" horiz-adv-x="960" 
d="M834 1556v-1556h-435v1042l-342 -102v395l699 221h78z" />
    <glyph glyph-name="two" unicode="2" horiz-adv-x="1325" 
d="M1255 375v-375h-1202h-4v125l619 682q135 147 135 260q0 72 -43 115t-115 43q-172 0 -190 -224l-406 74q15 230 181 371q167 141 425 141q263 0 421 -142q159 -143 159 -376q0 -45 -6 -85q-5 -37 -23 -80q-17 -41 -28 -65q-12 -25 -42 -66q-35 -47 -44 -58
q-14 -16 -56 -65q-31 -36 -55 -62l-180 -213h454z" />
    <glyph glyph-name="three" unicode="3" horiz-adv-x="1323" 
d="M1278 1417l-352 -454q168 -43 255 -158q87 -114 87 -289q0 -249 -166 -399t-434 -150q-260 0 -436 141q-174 140 -191 388l416 77q2 -125 66 -185q65 -60 153 -60q82 0 138 49t56 129q0 79 -55 125q-56 47 -145 47h-324l-20 51l325 459h-520l8 368h1139v-139z" />
    <glyph glyph-name="four" unicode="4" horiz-adv-x="1531" 
d="M1530 236h-250v-236h-406v236h-837v243l964 1077h279v-989h250v-331zM874 567v369l-327 -369h327z" />
    <glyph glyph-name="five" unicode="5" horiz-adv-x="1318" 
d="M522 1010h189q270 0 415 -134q144 -134 144 -366q0 -243 -166 -393t-434 -150q-256 0 -432 141q-177 142 -193 388l414 77q5 -125 67 -186t150 -61q81 0 140 50q58 49 58 130q0 79 -55 125q-56 47 -147 47h-574l121 878h981v-374h-653z" />
    <glyph glyph-name="six" unicode="6" horiz-adv-x="1353" 
d="M1092 1556l-304 -452q219 -34 365 -189q143 -152 143 -376q0 -251 -180 -410q-181 -160 -440 -160q-257 0 -438 160t-181 410q0 179 97 317l477 700h461zM676 332q91 0 154 59q65 60 65 148q0 89 -65 151t-154 62q-88 0 -153 -62q-64 -61 -64 -151q0 -88 64 -148
q63 -59 153 -59z" />
    <glyph glyph-name="seven" unicode="7" horiz-adv-x="1306" 
d="M1262 1556v-126l-623 -1430h-475l532 1182h-633v374h1199z" />
    <glyph glyph-name="eight" unicode="8" horiz-adv-x="1361" 
d="M1036 809q254 -108 254 -379q0 -201 -169 -331t-441 -130q-270 0 -439 130t-169 331q0 271 252 379q-199 107 -199 330q0 187 161 318q160 130 394 130q236 0 397 -130q162 -131 162 -318q0 -229 -203 -330zM680 1262q-67 0 -117 -44q-49 -43 -49 -112q0 -70 49 -115
t117 -45q70 0 120 45t50 115q0 69 -50 113q-49 43 -120 43zM680 311q74 0 126 45t52 119q0 71 -53 118q-52 46 -125 46q-70 0 -122 -46t-52 -118q0 -74 51 -119t123 -45z" />
    <glyph glyph-name="nine" unicode="9" horiz-adv-x="1366" 
d="M1296 1018q0 -182 -96 -318l-477 -700h-461l303 453q-219 34 -364 188q-144 153 -144 377q0 249 181 409t440 160q257 0 438 -160q180 -159 180 -409zM459 1018q0 -91 64 -152t155 -61q88 0 152 61q65 62 65 152q0 87 -65 147q-64 60 -152 60q-90 0 -155 -60
q-64 -60 -64 -147z" />
    <glyph glyph-name="colon" unicode=":" horiz-adv-x="530" 
d="M264 1051q96 0 162 -68q66 -67 66 -160q0 -96 -65 -159q-66 -64 -163 -64q-98 0 -162 64q-63 63 -63 159q0 93 64 160q65 68 161 68zM264 438q96 0 162 -67q66 -68 66 -158q0 -96 -65 -161q-64 -64 -163 -64t-162 64t-63 161q0 94 64 159q65 66 161 66z" />
    <glyph glyph-name="semicolon" unicode=";" horiz-adv-x="604" 
d="M338 1051q98 0 163 -68q64 -67 64 -160q0 -96 -64 -159q-66 -64 -163 -64q-98 0 -162 64q-63 63 -63 159q0 93 64 160q65 68 161 68zM301 -270h-315l118 651h439v-10z" />
    <glyph glyph-name="less" unicode="&#x3c;" horiz-adv-x="1013" 
d="M932 193l-869 290v365l869 293v-359l-473 -114l473 -119v-356z" />
    <glyph glyph-name="equal" unicode="=" horiz-adv-x="1153" 
d="M1081 684h-1009v295h1009v-295zM1081 279h-1009v294h1009v-294z" />
    <glyph glyph-name="greater" unicode="&#x3e;" horiz-adv-x="1013" 
d="M557 668l-475 114v359l870 -293v-365l-870 -290v356z" />
    <glyph glyph-name="question" unicode="?" horiz-adv-x="1138" 
d="M590 1587q234 0 376 -125q140 -124 140 -313q0 -147 -89 -248q-87 -99 -249 -143v-211h-410l2 467h177q69 0 111 30t42 82q0 44 -31 75q-30 30 -79 30t-82 -34q-34 -35 -41 -91l-412 84q35 176 178 286q144 111 367 111zM557 420q95 0 161 -64q64 -63 64 -151
q0 -93 -63 -154q-62 -61 -162 -61t-162 61q-63 61 -63 154q0 88 63 151q64 64 162 64z" />
    <glyph glyph-name="at" unicode="@" horiz-adv-x="2054" 
d="M1509 1077v-641q0 -46 28 -71t73 -25q78 0 123 110t45 261q0 311 -208 503q-210 193 -517 193q-333 0 -553 -220q-221 -221 -221 -556q0 -334 217 -547q218 -213 548 -213q284 0 529 188l96 -153q-253 -213 -622 -213q-423 0 -692 262t-269 668q0 416 278 689
q277 273 689 273q387 0 651 -246t264 -626q0 -101 -21 -192q-20 -87 -70 -176q-48 -86 -139 -135q-92 -50 -216 -50q-220 0 -287 153q-101 -147 -301 -147q-182 0 -303 127t-121 342q0 212 122 339q122 126 304 126q169 0 270 -113v90h303zM1030 436q74 0 125 57t51 144
q0 88 -51 142q-52 55 -125 55t-125 -55q-51 -54 -51 -142q0 -87 51 -144t125 -57z" />
    <glyph glyph-name="A" unicode="A" horiz-adv-x="1720" 
d="M1720 0h-454l-90 201h-629l-92 -201h-455l743 1556h232zM1018 551l-156 346l-157 -346h313z" />
    <glyph glyph-name="B" unicode="B" horiz-adv-x="1519" 
d="M1227 844q246 -117 246 -391q0 -209 -142 -331t-385 -122h-837v1556h765q234 0 364 -109t130 -300q0 -189 -141 -303zM532 1223v-269h254q68 0 109 39t41 103q0 57 -41 92t-109 35h-254zM532 334h324q84 0 135 45t51 121q0 70 -51 114q-50 43 -135 43h-324v-323z" />
    <glyph glyph-name="C" unicode="C" horiz-adv-x="1726" 
d="M881 346q145 0 250 90q104 89 133 242l405 -119q-69 -264 -287 -428t-501 -164q-345 0 -585 235q-239 234 -239 574q0 341 239 575q238 234 585 234q285 0 500 -163q216 -164 288 -425l-405 -123q-28 151 -134 243q-104 91 -249 91q-172 0 -286 -124t-114 -308t114 -307
t286 -123z" />
    <glyph glyph-name="D" unicode="D" horiz-adv-x="1697" 
d="M109 1556h710q371 0 597 -214t226 -564t-226 -564t-597 -214h-710v1556zM532 360h277q190 0 300 115t110 303q0 190 -110 305t-300 115h-277v-838z" />
    <glyph glyph-name="E" unicode="E" horiz-adv-x="1345" 
d="M1280 360v-360h-1171v1556h1157v-360h-734v-254h682v-334h-682v-248h748z" />
    <glyph glyph-name="F" unicode="F" horiz-adv-x="1306" 
d="M532 1198v-274h682v-361h-682v-563h-423v1556h1163v-358h-740z" />
    <glyph glyph-name="G" unicode="G" horiz-adv-x="1759" 
d="M776 913h918q10 -87 10 -137q0 -359 -227 -583q-229 -226 -586 -226q-352 0 -593 235t-241 574q0 340 241 575q240 234 591 234q274 0 480 -128q205 -127 282 -349l-439 -104q-88 204 -323 204q-177 0 -291 -124q-115 -126 -115 -308q0 -183 116 -307q115 -123 294 -123
q266 0 362 225h-479v342z" />
    <glyph glyph-name="H" unicode="H" horiz-adv-x="1634" 
d="M1526 1556v-1556h-424v604h-570v-604h-423v1556h423v-591h570v591h424z" />
    <glyph glyph-name="I" unicode="I" horiz-adv-x="643" 
d="M532 0h-423v1556h423v-1556z" />
    <glyph glyph-name="J" unicode="J" horiz-adv-x="1413" 
d="M1319 1556v-981q0 -274 -179 -441t-470 -167q-271 0 -441 146q-169 145 -202 393l419 82q24 -244 224 -244q99 0 161 64t62 167v981h426z" />
    <glyph glyph-name="K" unicode="K" horiz-adv-x="1624" 
d="M1102 0l-570 657v-657h-423v1556h423v-675l549 675h523l-641 -778l677 -778h-538z" />
    <glyph glyph-name="L" unicode="L" horiz-adv-x="1327" 
d="M1280 360v-360h-1171v1556h423v-1196h748z" />
    <glyph glyph-name="M" unicode="M" horiz-adv-x="1916" 
d="M1808 1556v-1556h-413v782l-369 -407h-133l-371 407v-782h-413v1556h264l585 -657l588 657h262z" />
    <glyph glyph-name="N" unicode="N" horiz-adv-x="1720" 
d="M1612 1556v-1556h-240l-840 799v-799h-423v1556h241l838 -821v821h424z" />
    <glyph glyph-name="O" unicode="O" horiz-adv-x="1794" 
d="M897 1585q349 0 594 -235q246 -236 246 -574q0 -339 -246 -573t-594 -234t-594 234t-246 573q0 338 246 574q245 235 594 235zM897 346q174 0 294 124t120 306t-120 307t-294 125q-173 0 -295 -125q-121 -124 -121 -307q0 -182 121 -306t295 -124z" />
    <glyph glyph-name="P" unicode="P" horiz-adv-x="1398" 
d="M109 1556h704q253 0 402 -136q151 -137 151 -353q0 -218 -151 -355t-402 -137h-281v-575h-423v1556zM532 922h240q85 0 132 41q46 40 46 104q0 62 -46 102q-47 41 -132 41h-240v-288z" />
    <glyph glyph-name="Q" unicode="Q" horiz-adv-x="1794" 
d="M1372 -438l-291 426q-95 -19 -184 -19q-348 0 -594 234t-246 573q0 338 246 574q245 235 594 235t594 -235q246 -236 246 -574q0 -178 -74 -335q-73 -155 -205 -269l432 -610h-518zM481 776q0 -182 121 -306t295 -124t294 124t120 306t-120 307t-294 125
q-173 0 -295 -125q-121 -124 -121 -307z" />
    <glyph glyph-name="R" unicode="R" horiz-adv-x="1617" 
d="M1675 0h-512l-479 575h-152v-575h-423v1556h704q253 0 402 -136q151 -137 151 -353q0 -143 -64 -250q-65 -109 -184 -172zM532 922h240q85 0 132 41q46 40 46 104q0 62 -46 102q-47 41 -132 41h-240v-288z" />
    <glyph glyph-name="S" unicode="S" horiz-adv-x="1386" 
d="M702 1585q250 0 417 -116q167 -115 204 -330l-412 -84q-39 188 -213 188q-62 0 -105 -31q-42 -30 -42 -82q0 -81 86 -110l287 -92q213 -72 312 -174t99 -279q0 -131 -54 -231t-146 -159q-91 -58 -200 -87q-110 -29 -224 -29q-260 0 -445 131q-184 130 -213 349l430 88
q45 -207 238 -207q77 0 120 30q44 30 44 84q0 86 -103 115l-284 84q-195 57 -297 163q-101 106 -101 279q0 239 168 369q169 131 434 131z" />
    <glyph glyph-name="T" unicode="T" horiz-adv-x="1413" 
d="M1372 1198h-454v-1198h-424v1198h-453v358h1331v-358z" />
    <glyph glyph-name="U" unicode="U" horiz-adv-x="1615" 
d="M1522 1556v-856q0 -335 -194 -534t-511 -199q-327 0 -525 198t-198 535v856h424v-837q0 -167 81 -262t218 -95q126 0 203 95q76 94 76 262v837h426z" />
    <glyph glyph-name="V" unicode="V" horiz-adv-x="1712" 
d="M1708 1556l-702 -1556h-299l-703 1556h471l381 -858l381 858h471z" />
    <glyph glyph-name="W" unicode="W" horiz-adv-x="2293" 
d="M2290 1556l-500 -1556h-354l-289 803l-291 -803h-352l-500 1556h447l241 -792l307 792h293l307 -792l242 792h449z" />
    <glyph glyph-name="X" unicode="X" horiz-adv-x="1679" 
d="M1186 0l-346 516l-348 -516h-488l522 778l-503 778h489l328 -507l327 507h490l-506 -778l524 -778h-489z" />
    <glyph glyph-name="Y" unicode="Y" horiz-adv-x="1658" 
d="M1042 481v-481h-442v477l-596 1079h463l364 -657l361 657h465z" />
    <glyph glyph-name="Z" unicode="Z" horiz-adv-x="1460" 
d="M1397 356v-356h-1329v123l696 1077h-676v356h1286v-122l-661 -1078h684z" />
    <glyph glyph-name="bracketleft" unicode="[" horiz-adv-x="880" 
d="M479 1374v-1239h336v-323h-706v1886h706v-324h-336z" />
    <glyph glyph-name="backslash" unicode="\" horiz-adv-x="942" 
d="M895 -166h-258l-590 1864h258z" />
    <glyph glyph-name="bracketright" unicode="]" horiz-adv-x="856" 
d="M745 1698v-1886h-706v323h338v1239h-338v324h706z" />
    <glyph glyph-name="asciicircum" unicode="^" horiz-adv-x="1011" 
d="M371 1016h-346l325 540h312l325 -540h-346l-135 237z" />
    <glyph glyph-name="underscore" unicode="_" horiz-adv-x="1105" 
d="M1065 -389h-1024v274h1024v-274z" />
    <glyph glyph-name="grave" unicode="`" horiz-adv-x="1228" 
d="M721 1497l160 -336h-385l-271 336h496z" />
    <glyph glyph-name="a" unicode="a" horiz-adv-x="1241" 
d="M1192 311l29 -272q-106 -68 -220 -68q-188 0 -264 133q-127 -135 -340 -135q-165 0 -268 89q-102 88 -102 231q0 322 460 352l209 16v17q0 45 -27 72q-28 28 -73 28q-93 0 -109 -98l-387 82q40 151 169 231q128 80 327 80q237 0 370 -115q132 -114 132 -325v-275
q0 -47 30 -47q28 0 64 4zM561 260q58 0 96 34q39 34 39 97v53l-108 -14q-119 -17 -119 -90q0 -37 27 -58q28 -22 65 -22z" />
    <glyph glyph-name="b" unicode="b" horiz-adv-x="1351" 
d="M815 1069q219 0 360 -153q140 -152 140 -398q0 -244 -140 -396q-141 -153 -360 -153q-181 0 -293 115v-84h-413v1638h413v-684q112 115 293 115zM713 311q85 0 138 60q52 59 52 147q0 90 -52 149q-53 60 -138 60q-82 0 -136 -60q-55 -61 -55 -149q0 -85 55 -146t136 -61z
" />
    <glyph glyph-name="c" unicode="c" horiz-adv-x="1198" 
d="M788 467l377 -68q-30 -192 -184 -312q-152 -118 -363 -118q-241 0 -412 154q-169 153 -169 395t169 396q170 155 412 155q207 0 360 -117q152 -116 185 -307l-377 -74q-15 75 -59 114q-44 40 -109 40q-82 0 -134 -60q-52 -59 -52 -147q0 -87 52 -146q53 -61 134 -61
q63 0 110 41q44 39 60 115z" />
    <glyph glyph-name="d" unicode="d" horiz-adv-x="1351" 
d="M1241 1638v-1638h-412v84q-112 -115 -292 -115q-219 0 -360 153q-140 152 -140 396q0 246 140 398q141 153 360 153q180 0 292 -115v684h412zM637 311q84 0 138 60t54 147q0 89 -54 149t-138 60q-83 0 -136 -60q-52 -59 -52 -149q0 -88 52 -147q53 -60 136 -60z" />
    <glyph glyph-name="e" unicode="e" horiz-adv-x="1187" 
d="M1153 487v-67h-715q38 -141 170 -141q121 0 166 94l365 -72q-62 -164 -200 -248t-331 -84q-237 0 -405 154q-166 153 -166 395t165 396q166 155 404 155q246 0 396 -153q151 -154 151 -429zM606 754q-122 0 -166 -119h320q-18 57 -60 88t-94 31z" />
    <glyph glyph-name="f" unicode="f" horiz-adv-x="860" 
d="M561 1038h301v-319h-301v-719h-411v719h-150v319h150v187q0 199 125 321q126 123 321 123q155 0 276 -100l-131 -266q-34 24 -79 24q-46 0 -74 -28q-27 -27 -27 -72v-189z" />
    <glyph glyph-name="g" unicode="g" horiz-adv-x="1288" 
d="M1292 719h-151q8 -37 8 -82q0 -189 -147 -301q-148 -113 -369 -113q-125 0 -236 39q-10 -16 -10 -37q0 -32 28 -52q26 -19 74 -19h326q217 0 336 -93q117 -91 117 -274q0 -197 -166 -309q-167 -113 -455 -113h-92q-242 0 -382 94t-140 250q0 162 137 236
q-127 91 -127 231q0 159 137 248q-63 92 -63 213q0 193 143 312q144 120 373 120q112 0 207 -31h452v-319zM633 512q58 0 102 38q43 37 43 95t-43 95q-44 38 -102 38q-59 0 -103 -38q-43 -37 -43 -95t43 -95q44 -38 103 -38zM774 -154h-229q-55 0 -78 -23q-25 -25 -25 -56
q0 -80 123 -80h125q158 0 158 90q0 31 -21 50q-20 19 -53 19z" />
    <glyph glyph-name="h" unicode="h" horiz-adv-x="1298" 
d="M831 1069q172 0 277 -114q104 -113 104 -310v-645h-411v557q0 66 -37 106q-36 39 -94 39q-68 0 -108 -49t-40 -139v-514h-413v1638h413v-708q127 139 309 139z" />
    <glyph glyph-name="i" unicode="i" horiz-adv-x="618" 
d="M309 1567q99 0 163 -66q65 -67 65 -155q0 -95 -65 -158q-66 -64 -163 -64q-100 0 -164 64q-63 63 -63 158q0 92 64 156q65 65 163 65zM516 0h-414v1038h414v-1038z" />
    <glyph glyph-name="j" unicode="j" horiz-adv-x="641" 
d="M332 1567q98 0 163 -66q64 -65 64 -155q0 -95 -64 -158q-66 -64 -163 -64q-100 0 -164 64t-64 158q0 91 65 156t163 65zM-59 -543l51 289q49 -10 65 -10q34 0 52 22t18 62v1218h412v-1253q0 -169 -102 -274t-269 -105q-120 0 -227 51z" />
    <glyph glyph-name="k" unicode="k" horiz-adv-x="1335" 
d="M827 0l-305 356v-356h-413v1638h413v-964l295 364h498l-414 -520l440 -518h-514z" />
    <glyph glyph-name="l" unicode="l" horiz-adv-x="630" 
d="M522 0h-413v1638h413v-1638z" />
    <glyph glyph-name="m" unicode="m" horiz-adv-x="1955" 
d="M1485 1069q171 0 279 -117t108 -305v-647h-412v559q0 64 -37 104q-36 39 -92 39q-65 0 -106 -50t-41 -132v-520h-412v559q0 63 -38 104q-36 39 -95 39q-65 0 -104 -50t-39 -132v-520h-412v1038h412v-108q108 139 301 139q234 0 333 -184q127 184 355 184z" />
    <glyph glyph-name="n" unicode="n" horiz-adv-x="1298" 
d="M829 1069q174 0 279 -114q104 -113 104 -310v-645h-411v557q0 65 -36 105t-93 40q-70 0 -110 -49t-40 -139v-514h-413v1038h413v-108q127 139 307 139z" />
    <glyph glyph-name="o" unicode="o" horiz-adv-x="1261" 
d="M631 1069q247 0 422 -155q174 -154 174 -396t-174 -395q-175 -154 -422 -154t-421 154q-173 153 -173 395q0 241 173 396t421 155zM631 311q85 0 143 61q57 60 57 146q0 89 -57 149t-143 60t-143 -60q-56 -59 -56 -149q0 -87 56 -146q58 -61 143 -61z" />
    <glyph glyph-name="p" unicode="p" horiz-adv-x="1351" 
d="M815 1069q219 0 360 -153q140 -152 140 -398q0 -244 -140 -396q-141 -153 -360 -153q-181 0 -293 115v-657h-413v1611h413v-84q112 115 293 115zM713 311q85 0 138 60q52 59 52 147q0 90 -52 149q-53 60 -138 60q-82 0 -136 -60q-55 -61 -55 -149q0 -85 55 -146t136 -61z
" />
    <glyph glyph-name="q" unicode="q" horiz-adv-x="1351" 
d="M1241 1038v-1611h-412v657q-112 -115 -292 -115q-219 0 -360 153q-140 152 -140 396q0 246 140 398q141 153 360 153q180 0 292 -115v84h412zM637 311q84 0 138 60t54 147q0 89 -54 149t-138 60q-83 0 -136 -60q-52 -59 -52 -149q0 -88 52 -147q53 -60 136 -60z" />
    <glyph glyph-name="r" unicode="r" horiz-adv-x="944" 
d="M858 1051q29 0 76 -7l-14 -430h-62q-163 0 -249 -67q-87 -67 -87 -238v-309h-413v1038h413v-178q122 191 336 191z" />
    <glyph glyph-name="s" unicode="s" horiz-adv-x="1042" 
d="M35 266l391 78q24 -92 119 -92q69 0 69 53q0 39 -61 49l-209 39q-295 51 -295 307q0 174 129 272q128 97 340 97q185 0 310 -77q124 -76 159 -208l-364 -71q-6 31 -35 62q-28 30 -78 30q-66 0 -66 -49q0 -40 50 -51l221 -46q149 -29 221 -116q74 -89 74 -213
q0 -177 -134 -269t-350 -92q-187 0 -323 74q-135 74 -168 223z" />
    <glyph glyph-name="t" unicode="t" horiz-adv-x="882" 
d="M561 719v-305q0 -44 27 -68t69 -24q72 0 121 28l74 -305q-143 -76 -301 -76q-182 0 -292 108q-109 108 -109 285v357h-158v319h158v320l411 117v-437h320v-319h-320z" />
    <glyph glyph-name="u" unicode="u" horiz-adv-x="1298" 
d="M1190 1036v-1038h-412v111q-125 -142 -309 -142q-174 0 -279 114q-104 113 -104 310v645h412v-557q0 -63 36 -104t93 -41q70 0 110 49q41 50 41 139v514h412z" />
    <glyph glyph-name="v" unicode="v" horiz-adv-x="1249" 
d="M1247 1038l-477 -1038h-291l-475 1038h428l193 -473l192 473h430z" />
    <glyph glyph-name="w" unicode="w" horiz-adv-x="1718" 
d="M1714 1038l-403 -1038h-277l-174 420l-176 -420h-276l-404 1038h406l153 -471l182 471h228l182 -473l154 473h405z" />
    <glyph glyph-name="x" unicode="x" horiz-adv-x="1282" 
d="M928 498l336 -498h-459l-164 252l-164 -252h-459l336 498l-336 540h459l164 -276l164 276h459z" />
    <glyph glyph-name="y" unicode="y" horiz-adv-x="1298" 
d="M1294 1038l-696 -1611h-430l266 612l-430 999h428l209 -522l225 522h428z" />
    <glyph glyph-name="z" unicode="z" horiz-adv-x="1089" 
d="M1055 903l-422 -584h395v-319h-962v143l411 576h-405v319h983v-135z" />
    <glyph glyph-name="braceleft" unicode="{" horiz-adv-x="851" 
d="M580 1313v-318q0 -179 -113 -241q113 -57 113 -240v-307q0 -33 19 -52q20 -20 52 -20h135v-323h-264q-140 0 -226 83q-85 82 -85 218v346q0 97 -92 121l-78 20v309l78 19q92 24 92 125v344q0 136 85 218q86 83 226 83h264v-324h-139q-67 0 -67 -61z" />
    <glyph glyph-name="bar" unicode="|" horiz-adv-x="587" 
d="M479 -166h-370v1864h370v-1864z" />
    <glyph glyph-name="braceright" unicode="}" horiz-adv-x="851" 
d="M811 909v-309l-78 -20q-92 -24 -92 -121v-346q0 -136 -85 -218q-86 -83 -226 -83h-264v323h133q71 0 71 72v307q0 183 113 240q-113 62 -113 241v318q0 61 -65 61h-139v324h264q140 0 226 -83q85 -82 85 -218v-344q0 -101 92 -125z" />
    <glyph glyph-name="asciitilde" unicode="~" horiz-adv-x="1058" 
d="M356 461h-290q0 196 88 291q88 96 194 96q85 0 173 -42t110 -42q33 0 51 18t16 49h295q0 -196 -90 -292q-91 -97 -198 -97q-82 0 -169 39t-110 39q-52 0 -70 -59z" />
    <glyph glyph-name="exclamdown" unicode="&#xa1;" horiz-adv-x="636" 
d="M330 635q-99 0 -162 64q-64 66 -64 153q0 92 64 154q62 61 162 61t162 -61q63 -62 63 -154q0 -88 -65 -153q-64 -64 -160 -64zM84 -436l37 946h395l37 -946v-66h-469v66z" />
    <glyph glyph-name="cent" unicode="&#xa2;" horiz-adv-x="1200" 
d="M788 467l377 -68q-23 -147 -118 -251q-96 -105 -238 -150v-248h-379v246q-177 53 -285 192q-108 140 -108 330q0 192 108 332q108 139 285 192v248h379v-250q141 -44 234 -147q97 -107 120 -248l-377 -74q-15 75 -59 114q-44 40 -109 40q-82 0 -134 -60q-52 -59 -52 -147
q0 -87 52 -146q53 -61 134 -61q63 0 110 41q44 39 60 115z" />
    <glyph glyph-name="sterling" unicode="&#xa3;" horiz-adv-x="1347" 
d="M1313 352v-352h-1247v270l141 43v232h-141v327h141v207q0 228 151 367t398 139q233 0 385 -134q151 -133 168 -349l-398 -70q-17 191 -155 191q-62 0 -101 -39t-39 -105v-207h414v-327h-414v-193h697z" />
    <glyph glyph-name="yen" unicode="&#xa5;" horiz-adv-x="1552" 
d="M1085 735h281v-223h-387v-98h387v-226h-387v-188h-424v188h-367v226h367v98h-367v223h265l-428 821h436l307 -628l303 628h457z" />
    <glyph glyph-name="section" unicode="&#xa7;" horiz-adv-x="1288" 
d="M1243 606q0 -218 -188 -334q63 -90 63 -211q0 -192 -135 -291q-136 -100 -348 -100q-241 0 -376 112q-133 111 -148 302l338 63q10 -182 165 -182q55 0 92 29q35 28 35 78q0 72 -108 112l-291 109q-301 112 -301 358q0 214 188 332q-63 90 -63 211q0 193 135 292t350 99
q230 0 363 -109t145 -290l-342 -64q-7 168 -147 168q-56 0 -91 -28q-36 -28 -36 -78q0 -70 108 -113l291 -106q301 -111 301 -359zM799 457l28 -13q64 46 64 109q0 41 -24 68q-23 26 -83 53l-299 127l-28 12q-64 -46 -64 -111q0 -40 24 -67q23 -26 83 -53z" />
    <glyph glyph-name="dieresis" unicode="&#xa8;" horiz-adv-x="1228" 
d="M360 1536q93 0 154 -61t61 -148q0 -89 -60 -149t-155 -60q-93 0 -153 60t-60 149q0 85 61 148q60 61 152 61zM868 1536q93 0 154 -61t61 -148q0 -89 -60 -149t-155 -60q-93 0 -153 60t-60 149q0 85 61 148q60 61 152 61z" />
    <glyph glyph-name="copyright" unicode="&#xa9;" horiz-adv-x="1710" 
d="M856 1585q332 0 564 -231q233 -231 233 -582q0 -347 -233 -575q-232 -228 -564 -228q-334 0 -566 228q-233 228 -233 575q0 348 234 581q233 232 565 232zM856 1466q-278 0 -472 -197q-196 -199 -196 -495q0 -294 195 -489t473 -195q276 0 471 195t195 489
q0 297 -195 495q-194 197 -471 197zM872 1208q166 0 279 -95q114 -95 121 -234l-228 -41q-12 66 -61 103q-50 38 -119 38q-80 0 -135 -57q-55 -56 -55 -148q0 -91 55 -147q56 -58 135 -58q70 0 119 40t61 114l232 -41q-10 -150 -124 -247q-113 -97 -280 -97q-184 0 -312 122
t-128 314q0 190 128 312t312 122z" />
    <glyph glyph-name="ordfeminine" unicode="&#xaa;" horiz-adv-x="925" 
d="M893 1004l22 -205q-76 -49 -165 -49q-131 0 -191 90q-89 -92 -242 -92q-133 0 -212 63q-78 62 -78 176q0 228 350 266l145 15v2q0 32 -21 55t-59 23q-70 0 -94 -68l-278 53q33 113 126 173q95 61 236 61q177 0 283 -82t106 -248v-201q0 -35 25 -35q11 0 22 1q22 2 25 2z
M414 946q51 0 80 29q28 28 28 76v47l-106 -13q-84 -11 -84 -71q0 -68 82 -68z" />
    <glyph glyph-name="guillemotleft" unicode="&#xab;" horiz-adv-x="1136" 
d="M51 537l195 364h368l-194 -364l194 -365h-368zM522 537l195 364h368l-194 -364l194 -365h-368z" />
    <glyph glyph-name="registered" unicode="&#xae;" horiz-adv-x="956" 
d="M477 1587q173 0 291 -117q119 -117 119 -294q0 -176 -119 -293q-118 -117 -291 -117t-291 117t-118 293q0 177 118 294t291 117zM477 862q131 0 222 90q92 90 92 224q0 136 -92 228q-91 91 -222 91q-127 0 -218 -91t-91 -228q0 -134 91 -224t218 -90zM657 1245
q0 -85 -73 -119l92 -120h-129l-78 104h-35v-104h-110v366h188q70 0 108 -36q37 -36 37 -91zM434 1200h70q51 0 51 43q0 39 -51 39h-70v-82z" />
    <glyph glyph-name="macron" unicode="&#xaf;" horiz-adv-x="1228" 
d="M975 1163h-721v303h721v-303z" />
    <glyph glyph-name="degree" unicode="&#xb0;" horiz-adv-x="911" 
d="M457 1587q142 0 240 -91q100 -92 100 -236q0 -145 -100 -237q-98 -91 -240 -91q-143 0 -241 91q-99 91 -99 237q0 144 99 236q98 91 241 91zM457 1141q45 0 80 33q34 33 34 86t-34 86q-33 32 -80 32t-80 -32q-35 -33 -35 -86t35 -86t80 -33z" />
    <glyph glyph-name="plusminus" unicode="&#xb1;" horiz-adv-x="1153" 
d="M1081 1006v-312h-348v-272h-313v272h-348v312h348v313h313v-313h348zM72 313h1009v-313h-1009v313z" />
    <glyph glyph-name="twosuperior" unicode="&#xb2;" horiz-adv-x="747" 
d="M520 1188h164v-219h-621v41l265 323q104 126 104 172q0 25 -15 40q-16 16 -42 16q-27 0 -49 -25q-21 -24 -21 -74l-246 45q0 121 87 198q88 77 229 77q138 0 226 -74q87 -74 87 -203q0 -33 -7 -61q-8 -33 -31 -70q-29 -48 -32 -53q-7 -13 -47 -66q-39 -51 -41 -53z" />
    <glyph glyph-name="threesuperior" unicode="&#xb3;" horiz-adv-x="727" 
d="M694 1696l-159 -230q167 -55 167 -237q0 -129 -90 -207t-235 -78q-143 0 -237 74q-93 74 -105 190l246 39q15 -86 92 -86q36 0 58 19t22 47q0 29 -21 47t-59 18h-180l-9 25l138 215h-250l6 225h616v-61z" />
    <glyph glyph-name="acute" unicode="&#xb4;" horiz-adv-x="1228" 
d="M713 1161h-385l159 336h496z" />
    <glyph glyph-name="paragraph" unicode="&#xb6;" horiz-adv-x="1296" 
d="M831 0h-260v797h-102q-185 0 -307 105q-121 105 -121 282q0 181 107 276q108 96 292 96h391v-1556zM1186 0h-258v1556h258v-1556z" />
    <glyph glyph-name="periodcentered" unicode="&#xb7;" horiz-adv-x="530" 
d="M264 768q96 0 162 -68t66 -157q0 -96 -65 -161t-163 -65q-99 0 -162 65q-63 64 -63 161q0 93 64 158q65 67 161 67z" />
    <glyph glyph-name="cedilla" unicode="&#xb8;" horiz-adv-x="1228" 
d="M530 0h291l-84 -328h-422z" />
    <glyph glyph-name="onesuperior" unicode="&#xb9;" horiz-adv-x="514" 
d="M440 967h-262v450l-166 -55v260l373 139h55v-794z" />
    <glyph glyph-name="ordmasculine" unicode="&#xba;" horiz-adv-x="913" 
d="M457 1569q183 0 307 -115q123 -114 123 -295q0 -178 -123 -292q-122 -113 -307 -113q-186 0 -306 113q-122 114 -122 292q0 181 122 295q123 115 306 115zM457 993q73 0 123 48q49 48 49 118q0 74 -49 123t-123 49t-122 -49q-48 -50 -48 -123q0 -70 48 -118t122 -48z" />
    <glyph glyph-name="guillemotright" unicode="&#xbb;" horiz-adv-x="1136" 
d="M51 172l195 365l-195 364h369l194 -364l-194 -365h-369zM522 172l195 365l-195 364h369l194 -364l-194 -365h-369z" />
    <glyph glyph-name="onequarter" unicode="&#xbc;" horiz-adv-x="1488" 
d="M178 1212l-166 -55v260l373 139h55v-794h-262v450zM1321 1556l-971 -1556h-213l973 1556h211zM1466 111h-98v-111h-246v111h-403v141l485 543h164v-484h98v-200zM1122 311v146l-123 -146h123z" />
    <glyph glyph-name="onehalf" unicode="&#xbd;" horiz-adv-x="1544" 
d="M178 1212l-166 -55v260l373 139h55v-794h-262v450zM1300 1556l-970 -1556h-213l973 1556h210zM1317 219h164v-221h-621v43l264 324q105 127 105 172q0 24 -16 40q-15 15 -42 15t-49 -25q-20 -23 -20 -73l-246 45q0 121 87 197q88 77 228 77q139 0 227 -74q87 -74 87 -202
q0 -34 -7 -62q-8 -31 -31 -69q-27 -43 -32 -54q-5 -10 -47 -65q-11 -14 -21.5 -28t-14.5 -20l-5 -6z" />
    <glyph glyph-name="threequarters" unicode="&#xbe;" horiz-adv-x="1634" 
d="M705 1028q0 -128 -91 -207q-90 -78 -235 -78q-143 0 -237 74q-93 73 -105 191l246 39q15 -86 92 -86q37 0 58 18q22 19 22 47q0 29 -21 47q-22 19 -59 19h-180l-9 24l138 215h-250l6 225h616v-61l-159 -229q168 -56 168 -238zM1470 1556l-970 -1556h-213l970 1556h213z
M1614 111h-98v-111h-246v111h-404v141l486 543h164v-484h98v-200zM1270 311v146l-123 -146h123z" />
    <glyph glyph-name="questiondown" unicode="&#xbf;" horiz-adv-x="1138" 
d="M594 637q-97 0 -162 64t-65 153q0 93 64 154t163 61q100 0 162 -61q63 -62 63 -154q0 -89 -64 -153t-161 -64zM692 -47l414 -84q-35 -175 -178 -287t-369 -112q-236 0 -375 124t-139 314q0 147 89 248q87 99 249 143v213h408v-469h-177q-68 0 -111 -31q-42 -30 -42 -82
q0 -42 31 -73t77 -31q51 0 84 34q33 35 39 93z" />
    <glyph glyph-name="Agrave" unicode="&#xc0;" horiz-adv-x="1720" 
d="M684 1681l-270 336h495l160 -336h-385zM1720 0h-454l-90 201h-629l-92 -201h-455l743 1556h232zM1018 551l-156 346l-157 -346h313z" />
    <glyph glyph-name="Aacute" unicode="&#xc1;" horiz-adv-x="1720" 
d="M1051 1681h-385l159 336h496zM1720 0h-454l-90 201h-629l-92 -201h-455l743 1556h232zM1018 551l-156 346l-157 -346h313z" />
    <glyph glyph-name="Acircumflex" unicode="&#xc2;" horiz-adv-x="1720" 
d="M795 1679h-389l241 338h428l242 -338h-387l-68 97zM1720 0h-454l-90 201h-629l-92 -201h-455l743 1556h232zM1018 551l-156 346l-157 -346h313z" />
    <glyph glyph-name="Atilde" unicode="&#xc3;" horiz-adv-x="1720" 
d="M776 1747q-30 0 -45 -12q-13 -11 -29 -47h-225q0 171 74 274q73 102 186 102q72 0 142 -35q72 -36 102 -36q32 0 46 13q17 15 28 50h225q0 -171 -74 -274t-188 -103q-69 0 -137 34t-105 34zM1720 0h-454l-90 201h-629l-92 -201h-455l743 1556h232zM1018 551l-156 346
l-157 -346h313z" />
    <glyph glyph-name="Adieresis" unicode="&#xc4;" horiz-adv-x="1720" 
d="M608 1638q-93 0 -153 60t-60 149q0 85 61 148q60 61 152 61q93 0 154 -61t61 -148q0 -89 -60 -149t-155 -60zM1116 1638q-93 0 -153 60t-60 149q0 85 61 148q60 61 152 61q93 0 154 -61t61 -148q0 -89 -60 -149t-155 -60zM1720 0h-454l-90 201h-629l-92 -201h-455
l743 1556h232zM1018 551l-156 346l-157 -346h313z" />
    <glyph glyph-name="Aring" unicode="&#xc5;" horiz-adv-x="1720" 
d="M862 1630q-119 0 -199 79q-81 79 -81 194q0 113 81 193q80 79 199 79q120 0 200 -79q81 -80 81 -193q0 -115 -81 -194q-80 -79 -200 -79zM862 1982q-34 0 -57 -23q-25 -25 -25 -56q0 -30 25 -55q23 -23 57 -23q35 0 58 23q24 24 24 55q0 32 -24 56q-23 23 -58 23zM1720 0
h-454l-90 201h-629l-92 -201h-455l743 1556h232zM1018 551l-156 346l-157 -346h313z" />
    <glyph glyph-name="AE" unicode="&#xc6;" horiz-adv-x="2385" 
d="M2347 360v-360h-1169v201h-543l-135 -201h-500l1090 1556h1245v-360h-736v-254h682v-334h-682v-248h748zM1178 551v455l-308 -455h308z" />
    <glyph glyph-name="Ccedilla" unicode="&#xc7;" horiz-adv-x="1726" 
d="M881 346q144 0 249 90t134 242l405 -119q-61 -233 -242 -391q-181 -159 -423 -193l-78 -303h-422l205 312q-285 57 -468 277q-184 222 -184 515q0 341 239 575q238 234 585 234q285 0 500 -163q216 -164 288 -425l-405 -123q-28 151 -134 243q-104 91 -249 91
q-172 0 -286 -124t-114 -308t114 -307t286 -123z" />
    <glyph glyph-name="Egrave" unicode="&#xc8;" horiz-adv-x="1345" 
d="M516 1681l-270 336h495l160 -336h-385zM1280 360v-360h-1171v1556h1157v-360h-734v-254h682v-334h-682v-248h748z" />
    <glyph glyph-name="Eacute" unicode="&#xc9;" horiz-adv-x="1345" 
d="M881 1681h-385l159 336h496zM1280 360v-360h-1171v1556h1157v-360h-734v-254h682v-334h-682v-248h748z" />
    <glyph glyph-name="Ecircumflex" unicode="&#xca;" horiz-adv-x="1345" 
d="M627 1679h-389l241 338h428l242 -338h-387l-68 97zM1280 360v-360h-1171v1556h1157v-360h-734v-254h682v-334h-682v-248h748z" />
    <glyph glyph-name="Edieresis" unicode="&#xcb;" horiz-adv-x="1345" 
d="M438 1638q-93 0 -153 60t-60 149q0 85 61 148q60 61 152 61q93 0 154 -61t61 -148q0 -89 -60 -149t-155 -60zM946 1638q-93 0 -153 60t-60 149q0 85 61 148q60 61 152 61q93 0 154 -61t61 -148q0 -89 -60 -149t-155 -60zM1280 360v-360h-1171v1556h1157v-360h-734v-254
h682v-334h-682v-248h748z" />
    <glyph glyph-name="Igrave" unicode="&#xcc;" horiz-adv-x="643" 
d="M371 2017l159 -336h-385l-270 336h496zM532 0h-423v1556h423v-1556z" />
    <glyph glyph-name="Iacute" unicode="&#xcd;" horiz-adv-x="643" 
d="M510 1681h-385l160 336h495zM532 0h-423v1556h423v-1556z" />
    <glyph glyph-name="Icircumflex" unicode="&#xce;" horiz-adv-x="643" 
d="M254 1679h-389l241 338h429l241 -338h-387l-67 97zM109 1556h423v-1556h-423v1556z" />
    <glyph glyph-name="Idieresis" unicode="&#xcf;" horiz-adv-x="643" 
d="M68 2056q92 0 153 -61q62 -62 62 -148q0 -88 -61 -149q-60 -60 -154 -60t-154 60q-59 59 -59 149q0 87 60 148t153 61zM575 2056q93 0 154 -61q62 -62 62 -148q0 -88 -61 -149q-60 -60 -155 -60q-93 0 -153 60t-60 149q0 85 61 148q60 61 152 61zM532 0h-423v1556h423
v-1556z" />
    <glyph glyph-name="Eth" unicode="&#xd0;" horiz-adv-x="1738" 
d="M150 1556h710q371 0 597 -214t226 -564t-226 -564t-597 -214h-710v594h-123v360h123v602zM573 360h277q190 0 300 115t110 303q0 190 -110 305t-300 115h-277v-244h224v-360h-224v-234z" />
    <glyph glyph-name="Ntilde" unicode="&#xd1;" horiz-adv-x="1720" 
d="M748 1747q-31 0 -46 -12q-12 -9 -28 -47h-225q0 173 73 274q73 102 187 102q71 0 141 -35q72 -36 102 -36q32 0 46 13q17 15 28 50h225q0 -173 -73 -274q-74 -103 -189 -103q-69 0 -137 34t-104 34zM1612 1556v-1556h-240l-840 799v-799h-423v1556h241l838 -821v821h424z
" />
    <glyph glyph-name="Ograve" unicode="&#xd2;" horiz-adv-x="1794" 
d="M719 1681l-270 336h495l160 -336h-385zM897 1585q349 0 594 -235q246 -236 246 -574q0 -339 -246 -573t-594 -234t-594 234t-246 573q0 338 246 574q245 235 594 235zM897 346q174 0 294 124t120 306t-120 307t-294 125q-173 0 -295 -125q-121 -124 -121 -307
q0 -182 121 -306t295 -124z" />
    <glyph glyph-name="Oacute" unicode="&#xd3;" horiz-adv-x="1794" 
d="M1085 1681h-385l160 336h496zM897 1585q349 0 594 -235q246 -236 246 -574q0 -339 -246 -573t-594 -234t-594 234t-246 573q0 338 246 574q245 235 594 235zM897 346q174 0 294 124t120 306t-120 307t-294 125q-173 0 -295 -125q-121 -124 -121 -307q0 -182 121 -306
t295 -124z" />
    <glyph glyph-name="Ocircumflex" unicode="&#xd4;" horiz-adv-x="1794" 
d="M829 1679h-389l242 338h428l242 -338h-387l-68 97zM897 1585q349 0 594 -235q246 -236 246 -574q0 -339 -246 -573t-594 -234t-594 234t-246 573q0 338 246 574q245 235 594 235zM897 346q174 0 294 124t120 306t-120 307t-294 125q-173 0 -295 -125q-121 -124 -121 -307
q0 -182 121 -306t295 -124z" />
    <glyph glyph-name="Otilde" unicode="&#xd5;" horiz-adv-x="1794" 
d="M811 1747q-30 0 -45 -12q-13 -11 -29 -47h-225q0 171 74 274q74 102 186 102q69 0 139 -35q72 -36 105 -36q32 0 46 13q17 15 28 50h225q0 -171 -74 -274t-188 -103q-70 0 -138 34t-104 34zM897 1585q349 0 594 -235q246 -236 246 -574q0 -339 -246 -573t-594 -234
t-594 234t-246 573q0 338 246 574q245 235 594 235zM897 346q174 0 294 124t120 306t-120 307t-294 125q-173 0 -295 -125q-121 -124 -121 -307q0 -182 121 -306t295 -124z" />
    <glyph glyph-name="Odieresis" unicode="&#xd6;" horiz-adv-x="1794" 
d="M643 1638q-94 0 -154 60q-59 59 -59 149q0 87 60 148t153 61t154 -61t61 -148q0 -89 -60 -149t-155 -60zM1151 1638q-94 0 -154 60q-59 59 -59 149q0 87 60 148t153 61t154 -61t61 -148q0 -89 -60 -149t-155 -60zM897 1585q349 0 594 -235q246 -236 246 -574
q0 -339 -246 -573t-594 -234t-594 234t-246 573q0 338 246 574q245 235 594 235zM897 346q174 0 294 124t120 306t-120 307t-294 125q-173 0 -295 -125q-121 -124 -121 -307q0 -182 121 -306t295 -124z" />
    <glyph glyph-name="multiply" unicode="&#xd7;" horiz-adv-x="1107" 
d="M772 616l264 -262l-217 -219l-264 264l-266 -264l-217 219l264 262l-264 263l217 219l266 -264l264 264l217 -219z" />
    <glyph glyph-name="Oslash" unicode="&#xd8;" horiz-adv-x="1759" 
d="M1653 1479l-137 -154q221 -232 221 -549q0 -339 -246 -573t-594 -234q-259 0 -471 137l-135 -151l-180 168l131 145q-185 221 -185 508q0 338 246 574q245 235 594 235q229 0 424 -108l152 170zM481 776q0 -102 41 -192l531 594q-69 30 -156 30q-173 0 -295 -125
q-121 -124 -121 -307zM897 346q174 0 294 124t120 306q0 135 -70 242l-551 -617q98 -55 207 -55z" />
    <glyph glyph-name="Ugrave" unicode="&#xd9;" horiz-adv-x="1615" 
d="M629 1681l-271 336h496l160 -336h-385zM1522 1556v-856q0 -335 -194 -534t-511 -199q-327 0 -525 198t-198 535v856h424v-837q0 -167 81 -262t218 -95q126 0 203 95q76 94 76 262v837h426z" />
    <glyph glyph-name="Uacute" unicode="&#xda;" horiz-adv-x="1615" 
d="M995 1681h-385l160 336h496zM1522 1556v-856q0 -335 -194 -534t-511 -199q-327 0 -525 198t-198 535v856h424v-837q0 -167 81 -262t218 -95q126 0 203 95q76 94 76 262v837h426z" />
    <glyph glyph-name="Ucircumflex" unicode="&#xdb;" horiz-adv-x="1615" 
d="M739 1679h-389l242 338h428l242 -338h-388l-67 97zM1522 1556v-856q0 -335 -194 -534t-511 -199q-327 0 -525 198t-198 535v856h424v-837q0 -167 81 -262t218 -95q126 0 203 95q76 94 76 262v837h426z" />
    <glyph glyph-name="Udieresis" unicode="&#xdc;" horiz-adv-x="1615" 
d="M553 1638q-94 0 -154 60q-59 59 -59 149q0 87 60 148t153 61t154 -61t61 -148q0 -89 -60 -149t-155 -60zM1061 1638q-94 0 -154 60q-59 59 -59 149q0 87 60 148t153 61q92 0 153 -61q62 -62 62 -148q0 -88 -61 -149q-60 -60 -154 -60zM1522 1556v-856q0 -335 -194 -534
t-511 -199q-327 0 -525 198t-198 535v856h424v-837q0 -167 81 -262t218 -95q126 0 203 95q76 94 76 262v837h426z" />
    <glyph glyph-name="Yacute" unicode="&#xdd;" horiz-adv-x="1658" 
d="M1018 1681h-385l160 336h495zM1042 481v-481h-442v477l-596 1079h463l364 -657l361 657h465z" />
    <glyph glyph-name="Thorn" unicode="&#xde;" horiz-adv-x="1366" 
d="M532 1268h285q233 0 373 -130q141 -130 141 -343q0 -220 -150 -352t-397 -132h-252v-311h-423v1556h423v-288zM532 637h224q74 0 117 40q45 42 45 107q0 63 -45 102q-44 38 -117 38h-224v-287z" />
    <glyph glyph-name="germandbls" unicode="&#xdf;" horiz-adv-x="1441" 
d="M1085 827q143 -33 230 -134q88 -101 88 -257q0 -203 -134 -334t-354 -131q-156 0 -297 27l41 338q107 -21 160 -21q76 0 123 44t47 114q0 74 -55 119q-56 45 -146 45h-102v328h59q67 0 111 41q43 40 43 102q0 67 -46 107t-122 40q-94 0 -151 -63q-58 -64 -58 -168v-1024
h-413v993q0 267 171 430q172 164 451 164q255 0 416 -121q162 -122 162 -315q0 -123 -63 -210t-161 -114z" />
    <glyph glyph-name="agrave" unicode="&#xe0;" horiz-adv-x="1241" 
d="M416 1171l-271 336h496l160 -336h-385zM1192 311l29 -272q-106 -68 -220 -68q-188 0 -264 133q-127 -135 -340 -135q-165 0 -268 89q-102 88 -102 231q0 322 460 352l209 16v17q0 45 -27 72q-28 28 -73 28q-93 0 -109 -98l-387 82q40 151 169 231q128 80 327 80
q237 0 370 -115q132 -114 132 -325v-275q0 -47 30 -47q28 0 64 4zM561 260q58 0 96 34q39 34 39 97v53l-108 -14q-119 -17 -119 -90q0 -37 27 -58q28 -22 65 -22z" />
    <glyph glyph-name="aacute" unicode="&#xe1;" horiz-adv-x="1241" 
d="M780 1171h-385l160 336h496zM1192 311l29 -272q-106 -68 -220 -68q-188 0 -264 133q-127 -135 -340 -135q-165 0 -268 89q-102 88 -102 231q0 322 460 352l209 16v17q0 45 -27 72q-28 28 -73 28q-93 0 -109 -98l-387 82q40 151 169 231q128 80 327 80q237 0 370 -115
q132 -114 132 -325v-275q0 -47 30 -47q28 0 64 4zM561 260q58 0 96 34q39 34 39 97v53l-108 -14q-119 -17 -119 -90q0 -37 27 -58q28 -22 65 -22z" />
    <glyph glyph-name="acircumflex" unicode="&#xe2;" horiz-adv-x="1241" 
d="M526 1169h-389l242 338h428l242 -338h-387l-68 97zM1192 311l29 -272q-106 -68 -220 -68q-188 0 -264 133q-127 -135 -340 -135q-165 0 -268 89q-102 88 -102 231q0 322 460 352l209 16v17q0 45 -27 72q-28 28 -73 28q-93 0 -109 -98l-387 82q40 151 169 231
q128 80 327 80q237 0 370 -115q132 -114 132 -325v-275q0 -47 30 -47q28 0 64 4zM561 260q58 0 96 34q39 34 39 97v53l-108 -14q-119 -17 -119 -90q0 -37 27 -58q28 -22 65 -22z" />
    <glyph glyph-name="atilde" unicode="&#xe3;" horiz-adv-x="1241" 
d="M506 1237q-30 0 -45 -12q-13 -11 -29 -47h-225q0 171 74 274q73 102 186 102q71 0 141 -35q72 -36 103 -36q32 0 46 13q15 14 27 50h226q0 -171 -74 -274t-188 -103q-70 0 -138 34t-104 34zM1192 311l29 -272q-106 -68 -220 -68q-188 0 -264 133q-127 -135 -340 -135
q-165 0 -268 89q-102 88 -102 231q0 322 460 352l209 16v17q0 45 -27 72q-28 28 -73 28q-93 0 -109 -98l-387 82q40 151 169 231q128 80 327 80q237 0 370 -115q132 -114 132 -325v-275q0 -47 30 -47q28 0 64 4zM561 260q58 0 96 34q39 34 39 97v53l-108 -14
q-119 -17 -119 -90q0 -37 27 -58q28 -22 65 -22z" />
    <glyph glyph-name="adieresis" unicode="&#xe4;" horiz-adv-x="1241" 
d="M338 1128q-94 0 -154 60q-59 59 -59 149q0 87 60 148t153 61t154 -61t61 -148q0 -89 -60 -149t-155 -60zM846 1128q-94 0 -154 60q-59 59 -59 149q0 87 60 148t153 61q92 0 153 -61q62 -62 62 -148q0 -88 -61 -149q-60 -60 -154 -60zM1192 311l29 -272q-106 -68 -220 -68
q-188 0 -264 133q-127 -135 -340 -135q-165 0 -268 89q-102 88 -102 231q0 322 460 352l209 16v17q0 45 -27 72q-28 28 -73 28q-93 0 -109 -98l-387 82q40 151 169 231q128 80 327 80q237 0 370 -115q132 -114 132 -325v-275q0 -47 30 -47q28 0 64 4zM561 260q58 0 96 34
q39 34 39 97v53l-108 -14q-119 -17 -119 -90q0 -37 27 -58q28 -22 65 -22z" />
    <glyph glyph-name="aring" unicode="&#xe5;" horiz-adv-x="1241" 
d="M592 1120q-120 0 -200 79q-81 79 -81 194q0 113 81 193q80 79 200 79t200 -79t80 -193q0 -115 -80 -194t-200 -79zM592 1473q-33 0 -57 -24q-25 -25 -25 -56q0 -30 25 -55q23 -23 57 -23t57 23q25 25 25 55q0 31 -25 56q-24 24 -57 24zM1192 311l29 -272
q-106 -68 -220 -68q-188 0 -264 133q-127 -135 -340 -135q-165 0 -268 89q-102 88 -102 231q0 322 460 352l209 16v17q0 45 -27 72q-28 28 -73 28q-93 0 -109 -98l-387 82q40 151 169 231q128 80 327 80q237 0 370 -115q132 -114 132 -325v-275q0 -47 30 -47q28 0 64 4z
M561 260q58 0 96 34q39 34 39 97v53l-108 -14q-119 -17 -119 -90q0 -37 27 -58q28 -22 65 -22z" />
    <glyph glyph-name="ae" unicode="&#xe6;" horiz-adv-x="1818" 
d="M1782 416h-713q38 -137 172 -137q113 0 156 96l354 -74q-40 -149 -181 -240q-143 -92 -331 -92q-204 0 -358 115q-153 -115 -402 -115q-217 0 -335 87q-117 86 -117 247q0 153 114 233q112 78 334 78h225v60q0 45 -28 72q-30 28 -76 28q-96 0 -111 -96l-383 78
q27 136 155 225q127 88 339 88q202 0 330 -86q140 86 311 86q244 0 395 -154q150 -153 150 -430v-69zM1067 614h319q-29 140 -151 140q-133 0 -168 -140zM698 410h-135q-114 0 -114 -78q0 -40 29 -62t77 -22q57 0 100 33t43 88v41z" />
    <glyph glyph-name="ccedilla" unicode="&#xe7;" horiz-adv-x="1198" 
d="M788 467l377 -68q-27 -161 -139 -272q-112 -110 -276 -145l-80 -310h-422l209 318q-185 46 -303 188q-117 141 -117 340q0 242 169 396q170 155 412 155q207 0 360 -117q152 -116 185 -307l-377 -74q-15 75 -59 114q-44 40 -109 40q-82 0 -134 -60q-52 -59 -52 -147
q0 -87 52 -146q53 -61 134 -61q63 0 110 41q44 39 60 115z" />
    <glyph glyph-name="egrave" unicode="&#xe8;" horiz-adv-x="1187" 
d="M432 1188l-270 336h495l160 -336h-385zM1153 487v-67h-715q38 -141 170 -141q121 0 166 94l365 -72q-62 -164 -200 -248t-331 -84q-237 0 -405 154q-166 153 -166 395t165 396q166 155 404 155q246 0 396 -153q151 -154 151 -429zM606 754q-122 0 -166 -119h320
q-18 57 -60 88t-94 31z" />
    <glyph glyph-name="eacute" unicode="&#xe9;" horiz-adv-x="1187" 
d="M797 1188h-385l159 336h496zM1153 487v-67h-715q38 -141 170 -141q121 0 166 94l365 -72q-62 -164 -200 -248t-331 -84q-237 0 -405 154q-166 153 -166 395t165 396q166 155 404 155q246 0 396 -153q151 -154 151 -429zM606 754q-122 0 -166 -119h320q-18 57 -60 88
t-94 31z" />
    <glyph glyph-name="ecircumflex" unicode="&#xea;" horiz-adv-x="1187" 
d="M543 1186h-389l241 338h428l242 -338h-387l-68 96zM1153 487v-67h-715q38 -141 170 -141q121 0 166 94l365 -72q-62 -164 -200 -248t-331 -84q-237 0 -405 154q-166 153 -166 395t165 396q166 155 404 155q246 0 396 -153q151 -154 151 -429zM606 754q-122 0 -166 -119
h320q-18 57 -60 88t-94 31z" />
    <glyph glyph-name="edieresis" unicode="&#xeb;" horiz-adv-x="1187" 
d="M354 1145q-94 0 -153 59q-60 60 -60 150q0 84 61 147q60 62 152 62t154 -62q61 -61 61 -147q0 -90 -60 -150q-59 -59 -155 -59zM862 1145q-94 0 -153 59q-60 60 -60 150q0 84 61 147q60 62 152 62t154 -62q61 -61 61 -147q0 -90 -60 -150q-59 -59 -155 -59zM1153 487v-67
h-715q38 -141 170 -141q121 0 166 94l365 -72q-62 -164 -200 -248t-331 -84q-237 0 -405 154q-166 153 -166 395t165 396q166 155 404 155q246 0 396 -153q151 -154 151 -429zM606 754q-122 0 -166 -119h320q-18 57 -60 88t-94 31z" />
    <glyph glyph-name="igrave" unicode="&#xec;" horiz-adv-x="612" 
d="M354 1524l160 -336h-385l-270 336h495zM512 0h-412v1038h412v-1038z" />
    <glyph glyph-name="iacute" unicode="&#xed;" horiz-adv-x="612" 
d="M496 1188h-385l159 336h496zM512 0h-412v1038h412v-1038z" />
    <glyph glyph-name="icircumflex" unicode="&#xee;" horiz-adv-x="612" 
d="M240 1186h-390l242 338h428l242 -338h-387l-68 96zM100 1038h412v-1038h-412v1038z" />
    <glyph glyph-name="idieresis" unicode="&#xef;" horiz-adv-x="612" 
d="M53 1563q92 0 154 -62q61 -61 61 -147q0 -90 -60 -150q-59 -59 -155 -59q-94 0 -153 59q-60 60 -60 150q0 84 61 147q60 62 152 62zM561 1563q92 0 154 -62q61 -61 61 -147q0 -90 -60 -150q-59 -59 -155 -59q-94 0 -153 59q-60 60 -60 150q0 84 61 147q60 62 152 62z
M512 0h-412v1038h412v-1038z" />
    <glyph glyph-name="eth" unicode="&#xf0;" horiz-adv-x="1243" 
d="M1016 1407l-101 -39q291 -405 291 -795q0 -163 -52 -283q-53 -124 -138 -189q-85 -66 -185 -99q-99 -33 -206 -33q-245 0 -417 154q-171 153 -171 403q0 234 150 388q150 155 368 155q80 0 143 -29q-63 96 -151 189l-264 -101l-72 166l186 72q-148 114 -327 195v77h606
q45 -30 121 -118l147 57zM623 311q83 0 136 64q52 62 52 147q0 86 -54 146q-53 59 -136 59t-136 -60q-53 -61 -53 -147q0 -88 54 -148q55 -61 137 -61z" />
    <glyph glyph-name="ntilde" unicode="&#xf1;" horiz-adv-x="1298" 
d="M578 1253q-31 0 -46 -12q-12 -9 -28 -47h-225q0 173 73 274q74 103 187 103q67 0 139 -36t104 -36t46 13q16 15 28 51h225q0 -174 -73 -275q-74 -102 -189 -102q-69 0 -137 34q-66 33 -104 33zM829 1069q174 0 279 -114q104 -113 104 -310v-645h-411v557q0 65 -36 105
t-93 40q-70 0 -110 -49t-40 -139v-514h-413v1038h413v-108q127 139 307 139z" />
    <glyph glyph-name="ograve" unicode="&#xf2;" horiz-adv-x="1261" 
d="M455 1188l-271 336h496l160 -336h-385zM631 1069q247 0 422 -155q174 -154 174 -396t-174 -395q-175 -154 -422 -154t-421 154q-173 153 -173 395q0 241 173 396t421 155zM631 311q85 0 143 61q57 60 57 146q0 89 -57 149t-143 60t-143 -60q-56 -59 -56 -149
q0 -87 56 -146q58 -61 143 -61z" />
    <glyph glyph-name="oacute" unicode="&#xf3;" horiz-adv-x="1261" 
d="M819 1188h-385l160 336h496zM631 1069q247 0 422 -155q174 -154 174 -396t-174 -395q-175 -154 -422 -154t-421 154q-173 153 -173 395q0 241 173 396t421 155zM631 311q85 0 143 61q57 60 57 146q0 89 -57 149t-143 60t-143 -60q-56 -59 -56 -149q0 -87 56 -146
q58 -61 143 -61z" />
    <glyph glyph-name="ocircumflex" unicode="&#xf4;" horiz-adv-x="1261" 
d="M563 1186h-389l242 338h428l241 -338h-387l-67 96zM631 1069q247 0 422 -155q174 -154 174 -396t-174 -395q-175 -154 -422 -154t-421 154q-173 153 -173 395q0 241 173 396t421 155zM631 311q85 0 143 61q57 60 57 146q0 89 -57 149t-143 60t-143 -60q-56 -59 -56 -149
q0 -87 56 -146q58 -61 143 -61z" />
    <glyph glyph-name="otilde" unicode="&#xf5;" horiz-adv-x="1261" 
d="M545 1253q-30 0 -45 -12q-13 -11 -29 -47h-225q0 173 73 274q74 103 187 103q67 0 139 -36t105 -36q32 0 46 13q15 14 27 51h226q0 -172 -74 -275q-73 -102 -189 -102q-69 0 -137 34q-66 33 -104 33zM631 1069q247 0 422 -155q174 -154 174 -396t-174 -395
q-175 -154 -422 -154t-421 154q-173 153 -173 395q0 241 173 396t421 155zM631 311q85 0 143 61q57 60 57 146q0 89 -57 149t-143 60t-143 -60q-56 -59 -56 -149q0 -87 56 -146q58 -61 143 -61z" />
    <glyph glyph-name="odieresis" unicode="&#xf6;" horiz-adv-x="1261" 
d="M377 1145q-95 0 -154 59t-59 150q0 86 60 147q60 62 153 62q91 0 153 -62t62 -147q0 -89 -61 -150q-59 -59 -154 -59zM885 1145q-95 0 -154 59t-59 150q0 86 60 147q60 62 153 62q91 0 153 -62t62 -147q0 -89 -61 -150q-59 -59 -154 -59zM631 1069q247 0 422 -155
q174 -154 174 -396t-174 -395q-175 -154 -422 -154t-421 154q-173 153 -173 395q0 241 173 396t421 155zM631 311q85 0 143 61q57 60 57 146q0 89 -57 149t-143 60t-143 -60q-56 -59 -56 -149q0 -87 56 -146q58 -61 143 -61z" />
    <glyph glyph-name="divide" unicode="&#xf7;" horiz-adv-x="1153" 
d="M575 1262q83 0 137 -57t54 -134q0 -81 -54 -133q-55 -53 -137 -53t-135 53t-53 133q0 76 53 134q52 57 135 57zM1081 512h-1009v311h1009v-311zM575 453q83 0 137 -57t54 -134q0 -80 -54 -133q-55 -53 -137 -53t-135 53t-53 133q0 76 53 134q52 57 135 57z" />
    <glyph glyph-name="oslash" unicode="&#xf8;" horiz-adv-x="1259" 
d="M1190 950l-86 -86q123 -150 123 -346q0 -242 -174 -395q-175 -154 -422 -154q-188 0 -334 88l-119 -118l-133 135l109 108q-117 144 -117 336q0 241 173 396t421 155q173 0 323 -84l101 100zM432 518q0 -27 6 -51l250 252q-26 8 -57 8q-86 0 -143 -60q-56 -59 -56 -149z
M631 311q85 0 143 61q57 60 57 146q0 38 -8 64l-260 -258q33 -13 68 -13z" />
    <glyph glyph-name="ugrave" unicode="&#xf9;" horiz-adv-x="1298" 
d="M459 1188l-271 336h496l160 -336h-385zM1190 1036v-1038h-412v111q-125 -142 -309 -142q-174 0 -279 114q-104 113 -104 310v645h412v-557q0 -63 36 -104t93 -41q70 0 110 49q41 50 41 139v514h412z" />
    <glyph glyph-name="uacute" unicode="&#xfa;" horiz-adv-x="1298" 
d="M825 1188h-385l160 336h496zM1190 1036v-1038h-412v111q-125 -142 -309 -142q-174 0 -279 114q-104 113 -104 310v645h412v-557q0 -63 36 -104t93 -41q70 0 110 49q41 50 41 139v514h412z" />
    <glyph glyph-name="ucircumflex" unicode="&#xfb;" horiz-adv-x="1298" 
d="M569 1186h-389l242 338h428l242 -338h-387l-68 96zM1190 1036v-1038h-412v111q-125 -142 -309 -142q-174 0 -279 114q-104 113 -104 310v645h412v-557q0 -63 36 -104t93 -41q70 0 110 49q41 50 41 139v514h412z" />
    <glyph glyph-name="udieresis" unicode="&#xfc;" horiz-adv-x="1298" 
d="M383 1145q-95 0 -154 59t-59 150q0 86 60 147q60 62 153 62q92 0 154 -62q61 -61 61 -147q0 -90 -60 -150q-59 -59 -155 -59zM891 1145q-95 0 -154 59t-59 150q0 86 60 147q60 62 153 62q91 0 153 -62t62 -147q0 -90 -60 -150q-59 -59 -155 -59zM1190 1036v-1038h-412
v111q-125 -142 -309 -142q-174 0 -279 114q-104 113 -104 310v645h412v-557q0 -63 36 -104t93 -41q70 0 110 49q41 50 41 139v514h412z" />
    <glyph glyph-name="yacute" unicode="&#xfd;" horiz-adv-x="1298" 
d="M844 1190h-385l159 336h496zM1294 1038l-696 -1611h-430l266 612l-430 999h428l209 -522l225 522h428z" />
    <glyph glyph-name="thorn" unicode="&#xfe;" horiz-adv-x="1351" 
d="M815 1069q219 0 360 -153q140 -152 140 -398q0 -244 -140 -396q-141 -153 -360 -153q-181 0 -293 115v-657h-413v2211h413v-684q112 115 293 115zM713 311q85 0 138 60q52 59 52 147q0 90 -52 149q-53 60 -138 60q-82 0 -136 -60q-55 -61 -55 -149q0 -85 55 -146t136 -61
z" />
    <glyph glyph-name="ydieresis" unicode="&#xff;" horiz-adv-x="1298" 
d="M401 1147q-94 0 -153 59q-60 60 -60 150q0 84 61 147q60 62 152 62t154 -62q61 -61 61 -147q0 -90 -60 -150q-59 -59 -155 -59zM909 1147q-94 0 -153 59q-60 60 -60 150q0 84 61 147q60 62 152 62t154 -62q61 -61 61 -147q0 -90 -60 -150q-59 -59 -155 -59zM1294 1038
l-696 -1611h-430l266 612l-430 999h428l209 -522l225 522h428z" />
    <glyph glyph-name="Amacron" unicode="&#x100;" horiz-adv-x="1720" 
d="M1223 1683h-721v304h721v-304zM1720 0h-454l-90 201h-629l-92 -201h-455l743 1556h232zM1018 551l-156 346l-157 -346h313z" />
    <glyph glyph-name="amacron" unicode="&#x101;" horiz-adv-x="1241" 
d="M952 1174h-721v303h721v-303zM1192 311l29 -272q-106 -68 -220 -68q-188 0 -264 133q-127 -135 -340 -135q-165 0 -268 89q-102 88 -102 231q0 322 460 352l209 16v17q0 45 -27 72q-28 28 -73 28q-93 0 -109 -98l-387 82q40 151 169 231q128 80 327 80q237 0 370 -115
q132 -114 132 -325v-275q0 -47 30 -47q28 0 64 4zM561 260q58 0 96 34q39 34 39 97v53l-108 -14q-119 -17 -119 -90q0 -37 27 -58q28 -22 65 -22z" />
    <glyph glyph-name="Abreve" unicode="&#x102;" horiz-adv-x="1720" 
d="M862 1649q-177 0 -287 97t-110 255h309q0 -31 24 -55q25 -25 64 -25q42 0 67 25q23 23 23 55h308q0 -157 -111 -255q-110 -97 -287 -97zM1720 0h-454l-90 201h-629l-92 -201h-455l743 1556h232zM1018 551l-156 346l-157 -346h313z" />
    <glyph glyph-name="abreve" unicode="&#x103;" horiz-adv-x="1241" 
d="M592 1139q-177 0 -287 97t-110 255h309q0 -32 23 -55q25 -25 65 -25q42 0 66 24t24 56h307q0 -158 -110 -255t-287 -97zM1192 311l29 -272q-106 -68 -220 -68q-188 0 -264 133q-127 -135 -340 -135q-165 0 -268 89q-102 88 -102 231q0 322 460 352l209 16v17q0 45 -27 72
q-28 28 -73 28q-93 0 -109 -98l-387 82q40 151 169 231q128 80 327 80q237 0 370 -115q132 -114 132 -325v-275q0 -47 30 -47q28 0 64 4zM561 260q58 0 96 34q39 34 39 97v53l-108 -14q-119 -17 -119 -90q0 -37 27 -58q28 -22 65 -22z" />
    <glyph glyph-name="Aogonek" unicode="&#x104;" horiz-adv-x="1720" 
d="M1774 -176l12 -219q-99 -51 -215 -51q-105 0 -170 55q-66 55 -66 147q0 138 127 244h-196l-90 201h-629l-92 -201h-455l743 1556h232l745 -1556h-2q-3 -3 -11 -12t-13 -14l-22 -22q-3 -3 -17 -19q-3 -4 -9 -9.5t-7 -7.5q-3 -4 -11 -14q-2 -2 -3.5 -5t-3 -5.5t-2.5 -3.5
q-2 -3 -6 -11q-2 -4 -4 -12q-1 -4 -1 -12q0 -48 57 -48q39 0 109 19zM1018 551l-156 346l-157 -346h313z" />
    <glyph glyph-name="aogonek" unicode="&#x105;" horiz-adv-x="1241" 
d="M1276 -137l12 -219q-101 -52 -215 -52q-103 0 -170 56q-65 55 -65 147q0 94 71 187q-120 27 -172 122q-127 -135 -340 -135q-165 0 -268 89q-102 88 -102 231q0 322 460 352l209 16v17q0 45 -27 72q-28 28 -73 28q-93 0 -109 -98l-387 82q40 151 169 231q128 80 327 80
q237 0 370 -115q132 -114 132 -325v-275q0 -47 30 -47q28 0 64 4l29 -272q-3 -3 -11.5 -12t-13.5 -14q-6 -6 -12.5 -13t-8.5 -9q-11 -11 -18 -19q-2 -3 -4.5 -5.5l-4.5 -4.5t-3.5 -4t-2.5 -3q-2 -2 -6 -7t-6 -7t-3.5 -5t-3 -5.5t-2.5 -3.5q-2 -3 -6 -11q-2 -4 -4 -12
q-1 -4 -1 -13q0 -47 57 -47q39 0 109 19zM561 260q58 0 96 34q39 34 39 97v53l-108 -14q-119 -17 -119 -90q0 -37 27 -58q28 -22 65 -22z" />
    <glyph glyph-name="Cacute" unicode="&#x106;" horiz-adv-x="1726" 
d="M1073 1681h-385l160 336h495zM881 346q145 0 250 90q104 89 133 242l405 -119q-69 -264 -287 -428t-501 -164q-345 0 -585 235q-239 234 -239 574q0 341 239 575q238 234 585 234q285 0 500 -163q216 -164 288 -425l-405 -123q-28 151 -134 243q-104 91 -249 91
q-172 0 -286 -124t-114 -308t114 -307t286 -123z" />
    <glyph glyph-name="cacute" unicode="&#x107;" horiz-adv-x="1198" 
d="M807 1188h-385l160 336h495zM788 467l377 -68q-30 -192 -184 -312q-152 -118 -363 -118q-241 0 -412 154q-169 153 -169 395t169 396q170 155 412 155q207 0 360 -117q152 -116 185 -307l-377 -74q-15 75 -59 114q-44 40 -109 40q-82 0 -134 -60q-52 -59 -52 -147
q0 -87 52 -146q53 -61 134 -61q63 0 110 41q44 39 60 115z" />
    <glyph glyph-name="Cdotaccent" unicode="&#x10a;" horiz-adv-x="1726" 
d="M883 1638q-94 0 -154 60q-59 59 -59 149q0 87 60 148t153 61q92 0 153 -61q62 -62 62 -148q0 -88 -61 -149q-60 -60 -154 -60zM881 346q145 0 250 90q104 89 133 242l405 -119q-69 -264 -287 -428t-501 -164q-345 0 -585 235q-239 234 -239 574q0 341 239 575
q238 234 585 234q285 0 500 -163q216 -164 288 -425l-405 -123q-28 151 -134 243q-104 91 -249 91q-172 0 -286 -124t-114 -308t114 -307t286 -123z" />
    <glyph glyph-name="cdotaccent" unicode="&#x10b;" horiz-adv-x="1198" 
d="M616 1145q-94 0 -153 59q-60 60 -60 150q0 84 61 147q60 62 152 62t154 -62q61 -61 61 -147q0 -90 -60 -150q-59 -59 -155 -59zM788 467l377 -68q-30 -192 -184 -312q-152 -118 -363 -118q-241 0 -412 154q-169 153 -169 395t169 396q170 155 412 155q207 0 360 -117
q152 -116 185 -307l-377 -74q-15 75 -59 114q-44 40 -109 40q-82 0 -134 -60q-52 -59 -52 -147q0 -87 52 -146q53 -61 134 -61q63 0 110 41q44 39 60 115z" />
    <glyph glyph-name="Ccaron" unicode="&#x10c;" horiz-adv-x="1726" 
d="M670 1679l-242 338h389l68 -96l67 96h387l-241 -338h-428zM881 346q145 0 250 90q104 89 133 242l405 -119q-69 -264 -287 -428t-501 -164q-345 0 -585 235q-239 234 -239 574q0 341 239 575q238 234 585 234q285 0 500 -163q216 -164 288 -425l-405 -123
q-28 151 -134 243q-104 91 -249 91q-172 0 -286 -124t-114 -308t114 -307t286 -123z" />
    <glyph glyph-name="ccaron" unicode="&#x10d;" horiz-adv-x="1198" 
d="M403 1186l-241 338h389l67 -97l68 97h387l-242 -338h-428zM788 467l377 -68q-30 -192 -184 -312q-152 -118 -363 -118q-241 0 -412 154q-169 153 -169 395t169 396q170 155 412 155q207 0 360 -117q152 -116 185 -307l-377 -74q-15 75 -59 114q-44 40 -109 40
q-82 0 -134 -60q-52 -59 -52 -147q0 -87 52 -146q53 -61 134 -61q63 0 110 41q44 39 60 115z" />
    <glyph glyph-name="Dcaron" unicode="&#x10e;" horiz-adv-x="1697" 
d="M582 1679l-242 338h389l68 -96l67 96h387l-241 -338h-428zM109 1556h710q371 0 597 -214t226 -564t-226 -564t-597 -214h-710v1556zM532 360h277q190 0 300 115t110 303q0 190 -110 305t-300 115h-277v-838z" />
    <glyph glyph-name="dcaron" unicode="&#x10f;" horiz-adv-x="1325" 
d="M829 1638h412v-1638h-412v84q-112 -115 -292 -115q-219 0 -360 153q-140 152 -140 396q0 246 140 398q141 153 360 153q180 0 292 -115v684zM1698 1638l-90 -409h-273v409h363zM637 311q84 0 138 60t54 147q0 89 -54 149t-138 60q-83 0 -136 -60q-52 -59 -52 -149
q0 -88 52 -147q53 -60 136 -60z" />
    <glyph glyph-name="Dcroat" unicode="&#x110;" horiz-adv-x="1738" 
d="M150 1556h710q371 0 597 -214t226 -564t-226 -564t-597 -214h-710v594h-123v360h123v602zM573 360h277q190 0 300 115t110 303q0 190 -110 305t-300 115h-277v-244h224v-360h-224v-234z" />
    <glyph glyph-name="dcroat" unicode="&#x111;" horiz-adv-x="1382" 
d="M1354 1180h-113v-1180h-412v84q-112 -115 -292 -115q-219 0 -360 153q-140 152 -140 396q0 246 140 398q141 153 360 153q180 0 292 -115v226h-241v286h241v172h412v-172h113v-286zM637 311q84 0 138 60t54 147q0 89 -54 149t-138 60q-83 0 -136 -60q-52 -59 -52 -149
q0 -88 52 -147q53 -60 136 -60z" />
    <glyph glyph-name="Emacron" unicode="&#x112;" horiz-adv-x="1345" 
d="M1053 1683h-721v304h721v-304zM1280 360v-360h-1171v1556h1157v-360h-734v-254h682v-334h-682v-248h748z" />
    <glyph glyph-name="emacron" unicode="&#x113;" horiz-adv-x="1187" 
d="M969 1190h-721v303h721v-303zM1153 487v-67h-715q38 -141 170 -141q121 0 166 94l365 -72q-62 -164 -200 -248t-331 -84q-237 0 -405 154q-166 153 -166 395t165 396q166 155 404 155q246 0 396 -153q151 -154 151 -429zM606 754q-122 0 -166 -119h320q-18 57 -60 88
t-94 31z" />
    <glyph glyph-name="Edotaccent" unicode="&#x116;" horiz-adv-x="1345" 
d="M690 1638q-93 0 -153 60t-60 149q0 85 61 148q60 61 152 61q93 0 154 -61t61 -148q0 -89 -60 -149t-155 -60zM1280 360v-360h-1171v1556h1157v-360h-734v-254h682v-334h-682v-248h748z" />
    <glyph glyph-name="edotaccent" unicode="&#x117;" horiz-adv-x="1187" 
d="M606 1145q-94 0 -153 59q-60 60 -60 150q0 84 61 147q60 62 152 62t154 -62q61 -61 61 -147q0 -90 -60 -150q-59 -59 -155 -59zM1153 487v-67h-715q38 -141 170 -141q121 0 166 94l365 -72q-62 -164 -200 -248t-331 -84q-237 0 -405 154q-166 153 -166 395t165 396
q166 155 404 155q246 0 396 -153q151 -154 151 -429zM606 754q-122 0 -166 -119h320q-18 57 -60 88t-94 31z" />
    <glyph glyph-name="Eogonek" unicode="&#x118;" horiz-adv-x="1345" 
d="M1280 0h-84q-3 -3 -11.5 -12t-13.5 -14q-6 -6 -12.5 -13t-8.5 -9q-3 -3 -17 -19q-3 -4 -9 -9.5t-7 -7.5q-3 -4 -11 -14q-2 -2 -3.5 -5t-3 -5.5t-2.5 -3.5q-2 -3 -6 -11t-5 -12t-1 -12q0 -48 58 -48q38 0 108 19l13 -219q-99 -51 -215 -51q-105 0 -170 55q-66 55 -66 147
q0 138 127 244h-831v1556h1157v-360h-734v-254h682v-334h-682v-248h748v-360z" />
    <glyph glyph-name="eogonek" unicode="&#x119;" horiz-adv-x="1187" 
d="M1153 420h-719q38 -141 174 -141q115 0 166 94l365 -72q-37 -83 -150 -201q-66 -66 -73 -74q-24 -27 -46 -69q-24 -45 -24 -88q0 -64 61 -64q38 0 105 19l18 -221q-98 -49 -217 -49q-111 0 -179 55q-69 55 -69 151q0 105 94 211l-51 -2q-237 0 -405 154
q-166 153 -166 395t166 396q167 155 405 155q245 0 396 -154q149 -152 149 -430v-65zM434 635h322q-29 119 -156 119q-52 0 -99 -33q-46 -32 -67 -86z" />
    <glyph glyph-name="Ecaron" unicode="&#x11a;" horiz-adv-x="1345" 
d="M479 1679l-241 338h389l67 -96l68 96h387l-242 -338h-428zM1280 360v-360h-1171v1556h1157v-360h-734v-254h682v-334h-682v-248h748z" />
    <glyph glyph-name="ecaron" unicode="&#x11b;" horiz-adv-x="1187" 
d="M395 1186l-241 338h389l67 -97l68 97h387l-242 -338h-428zM1153 487v-67h-715q38 -141 170 -141q121 0 166 94l365 -72q-62 -164 -200 -248t-331 -84q-237 0 -405 154q-166 153 -166 395t165 396q166 155 404 155q246 0 396 -153q151 -154 151 -429zM606 754
q-122 0 -166 -119h320q-18 57 -60 88t-94 31z" />
    <glyph glyph-name="Gbreve" unicode="&#x11e;" horiz-adv-x="1759" 
d="M893 1649q-177 0 -287 97t-110 255h309q0 -32 23 -55q25 -25 65 -25t65 25t25 55h307q0 -158 -110 -255t-287 -97zM776 913h918q10 -87 10 -137q0 -359 -227 -583q-229 -226 -586 -226q-352 0 -593 235t-241 574q0 340 241 575q240 234 591 234q274 0 480 -128
q205 -127 282 -349l-439 -104q-88 204 -323 204q-177 0 -291 -124q-115 -126 -115 -308q0 -183 116 -307q115 -123 294 -123q266 0 362 225h-479v342z" />
    <glyph glyph-name="gbreve" unicode="&#x11f;" horiz-adv-x="1288" 
d="M655 1157q-176 0 -286 97q-111 98 -111 255h309q0 -31 24 -55t64 -24q42 0 66 24t24 55h308q0 -157 -111 -255q-110 -97 -287 -97zM1292 719h-151q8 -37 8 -82q0 -189 -147 -301q-148 -113 -369 -113q-125 0 -236 39q-10 -16 -10 -37q0 -32 28 -52q26 -19 74 -19h326
q217 0 336 -93q117 -91 117 -274q0 -197 -166 -309q-167 -113 -455 -113h-92q-242 0 -382 94t-140 250q0 162 137 236q-127 91 -127 231q0 159 137 248q-63 92 -63 213q0 193 143 312q144 120 373 120q112 0 207 -31h452v-319zM633 512q58 0 102 38q43 37 43 95t-43 95
q-44 38 -102 38q-59 0 -103 -38q-43 -37 -43 -95t43 -95q44 -38 103 -38zM774 -154h-229q-55 0 -78 -23q-25 -25 -25 -56q0 -80 123 -80h125q158 0 158 90q0 31 -21 50q-20 19 -53 19z" />
    <glyph glyph-name="Gdotaccent" unicode="&#x120;" horiz-adv-x="1759" 
d="M891 1638q-94 0 -154 60q-59 59 -59 149q0 87 60 148t153 61q92 0 153 -61q62 -62 62 -148q0 -89 -60 -149t-155 -60zM776 913h918q10 -87 10 -137q0 -359 -227 -583q-229 -226 -586 -226q-352 0 -593 235t-241 574q0 340 241 575q240 234 591 234q274 0 480 -128
q205 -127 282 -349l-439 -104q-88 204 -323 204q-177 0 -291 -124q-115 -126 -115 -308q0 -183 116 -307q115 -123 294 -123q266 0 362 225h-479v342z" />
    <glyph glyph-name="gdotaccent" unicode="&#x121;" horiz-adv-x="1288" 
d="M653 1145q-94 0 -153 59q-60 60 -60 150q0 84 61 147q60 62 152 62t154 -62q61 -61 61 -147q0 -90 -60 -150q-59 -59 -155 -59zM1292 719h-151q8 -37 8 -82q0 -189 -147 -301q-148 -113 -369 -113q-125 0 -236 39q-10 -16 -10 -37q0 -32 28 -52q26 -19 74 -19h326
q217 0 336 -93q117 -91 117 -274q0 -197 -166 -309q-167 -113 -455 -113h-92q-242 0 -382 94t-140 250q0 162 137 236q-127 91 -127 231q0 159 137 248q-63 92 -63 213q0 193 143 312q144 120 373 120q112 0 207 -31h452v-319zM633 512q58 0 102 38q43 37 43 95t-43 95
q-44 38 -102 38q-59 0 -103 -38q-43 -37 -43 -95t43 -95q44 -38 103 -38zM774 -154h-229q-55 0 -78 -23q-25 -25 -25 -56q0 -80 123 -80h125q158 0 158 90q0 31 -21 50q-20 19 -53 19z" />
    <glyph glyph-name="Gcommaaccent" unicode="&#x122;" horiz-adv-x="1759" 
d="M776 913h918q10 -87 10 -137q0 -359 -227 -583q-229 -226 -586 -226q-352 0 -593 235t-241 574q0 340 241 575q240 234 591 234q274 0 480 -128q205 -127 282 -349l-439 -104q-88 204 -323 204q-177 0 -291 -124q-115 -126 -115 -308q0 -183 116 -307q115 -123 294 -123
q266 0 362 225h-479v342zM688 -92h391l-209 -342h-280z" />
    <glyph glyph-name="gcommaaccent" unicode="&#x123;" horiz-adv-x="1288" 
d="M819 1182h-393l209 342h283zM1292 719h-151q8 -37 8 -82q0 -189 -147 -301q-148 -113 -369 -113q-125 0 -236 39q-10 -16 -10 -37q0 -32 28 -52q26 -19 74 -19h326q217 0 336 -93q117 -91 117 -274q0 -197 -166 -309q-167 -113 -455 -113h-92q-242 0 -382 94t-140 250
q0 162 137 236q-127 91 -127 231q0 159 137 248q-63 92 -63 213q0 193 143 312q144 120 373 120q112 0 207 -31h452v-319zM633 512q58 0 102 38q43 37 43 95t-43 95q-44 38 -102 38q-59 0 -103 -38q-43 -37 -43 -95t43 -95q44 -38 103 -38zM774 -154h-229q-55 0 -78 -23
q-25 -25 -25 -56q0 -80 123 -80h125q158 0 158 90q0 31 -21 50q-20 19 -53 19z" />
    <glyph glyph-name="Hbar" unicode="&#x126;" horiz-adv-x="1701" 
d="M1675 995h-114v-995h-424v528h-572v-528h-424v995h-114v305h114v256h424v-256h572v256h424v-256h114v-305zM1137 995h-572v-141h572v141z" />
    <glyph glyph-name="hbar" unicode="&#x127;" horiz-adv-x="1329" 
d="M864 1069q172 0 277 -114q104 -113 104 -310v-645h-411v557q0 66 -37 106q-36 39 -95 39q-69 0 -109 -49t-40 -139v-514h-412v1180h-114v286h114v172h412v-172h201v-286h-201v-252q125 141 311 141z" />
    <glyph glyph-name="Imacron" unicode="&#x12a;" horiz-adv-x="643" 
d="M682 1683h-721v304h721v-304zM532 0h-423v1556h423v-1556z" />
    <glyph glyph-name="imacron" unicode="&#x12b;" horiz-adv-x="612" 
d="M668 1190h-721v303h721v-303zM512 0h-412v1038h412v-1038z" />
    <glyph glyph-name="Iogonek" unicode="&#x12e;" horiz-adv-x="643" 
d="M588 -176l12 -219q-99 -51 -215 -51q-105 0 -170 55t-65 147q0 139 126 244h-167v1556h423v-1556q-3 -3 -11 -12t-13 -14l-22 -22q-3 -3 -17 -19q-2 -3 -4.5 -5.5l-4.5 -4.5t-3.5 -4t-2.5 -3q-2 -2 -6 -7t-6 -7q-2 -3 -6 -8l-3 -6q-2 -3 -6 -11q-2 -4 -4 -12
q-1 -4 -1 -12q0 -48 57 -48q39 0 109 19z" />
    <glyph glyph-name="iogonek" unicode="&#x12f;" horiz-adv-x="612" 
d="M305 1145q-94 0 -153 59q-60 60 -60 150q0 84 61 147q60 62 152 62t154 -62q61 -61 61 -147q0 -90 -60 -150q-59 -59 -155 -59zM567 -176l13 -219q-99 -51 -215 -51q-105 0 -170 55q-66 55 -66 147q0 138 127 244h-156v1038h412v-1038q-3 -3 -11.5 -12t-13.5 -14
q-6 -6 -12.5 -13t-8.5 -9q-3 -3 -17 -19l-9.5 -9.5t-6.5 -7.5q-3 -4 -11 -14q-2 -3 -6 -8l-3 -6q-2 -3 -6 -11t-5 -12t-1 -12q0 -48 58 -48q38 0 108 19z" />
    <glyph glyph-name="Idotaccent" unicode="&#x130;" horiz-adv-x="643" 
d="M319 2056q93 0 154 -61q62 -62 62 -148q0 -88 -61 -149q-60 -60 -155 -60q-93 0 -153 60t-60 149q0 85 61 148q60 61 152 61zM532 0h-423v1556h423v-1556z" />
    <glyph glyph-name="dotlessi" unicode="&#x131;" horiz-adv-x="612" 
d="M512 0h-412v1038h412v-1038z" />
    <glyph glyph-name="IJ" unicode="&#x132;" horiz-adv-x="2056" 
d="M109 1556h423v-1556h-423v1556zM1962 1556v-981q0 -274 -179 -441t-470 -167q-271 0 -441 146q-169 145 -202 393l420 82q24 -244 223 -244q100 0 162 64q61 62 61 167v981h426z" />
    <glyph glyph-name="ij" unicode="&#x133;" horiz-adv-x="1259" 
d="M309 1567q99 0 163 -66q65 -67 65 -155q0 -95 -65 -158q-66 -64 -163 -64q-100 0 -164 64q-63 63 -63 158q0 92 64 156q65 65 163 65zM950 1567q98 0 163 -66q65 -67 65 -155q0 -95 -65 -158q-66 -64 -163 -64q-100 0 -164 64q-63 63 -63 158q0 92 64 156q65 65 163 65z
M516 0h-414v1038h414v-1038zM559 -543l51 289q49 -10 66 -10q33 0 51 22t18 62v1218h412v-1253q0 -170 -101 -274q-102 -105 -270 -105q-120 0 -227 51z" />
    <glyph glyph-name="Kcommaaccent" unicode="&#x136;" horiz-adv-x="1624" 
d="M1640 0h-538l-570 657v-657h-423v1556h423v-675l549 675h523l-641 -778zM621 -92h391l-209 -342h-281z" />
    <glyph glyph-name="kcommaaccent" unicode="&#x137;" horiz-adv-x="1335" 
d="M522 0h-413v1638h413v-964l295 364h498l-414 -520l440 -518h-514l-305 356v-356zM496 -92h391l-209 -342h-281z" />
    <glyph glyph-name="Lacute" unicode="&#x139;" horiz-adv-x="1327" 
d="M522 1681h-385l160 336h496zM1280 360v-360h-1171v1556h423v-1196h748z" />
    <glyph glyph-name="lacute" unicode="&#x13a;" horiz-adv-x="630" 
d="M512 1763h-385l160 336h495zM522 0h-413v1638h413v-1638z" />
    <glyph glyph-name="Lcommaaccent" unicode="&#x13b;" horiz-adv-x="1327" 
d="M1280 360v-360h-1171v1556h423v-1196h748zM528 -92h392l-209 -342h-281z" />
    <glyph glyph-name="lcommaaccent" unicode="&#x13c;" horiz-adv-x="630" 
d="M522 0h-413v1638h413v-1638zM27 -434l98 342h391l-209 -342h-280z" />
    <glyph glyph-name="Lcaron" unicode="&#x13d;" horiz-adv-x="1327" 
d="M1280 360v-360h-1171v1556h423v-1196h748zM1010 1147h-271v409h361z" />
    <glyph glyph-name="lcaron" unicode="&#x13e;" horiz-adv-x="630" 
d="M522 0h-413v1638h413v-1638zM897 1229h-270v409h360z" />
    <glyph glyph-name="Ldot" unicode="&#x13f;" horiz-adv-x="1345" 
d="M1280 360v-360h-1171v1556h423v-1196h748zM870 528q-94 0 -154 60q-61 61 -61 149q0 85 62 149q61 62 153 62q93 0 154 -62t61 -149q0 -89 -60 -149t-155 -60z" />
    <glyph glyph-name="ldot" unicode="&#x140;" horiz-adv-x="1003" 
d="M522 0h-413v1638h413v-1638zM770 948q95 0 156 -62t61 -149q0 -89 -61 -149q-62 -60 -156 -60t-154 60q-59 59 -59 149q0 86 60 149q59 62 153 62z" />
    <glyph glyph-name="Lslash" unicode="&#x141;" horiz-adv-x="1368" 
d="M1321 360v-360h-1171v549l-123 -53v346l123 53v661h423v-473l224 99v-346l-224 -99v-377h748z" />
    <glyph glyph-name="lslash" unicode="&#x142;" horiz-adv-x="663" 
d="M637 729l-107 -53v-676h-411v469l-92 -47v379l92 47v790h411v-583l107 53v-379z" />
    <glyph glyph-name="Nacute" unicode="&#x143;" horiz-adv-x="1720" 
d="M1022 1681h-385l160 336h495zM1612 1556v-1556h-240l-840 799v-799h-423v1556h241l838 -821v821h424z" />
    <glyph glyph-name="nacute" unicode="&#x144;" horiz-adv-x="1298" 
d="M852 1188h-385l160 336h495zM829 1069q174 0 279 -114q104 -113 104 -310v-645h-411v557q0 65 -36 105t-93 40q-70 0 -110 -49t-40 -139v-514h-413v1038h413v-108q127 139 307 139z" />
    <glyph glyph-name="Ncommaaccent" unicode="&#x145;" horiz-adv-x="1720" 
d="M1612 1556v-1556h-240l-840 799v-799h-423v1556h241l838 -821v821h424zM725 -92h391l-209 -342h-280z" />
    <glyph glyph-name="ncommaaccent" unicode="&#x146;" horiz-adv-x="1298" 
d="M829 1069q174 0 279 -114q104 -113 104 -310v-645h-411v557q0 65 -36 105t-93 40q-70 0 -110 -49t-40 -139v-514h-413v1038h413v-108q127 139 307 139zM463 -92h391l-209 -342h-280z" />
    <glyph glyph-name="Ncaron" unicode="&#x147;" horiz-adv-x="1720" 
d="M618 1679l-241 338h389l68 -96l67 96h387l-241 -338h-429zM1612 1556v-1556h-240l-840 799v-799h-423v1556h241l838 -821v821h424z" />
    <glyph glyph-name="ncaron" unicode="&#x148;" horiz-adv-x="1298" 
d="M449 1186l-242 338h389l68 -97l67 97h387l-241 -338h-428zM829 1069q174 0 279 -114q104 -113 104 -310v-645h-411v557q0 65 -36 105t-93 40q-70 0 -110 -49t-40 -139v-514h-413v1038h413v-108q127 139 307 139z" />
    <glyph glyph-name="Eng" unicode="&#x14a;" horiz-adv-x="1720" 
d="M1612 1556v-1824q0 -155 -101 -241q-100 -85 -270 -85q-129 0 -274 43l43 324q108 -17 120 -17q70 0 70 68v340l-668 635v-799h-423v1556h241l838 -821v821h424z" />
    <glyph glyph-name="eng" unicode="&#x14b;" horiz-adv-x="1298" 
d="M829 1069q174 0 279 -114q104 -113 104 -310v-688q0 -156 -100 -241t-270 -85q-122 0 -273 39l37 273q94 -15 129 -15q66 0 66 64v565q0 65 -36 105t-93 40q-70 0 -110 -49t-40 -139v-514h-413v1038h413v-108q127 139 307 139z" />
    <glyph glyph-name="Omacron" unicode="&#x14c;" horiz-adv-x="1794" 
d="M1257 1683h-720v304h720v-304zM897 1585q349 0 594 -235q246 -236 246 -574q0 -339 -246 -573t-594 -234t-594 234t-246 573q0 338 246 574q245 235 594 235zM897 346q174 0 294 124t120 306t-120 307t-294 125q-173 0 -295 -125q-121 -124 -121 -307q0 -182 121 -306
t295 -124z" />
    <glyph glyph-name="omacron" unicode="&#x14d;" horiz-adv-x="1261" 
d="M991 1190h-721v303h721v-303zM631 1069q247 0 422 -155q174 -154 174 -396t-174 -395q-175 -154 -422 -154t-421 154q-173 153 -173 395q0 241 173 396t421 155zM631 311q85 0 143 61q57 60 57 146q0 89 -57 149t-143 60t-143 -60q-56 -59 -56 -149q0 -87 56 -146
q58 -61 143 -61z" />
    <glyph glyph-name="Ohungarumlaut" unicode="&#x150;" horiz-adv-x="1794" 
d="M825 1681h-336l177 336h419zM946 1681l176 336h437l-279 -336h-334zM897 1585q349 0 594 -235q246 -236 246 -574q0 -339 -246 -573t-594 -234t-594 234t-246 573q0 338 246 574q245 235 594 235zM897 346q174 0 294 124t120 306t-120 307t-294 125q-173 0 -295 -125
q-121 -124 -121 -307q0 -182 121 -306t295 -124z" />
    <glyph glyph-name="ohungarumlaut" unicode="&#x151;" horiz-adv-x="1261" 
d="M559 1188h-336l176 336h420zM680 1188l176 336h436l-278 -336h-334zM631 1069q247 0 422 -155q174 -154 174 -396t-174 -395q-175 -154 -422 -154t-421 154q-173 153 -173 395q0 241 173 396t421 155zM631 311q85 0 143 61q57 60 57 146q0 89 -57 149t-143 60t-143 -60
q-56 -59 -56 -149q0 -87 56 -146q58 -61 143 -61z" />
    <glyph glyph-name="OE" unicode="&#x152;" horiz-adv-x="2260" 
d="M2198 360v-360h-1274q-390 0 -628 214q-239 215 -239 564t239 564q238 214 628 214h1259v-360h-733v-254h682v-334h-682v-248h748zM1026 350v856h-102q-201 0 -321 -117q-122 -119 -122 -311q0 -191 122 -310q121 -118 321 -118h102z" />
    <glyph glyph-name="oe" unicode="&#x153;" horiz-adv-x="1984" 
d="M1950 487v-67h-715q37 -141 170 -141q121 0 166 94l366 -72q-63 -164 -201 -248t-331 -84q-222 0 -379 131q-167 -131 -395 -131q-247 0 -421 154q-173 153 -173 395q0 241 173 396t421 155q228 0 395 -131q157 131 379 131q244 0 394 -153q151 -154 151 -429zM1405 754
q-124 0 -168 -119h319q-18 58 -59 88q-42 31 -92 31zM631 311q85 0 143 61q57 60 57 146q0 89 -57 149t-143 60t-143 -60q-56 -59 -56 -149q0 -87 56 -146q58 -61 143 -61z" />
    <glyph glyph-name="Racute" unicode="&#x154;" horiz-adv-x="1617" 
d="M870 1681h-385l160 336h496zM1675 0h-512l-479 575h-152v-575h-423v1556h704q253 0 402 -136q151 -137 151 -353q0 -143 -64 -250q-65 -109 -184 -172zM532 922h240q85 0 132 41q46 40 46 104q0 62 -46 102q-47 41 -132 41h-240v-288z" />
    <glyph glyph-name="racute" unicode="&#x155;" horiz-adv-x="944" 
d="M711 1188h-385l159 336h496zM522 1038v-178q122 191 336 191q29 0 76 -7l-14 -430h-62q-163 0 -249 -67q-87 -67 -87 -238v-309h-413v1038h413z" />
    <glyph glyph-name="Rcommaaccent" unicode="&#x156;" horiz-adv-x="1617" 
d="M1675 0h-512l-479 575h-152v-575h-423v1556h704q253 0 402 -136q151 -137 151 -353q0 -143 -64 -250q-65 -109 -184 -172zM532 922h240q85 0 132 41q46 40 46 104q0 62 -46 102q-47 41 -132 41h-240v-288zM643 -92h391l-209 -342h-280z" />
    <glyph glyph-name="rcommaaccent" unicode="&#x157;" horiz-adv-x="944" 
d="M858 1051q29 0 76 -7l-14 -430h-62q-163 0 -249 -67q-87 -67 -87 -238v-309h-413v1038h413v-178q122 191 336 191zM125 -92h391l-209 -342h-280z" />
    <glyph glyph-name="Rcaron" unicode="&#x158;" horiz-adv-x="1617" 
d="M467 1679l-242 338h389l68 -96l68 96h387l-242 -338h-428zM1675 0h-512l-479 575h-152v-575h-423v1556h704q253 0 402 -136q151 -137 151 -353q0 -143 -64 -250q-65 -109 -184 -172zM532 922h240q85 0 132 41q46 40 46 104q0 62 -46 102q-47 41 -132 41h-240v-288z" />
    <glyph glyph-name="rcaron" unicode="&#x159;" horiz-adv-x="944" 
d="M307 1186l-241 338h389l67 -97l68 97h387l-242 -338h-428zM522 1038v-178q122 191 336 191q29 0 76 -7l-14 -430h-62q-163 0 -249 -67q-87 -67 -87 -238v-309h-413v1038h413z" />
    <glyph glyph-name="Sacute" unicode="&#x15a;" horiz-adv-x="1386" 
d="M899 1681h-385l160 336h495zM702 1585q250 0 417 -116q167 -115 204 -330l-412 -84q-39 188 -213 188q-62 0 -105 -31q-42 -30 -42 -82q0 -81 86 -110l287 -92q213 -72 312 -174t99 -279q0 -131 -54 -231t-146 -159q-91 -58 -200 -87q-110 -29 -224 -29q-260 0 -445 131
q-184 130 -213 349l430 88q45 -207 238 -207q77 0 120 30q44 30 44 84q0 86 -103 115l-284 84q-195 57 -297 163q-101 106 -101 279q0 239 168 369q169 131 434 131z" />
    <glyph glyph-name="sacute" unicode="&#x15b;" horiz-adv-x="1042" 
d="M719 1188h-385l160 336h495zM35 266l391 78q24 -92 119 -92q69 0 69 53q0 39 -61 49l-209 39q-295 51 -295 307q0 174 129 272q128 97 340 97q185 0 310 -77q124 -76 159 -208l-364 -71q-6 31 -35 62q-28 30 -78 30q-66 0 -66 -49q0 -40 50 -51l221 -46q149 -29 221 -116
q74 -89 74 -213q0 -177 -134 -269t-350 -92q-187 0 -323 74q-135 74 -168 223z" />
    <glyph glyph-name="Scedilla" unicode="&#x15e;" horiz-adv-x="1386" 
d="M1335 475q0 -213 -134 -336q-133 -122 -339 -157l-80 -310h-422l203 310q-210 35 -347 158q-139 126 -163 309l430 88q45 -207 238 -207q77 0 120 30q44 30 44 84q0 86 -103 115l-284 84q-195 57 -297 163q-101 106 -101 279q0 239 168 369q169 131 434 131
q250 0 417 -116q167 -115 204 -330l-412 -84q-39 188 -213 188q-62 0 -105 -31q-42 -30 -42 -82q0 -81 86 -110l287 -92q213 -72 312 -174t99 -279z" />
    <glyph glyph-name="scedilla" unicode="&#x15f;" horiz-adv-x="1042" 
d="M1010 330q0 -146 -95 -235q-94 -88 -253 -115l-78 -308h-422l205 312q-281 56 -332 282l391 78q24 -92 119 -92q69 0 69 53q0 39 -61 49l-209 39q-295 51 -295 307q0 174 129 272q128 97 340 97q185 0 310 -77q124 -76 159 -208l-364 -71q-6 31 -35 62q-28 30 -78 30
q-66 0 -66 -49q0 -40 50 -51l221 -46q149 -29 221 -116q74 -89 74 -213z" />
    <glyph glyph-name="Scaron" unicode="&#x160;" horiz-adv-x="1386" 
d="M498 1679l-242 338h389l68 -96l67 96h387l-241 -338h-428zM637 1020l287 -92q213 -72 312 -174t99 -279q0 -131 -54 -231t-146 -159q-91 -58 -200 -87q-110 -29 -224 -29q-260 0 -445 131q-184 130 -213 349l430 88q45 -207 238 -207q77 0 120 30q44 30 44 84
q0 86 -103 115l-284 84q-195 57 -297 163q-101 106 -101 279q0 239 168 369q169 131 434 131q250 0 417 -116q167 -115 204 -330l-412 -84q-39 188 -213 188q-62 0 -105 -31q-42 -30 -42 -82q0 -81 86 -110z" />
    <glyph glyph-name="scaron" unicode="&#x161;" horiz-adv-x="1042" 
d="M315 1186l-241 338h389l67 -97l68 97h387l-242 -338h-428zM494 705l221 -46q149 -29 221 -116q74 -89 74 -213q0 -177 -134 -269t-350 -92q-187 0 -323 74q-135 74 -168 223l391 78q24 -92 119 -92q69 0 69 53q0 39 -61 49l-209 39q-295 51 -295 307q0 174 129 272
q128 97 340 97q185 0 310 -77q124 -76 159 -208l-364 -71q-6 31 -35 62q-28 30 -78 30q-66 0 -66 -49q0 -40 50 -51z" />
    <glyph glyph-name="tcedilla" unicode="&#x163;" horiz-adv-x="882" 
d="M561 719v-305q0 -44 27 -68t69 -24q72 0 121 28l74 -305q-94 -47 -178 -63l-78 -306h-422l211 322q-109 40 -173 136q-62 93 -62 228v357h-158v319h158v320l411 117v-437h320v-319h-320z" />
    <glyph glyph-name="Tcaron" unicode="&#x164;" horiz-adv-x="1413" 
d="M492 1679l-242 338h389l68 -96l67 96h387l-241 -338h-428zM1372 1198h-454v-1198h-424v1198h-453v358h1331v-358z" />
    <glyph glyph-name="tcaron" unicode="&#x165;" horiz-adv-x="882" 
d="M1018 1556l-90 -409h-271v409h361zM561 1038h320v-319h-320v-305q0 -44 27 -68t69 -24q72 0 121 28l74 -305q-143 -76 -301 -76q-182 0 -292 108q-109 108 -109 285v357h-158v319h158v320l411 117v-437z" />
    <glyph glyph-name="Tbar" unicode="&#x166;" horiz-adv-x="1413" 
d="M918 1198v-399h210v-322h-210v-477h-424v477h-207v322h207v399h-453v358h1331v-358h-454z" />
    <glyph glyph-name="tbar" unicode="&#x167;" horiz-adv-x="882" 
d="M561 786v-75h273v-250h-273v-47q0 -44 27 -68t69 -24q72 0 121 28l74 -305q-143 -76 -301 -76q-182 0 -292 108q-109 108 -109 285v99h-132v250h132v75h-158v252h158v320l411 117v-437h320v-252h-320z" />
    <glyph glyph-name="Umacron" unicode="&#x16a;" horiz-adv-x="1615" 
d="M1167 1683h-721v304h721v-304zM1522 1556v-856q0 -335 -194 -534t-511 -199q-327 0 -525 198t-198 535v856h424v-837q0 -167 81 -262t218 -95q126 0 203 95q76 94 76 262v837h426z" />
    <glyph glyph-name="umacron" unicode="&#x16b;" horiz-adv-x="1298" 
d="M997 1190h-721v303h721v-303zM1190 1036v-1038h-412v111q-125 -142 -309 -142q-174 0 -279 114q-104 113 -104 310v645h412v-557q0 -63 36 -104t93 -41q70 0 110 49q41 50 41 139v514h412z" />
    <glyph glyph-name="Uring" unicode="&#x16e;" horiz-adv-x="1615" 
d="M807 1630q-120 0 -200 79q-81 79 -81 194q0 113 81 193q80 79 200 79t200 -79t80 -193q0 -115 -80 -194t-200 -79zM807 1982q-34 0 -57 -23q-25 -25 -25 -56q0 -30 25 -55q23 -23 57 -23t57 23q25 25 25 55q0 31 -25 56q-23 23 -57 23zM1522 1556v-856q0 -335 -194 -534
t-511 -199q-327 0 -525 198t-198 535v856h424v-837q0 -167 81 -262t218 -95q126 0 203 95q76 94 76 262v837h426z" />
    <glyph glyph-name="uring" unicode="&#x16f;" horiz-adv-x="1298" 
d="M637 1137q-121 0 -200 78q-81 79 -81 194t81 194q79 78 200 78t200 -78q81 -80 81 -194q0 -115 -81 -194q-79 -78 -200 -78zM637 1489q-33 0 -57 -24q-25 -25 -25 -56q0 -29 25 -54q24 -24 57 -24t57 24q25 25 25 54q0 31 -25 56q-24 24 -57 24zM1190 1036v-1038h-412
v111q-125 -142 -309 -142q-174 0 -279 114q-104 113 -104 310v645h412v-557q0 -63 36 -104t93 -41q70 0 110 49q41 50 41 139v514h412z" />
    <glyph glyph-name="Uhungarumlaut" unicode="&#x170;" horiz-adv-x="1615" 
d="M735 1681h-336l176 336h420zM856 1681l176 336h436l-278 -336h-334zM1522 1556v-856q0 -335 -194 -534t-511 -199q-327 0 -525 198t-198 535v856h424v-837q0 -167 81 -262t218 -95q126 0 203 95q76 94 76 262v837h426z" />
    <glyph glyph-name="uhungarumlaut" unicode="&#x171;" horiz-adv-x="1298" 
d="M565 1188h-336l177 336h419zM686 1188l176 336h436l-278 -336h-334zM778 1036h412v-1038h-412v111q-125 -142 -309 -142q-174 0 -279 114q-104 113 -104 310v645h412v-557q0 -63 36 -104t93 -41q70 0 110 49q41 50 41 139v514z" />
    <glyph glyph-name="Uogonek" unicode="&#x172;" horiz-adv-x="1624" 
d="M1528 1556v-870q0 -394 -238 -569q-47 -35 -95 -74q-30 -25 -63 -74q-30 -45 -30 -92q0 -70 74 -70q33 0 141 27l14 -244q-112 -53 -229 -53q-132 0 -205 62q-72 61 -72 168q0 105 88 206q-55 -4 -98 -4q-323 0 -522 197t-199 520v870h424v-862q0 -152 82 -240
q83 -89 215 -89q131 0 209 88t78 241v862h426z" />
    <glyph glyph-name="uogonek" unicode="&#x173;" horiz-adv-x="1298" 
d="M1243 -176l12 -219q-99 -51 -215 -51q-105 0 -170 55t-65 147q0 134 125 242h-152v111q-125 -142 -309 -142q-174 0 -279 114q-104 113 -104 310v645h412v-557q0 -65 35 -104q36 -41 94 -41q70 0 110 49q41 50 41 139v514h412v-1038h-4q-15 -15 -24 -25t-20 -21t-18 -19
q-2 -3 -4.5 -5.5l-4.5 -4.5t-3.5 -4t-2.5 -3q-3 -4 -11 -14q-2 -2 -3.5 -5t-3 -5.5t-2.5 -3.5q-6 -9 -7 -11q-2 -4 -4 -12q-1 -4 -1 -12q0 -48 58 -48q38 0 108 19z" />
    <glyph glyph-name="Wcircumflex" unicode="&#x174;" horiz-adv-x="2293" 
d="M1079 1679h-389l242 338h428l242 -338h-388l-67 97zM2290 1556l-500 -1556h-354l-289 803l-291 -803h-352l-500 1556h447l241 -792l307 792h293l307 -792l242 792h449z" />
    <glyph glyph-name="wcircumflex" unicode="&#x175;" horiz-adv-x="1718" 
d="M793 1186h-390l242 338h428l242 -338h-387l-68 96zM1714 1038l-403 -1038h-277l-174 420l-176 -420h-276l-404 1038h406l153 -471l182 471h228l182 -473l154 473h405z" />
    <glyph glyph-name="Ycircumflex" unicode="&#x176;" horiz-adv-x="1658" 
d="M762 1679h-389l241 338h428l242 -338h-387l-68 97zM1042 481v-481h-442v477l-596 1079h463l364 -657l361 657h465z" />
    <glyph glyph-name="ycircumflex" unicode="&#x177;" horiz-adv-x="1298" 
d="M588 1188h-389l241 338h428l242 -338h-387l-68 96zM1294 1038l-696 -1611h-430l266 612l-430 999h428l209 -522l225 522h428z" />
    <glyph glyph-name="Ydieresis" unicode="&#x178;" horiz-adv-x="1658" 
d="M575 1638q-93 0 -153 60t-60 149q0 85 61 148q60 61 152 61q93 0 154 -61q62 -62 62 -148q0 -88 -61 -149q-60 -60 -155 -60zM1083 1638q-93 0 -153 60t-60 149q0 85 61 148q60 61 152 61q93 0 154 -61t61 -148q0 -89 -60 -149t-155 -60zM1042 481v-481h-442v477
l-596 1079h463l364 -657l361 657h465z" />
    <glyph glyph-name="Zacute" unicode="&#x179;" horiz-adv-x="1460" 
d="M922 1681h-385l159 336h496zM1397 356v-356h-1329v123l696 1077h-676v356h1286v-122l-661 -1078h684z" />
    <glyph glyph-name="zacute" unicode="&#x17a;" horiz-adv-x="1089" 
d="M768 1188h-385l160 336h495zM1055 903l-422 -584h395v-319h-962v143l411 576h-405v319h983v-135z" />
    <glyph glyph-name="Zdotaccent" unicode="&#x17b;" horiz-adv-x="1460" 
d="M731 1638q-93 0 -153 60t-60 149q0 85 61 148q60 61 152 61q93 0 154 -61t61 -148q0 -89 -60 -149t-155 -60zM1397 356v-356h-1329v123l696 1077h-676v356h1286v-122l-661 -1078h684z" />
    <glyph glyph-name="zdotaccent" unicode="&#x17c;" horiz-adv-x="1089" 
d="M578 1145q-95 0 -154 59t-59 150q0 86 60 147q60 62 153 62q91 0 153 -62t62 -147q0 -89 -61 -150q-59 -59 -154 -59zM1055 903l-422 -584h395v-319h-962v143l411 576h-405v319h983v-135z" />
    <glyph glyph-name="Zcaron" unicode="&#x17d;" horiz-adv-x="1460" 
d="M518 1679l-242 338h390l67 -96l68 96h387l-242 -338h-428zM1397 356v-356h-1329v123l696 1077h-676v356h1286v-122l-661 -1078h684z" />
    <glyph glyph-name="zcaron" unicode="&#x17e;" horiz-adv-x="1089" 
d="M365 1186l-242 338h389l68 -97l67 97h387l-241 -338h-428zM1055 903l-422 -584h395v-319h-962v143l411 576h-405v319h983v-135z" />
    <glyph glyph-name="florin" unicode="&#x192;" horiz-adv-x="1212" 
d="M989 1245q-50 0 -84 -28q-36 -29 -43 -80l-49 -265h215v-327h-278l-93 -490q-33 -181 -153 -286q-122 -107 -297 -107q-25 0 -49 3q-28 3 -43 6q-12 2 -38 10q-15 5 -32 11q-11 4 -29 14q-3 2 -7 4t-6.5 3.5t-5 2.5t-3.5 2q-2 1 -22 13q-15 9 -17 11l113 293
q70 -25 100 -25q69 0 84 78l86 457h-180v327h241l56 297q38 191 174 305q135 113 325 113q156 0 277 -69l-123 -308q-68 35 -119 35z" />
    <glyph glyph-name="AEacute" unicode="&#x1fc;" horiz-adv-x="2385" 
d="M1720 1681h-385l160 336h496zM2347 360v-360h-1169v201h-543l-135 -201h-500l1090 1556h1245v-360h-736v-254h682v-334h-682v-248h748zM1178 551v455l-308 -455h308z" />
    <glyph glyph-name="aeacute" unicode="&#x1fd;" horiz-adv-x="1818" 
d="M1102 1188h-385l160 336h495zM1782 416h-713q38 -137 172 -137q113 0 156 96l354 -74q-40 -149 -181 -240q-143 -92 -331 -92q-204 0 -358 115q-153 -115 -402 -115q-217 0 -335 87q-117 86 -117 247q0 153 114 233q112 78 334 78h225v60q0 45 -28 72q-30 28 -76 28
q-96 0 -111 -96l-383 78q27 136 155 225q127 88 339 88q202 0 330 -86q140 86 311 86q244 0 395 -154q150 -153 150 -430v-69zM1067 614h319q-29 140 -151 140q-133 0 -168 -140zM698 410h-135q-114 0 -114 -78q0 -40 29 -62t77 -22q57 0 100 33t43 88v41z" />
    <glyph glyph-name="Scommaaccent" unicode="&#x218;" horiz-adv-x="1386" 
d="M702 1585q250 0 417 -116q167 -115 204 -330l-412 -84q-39 188 -213 188q-62 0 -105 -31q-42 -30 -42 -82q0 -81 86 -110l287 -92q213 -72 312 -174t99 -279q0 -131 -54 -231t-146 -159q-91 -58 -200 -87q-110 -29 -224 -29q-260 0 -445 131q-184 130 -213 349l430 88
q45 -207 238 -207q77 0 120 30q44 30 44 84q0 86 -103 115l-284 84q-195 57 -297 163q-101 106 -101 279q0 239 168 369q169 131 434 131zM428 -434l98 342h392l-209 -342h-281z" />
    <glyph glyph-name="scommaaccent" unicode="&#x219;" horiz-adv-x="1042" 
d="M35 266l391 78q24 -92 119 -92q69 0 69 53q0 39 -61 49l-209 39q-295 51 -295 307q0 174 129 272q128 97 340 97q185 0 310 -77q124 -76 159 -208l-364 -71q-6 31 -35 62q-28 30 -78 30q-66 0 -66 -49q0 -40 50 -51l221 -46q149 -29 221 -116q74 -89 74 -213
q0 -177 -134 -269t-350 -92q-187 0 -323 74q-135 74 -168 223zM229 -434l99 342h391l-209 -342h-281z" />
    <glyph glyph-name="uni021A" unicode="&#x21a;" horiz-adv-x="1413" 
d="M1372 1198h-454v-1198h-424v1198h-453v358h1331v-358zM516 -92h391l-209 -342h-280z" />
    <glyph glyph-name="uni021B" unicode="&#x21b;" horiz-adv-x="882" 
d="M561 719v-305q0 -44 27 -68t69 -24q72 0 121 28l74 -305q-143 -76 -301 -76q-182 0 -292 108q-109 108 -109 285v357h-158v319h158v320l411 117v-437h320v-319h-320zM340 -88h391l-209 -342h-280z" />
    <glyph glyph-name="circumflex" unicode="&#x2c6;" horiz-adv-x="1228" 
d="M684 1159l-68 96l-67 -96h-389l241 338h428l242 -338h-387z" />
    <glyph glyph-name="caron" unicode="&#x2c7;" horiz-adv-x="1228" 
d="M1071 1497l-242 -338h-428l-241 338h389l67 -96l68 96h387z" />
    <glyph glyph-name="breve" unicode="&#x2d8;" horiz-adv-x="1228" 
d="M614 1128q-174 0 -286 98q-111 98 -111 255h309q0 -32 24 -56t64 -24q42 0 66 24q25 25 25 56h307q0 -157 -111 -255q-112 -98 -287 -98z" />
    <glyph glyph-name="dotaccent" unicode="&#x2d9;" horiz-adv-x="1228" 
d="M614 1536q93 0 154 -61t61 -148q0 -89 -60 -149t-155 -60q-93 0 -153 60t-60 149q0 85 61 148q60 61 152 61z" />
    <glyph glyph-name="ring" unicode="&#x2da;" horiz-adv-x="1228" 
d="M895 1382q0 -114 -81 -193q-80 -79 -200 -79q-119 0 -199 79q-81 79 -81 193t81 194q80 79 199 79q120 0 200 -79q81 -79 81 -194zM696 1382q0 33 -24 57q-23 23 -58 23q-34 0 -57 -23q-25 -25 -25 -57q0 -29 25 -54q23 -23 57 -23q35 0 58 23q24 24 24 54z" />
    <glyph glyph-name="ogonek" unicode="&#x2db;" horiz-adv-x="1228" 
d="M430 16l236 -16q-3 -3 -11.5 -12t-13.5 -14q-6 -6 -12.5 -13t-8.5 -9q-11 -11 -18 -19q-2 -3 -4.5 -5.5l-4.5 -4.5t-3.5 -4t-2.5 -3q-2 -2 -6 -7t-6 -7q-2 -3 -5 -8l-4 -6q-2 -3 -6 -11q-2 -4 -4 -12q-1 -4 -1 -12q0 -48 57 -48q39 0 109 19l12 -219q-99 -51 -215 -51
q-105 0 -170 55t-65 147q0 68 39 139q39 70 108 121z" />
    <glyph glyph-name="tilde" unicode="&#x2dc;" horiz-adv-x="1228" 
d="M455 1167h-226q0 172 74 275q73 102 186 102q68 0 140 -36q70 -35 104 -35q32 0 46 13q17 15 28 50h225q0 -171 -74 -274t-188 -103q-69 0 -137 34t-105 34q-29 0 -45 -13q-12 -9 -28 -47z" />
    <glyph glyph-name="hungarumlaut" unicode="&#x2dd;" horiz-adv-x="1228" 
d="M410 1161h-336l176 336h420zM864 1161h-334l177 336h436z" />
    <glyph glyph-name="uni0326" unicode="&#x326;" horiz-adv-x="0" 
d="M334 -434l98 342h391l-209 -342h-280z" />
    <glyph glyph-name="Wgrave" unicode="&#x1e80;" horiz-adv-x="2293" 
d="M971 1681l-271 336h496l160 -336h-385zM2290 1556l-500 -1556h-354l-289 803l-291 -803h-352l-500 1556h447l241 -792l307 792h293l307 -792l242 792h449z" />
    <glyph glyph-name="wgrave" unicode="&#x1e81;" horiz-adv-x="1718" 
d="M682 1188l-270 336h495l160 -336h-385zM1714 1038l-403 -1038h-277l-174 420l-176 -420h-276l-404 1038h406l153 -471l182 471h228l182 -473l154 473h405z" />
    <glyph glyph-name="Wacute" unicode="&#x1e82;" horiz-adv-x="2293" 
d="M1335 1681h-385l160 336h496zM2290 1556l-500 -1556h-354l-289 803l-291 -803h-352l-500 1556h447l241 -792l307 792h293l307 -792l242 792h449z" />
    <glyph glyph-name="wacute" unicode="&#x1e83;" horiz-adv-x="1718" 
d="M1049 1188h-385l159 336h496zM1714 1038l-403 -1038h-277l-174 420l-176 -420h-276l-404 1038h406l153 -471l182 471h228l182 -473l154 473h405z" />
    <glyph glyph-name="Wdieresis" unicode="&#x1e84;" horiz-adv-x="2293" 
d="M893 1638q-94 0 -154 60q-59 59 -59 149q0 87 60 148t153 61t154 -61t61 -148q0 -89 -60 -149t-155 -60zM1401 1638q-94 0 -154 60q-59 59 -59 149q0 87 60 148t153 61q92 0 153 -61q62 -62 62 -148q0 -88 -61 -149q-60 -60 -154 -60zM2290 1556l-500 -1556h-354
l-289 803l-291 -803h-352l-500 1556h447l241 -792l307 792h293l307 -792l242 792h449z" />
    <glyph glyph-name="wdieresis" unicode="&#x1e85;" horiz-adv-x="1718" 
d="M606 1145q-94 0 -153 59q-60 60 -60 150q0 84 61 147q60 62 152 62t154 -62q61 -61 61 -147q0 -90 -60 -150q-59 -59 -155 -59zM1114 1145q-94 0 -153 59q-60 60 -60 150q0 84 61 147q60 62 152 62t154 -62q61 -61 61 -147q0 -90 -60 -150q-59 -59 -155 -59zM1714 1038
l-403 -1038h-277l-174 420l-176 -420h-276l-404 1038h406l153 -471l182 471h228l182 -473l154 473h405z" />
    <glyph glyph-name="Ygrave" unicode="&#x1ef2;" horiz-adv-x="1658" 
d="M653 1681l-270 336h496l159 -336h-385zM1042 481v-481h-442v477l-596 1079h463l364 -657l361 657h465z" />
    <glyph glyph-name="ygrave" unicode="&#x1ef3;" horiz-adv-x="1298" 
d="M477 1190l-270 336h495l160 -336h-385zM1294 1038l-696 -1611h-430l266 612l-430 999h428l209 -522l225 522h428z" />
    <glyph glyph-name="endash" unicode="&#x2013;" horiz-adv-x="1269" 
d="M1147 399h-1024v324h1024v-324z" />
    <glyph glyph-name="emdash" unicode="&#x2014;" horiz-adv-x="2560" 
d="M2437 399h-2314v324h2314v-324z" />
    <glyph glyph-name="quoteleft" unicode="&#x2018;" horiz-adv-x="665" 
d="M297 1556h315l-118 -651h-439v10z" />
    <glyph glyph-name="quoteright" unicode="&#x2019;" horiz-adv-x="665" 
d="M371 905h-316l117 651h440v-10z" />
    <glyph glyph-name="quotesinglbase" unicode="&#x201a;" horiz-adv-x="665" 
d="M371 -270h-316l117 651h440v-10z" />
    <glyph glyph-name="quotedblleft" unicode="&#x201c;" horiz-adv-x="1175" 
d="M297 1556h315l-118 -651h-439v10zM805 1556h315l-116 -651h-441v10z" />
    <glyph glyph-name="quotedblright" unicode="&#x201d;" horiz-adv-x="1175" 
d="M371 905h-316l117 651h440v-10zM879 905h-316l119 651h438v-10z" />
    <glyph glyph-name="quotedblbase" unicode="&#x201e;" horiz-adv-x="1175" 
d="M371 -270h-316l117 651h440v-10zM879 -270h-316l119 651h438v-10z" />
    <glyph glyph-name="dagger" unicode="&#x2020;" horiz-adv-x="804" 
d="M745 1372v-217h-225v-512h-235v512h-228v217h228v184h235v-184h225z" />
    <glyph glyph-name="daggerdbl" unicode="&#x2021;" horiz-adv-x="804" 
d="M520 1155v-108h225v-220h-225v-184h-235v184h-228v220h228v108h-228v217h228v184h235v-184h225v-217h-225z" />
    <glyph glyph-name="bullet" unicode="&#x2022;" horiz-adv-x="825" 
d="M412 915q159 0 267 -111q107 -110 107 -263q0 -159 -106 -265t-268 -106q-163 0 -268 106t-105 265q0 153 106 263q106 111 267 111z" />
    <glyph glyph-name="ellipsis" unicode="&#x2026;" horiz-adv-x="1703" 
d="M264 438q96 0 162 -67q66 -68 66 -158q0 -96 -65 -161q-64 -64 -163 -64t-162 64t-63 161q0 94 64 159q65 66 161 66zM852 438q97 0 161 -66q64 -65 64 -159q0 -97 -63 -161t-162 -64t-162 64q-63 65 -63 161q0 93 63 159t162 66zM1438 438q98 0 163 -66q64 -65 64 -159
q0 -97 -64 -161t-163 -64q-98 0 -161 64q-63 65 -63 161q0 92 64 159q63 66 160 66z" />
    <glyph glyph-name="perthousand" unicode="&#x2030;" horiz-adv-x="2721" 
d="M457 1587q156 0 266 -100q111 -101 111 -260q0 -157 -111 -258q-112 -101 -266 -101q-156 0 -268 101q-111 101 -111 258q0 159 111 260q110 100 268 100zM346 0l973 1556h211l-971 -1556h-213zM455 1358q-51 0 -91 -36t-40 -93q0 -59 40 -96t91 -37t91 37t40 96
q0 57 -40 93q-41 36 -91 36zM1415 690q156 0 266 -100q111 -100 111 -262q0 -158 -111 -258q-112 -101 -266 -101q-155 0 -267 101t-112 258q0 161 112 262q110 100 267 100zM2269 690q154 0 264 -100q111 -100 111 -262q0 -158 -111 -258q-112 -101 -264 -101
q-157 0 -269 101t-112 258q0 161 112 262q110 100 269 100zM1413 461q-51 0 -91 -36t-40 -95q0 -60 40 -96q39 -35 91 -35t91 35q40 36 40 96q0 59 -40 95t-91 36zM2267 461q-51 0 -91 -36t-40 -95q0 -60 40 -96q39 -35 91 -35t91 35q40 36 40 96q0 59 -40 95t-91 36z" />
    <glyph glyph-name="guilsinglleft" unicode="&#x2039;" horiz-adv-x="665" 
d="M51 537l195 364h368l-194 -364l194 -365h-368z" />
    <glyph glyph-name="guilsinglright" unicode="&#x203a;" horiz-adv-x="665" 
d="M51 172l195 365l-195 364h369l194 -364l-194 -365h-369z" />
    <glyph glyph-name="fraction" unicode="&#x2044;" horiz-adv-x="522" 
d="M-334 0l971 1556h213l-973 -1556h-211z" />
    <glyph glyph-name="zerosuperior" unicode="&#x2070;" horiz-adv-x="993" 
d="M500 1782q187 0 318 -116q130 -115 130 -300q0 -182 -130 -299t-318 -117q-191 0 -322 116t-131 300t131 300t322 116zM500 1184q77 0 130 50q52 49 52 132t-52 132q-53 50 -130 50q-80 0 -133 -50q-54 -51 -54 -132t54 -132q53 -50 133 -50z" />
    <glyph glyph-name="foursuperior" unicode="&#x2074;" horiz-adv-x="800" 
d="M780 1077h-98v-110h-246v110h-403v142l485 542h164v-483h98v-201zM436 1278v145l-123 -145h123z" />
    <glyph glyph-name="fivesuperior" unicode="&#x2075;" horiz-adv-x="716" 
d="M322 1489h75q139 0 213 -69t74 -185q0 -131 -86 -209t-229 -78q-139 0 -230 74q-90 74 -102 190l246 39q12 -86 82 -86q29 0 50 19q19 18 19 47q0 63 -74 63h-297l62 467h520v-225h-317z" />
    <glyph glyph-name="sixsuperior" unicode="&#x2076;" horiz-adv-x="733" 
d="M616 1761l-163 -231q106 -24 173 -103q66 -78 66 -188q0 -129 -96 -212q-97 -83 -234 -83q-132 0 -227 83q-94 82 -94 212q0 113 72 195l237 327h266zM362 1151q42 0 72 25q29 24 29 63t-29 66q-27 26 -72 26q-38 0 -64 -26q-28 -28 -28 -66q0 -36 28 -62t64 -26z" />
    <glyph glyph-name="sevensuperior" unicode="&#x2077;" horiz-adv-x="649" 
d="M633 1761v-59l-305 -735h-262l251 569h-301v225h617z" />
    <glyph glyph-name="eightsuperior" unicode="&#x2078;" horiz-adv-x="763" 
d="M592 1384q129 -56 129 -192q0 -104 -94 -173q-95 -69 -246 -69q-150 0 -243 69t-93 173q0 136 129 192q-98 52 -98 166q0 96 89 164t218 68t218 -68t89 -164q0 -114 -98 -166zM383 1593q-32 0 -53 -18t-21 -49q0 -30 22 -49t52 -19q28 0 51 20t23 48q0 31 -21 49t-53 18z
M385 1151q32 0 52 19q22 20 22 51t-23 49t-53 18q-33 0 -54 -18q-22 -19 -22 -49q0 -33 22 -52q21 -18 56 -18z" />
    <glyph glyph-name="ninesuperior" unicode="&#x2079;" horiz-adv-x="733" 
d="M692 1487q0 -111 -69 -191l-240 -331h-266l164 231q-107 24 -173 102q-67 79 -67 189q0 129 96 212q97 83 234 83q132 0 227 -83q94 -82 94 -212zM371 1575q-42 0 -72 -25q-29 -24 -29 -63t29 -66q27 -26 72 -26q38 0 64 26q28 28 28 66q0 36 -28 62t-64 26z" />
    <glyph glyph-name="zeroinferior" unicode="&#x2080;" horiz-adv-x="993" 
d="M500 553q187 0 318 -116q130 -115 130 -300q0 -182 -130 -299t-318 -117q-191 0 -322 116t-131 300t131 300t322 116zM500 -45q77 0 130 50q52 49 52 132t-52 132q-53 50 -130 50q-80 0 -133 -50q-54 -51 -54 -132t54 -132q53 -50 133 -50z" />
    <glyph glyph-name="oneinferior" unicode="&#x2081;" horiz-adv-x="514" 
d="M440 -262h-262v450l-166 -55v260l373 139h55v-794z" />
    <glyph glyph-name="twoinferior" unicode="&#x2082;" horiz-adv-x="747" 
d="M520 -41h164v-221h-621v43l265 323q104 126 104 172q0 25 -15 40q-16 16 -42 16q-27 0 -49 -25q-21 -24 -21 -74l-246 46q0 120 87 197q88 77 229 77q138 0 226 -74q87 -73 87 -203q0 -33 -7 -61q-8 -33 -31 -70q-29 -48 -32 -53q-5 -10 -47 -65q-11 -14 -21.5 -28
t-15.5 -20l-4 -6z" />
    <glyph glyph-name="threeinferior" unicode="&#x2083;" horiz-adv-x="727" 
d="M696 471l-159 -229q168 -55 168 -238q0 -128 -91 -207q-90 -78 -235 -78q-143 0 -237 74q-93 73 -105 191l246 39q15 -86 92 -86q37 0 58 18q22 19 22 47q0 29 -21 47q-22 19 -59 19h-180l-9 24l138 215h-250l6 225h616v-61z" />
    <glyph glyph-name="fourinferior" unicode="&#x2084;" horiz-adv-x="800" 
d="M780 -152h-98v-110h-246v110h-403v142l485 542h164v-483h98v-201zM436 49v146l-123 -146h123z" />
    <glyph glyph-name="fiveinferior" unicode="&#x2085;" horiz-adv-x="716" 
d="M322 260h75q139 0 213 -69t74 -185q0 -131 -86 -209t-229 -78q-139 0 -230 74q-90 73 -102 191l246 39q12 -86 82 -86q32 0 50 17q19 18 19 48q0 64 -74 64h-297l62 466h520v-225h-317z" />
    <glyph glyph-name="sixinferior" unicode="&#x2086;" horiz-adv-x="733" 
d="M616 532l-163 -231q107 -24 173 -102t66 -189q0 -130 -95 -213q-94 -82 -235 -82q-133 0 -227 82t-94 213q0 112 72 195l237 327h266zM362 -78q42 0 72 25q29 24 29 63t-29 66q-27 26 -72 26q-38 0 -64 -26q-28 -28 -28 -66q0 -36 28 -62t64 -26z" />
    <glyph glyph-name="seveninferior" unicode="&#x2087;" horiz-adv-x="649" 
d="M633 532v-59l-305 -735h-262l251 569h-301v225h617z" />
    <glyph glyph-name="eightinferior" unicode="&#x2088;" horiz-adv-x="763" 
d="M592 156q129 -56 129 -193q0 -104 -94 -173q-95 -69 -246 -69q-150 0 -243 69t-93 173q0 137 129 193q-98 52 -98 166q0 95 89 163t218 68t218 -68t89 -163q0 -114 -98 -166zM383 365q-31 0 -53 -19q-21 -18 -21 -49q0 -30 22 -49t52 -19q28 0 51 20t23 48q0 31 -21 49
q-22 19 -53 19zM385 -78q30 0 52 19t22 49q0 33 -23 51q-22 18 -53 18q-33 0 -54 -18q-22 -19 -22 -51q0 -30 22 -49t56 -19z" />
    <glyph glyph-name="nineinferior" unicode="&#x2089;" horiz-adv-x="733" 
d="M692 258q0 -110 -69 -190l-240 -332h-266l164 231q-106 24 -173 103t-67 188q0 130 96 212q97 83 234 83q132 0 227 -83q94 -82 94 -212zM371 346q-43 0 -72 -24t-29 -64q0 -38 29 -65t72 -27q37 0 64 27q28 28 28 65t-28 63q-26 25 -64 25z" />
    <glyph glyph-name="Euro" unicode="&#x20ac;" horiz-adv-x="1902" 
d="M1057 346q147 0 252 90q104 89 133 242l405 -119q-73 -266 -288 -428q-218 -164 -502 -164q-279 0 -494 158q-216 158 -293 407h-202v197h168l-3 47q0 13 3 43h-168v197h200q78 251 294 410t495 159q285 0 502 -163q216 -162 288 -425l-405 -123q-29 152 -133 243
t-252 91q-107 0 -195 -51t-141 -141h539l-50 -197h-548l-3 -43q0 -14 3 -47h524l-49 -197h-412q111 -186 332 -186z" />
    <glyph glyph-name="uni2116" unicode="&#x2116;" horiz-adv-x="3010" 
d="M2298 1577q255 0 430 -160q174 -159 174 -411q0 -250 -174 -409t-430 -159q-254 0 -428 159t-174 409q0 252 174 411q175 160 428 160zM1188 1556h424v-1556h-240l-840 799v-799h-423v1556h241l838 -821v821zM2296 776q102 0 169 67q66 66 66 163q0 98 -66 165
q-66 68 -169 68q-98 0 -164 -68q-66 -67 -66 -165q0 -97 66 -163q67 -67 164 -67z" />
    <glyph glyph-name="uni2117" unicode="&#x2117;" horiz-adv-x="1710" 
d="M856 1585q332 0 564 -231q233 -231 233 -582q0 -348 -233 -576q-234 -229 -564 -229t-565 229q-234 228 -234 576t234 581q233 232 565 232zM856 88q275 0 471 196q195 195 195 490q0 297 -195 495q-194 197 -471 197q-278 0 -472 -197q-196 -199 -196 -495
q0 -295 195 -490q196 -196 473 -196zM551 1174h399q156 0 240 -72t84 -195q0 -134 -93 -206t-251 -72h-142v-277h-237v822zM788 815h156q98 0 98 86q0 80 -98 80h-156v-166z" />
    <glyph glyph-name="trademark" unicode="&#x2122;" horiz-adv-x="1476" 
d="M633 1376h-174v-403h-213v403h-172v180h559v-180zM1382 973h-204v260l-99 -150h-88l-100 150v-260h-205v583h184l164 -241l162 241h186v-583z" />
    <glyph glyph-name="oneeighth" unicode="&#x215b;" horiz-adv-x="1603" 
d="M178 1212l-166 -55v260l373 139h55v-794h-262v450zM1321 1556l-971 -1556h-213l973 1556h211zM1432 424q129 -56 129 -193q0 -104 -95 -173q-93 -68 -245 -68q-151 0 -243 68q-93 69 -93 173q0 137 129 193q-99 52 -99 166q0 95 90 164q88 67 218 67t218 -67
q89 -68 89 -164q0 -114 -98 -166zM1223 633q-32 0 -54 -19q-20 -17 -20 -49q0 -31 21 -49t53 -18q29 0 51 19t22 48q0 32 -20 49q-22 19 -53 19zM1225 190q30 0 52 20q21 20 21 50q0 31 -22 49q-24 19 -53 19q-33 0 -55 -19q-21 -18 -21 -49q0 -33 21 -51q22 -19 57 -19z
" />
    <glyph glyph-name="threeeighths" unicode="&#x215c;" horiz-adv-x="1718" 
d="M705 1028q0 -128 -91 -207q-90 -78 -235 -78q-143 0 -237 74q-93 73 -105 191l246 39q15 -86 92 -86q37 0 58 18q22 19 22 47q0 29 -21 47q-22 19 -59 19h-180l-9 24l138 215h-250l6 225h616v-61l-159 -229q168 -56 168 -238zM1450 1556l-971 -1556h-213l973 1556h211z
M1548 424q129 -56 129 -193q0 -104 -94 -173q-93 -68 -246 -68q-150 0 -242 68q-94 70 -94 173q0 137 129 193q-98 52 -98 166q0 96 89 164q88 67 218 67q131 0 219 -67q89 -68 89 -164q0 -114 -99 -166zM1339 633q-31 0 -53 -19q-20 -17 -20 -49q0 -31 21 -49t52 -18
q30 0 52 19t22 48q0 32 -20 49q-22 19 -54 19zM1341 190q31 0 53 20q21 20 21 50q0 31 -22 49q-24 19 -54 19q-32 0 -54 -19q-21 -18 -21 -49q0 -33 21 -51q22 -19 56 -19z" />
    <glyph glyph-name="fiveeighths" unicode="&#x215d;" horiz-adv-x="1714" 
d="M684 1030q0 -131 -86 -209t-229 -78q-139 0 -230 74q-90 73 -102 191l246 39q12 -86 82 -86q31 0 50 18t19 47q0 64 -74 64h-297l62 466h520v-225h-317l-6 -47h75q139 0 213 -69t74 -185zM1444 1556l-973 -1556h-211l971 1556h213zM1542 424q129 -56 129 -193
q0 -104 -94 -173q-93 -68 -246 -68q-150 0 -242 68q-94 70 -94 173q0 137 129 193q-98 52 -98 166q0 96 89 164q88 67 218 67t218 -67q89 -68 89 -164q0 -114 -98 -166zM1333 633q-31 0 -53 -19q-20 -17 -20 -49q0 -31 21 -49t52 -18q29 0 51 19q23 20 23 48q0 31 -21 49
q-22 19 -53 19zM1335 190q31 0 53 20q21 20 21 50q0 31 -23 49q-24 19 -53 19q-32 0 -54 -19t-22 -49q0 -32 22 -51t56 -19z" />
    <glyph glyph-name="seveneighths" unicode="&#x215e;" horiz-adv-x="1531" 
d="M319 1331h-301v225h619v-59l-305 -735h-264zM1239 1556l-971 -1556h-213l971 1556h213zM1360 424q129 -56 129 -193q0 -104 -94 -173q-93 -68 -246 -68q-151 0 -243 68q-93 69 -93 173q0 137 129 193q-98 52 -98 166q0 96 89 164q88 67 218 67t218 -67q89 -68 89 -164
q0 -114 -98 -166zM1151 633q-31 0 -53 -19q-21 -18 -21 -49q0 -30 22 -49q21 -18 52 -18q29 0 51 19q23 20 23 48q0 31 -21 49q-22 19 -53 19zM1153 190q30 0 52 20t22 50q0 31 -23 49q-24 19 -53 19q-32 0 -54 -19t-22 -49q0 -32 22 -51t56 -19z" />
    <glyph glyph-name="arrowleft" unicode="&#x2190;" horiz-adv-x="1714" 
d="M1632 618h-925l276 -278l-238 -238l-684 684l684 684l238 -237l-276 -279h925v-336z" />
    <glyph glyph-name="arrowup" unicode="&#x2191;" horiz-adv-x="1531" 
d="M1212 649l-278 277v-926h-336v926l-279 -277l-237 238l684 684l684 -684z" />
    <glyph glyph-name="arrowright" unicode="&#x2192;" horiz-adv-x="1714" 
d="M1653 786l-684 -684l-238 238l277 278h-926v336h926l-277 279l238 237z" />
    <glyph glyph-name="arrowdown" unicode="&#x2193;" horiz-adv-x="1531" 
d="M1450 670l-684 -684l-684 684l237 237l279 -276v925h336v-925l278 276z" />
    <glyph glyph-name="uni2196" unicode="&#x2196;" horiz-adv-x="1710" 
d="M1391 -12l-994 995v-436h-336v1009h1008v-335l-434 -2l993 -994z" />
    <glyph glyph-name="uni2197" unicode="&#x2197;" horiz-adv-x="1710" 
d="M1649 1556v-1009h-338v434l-992 -993l-237 237l993 994l-434 2v335h1008z" />
    <glyph glyph-name="uni2198" unicode="&#x2198;" horiz-adv-x="1710" 
d="M1649 1010v-1010h-1008v336l434 2l-993 993l237 238l992 -994v435h338z" />
    <glyph glyph-name="uni2199" unicode="&#x2199;" horiz-adv-x="1710" 
d="M635 338l434 -2v-336h-1008v1010h336v-437l994 996l237 -238z" />
    <glyph glyph-name="minus" unicode="&#x2212;" horiz-adv-x="1153" 
d="M1081 461h-1009v311h1009v-311z" />
    <glyph glyph-name="approxequal" unicode="&#x2248;" horiz-adv-x="1146" 
d="M1075 954v-284q-103 -47 -227 -47q-117 0 -264 54t-254 54q-165 0 -258 -59v276q95 68 258 68q108 0 261 -54q156 -55 261 -55q132 0 223 47zM1075 598v-285q-105 -49 -227 -49q-118 0 -264 55q-148 56 -254 56q-159 0 -258 -60v275q96 69 258 69q108 0 261 -54t261 -54
q132 0 223 47z" />
    <glyph glyph-name="notequal" unicode="&#x2260;" horiz-adv-x="1153" 
d="M752 684l-60 -111h389v-294h-549l-100 -187h-272l100 187h-188v294h348l61 111h-409v295h569l84 156h270l-84 -156h170v-295h-329z" />
    <glyph glyph-name="lessequal" unicode="&#x2264;" horiz-adv-x="1024" 
d="M942 459l-879 209v374l879 213v-319l-520 -80l520 -86v-311zM942 418v-314h-879v314h879z" />
    <glyph glyph-name="greaterequal" unicode="&#x2265;" horiz-adv-x="1024" 
d="M602 856l-520 80v319l879 -213v-374l-879 -209v311zM963 104h-881v314h881v-314z" />
    <glyph glyph-name="K.ss03" horiz-adv-x="1738" 
d="M1757 0h-555l-346 461l-324 -461h-423v1556h423v-802l594 802h502l-514 -729z" />
    <glyph glyph-name="Kcommaaccent.ss03" horiz-adv-x="1738" 
d="M1757 0h-555l-346 461l-324 -461h-423v1556h423v-802l594 802h502l-514 -729zM674 -92h391l-209 -342h-281z" />
    <glyph glyph-name="Q.ss04" horiz-adv-x="1794" 
d="M1503 -287l-274 320q-162 -64 -332 -64q-348 0 -594 234t-246 573q0 338 246 574q245 235 594 235t594 -235q246 -236 246 -574q0 -306 -209 -536l248 -291zM897 346q23 0 59 4l-254 295l291 221l262 -307q56 100 56 217q0 182 -120 307t-294 125q-173 0 -295 -125
q-121 -124 -121 -307q0 -182 121 -306t295 -124z" />
    <glyph glyph-name="I.ss05" horiz-adv-x="1216" 
d="M819 1196v-836h316v-360h-1053v360h313v836h-313v360h1053v-360h-316z" />
    <glyph glyph-name="IJ.ss05" horiz-adv-x="2695" 
d="M1135 1556v-360h-316v-836h316v-360h-1053v360h313v836h-313v360h1053zM2601 1556v-856q0 -337 -187 -534q-188 -199 -497 -199q-257 0 -436 135q-178 134 -238 373l408 139q21 -120 91 -186t175 -66q116 0 187 95t71 262v477h-643v360h1069z" />
    <glyph glyph-name="Iacute.ss05" horiz-adv-x="1216" 
d="M791 1681h-385l159 336h496zM819 1196v-836h316v-360h-1053v360h313v836h-313v360h1053v-360h-316z" />
    <glyph glyph-name="Icircumflex.ss05" horiz-adv-x="1216" 
d="M537 1679h-390l242 338h428l242 -338h-387l-68 97zM819 1196v-836h316v-360h-1053v360h313v836h-313v360h1053v-360h-316z" />
    <glyph glyph-name="Idieresis.ss05" horiz-adv-x="1216" 
d="M348 1638q-93 0 -153 60t-60 149q0 85 61 148q60 61 152 61q93 0 154 -61t61 -148q0 -89 -60 -149t-155 -60zM856 1638q-94 0 -154 60q-59 59 -59 149q0 87 60 148t153 61t154 -61t61 -148q0 -89 -60 -149t-155 -60zM819 1196v-836h316v-360h-1053v360h313v836h-313v360
h1053v-360h-316z" />
    <glyph glyph-name="Idotaccent.ss05" horiz-adv-x="1216" 
d="M600 1638q-94 0 -154 60q-59 59 -59 149q0 87 60 148t153 61t154 -61t61 -148q0 -89 -60 -149t-155 -60zM819 1196v-836h316v-360h-1053v360h313v836h-313v360h1053v-360h-316z" />
    <glyph glyph-name="Igrave.ss05" horiz-adv-x="1216" 
d="M426 1681l-270 336h495l160 -336h-385zM819 1196v-836h316v-360h-1053v360h313v836h-313v360h1053v-360h-316z" />
    <glyph glyph-name="Imacron.ss05" horiz-adv-x="1216" 
d="M963 1683h-721v304h721v-304zM819 1196v-836h316v-360h-1053v360h313v836h-313v360h1053v-360h-316z" />
    <glyph glyph-name="Iogonek.ss05" horiz-adv-x="1216" 
d="M819 1196v-836h316v-360h-316q-3 -3 -11 -12t-13 -14l-22 -22q-3 -3 -17 -19q-3 -4 -9 -9.5t-7 -7.5q-3 -4 -11 -14q-2 -3 -5 -8l-4 -6q-2 -3 -6 -11q-2 -4 -4 -12q-1 -4 -1 -12q0 -48 57 -48q38 0 108 19l13 -219q-99 -51 -215 -51q-105 0 -170 55q-66 55 -66 147
q0 138 127 244h-481v360h313v836h-313v360h1053v-360h-316z" />
    <glyph glyph-name="J.ss05" horiz-adv-x="1480" 
d="M1384 1556v-856q0 -337 -187 -534q-188 -199 -497 -199q-257 0 -436 135q-176 133 -237 373l407 139q21 -120 91 -186q71 -66 175 -66q117 0 188 95q70 94 70 262v477h-643v360h1069z" />
    <glyph glyph-name="P.ss08" horiz-adv-x="1560" 
d="M109 1556h741q308 0 481 -164q174 -165 174 -442q0 -275 -179 -448q-178 -172 -476 -172h-318v-330h-423v1556zM532 690h302q111 0 193 73q81 72 81 187q0 112 -80 180t-194 68h-302v-508z" />
    <glyph glyph-name="R.ss08" horiz-adv-x="1634" 
d="M1602 0h-529l-266 330h-275v-330h-423v1556h741q308 0 481 -164q174 -165 174 -442q0 -172 -71 -305q-72 -136 -201 -215zM532 690h302q111 0 193 73q81 72 81 187q0 112 -80 180t-194 68h-302v-508z" />
    <glyph glyph-name="Racute.ss08" horiz-adv-x="1634" 
d="M938 1681h-385l160 336h495zM1602 0h-529l-266 330h-275v-330h-423v1556h741q308 0 481 -164q174 -165 174 -442q0 -172 -71 -305q-72 -136 -201 -215zM532 690h302q111 0 193 73q81 72 81 187q0 112 -80 180t-194 68h-302v-508z" />
    <glyph glyph-name="Rcaron.ss08" horiz-adv-x="1634" 
d="M537 1679l-242 338h389l68 -96l67 96h387l-241 -338h-428zM1602 0h-529l-266 330h-275v-330h-423v1556h741q308 0 481 -164q174 -165 174 -442q0 -172 -71 -305q-72 -136 -201 -215zM532 690h302q111 0 193 73q81 72 81 187q0 112 -80 180t-194 68h-302v-508z" />
    <glyph glyph-name="Rcommaaccent.ss08" horiz-adv-x="1634" 
d="M1602 0h-529l-266 330h-275v-330h-423v1556h741q308 0 481 -164q174 -165 174 -442q0 -172 -71 -305q-72 -136 -201 -215zM532 690h302q111 0 193 73q81 72 81 187q0 112 -80 180t-194 68h-302v-508zM604 -92h391l-209 -342h-280z" />
    <glyph glyph-name="E.ss09" horiz-adv-x="1343" 
d="M1278 360v-360h-1194v1556h1182v-360h-758v-231h743v-361h-743v-244h770z" />
    <glyph glyph-name="Eacute.ss09" horiz-adv-x="1343" 
d="M887 1681h-385l160 336h495zM1278 360v-360h-1194v1556h1182v-360h-758v-231h743v-361h-743v-244h770z" />
    <glyph glyph-name="Ecaron.ss09" horiz-adv-x="1343" 
d="M483 1679l-241 338h389l67 -96l68 96h387l-242 -338h-428zM1278 360v-360h-1194v1556h1182v-360h-758v-231h743v-361h-743v-244h770z" />
    <glyph glyph-name="Ecircumflex.ss09" horiz-adv-x="1343" 
d="M631 1679h-389l241 338h428l242 -338h-387l-68 97zM1278 360v-360h-1194v1556h1182v-360h-758v-231h743v-361h-743v-244h770z" />
    <glyph glyph-name="Edieresis.ss09" horiz-adv-x="1343" 
d="M444 1638q-93 0 -153 60t-60 149q0 85 61 148q60 61 152 61q93 0 154 -61t61 -148q0 -89 -60 -149t-155 -60zM952 1638q-93 0 -153 60t-60 149q0 85 61 148q60 61 152 61q93 0 154 -61t61 -148q0 -89 -60 -149t-155 -60zM1278 360v-360h-1194v1556h1182v-360h-758v-231
h743v-361h-743v-244h770z" />
    <glyph glyph-name="Edotaccent.ss09" horiz-adv-x="1343" 
d="M696 1638q-93 0 -153 60t-60 149q0 85 61 148q60 61 152 61q93 0 154 -61t61 -148q0 -89 -60 -149t-155 -60zM1278 360v-360h-1194v1556h1182v-360h-758v-231h743v-361h-743v-244h770z" />
    <glyph glyph-name="Egrave.ss09" horiz-adv-x="1343" 
d="M520 1681l-270 336h495l160 -336h-385zM1278 360v-360h-1194v1556h1182v-360h-758v-231h743v-361h-743v-244h770z" />
    <glyph glyph-name="Emacron.ss09" horiz-adv-x="1343" 
d="M1059 1683h-721v304h721v-304zM1278 360v-360h-1194v1556h1182v-360h-758v-231h743v-361h-743v-244h770z" />
    <glyph glyph-name="Eogonek.ss09" horiz-adv-x="1343" 
d="M1278 0h-86q-3 -3 -11.5 -12t-13.5 -14q-6 -6 -12.5 -13t-8.5 -9q-11 -11 -18 -19q-2 -3 -4.5 -5.5l-4.5 -4.5t-3.5 -4t-2.5 -3q-3 -4 -11 -14q-2 -2 -3.5 -5t-3 -5.5t-2.5 -3.5q-6 -9 -7 -11q-2 -4 -4 -12q-1 -4 -1 -12q0 -48 58 -48q38 0 108 19l13 -219
q-99 -51 -216 -51q-105 0 -170 55t-65 147q0 138 127 244h-852v1556h1182v-360h-758v-231h743v-361h-743v-244h770v-360z" />
    <glyph glyph-name="F.ss09" horiz-adv-x="1329" 
d="M532 1198v-233h707v-361h-707v-604h-423v1556h1187v-358h-764z" />
    <glyph glyph-name="M.ss10" horiz-adv-x="2050" 
d="M1942 1556v-1556h-414v700l-438 -594h-127l-441 596v-702h-413v1556h276l641 -886l639 886h277z" />
    <glyph glyph-name="N.ss12" horiz-adv-x="1755" 
d="M1647 1556v-1556h-424v444l-691 447v-891h-423v1556h241l873 -604v604h424z" />
    <glyph glyph-name="Nacute.ss12" horiz-adv-x="1755" 
d="M1038 1681h-385l160 336h496zM1647 1556v-1556h-424v444l-691 447v-891h-423v1556h241l873 -604v604h424z" />
    <glyph glyph-name="Ncaron.ss12" horiz-adv-x="1755" 
d="M637 1679l-242 338h389l68 -96l68 96h387l-242 -338h-428zM1647 1556v-1556h-424v444l-691 447v-891h-423v1556h241l873 -604v604h424z" />
    <glyph glyph-name="Ncommaaccent.ss12" horiz-adv-x="1755" 
d="M1647 1556v-1556h-424v444l-691 447v-891h-423v1556h241l873 -604v604h424zM741 -92h392l-209 -342h-281z" />
    <glyph glyph-name="Eng.ss12" horiz-adv-x="1720" 
d="M1647 1556v-1824q0 -155 -101 -241q-100 -85 -270 -85q-140 0 -285 43l41 324q108 -17 121 -17q70 0 70 68v620l-691 447v-891h-423v1556h241l873 -604v604h424z" />
    <glyph glyph-name="Ntilde.ss12" horiz-adv-x="1755" 
d="M764 1747q-30 0 -45 -12q-13 -11 -29 -47h-225q0 171 74 274q73 102 186 102q71 0 141 -35q72 -36 103 -36q32 0 46 13q15 14 27 50h226q0 -171 -74 -274t-188 -103q-70 0 -138 34t-104 34zM1647 1556v-1556h-424v444l-691 447v-891h-423v1556h241l873 -604v604h424z" />
    <glyph glyph-name="G.ss14" horiz-adv-x="1810" 
d="M1704 817v-817h-299l-25 160q-175 -193 -489 -193q-352 0 -593 235t-241 574q0 340 241 575q240 234 591 234q274 0 480 -128q205 -127 282 -349l-439 -104q-88 204 -323 204q-177 0 -291 -124q-115 -126 -115 -308q0 -183 116 -307q115 -123 294 -123q201 0 303 129
h-420v342h928z" />
    <glyph glyph-name="Gbreve.ss14" horiz-adv-x="1810" 
d="M893 1649q-177 0 -287 97t-110 255h309q0 -32 23 -55q25 -25 65 -25t65 25t25 55h307q0 -158 -110 -255t-287 -97zM1704 817v-817h-299l-25 160q-175 -193 -489 -193q-352 0 -593 235t-241 574q0 340 241 575q240 234 591 234q274 0 480 -128q205 -127 282 -349
l-439 -104q-88 204 -323 204q-177 0 -291 -124q-115 -126 -115 -308q0 -183 116 -307q115 -123 294 -123q201 0 303 129h-420v342h928z" />
    <glyph glyph-name="Gcommaaccent.ss14" horiz-adv-x="1810" 
d="M1704 817v-817h-299l-25 160q-175 -193 -489 -193q-352 0 -593 235t-241 574q0 340 241 575q240 234 591 234q274 0 480 -128q205 -127 282 -349l-439 -104q-88 204 -323 204q-177 0 -291 -124q-115 -126 -115 -308q0 -183 116 -307q115 -123 294 -123q201 0 303 129
h-420v342h928zM688 -92h391l-209 -342h-280z" />
    <glyph glyph-name="Gdotaccent.ss14" horiz-adv-x="1810" 
d="M891 1638q-94 0 -154 60q-59 59 -59 149q0 87 60 148t153 61q92 0 153 -61q62 -62 62 -148q0 -89 -60 -149t-155 -60zM1704 817v-817h-299l-25 160q-175 -193 -489 -193q-352 0 -593 235t-241 574q0 340 241 575q240 234 591 234q274 0 480 -128q205 -127 282 -349
l-439 -104q-88 204 -323 204q-177 0 -291 -124q-115 -126 -115 -308q0 -183 116 -307q115 -123 294 -123q201 0 303 129h-420v342h928z" />
    <glyph glyph-name="i.loclTRK" horiz-adv-x="612" 
d="M305 1563q92 0 154 -62q61 -61 61 -147q0 -90 -60 -150q-59 -59 -155 -59q-94 0 -153 59q-60 60 -60 150q0 84 61 147q60 62 152 62zM512 0h-412v1038h412v-1038z" />
    <glyph glyph-name="germandbls.case" horiz-adv-x="2770" 
d="M702 1585q250 0 417 -116q167 -115 204 -330l-412 -84q-39 188 -213 188q-62 0 -105 -31q-42 -30 -42 -82q0 -81 86 -110l287 -92q213 -72 312 -174t99 -279q0 -131 -54 -231t-146 -159q-91 -58 -200 -87q-110 -29 -224 -29q-260 0 -445 131q-184 130 -213 349l430 88
q45 -207 238 -207q77 0 120 30q44 30 44 84q0 86 -103 115l-284 84q-195 57 -297 163q-101 106 -101 279q0 239 168 369q169 131 434 131zM2089 1585q250 0 417 -116q166 -115 204 -330l-412 -84q-39 188 -213 188q-63 0 -106 -31q-42 -30 -42 -82q0 -81 86 -110l287 -92
q213 -72 312 -174q100 -103 100 -279q0 -131 -54 -231q-53 -99 -147 -159q-91 -58 -200 -87q-110 -29 -224 -29q-259 0 -444 131q-184 130 -213 349l430 88q45 -207 237 -207q77 0 120 30q44 30 44 84q0 86 -102 115l-285 84q-195 57 -297 163q-100 104 -100 279
q0 239 168 369q169 131 434 131z" />
    <glyph glyph-name="a.ss01" horiz-adv-x="1351" 
d="M1241 1038v-1038h-412v84q-112 -115 -292 -115q-219 0 -360 153q-140 152 -140 396q0 246 140 398q141 153 360 153q180 0 292 -115v84h412zM637 311q84 0 138 60t54 147q0 89 -54 149t-138 60q-83 0 -136 -60q-52 -59 -52 -149q0 -88 52 -147q53 -60 136 -60z" />
    <glyph glyph-name="aacute.ss01" horiz-adv-x="1351" 
d="M879 1188h-385l159 336h496zM1241 1038v-1038h-412v84q-112 -115 -292 -115q-219 0 -360 153q-140 152 -140 396q0 246 140 398q141 153 360 153q180 0 292 -115v84h412zM637 311q84 0 138 60t54 147q0 89 -54 149t-138 60q-83 0 -136 -60q-52 -59 -52 -149
q0 -88 52 -147q53 -60 136 -60z" />
    <glyph glyph-name="abreve.ss01" horiz-adv-x="1351" 
d="M690 1157q-177 0 -287 97t-110 255h309q0 -31 24 -55t64 -24q43 0 67 24q23 23 23 55h307q0 -158 -110 -255t-287 -97zM1241 1038v-1038h-412v84q-112 -115 -292 -115q-219 0 -360 153q-140 152 -140 396q0 246 140 398q141 153 360 153q180 0 292 -115v84h412zM637 311
q84 0 138 60t54 147q0 89 -54 149t-138 60q-83 0 -136 -60q-52 -59 -52 -149q0 -88 52 -147q53 -60 136 -60z" />
    <glyph glyph-name="acircumflex.ss01" horiz-adv-x="1351" 
d="M623 1186h-390l242 338h428l242 -338h-387l-68 96zM1241 1038v-1038h-412v84q-112 -115 -292 -115q-219 0 -360 153q-140 152 -140 396q0 246 140 398q141 153 360 153q180 0 292 -115v84h412zM637 311q84 0 138 60t54 147q0 89 -54 149t-138 60q-83 0 -136 -60
q-52 -59 -52 -149q0 -88 52 -147q53 -60 136 -60z" />
    <glyph glyph-name="adieresis.ss01" horiz-adv-x="1351" 
d="M436 1145q-94 0 -153 59q-60 60 -60 150q0 84 61 147q60 62 152 62t154 -62q61 -61 61 -147q0 -90 -60 -150q-59 -59 -155 -59zM944 1145q-94 0 -153 59q-60 60 -60 150q0 84 61 147q60 62 152 62t154 -62q61 -61 61 -147q0 -90 -60 -150q-59 -59 -155 -59zM1241 1038
v-1038h-412v84q-112 -115 -292 -115q-219 0 -360 153q-140 152 -140 396q0 246 140 398q141 153 360 153q180 0 292 -115v84h412zM637 311q84 0 138 60t54 147q0 89 -54 149t-138 60q-83 0 -136 -60q-52 -59 -52 -149q0 -88 52 -147q53 -60 136 -60z" />
    <glyph glyph-name="agrave.ss01" horiz-adv-x="1351" 
d="M512 1188l-270 336h495l160 -336h-385zM1241 1038v-1038h-412v84q-112 -115 -292 -115q-219 0 -360 153q-140 152 -140 396q0 246 140 398q141 153 360 153q180 0 292 -115v84h412zM637 311q84 0 138 60t54 147q0 89 -54 149t-138 60q-83 0 -136 -60q-52 -59 -52 -149
q0 -88 52 -147q53 -60 136 -60z" />
    <glyph glyph-name="amacron.ss01" horiz-adv-x="1351" 
d="M1051 1190h-721v303h721v-303zM1241 1038v-1038h-412v84q-112 -115 -292 -115q-219 0 -360 153q-140 152 -140 396q0 246 140 398q141 153 360 153q180 0 292 -115v84h412zM637 311q84 0 138 60t54 147q0 89 -54 149t-138 60q-83 0 -136 -60q-52 -59 -52 -149
q0 -88 52 -147q53 -60 136 -60z" />
    <glyph glyph-name="aogonek.ss01" horiz-adv-x="1351" 
d="M1296 -176l13 -219q-99 -51 -215 -51q-105 0 -170 55q-66 55 -66 147q0 138 127 244h-156v84q-112 -115 -292 -115q-219 0 -360 153q-140 152 -140 396q0 246 140 398q141 153 360 153q180 0 292 -115v84h412v-1038q-3 -3 -11 -12t-13 -14l-22 -22q-3 -3 -17 -19
q-4 -4 -9 -9.5t-7 -7.5q-3 -4 -11 -14q-2 -2 -3.5 -5t-3 -5.5t-2.5 -3.5q-2 -3 -6 -11q-2 -4 -4 -12t-2 -12q0 -48 58 -48q38 0 108 19zM637 311q84 0 138 60t54 147q0 89 -54 149t-138 60q-83 0 -136 -60q-52 -59 -52 -149q0 -88 52 -147q53 -60 136 -60z" />
    <glyph glyph-name="aring.ss01" horiz-adv-x="1351" 
d="M690 1137q-121 0 -200 78q-80 79 -80 194t80 194q79 78 200 78t200 -78q81 -80 81 -194q0 -115 -81 -194q-79 -78 -200 -78zM690 1489q-33 0 -57 -24q-25 -25 -25 -56q0 -29 25 -54q24 -24 57 -24q34 0 58 24t24 54q0 32 -24 56t-58 24zM1241 1038v-1038h-412v84
q-112 -115 -292 -115q-219 0 -360 153q-140 152 -140 396q0 246 140 398q141 153 360 153q180 0 292 -115v84h412zM637 311q84 0 138 60t54 147q0 89 -54 149t-138 60q-83 0 -136 -60q-52 -59 -52 -149q0 -88 52 -147q53 -60 136 -60z" />
    <glyph glyph-name="atilde.ss01" horiz-adv-x="1351" 
d="M604 1253q-30 0 -45 -12q-13 -11 -29 -47h-225q0 171 74 274t186 103q70 0 142 -36t102 -36q32 0 46 13q16 15 28 51h225q0 -172 -74 -275q-74 -102 -188 -102q-69 0 -137 34q-66 33 -105 33zM1241 1038v-1038h-412v84q-112 -115 -292 -115q-219 0 -360 153
q-140 152 -140 396q0 246 140 398q141 153 360 153q180 0 292 -115v84h412zM637 311q84 0 138 60t54 147q0 89 -54 149t-138 60q-83 0 -136 -60q-52 -59 -52 -149q0 -88 52 -147q53 -60 136 -60z" />
    <glyph glyph-name="l.ss02" horiz-adv-x="722" 
d="M489 1638v-1247q0 -31 20 -53q19 -21 52 -21q28 0 105 25l59 -295l-18 -10q-5 -3 -10 -5.5t-8 -3.5l-3 -2l-20 -11q-18 -9 -24 -11q-2 -1 -22 -9q-18 -8 -28 -9q-12 -2 -29 -6q-24 -6 -34 -7q-17 -2 -34 -3q-13 -1 -40 -1q-170 0 -274 106q-103 104 -103 279v1284h411z
" />
    <glyph glyph-name="lacute.ss02" horiz-adv-x="722" 
d="M485 1763h-385l160 336h496zM489 1638v-1247q0 -31 20 -53q19 -21 52 -21q28 0 105 25l59 -295l-18 -10q-5 -3 -10 -5.5t-8 -3.5l-3 -2l-20 -11q-18 -9 -24 -11q-2 -1 -22 -9q-18 -8 -28 -9q-12 -2 -29 -6q-24 -6 -34 -7q-17 -2 -34 -3q-13 -1 -40 -1q-170 0 -274 106
q-103 104 -103 279v1284h411z" />
    <glyph glyph-name="lcaron.ss02" horiz-adv-x="722" 
d="M489 1638v-1247q0 -31 20 -53q19 -21 52 -21q28 0 105 25l59 -295l-18 -10q-5 -3 -10 -5.5t-8 -3.5l-3 -2l-20 -11q-18 -9 -24 -11q-2 -1 -22 -9q-18 -8 -28 -9q-12 -2 -29 -6q-24 -6 -34 -7q-17 -2 -34 -3q-13 -1 -40 -1q-170 0 -274 106q-103 104 -103 279v1284h411z
M852 1229h-270v409h360z" />
    <glyph glyph-name="lcommaaccent.ss02" horiz-adv-x="722" 
d="M489 1638v-1247q0 -31 20 -53q19 -21 52 -21q28 0 105 25l59 -295l-18 -10q-5 -3 -10 -5.5t-8 -3.5l-3 -2l-20 -11q-18 -9 -24 -11q-2 -1 -22 -9q-18 -8 -28 -9q-12 -2 -29 -6q-24 -6 -34 -7q-17 -2 -34 -3q-13 -1 -40 -1q-170 0 -274 106q-103 104 -103 279v1284h411z
M106 -434l99 342h391l-209 -342h-281z" />
    <glyph glyph-name="ldot.ss02" horiz-adv-x="1028" 
d="M522 1638v-1247q0 -74 72 -74q27 0 104 25l60 -295q-16 -9 -40 -21.5t-31 -16.5q-14 -8 -79 -25q-57 -15 -121 -15q-168 0 -274 106q-104 104 -104 279v1284h413zM803 948q92 0 154 -62q63 -63 63 -149q0 -89 -62 -149t-155 -60q-94 0 -154 60q-59 59 -59 149
q0 86 60 149q59 62 153 62z" />
    <glyph glyph-name="lslash.ss02" horiz-adv-x="847" 
d="M705 342l59 -295l-19 -10q-5 -3 -10 -5.5l-7 -3.5l-3 -2l-20 -11q-18 -9 -24 -11q-7 -2 -23 -9q-19 -8 -27 -9q-12 -2 -29 -6q-24 -6 -34 -7q-17 -2 -34 -3q-13 -1 -40 -1q-170 0 -274 106q-103 104 -103 279v113l-90 -45v379l90 45v792h411v-585l109 55v-379l-109 -55
v-283q0 -31 20 -53q20 -21 52 -21q28 0 105 25z" />
    <glyph glyph-name="k.ss03" horiz-adv-x="1384" 
d="M1393 0h-539l-170 205l-162 -205h-413v1638h413v-983l332 383h483l-399 -508z" />
    <glyph glyph-name="kcommaaccent.ss03" horiz-adv-x="1384" 
d="M1393 0h-539l-170 205l-162 -205h-413v1638h413v-983l332 383h483l-399 -508zM520 -92h391l-209 -342h-280z" />
    <glyph glyph-name="g.ss06" horiz-adv-x="1351" 
d="M1241 1038v-1136q0 -230 -187 -363t-456 -133q-378 0 -541 283l267 215q117 -170 280 -170q96 0 161 47q64 46 64 145v158q-112 -115 -292 -115q-219 0 -360 153q-140 152 -140 396q0 246 140 398q141 153 360 153q180 0 292 -115v84h412zM637 311q84 0 138 60t54 147
q0 89 -54 149t-138 60q-83 0 -136 -60q-52 -59 -52 -149q0 -88 52 -147q53 -60 136 -60z" />
    <glyph glyph-name="gbreve.ss06" horiz-adv-x="1351" 
d="M678 1157q-177 0 -287 97t-110 255h309q0 -32 23 -55q24 -24 65 -24q42 0 66 24t24 55h307q0 -158 -110 -255t-287 -97zM1241 1038v-1136q0 -230 -187 -363t-456 -133q-378 0 -541 283l267 215q117 -170 280 -170q96 0 161 47q64 46 64 145v158q-112 -115 -292 -115
q-219 0 -360 153q-140 152 -140 396q0 246 140 398q141 153 360 153q180 0 292 -115v84h412zM637 311q84 0 138 60t54 147q0 89 -54 149t-138 60q-83 0 -136 -60q-52 -59 -52 -149q0 -88 52 -147q53 -60 136 -60z" />
    <glyph glyph-name="gcommaaccent.ss06" horiz-adv-x="1351" 
d="M815 1180h-391l209 342h280zM1241 1038v-1136q0 -230 -187 -363t-456 -133q-378 0 -541 283l267 215q117 -170 280 -170q96 0 161 47q64 46 64 145v158q-112 -115 -292 -115q-219 0 -360 153q-140 152 -140 396q0 246 140 398q141 153 360 153q180 0 292 -115v84h412z
M637 311q84 0 138 60t54 147q0 89 -54 149t-138 60q-83 0 -136 -60q-52 -59 -52 -149q0 -88 52 -147q53 -60 136 -60z" />
    <glyph glyph-name="gdotaccent.ss06" horiz-adv-x="1351" 
d="M676 1145q-95 0 -154 59t-59 150q0 86 60 147q60 62 153 62q91 0 153 -62t62 -147q0 -89 -61 -150q-59 -59 -154 -59zM1241 1038v-1136q0 -230 -187 -363t-456 -133q-378 0 -541 283l267 215q117 -170 280 -170q96 0 161 47q64 46 64 145v158q-112 -115 -292 -115
q-219 0 -360 153q-140 152 -140 396q0 246 140 398q141 153 360 153q180 0 292 -115v84h412zM637 311q84 0 138 60t54 147q0 89 -54 149t-138 60q-83 0 -136 -60q-52 -59 -52 -149q0 -88 52 -147q53 -60 136 -60z" />
    <glyph glyph-name="y.ss07" horiz-adv-x="1298" 
d="M1188 1038v-1140q0 -220 -169 -356t-441 -136q-386 0 -549 283l266 215q117 -170 285 -170q90 0 143 48t53 124v203q-128 -140 -307 -140q-176 0 -281 114q-104 113 -104 310v645h412v-557q0 -66 35 -105q36 -40 96 -40q69 0 109 49t40 139v514h412z" />
    <glyph glyph-name="yacute.ss07" horiz-adv-x="1298" 
d="M819 1188h-385l160 336h496zM1188 1038v-1140q0 -220 -169 -356t-441 -136q-386 0 -549 283l266 215q117 -170 285 -170q90 0 143 48t53 124v203q-128 -140 -307 -140q-176 0 -281 114q-104 113 -104 310v645h412v-557q0 -66 35 -105q36 -40 96 -40q69 0 109 49t40 139
v514h412z" />
    <glyph glyph-name="ycircumflex.ss07" horiz-adv-x="1298" 
d="M563 1186h-389l242 338h428l241 -338h-387l-67 96zM1188 1038v-1140q0 -220 -169 -356t-441 -136q-386 0 -549 283l266 215q117 -170 285 -170q90 0 143 48t53 124v203q-128 -140 -307 -140q-176 0 -281 114q-104 113 -104 310v645h412v-557q0 -66 35 -105q36 -40 96 -40
q69 0 109 49t40 139v514h412z" />
    <glyph glyph-name="ydieresis.ss07" horiz-adv-x="1298" 
d="M377 1145q-95 0 -154 59t-59 150q0 86 60 147q60 62 153 62q91 0 153 -62t62 -147q0 -89 -61 -150q-59 -59 -154 -59zM885 1145q-95 0 -154 59t-59 150q0 86 60 147q60 62 153 62q91 0 153 -62t62 -147q0 -89 -61 -150q-59 -59 -154 -59zM1188 1038v-1140
q0 -220 -169 -356t-441 -136q-386 0 -549 283l266 215q117 -170 285 -170q90 0 143 48t53 124v203q-128 -140 -307 -140q-176 0 -281 114q-104 113 -104 310v645h412v-557q0 -66 35 -105q36 -40 96 -40q69 0 109 49t40 139v514h412z" />
    <glyph glyph-name="ygrave.ss07" horiz-adv-x="1298" 
d="M453 1188l-271 336h496l160 -336h-385zM1188 1038v-1140q0 -220 -169 -356t-441 -136q-386 0 -549 283l266 215q117 -170 285 -170q90 0 143 48t53 124v203q-128 -140 -307 -140q-176 0 -281 114q-104 113 -104 310v645h412v-557q0 -66 35 -105q36 -40 96 -40
q69 0 109 49t40 139v514h412z" />
    <glyph glyph-name="germandbls.ss11" horiz-adv-x="1523" 
d="M1419 961l-297 -549q181 -39 274 -158q93 -118 93 -299q0 -249 -163 -399q-164 -150 -427 -150q-196 0 -346 93t-207 251l363 164q24 -74 78 -111q52 -36 118 -36q81 0 134 49q55 50 55 129q0 77 -54 126q-52 48 -141 48h-240l-28 106l264 494h-373v-719h-413v1227
q0 199 118 320q119 122 312 122q119 0 233 -47l-80 -305q-39 10 -65 10q-47 0 -76 -27t-29 -71v-191h897v-77z" />
    <glyph glyph-name="j.ss13" horiz-adv-x="618" 
d="M309 1567q99 0 163 -66q65 -67 65 -155q0 -95 -65 -158q-66 -64 -163 -64q-100 0 -164 64q-63 63 -63 158q0 92 64 156q65 65 163 65zM516 -573h-414v1611h414v-1611z" />
    <glyph glyph-name="ij.ss13" horiz-adv-x="1236" 
d="M309 1567q99 0 163 -66q65 -67 65 -155q0 -95 -65 -158q-66 -64 -163 -64q-100 0 -164 64q-63 63 -63 158q0 92 64 156q65 65 163 65zM928 1567q98 0 163 -66q64 -65 64 -155q0 -95 -64 -158q-66 -64 -163 -64q-100 0 -164 64t-64 158q0 91 65 156t163 65zM516 0h-414
v1038h414v-1038zM1135 -573h-414v1611h414v-1611z" />
    <glyph glyph-name="f_j" horiz-adv-x="1392" 
d="M1311 1038v-1253q0 -169 -102 -274t-269 -105q-120 0 -227 51l53 289q44 -10 65 -10q32 0 50 22q18 23 18 62v899h-338v-719h-411v719h-150v319h150v138q0 220 159 357q158 136 410 136q198 0 403 -123l-151 -303q-99 84 -219 84q-86 0 -138 -48q-53 -48 -53 -128v-113
h750z" />
    <glyph glyph-name="f_f_f" horiz-adv-x="2285" 
d="M1987 1038h301v-319h-301v-719h-412v719h-301v-719h-412v719h-301v-719h-411v719h-150v319h150v138q0 220 159 357q158 136 410 136q176 0 356 -96q151 96 357 96q166 0 323 -78q112 78 266 78q158 0 279 -100l-133 -266q-35 24 -80 24t-73 -28q-27 -27 -27 -72v-189z
M862 1038v138q0 59 17 127q-63 24 -127 24q-86 0 -138 -48q-53 -48 -53 -128v-113h301zM1575 1038v187q0 41 6 82q-49 20 -115 20q-84 0 -138 -48t-54 -128v-113h301z" />
    <glyph glyph-name="f_k" horiz-adv-x="2129" 
d="M1622 0l-305 356v-356h-414v719h-342v-719h-411v719h-150v319h150v138q0 220 159 357q158 136 410 136q100 0 205 -31h393v-964l295 364h497l-413 -520l440 -518h-514zM903 1038v252q-71 37 -151 37q-86 0 -138 -48q-53 -48 -53 -128v-113h342z" />
    <glyph glyph-name="f_f_k" horiz-adv-x="2930" 
d="M2423 0l-305 356v-356h-412v719h-360v-719h-412v719h-373v-719h-411v719h-150v319h150v138q0 220 159 357q158 136 410 136q195 0 397 -119q154 119 387 119q103 0 207 -31h408v-964l295 364h497l-413 -520l442 -518h-516zM934 1038v138q0 48 8 90q-85 61 -190 61
q-86 0 -138 -48q-53 -48 -53 -128v-113h373zM1706 1038v242q-79 47 -168 47q-84 0 -138 -48t-54 -128v-113h360z" />
    <glyph glyph-name="r_t" horiz-adv-x="1794" 
d="M1473 719v-305q0 -45 26 -68q27 -24 70 -24q71 0 121 28l73 -305q-143 -76 -301 -76q-182 0 -292 108q-109 108 -109 285v357h-121q-188 0 -303 -115t-115 -295v-309h-413v1038h413v-129q150 129 344 129h195v320l412 117v-437h319v-319h-319z" />
    <glyph glyph-name="f_k.ss03" horiz-adv-x="2177" 
d="M2185 0h-538l-170 205l-162 -205h-414v719h-340v-719h-411v719h-150v319h150v138q0 220 159 357q158 136 410 136q100 0 205 -31h391v-983l332 383h483l-399 -508zM901 1038v252q-71 37 -149 37q-86 0 -138 -48q-53 -48 -53 -128v-113h340z" />
    <glyph glyph-name="f_f_k.ss03" horiz-adv-x="3061" 
d="M2988 0h-539l-170 205l-161 -205h-412v719h-360v-719h-412v719h-373v-719h-411v719h-150v319h150v138q0 220 159 357q158 136 410 136q195 0 397 -119q154 119 387 119q103 0 207 -31h408v-983l331 383h484l-400 -508zM934 1038v138q0 48 8 90q-85 61 -190 61
q-86 0 -138 -48q-53 -48 -53 -128v-113h373zM1706 1038v242q-79 47 -168 47q-84 0 -138 -48t-54 -128v-113h360z" />
    <glyph glyph-name="fl.ss02" horiz-adv-x="1517" 
d="M1460 342l60 -295l-19 -10q-5 -3 -10 -5.5l-7 -3.5l-3 -2l-21 -11q-20 -10 -23 -11q-7 -2 -23 -9q-18 -8 -28 -9q-9 -1 -28 -6q-24 -6 -34 -7q-13 -1 -35 -3q-13 -1 -40 -1q-169 0 -273 106t-104 279v365h-311v-719h-411v719h-150v319h150v138q0 220 159 357
q158 136 410 136q100 0 205 -31h360v-1247q0 -31 20 -53q20 -21 52 -21q27 0 104 25zM872 1038v267q-54 22 -120 22q-86 0 -138 -48q-53 -48 -53 -128v-113h311z" />
    <glyph glyph-name="f_h" horiz-adv-x="2093" 
d="M1626 1069q172 0 277 -114q104 -113 104 -310v-645h-412v557q0 67 -36 106t-95 39q-67 0 -107 -49t-40 -139v-514h-414v719h-342v-719h-411v719h-150v319h150v138q0 220 159 357q158 136 410 136q100 0 205 -31h393v-708q127 139 309 139zM903 1038v252q-71 37 -151 37
q-86 0 -138 -48q-53 -48 -53 -128v-113h342z" />
    <glyph glyph-name="t_z" horiz-adv-x="1900" 
d="M1855 987l-342 -573q188 -39 282 -157q95 -119 95 -302q0 -249 -163 -399t-427 -150q-196 0 -346 93q-148 92 -206 251l362 164q24 -73 79 -111q52 -36 118 -36q81 0 134 49q54 50 54 129q0 78 -53 126q-52 48 -142 48h-327l-29 74l316 526h-699v-305q0 -44 27 -68
t69 -24q72 0 121 28l74 -305q-143 -76 -301 -76q-182 0 -292 108q-109 108 -109 285v357h-158v319h158v320l411 117v-437h1294v-51z" />
    <glyph glyph-name="y_t" horiz-adv-x="2181" 
d="M1860 719v-305q0 -45 26 -68q27 -24 70 -24q72 0 121 28l73 -305q-143 -76 -301 -76q-181 0 -291 108t-110 285v357h-291l-559 -1292h-430l266 612l-430 999h428l209 -522l225 522h582v320l412 117v-437h319v-319h-319z" />
    <glyph glyph-name="L_A" horiz-adv-x="2732" 
d="M2732 0h-455l-90 201h-628l-91 -201h-1359v1556h423v-1196h654l571 1196h232zM2030 551l-156 346l-156 -346h312z" />
    <glyph glyph-name="R_A" horiz-adv-x="3192" 
d="M3193 0h-455l-90 201h-627l-92 -201h-766l-479 575h-152v-575h-423v1556h704q253 0 402 -136q151 -137 151 -353q0 -143 -64 -250q-65 -109 -184 -172l428 -495l672 1406h231zM532 922h240q85 0 132 41q46 40 46 104q0 62 -46 102q-47 41 -132 41h-240v-288zM2490 551
l-153 346l-158 -346h311z" />
    <glyph glyph-name="t_i" horiz-adv-x="1501" 
d="M1190 1124q-97 0 -163 64q-64 63 -64 158q0 90 64 155q65 66 163 66t164 -66q65 -65 65 -155q0 -96 -65 -158q-67 -64 -164 -64zM1397 1038v-1038h-412v719h-424v-305q0 -44 27 -68t69 -24q72 0 121 28l74 -305q-143 -76 -301 -76q-182 0 -292 108q-109 108 -109 285v357
h-158v319h158v320l411 117v-437h836z" />
    <glyph glyph-name="t_h" horiz-adv-x="2179" 
d="M1712 1069q174 0 279 -114q104 -113 104 -310v-645h-412v557q0 67 -36 106t-95 39q-69 0 -109 -49t-40 -139v-514h-412v719h-430v-305q0 -44 27 -68t69 -24q72 0 121 28l74 -305q-143 -76 -301 -76q-182 0 -292 108q-109 108 -109 285v357h-158v319h158v320l411 117v-437
h430v600h412v-710q125 141 309 141z" />
    <glyph glyph-name="t_u" horiz-adv-x="2158" 
d="M2050 1036v-1038h-412v108q-127 -139 -307 -139q-175 0 -280 114t-105 310v328h-385v-305q0 -44 27 -68t69 -24q72 0 121 28l74 -305q-143 -76 -301 -76q-182 0 -292 108q-109 108 -109 285v357h-158v319h158v320l411 117v-437h510v-2h289v-557q0 -65 36 -105t93 -40
q69 0 109 49t40 139v514h412z" />
    <glyph glyph-name="t_y" horiz-adv-x="2095" 
d="M2091 1038l-696 -1611h-430l266 612l-293 680h-377v-305q0 -44 27 -68t69 -24q72 0 121 28l74 -305q-143 -76 -301 -76q-182 0 -292 108q-109 108 -109 285v357h-158v319h158v320l411 117v-437h668l209 -522l225 522h428z" />
    <glyph glyph-name="w_w_w" horiz-adv-x="4564" 
d="M4563 1038l-406 -1038h-276l-172 420l-176 -420h-277l-262 670l-260 -670h-276l-174 420l-175 -420h-276l-262 670l-260 -670h-277l-174 420l-176 -420h-276l-404 1038h406l153 -471l182 471h228l182 -473l154 473h526l152 -471l182 471h227l182 -473l154 473h526
l154 -469l180 469h230l182 -473l151 473h408z" />
    <glyph glyph-name="W_W_W" horiz-adv-x="5967" 
d="M5966 1556l-500 -1556h-354l-289 803l-291 -803h-354l-275 858l-276 -858h-352l-289 803l-291 -803h-354l-275 858l-276 -858h-354l-289 803l-291 -803h-352l-500 1556h447l241 -792l307 792h293l307 -792l242 792h449l241 -792l308 792h290l310 -792l239 792h449
l241 -792l308 792h292l308 -792l241 792h449z" />
    <glyph glyph-name="r_f" horiz-adv-x="1783" 
d="M1485 1038h299v-319h-299v-719h-414v719h-131q-188 0 -303 -115t-115 -295v-309h-413v1038h413v-129q150 129 344 129h205v187q0 198 126 321t321 123q157 0 278 -100l-131 -266q-39 24 -80 24q-46 0 -74 -28q-26 -26 -26 -72v-189z" />
    <glyph glyph-name="E_R" horiz-adv-x="3020" 
d="M3078 0h-512l-510 608h-121v-608h-424v608h-979v-248h748v-360h-1171v1556h1157v-360h-734v-254h979v614h705q250 0 401 -132q152 -132 152 -341q0 -139 -70 -249q-69 -108 -196 -168zM1935 942h248q77 0 124 39q46 39 46 102q0 59 -46 93t-124 34h-248v-268z" />
    <glyph glyph-name="f_f_j" horiz-adv-x="2105" 
d="M2023 1038v-1253q0 -170 -101 -274q-102 -105 -267 -105q-123 0 -230 51l54 289q49 -10 65 -10q31 0 49 22q19 24 19 62v899h-338v-719h-412v719h-301v-719h-411v719h-150v319h150v138q0 220 159 357q158 136 410 136q176 0 356 -96q151 96 357 96q198 0 403 -123
l-152 -303q-99 84 -217 84q-84 0 -138 -48t-54 -128v-113h749zM862 1038v138q0 59 17 127q-63 24 -127 24q-86 0 -138 -48q-53 -48 -53 -128v-113h301z" />
    <glyph glyph-name="f_f_l.ss02" horiz-adv-x="2232" 
d="M2175 342l57 -295l-18 -10q-5 -3 -10 -5.5t-8 -3.5l-3 -2l-20 -11q-18 -9 -24 -11q-2 -1 -22 -9q-18 -8 -28 -9q-9 -1 -28 -6q-24 -6 -34 -7q-13 -1 -35 -3q-13 -1 -40 -1q-169 0 -273 106t-104 279v365h-311v-719h-412v719h-301v-719h-411v719h-150v319h150v138
q0 220 159 357q158 136 410 136q176 0 356 -96q151 96 357 96q100 0 204 -31h361v-1247q0 -33 19 -53q20 -21 52 -21q26 0 107 25zM862 1038v138q0 59 17 127q-63 24 -127 24q-86 0 -138 -48q-53 -48 -53 -128v-113h301zM1585 1038v267q-51 22 -119 22q-84 0 -138 -48
t-54 -128v-113h311z" />
    <glyph glyph-name="f_f_j.ss13" horiz-adv-x="2068" 
d="M1987 1038v-1611h-412v1292h-301v-719h-412v719h-301v-719h-411v719h-150v319h150v138q0 220 159 357q158 136 410 136q176 0 356 -96q151 96 357 96q198 0 403 -123l-152 -303q-99 84 -217 84q-84 0 -138 -48t-54 -128v-113h713zM862 1038v138q0 59 17 127
q-63 24 -127 24q-86 0 -138 -48q-53 -48 -53 -128v-113h301z" />
    <glyph glyph-name="f_j.ss13" horiz-adv-x="1355" 
d="M1274 1038v-1611h-412v1292h-301v-719h-411v719h-150v319h150v138q0 220 159 357q158 136 410 136q198 0 403 -123l-151 -303q-99 84 -219 84q-86 0 -138 -48q-53 -48 -53 -128v-113h713z" />
    <glyph glyph-name="zero.osf" horiz-adv-x="1445" 
d="M723 1288q290 0 487 -191q199 -193 199 -466q0 -278 -199 -468t-487 -190q-290 0 -489 190q-197 188 -197 468q0 276 199 467q197 190 487 190zM723 334q121 0 200 85q78 84 78 212q0 126 -78 210q-79 85 -200 85t-200 -85t-79 -210q0 -127 79 -212t200 -85z" />
    <glyph glyph-name="one.osf" horiz-adv-x="1253" 
d="M1206 371v-371h-1097v371h348v399l-262 -78v379l618 197h78v-897h315z" />
    <glyph glyph-name="two.osf" horiz-adv-x="1267" 
d="M1198 375v-375h-1145h-4v125l506 434q95 84 132 135q38 52 38 107q0 56 -34 90q-35 35 -89 35q-60 0 -104 -44q-45 -45 -52 -126l-403 75q15 211 165 334t392 123q249 0 401 -128t152 -337q0 -79 -21 -147q-20 -66 -71 -127q-47 -57 -79 -89t-95 -85h311z" />
    <glyph glyph-name="three.osf" horiz-adv-x="1323" 
d="M1278 1128l-352 -454q168 -43 255 -158q87 -114 87 -289q0 -249 -166 -399t-434 -150q-260 0 -436 141q-174 140 -191 388l416 78q2 -126 66 -186q65 -60 153 -60q82 0 138 49t56 129q0 79 -55 125q-56 47 -145 47h-324l-20 51l325 459h-520l8 369h1139v-140z" />
    <glyph glyph-name="four.osf" horiz-adv-x="1531" 
d="M1530 0h-250v-317h-406v317h-837v244l964 1024h279v-897h250v-371zM874 371v303l-284 -303h284z" />
    <glyph glyph-name="five.osf" horiz-adv-x="1318" 
d="M522 721h189q270 0 415 -134q144 -134 144 -366q0 -246 -166 -394q-167 -149 -434 -149q-256 0 -432 141q-177 142 -193 388l414 78q5 -126 67 -187t150 -61q81 0 140 50q58 49 58 130q0 79 -55 125q-56 47 -147 47h-574l121 879h981v-375h-653z" />
    <glyph glyph-name="six.osf" horiz-adv-x="1353" 
d="M1092 1556l-304 -452q219 -34 365 -189q143 -152 143 -376q0 -251 -180 -410q-181 -160 -440 -160q-257 0 -438 160t-181 410q0 179 97 317l477 700h461zM676 332q91 0 154 59q65 60 65 148q0 89 -65 151t-154 62q-88 0 -153 -62q-64 -61 -64 -151q0 -88 64 -148
q63 -59 153 -59z" />
    <glyph glyph-name="seven.osf" horiz-adv-x="1306" 
d="M1262 1268v-127l-623 -1430h-475l532 1182h-633v375h1199z" />
    <glyph glyph-name="eight.osf" horiz-adv-x="1361" 
d="M1036 809q254 -108 254 -379q0 -201 -169 -331t-441 -130q-270 0 -439 130t-169 331q0 271 252 379q-199 107 -199 330q0 187 161 318q160 130 394 130q236 0 397 -130q162 -131 162 -318q0 -229 -203 -330zM680 1262q-67 0 -117 -44q-49 -43 -49 -112q0 -70 49 -115
t117 -45q70 0 120 45t50 115q0 69 -50 113q-49 43 -120 43zM680 311q74 0 126 45t52 119q0 71 -53 118q-52 46 -125 46q-70 0 -122 -46t-52 -118q0 -74 51 -119t123 -45z" />
    <glyph glyph-name="nine.osf" horiz-adv-x="1366" 
d="M1296 719q0 -181 -96 -318l-477 -700h-461l303 453q-219 34 -364 188q-144 153 -144 377q0 249 181 409t440 160q257 0 438 -160q180 -159 180 -409zM459 719q0 -91 64 -152t155 -61q88 0 152 61q65 62 65 152q0 87 -65 147q-64 60 -152 60q-90 0 -155 -60
q-64 -60 -64 -147z" />
    <glyph glyph-name="zero.tf" 
d="M686 1587q295 0 475 -223q180 -224 180 -588q0 -366 -180 -586q-180 -221 -475 -221t-475 221q-180 220 -180 586q0 364 180 588q180 223 475 223zM686 326q109 0 169 112t60 338q0 224 -60 336q-60 113 -169 113t-169 -113q-60 -112 -60 -336q0 -226 60 -338t169 -112z
" />
    <glyph glyph-name="one.tf" 
d="M1272 371v-371h-1172v371h394v669l-340 -100v395l696 221h78v-1185h344z" />
    <glyph glyph-name="two.tf" 
d="M1298 375v-375h-1204h-2v125l617 682q135 147 135 260q0 72 -43 115t-113 43q-169 0 -192 -224l-404 74q15 230 181 371t425 141q261 0 419 -142q159 -143 159 -376q0 -53 -12 -103t-23 -81q-11 -32 -45 -82q-33 -48 -47 -68q-4 -5 -64 -76q-38 -45 -61 -71l-180 -213
h454z" />
    <glyph glyph-name="three.tf" 
d="M1296 1417l-350 -452q168 -45 254 -160t86 -289q0 -249 -165 -399t-433 -150q-260 0 -435 141q-176 141 -192 388l416 77q1 -124 67 -185q64 -60 152 -60q83 0 139 49t56 129q0 79 -55 125q-56 47 -146 47h-323l-21 51l326 459h-520l8 368h1136v-139z" />
    <glyph glyph-name="four.tf" 
d="M1341 236h-161v-236h-389v236h-762v253l868 1067h283v-993h161v-327zM791 563v381l-295 -381h295z" />
    <glyph glyph-name="five.tf" 
d="M547 1010h188q271 0 416 -134q143 -133 143 -366q0 -243 -166 -393t-434 -150q-256 0 -432 141t-192 388l413 77q4 -124 68 -186q62 -61 149 -61q82 0 141 50q58 49 58 130q0 79 -55 125q-56 47 -148 47h-573l121 878h981v-374h-654z" />
    <glyph glyph-name="six.tf" 
d="M1110 1556l-303 -452q218 -34 364 -189q144 -153 144 -376q0 -251 -180 -410q-181 -160 -441 -160q-257 0 -438 160q-180 159 -180 410q0 181 96 317l477 700h461zM694 332q92 0 155 59q64 60 64 148q0 90 -64 151q-65 62 -155 62q-87 0 -152 -62t-65 -151q0 -88 65 -148
q63 -59 152 -59z" />
    <glyph glyph-name="seven.tf" 
d="M1321 1556v-180l-662 -1376h-481l596 1196h-700v360h1247z" />
    <glyph glyph-name="eight.tf" 
d="M1040 809q254 -108 254 -379q0 -201 -169 -331t-441 -130q-270 0 -439 130t-169 331q0 271 252 379q-199 107 -199 330q0 187 161 318q160 130 394 130q236 0 397 -130q162 -131 162 -318q0 -229 -203 -330zM684 1262q-67 0 -117 -44q-49 -43 -49 -112q0 -70 49 -115
t117 -45q70 0 120 45t50 115q0 69 -50 113q-49 43 -120 43zM684 311q74 0 126 45t52 119q0 71 -53 118q-52 46 -125 46q-70 0 -122 -46t-52 -118q0 -74 51 -119t123 -45z" />
    <glyph glyph-name="nine.tf" 
d="M1296 1018q0 -182 -96 -318l-477 -700h-461l303 453q-219 34 -364 188q-144 153 -144 377q0 249 181 409t440 160q257 0 438 -160q180 -159 180 -409zM459 1018q0 -91 64 -152t155 -61q88 0 152 61q65 62 65 152q0 87 -65 147q-64 60 -152 60q-90 0 -155 -60
q-64 -60 -64 -147z" />
    <glyph glyph-name="zero.zero.tf" 
d="M686 1587q295 0 475 -223q180 -224 180 -588q0 -366 -180 -586q-180 -221 -475 -221t-475 221q-180 220 -180 586q0 364 180 588q180 223 475 223zM686 1225q-109 0 -169 -113q-60 -112 -60 -336q0 -86 8 -153l375 516q-57 86 -154 86zM686 326q109 0 169 112t60 338
q0 81 -8 142l-370 -510q57 -82 149 -82z" />
    <glyph glyph-name="zero.zero" horiz-adv-x="1738" 
d="M870 1585q342 0 578 -234q235 -234 235 -575q0 -339 -235 -573q-236 -234 -578 -234t-577 234q-236 234 -236 573q0 341 236 575q235 234 577 234zM870 1208q-167 0 -278 -124t-111 -308q0 -152 76 -262l479 657q-78 37 -166 37zM870 346q168 0 278 123q109 122 109 307
q0 160 -83 277l-482 -662q84 -45 178 -45z" />
    <glyph glyph-name="zero.zero.osf" horiz-adv-x="1456" 
d="M723 1288q290 0 487 -191q199 -193 199 -466q0 -278 -199 -468t-487 -190q-290 0 -489 190q-197 188 -197 468q0 276 199 467q197 190 487 190zM723 926q-121 0 -200 -85t-79 -210q0 -86 39 -158l324 440q-42 13 -84 13zM723 334q121 0 200 85q78 84 78 212
q0 104 -49 172l-329 -451q46 -18 100 -18z" />
    <glyph glyph-name="zero.dnom" horiz-adv-x="993" 
d="M500 813q187 0 318 -116q130 -115 130 -300q0 -182 -130 -299q-129 -116 -318 -116q-192 0 -322 115q-131 116 -131 300t131 300t322 116zM500 215q77 0 130 50q52 49 52 132t-52 132q-54 51 -130 51q-79 0 -133 -51t-54 -132t54 -132q53 -50 133 -50z" />
    <glyph glyph-name="one.dnom" horiz-adv-x="514" 
d="M440 0h-262v451l-166 -56v260l373 140h55v-795z" />
    <glyph glyph-name="two.dnom" horiz-adv-x="747" 
d="M520 219h164v-221h-621v43l265 324q104 126 104 172q0 25 -15 40t-42 15t-49 -25q-21 -24 -21 -73l-246 45q0 121 87 197q88 77 229 77q138 0 226 -74q87 -74 87 -202q0 -34 -7 -62q-8 -31 -31 -69q-27 -43 -32 -54q-5 -10 -47 -65q-11 -14 -21.5 -28t-15.5 -20l-4 -6z
" />
    <glyph glyph-name="three.dnom" horiz-adv-x="727" 
d="M696 731l-159 -229q168 -56 168 -238q0 -128 -91 -207q-89 -77 -235 -77q-145 0 -237 73q-93 73 -105 191l246 39q15 -86 92 -86q37 0 58 18q22 19 22 47q0 29 -21 47q-22 19 -59 19h-180l-9 24l138 215h-250l6 226h616v-62z" />
    <glyph glyph-name="four.dnom" horiz-adv-x="800" 
d="M780 111h-98v-111h-246v111h-403v141l485 543h164v-484h98v-200zM436 311v146l-123 -146h123z" />
    <glyph glyph-name="five.dnom" horiz-adv-x="716" 
d="M322 522h75q141 0 213 -68q74 -69 74 -186q0 -131 -86 -209q-84 -77 -229 -77q-141 0 -230 73q-90 73 -102 191l246 39q12 -86 82 -86q31 0 50 18t19 47q0 64 -74 64h-297l62 467h520v-226h-317z" />
    <glyph glyph-name="six.dnom" horiz-adv-x="733" 
d="M616 793l-163 -232q107 -24 173 -102t66 -189q0 -130 -96 -212q-97 -83 -234 -83q-132 0 -227 83q-94 82 -94 212q0 112 72 195l237 328h266zM362 182q42 0 72 25q29 24 29 63t-29 66q-27 26 -72 26q-38 0 -64 -26q-28 -28 -28 -66q0 -36 28 -62t64 -26z" />
    <glyph glyph-name="seven.dnom" horiz-adv-x="649" 
d="M633 793v-60l-305 -735h-262l251 569h-301v226h617z" />
    <glyph glyph-name="eight.dnom" horiz-adv-x="763" 
d="M592 424q129 -56 129 -193q0 -104 -94 -173q-93 -68 -246 -68q-151 0 -243 68q-93 69 -93 173q0 137 129 193q-98 52 -98 166q0 96 89 164q88 67 218 67t218 -67q89 -68 89 -164q0 -114 -98 -166zM383 633q-31 0 -53 -19q-21 -18 -21 -49q0 -30 22 -49q21 -18 52 -18
q29 0 51 19q23 20 23 48q0 31 -21 49q-22 19 -53 19zM385 190q30 0 52 20t22 50q0 31 -23 49q-24 19 -53 19q-32 0 -54 -19t-22 -49q0 -32 22 -51t56 -19z" />
    <glyph glyph-name="nine.dnom" horiz-adv-x="733" 
d="M692 522q0 -110 -69 -190l-240 -332h-266l164 231q-106 24 -173 103t-67 188q0 130 96 212q97 83 234 83q132 0 227 -83q94 -82 94 -212zM371 610q-43 0 -72 -24t-29 -64q0 -38 29 -65t72 -27q37 0 64 27q28 28 28 65t-28 63q-26 25 -64 25z" />
    <glyph glyph-name="zero.numr" horiz-adv-x="993" 
d="M500 1577q187 0 318 -116q130 -115 130 -300q0 -182 -130 -299t-318 -117q-191 0 -322 116t-131 300t131 300t322 116zM500 979q77 0 130 50q52 49 52 132t-52 132q-53 50 -130 50q-80 0 -133 -50q-54 -51 -54 -132t54 -132q53 -50 133 -50z" />
    <glyph glyph-name="one.numr" horiz-adv-x="514" 
d="M440 762h-262v450l-166 -55v260l373 139h55v-794z" />
    <glyph glyph-name="two.numr" horiz-adv-x="747" 
d="M520 983h164v-219h-621v41l265 323q104 126 104 172q0 25 -15 40q-16 16 -42 16q-27 0 -49 -25q-21 -24 -21 -74l-246 46q0 121 87 197q88 77 229 77q138 0 226 -74q87 -74 87 -203q0 -33 -7 -61q-8 -33 -31 -70q-29 -48 -32 -53q-5 -10 -47 -65q-11 -14 -21.5 -28
t-15.5 -20l-4 -6z" />
    <glyph glyph-name="three.numr" horiz-adv-x="727" 
d="M696 1495l-159 -229q168 -56 168 -238q0 -128 -91 -207q-90 -78 -235 -78q-143 0 -237 74q-93 73 -105 191l246 39q15 -86 92 -86q37 0 58 18q22 19 22 47q0 29 -21 47q-22 19 -59 19h-180l-9 24l138 215h-250l6 225h616v-61z" />
    <glyph glyph-name="four.numr" horiz-adv-x="800" 
d="M780 872h-98v-110h-246v110h-403v142l485 542h164v-483h98v-201zM436 1073v146l-123 -146h123z" />
    <glyph glyph-name="five.numr" horiz-adv-x="716" 
d="M322 1284h75q139 0 213 -69t74 -185q0 -131 -86 -209t-229 -78q-139 0 -230 74q-90 73 -102 191l246 39q12 -86 82 -86q31 0 50 18t19 47q0 64 -74 64h-297l62 466h520v-225h-317z" />
    <glyph glyph-name="six.numr" horiz-adv-x="733" 
d="M616 1556l-163 -231q107 -24 173 -102t66 -189q0 -130 -96 -212q-97 -83 -234 -83q-132 0 -227 83q-94 82 -94 212q0 112 72 195l237 327h266zM362 946q42 0 72 25q29 24 29 63t-29 66q-27 26 -72 26q-38 0 -64 -26q-28 -28 -28 -66q0 -36 28 -62t64 -26z" />
    <glyph glyph-name="seven.numr" horiz-adv-x="649" 
d="M633 1556v-59l-305 -735h-262l251 569h-301v225h617z" />
    <glyph glyph-name="eight.numr" horiz-adv-x="763" 
d="M592 1180q129 -56 129 -193q0 -104 -94 -173q-95 -69 -246 -69q-150 0 -243 69t-93 173q0 137 129 193q-98 52 -98 166q0 95 89 163t218 68t218 -68t89 -163q0 -114 -98 -166zM383 1389q-31 0 -53 -19q-21 -18 -21 -49q0 -30 22 -49t52 -19q28 0 51 20t23 48q0 31 -21 49
q-22 19 -53 19zM385 946q30 0 52 20t22 50q0 31 -23 49t-53 18q-33 0 -54 -18q-22 -19 -22 -49q0 -32 22 -51t56 -19z" />
    <glyph glyph-name="nine.numr" horiz-adv-x="733" 
d="M692 1282q0 -110 -69 -190l-240 -332h-266l164 231q-106 24 -173 103t-67 188q0 130 96 212q97 83 234 83q132 0 227 -83q94 -82 94 -212zM371 1370q-43 0 -72 -24t-29 -64q0 -38 29 -65t72 -27q37 0 64 27q28 28 28 65t-28 63q-26 25 -64 25z" />
    <glyph glyph-name="backslash.case" horiz-adv-x="942" 
d="M899 0h-369l-485 1556h369z" />
    <glyph glyph-name="periodcentered.case" horiz-adv-x="530" 
d="M264 1004q96 0 162 -68t66 -158q0 -96 -65 -161q-64 -64 -163 -64t-162 64q-63 65 -63 161q0 94 64 159q65 67 161 67z" />
    <glyph glyph-name="bullet.case" horiz-adv-x="825" 
d="M412 1135q158 0 267 -112q107 -110 107 -263q0 -158 -106 -263q-108 -106 -268 -106q-162 0 -268 106q-105 105 -105 263q0 153 106 263q107 112 267 112z" />
    <glyph glyph-name="colon.case" horiz-adv-x="530" 
d="M264 1278q96 0 162 -68t66 -157q0 -97 -65 -160q-66 -64 -163 -64q-98 0 -162 64q-63 63 -63 160q0 93 64 158q65 67 161 67zM264 674q96 0 162 -68t66 -157q0 -96 -65 -161t-163 -65q-99 0 -162 65q-63 64 -63 161q0 93 64 158q65 67 161 67z" />
    <glyph glyph-name="exclamdown.case" horiz-adv-x="636" 
d="M330 1137q-99 0 -162 63q-64 64 -64 152q0 91 64 153t162 62t162 -62q63 -61 63 -153q0 -89 -65 -152q-64 -63 -160 -63zM84 66l37 944h395l37 -944v-66h-469v66z" />
    <glyph glyph-name="questiondown.case" horiz-adv-x="1138" 
d="M594 1133q-97 0 -162 64t-65 153q0 92 64 153q65 62 163 62t162 -62q63 -61 63 -153q0 -89 -64 -153t-161 -64zM692 449l414 -84q-35 -175 -178 -287q-145 -113 -369 -113q-235 0 -375 125q-139 124 -139 313q0 147 89 248q88 100 249 144v213h408v-469h-177
q-68 0 -111 -31q-42 -30 -42 -82q0 -43 31 -74q30 -30 77 -30q52 0 84 33q33 35 39 94z" />
    <glyph glyph-name="semicolon.case" horiz-adv-x="604" 
d="M338 1278q98 0 163 -67q64 -65 64 -158q0 -97 -64 -160q-66 -64 -163 -64q-98 0 -162 64q-63 63 -63 160q0 93 64 158q65 67 161 67zM301 -270h-315l118 651h439v-10z" />
    <glyph glyph-name="slash.case" horiz-adv-x="995" 
d="M403 0h-331l520 1556h332z" />
    <glyph glyph-name="braceleft.case" horiz-adv-x="851" 
d="M580 1182v-170q0 -184 -111 -244q111 -63 111 -246v-145q0 -25 16 -40t43 -15h147v-322h-305q-120 0 -195 85t-75 222v158q0 105 -92 129l-78 20v310l78 18q92 24 92 125v182q0 137 75 222t195 85h305v-321h-147q-27 0 -43 -15t-16 -38z" />
    <glyph glyph-name="braceright.case" horiz-adv-x="825" 
d="M784 924v-310l-77 -20q-93 -24 -93 -129v-158q0 -140 -73 -223q-73 -84 -195 -84h-307v322h147q26 0 43 15t17 40v145q0 184 110 246q-110 59 -110 244v170q0 23 -17 38q-16 15 -43 15h-147v321h307q122 0 195 -83t73 -224v-182q0 -101 93 -125z" />
    <glyph glyph-name="bracketleft.case" horiz-adv-x="880" 
d="M479 1235v-913h336v-322h-706v1556h706v-321h-336z" />
    <glyph glyph-name="bracketright.case" horiz-adv-x="856" 
d="M745 1556v-1556h-706v322h338v913h-338v321h706z" />
    <glyph glyph-name="parenleft.case" horiz-adv-x="757" 
d="M483 776q0 -121 35 -232q34 -109 71 -170q44 -74 113 -169l-270 -242q-175 192 -275 382q-100 191 -100 431t100 431q100 190 275 382l256 -243q-117 -186 -151 -275q-54 -139 -54 -295z" />
    <glyph glyph-name="parenright.case" horiz-adv-x="757" 
d="M70 1346l256 243q177 -191 277 -381q99 -189 99 -432t-99 -432q-100 -190 -277 -381l-269 242q55 77 86 127q27 43 64 119t52 153q15 78 15 172q0 114 -30 221q-28 99 -59 158q-25 48 -97 160z" />
    <glyph glyph-name="emdash.case" horiz-adv-x="2560" 
d="M2437 608h-2314v324h2314v-324z" />
    <glyph glyph-name="endash.case" horiz-adv-x="1269" 
d="M1147 608h-1024v324h1024v-324z" />
    <glyph glyph-name="hyphen.case" horiz-adv-x="933" 
d="M811 600h-688v340h688v-340z" />
    <glyph glyph-name="guillemotleft.case" horiz-adv-x="1136" 
d="M51 782l195 365h368l-194 -365l194 -364h-368zM522 782l195 365h368l-194 -365l194 -364h-368z" />
    <glyph glyph-name="guillemotright.case" horiz-adv-x="1136" 
d="M51 418l195 364l-195 365h369l194 -365l-194 -364h-369zM522 418l195 364l-195 365h369l194 -365l-194 -364h-369z" />
    <glyph glyph-name="guilsinglleft.case" horiz-adv-x="665" 
d="M51 782l195 365h368l-194 -365l194 -364h-368z" />
    <glyph glyph-name="guilsinglright.case" horiz-adv-x="665" 
d="M51 418l195 364l-195 365h369l194 -365l-194 -364h-369z" />
    <glyph glyph-name="cent.tf" 
d="M870 467l377 -68q-22 -145 -119 -251q-96 -105 -237 -150v-248h-379v246q-177 53 -285 192q-108 140 -108 330q0 192 108 332q108 139 285 192v248h379v-250q141 -44 234 -147q97 -107 120 -248l-377 -74q-15 75 -59 114q-44 40 -109 40q-82 0 -134 -60q-52 -59 -52 -147
q0 -87 52 -146q53 -61 134 -61q63 0 110 41q44 39 60 115z" />
    <glyph glyph-name="dollar.tf" 
d="M1323 475q0 -191 -112 -312t-289 -167v-315h-381v303q-208 38 -340 160q-136 125 -160 305l430 88q45 -207 238 -207q75 0 119 30t44 84q0 86 -102 115l-285 84q-195 57 -297 163q-100 104 -100 279q0 193 111 316q112 124 301 164v266h381v-266q173 -37 286 -147
q114 -111 144 -279l-412 -84q-39 188 -213 188q-62 0 -105 -31q-42 -30 -42 -82q0 -81 86 -110l288 -92q212 -72 311 -174t99 -279z" />
    <glyph glyph-name="Euro.tf" 
d="M727 319q145 0 178 328l410 -78q-30 -263 -190 -432q-159 -168 -398 -168q-220 0 -373 147q-155 149 -207 404h-100v199h78l-2 59v53h-76v199h100q51 257 205 408q152 149 375 149q241 0 403 -170t185 -436l-404 -74q-38 328 -184 328q-125 0 -168 -205h248l-33 -199
h-235v-53v-59h225l-35 -199h-168q43 -201 166 -201z" />
    <glyph glyph-name="florin.tf" 
d="M1077 1245q-50 0 -84 -28q-36 -29 -43 -80l-49 -265h215v-327h-276l-92 -490q-34 -179 -155 -286t-296 -107q-25 0 -49 3q-28 3 -43 6q-12 2 -38 10q-15 5 -32 11q-11 4 -29 14q-3 2 -7 4t-6.5 3.5t-5 2.5t-3.5 2q-2 1 -22 13q-15 9 -17 11l111 293q75 -25 102 -25
q68 0 84 78l86 457h-180v327h241l56 297q34 190 172 305q135 113 327 113q154 0 277 -69l-123 -308q-68 35 -121 35z" />
    <glyph glyph-name="sterling.tf" 
d="M1305 352v-352h-1219v270l137 41v228h-137v327h137v217q0 225 149 365q148 139 390 139q225 0 373 -134q146 -133 157 -345l-387 -74q-18 189 -143 189q-59 0 -94 -38t-35 -102v-217h395v-327h-395v-187h672z" />
    <glyph glyph-name="yen.tf" 
d="M971 725h231v-223h-315v-88h315v-226h-315v-188h-422v188h-295v226h295v88h-295v223h215l-356 831h436l211 -628l209 628h456z" />
    <glyph glyph-name="approxequal.tf" 
d="M1188 954v-284q-103 -47 -227 -47q-118 0 -265 54t-254 54q-165 0 -258 -59v276q95 68 258 68q108 0 261 -54q156 -55 262 -55q132 0 223 47zM1188 598v-285q-105 -49 -227 -49q-119 0 -265 55q-148 56 -254 56q-159 0 -258 -60v275q96 69 258 69q108 0 261 -54t262 -54
q132 0 223 47z" />
    <glyph glyph-name="divide.tf" 
d="M686 1174q70 0 121 -51q49 -49 49 -119q0 -72 -48 -120t-122 -48t-121 48q-47 49 -47 120q0 70 48 119q49 51 120 51zM1192 461h-1012v311h1012v-311zM686 397q71 0 121 -50q49 -49 49 -118q0 -71 -48 -119q-49 -49 -122 -49q-74 0 -121 49t-47 119q0 69 48 118
q48 50 120 50z" />
    <glyph glyph-name="equal.tf" 
d="M1192 684h-1012v295h1012v-295zM1192 279h-1012v294h1012v-294z" />
    <glyph glyph-name="greater.tf" 
d="M752 668l-476 114v359l871 -293v-365l-871 -290v356z" />
    <glyph glyph-name="greaterequal.tf" 
d="M774 856l-520 80v319l879 -213v-374l-879 -209v311zM1135 104h-881v314h881v-314z" />
    <glyph glyph-name="less.tf" 
d="M1081 193l-870 290v365l870 293v-359l-475 -114l475 -119v-356z" />
    <glyph glyph-name="lessequal.tf" 
d="M1118 459l-878 209v374l878 213v-319l-520 -80l520 -86v-311zM1118 418v-314h-880v314h880z" />
    <glyph glyph-name="minus.tf" 
d="M1192 461h-1012v311h1012v-311z" />
    <glyph glyph-name="multiply.tf" 
d="M909 616l265 -262l-218 -219l-264 264l-266 -264l-217 219l264 262l-264 263l217 219l266 -264l264 264l218 -219z" />
    <glyph glyph-name="notequal.tf" 
d="M862 684l-61 -111h391v-294h-551l-100 -187h-273l101 187h-189v294h348l62 111h-410v295h570l84 156h272l-84 -156h170v-295h-330z" />
    <glyph glyph-name="plus.tf" 
d="M1192 461h-350v-350h-312v350h-350v311h350v350h312v-350h350v-311z" />
    <glyph glyph-name="plusminus.tf" 
d="M1192 1006v-312h-350v-272h-312v272h-350v312h350v313h312v-313h350zM180 313h1012v-313h-1012v313z" />
    <glyph glyph-name="bar.case" horiz-adv-x="587" 
d="M479 0h-370v1556h370v-1556z" />
    <glyph glyph-name="at.case" horiz-adv-x="2054" 
d="M1509 1200v-641q0 -47 28 -72q27 -24 73 -24q78 0 123 109t45 262q0 311 -208 503q-210 193 -517 193q-333 0 -553 -220q-221 -221 -221 -556q0 -334 217 -547q218 -213 548 -213q284 0 529 188l96 -153q-253 -213 -622 -213q-423 0 -692 262t-269 667q0 417 278 690
q277 273 689 273q387 0 651 -246t264 -626q0 -100 -21 -192q-20 -87 -70 -176q-48 -86 -139 -135q-92 -50 -216 -50q-220 0 -287 153q-101 -147 -301 -147q-182 0 -303 127t-121 342q0 212 122 339q122 126 304 126q169 0 270 -113v90h303zM1030 559q75 0 125 56
q51 57 51 145t-51 142t-125 54t-125 -54t-51 -142t51 -145q50 -56 125 -56z" />
    <glyph glyph-name="caron.alt" horiz-adv-x="1228" 
d="M717 922h-271v409h361z" />
    </font>
</defs>
</svg>
