<?xml version="1.0" standalone="no"?>
<!DOCTYPE svg PUBLIC "-//W3C//DTD SVG 1.1//EN" "http://www.w3.org/Graphics/SVG/1.1/DTD/svg11.dtd" >
<svg xmlns="http://www.w3.org/2000/svg" xmlns:xlink="http://www.w3.org/1999/xlink" version="1.1">
<metadata>
Created by FontForge 20170731 at Thu Jan 13 15:26:20 2022
 By Aleksey,,,
Copyright (c) 2014 by Rene' Bieder. All rights reserved.
</metadata>
<defs>
<font id="GalanoClassic-ExtraLight" horiz-adv-x="1337" >
  <font-face 
    font-family="GalanoClassic-ExtraLight"
    font-weight="400"
    font-stretch="normal"
    units-per-em="2048"
    panose-1="0 0 3 0 0 0 0 0 0 0"
    ascent="1483"
    descent="-565"
    x-height="999"
    cap-height="1556"
    bbox="-350 -635 6220 2081"
    underline-thickness="102"
    underline-position="-204"
    unicode-range="U+0020-FB02"
  />
<missing-glyph horiz-adv-x="1814" 
d="M907 1571q330 0 560 -226q231 -227 231 -569q0 -340 -231 -565t-560 -225t-560 225q-230 224 -230 565q0 343 230 569t560 226zM907 1524q-307 0 -522 -212t-215 -534q0 -319 215 -531t522 -212q308 0 523 212t215 531q0 323 -214 534q-215 212 -524 212zM1202 930
q0 -110 -78 -182q-77 -71 -196 -82v-121h-58v178h33q102 0 171 57t69 150q0 95 -63 152t-169 57q-108 0 -174 -69q-66 -68 -61 -177l-60 6q-2 129 81 212t214 83t211 -74t80 -190zM901 438q19 0 32 -12t13 -31q0 -21 -14 -35t-31 -14q-21 0 -35 14t-14 35q0 20 14 31
q15 12 35 12z" />
    <glyph glyph-name="fi" unicode="fi" horiz-adv-x="1183" 
d="M985 999v-999h-70v936h-612v-936h-72v936h-231v63h231v254q0 190 107 299t283 109q180 0 337 -139l-34 -56q-141 129 -303 129q-147 0 -232 -91q-86 -92 -86 -251v-254h682z" />
    <glyph glyph-name="fl" unicode="fl" horiz-adv-x="1191" 
d="M985 1638v-1638h-72v936h-610v-936h-72v936h-231v63h231v254q0 190 107 299t283 109q159 0 292 -102v79h72zM913 999v476q-132 120 -292 120q-147 0 -232 -91q-86 -92 -86 -251v-254h610z" />
    <glyph glyph-name="f_f" unicode="ff" horiz-adv-x="1417" 
d="M1436 936h-471v-936h-72v936h-590v-936h-72v936h-231v63h231v254q0 190 107 299t283 109q170 0 321 -125q78 133 254 133q83 0 152 -33l-23 -59q-60 27 -125 27q-110 0 -173 -71q-62 -69 -62 -190v-344h471v-63zM893 999v344q0 77 20 134q-134 118 -292 118
q-147 0 -232 -91q-86 -92 -86 -251v-254h590z" />
    <glyph glyph-name="f_f_i" unicode="ffi" horiz-adv-x="1818" 
d="M1622 999v-999h-72v936h-612v-936h-72v936h-563v-936h-72v936h-231v63h231v254q0 190 107 299t283 109q178 0 329 -133q108 133 305 133q181 0 338 -139l-34 -56q-141 129 -304 129q-146 0 -231 -91q-86 -92 -86 -251v-254h684zM866 999v254q0 126 49 220
q-138 122 -294 122q-147 0 -232 -91q-86 -92 -86 -251v-254h563z" />
    <glyph glyph-name="f_f_l" unicode="ffl" horiz-adv-x="1828" 
d="M1622 1638v-1638h-72v936h-610v-936h-72v936h-565v-936h-72v936h-231v63h231v254q0 190 107 299t283 109t331 -133q105 133 305 133q159 0 293 -102v79h72zM868 999v254q0 128 50 220q-138 122 -297 122q-147 0 -232 -91q-86 -92 -86 -251v-254h565zM1550 999v478
q-134 118 -293 118q-146 0 -231 -91q-86 -92 -86 -251v-254h610z" />
    <glyph glyph-name=".notdef" horiz-adv-x="1814" 
d="M907 1571q330 0 560 -226q231 -227 231 -569q0 -340 -231 -565t-560 -225t-560 225q-230 224 -230 565q0 343 230 569t560 226zM907 1524q-307 0 -522 -212t-215 -534q0 -319 215 -531t522 -212q308 0 523 212t215 531q0 323 -214 534q-215 212 -524 212zM1202 930
q0 -110 -78 -182q-77 -71 -196 -82v-121h-58v178h33q102 0 171 57t69 150q0 95 -63 152t-169 57q-108 0 -174 -69q-66 -68 -61 -177l-60 6q-2 129 81 212t214 83t211 -74t80 -190zM901 438q19 0 32 -12t13 -31q0 -21 -14 -35t-31 -14q-21 0 -35 14t-14 35q0 20 14 31
q15 12 35 12z" />
    <glyph glyph-name=".null" horiz-adv-x="0" 
 />
    <glyph glyph-name="nonmarkingreturn" horiz-adv-x="681" 
 />
    <glyph glyph-name="space" unicode=" " horiz-adv-x="528" 
 />
    <glyph glyph-name="exclam" unicode="!" horiz-adv-x="522" 
d="M299 1556v-1134h-74v1134h74zM260 121q25 0 46 -19q20 -18 20 -45q0 -25 -19 -44q-17 -17 -47 -17q-28 0 -45 17q-18 18 -18 44q0 27 18 45q19 19 45 19z" />
    <glyph glyph-name="quotedbl" unicode="&#x22;" horiz-adv-x="559" 
d="M121 1018v538h72v-538h-72zM367 1018v538h71v-538h-71z" />
    <glyph glyph-name="numbersign" unicode="#" horiz-adv-x="1370" 
d="M1053 1036l-123 -540h225l-18 -66h-222l-98 -430h-69l98 430h-475l-99 -430h-69l98 430h-225l16 66h223l123 540h-225l18 68h224l102 452h70l-103 -452h475l103 452h69l-102 -452h223l-18 -68h-221zM983 1036h-475l-123 -540h475z" />
    <glyph glyph-name="dollar" unicode="$" horiz-adv-x="1325" 
d="M1208 389q0 -174 -128 -288q-127 -113 -339 -124v-296h-79v294q-224 10 -374 136q-149 125 -173 325l82 19q17 -190 156 -300q142 -112 352 -112q193 0 311 95q117 95 117 251q0 217 -271 303l-348 109q-166 52 -256 134q-88 81 -88 232q0 179 124 290q125 112 327 122
v252h77v-254q198 -12 325 -122t161 -288l-74 -18q-35 170 -155 265q-121 95 -300 95q-183 0 -294 -93t-111 -249q0 -130 76 -193q77 -63 223 -108l334 -102q325 -102 325 -375z" />
    <glyph glyph-name="percent" unicode="%" horiz-adv-x="1755" 
d="M449 1579q136 0 234 -89q97 -88 97 -235q0 -140 -98 -229q-99 -90 -233 -90q-133 0 -232 90q-98 89 -98 229q0 147 97 235q98 89 233 89zM307 0l1043 1556h63l-1042 -1556h-64zM449 1526q-109 0 -191 -76t-82 -195q0 -115 82 -188q83 -74 191 -74q109 0 191 74
q81 73 81 188q0 119 -81 195q-80 76 -191 76zM1305 621q135 0 234 -90q97 -88 97 -234q0 -137 -98 -228q-100 -92 -233 -92q-132 0 -232 92q-98 91 -98 228q0 146 97 234q99 90 233 90zM1305 567q-110 0 -191 -75q-82 -76 -82 -195q0 -115 82 -188q83 -74 191 -74
q109 0 191 74q81 73 81 188q0 119 -81 195q-79 75 -191 75z" />
    <glyph glyph-name="ampersand" unicode="&#x26;" horiz-adv-x="1595" 
d="M1495 -27l-305 252q-89 -120 -224 -184q-136 -64 -292 -64q-235 0 -379 120q-143 119 -143 319q0 152 87 267q87 116 224 179q-139 161 -139 326q0 174 111 282q112 109 288 109q165 0 276 -99q110 -98 131 -282l-65 -16q-18 167 -111 251q-92 83 -233 83
q-144 0 -237 -91q-91 -90 -91 -233q0 -142 97 -264q100 -126 337 -320l347 -284q86 157 86 362v84h67v-84q0 -238 -100 -405l311 -258zM674 41q297 0 465 229l-361 297q-166 136 -270 246q-289 -127 -289 -397q0 -168 126 -272q125 -103 329 -103z" />
    <glyph glyph-name="quotesingle" unicode="'" horiz-adv-x="313" 
d="M121 1018v538h72v-538h-72z" />
    <glyph glyph-name="parenleft" unicode="(" horiz-adv-x="700" 
d="M516 1720l49 -47q-354 -372 -354 -907q0 -530 354 -909l-49 -45q-381 396 -381 954q0 562 381 954z" />
    <glyph glyph-name="parenright" unicode=")" horiz-adv-x="700" 
d="M135 1673l49 47q381 -388 381 -954q0 -562 -381 -954l-49 45q354 379 354 909q0 535 -354 907z" />
    <glyph glyph-name="asterisk" unicode="*" horiz-adv-x="806" 
d="M444 1208l267 -151l-31 -47l-264 149v-299h-60v299l-264 -149l-31 47l267 151l-267 152l31 49l264 -149v296h60v-296l264 149l31 -49z" />
    <glyph glyph-name="plus" unicode="+" horiz-adv-x="1187" 
d="M1030 592h-403v-404h-66v404h-401v65h401v404h66v-404h403v-65z" />
    <glyph glyph-name="comma" unicode="," horiz-adv-x="366" 
d="M100 -270h-61l143 530h90v-4z" />
    <glyph glyph-name="hyphen" unicode="-" horiz-adv-x="899" 
d="M776 489h-653v66h653v-66z" />
    <glyph glyph-name="period" unicode="." horiz-adv-x="366" 
d="M182 121q25 0 46 -19q20 -18 20 -45q0 -25 -19 -44q-17 -17 -47 -17q-28 0 -45 17q-18 18 -18 44q0 27 18 45q19 19 45 19z" />
    <glyph glyph-name="slash" unicode="/" horiz-adv-x="677" 
d="M666 1700l-590 -1866h-64l590 1866h64z" />
    <glyph glyph-name="zero" unicode="0" horiz-adv-x="1812" 
d="M907 1579q322 0 545 -233t223 -570q0 -336 -222 -567q-223 -232 -546 -232q-322 0 -548 232q-224 230 -224 567t224 570t548 233zM907 47q293 0 494 211q201 212 201 518t-202 520q-201 213 -493 213q-293 0 -494 -213q-202 -214 -202 -520q0 -305 202 -518
q201 -211 494 -211z" />
    <glyph glyph-name="one" unicode="1" horiz-adv-x="874" 
d="M598 1556v-1556h-72v1460l-448 -176v72l504 200h16z" />
    <glyph glyph-name="two" unicode="2" horiz-adv-x="1206" 
d="M1104 68v-68h-1006v35l545 530q101 95 149 146t102 123q56 74 76 138q21 66 21 146q0 179 -113 286t-292 107q-191 0 -307 -122q-118 -124 -119 -318l-74 12q6 222 143 359t357 137q210 0 344 -126q133 -126 133 -335q0 -90 -24 -165q-23 -73 -84 -155q-62 -83 -108 -131
q-73 -75 -153 -153l-463 -446h873z" />
    <glyph glyph-name="three" unicode="3" horiz-adv-x="1331" 
d="M610 956h101q221 0 361 -133t140 -344q0 -219 -151 -361q-152 -143 -389 -143t-388 145q-152 145 -153 382l74 14q0 -215 131 -344q130 -129 338 -129q206 0 337 124q132 125 132 312q0 180 -122 296t-314 116h-220l-8 22l596 576h-872v67h999v-28z" />
    <glyph glyph-name="four" unicode="4" horiz-adv-x="1536" 
d="M1507 328h-360v-328h-74v328h-999v41l1028 1187h45v-1161h360v-67zM1073 395v1026l-885 -1026h885z" />
    <glyph glyph-name="five" unicode="5" horiz-adv-x="1314" 
d="M303 958h402q219 0 361 -134q140 -133 140 -345q0 -219 -151 -361q-152 -143 -389 -143t-388 145q-152 145 -153 382l74 14q0 -215 130 -344q131 -129 339 -129q206 0 337 124q132 125 132 312q0 181 -123 296q-124 116 -314 116h-479l111 665h833v-67h-770z" />
    <glyph glyph-name="six" unicode="6" horiz-adv-x="1394" 
d="M696 1061q243 0 403 -153q161 -153 161 -386q0 -235 -161 -390t-403 -155q-240 0 -400 156q-161 156 -161 389q0 212 137 363l539 671h90l-432 -538q104 43 227 43zM696 47q209 0 350 135q140 134 140 340t-140 339q-142 134 -350 134t-348 -134q-139 -133 -139 -339
q0 -205 139 -340q140 -135 348 -135z" />
    <glyph glyph-name="seven" unicode="7" horiz-adv-x="1171" 
d="M1137 1556v-28l-727 -1528h-91l719 1489h-975v67h1074z" />
    <glyph glyph-name="eight" unicode="8" horiz-adv-x="1259" 
d="M782 803q184 -39 270 -151q85 -110 85 -253q0 -190 -140 -306t-366 -116q-227 0 -368 117q-140 116 -140 307q0 141 86 251t268 149q-154 35 -226 140q-73 106 -73 235q0 177 131 290t320 113q190 0 321 -113t131 -288q0 -131 -71 -236q-72 -106 -228 -139zM250 1178
q-5 -145 97 -239q103 -95 284 -95q179 0 279 95t100 235q0 152 -111 243q-112 92 -268 92t-267 -90q-113 -91 -114 -241zM631 49q190 0 308 97t118 255q0 156 -116 258q-117 103 -310 103q-191 0 -310 -102q-118 -102 -118 -259q0 -158 118 -255t310 -97z" />
    <glyph glyph-name="nine" unicode="9" horiz-adv-x="1361" 
d="M1260 1034q0 -210 -138 -362l-538 -672h-90l430 537q-106 -41 -226 -41q-243 0 -402 152q-161 153 -161 386q0 235 161 390t402 155t401 -156q161 -156 161 -389zM209 1034q0 -206 140 -339q142 -134 349 -134q209 0 349 134q139 133 139 339q0 205 -139 340
q-140 135 -349 135q-208 0 -349 -135q-140 -134 -140 -340z" />
    <glyph glyph-name="colon" unicode=":" horiz-adv-x="366" 
d="M182 909q26 0 46 -18t20 -45q0 -25 -19 -44q-18 -18 -47 -18q-27 0 -45 18t-18 44q0 27 18 45t45 18zM182 121q25 0 46 -19q20 -18 20 -45q0 -25 -19 -44q-17 -17 -47 -17q-28 0 -45 17q-18 18 -18 44q0 27 18 45q19 19 45 19z" />
    <glyph glyph-name="semicolon" unicode=";" horiz-adv-x="413" 
d="M231 909q27 0 45 -18q19 -19 19 -45q0 -25 -19 -44q-18 -18 -45 -18q-29 0 -47 18t-18 44q0 27 19 45t46 18zM100 -270h-61l143 530h90v-4z" />
    <glyph glyph-name="less" unicode="&#x3c;" horiz-adv-x="874" 
d="M795 248l-734 354v57l734 355v-78l-635 -305l635 -305v-78z" />
    <glyph glyph-name="equal" unicode="=" horiz-adv-x="1187" 
d="M1030 801h-870v65h870v-65zM1030 428h-870v66h870v-66z" />
    <glyph glyph-name="greater" unicode="&#x3e;" horiz-adv-x="874" 
d="M717 631l-635 305v78l731 -355v-57l-731 -354v78z" />
    <glyph glyph-name="question" unicode="?" horiz-adv-x="1050" 
d="M530 1579q198 0 322 -115q123 -114 123 -301q0 -178 -122 -291q-120 -111 -308 -122v-328h-70v389h39q166 0 277 98q112 99 112 254q0 158 -102 254t-271 96q-167 0 -272 -106q-104 -106 -106 -281l-72 13q2 197 126 318q125 122 324 122zM510 121q26 0 45 -19
q18 -18 18 -45q0 -26 -18 -44q-17 -17 -45 -17q-30 0 -47 17q-19 19 -19 44q0 27 20 45q21 19 46 19z" />
    <glyph glyph-name="at" unicode="@" horiz-adv-x="2170" 
d="M1090 1579q392 0 658 -255q265 -255 265 -646q0 -136 -32 -250q-32 -113 -110 -190q-79 -78 -196 -78q-115 0 -183 62q-69 63 -69 167v25q-52 -111 -155 -174q-104 -64 -228 -64q-188 0 -317 131q-129 130 -129 338q0 209 129 341t317 132q126 0 228 -63
q103 -63 155 -174v213h60v-707q0 -77 53 -127q52 -49 137 -49q137 0 208 137t71 330q0 371 -247 608q-249 238 -615 238q-376 0 -624 -247q-249 -247 -249 -618t244 -621q243 -249 594 -249q133 0 283 39q153 40 251 104l31 -51q-104 -68 -262 -109q-156 -40 -301 -40
q-376 0 -639 263q-262 262 -262 662t266 661t668 261zM1047 231q160 0 268 116q108 115 108 300t-108 297q-108 113 -268 113q-165 0 -276 -113q-112 -114 -112 -297q0 -184 113 -300t275 -116z" />
    <glyph glyph-name="A" unicode="A" horiz-adv-x="1585" 
d="M1550 0h-80l-196 422h-961l-196 -422h-80l727 1556h59zM1241 489l-448 963l-449 -963h897z" />
    <glyph glyph-name="B" unicode="B" horiz-adv-x="1546" 
d="M1044 887q172 -40 269 -156q96 -114 96 -280q0 -203 -140 -327t-372 -124h-690v1556h616q201 0 315 -96q113 -95 113 -262q0 -110 -52 -192q-52 -81 -155 -119zM281 1489v-582h579q150 0 235 78t85 209q0 136 -95 216q-94 79 -262 79h-542zM281 68h616q199 0 320 106
q120 105 120 279q0 177 -129 284q-130 107 -346 107h-581v-776z" />
    <glyph glyph-name="C" unicode="C" horiz-adv-x="1816" 
d="M928 45q255 0 434 140q181 142 248 374l71 -16q-73 -256 -274 -412t-479 -156q-333 0 -563 233t-230 568t230 570q229 233 563 233q277 0 479 -155q201 -154 274 -410l-71 -21q-68 234 -249 375t-433 141q-300 0 -509 -213q-208 -212 -208 -520t208 -519
q209 -212 509 -212z" />
    <glyph glyph-name="D" unicode="D" horiz-adv-x="1744" 
d="M207 1556h534q392 0 630 -214q239 -215 239 -564t-239 -564q-238 -214 -630 -214h-534v1556zM281 68h458q359 0 578 195t219 515t-219 515q-220 196 -578 196h-458v-1421z" />
    <glyph glyph-name="E" unicode="E" 
d="M281 1489v-604h880v-68h-880v-749h925v-68h-999v1556h999v-67h-925z" />
    <glyph glyph-name="F" unicode="F" horiz-adv-x="1247" 
d="M281 1489v-604h882v-68h-882v-817h-74v1556h979v-67h-905z" />
    <glyph glyph-name="G" unicode="G" horiz-adv-x="1839" 
d="M719 811h983q0 -10 1 -18t1 -17q0 -336 -216 -568q-216 -233 -558 -233q-333 0 -564 233q-231 232 -231 568q0 335 230 570q229 233 561 233q264 0 470 -153q204 -152 281 -400l-69 -22q-68 226 -255 366q-185 139 -427 139q-301 0 -508 -213t-207 -520t209 -519
t512 -212q300 0 494 201t204 497h-911v68z" />
    <glyph glyph-name="H" unicode="H" horiz-adv-x="1615" 
d="M1411 1556v-1556h-74v745h-1056v-745h-74v1556h74v-743h1056v743h74z" />
    <glyph glyph-name="I" unicode="I" horiz-adv-x="487" 
d="M281 0h-74v1556h74v-1556z" />
    <glyph glyph-name="J" unicode="J" horiz-adv-x="1398" 
d="M1210 1556v-978q0 -270 -159 -436q-159 -167 -418 -167q-232 0 -388 136t-184 358l70 23q28 -203 163 -326q133 -121 339 -121q224 0 363 148t139 385v978h75z" />
    <glyph glyph-name="K" unicode="K" horiz-adv-x="1452" 
d="M1251 0l-970 758v-758h-74v1556h74v-759l970 759h109l-993 -778l997 -778h-113z" />
    <glyph glyph-name="L" unicode="L" horiz-adv-x="1255" 
d="M1192 68v-68h-985v1556h74v-1488h911z" />
    <glyph glyph-name="M" unicode="M" horiz-adv-x="1939" 
d="M1735 1556v-1556h-72v1430l-672 -801h-41l-671 801v-1430h-72v1556h57l707 -843l704 843h60z" />
    <glyph glyph-name="N" unicode="N" horiz-adv-x="1757" 
d="M1550 1556v-1556h-63l-1204 1430l-2 -1430h-74v1556h65l1205 -1431v1431h73z" />
    <glyph glyph-name="O" unicode="O" horiz-adv-x="1849" 
d="M926 1579q333 0 560 -233q228 -234 228 -570t-228 -567q-229 -232 -560 -232t-561 232t-230 567t230 570q229 233 561 233zM926 47q301 0 508 211q206 210 206 518t-206 520q-207 213 -508 213t-508 -213t-207 -520q0 -306 207 -518q207 -211 508 -211z" />
    <glyph glyph-name="P" unicode="P" horiz-adv-x="1251" 
d="M207 1556h512q203 0 337 -99t134 -286q0 -189 -134 -290t-337 -101h-438v-780h-74v1556zM281 848h438q169 0 282 82q115 83 115 239q0 157 -115 239q-114 81 -282 81h-438v-641z" />
    <glyph glyph-name="Q" unicode="Q" horiz-adv-x="1849" 
d="M1710 -438l-430 497q-163 -82 -354 -82q-331 0 -561 232t-230 567t230 570q229 233 561 233q333 0 560 -233q228 -234 228 -570q0 -216 -99 -394q-100 -180 -272 -286l463 -534h-96zM211 776q0 -306 207 -518q207 -211 508 -211t508 211q206 210 206 518t-206 520
q-207 213 -508 213t-508 -213t-207 -520z" />
    <glyph glyph-name="R" unicode="R" horiz-adv-x="1607" 
d="M1577 0h-96l-809 817h-391v-817h-74v1556h547q193 0 314 -100q122 -101 122 -268q0 -166 -118 -266q-119 -101 -304 -105zM281 885h473q160 0 261 82t101 221q0 137 -101 219t-261 82h-473v-604z" />
    <glyph glyph-name="S" unicode="S" horiz-adv-x="1325" 
d="M653 1579q214 0 355 -112q138 -110 176 -300l-74 -18q-35 170 -155 265q-121 95 -300 95q-183 0 -294 -93t-111 -249q0 -130 76 -193q77 -63 223 -108l334 -102q325 -102 325 -375q0 -186 -140 -299q-142 -115 -370 -115q-238 0 -397 126t-186 335l82 19
q17 -190 156 -300q142 -112 352 -112q193 0 311 95q117 95 117 251q0 217 -271 303l-348 109q-166 52 -256 134q-88 81 -88 232q0 187 133 299q134 113 350 113z" />
    <glyph glyph-name="T" unicode="T" horiz-adv-x="1314" 
d="M1255 1489h-561v-1489h-73v1489h-562v67h1196v-67z" />
    <glyph glyph-name="U" unicode="U" horiz-adv-x="1632" 
d="M1444 1556v-890q0 -309 -173 -500t-456 -191t-456 191t-173 500v890h74v-890q0 -280 153 -449q153 -170 402 -170q250 0 402 170q151 169 151 449v890h76z" />
    <glyph glyph-name="V" unicode="V" horiz-adv-x="1591" 
d="M1552 1556l-727 -1556h-59l-727 1556h80l676 -1437l678 1437h79z" />
    <glyph glyph-name="W" unicode="W" horiz-adv-x="2189" 
d="M2150 1556l-510 -1556h-61l-485 1427l-484 -1427h-61l-510 1556h78l463 -1429l485 1429h59l486 -1429l463 1429h77z" />
    <glyph glyph-name="X" unicode="X" horiz-adv-x="1501" 
d="M1370 0l-618 727l-621 -727h-92l663 782l-639 774h93l596 -718l596 718h92l-643 -774l667 -782h-94z" />
    <glyph glyph-name="Y" unicode="Y" horiz-adv-x="1490" 
d="M782 518v-518h-75v518l-668 1038h84l622 -966l621 966h86z" />
    <glyph glyph-name="Z" unicode="Z" horiz-adv-x="1517" 
d="M1399 66v-66h-1262v35l1151 1456h-1118v65h1227v-34l-1149 -1456h1151z" />
    <glyph glyph-name="bracketleft" unicode="[" horiz-adv-x="780" 
d="M279 1632v-1755h364v-65h-436v1884h436v-64h-364z" />
    <glyph glyph-name="backslash" unicode="\" horiz-adv-x="677" 
d="M666 -166h-64l-590 1866h64z" />
    <glyph glyph-name="bracketright" unicode="]" horiz-adv-x="780" 
d="M573 1696v-1884h-438v65h367v1755h-367v64h438z" />
    <glyph glyph-name="asciicircum" unicode="^" horiz-adv-x="731" 
d="M133 1157h-74l281 399h49l283 -399h-74l-233 326z" />
    <glyph glyph-name="underscore" unicode="_" horiz-adv-x="980" 
d="M940 -178h-899v63h899v-63z" />
    <glyph glyph-name="grave" unicode="`" horiz-adv-x="1228" 
d="M467 1442l184 -281h-67l-197 281h80z" />
    <glyph glyph-name="a" unicode="a" horiz-adv-x="1148" 
d="M1122 68l6 -60q-48 -14 -108 -14q-68 0 -109 47t-45 123v57q-60 -111 -172 -177q-114 -67 -252 -67q-149 0 -242 78q-94 79 -94 209q0 281 443 314l317 22v41q0 149 -84 232q-85 83 -229 83q-128 0 -216 -67q-90 -69 -108 -176l-67 18q23 130 130 209q109 80 263 80
q176 0 278 -98q103 -99 103 -277v-469q0 -48 26 -83q25 -34 66 -34zM446 41q169 0 295 112q125 111 125 273v117l-313 -25q-373 -29 -373 -254q0 -104 76 -164q75 -59 190 -59z" />
    <glyph glyph-name="b" unicode="b" 
d="M725 1020q213 0 360 -144q148 -145 148 -376t-148 -377t-360 -146q-142 0 -263 71q-119 70 -183 196v-244h-72v1638h72v-882q63 122 183 193q121 71 263 71zM719 43q187 0 314 126q128 126 128 331q0 202 -128 328q-127 126 -314 126q-177 0 -308 -127
q-132 -127 -132 -327q0 -202 132 -330q131 -127 308 -127z" />
    <glyph glyph-name="c" unicode="c" horiz-adv-x="1198" 
d="M627 47q151 0 261 79q112 80 152 212l66 -23q-45 -151 -175 -242t-304 -91q-223 0 -372 147t-149 373q0 223 150 370q151 148 371 148q172 0 302 -91q131 -92 177 -241l-68 -22q-41 131 -151 210q-109 78 -260 78q-195 0 -323 -128t-128 -324t128 -326q128 -129 323 -129
z" />
    <glyph glyph-name="d" unicode="d" 
d="M1133 1638v-1638h-72v246q-63 -125 -182 -197t-265 -72q-212 0 -360 146t-148 377t148 376q147 144 360 144q146 0 265 -71t182 -195v884h72zM618 43q180 0 311 127q132 128 132 330q0 200 -132 327q-131 127 -311 127q-186 0 -314 -126t-128 -328q0 -205 128 -331
t314 -126z" />
    <glyph glyph-name="e" unicode="e" horiz-adv-x="1210" 
d="M1104 528v-28h-926l-2 -4q0 -203 131 -328t301 -125q146 0 254 70q107 69 158 206l63 -16q-52 -155 -177 -241q-124 -85 -298 -85q-198 0 -350 144t-152 375q0 235 154 380q153 144 365 144q207 0 340 -136t139 -356zM625 954q-167 0 -296 -107q-131 -108 -149 -288h852
q-15 183 -128 289t-279 106z" />
    <glyph glyph-name="f" unicode="f" horiz-adv-x="753" 
d="M774 936h-471v-936h-72v936h-231v63h231v344q0 149 81 238q81 88 223 88q79 0 151 -33l-24 -59q-60 27 -123 27q-110 0 -173 -71t-63 -190v-344h471v-63z" />
    <glyph glyph-name="g" unicode="g" horiz-adv-x="1218" 
d="M1198 936l-340 -2q141 -108 141 -289q0 -160 -115 -266q-116 -107 -288 -107q-177 0 -297 115q-104 -51 -104 -145q0 -76 57 -121t154 -45h366q164 0 264 -88q101 -89 101 -234q0 -171 -138 -280t-362 -109h-76q-224 0 -363 107t-139 278q0 100 52 180q51 77 141 115
q-125 62 -125 195q0 118 135 192q-67 94 -67 213q0 161 114 268q115 107 287 107q76 0 137 -21h465v-63zM932 645q0 131 -97 221t-239 90t-238 -90t-96 -221t96 -220q97 -89 238 -89t239 89q97 88 97 220zM772 12h-362q-126 0 -202 -70q-77 -71 -77 -188q0 -145 120 -235
t314 -90h72q192 0 310 91t118 234q0 118 -81 188q-80 70 -212 70z" />
    <glyph glyph-name="h" unicode="h" horiz-adv-x="1290" 
d="M702 1020q182 0 293 -118t111 -312v-590h-72v584q0 165 -92 268q-92 102 -242 102q-192 0 -306 -120q-115 -121 -115 -324v-510h-72v1638h72v-880q56 125 165 193q111 69 258 69z" />
    <glyph glyph-name="i" unicode="i" horiz-adv-x="522" 
d="M260 1462q26 0 46 -18t20 -45q0 -26 -19 -45t-47 -19t-47 19q-18 18 -18 45t19 45t46 18zM297 0h-72v999h72v-999z" />
    <glyph glyph-name="j" unicode="j" horiz-adv-x="565" 
d="M303 1462q27 0 46 -18q20 -18 20 -45q0 -26 -19 -45t-47 -19t-47 19q-18 18 -18 45t19 45q20 18 46 18zM-16 -561l22 61q45 -26 100 -26q73 0 116 43q44 44 44 114v1368h72v-1372q0 -101 -60 -161t-159 -60q-75 0 -135 33z" />
    <glyph glyph-name="k" unicode="k" horiz-adv-x="1136" 
d="M989 0l-710 477v-477h-72v1638h72v-1118l677 479h105l-699 -499l738 -500h-111z" />
    <glyph glyph-name="l" unicode="l" horiz-adv-x="483" 
d="M279 0h-72v1638h72v-1638z" />
    <glyph glyph-name="m" unicode="m" horiz-adv-x="1933" 
d="M1389 1020q161 0 259 -98q99 -99 99 -258v-664h-70v657q0 133 -84 215q-83 82 -219 82q-164 0 -263 -114t-99 -308v-532h-72v657q0 133 -84 215q-83 82 -217 82q-163 0 -262 -114q-98 -113 -98 -308v-532h-72v999h72v-219q50 114 145 176q98 64 227 64q131 0 225 -68
q93 -67 123 -182q51 118 153 184t237 66z" />
    <glyph glyph-name="n" unicode="n" horiz-adv-x="1290" 
d="M702 1020q182 0 293 -118t111 -312v-590h-72v584q0 165 -92 268q-92 102 -242 102q-192 0 -306 -120q-115 -121 -115 -324v-510h-72v999h72v-241q56 125 165 193q111 69 258 69z" />
    <glyph glyph-name="o" unicode="o" horiz-adv-x="1257" 
d="M629 1020q221 0 372 -148q150 -147 150 -370q0 -225 -150 -375t-372 -150q-223 0 -373 150t-150 375q0 223 150 370q151 148 373 148zM629 43q194 0 323 130q129 131 129 329q0 196 -129 324q-130 128 -323 128q-194 0 -324 -128q-129 -128 -129 -324q0 -198 129 -329
q129 -130 324 -130z" />
    <glyph glyph-name="p" unicode="p" 
d="M725 1020q213 0 360 -144q148 -145 148 -376t-148 -377t-360 -146q-142 0 -263 71q-119 70 -183 196v-817h-72v1572h72v-243q63 122 183 193q121 71 263 71zM719 43q187 0 314 126q128 126 128 331q0 202 -128 328q-127 126 -314 126q-177 0 -308 -127
q-132 -127 -132 -327q0 -202 132 -330q131 -127 308 -127z" />
    <glyph glyph-name="q" unicode="q" 
d="M1133 999v-1572h-72v819q-63 -125 -182 -197t-265 -72q-212 0 -360 146t-148 377t148 376q147 144 360 144q146 0 265 -71t182 -195v245h72zM618 43q180 0 311 127q132 128 132 330q0 200 -132 327q-131 127 -311 127q-186 0 -314 -126t-128 -328q0 -205 128 -331
t314 -126z" />
    <glyph glyph-name="r" unicode="r" horiz-adv-x="815" 
d="M715 1006q34 0 69 -7l-10 -65q-28 2 -59 2q-200 0 -319 -148q-117 -145 -117 -356v-432h-72v999h72v-290q56 138 171 218q113 79 265 79z" />
    <glyph glyph-name="s" unicode="s" horiz-adv-x="985" 
d="M121 274l69 19q10 -115 100 -185q88 -69 228 -69q130 0 206 60q77 60 77 167q0 74 -43 116t-137 64l-232 56q-127 28 -182 85q-55 56 -55 148q0 131 93 208q94 77 244 77q146 0 239 -72q94 -73 124 -190l-66 -23q-23 104 -100 163q-78 60 -199 60q-119 0 -191 -57
q-73 -58 -73 -162q0 -71 44 -112q45 -42 149 -66l221 -53q121 -30 178 -88q55 -56 55 -152q0 -138 -97 -214q-98 -77 -257 -77q-165 0 -272 79q-108 80 -123 218z" />
    <glyph glyph-name="t" unicode="t" horiz-adv-x="780" 
d="M291 936v-668q0 -100 57 -162q57 -61 154 -61q93 0 176 72l31 -58q-95 -82 -211 -82q-126 0 -203 78q-76 77 -76 209v672h-219v63h219v447l72 29v-476h479v-63h-479z" />
    <glyph glyph-name="u" unicode="u" horiz-adv-x="1290" 
d="M1083 999v-999h-69v246q-53 -125 -165 -196q-110 -70 -261 -70q-182 0 -293 118q-111 119 -111 312v589h72v-583q0 -166 92 -269q92 -102 242 -102q190 0 307 121q117 122 117 323v510h69z" />
    <glyph glyph-name="v" unicode="v" horiz-adv-x="1173" 
d="M1137 999l-514 -999h-70l-514 999h80l469 -911l467 911h82z" />
    <glyph glyph-name="w" unicode="w" horiz-adv-x="1662" 
d="M1624 999l-383 -1005h-74l-336 887l-335 -887h-74l-383 1005h78l346 -897l340 897h57l340 -897l348 897h76z" />
    <glyph glyph-name="x" unicode="x" horiz-adv-x="1167" 
d="M633 498l420 -498h-90l-379 453l-379 -453h-90l420 498l-420 501h90l379 -456l379 456h90z" />
    <glyph glyph-name="y" unicode="y" horiz-adv-x="1173" 
d="M1135 999l-803 -1572h-78l295 577l-510 995h80l469 -917l469 917h78z" />
    <glyph glyph-name="z" unicode="z" horiz-adv-x="968" 
d="M907 63v-63h-825v39l706 897h-686v63h789v-43l-707 -893h723z" />
    <glyph glyph-name="braceleft" unicode="{" horiz-adv-x="888" 
d="M432 1430v-416q0 -192 -141 -258q141 -66 141 -258v-416q0 -100 50 -153q49 -52 139 -52h131v-65h-136q-120 0 -189 69t-69 197v418q0 101 -53 162t-141 65l-33 2v61l33 2q88 4 141 65t53 165v416q0 126 70 196t188 70h136v-66h-131q-90 0 -139 -52q-50 -53 -50 -152z
" />
    <glyph glyph-name="bar" unicode="|" horiz-adv-x="483" 
d="M279 -166h-72v1866h72v-1866z" />
    <glyph glyph-name="braceright" unicode="}" horiz-adv-x="888" 
d="M758 786v-61l-33 -2q-88 -4 -142 -65q-55 -61 -55 -162v-418q0 -129 -68 -197q-69 -69 -190 -69h-135v65h133q90 0 139 52q50 53 50 153v416q0 192 141 258q-141 66 -141 258v416q0 99 -50 152q-49 52 -139 52h-133v66h135q119 0 189 -70q69 -69 69 -196v-416
q0 -101 55 -164q54 -62 142 -66z" />
    <glyph glyph-name="asciitilde" unicode="~" horiz-adv-x="937" 
d="M156 502h-74q0 106 57 165q57 58 148 58q84 0 190 -82t172 -82q64 0 100 43q35 42 33 117h74q0 -108 -58 -167q-58 -60 -147 -60q-83 0 -188 81q-106 82 -172 82q-67 0 -104 -42q-37 -41 -31 -113z" />
    <glyph glyph-name="exclamdown" unicode="&#xa1;" horiz-adv-x="522" 
d="M260 895q-27 0 -45 18t-18 45q0 26 18 44t45 18q29 0 47 -18q19 -19 19 -44q0 -27 -20 -45t-46 -18zM225 594h74v-1135h-74v1135z" />
    <glyph glyph-name="cent" unicode="&#xa2;" horiz-adv-x="1210" 
d="M627 47q151 0 261 79q112 80 152 212l66 -23q-40 -140 -161 -232q-120 -91 -279 -99v-250h-72v248q-211 12 -349 157q-139 147 -139 363q0 213 139 360q139 146 349 158v270h72v-272q159 -7 278 -98q118 -90 162 -232l-68 -22q-41 131 -151 210q-109 78 -260 78
q-195 0 -323 -128t-128 -324t128 -326q128 -129 323 -129z" />
    <glyph glyph-name="sterling" unicode="&#xa3;" horiz-adv-x="1449" 
d="M1333 68v-68h-1198v47l197 19v591h-197v68h197v367q0 217 136 352t355 135q223 0 357 -133q136 -134 137 -348l-72 -19q-1 196 -117 313q-114 115 -305 115q-187 0 -302 -114t-115 -301v-367h655v-68h-655v-589h927z" />
    <glyph glyph-name="yen" unicode="&#xa5;" horiz-adv-x="1425" 
d="M784 678h424v-62h-458v-221h458v-63h-458v-332h-74v332h-459v63h459v221h-459v62h424l-563 878h84l551 -870l551 870h86z" />
    <glyph glyph-name="section" unicode="&#xa7;" horiz-adv-x="1204" 
d="M1108 532q0 -119 -58 -195q-60 -78 -147 -112q109 -91 109 -221q0 -146 -115 -237t-301 -91q-221 0 -347 109q-124 107 -122 289l66 16q1 -163 104 -258q101 -94 295 -94q156 0 251 75t95 191q0 154 -188 236l-385 174q-149 67 -212 136q-65 71 -65 171q0 119 58 195
q59 78 149 112q-111 90 -111 221q0 146 115 238t301 92q206 0 327 -110t122 -285l-70 -21q0 161 -99 256q-98 94 -276 94q-158 0 -252 -73t-94 -193q0 -149 186 -233l385 -174q147 -66 214 -138q65 -70 65 -170zM844 264q194 76 194 262q0 79 -52 137q-51 57 -187 119
l-387 174l-35 18l-13 6.5t-10.5 5.5t-5.5 3q-190 -76 -190 -262q0 -78 52 -137q52 -60 187 -121l385 -172q41 -19 62 -33z" />
    <glyph glyph-name="dieresis" unicode="&#xa8;" horiz-adv-x="1228" 
d="M406 1350q26 0 46 -20q19 -19 19 -44q0 -27 -18 -45t-47 -18q-30 0 -48 18t-18 45q0 25 19 44q20 20 47 20zM823 1350q26 0 46 -20t20 -44q0 -26 -19 -45q-18 -18 -47 -18t-46 17t-17 46q0 24 18 44t45 20z" />
    <glyph glyph-name="copyright" unicode="&#xa9;" horiz-adv-x="1798" 
d="M899 1579q335 0 565 -229q232 -230 232 -578q0 -341 -232 -568t-565 -227t-565 227t-232 568q0 348 232 578q230 229 565 229zM899 1526q-309 0 -524 -213t-215 -539q0 -321 215 -531t524 -210t524 210t215 531q0 326 -215 539t-524 213zM918 1212q144 0 259 -83
q114 -83 138 -211l-60 -13q-28 109 -125 179q-96 69 -212 69q-156 0 -264 -105q-107 -104 -107 -272q0 -165 108 -273t263 -108q116 0 214 71q96 70 125 183l56 -16q-28 -128 -141 -213q-111 -84 -254 -84q-183 0 -309 123t-126 317t126 315q125 121 309 121z" />
    <glyph glyph-name="ordfeminine" unicode="&#xaa;" horiz-adv-x="833" 
d="M817 872l6 -49q-53 -14 -84 -14q-45 0 -75 33q-31 34 -31 88v28q-95 -149 -291 -149q-118 0 -184 56q-68 57 -68 151q0 196 322 225l221 16v35q0 102 -61 161q-59 58 -160 58q-199 0 -234 -192l-57 10q18 114 96 174t193 60q130 0 207 -72t77 -201v-354q0 -29 16 -50
q15 -20 35 -20q21 0 72 6zM348 858q122 0 204 74q81 74 81 186v92l-217 -18q-262 -18 -262 -172q0 -74 51 -118q52 -44 143 -44z" />
    <glyph glyph-name="guillemotleft" unicode="&#xab;" horiz-adv-x="759" 
d="M51 537l266 364h78l-266 -364l266 -365h-78zM367 537l264 364h78l-265 -364l265 -365h-78z" />
    <glyph glyph-name="registered" unicode="&#xae;" horiz-adv-x="1024" 
d="M512 1579q172 0 291 -117t119 -295q0 -176 -119 -293q-117 -116 -291 -116t-291 116q-119 117 -119 293q0 178 119 295t291 117zM512 797q153 0 261 105t108 265q0 161 -108 267q-107 106 -261 106t-261 -106q-108 -106 -108 -267q0 -160 108 -265t261 -105zM686 1251
q0 -51 -35 -86t-94 -39l152 -147h-54l-149 145h-96v-145h-39v397h166q68 0 108 -34q41 -35 41 -91zM410 1159h122q51 0 82 26t31 66t-30 64t-78 24h-127v-180z" />
    <glyph glyph-name="macron" unicode="&#xaf;" horiz-adv-x="1228" 
d="M879 1212h-529v60h529v-60z" />
    <glyph glyph-name="degree" unicode="&#xb0;" horiz-adv-x="819" 
d="M410 1579q104 0 178 -69t74 -179q0 -108 -74 -177t-178 -69q-101 0 -179 70q-75 68 -75 176q0 111 74 179q75 69 180 69zM410 1141q77 0 136 53q58 52 58 137q0 84 -58 139q-59 56 -136 56q-78 0 -137 -56q-58 -55 -58 -139q0 -82 58 -136q59 -54 137 -54z" />
    <glyph glyph-name="plusminus" unicode="&#xb1;" horiz-adv-x="1187" 
d="M1030 723v-64h-403v-378h-66v378h-401v64h401v383h66v-383h403zM160 66h870v-66h-870v66z" />
    <glyph glyph-name="twosuperior" unicode="&#xb2;" horiz-adv-x="688" 
d="M590 1085v-53h-502v19l246 233q80 76 108 108q32 36 54 75q24 43 24 89q0 76 -48 124q-49 49 -126 49q-82 0 -139 -55q-55 -54 -55 -142l-58 10q0 107 71 173q72 67 181 67q104 0 168 -62t64 -161q0 -80 -46 -141q-50 -66 -161 -169l-172 -164h391z" />
    <glyph glyph-name="threesuperior" unicode="&#xb3;" horiz-adv-x="671" 
d="M342 1468h14q112 0 180 -61t68 -162q0 -106 -74 -172q-72 -65 -194 -65q-104 0 -179 60t-87 155l57 14q11 -81 70 -128q60 -48 139 -48q93 0 152 50t59 134q0 76 -53 123t-142 47h-106l-4 17l243 272h-387l2 55h492v-14z" />
    <glyph glyph-name="acute" unicode="&#xb4;" horiz-adv-x="1228" 
d="M606 1161h-65l182 281h82z" />
    <glyph glyph-name="paragraph" unicode="&#xb6;" horiz-adv-x="1093" 
d="M637 0h-66v797h-102q-185 0 -307 105q-121 105 -121 282q0 181 107 276q108 96 292 96h197v-1556zM887 0h-64v1556h64v-1556z" />
    <glyph glyph-name="periodcentered" unicode="&#xb7;" horiz-adv-x="366" 
d="M182 608q26 0 46 -18t20 -43q0 -26 -19 -45t-47 -19q-26 0 -45 19q-18 18 -18 45q0 25 18 43t45 18z" />
    <glyph glyph-name="cedilla" unicode="&#xb8;" horiz-adv-x="1228" 
d="M596 0h61l-192 -365h-82z" />
    <glyph glyph-name="onesuperior" unicode="&#xb9;" horiz-adv-x="419" 
d="M283 1020h-62v661l-192 -75v57l239 98h15v-741z" />
    <glyph glyph-name="ordmasculine" unicode="&#xba;" horiz-adv-x="921" 
d="M463 1563q151 0 257 -103q105 -102 105 -264t-105 -265q-106 -104 -257 -104q-149 0 -258 104t-109 265q0 159 109 263t258 104zM463 883q124 0 216 89q91 88 91 224t-91 224q-92 89 -216 89t-216 -89q-91 -88 -91 -224t91 -224q92 -89 216 -89z" />
    <glyph glyph-name="guillemotright" unicode="&#xbb;" horiz-adv-x="759" 
d="M51 172l266 365l-266 364h78l266 -364l-266 -365h-78zM367 172l264 365l-264 364h77l265 -364l-265 -365h-77z" />
    <glyph glyph-name="onequarter" unicode="&#xbc;" horiz-adv-x="1296" 
d="M221 1477l-192 -76v57l239 98h15v-741h-62v662zM1174 1556l-1043 -1556h-63l1042 1556h64zM1255 170h-135v-170h-57v170h-430v31l459 538h28v-516h135v-53zM1063 223v402l-340 -402h340z" />
    <glyph glyph-name="onehalf" unicode="&#xbd;" horiz-adv-x="1368" 
d="M1143 1556l-1043 -1556h-63l1042 1556h64zM246 1477l-191 -76v57l238 98h16v-741h-63v662zM1278 53v-53h-502v18l246 234q86 83 108 107q31 34 54 76q24 43 24 89q0 76 -48 124t-126 48q-84 0 -139 -54t-55 -142l-58 10q0 107 71 173q72 67 181 67q104 0 168 -62t64 -162
q0 -80 -45 -140q-47 -63 -162 -169l-172 -164h391z" />
    <glyph glyph-name="threequarters" unicode="&#xbe;" horiz-adv-x="1406" 
d="M606 1042q0 -106 -74 -172q-72 -65 -194 -65q-104 0 -179 60t-87 155l57 14q11 -81 70 -128q60 -48 139 -48q93 0 152 50t59 134q0 76 -53 123t-142 47h-106l-4 17l243 272h-387l2 55h492v-14l-250 -276h14q110 0 180 -62q68 -61 68 -162zM1339 1556l-1042 -1556h-64
l1043 1556h63zM1366 170h-135v-170h-57v170h-431v31l459 538h29v-516h135v-53zM1174 223v402l-340 -402h340z" />
    <glyph glyph-name="questiondown" unicode="&#xbf;" horiz-adv-x="1050" 
d="M545 895q-27 0 -46 18q-20 18 -20 45q0 25 19 44q18 18 47 18q27 0 45 -18t18 -44q0 -27 -18 -45t-45 -18zM903 -113l72 -10q-1 -197 -126 -318q-125 -122 -327 -122q-198 0 -320 114t-122 302q0 175 122 289q121 113 306 124v328h72v-389h-39q-163 0 -278 -100
q-113 -98 -113 -252q0 -158 102 -254q103 -97 270 -97q170 0 274 107q102 105 107 278z" />
    <glyph glyph-name="Agrave" unicode="&#xc0;" horiz-adv-x="1585" 
d="M756 1718l-199 281h82l184 -281h-67zM1550 0h-80l-196 422h-961l-196 -422h-80l727 1556h59zM1241 489l-448 963l-449 -963h897z" />
    <glyph glyph-name="Aacute" unicode="&#xc1;" horiz-adv-x="1585" 
d="M840 1718h-66l182 281h82zM1550 0h-80l-196 422h-961l-196 -422h-80l727 1556h59zM1241 489l-448 963l-449 -963h897z" />
    <glyph glyph-name="Acircumflex" unicode="&#xc2;" horiz-adv-x="1585" 
d="M594 1718h-80l246 281h67l244 -281h-78l-200 230zM1550 0h-80l-196 422h-961l-196 -422h-80l727 1556h59zM1241 489l-448 963l-449 -963h897z" />
    <glyph glyph-name="Atilde" unicode="&#xc3;" horiz-adv-x="1585" 
d="M668 1888q-44 0 -68 -28q-25 -30 -25 -78h-59q0 79 41 122q41 42 107 42q57 0 131 -56q73 -55 120 -55q89 0 89 111h59q0 -79 -41 -125q-40 -45 -104 -45q-62 0 -133 56t-117 56zM1550 0h-80l-196 422h-961l-196 -422h-80l727 1556h59zM1241 489l-448 963l-449 -963h897z
" />
    <glyph glyph-name="Adieresis" unicode="&#xc4;" horiz-adv-x="1585" 
d="M584 1780q-29 0 -47 18q-19 19 -19 45q0 24 20 44t46 20t46 -20q19 -19 19 -44q0 -27 -18 -45t-47 -18zM1001 1780q-28 0 -45 17q-18 18 -18 46q0 25 18 44q18 20 45 20t47 -20q19 -19 19 -44q0 -27 -18 -45t-48 -18zM1550 0h-80l-196 422h-961l-196 -422h-80l727 1556
h59zM1241 489l-448 963l-449 -963h897z" />
    <glyph glyph-name="Aring" unicode="&#xc5;" horiz-adv-x="1585" 
d="M793 1692q-78 0 -134 53q-55 52 -55 129q0 76 55 130t134 54q77 0 133 -54q55 -54 55 -130q0 -77 -55 -129q-56 -53 -133 -53zM793 2007q-58 0 -97 -39t-39 -94q0 -53 39 -92t97 -39q57 0 97 39t40 92q0 55 -40 94t-97 39zM1550 0h-80l-196 422h-961l-196 -422h-80
l727 1556h59zM1241 489l-448 963l-449 -963h897z" />
    <glyph glyph-name="AE" unicode="&#xc6;" horiz-adv-x="2338" 
d="M1282 1489v-604h881v-68h-881v-749h926v-68h-1002v422h-770l-313 -422h-86l1161 1556h1010v-67h-926zM1206 489v967l-719 -967h719z" />
    <glyph glyph-name="Ccedilla" unicode="&#xc7;" horiz-adv-x="1816" 
d="M928 45q255 0 434 140q181 142 248 374l71 -16q-72 -253 -268 -407q-197 -155 -467 -161l-180 -340h-82l199 342q-319 17 -533 246q-215 230 -215 553q0 335 230 570q229 233 563 233q277 0 479 -155q201 -154 274 -410l-71 -21q-68 234 -249 375t-433 141
q-300 0 -509 -213q-208 -212 -208 -520t208 -519q209 -212 509 -212z" />
    <glyph glyph-name="Egrave" unicode="&#xc8;" 
d="M694 1718l-198 281h82l184 -281h-68zM281 1489v-604h880v-68h-880v-749h925v-68h-999v1556h999v-67h-925z" />
    <glyph glyph-name="Eacute" unicode="&#xc9;" 
d="M778 1718h-65l182 281h82zM281 1489v-604h880v-68h-880v-749h925v-68h-999v1556h999v-67h-925z" />
    <glyph glyph-name="Ecircumflex" unicode="&#xca;" 
d="M532 1718h-79l245 281h68l244 -281h-78l-201 230zM281 1489v-604h880v-68h-880v-749h925v-68h-999v1556h999v-67h-925z" />
    <glyph glyph-name="Edieresis" unicode="&#xcb;" 
d="M522 1780q-29 0 -47 18t-18 45q0 25 19 44q20 20 46 20t46 -20t20 -44q0 -26 -19 -45q-18 -18 -47 -18zM940 1780q-28 0 -45 17q-18 18 -18 46q0 25 18 44q18 20 45 20q26 0 46 -20t20 -44q0 -26 -19 -45q-18 -18 -47 -18zM281 1489v-604h880v-68h-880v-749h925v-68h-999
v1556h999v-67h-925z" />
    <glyph glyph-name="Igrave" unicode="&#xcc;" horiz-adv-x="487" 
d="M90 1999l184 -281h-67l-199 281h82zM281 0h-74v1556h74v-1556z" />
    <glyph glyph-name="Iacute" unicode="&#xcd;" horiz-adv-x="487" 
d="M289 1718h-66l183 281h81zM281 0h-74v1556h74v-1556z" />
    <glyph glyph-name="Icircumflex" unicode="&#xce;" horiz-adv-x="487" 
d="M522 1718h-78l-200 230l-199 -230h-80l246 281h68zM207 1556h74v-1556h-74v1556z" />
    <glyph glyph-name="Idieresis" unicode="&#xcf;" horiz-adv-x="487" 
d="M35 1907q26 0 46 -20q19 -19 19 -44q0 -27 -18 -45t-47 -18t-47 18q-19 19 -19 45q0 24 20 44t46 20zM453 1907q26 0 46 -20q19 -19 19 -44q0 -27 -18 -45t-47 -18q-28 0 -45 17q-19 19 -19 46q0 23 19 44q18 20 45 20zM281 0h-74v1556h74v-1556z" />
    <glyph glyph-name="Eth" unicode="&#xd0;" horiz-adv-x="1785" 
d="M248 1556h534q392 0 630 -214q239 -215 239 -564t-239 -564q-238 -214 -630 -214h-534v739h-187v68h187v749zM322 68h458q359 0 578 195t219 515t-219 515q-220 196 -578 196h-458v-682h376v-68h-376v-671z" />
    <glyph glyph-name="Ntilde" unicode="&#xd1;" horiz-adv-x="1757" 
d="M758 1888q-44 0 -68 -28t-24 -78h-60q0 79 41 122q41 42 107 42q57 0 131 -56q73 -55 121 -55q88 0 88 111h59q0 -79 -41 -125q-40 -45 -104 -45q-61 0 -132 56t-118 56zM1550 1556v-1556h-63l-1204 1430l-2 -1430h-74v1556h65l1205 -1431v1431h73z" />
    <glyph glyph-name="Ograve" unicode="&#xd2;" horiz-adv-x="1849" 
d="M889 1718l-199 281h82l184 -281h-67zM926 1579q333 0 560 -233q228 -234 228 -570t-228 -567q-229 -232 -560 -232t-561 232t-230 567t230 570q229 233 561 233zM926 47q301 0 508 211q206 210 206 518t-206 520q-207 213 -508 213t-508 -213t-207 -520q0 -306 207 -518
q207 -211 508 -211z" />
    <glyph glyph-name="Oacute" unicode="&#xd3;" horiz-adv-x="1849" 
d="M973 1718h-66l183 281h81zM926 1579q333 0 560 -233q228 -234 228 -570t-228 -567q-229 -232 -560 -232t-561 232t-230 567t230 570q229 233 561 233zM926 47q301 0 508 211q206 210 206 518t-206 520q-207 213 -508 213t-508 -213t-207 -520q0 -306 207 -518
q207 -211 508 -211z" />
    <glyph glyph-name="Ocircumflex" unicode="&#xd4;" horiz-adv-x="1849" 
d="M727 1718h-80l246 281h68l243 -281h-78l-200 230zM926 1579q333 0 560 -233q228 -234 228 -570t-228 -567q-229 -232 -560 -232t-561 232t-230 567t230 570q229 233 561 233zM926 47q301 0 508 211q206 210 206 518t-206 520q-207 213 -508 213t-508 -213t-207 -520
q0 -306 207 -518q207 -211 508 -211z" />
    <glyph glyph-name="Otilde" unicode="&#xd5;" horiz-adv-x="1849" 
d="M801 1888q-44 0 -68 -28t-24 -78h-60q0 79 41 122q41 42 107 42q59 0 133 -56q73 -55 119 -55q88 0 88 111h59q0 -79 -41 -125q-41 -45 -104 -45q-61 0 -132 56t-118 56zM926 1579q333 0 560 -233q228 -234 228 -570t-228 -567q-229 -232 -560 -232t-561 232t-230 567
t230 570q229 233 561 233zM926 47q301 0 508 211q206 210 206 518t-206 520q-207 213 -508 213t-508 -213t-207 -520q0 -306 207 -518q207 -211 508 -211z" />
    <glyph glyph-name="Odieresis" unicode="&#xd6;" horiz-adv-x="1849" 
d="M717 1780q-29 0 -47 18q-19 19 -19 45q0 24 20 44t46 20t46 -20q19 -19 19 -44q0 -27 -18 -45t-47 -18zM1135 1780q-29 0 -46 17q-18 18 -18 46q0 23 19 44q18 20 45 20q26 0 46 -20q19 -19 19 -44q0 -27 -18 -45t-47 -18zM926 1579q333 0 560 -233q228 -234 228 -570
t-228 -567q-229 -232 -560 -232t-561 232t-230 567t230 570q229 233 561 233zM926 47q301 0 508 211q206 210 206 518t-206 520q-207 213 -508 213t-508 -213t-207 -520q0 -306 207 -518q207 -211 508 -211z" />
    <glyph glyph-name="multiply" unicode="&#xd7;" horiz-adv-x="1013" 
d="M555 625l299 -299l-47 -50l-299 302l-301 -302l-47 50l299 299l-299 299l47 49l301 -299l299 299l47 -49z" />
    <glyph glyph-name="Oslash" unicode="&#xd8;" horiz-adv-x="1849" 
d="M1620 1509l-141 -157q235 -231 235 -576q0 -336 -228 -567q-229 -232 -560 -232q-294 0 -514 187l-152 -168l-45 43l152 168q-232 232 -232 569q0 335 230 570q229 233 561 233q290 0 506 -182l141 157zM211 776q0 -300 203 -514l970 1081q-197 166 -458 166
q-301 0 -508 -213t-207 -520zM926 47q301 0 508 211q206 210 206 518q0 314 -208 522l-971 -1079q197 -172 465 -172z" />
    <glyph glyph-name="Ugrave" unicode="&#xd9;" horiz-adv-x="1632" 
d="M776 1718l-198 281h81l185 -281h-68zM1444 1556v-890q0 -309 -173 -500t-456 -191t-456 191t-173 500v890h74v-890q0 -280 153 -449q153 -170 402 -170q250 0 402 170q151 169 151 449v890h76z" />
    <glyph glyph-name="Uacute" unicode="&#xda;" horiz-adv-x="1632" 
d="M860 1718h-65l182 281h82zM1444 1556v-890q0 -309 -173 -500t-456 -191t-456 191t-173 500v890h74v-890q0 -280 153 -449q153 -170 402 -170q250 0 402 170q151 169 151 449v890h76z" />
    <glyph glyph-name="Ucircumflex" unicode="&#xdb;" horiz-adv-x="1632" 
d="M614 1718h-79l245 281h68l244 -281h-78l-201 230zM1444 1556v-890q0 -309 -173 -500t-456 -191t-456 191t-173 500v890h74v-890q0 -280 153 -449q153 -170 402 -170q250 0 402 170q151 169 151 449v890h76z" />
    <glyph glyph-name="Udieresis" unicode="&#xdc;" horiz-adv-x="1632" 
d="M604 1780q-29 0 -47 18t-18 45q0 25 19 44q20 20 46 20t46 -20t20 -44q0 -26 -19 -45q-18 -18 -47 -18zM1022 1780q-28 0 -45 17q-19 19 -19 46q0 23 19 44q18 20 45 20q26 0 46 -20q19 -19 19 -44q0 -27 -18 -45t-47 -18zM1444 1556v-890q0 -309 -173 -500t-456 -191
t-456 191t-173 500v890h74v-890q0 -280 153 -449q153 -170 402 -170q250 0 402 170q151 169 151 449v890h76z" />
    <glyph glyph-name="Yacute" unicode="&#xdd;" horiz-adv-x="1490" 
d="M791 1718h-66l182 281h82zM782 518v-518h-75v518l-668 1038h84l622 -966l621 966h86z" />
    <glyph glyph-name="Thorn" unicode="&#xde;" horiz-adv-x="1265" 
d="M281 1167h475q202 0 326 -103t124 -276q0 -172 -124 -275t-326 -103h-475v-410h-74v1556h74v-389zM281 477h473q170 0 274 85q105 86 105 226q0 143 -104 229q-103 85 -275 85h-473v-625z" />
    <glyph glyph-name="germandbls" unicode="&#xdf;" horiz-adv-x="1378" 
d="M887 829q176 -27 280 -134q105 -108 105 -279q0 -184 -122 -311q-121 -125 -339 -125q-209 0 -381 96l27 59q167 -90 356 -90q182 0 287 107q104 105 104 264q0 178 -132 277q-133 100 -345 100h-109v65h105q170 0 275 90q106 91 106 234q0 148 -108 239q-109 92 -283 92
q-197 0 -316 -128q-118 -127 -118 -341v-1044h-72v1042q0 244 139 390q139 147 367 147q207 0 334 -108t127 -279q0 -130 -77 -231q-78 -102 -210 -132z" />
    <glyph glyph-name="agrave" unicode="&#xe0;" horiz-adv-x="1148" 
d="M516 1276l-199 280h82l185 -280h-68zM1122 68l6 -60q-48 -14 -108 -14q-68 0 -109 47t-45 123v57q-60 -111 -172 -177q-114 -67 -252 -67q-149 0 -242 78q-94 79 -94 209q0 281 443 314l317 22v41q0 149 -84 232q-85 83 -229 83q-128 0 -216 -67q-90 -69 -108 -176
l-67 18q23 130 130 209q109 80 263 80q176 0 278 -98q103 -99 103 -277v-469q0 -48 26 -83q25 -34 66 -34zM446 41q169 0 295 112q125 111 125 273v117l-313 -25q-373 -29 -373 -254q0 -104 76 -164q75 -59 190 -59z" />
    <glyph glyph-name="aacute" unicode="&#xe1;" horiz-adv-x="1148" 
d="M600 1276h-65l182 280h82zM1122 68l6 -60q-48 -14 -108 -14q-68 0 -109 47t-45 123v57q-60 -111 -172 -177q-114 -67 -252 -67q-149 0 -242 78q-94 79 -94 209q0 281 443 314l317 22v41q0 149 -84 232q-85 83 -229 83q-128 0 -216 -67q-90 -69 -108 -176l-67 18
q23 130 130 209q109 80 263 80q176 0 278 -98q103 -99 103 -277v-469q0 -48 26 -83q25 -34 66 -34zM446 41q169 0 295 112q125 111 125 273v117l-313 -25q-373 -29 -373 -254q0 -104 76 -164q75 -59 190 -59z" />
    <glyph glyph-name="acircumflex" unicode="&#xe2;" horiz-adv-x="1148" 
d="M354 1276h-80l246 280h68l243 -280h-77l-201 229zM1122 68l6 -60q-48 -14 -108 -14q-68 0 -109 47t-45 123v57q-60 -111 -172 -177q-114 -67 -252 -67q-149 0 -242 78q-94 79 -94 209q0 281 443 314l317 22v41q0 149 -84 232q-85 83 -229 83q-128 0 -216 -67
q-90 -69 -108 -176l-67 18q23 130 130 209q109 80 263 80q176 0 278 -98q103 -99 103 -277v-469q0 -48 26 -83q25 -34 66 -34zM446 41q169 0 295 112q125 111 125 273v117l-313 -25q-373 -29 -373 -254q0 -104 76 -164q75 -59 190 -59z" />
    <glyph glyph-name="atilde" unicode="&#xe3;" horiz-adv-x="1148" 
d="M428 1444q-44 0 -68 -29t-24 -78h-60q0 79 41 122q40 42 107 42q60 0 133 -55t119 -55q88 0 88 110h59q0 -79 -41 -125q-40 -45 -104 -45q-60 0 -132 57q-71 56 -118 56zM1122 68l6 -60q-48 -14 -108 -14q-68 0 -109 47t-45 123v57q-60 -111 -172 -177q-114 -67 -252 -67
q-149 0 -242 78q-94 79 -94 209q0 281 443 314l317 22v41q0 149 -84 232q-85 83 -229 83q-128 0 -216 -67q-90 -69 -108 -176l-67 18q23 130 130 209q109 80 263 80q176 0 278 -98q103 -99 103 -277v-469q0 -48 26 -83q25 -34 66 -34zM446 41q169 0 295 112q125 111 125 273
v117l-313 -25q-373 -29 -373 -254q0 -104 76 -164q75 -59 190 -59z" />
    <glyph glyph-name="adieresis" unicode="&#xe4;" horiz-adv-x="1148" 
d="M344 1337q-28 0 -47 19q-18 18 -18 45q0 25 19 44t46 19t46 -19q20 -20 20 -44q0 -26 -19 -45t-47 -19zM762 1337q-28 0 -46 18t-18 46q0 23 19 44q18 19 45 19t46 -19t19 -44q0 -27 -18 -45q-19 -19 -47 -19zM1122 68l6 -60q-48 -14 -108 -14q-68 0 -109 47t-45 123v57
q-60 -111 -172 -177q-114 -67 -252 -67q-149 0 -242 78q-94 79 -94 209q0 281 443 314l317 22v41q0 149 -84 232q-85 83 -229 83q-128 0 -216 -67q-90 -69 -108 -176l-67 18q23 130 130 209q109 80 263 80q176 0 278 -98q103 -99 103 -277v-469q0 -48 26 -83q25 -34 66 -34z
M446 41q169 0 295 112q125 111 125 273v117l-313 -25q-373 -29 -373 -254q0 -104 76 -164q75 -59 190 -59z" />
    <glyph glyph-name="aring" unicode="&#xe5;" horiz-adv-x="1148" 
d="M553 1249q-76 0 -133 54q-55 52 -55 129q0 76 55 130q56 54 133 54t133 -54q55 -54 55 -130q0 -77 -55 -129q-57 -54 -133 -54zM553 1565q-57 0 -96 -39t-39 -94q0 -54 39 -93t96 -39t97 39t40 93q0 55 -40 94t-97 39zM1122 68l6 -60q-48 -14 -108 -14q-68 0 -109 47
t-45 123v57q-60 -111 -172 -177q-114 -67 -252 -67q-149 0 -242 78q-94 79 -94 209q0 281 443 314l317 22v41q0 149 -84 232q-85 83 -229 83q-128 0 -216 -67q-90 -69 -108 -176l-67 18q23 130 130 209q109 80 263 80q176 0 278 -98q103 -99 103 -277v-469q0 -48 26 -83
q25 -34 66 -34zM446 41q169 0 295 112q125 111 125 273v117l-313 -25q-373 -29 -373 -254q0 -104 76 -164q75 -59 190 -59z" />
    <glyph glyph-name="ae" unicode="&#xe6;" horiz-adv-x="1939" 
d="M1833 483h-872q5 -202 120 -320q117 -120 285 -120q127 0 236 74q108 74 149 205l64 -17q-38 -144 -164 -235q-130 -93 -287 -93q-152 0 -270 86q-117 85 -168 236q-45 -147 -172 -234q-129 -88 -295 -88q-162 0 -257 80q-96 81 -96 207q0 131 101 205t270 74h416v116
q0 133 -88 215t-236 82q-137 0 -230 -68q-95 -70 -110 -179l-69 18q15 128 129 211q113 82 278 82q146 0 249 -71q102 -71 132 -193q60 128 171 196q112 68 251 68q206 0 330 -141q126 -142 133 -369v-27zM961 543h798q-15 186 -118 299q-104 114 -269 114q-164 0 -281 -110
q-118 -111 -130 -303zM893 483h-416q-139 0 -220 -57t-81 -160q0 -102 77 -164q76 -61 208 -61q183 0 307 118q125 119 125 306v18z" />
    <glyph glyph-name="ccedilla" unicode="&#xe7;" horiz-adv-x="1198" 
d="M627 47q151 0 261 79q112 80 152 212l66 -23q-44 -146 -164 -235q-122 -91 -285 -98l-182 -347h-82l203 347q-214 12 -351 157q-139 147 -139 363q0 223 150 370q151 148 371 148q172 0 302 -91q131 -92 177 -241l-68 -22q-41 131 -151 210q-109 78 -260 78
q-195 0 -323 -128t-128 -324t128 -326q128 -129 323 -129z" />
    <glyph glyph-name="egrave" unicode="&#xe8;" horiz-adv-x="1210" 
d="M588 1276l-199 280h82l184 -280h-67zM1104 528v-28h-926l-2 -4q0 -203 131 -328t301 -125q146 0 254 70q107 69 158 206l63 -16q-52 -155 -177 -241q-124 -85 -298 -85q-198 0 -350 144t-152 375q0 235 154 380q153 144 365 144q207 0 340 -136t139 -356zM625 954
q-167 0 -296 -107q-131 -108 -149 -288h852q-15 183 -128 289t-279 106z" />
    <glyph glyph-name="eacute" unicode="&#xe9;" horiz-adv-x="1210" 
d="M670 1276h-66l182 280h82zM1104 528v-28h-926l-2 -4q0 -203 131 -328t301 -125q146 0 254 70q107 69 158 206l63 -16q-52 -155 -177 -241q-124 -85 -298 -85q-198 0 -350 144t-152 375q0 235 154 380q153 144 365 144q207 0 340 -136t139 -356zM625 954q-167 0 -296 -107
q-131 -108 -149 -288h852q-15 183 -128 289t-279 106z" />
    <glyph glyph-name="ecircumflex" unicode="&#xea;" horiz-adv-x="1210" 
d="M426 1276h-80l246 280h67l244 -280h-78l-200 229zM1104 528v-28h-926l-2 -4q0 -203 131 -328t301 -125q146 0 254 70q107 69 158 206l63 -16q-52 -155 -177 -241q-124 -85 -298 -85q-198 0 -350 144t-152 375q0 235 154 380q153 144 365 144q207 0 340 -136t139 -356z
M625 954q-167 0 -296 -107q-131 -108 -149 -288h852q-15 183 -128 289t-279 106z" />
    <glyph glyph-name="edieresis" unicode="&#xeb;" horiz-adv-x="1210" 
d="M416 1337q-28 0 -47 19t-19 45q0 24 20 44q19 19 46 19t46 -19t19 -44q0 -27 -18 -45q-19 -19 -47 -19zM834 1337q-28 0 -46 18t-18 46q0 24 18 44q18 19 46 19q27 0 46 -19t19 -44q0 -27 -18 -45q-19 -19 -47 -19zM1104 528v-28h-926l-2 -4q0 -203 131 -328t301 -125
q146 0 254 70q107 69 158 206l63 -16q-52 -155 -177 -241q-124 -85 -298 -85q-198 0 -350 144t-152 375q0 235 154 380q153 144 365 144q207 0 340 -136t139 -356zM625 954q-167 0 -296 -107q-131 -108 -149 -288h852q-15 183 -128 289t-279 106z" />
    <glyph glyph-name="igrave" unicode="&#xec;" horiz-adv-x="542" 
d="M119 1556l184 -280h-67l-199 280h82zM307 0h-71v999h71v-999z" />
    <glyph glyph-name="iacute" unicode="&#xed;" horiz-adv-x="542" 
d="M319 1276h-65l182 280h82zM307 0h-71v999h71v-999z" />
    <glyph glyph-name="icircumflex" unicode="&#xee;" horiz-adv-x="542" 
d="M551 1276h-78l-201 229l-198 -229h-80l246 280h67zM236 999h71v-999h-71v999z" />
    <glyph glyph-name="idieresis" unicode="&#xef;" horiz-adv-x="542" 
d="M63 1464q28 0 47 -19t19 -44q0 -27 -18 -45q-19 -19 -48 -19q-28 0 -47 19q-18 18 -18 45q0 25 19 44t46 19zM481 1464q27 0 46 -19q20 -20 20 -44q0 -26 -19 -45t-47 -19q-27 0 -45 18t-18 46q0 24 18 44q18 19 45 19zM307 0h-71v999h71v-999z" />
    <glyph glyph-name="eth" unicode="&#xf0;" horiz-adv-x="1247" 
d="M918 1483l-179 -86q185 -191 293 -441q109 -253 109 -448q0 -237 -150 -384t-362 -147q-213 0 -368 147t-155 376q0 225 154 373q153 147 363 147q231 0 368 -160h10q-100 279 -329 502l-277 -133l-26 53l254 125q-169 148 -347 209v22h130q154 -73 288 -196l195 96z
M635 43q107 0 192 43q87 44 138 113t78 150q28 84 28 161q0 190 -133 317t-315 127t-315 -128q-132 -128 -132 -328t134 -328q133 -127 325 -127z" />
    <glyph glyph-name="ntilde" unicode="&#xf1;" horiz-adv-x="1290" 
d="M545 1444q-44 0 -68 -29t-24 -78h-60q0 79 41 122q41 42 107 42q58 0 131 -55t121 -55q88 0 88 110h59q0 -79 -41 -125q-41 -45 -104 -45q-60 0 -132 57q-71 56 -118 56zM702 1020q182 0 293 -118t111 -312v-590h-72v584q0 165 -92 268q-92 102 -242 102
q-192 0 -306 -120q-115 -121 -115 -324v-510h-72v999h72v-241q56 125 165 193q111 69 258 69z" />
    <glyph glyph-name="ograve" unicode="&#xf2;" horiz-adv-x="1257" 
d="M592 1276l-199 280h82l184 -280h-67zM629 1020q221 0 372 -148q150 -147 150 -370q0 -225 -150 -375t-372 -150q-223 0 -373 150t-150 375q0 223 150 370q151 148 373 148zM629 43q194 0 323 130q129 131 129 329q0 196 -129 324q-130 128 -323 128q-194 0 -324 -128
q-129 -128 -129 -324q0 -198 129 -329q129 -130 324 -130z" />
    <glyph glyph-name="oacute" unicode="&#xf3;" horiz-adv-x="1257" 
d="M674 1276h-66l183 280h81zM629 1020q221 0 372 -148q150 -147 150 -370q0 -225 -150 -375t-372 -150q-223 0 -373 150t-150 375q0 223 150 370q151 148 373 148zM629 43q194 0 323 130q129 131 129 329q0 196 -129 324q-130 128 -323 128q-194 0 -324 -128
q-129 -128 -129 -324q0 -198 129 -329q129 -130 324 -130z" />
    <glyph glyph-name="ocircumflex" unicode="&#xf4;" horiz-adv-x="1257" 
d="M430 1276h-80l246 280h68l243 -280h-78l-200 229zM629 1020q221 0 372 -148q150 -147 150 -370q0 -225 -150 -375t-372 -150q-223 0 -373 150t-150 375q0 223 150 370q151 148 373 148zM629 43q194 0 323 130q129 131 129 329q0 196 -129 324q-130 128 -323 128
q-194 0 -324 -128q-129 -128 -129 -324q0 -198 129 -329q129 -130 324 -130z" />
    <glyph glyph-name="otilde" unicode="&#xf5;" horiz-adv-x="1257" 
d="M504 1444q-44 0 -68 -29t-24 -78h-60q0 79 41 122q41 42 107 42q58 0 131 -55t121 -55q88 0 88 110h59q0 -79 -41 -125q-40 -45 -104 -45q-60 0 -132 57q-71 56 -118 56zM629 1020q221 0 372 -148q150 -147 150 -370q0 -225 -150 -375t-372 -150q-223 0 -373 150
t-150 375q0 223 150 370q151 148 373 148zM629 43q194 0 323 130q129 131 129 329q0 196 -129 324q-130 128 -323 128q-194 0 -324 -128q-129 -128 -129 -324q0 -198 129 -329q129 -130 324 -130z" />
    <glyph glyph-name="odieresis" unicode="&#xf6;" horiz-adv-x="1257" 
d="M420 1337q-28 0 -47 19t-19 45q0 24 20 44q19 19 46 19t46 -19t19 -44q0 -27 -18 -45q-19 -19 -47 -19zM838 1337q-27 0 -45 18q-19 19 -19 46q0 23 19 44q18 19 45 19t46 -19t19 -44q0 -27 -18 -45q-19 -19 -47 -19zM629 1020q221 0 372 -148q150 -147 150 -370
q0 -225 -150 -375t-372 -150q-223 0 -373 150t-150 375q0 223 150 370q151 148 373 148zM629 43q194 0 323 130q129 131 129 329q0 196 -129 324q-130 128 -323 128q-194 0 -324 -128q-129 -128 -129 -324q0 -198 129 -329q129 -130 324 -130z" />
    <glyph glyph-name="divide" unicode="&#xf7;" horiz-adv-x="1187" 
d="M592 1063q26 0 46 -20q19 -19 19 -44q0 -27 -18 -45t-47 -18q-28 0 -45 17q-19 19 -19 46q0 23 19 44q18 20 45 20zM1030 592h-870v65h870v-65zM592 313q26 0 46 -18q19 -18 19 -45q0 -26 -18 -44t-47 -18q-27 0 -45 18q-19 19 -19 44q0 26 19 45q18 18 45 18z" />
    <glyph glyph-name="oslash" unicode="&#xf8;" horiz-adv-x="1247" 
d="M1141 971l-119 -119q129 -146 129 -350q0 -225 -150 -375t-372 -150q-204 0 -353 132l-126 -127l-44 45l125 125q-125 148 -125 350q0 223 150 370q151 148 373 148q206 0 348 -125l121 121zM176 502q0 -174 105 -301l649 647q-124 106 -301 106q-194 0 -324 -128
q-129 -128 -129 -324zM629 43q194 0 323 130q129 131 129 329q0 174 -108 303l-649 -649q125 -113 305 -113z" />
    <glyph glyph-name="ugrave" unicode="&#xf9;" horiz-adv-x="1290" 
d="M594 1276l-199 280h82l185 -280h-68zM1083 999v-999h-69v246q-53 -125 -165 -196q-110 -70 -261 -70q-182 0 -293 118q-111 119 -111 312v589h72v-583q0 -166 92 -269q92 -102 242 -102q190 0 307 121q117 122 117 323v510h69z" />
    <glyph glyph-name="uacute" unicode="&#xfa;" horiz-adv-x="1290" 
d="M678 1276h-66l183 280h82zM1083 999v-999h-69v246q-53 -125 -165 -196q-110 -70 -261 -70q-182 0 -293 118q-111 119 -111 312v589h72v-583q0 -166 92 -269q92 -102 242 -102q190 0 307 121q117 122 117 323v510h69z" />
    <glyph glyph-name="ucircumflex" unicode="&#xfb;" horiz-adv-x="1290" 
d="M434 1276h-80l246 280h68l243 -280h-77l-201 229zM1083 999v-999h-69v246q-53 -125 -165 -196q-110 -70 -261 -70q-182 0 -293 118q-111 119 -111 312v589h72v-583q0 -166 92 -269q92 -102 242 -102q190 0 307 121q117 122 117 323v510h69z" />
    <glyph glyph-name="udieresis" unicode="&#xfc;" horiz-adv-x="1290" 
d="M424 1337q-28 0 -47 19t-19 45q0 24 20 44q19 19 46 19t46 -19t19 -44q0 -27 -18 -45q-19 -19 -47 -19zM842 1337q-27 0 -45 18q-19 19 -19 46q0 23 19 44q18 19 45 19t46 -19t19 -44q0 -27 -18 -45q-19 -19 -47 -19zM1083 999v-999h-69v246q-53 -125 -165 -196
q-110 -70 -261 -70q-182 0 -293 118q-111 119 -111 312v589h72v-583q0 -166 92 -269q92 -102 242 -102q190 0 307 121q117 122 117 323v510h69z" />
    <glyph glyph-name="yacute" unicode="&#xfd;" horiz-adv-x="1173" 
d="M639 1276h-66l183 280h82zM1135 999l-803 -1572h-78l295 577l-510 995h80l469 -917l469 917h78z" />
    <glyph glyph-name="thorn" unicode="&#xfe;" 
d="M725 1020q213 0 360 -144q148 -145 148 -376t-148 -377t-360 -146q-142 0 -263 71q-119 70 -183 196v-817h-72v2211h72v-882q63 122 183 193q121 71 263 71zM719 43q187 0 314 126q128 126 128 331q0 202 -128 328q-127 126 -314 126q-177 0 -308 -127
q-132 -127 -132 -327q0 -202 132 -330q131 -127 308 -127z" />
    <glyph glyph-name="ydieresis" unicode="&#xff;" horiz-adv-x="1173" 
d="M383 1337q-28 0 -47 19t-19 45q0 24 20 44q19 19 46 19t46 -19q20 -20 20 -44q0 -26 -19 -45t-47 -19zM801 1337q-27 0 -45 18q-19 19 -19 46q0 23 19 44q18 19 45 19t46 -19t19 -44q0 -27 -18 -45q-19 -19 -47 -19zM1135 999l-803 -1572h-78l295 577l-510 995h80
l469 -917l469 917h78z" />
    <glyph glyph-name="Amacron" unicode="&#x100;" horiz-adv-x="1585" 
d="M1057 1769h-529v60h529v-60zM1550 0h-80l-196 422h-961l-196 -422h-80l727 1556h59zM1241 489l-448 963l-449 -963h897z" />
    <glyph glyph-name="amacron" unicode="&#x101;" horiz-adv-x="1148" 
d="M817 1327h-528v59h528v-59zM1122 68l6 -60q-48 -14 -108 -14q-68 0 -109 47t-45 123v57q-60 -111 -172 -177q-114 -67 -252 -67q-149 0 -242 78q-94 79 -94 209q0 281 443 314l317 22v41q0 149 -84 232q-85 83 -229 83q-128 0 -216 -67q-90 -69 -108 -176l-67 18
q23 130 130 209q109 80 263 80q176 0 278 -98q103 -99 103 -277v-469q0 -48 26 -83q25 -34 66 -34zM446 41q169 0 295 112q125 111 125 273v117l-313 -25q-373 -29 -373 -254q0 -104 76 -164q75 -59 190 -59z" />
    <glyph glyph-name="Abreve" unicode="&#x102;" horiz-adv-x="1585" 
d="M793 1704q-115 0 -189 71t-74 181h62q0 -88 57 -142q58 -55 144 -55q85 0 143 55q57 54 57 142h64q0 -110 -75 -181q-76 -71 -189 -71zM1550 0h-80l-196 422h-961l-196 -422h-80l727 1556h59zM1241 489l-448 963l-449 -963h897z" />
    <glyph glyph-name="abreve" unicode="&#x103;" horiz-adv-x="1148" 
d="M553 1260q-115 0 -188 70q-74 71 -74 181h61q0 -87 58 -142q57 -54 143 -54t143 54q58 55 58 142h63q0 -111 -75 -181q-74 -70 -189 -70zM1122 68l6 -60q-48 -14 -108 -14q-68 0 -109 47t-45 123v57q-60 -111 -172 -177q-114 -67 -252 -67q-149 0 -242 78q-94 79 -94 209
q0 281 443 314l317 22v41q0 149 -84 232q-85 83 -229 83q-128 0 -216 -67q-90 -69 -108 -176l-67 18q23 130 130 209q109 80 263 80q176 0 278 -98q103 -99 103 -277v-469q0 -48 26 -83q25 -34 66 -34zM446 41q169 0 295 112q125 111 125 273v117l-313 -25
q-373 -29 -373 -254q0 -104 76 -164q75 -59 190 -59z" />
    <glyph glyph-name="Aogonek" unicode="&#x104;" horiz-adv-x="1585" 
d="M1599 -317l11 -54q-68 -24 -111 -24q-73 0 -117 43q-45 44 -45 116q0 58 30 108t110 128h-7l-196 422h-961l-196 -422h-80l727 1556h59l727 -1556q-86 -82 -117 -129q-32 -47 -32 -100q0 -46 29 -77q28 -30 75 -30q29 0 94 19zM1241 489l-448 963l-449 -963h897z" />
    <glyph glyph-name="aogonek" unicode="&#x105;" horiz-adv-x="1148" 
d="M1180 -309l10 -53q-70 -25 -111 -25q-72 0 -116 43q-45 44 -45 117q0 57 26 103q29 52 98 118h-22q-68 0 -109 47t-45 123v57q-60 -111 -172 -177q-114 -67 -252 -67q-149 0 -242 78q-94 79 -94 209q0 281 443 314l317 22v41q0 149 -84 232q-85 83 -229 83
q-128 0 -216 -67q-90 -69 -108 -176l-67 18q23 130 130 209q109 80 263 80q176 0 278 -98q103 -99 103 -277v-469q0 -48 26 -83q25 -34 66 -34l94 9l6 -60h2q-86 -82 -117 -129q-32 -47 -32 -100q0 -46 29 -77q28 -30 75 -30q30 0 95 19zM446 41q169 0 295 112
q125 111 125 273v117l-313 -25q-373 -29 -373 -254q0 -104 76 -164q75 -59 190 -59z" />
    <glyph glyph-name="Cacute" unicode="&#x106;" horiz-adv-x="1816" 
d="M975 1718h-66l183 281h82zM928 45q255 0 434 140q181 142 248 374l71 -16q-73 -256 -274 -412t-479 -156q-333 0 -563 233t-230 568t230 570q229 233 563 233q277 0 479 -155q201 -154 274 -410l-71 -21q-68 234 -249 375t-433 141q-300 0 -509 -213q-208 -212 -208 -520
t208 -519q209 -212 509 -212z" />
    <glyph glyph-name="cacute" unicode="&#x107;" horiz-adv-x="1198" 
d="M680 1276h-66l183 280h82zM627 47q151 0 261 79q112 80 152 212l66 -23q-45 -151 -175 -242t-304 -91q-223 0 -372 147t-149 373q0 223 150 370q151 148 371 148q172 0 302 -91q131 -92 177 -241l-68 -22q-41 131 -151 210q-109 78 -260 78q-195 0 -323 -128t-128 -324
t128 -326q128 -129 323 -129z" />
    <glyph glyph-name="Cdotaccent" unicode="&#x10a;" horiz-adv-x="1816" 
d="M928 1780q-29 0 -47 18q-19 19 -19 45q0 25 20 43q21 19 46 19t46 -19q19 -18 19 -43q0 -27 -18 -45t-47 -18zM928 45q255 0 434 140q181 142 248 374l71 -16q-73 -256 -274 -412t-479 -156q-333 0 -563 233t-230 568t230 570q229 233 563 233q277 0 479 -155
q201 -154 274 -410l-71 -21q-68 234 -249 375t-433 141q-300 0 -509 -213q-208 -212 -208 -520t208 -519q209 -212 509 -212z" />
    <glyph glyph-name="cdotaccent" unicode="&#x10b;" horiz-adv-x="1198" 
d="M633 1337q-28 0 -47 19t-19 45q0 25 20 43q19 18 46 18t46 -18t19 -43q0 -27 -18 -45q-19 -19 -47 -19zM627 47q151 0 261 79q112 80 152 212l66 -23q-45 -151 -175 -242t-304 -91q-223 0 -372 147t-149 373q0 223 150 370q151 148 371 148q172 0 302 -91
q131 -92 177 -241l-68 -22q-41 131 -151 210q-109 78 -260 78q-195 0 -323 -128t-128 -324t128 -326q128 -129 323 -129z" />
    <glyph glyph-name="Ccaron" unicode="&#x10c;" horiz-adv-x="1816" 
d="M895 1716l-246 281h80l199 -228l200 228h78l-243 -281h-68zM928 45q255 0 434 140q181 142 248 374l71 -16q-73 -256 -274 -412t-479 -156q-333 0 -563 233t-230 568t230 570q229 233 563 233q277 0 479 -155q201 -154 274 -410l-71 -21q-68 234 -249 375t-433 141
q-300 0 -509 -213q-208 -212 -208 -520t208 -519q209 -212 509 -212z" />
    <glyph glyph-name="ccaron" unicode="&#x10d;" horiz-adv-x="1198" 
d="M600 1274l-246 280h80l199 -227l201 227h77l-243 -280h-68zM627 47q151 0 261 79q112 80 152 212l66 -23q-45 -151 -175 -242t-304 -91q-223 0 -372 147t-149 373q0 223 150 370q151 148 371 148q172 0 302 -91q131 -92 177 -241l-68 -22q-41 131 -151 210
q-109 78 -260 78q-195 0 -323 -128t-128 -324t128 -326q128 -129 323 -129z" />
    <glyph glyph-name="Dcaron" unicode="&#x10e;" horiz-adv-x="1744" 
d="M768 1716l-246 281h80l199 -228l200 228h78l-243 -281h-68zM207 1556h534q392 0 630 -214q239 -215 239 -564t-239 -564q-238 -214 -630 -214h-534v1556zM281 68h458q359 0 578 195t219 515t-219 515q-220 196 -578 196h-458v-1421z" />
    <glyph glyph-name="dcaron" unicode="&#x10f;" 
d="M1061 1638h72v-1638h-72v246q-63 -125 -182 -197t-265 -72q-212 0 -360 146t-148 377t148 376q147 144 360 144q146 0 265 -71t182 -195v884zM1411 1638l-16 -313h-58v313h74zM618 43q180 0 311 127q132 128 132 330q0 200 -132 327q-131 127 -311 127q-186 0 -314 -126
t-128 -328q0 -205 128 -331t314 -126z" />
    <glyph glyph-name="Dcroat" unicode="&#x110;" horiz-adv-x="1785" 
d="M248 1556h534q392 0 630 -214q239 -215 239 -564t-239 -564q-238 -214 -630 -214h-534v739h-187v68h187v749zM322 68h458q359 0 578 195t219 515t-219 515q-220 196 -578 196h-458v-682h376v-68h-376v-671z" />
    <glyph glyph-name="dcroat" unicode="&#x111;" horiz-adv-x="1376" 
d="M1315 1284h-182v-1284h-72v246q-63 -125 -182 -197t-265 -72q-212 0 -360 146t-148 377t148 376q147 144 360 144q146 0 265 -71t182 -195v530h-393v64h393v290h72v-290h182v-64zM618 43q180 0 311 127q132 128 132 330q0 200 -132 327q-131 127 -311 127
q-186 0 -314 -126t-128 -328q0 -205 128 -331t314 -126z" />
    <glyph glyph-name="Emacron" unicode="&#x112;" 
d="M995 1769h-528v60h528v-60zM281 1489v-604h880v-68h-880v-749h925v-68h-999v1556h999v-67h-925z" />
    <glyph glyph-name="emacron" unicode="&#x113;" horiz-adv-x="1210" 
d="M889 1327h-529v59h529v-59zM1104 528v-28h-926l-2 -4q0 -203 131 -328t301 -125q146 0 254 70q107 69 158 206l63 -16q-52 -155 -177 -241q-124 -85 -298 -85q-198 0 -350 144t-152 375q0 235 154 380q153 144 365 144q207 0 340 -136t139 -356zM625 954
q-167 0 -296 -107q-131 -108 -149 -288h852q-15 183 -128 289t-279 106z" />
    <glyph glyph-name="Edotaccent" unicode="&#x116;" 
d="M731 1780q-29 0 -47 18t-18 45q0 25 19 43q21 19 46 19t46 -19q20 -18 20 -43q0 -26 -19 -45q-18 -18 -47 -18zM281 1489v-604h880v-68h-880v-749h925v-68h-999v1556h999v-67h-925z" />
    <glyph glyph-name="edotaccent" unicode="&#x117;" horiz-adv-x="1210" 
d="M625 1337q-28 0 -47 19t-19 45q0 25 20 43q19 18 46 18t46 -18t19 -43q0 -27 -18 -45q-19 -19 -47 -19zM1104 528v-28h-926l-2 -4q0 -203 131 -328t301 -125q146 0 254 70q107 69 158 206l63 -16q-52 -155 -177 -241q-124 -85 -298 -85q-198 0 -350 144t-152 375
q0 235 154 380q153 144 365 144q207 0 340 -136t139 -356zM625 954q-167 0 -296 -107q-131 -108 -149 -288h852q-15 183 -128 289t-279 106z" />
    <glyph glyph-name="Eogonek" unicode="&#x118;" 
d="M281 1489v-604h880v-68h-880v-749h925v-68h-80q-86 -82 -117 -129q-32 -47 -32 -100q0 -46 29 -77q28 -30 75 -30q30 0 95 19l10 -54q-68 -24 -111 -24q-73 0 -117 43q-45 44 -45 116q0 58 30 108t110 128h-846v1556h999v-67h-925z" />
    <glyph glyph-name="eogonek" unicode="&#x119;" horiz-adv-x="1212" 
d="M1106 500h-930q0 -205 128 -331t300 -126q141 0 258 81q116 81 160 204l57 -19q-27 -74 -86 -149q-135 -173 -181 -245q-42 -66 -42 -126q0 -55 33 -85t90 -30q36 0 94 25l17 -57q-57 -27 -117 -27q-81 0 -131 44q-49 43 -49 124q0 53 28 108q29 57 101 148
q-109 -62 -232 -62q-202 0 -350 145t-148 378q0 232 156 377q155 145 361 145t343 -137q135 -135 140 -357v-28zM178 559h854q-15 185 -129 291q-113 106 -278 106q-162 0 -295 -109q-134 -110 -152 -288z" />
    <glyph glyph-name="Ecaron" unicode="&#x11a;" 
d="M698 1716l-245 281h79l199 -228l201 228h78l-244 -281h-68zM281 1489v-604h880v-68h-880v-749h925v-68h-999v1556h999v-67h-925z" />
    <glyph glyph-name="ecaron" unicode="&#x11b;" horiz-adv-x="1210" 
d="M592 1274l-246 280h80l199 -227l200 227h78l-244 -280h-67zM1104 528v-28h-926l-2 -4q0 -203 131 -328t301 -125q146 0 254 70q107 69 158 206l63 -16q-52 -155 -177 -241q-124 -85 -298 -85q-198 0 -350 144t-152 375q0 235 154 380q153 144 365 144q207 0 340 -136
t139 -356zM625 954q-167 0 -296 -107q-131 -108 -149 -288h852q-15 183 -128 289t-279 106z" />
    <glyph glyph-name="Gbreve" unicode="&#x11e;" horiz-adv-x="1839" 
d="M932 1704q-115 0 -189 71q-73 70 -73 181h61q0 -88 57 -142q58 -55 144 -55q85 0 143 55t58 142h63q0 -110 -75 -181q-76 -71 -189 -71zM719 811h983q0 -10 1 -18t1 -17q0 -336 -216 -568q-216 -233 -558 -233q-333 0 -564 233q-231 232 -231 568q0 335 230 570
q229 233 561 233q264 0 470 -153q204 -152 281 -400l-69 -22q-68 226 -255 366q-185 139 -427 139q-301 0 -508 -213t-207 -520t209 -519t512 -212q300 0 494 201t204 497h-911v68z" />
    <glyph glyph-name="gbreve" unicode="&#x11f;" horiz-adv-x="1218" 
d="M604 1260q-115 0 -188 70q-74 71 -74 181h61q0 -87 58 -142q57 -54 143 -54q87 0 144 54t57 142h63q0 -111 -74 -181t-190 -70zM1198 936l-340 -2q141 -108 141 -289q0 -160 -115 -266q-116 -107 -288 -107q-177 0 -297 115q-104 -51 -104 -145q0 -76 57 -121t154 -45
h366q164 0 264 -88q101 -89 101 -234q0 -171 -138 -280t-362 -109h-76q-224 0 -363 107t-139 278q0 100 52 180q51 77 141 115q-125 62 -125 195q0 118 135 192q-67 94 -67 213q0 161 114 268q115 107 287 107q76 0 137 -21h465v-63zM932 645q0 131 -97 221t-239 90
t-238 -90t-96 -221t96 -220q97 -89 238 -89t239 89q97 88 97 220zM772 12h-362q-126 0 -202 -70q-77 -71 -77 -188q0 -145 120 -235t314 -90h72q192 0 310 91t118 234q0 118 -81 188q-80 70 -212 70z" />
    <glyph glyph-name="Gdotaccent" unicode="&#x120;" horiz-adv-x="1839" 
d="M932 1780q-29 0 -47 18q-19 19 -19 45q0 25 20 43q21 19 46 19t46 -19q19 -18 19 -43q0 -27 -18 -45t-47 -18zM719 811h983q0 -10 1 -18t1 -17q0 -336 -216 -568q-216 -233 -558 -233q-333 0 -564 233q-231 232 -231 568q0 335 230 570q229 233 561 233q264 0 470 -153
q204 -152 281 -400l-69 -22q-68 226 -255 366q-185 139 -427 139q-301 0 -508 -213t-207 -520t209 -519t512 -212q300 0 494 201t204 497h-911v68z" />
    <glyph glyph-name="gdotaccent" unicode="&#x121;" horiz-adv-x="1218" 
d="M604 1337q-28 0 -47 19q-18 18 -18 45q0 25 19 43q20 18 46 18t46 -18t20 -43q0 -26 -19 -45t-47 -19zM1198 936l-340 -2q141 -108 141 -289q0 -160 -115 -266q-116 -107 -288 -107q-177 0 -297 115q-104 -51 -104 -145q0 -76 57 -121t154 -45h366q164 0 264 -88
q101 -89 101 -234q0 -171 -138 -280t-362 -109h-76q-224 0 -363 107t-139 278q0 100 52 180q51 77 141 115q-125 62 -125 195q0 118 135 192q-67 94 -67 213q0 161 114 268q115 107 287 107q76 0 137 -21h465v-63zM932 645q0 131 -97 221t-239 90t-238 -90t-96 -221t96 -220
q97 -89 238 -89t239 89q97 88 97 220zM772 12h-362q-126 0 -202 -70q-77 -71 -77 -188q0 -145 120 -235t314 -90h72q192 0 310 91t118 234q0 118 -81 188q-80 70 -212 70z" />
    <glyph glyph-name="Gcommaaccent" unicode="&#x122;" horiz-adv-x="1839" 
d="M719 811h983q0 -10 1 -18t1 -17q0 -336 -216 -568q-216 -233 -558 -233q-333 0 -564 233q-231 232 -231 568q0 335 230 570q229 233 561 233q264 0 470 -153q204 -152 281 -400l-69 -22q-68 226 -255 366q-185 139 -427 139q-301 0 -508 -213t-207 -520t209 -519
t512 -212q300 0 494 201t204 497h-911v68zM864 -92h78l-106 -281h-62z" />
    <glyph glyph-name="gcommaaccent" unicode="&#x123;" horiz-adv-x="1218" 
d="M668 1270h-78l106 280h62zM1198 936l-340 -2q141 -108 141 -289q0 -160 -115 -266q-116 -107 -288 -107q-177 0 -297 115q-104 -51 -104 -145q0 -76 57 -121t154 -45h366q164 0 264 -88q101 -89 101 -234q0 -171 -138 -280t-362 -109h-76q-224 0 -363 107t-139 278
q0 100 52 180q51 77 141 115q-125 62 -125 195q0 118 135 192q-67 94 -67 213q0 161 114 268q115 107 287 107q76 0 137 -21h465v-63zM932 645q0 131 -97 221t-239 90t-238 -90t-96 -221t96 -220q97 -89 238 -89t239 89q97 88 97 220zM772 12h-362q-126 0 -202 -70
q-77 -71 -77 -188q0 -145 120 -235t314 -90h72q192 0 310 91t118 234q0 118 -81 188q-80 70 -212 70z" />
    <glyph glyph-name="Hbar" unicode="&#x126;" horiz-adv-x="1646" 
d="M1585 1143h-149v-1143h-74v739h-1077v-739h-74v1143h-150v65h150v348h74v-348h1077v348h74v-348h149v-65zM1362 1143h-1077v-336h1077v336z" />
    <glyph glyph-name="hbar" unicode="&#x127;" horiz-adv-x="1323" 
d="M735 1020q180 0 291 -118t111 -312v-590h-70v584q0 166 -93 268t-243 102q-192 0 -306 -120q-116 -122 -116 -324v-510h-71v1290h-177v58h177v290h71v-290h396v-58h-396v-536q52 123 165 195q112 71 261 71z" />
    <glyph glyph-name="Imacron" unicode="&#x12a;" horiz-adv-x="487" 
d="M508 1769h-528v60h528v-60zM281 0h-74v1556h74v-1556z" />
    <glyph glyph-name="imacron" unicode="&#x12b;" horiz-adv-x="542" 
d="M537 1327h-529v59h529v-59zM307 0h-71v999h71v-999z" />
    <glyph glyph-name="Iogonek" unicode="&#x12e;" horiz-adv-x="487" 
d="M330 -317l10 -54q-68 -24 -111 -24q-72 0 -116 43q-45 44 -45 116q0 60 29 108q30 50 110 128v1556h74v-1556q-88 -85 -118 -129q-32 -47 -32 -100q0 -46 29 -77q28 -30 76 -30q29 0 94 19z" />
    <glyph glyph-name="iogonek" unicode="&#x12f;" horiz-adv-x="542" 
d="M272 1337q-28 0 -47 19q-18 18 -18 45q0 25 19 43t46 18q26 0 46 -18t20 -43q0 -26 -19 -45t-47 -19zM358 -317l11 -54q-67 -24 -111 -24q-73 0 -117 43q-45 44 -45 116q0 58 30 108t110 128v999h71v-999h2q-88 -85 -118 -129q-31 -46 -31 -100q0 -48 28 -77
q28 -30 76 -30q29 0 94 19z" />
    <glyph glyph-name="Idotaccent" unicode="&#x130;" horiz-adv-x="487" 
d="M244 1905q25 0 46 -19q19 -18 19 -43q0 -27 -18 -45t-47 -18t-47 18q-19 19 -19 45q0 25 20 43q21 19 46 19zM281 0h-74v1556h74v-1556z" />
    <glyph glyph-name="dotlessi" unicode="&#x131;" horiz-adv-x="542" 
d="M307 0h-71v999h71v-999z" />
    <glyph glyph-name="IJ" unicode="&#x132;" horiz-adv-x="1884" 
d="M207 1556h74v-1556h-74v1556zM1698 1556v-978q0 -268 -160 -436q-159 -167 -418 -167q-232 0 -388 136q-155 135 -183 358l69 23q28 -203 163 -326q133 -121 339 -121q225 0 364 148q138 147 138 385v978h76z" />
    <glyph glyph-name="ij" unicode="&#x133;" horiz-adv-x="1087" 
d="M260 1462q26 0 46 -18t20 -45q0 -26 -19 -45t-47 -19t-47 19q-18 18 -18 45t19 45t46 18zM825 1462q27 0 46 -18q20 -18 20 -45q0 -26 -19 -45t-47 -19t-47 19q-18 18 -18 45t19 45t46 18zM297 0h-72v999h72v-999zM506 -561l22 61q45 -26 101 -26q72 0 115 43
q44 44 44 114v1368h72v-1372q0 -101 -60 -161t-159 -60q-75 0 -135 33z" />
    <glyph glyph-name="Kcommaaccent" unicode="&#x136;" horiz-adv-x="1452" 
d="M1364 0h-113l-970 758v-758h-74v1556h74v-759l970 759h109l-993 -778zM678 -92h78l-107 -281h-61z" />
    <glyph glyph-name="kcommaaccent" unicode="&#x137;" horiz-adv-x="1136" 
d="M1100 0h-111l-710 477v-477h-72v1638h72v-1118l677 479h105l-699 -499zM555 -92h78l-107 -281h-61z" />
    <glyph glyph-name="Lacute" unicode="&#x139;" horiz-adv-x="1255" 
d="M289 1718h-66l183 281h81zM1192 68v-68h-985v1556h74v-1488h911z" />
    <glyph glyph-name="lacute" unicode="&#x13a;" horiz-adv-x="483" 
d="M289 1800h-66l183 281h81zM279 0h-72v1638h72v-1638z" />
    <glyph glyph-name="Lcommaaccent" unicode="&#x13b;" horiz-adv-x="1255" 
d="M1192 68v-68h-985v1556h74v-1488h911zM662 -92h77l-106 -281h-62z" />
    <glyph glyph-name="lcommaaccent" unicode="&#x13c;" horiz-adv-x="483" 
d="M279 0h-72v1638h72v-1638zM111 -373l90 281h78l-107 -281h-61z" />
    <glyph glyph-name="Lcaron" unicode="&#x13d;" horiz-adv-x="1255" 
d="M1192 68v-68h-985v1556h74v-1488h911zM733 1243h-57v313h74z" />
    <glyph glyph-name="lcaron" unicode="&#x13e;" horiz-adv-x="483" 
d="M279 0h-72v1638h72v-1638zM516 1325h-57v313h73z" />
    <glyph glyph-name="Ldot" unicode="&#x13f;" horiz-adv-x="1298" 
d="M1192 68v-68h-985v1556h74v-1488h911zM764 633q-29 0 -47 18q-19 19 -19 45q0 27 20 45q21 19 46 19t46 -19q19 -18 19 -45t-18 -45t-47 -18z" />
    <glyph glyph-name="ldot" unicode="&#x140;" horiz-adv-x="575" 
d="M279 0h-72v1638h72v-1638zM489 741q27 0 47 -18q19 -18 19 -43q0 -27 -18 -45q-19 -19 -48 -19q-28 0 -47 19q-18 18 -18 45q0 25 19 43t46 18z" />
    <glyph glyph-name="Lslash" unicode="&#x141;" horiz-adv-x="1277" 
d="M1214 68v-68h-985v653l-168 -84v78l168 84v825h74v-790l379 188v-77l-379 -189v-620h911z" />
    <glyph glyph-name="lslash" unicode="&#x142;" horiz-adv-x="583" 
d="M522 844l-192 -129v-715h-72v668l-197 -131v73l197 131v897h72v-850l192 130v-74z" />
    <glyph glyph-name="Nacute" unicode="&#x143;" horiz-adv-x="1757" 
d="M928 1718h-66l182 281h82zM1550 1556v-1556h-63l-1204 1430l-2 -1430h-74v1556h65l1205 -1431v1431h73z" />
    <glyph glyph-name="nacute" unicode="&#x144;" horiz-adv-x="1290" 
d="M717 1276h-66l183 280h81zM702 1020q182 0 293 -118t111 -312v-590h-72v584q0 165 -92 268q-92 102 -242 102q-192 0 -306 -120q-115 -121 -115 -324v-510h-72v999h72v-241q56 125 165 193q111 69 258 69z" />
    <glyph glyph-name="Ncommaaccent" unicode="&#x145;" horiz-adv-x="1757" 
d="M1550 1556v-1556h-63l-1204 1430l-2 -1430h-74v1556h65l1205 -1431v1431h73zM829 -92h78l-106 -281h-62z" />
    <glyph glyph-name="ncommaaccent" unicode="&#x146;" horiz-adv-x="1290" 
d="M702 1020q182 0 293 -118t111 -312v-590h-72v584q0 165 -92 268q-92 102 -242 102q-192 0 -306 -120q-115 -121 -115 -324v-510h-72v999h72v-241q56 125 165 193q111 69 258 69zM637 -92h78l-107 -281h-61z" />
    <glyph glyph-name="Ncaron" unicode="&#x147;" horiz-adv-x="1757" 
d="M850 1716l-246 281h80l199 -228l200 228h78l-243 -281h-68zM1550 1556v-1556h-63l-1204 1430l-2 -1430h-74v1556h65l1205 -1431v1431h73z" />
    <glyph glyph-name="ncaron" unicode="&#x148;" horiz-adv-x="1290" 
d="M637 1274l-246 280h80l199 -227l200 227h78l-243 -280h-68zM702 1020q182 0 293 -118t111 -312v-590h-72v584q0 165 -92 268q-92 102 -242 102q-192 0 -306 -120q-115 -121 -115 -324v-510h-72v999h72v-241q56 125 165 193q111 69 258 69z" />
    <glyph glyph-name="Eng" unicode="&#x14a;" horiz-adv-x="1757" 
d="M1550 1556v-1927q0 -99 -60 -161t-159 -62q-81 0 -149 43l20 66q58 -35 117 -35q73 0 116 42q44 42 44 113v375l-1196 1420l-2 -1430h-74v1556h65l1205 -1431v1431h73z" />
    <glyph glyph-name="eng" unicode="&#x14b;" horiz-adv-x="1290" 
d="M702 1020q182 0 293 -118t111 -312v-735q0 -101 -60 -162q-60 -62 -161 -62q-83 0 -150 41l19 62q58 -35 123 -35q71 0 114 43t43 113v729q0 165 -92 268q-92 102 -242 102q-192 0 -306 -120q-115 -121 -115 -324v-510h-72v999h72v-241q56 125 165 193q111 69 258 69z
" />
    <glyph glyph-name="Omacron" unicode="&#x14c;" horiz-adv-x="1849" 
d="M1190 1769h-528v60h528v-60zM926 1579q333 0 560 -233q228 -234 228 -570t-228 -567q-229 -232 -560 -232t-561 232t-230 567t230 570q229 233 561 233zM926 47q301 0 508 211q206 210 206 518t-206 520q-207 213 -508 213t-508 -213t-207 -520q0 -306 207 -518
q207 -211 508 -211z" />
    <glyph glyph-name="omacron" unicode="&#x14d;" horiz-adv-x="1257" 
d="M893 1327h-528v59h528v-59zM629 1020q221 0 372 -148q150 -147 150 -370q0 -225 -150 -375t-372 -150q-223 0 -373 150t-150 375q0 223 150 370q151 148 373 148zM629 43q194 0 323 130q129 131 129 329q0 196 -129 324q-130 128 -323 128q-194 0 -324 -128
q-129 -128 -129 -324q0 -198 129 -329q129 -130 324 -130z" />
    <glyph glyph-name="Ohungarumlaut" unicode="&#x150;" horiz-adv-x="1849" 
d="M819 1718h-67l182 279h90zM1018 1718l180 279h90l-203 -279h-67zM926 1579q333 0 560 -233q228 -234 228 -570t-228 -567q-229 -232 -560 -232t-561 232t-230 567t230 570q229 233 561 233zM926 47q301 0 508 211q206 210 206 518t-206 520q-207 213 -508 213t-508 -213
t-207 -520q0 -306 207 -518q207 -211 508 -211z" />
    <glyph glyph-name="ohungarumlaut" unicode="&#x151;" horiz-adv-x="1257" 
d="M522 1276h-67l182 278h90zM721 1276l180 278h90l-203 -278h-67zM629 1020q221 0 372 -148q150 -147 150 -370q0 -225 -150 -375t-372 -150q-223 0 -373 150t-150 375q0 223 150 370q151 148 373 148zM629 43q194 0 323 130q129 131 129 329q0 196 -129 324
q-130 128 -323 128q-194 0 -324 -128q-129 -128 -129 -324q0 -198 129 -329q129 -130 324 -130z" />
    <glyph glyph-name="OE" unicode="&#x152;" horiz-adv-x="2295" 
d="M2165 68v-68h-1133q-403 0 -650 214t-247 564t247 564t650 214h1131v-67h-926v-604h883v-68h-883v-749h928zM1163 68v1421h-131q-367 0 -595 -196q-226 -195 -226 -515t226 -515q227 -195 595 -195h131z" />
    <glyph glyph-name="oe" unicode="&#x153;" horiz-adv-x="2187" 
d="M2081 528v-28h-928v-4q0 -203 131 -328t301 -125q146 0 254 70q107 69 158 206l63 -16q-52 -155 -177 -241q-124 -85 -298 -85q-151 0 -282 89q-132 90 -187 239q-55 -149 -186 -238q-133 -90 -301 -90q-223 0 -373 150t-150 375q0 223 150 370q151 148 373 148
q169 0 302 -89q131 -88 187 -239q55 151 190 240q133 88 294 88q204 0 337 -136q135 -138 142 -356zM629 43q194 0 323 130q129 131 129 329q0 196 -129 324q-130 128 -323 128q-194 0 -324 -128q-129 -128 -129 -324q0 -198 129 -329q129 -130 324 -130zM1602 954
q-168 0 -297 -107q-132 -109 -150 -288h854q-15 183 -128 289t-279 106z" />
    <glyph glyph-name="Racute" unicode="&#x154;" horiz-adv-x="1607" 
d="M692 1718h-65l182 281h82zM1577 0h-96l-809 817h-391v-817h-74v1556h547q193 0 314 -100q122 -101 122 -268q0 -166 -118 -266q-119 -101 -304 -105zM281 885h473q160 0 261 82t101 221q0 137 -101 219t-261 82h-473v-604z" />
    <glyph glyph-name="racute" unicode="&#x155;" horiz-adv-x="815" 
d="M479 1276h-65l182 280h82zM715 1006q34 0 69 -7l-10 -65q-28 2 -59 2q-200 0 -319 -148q-117 -145 -117 -356v-432h-72v999h72v-290q56 138 171 218q113 79 265 79z" />
    <glyph glyph-name="Rcommaaccent" unicode="&#x156;" horiz-adv-x="1607" 
d="M1577 0h-96l-809 817h-391v-817h-74v1556h547q193 0 314 -100q122 -101 122 -268q0 -166 -118 -266q-119 -101 -304 -105zM281 885h473q160 0 261 82t101 221q0 137 -101 219t-261 82h-473v-604zM737 -92h78l-106 -281h-62z" />
    <glyph glyph-name="rcommaaccent" unicode="&#x157;" horiz-adv-x="815" 
d="M715 1006q34 0 69 -7l-10 -65q-28 2 -59 2q-200 0 -319 -148q-117 -145 -117 -356v-432h-72v999h72v-290q56 138 171 218q113 79 265 79zM203 -92h78l-107 -281h-61z" />
    <glyph glyph-name="Rcaron" unicode="&#x158;" horiz-adv-x="1607" 
d="M614 1716l-245 281h80l198 -228l201 228h78l-244 -281h-68zM1577 0h-96l-809 817h-391v-817h-74v1556h547q193 0 314 -100q122 -101 122 -268q0 -166 -118 -266q-119 -101 -304 -105zM281 885h473q160 0 261 82t101 221q0 137 -101 219t-261 82h-473v-604z" />
    <glyph glyph-name="rcaron" unicode="&#x159;" horiz-adv-x="815" 
d="M399 1274l-245 280h79l199 -227l201 227h78l-244 -280h-68zM715 1006q34 0 69 -7l-10 -65q-28 2 -59 2q-200 0 -319 -148q-117 -145 -117 -356v-432h-72v999h72v-290q56 138 171 218q113 79 265 79z" />
    <glyph glyph-name="Sacute" unicode="&#x15a;" horiz-adv-x="1325" 
d="M715 1718h-66l182 281h82zM653 1579q214 0 355 -112q138 -110 176 -300l-74 -18q-35 170 -155 265q-121 95 -300 95q-183 0 -294 -93t-111 -249q0 -130 76 -193q77 -63 223 -108l334 -102q325 -102 325 -375q0 -186 -140 -299q-142 -115 -370 -115q-238 0 -397 126
t-186 335l82 19q17 -190 156 -300q142 -112 352 -112q193 0 311 95q117 95 117 251q0 217 -271 303l-348 109q-166 52 -256 134q-88 81 -88 232q0 187 133 299q134 113 350 113z" />
    <glyph glyph-name="sacute" unicode="&#x15b;" horiz-adv-x="985" 
d="M551 1276h-66l183 280h82zM121 274l69 19q10 -115 100 -185q88 -69 228 -69q130 0 206 60q77 60 77 167q0 74 -43 116t-137 64l-232 56q-127 28 -182 85q-55 56 -55 148q0 131 93 208q94 77 244 77q146 0 239 -72q94 -73 124 -190l-66 -23q-23 104 -100 163
q-78 60 -199 60q-119 0 -191 -57q-73 -58 -73 -162q0 -71 44 -112q45 -42 149 -66l221 -53q121 -30 178 -88q55 -56 55 -152q0 -138 -97 -214q-98 -77 -257 -77q-165 0 -272 79q-108 80 -123 218z" />
    <glyph glyph-name="Scedilla" unicode="&#x15e;" horiz-adv-x="1325" 
d="M1208 389q0 -180 -134 -294q-133 -114 -353 -120l-180 -340h-82l198 340q-222 12 -370 137q-148 126 -172 324l82 19q17 -190 156 -300q142 -112 352 -112q193 0 311 95q117 95 117 251q0 217 -271 303l-348 109q-166 52 -256 134q-88 81 -88 232q0 187 133 299
q134 113 350 113q214 0 355 -112q138 -110 176 -300l-74 -18q-35 170 -155 265q-121 95 -300 95q-183 0 -294 -93t-111 -249q0 -130 76 -193q77 -63 223 -108l334 -102q325 -102 325 -375z" />
    <glyph glyph-name="scedilla" unicode="&#x15f;" horiz-adv-x="985" 
d="M870 268q0 -134 -93 -210t-249 -81l-180 -342h-82l201 345q-146 12 -239 90q-92 77 -107 204l69 19q10 -115 100 -185q88 -69 228 -69q130 0 206 60q77 60 77 167q0 74 -43 116t-137 64l-232 56q-127 28 -182 85q-55 56 -55 148q0 131 93 208q94 77 244 77q146 0 239 -72
q94 -73 124 -190l-66 -23q-23 104 -100 163q-78 60 -199 60q-119 0 -191 -57q-73 -58 -73 -162q0 -71 44 -112q45 -42 149 -66l221 -53q121 -30 178 -88q55 -56 55 -152z" />
    <glyph glyph-name="Scaron" unicode="&#x160;" horiz-adv-x="1325" 
d="M637 1716l-246 281h80l199 -228l200 228h78l-243 -281h-68zM549 866l334 -102q325 -102 325 -375q0 -186 -140 -299q-142 -115 -370 -115q-238 0 -397 126t-186 335l82 19q17 -190 156 -300q142 -112 352 -112q193 0 311 95q117 95 117 251q0 217 -271 303l-348 109
q-166 52 -256 134q-88 81 -88 232q0 187 133 299q134 113 350 113q214 0 355 -112q138 -110 176 -300l-74 -18q-35 170 -155 265q-121 95 -300 95q-183 0 -294 -93t-111 -249q0 -130 76 -193q77 -63 223 -108z" />
    <glyph glyph-name="scaron" unicode="&#x161;" horiz-adv-x="985" 
d="M471 1274l-246 280h80l199 -227l201 227h77l-243 -280h-68zM416 561l221 -53q121 -30 178 -88q55 -56 55 -152q0 -138 -97 -214q-98 -77 -257 -77q-165 0 -272 79q-108 80 -123 218l69 19q10 -115 100 -185q88 -69 228 -69q130 0 206 60q77 60 77 167q0 74 -43 116
t-137 64l-232 56q-127 28 -182 85q-55 56 -55 148q0 131 93 208q94 77 244 77q146 0 239 -72q94 -73 124 -190l-66 -23q-23 104 -100 163q-78 60 -199 60q-119 0 -191 -57q-73 -58 -73 -162q0 -71 44 -112q45 -42 149 -66z" />
    <glyph glyph-name="tcedilla" unicode="&#x163;" horiz-adv-x="780" 
d="M291 936v-668q0 -100 57 -162q57 -61 154 -61q93 0 176 72l31 -58q-95 -82 -211 -82h-9l-180 -342h-82l203 349q-99 21 -155 95t-56 185v672h-219v63h219v447l72 29v-476h479v-63h-479z" />
    <glyph glyph-name="Tcaron" unicode="&#x164;" horiz-adv-x="1314" 
d="M627 1716l-246 281h80l198 -228l201 228h78l-244 -281h-67zM1255 1489h-561v-1489h-73v1489h-562v67h1196v-67z" />
    <glyph glyph-name="tcaron" unicode="&#x165;" horiz-adv-x="780" 
d="M571 1243h-57v313h74zM291 936v-668q0 -100 57 -162q57 -61 154 -61q93 0 176 72l31 -58q-95 -82 -211 -82q-126 0 -203 78q-76 77 -76 209v672h-219v63h219v447l72 29v-476h479v-63h-479z" />
    <glyph glyph-name="Tbar" unicode="&#x166;" horiz-adv-x="1314" 
d="M694 1489v-768h289v-64h-289v-657h-73v657h-289v64h289v768h-562v67h1196v-67h-561z" />
    <glyph glyph-name="tbar" unicode="&#x167;" horiz-adv-x="780" 
d="M291 936v-274h463v-64h-463v-330q0 -100 57 -162q57 -61 154 -61q93 0 176 72l31 -58q-95 -82 -211 -82q-126 0 -203 78q-76 77 -76 209v334h-213v64h213v274h-219v63h219v447l72 29v-476h479v-63h-479z" />
    <glyph glyph-name="Umacron" unicode="&#x16a;" horiz-adv-x="1632" 
d="M1077 1769h-528v60h528v-60zM1444 1556v-890q0 -309 -173 -500t-456 -191t-456 191t-173 500v890h74v-890q0 -280 153 -449q153 -170 402 -170q250 0 402 170q151 169 151 449v890h76z" />
    <glyph glyph-name="umacron" unicode="&#x16b;" horiz-adv-x="1290" 
d="M897 1327h-528v59h528v-59zM1083 999v-999h-69v246q-53 -125 -165 -196q-110 -70 -261 -70q-182 0 -293 118q-111 119 -111 312v589h72v-583q0 -166 92 -269q92 -102 242 -102q190 0 307 121q117 122 117 323v510h69z" />
    <glyph glyph-name="Uring" unicode="&#x16e;" horiz-adv-x="1632" 
d="M813 1692q-77 0 -133 53q-55 52 -55 129q0 76 55 130q56 54 133 54t133 -54q55 -54 55 -130q0 -77 -55 -129q-56 -53 -133 -53zM813 2007q-57 0 -96 -39t-39 -94q0 -53 39 -92t96 -39q56 0 97 39q40 39 40 92q0 55 -40 94q-41 39 -97 39zM1444 1556v-890
q0 -309 -173 -500t-456 -191t-456 191t-173 500v890h74v-890q0 -280 153 -449q153 -170 402 -170q250 0 402 170q151 169 151 449v890h76z" />
    <glyph glyph-name="uring" unicode="&#x16f;" horiz-adv-x="1290" 
d="M633 1249q-76 0 -133 54q-56 53 -56 129t56 130q55 54 133 54q77 0 133 -54q55 -54 55 -130q0 -77 -55 -129q-57 -54 -133 -54zM633 1565q-57 0 -96 -39t-39 -94q0 -54 39 -93t96 -39t97 39t40 93q0 55 -40 94t-97 39zM1083 999v-999h-69v246q-53 -125 -165 -196
q-110 -70 -261 -70q-182 0 -293 118q-111 119 -111 312v589h72v-583q0 -166 92 -269q92 -102 242 -102q190 0 307 121q117 122 117 323v510h69z" />
    <glyph glyph-name="Uhungarumlaut" unicode="&#x170;" horiz-adv-x="1632" 
d="M707 1718h-68l182 279h90zM905 1718l180 279h91l-203 -279h-68zM1444 1556v-890q0 -309 -173 -500t-456 -191t-456 191t-173 500v890h74v-890q0 -280 153 -449q153 -170 402 -170q250 0 402 170q151 169 151 449v890h76z" />
    <glyph glyph-name="uhungarumlaut" unicode="&#x171;" horiz-adv-x="1290" 
d="M526 1276h-67l182 278h90zM725 1276l180 278h90l-202 -278h-68zM1083 999v-999h-69v246q-53 -125 -165 -196q-110 -70 -261 -70q-182 0 -293 118q-111 119 -111 312v589h72v-583q0 -166 92 -269q92 -102 242 -102q190 0 307 121q117 122 117 323v510h69z" />
    <glyph glyph-name="Uogonek" unicode="&#x172;" horiz-adv-x="1630" 
d="M1442 1556v-903q0 -360 -223 -538q-22 -19 -74 -61q-12 -9 -34.5 -26.5t-30.5 -24.5q-21 -18 -51 -42q-14 -11 -43 -37q-18 -16 -32 -30q-17 -17 -25 -30q-13 -20 -16 -27q-9 -18 -10 -28q-2 -18 -2 -30q0 -52 33 -82q34 -31 90 -31q40 0 106 27l13 -58q-77 -30 -123 -30
q-84 0 -133 46t-49 122q0 61 35 109q36 49 133 122q-95 -27 -199 -27q-275 0 -448 185t-173 491v903h74v-903q0 -277 153 -440q153 -164 400 -164q249 0 402 164q153 163 153 440v903h74z" />
    <glyph glyph-name="uogonek" unicode="&#x173;" horiz-adv-x="1290" 
d="M1135 -317l10 -54q-67 -24 -111 -24q-72 0 -116 43q-46 44 -46 116q0 60 30 110q31 52 112 128v244q-53 -125 -165 -196q-110 -70 -261 -70q-182 0 -293 118q-111 119 -111 312v589h72v-583q0 -166 92 -269q92 -102 242 -102q190 0 307 121q117 122 117 323v510h69v-999
h2q-85 -82 -117 -129t-32 -100q0 -46 29 -77q29 -30 75 -30q30 0 95 19z" />
    <glyph glyph-name="Wcircumflex" unicode="&#x174;" horiz-adv-x="2189" 
d="M895 1718h-80l246 281h67l244 -281h-78l-200 230zM2150 1556l-510 -1556h-61l-485 1427l-484 -1427h-61l-510 1556h78l463 -1429l485 1429h59l486 -1429l463 1429h77z" />
    <glyph glyph-name="wcircumflex" unicode="&#x175;" horiz-adv-x="1662" 
d="M633 1276h-80l246 280h67l244 -280h-78l-201 229zM1624 999l-383 -1005h-74l-336 887l-335 -887h-74l-383 1005h78l346 -897l340 897h57l340 -897l348 897h76z" />
    <glyph glyph-name="Ycircumflex" unicode="&#x176;" horiz-adv-x="1490" 
d="M547 1718h-80l246 281h67l244 -281h-78l-201 230zM782 518v-518h-75v518l-668 1038h84l622 -966l621 966h86z" />
    <glyph glyph-name="ycircumflex" unicode="&#x177;" horiz-adv-x="1173" 
d="M393 1276h-80l246 280h68l243 -280h-77l-201 229zM1135 999l-803 -1572h-78l295 577l-510 995h80l469 -917l469 917h78z" />
    <glyph glyph-name="Ydieresis" unicode="&#x178;" horiz-adv-x="1490" 
d="M537 1780q-30 0 -48 18t-18 45q0 25 19 44q20 20 47 20q26 0 46 -20q19 -19 19 -44q0 -27 -18 -45t-47 -18zM954 1780q-29 0 -46 17t-17 46q0 25 18 44q18 20 45 20q26 0 46 -20t20 -44q0 -26 -19 -45q-18 -18 -47 -18zM782 518v-518h-75v518l-668 1038h84l622 -966
l621 966h86z" />
    <glyph glyph-name="Zacute" unicode="&#x179;" horiz-adv-x="1517" 
d="M825 1718h-65l182 281h82zM1399 66v-66h-1262v35l1151 1456h-1118v65h1227v-34l-1149 -1456h1151z" />
    <glyph glyph-name="zacute" unicode="&#x17a;" horiz-adv-x="968" 
d="M561 1276h-65l182 280h82zM907 63v-63h-825v39l706 897h-686v63h789v-43l-707 -893h723z" />
    <glyph glyph-name="Zdotaccent" unicode="&#x17b;" horiz-adv-x="1517" 
d="M778 1780q-29 0 -47 18t-18 45q0 25 19 43q21 19 46 19t46 -19q20 -18 20 -43q0 -26 -19 -45q-18 -18 -47 -18zM1399 66v-66h-1262v35l1151 1456h-1118v65h1227v-34l-1149 -1456h1151z" />
    <glyph glyph-name="zdotaccent" unicode="&#x17c;" horiz-adv-x="968" 
d="M514 1337q-28 0 -47 19q-18 18 -18 45q0 25 19 43q20 18 46 18t46 -18t20 -43q0 -26 -19 -45t-47 -19zM907 63v-63h-825v39l706 897h-686v63h789v-43l-707 -893h723z" />
    <glyph glyph-name="Zcaron" unicode="&#x17d;" horiz-adv-x="1517" 
d="M745 1716l-245 281h80l198 -228l201 228h78l-244 -281h-68zM1399 66v-66h-1262v35l1151 1456h-1118v65h1227v-34l-1149 -1456h1151z" />
    <glyph glyph-name="zcaron" unicode="&#x17e;" horiz-adv-x="968" 
d="M481 1274l-245 280h79l199 -227l201 227h78l-244 -280h-68zM907 63v-63h-825v39l706 897h-686v63h789v-43l-707 -893h723z" />
    <glyph glyph-name="florin" unicode="&#x192;" horiz-adv-x="1077" 
d="M848 1513q-118 0 -194 -72t-99 -196l-96 -524h434v-68h-447l-139 -757q-21 -108 -92 -170q-73 -64 -174 -64q-78 0 -139 47l32 58q46 -37 109 -37q74 0 127 45q54 47 66 121l139 757h-273v68h285l96 524q29 155 127 244q99 90 246 90q133 0 217 -84l-35 -55
q-77 73 -190 73z" />
    <glyph glyph-name="AEacute" unicode="&#x1fc;" horiz-adv-x="2338" 
d="M1614 1718h-66l183 281h81zM1282 1489v-604h881v-68h-881v-749h926v-68h-1002v422h-770l-313 -422h-86l1161 1556h1010v-67h-926zM1206 489v967l-719 -967h719z" />
    <glyph glyph-name="aeacute" unicode="&#x1fd;" horiz-adv-x="1939" 
d="M987 1313h-65l182 280h82zM1833 483h-872q5 -202 120 -320q117 -120 285 -120q127 0 236 74q108 74 149 205l64 -17q-38 -144 -164 -235q-130 -93 -287 -93q-152 0 -270 86q-117 85 -168 236q-45 -147 -172 -234q-129 -88 -295 -88q-162 0 -257 80q-96 81 -96 207
q0 131 101 205t270 74h416v116q0 133 -88 215t-236 82q-137 0 -230 -68q-95 -70 -110 -179l-69 18q15 128 129 211q113 82 278 82q146 0 249 -71q102 -71 132 -193q60 128 171 196q112 68 251 68q206 0 330 -141q126 -142 133 -369v-27zM961 543h798q-15 186 -118 299
q-104 114 -269 114q-164 0 -281 -110q-118 -111 -130 -303zM893 483h-416q-139 0 -220 -57t-81 -160q0 -102 77 -164q76 -61 208 -61q183 0 307 118q125 119 125 306v18z" />
    <glyph glyph-name="Scommaaccent" unicode="&#x218;" horiz-adv-x="1325" 
d="M653 1579q214 0 355 -112q138 -110 176 -300l-74 -18q-35 170 -155 265q-121 95 -300 95q-183 0 -294 -93t-111 -249q0 -130 76 -193q77 -63 223 -108l334 -102q325 -102 325 -375q0 -186 -140 -299q-142 -115 -370 -115q-238 0 -397 126t-186 335l82 19
q17 -190 156 -300q142 -112 352 -112q193 0 311 95q117 95 117 251q0 217 -271 303l-348 109q-166 52 -256 134q-88 81 -88 232q0 187 133 299q134 113 350 113zM543 -373l90 281h78l-107 -281h-61z" />
    <glyph glyph-name="scommaaccent" unicode="&#x219;" horiz-adv-x="985" 
d="M121 274l69 19q10 -115 100 -185q88 -69 228 -69q130 0 206 60q77 60 77 167q0 74 -43 116t-137 64l-232 56q-127 28 -182 85q-55 56 -55 148q0 131 93 208q94 77 244 77q146 0 239 -72q94 -73 124 -190l-66 -23q-23 104 -100 163q-78 60 -199 60q-119 0 -191 -57
q-73 -58 -73 -162q0 -71 44 -112q45 -42 149 -66l221 -53q121 -30 178 -88q55 -56 55 -152q0 -138 -97 -214q-98 -77 -257 -77q-165 0 -272 79q-108 80 -123 218zM350 -373l90 281h78l-106 -281h-62z" />
    <glyph glyph-name="uni021A" unicode="&#x21a;" horiz-adv-x="1314" 
d="M1255 1489h-561v-1489h-73v1489h-562v67h1196v-67zM612 -92h78l-106 -281h-62z" />
    <glyph glyph-name="uni021B" unicode="&#x21b;" horiz-adv-x="780" 
d="M291 936v-668q0 -100 57 -162q57 -61 154 -61q93 0 176 72l31 -58q-95 -82 -211 -82q-126 0 -203 78q-76 77 -76 209v672h-219v63h219v447l72 29v-476h479v-63h-479zM401 -92h78l-106 -281h-62z" />
    <glyph glyph-name="circumflex" unicode="&#x2c6;" horiz-adv-x="1228" 
d="M815 1159l-201 230l-198 -230h-80l246 281h67l244 -281h-78z" />
    <glyph glyph-name="caron" unicode="&#x2c7;" horiz-adv-x="1228" 
d="M893 1440l-244 -281h-67l-246 281h80l198 -228l201 228h78z" />
    <glyph glyph-name="breve" unicode="&#x2d8;" horiz-adv-x="1228" 
d="M614 1145q-115 0 -188 70q-74 71 -74 182h62q0 -89 57 -143t143 -54q87 0 144 54t57 143h64q0 -111 -75 -182q-74 -70 -190 -70z" />
    <glyph glyph-name="dotaccent" unicode="&#x2d9;" horiz-adv-x="1228" 
d="M614 1348q25 0 46 -19q20 -18 20 -43q0 -27 -18 -45t-48 -18q-29 0 -47 18t-18 45q0 25 19 43q21 19 46 19z" />
    <glyph glyph-name="ring" unicode="&#x2da;" horiz-adv-x="1228" 
d="M803 1315q0 -77 -55 -129q-56 -53 -134 -53q-77 0 -133 53q-55 52 -55 129q0 76 55 130t133 54t134 -54q55 -54 55 -130zM752 1315q0 55 -40 94t-98 39q-57 0 -96 -39t-39 -94q0 -53 39 -92t96 -39q58 0 98 39t40 92z" />
    <glyph glyph-name="ogonek" unicode="&#x2db;" horiz-adv-x="1228" 
d="M594 23l51 -23q-88 -85 -118 -129q-31 -46 -31 -100q0 -48 28 -77q28 -30 76 -30q29 0 94 19l11 -54q-67 -24 -111 -24q-73 0 -117 43q-45 44 -45 116q0 63 34 115q39 59 128 144z" />
    <glyph glyph-name="tilde" unicode="&#x2dc;" horiz-adv-x="1228" 
d="M397 1225h-59q0 79 41 122q40 42 106 42q59 0 133 -56q73 -55 119 -55q88 0 88 111h60q0 -79 -41 -125q-40 -45 -105 -45q-61 0 -132 56t-118 56q-43 0 -67 -28q-25 -30 -25 -78z" />
    <glyph glyph-name="hungarumlaut" unicode="&#x2dd;" horiz-adv-x="1228" 
d="M440 1161h-67l182 279h90zM707 1161h-68l180 279h90z" />
    <glyph glyph-name="uni0326" unicode="&#x326;" horiz-adv-x="0" 
d="M473 -373l90 281h78l-106 -281h-62z" />
    <glyph glyph-name="Wgrave" unicode="&#x1e80;" horiz-adv-x="2189" 
d="M1057 1718l-199 281h82l184 -281h-67zM2150 1556l-510 -1556h-61l-485 1427l-484 -1427h-61l-510 1556h78l463 -1429l485 1429h59l486 -1429l463 1429h77z" />
    <glyph glyph-name="wgrave" unicode="&#x1e81;" horiz-adv-x="1662" 
d="M795 1276l-199 280h82l184 -280h-67zM1624 999l-383 -1005h-74l-336 887l-335 -887h-74l-383 1005h78l346 -897l340 897h57l340 -897l348 897h76z" />
    <glyph glyph-name="Wacute" unicode="&#x1e82;" horiz-adv-x="2189" 
d="M1141 1718h-66l182 281h82zM2150 1556l-510 -1556h-61l-485 1427l-484 -1427h-61l-510 1556h78l463 -1429l485 1429h59l486 -1429l463 1429h77z" />
    <glyph glyph-name="wacute" unicode="&#x1e83;" horiz-adv-x="1662" 
d="M879 1276h-66l182 280h82zM1624 999l-383 -1005h-74l-336 887l-335 -887h-74l-383 1005h78l346 -897l340 897h57l340 -897l348 897h76z" />
    <glyph glyph-name="Wdieresis" unicode="&#x1e84;" horiz-adv-x="2189" 
d="M885 1780q-29 0 -47 18q-19 19 -19 45q0 24 20 44t46 20t46 -20q19 -19 19 -44q0 -27 -18 -45t-47 -18zM1303 1780q-30 0 -47 17t-17 46q0 25 18 44q18 20 46 20q26 0 46 -20q19 -19 19 -44q0 -27 -18 -45t-47 -18zM2150 1556l-510 -1556h-61l-485 1427l-484 -1427h-61
l-510 1556h78l463 -1429l485 1429h59l486 -1429l463 1429h77z" />
    <glyph glyph-name="wdieresis" unicode="&#x1e85;" horiz-adv-x="1662" 
d="M623 1337q-29 0 -48 19q-18 18 -18 45q0 24 20 44q19 19 46 19t46 -19t19 -44q0 -27 -18 -45q-19 -19 -47 -19zM1040 1337q-28 0 -46 18q-17 17 -17 46q0 24 18 44q18 19 45 19t46 -19q20 -20 20 -44q0 -26 -19 -45t-47 -19zM1624 999l-383 -1005h-74l-336 887l-335 -887
h-74l-383 1005h78l346 -897l340 897h57l340 -897l348 897h76z" />
    <glyph glyph-name="Ygrave" unicode="&#x1ef2;" horiz-adv-x="1490" 
d="M709 1718l-199 281h82l184 -281h-67zM782 518v-518h-75v518l-668 1038h84l622 -966l621 966h86z" />
    <glyph glyph-name="ygrave" unicode="&#x1ef3;" horiz-adv-x="1173" 
d="M555 1276l-199 280h82l185 -280h-68zM1135 999l-803 -1572h-78l295 577l-510 995h80l469 -917l469 917h78z" />
    <glyph glyph-name="endash" unicode="&#x2013;" horiz-adv-x="1269" 
d="M1147 492h-1024v61h1024v-61z" />
    <glyph glyph-name="emdash" unicode="&#x2014;" horiz-adv-x="2560" 
d="M2437 492h-2314v61h2314v-61z" />
    <glyph glyph-name="quoteleft" unicode="&#x2018;" horiz-adv-x="462" 
d="M289 1556h61l-145 -530h-88v4z" />
    <glyph glyph-name="quoteright" unicode="&#x2019;" horiz-adv-x="462" 
d="M178 1026h-61l143 530h90v-4z" />
    <glyph glyph-name="quotesinglbase" unicode="&#x201a;" horiz-adv-x="462" 
d="M178 -270h-61l143 530h90v-4z" />
    <glyph glyph-name="quotedblleft" unicode="&#x201c;" horiz-adv-x="761" 
d="M289 1556h61l-145 -530h-88v4zM588 1556h61l-143 -530h-90v4z" />
    <glyph glyph-name="quotedblright" unicode="&#x201d;" horiz-adv-x="761" 
d="M178 1026h-61l143 530h90v-4zM477 1026h-61l145 530h88v-4z" />
    <glyph glyph-name="quotedblbase" unicode="&#x201e;" horiz-adv-x="761" 
d="M178 -270h-61l143 530h90v-4zM477 -270h-61l145 530h88v-4z" />
    <glyph glyph-name="dagger" unicode="&#x2020;" horiz-adv-x="659" 
d="M586 1372v-59h-228v-484h-57v484h-227v59h227v184h57v-184h228z" />
    <glyph glyph-name="daggerdbl" unicode="&#x2021;" horiz-adv-x="659" 
d="M358 1313v-240h228v-59h-228v-185h-57v185h-227v59h227v240h-227v59h227v184h57v-184h228v-59h-228z" />
    <glyph glyph-name="bullet" unicode="&#x2022;" horiz-adv-x="776" 
d="M387 807q114 0 194 -77q78 -75 78 -183q0 -114 -77 -187t-195 -73q-115 0 -191 73q-77 74 -77 187q0 107 78 183q79 77 190 77z" />
    <glyph glyph-name="ellipsis" unicode="&#x2026;" horiz-adv-x="1114" 
d="M182 121q25 0 46 -19q20 -18 20 -45q0 -25 -19 -44q-17 -17 -47 -17q-28 0 -45 17q-18 18 -18 44q0 27 18 45q19 19 45 19zM557 121q25 0 46 -19q20 -18 20 -45q0 -25 -19 -44q-17 -17 -47 -17t-47 17q-18 18 -18 44q0 27 19 45q21 19 46 19zM930 121q25 0 46 -19
q19 -18 19 -45q0 -26 -18 -44q-17 -17 -47 -17q-28 0 -45 17q-19 19 -19 44q0 26 19 45t45 19z" />
    <glyph glyph-name="perthousand" unicode="&#x2030;" horiz-adv-x="2537" 
d="M449 1579q136 0 234 -89q97 -88 97 -235q0 -140 -98 -229q-99 -90 -233 -90q-133 0 -232 90q-98 89 -98 229q0 147 97 235q98 89 233 89zM311 0l1043 1556h63l-1042 -1556h-64zM449 1526q-109 0 -191 -76t-82 -195q0 -115 82 -188q83 -74 191 -74q109 0 191 74
q81 73 81 188q0 119 -81 195q-80 76 -191 76zM1305 621q135 0 234 -90q97 -88 97 -234q0 -137 -98 -228q-100 -92 -233 -92q-132 0 -232 92q-98 91 -98 228q0 146 97 234q99 90 233 90zM2089 621q135 0 234 -90q98 -89 98 -234q0 -137 -99 -228q-100 -92 -233 -92
q-132 0 -232 92t-100 228q0 146 98 234q101 90 234 90zM1305 567q-110 0 -191 -75q-82 -76 -82 -195q0 -115 82 -188q83 -74 191 -74q109 0 191 74q81 73 81 188q0 119 -81 195q-79 75 -191 75zM2089 567q-111 0 -192 -75q-82 -76 -82 -195q0 -115 82 -188q83 -74 192 -74
q107 0 190 74q82 73 82 188q0 119 -82 195q-81 75 -190 75z" />
    <glyph glyph-name="guilsinglleft" unicode="&#x2039;" horiz-adv-x="446" 
d="M51 537l266 364h78l-266 -364l266 -365h-78z" />
    <glyph glyph-name="guilsinglright" unicode="&#x203a;" horiz-adv-x="446" 
d="M51 172l266 365l-266 364h78l266 -364l-266 -365h-78z" />
    <glyph glyph-name="fraction" unicode="&#x2044;" horiz-adv-x="409" 
d="M-350 0l1040 1556h64l-1041 -1556h-63z" />
    <glyph glyph-name="zerosuperior" unicode="&#x2070;" horiz-adv-x="925" 
d="M463 1782q159 0 271 -107t112 -274q0 -168 -112 -275q-110 -106 -271 -106q-160 0 -270 106q-111 106 -111 275q0 167 111 274q112 107 270 107zM463 1075q131 0 225 90t94 236q0 143 -94 234t-225 91q-130 0 -222 -91q-94 -92 -94 -234q0 -145 93 -236q91 -90 223 -90z
" />
    <glyph glyph-name="foursuperior" unicode="&#x2074;" horiz-adv-x="722" 
d="M682 1192h-135v-170h-58v170h-430v31l459 538h29v-516h135v-53zM489 1245v402l-339 -402h339z" />
    <glyph glyph-name="fivesuperior" unicode="&#x2075;" horiz-adv-x="655" 
d="M195 1470h157q110 0 175 -61q67 -62 67 -162q0 -106 -72 -172q-71 -65 -188 -65q-102 0 -176 60t-86 155l57 8q11 -77 69 -123q59 -47 136 -47q88 0 146 50q57 49 57 134q0 76 -54 124q-52 46 -139 46h-211l53 344h385v-55h-338z" />
    <glyph glyph-name="sixsuperior" unicode="&#x2076;" horiz-adv-x="653" 
d="M328 1534q114 0 191 -74t77 -186q0 -113 -77 -187q-76 -73 -191 -73q-116 0 -192 73q-77 74 -77 187q0 97 62 170l252 317h69l-184 -235q32 8 70 8zM328 1069q88 0 149 57q62 57 62 148t-61 149t-150 58t-152 -58q-61 -57 -61 -149q0 -91 61 -148t152 -57z" />
    <glyph glyph-name="sevensuperior" unicode="&#x2077;" horiz-adv-x="546" 
d="M526 1761v-14l-358 -725h-70l346 684h-430v55h512z" />
    <glyph glyph-name="eightsuperior" unicode="&#x2078;" horiz-adv-x="626" 
d="M395 1419q83 -18 127 -71q43 -52 43 -123q0 -91 -69 -148t-183 -57q-113 0 -182 57q-70 58 -70 148q0 73 45 126q44 51 130 68q-150 37 -150 172q0 85 66 138q67 53 163 53q98 0 162 -53t64 -136q0 -65 -39 -111t-107 -63zM143 1589q0 -61 50 -100q49 -39 122 -39
q77 0 120 37q44 38 48 100q2 68 -45 107q-46 39 -123 39q-72 0 -122 -41t-50 -103zM313 1073q85 0 137 42t52 116q0 67 -49 110t-138 43t-139 -43q-51 -43 -51 -112q0 -70 52 -113t136 -43z" />
    <glyph glyph-name="ninesuperior" unicode="&#x2079;" horiz-adv-x="653" 
d="M596 1522q0 -104 -70 -179l-243 -309h-72l184 238q-29 -8 -67 -8q-116 0 -193 72q-76 72 -76 186q0 112 77 186t192 74q114 0 191 -74t77 -186zM115 1522q0 -91 61 -149t152 -58q88 0 149 58q62 59 62 149t-62 147t-149 57q-90 0 -152 -57q-61 -57 -61 -147z" />
    <glyph glyph-name="zeroinferior" unicode="&#x2080;" horiz-adv-x="925" 
d="M463 553q159 0 271 -107t112 -274t-112 -274t-271 -107q-158 0 -270 107q-111 107 -111 274q0 168 111 274q112 107 270 107zM463 -154q129 0 225 91q94 90 94 235q0 144 -94 235t-225 91q-130 0 -222 -91q-94 -92 -94 -235q0 -144 93 -235t223 -91z" />
    <glyph glyph-name="oneinferior" unicode="&#x2081;" horiz-adv-x="419" 
d="M283 -209h-62v662l-192 -76v57l239 98h15v-741z" />
    <glyph glyph-name="twoinferior" unicode="&#x2082;" horiz-adv-x="688" 
d="M590 -143v-54h-502v19l246 233q80 77 108 108q31 34 54 76q24 43 24 89q0 76 -48 124t-126 48q-82 0 -139 -55q-55 -54 -55 -142l-58 10q0 107 71 173q72 67 181 67q106 0 168 -61q64 -62 64 -162q0 -80 -46 -141q-50 -66 -161 -169l-172 -163h391z" />
    <glyph glyph-name="threeinferior" unicode="&#x2083;" horiz-adv-x="671" 
d="M344 242h14q110 0 180 -62q68 -61 68 -162q0 -106 -74 -172q-72 -65 -194 -65q-104 0 -179 60t-87 155l57 14q11 -81 70 -128q60 -48 139 -48q93 0 152 50t59 134q0 76 -53 123t-142 47h-106l-4 17l243 272h-387l2 55h492v-14z" />
    <glyph glyph-name="fourinferior" unicode="&#x2084;" horiz-adv-x="722" 
d="M682 -37h-135v-170h-58v170h-430v31l459 538h29v-516h135v-53zM489 16v402l-339 -402h339z" />
    <glyph glyph-name="fiveinferior" unicode="&#x2085;" horiz-adv-x="655" 
d="M195 242h157q108 0 175 -62t67 -162q0 -106 -72 -172q-71 -65 -188 -65q-102 0 -176 60t-86 155l57 8q11 -76 69 -123q59 -47 136 -47q88 0 146 50q57 49 57 134q0 76 -54 124q-52 46 -139 46h-211l53 344h385v-55h-338z" />
    <glyph glyph-name="sixinferior" unicode="&#x2086;" horiz-adv-x="653" 
d="M328 305q114 0 191 -74t77 -186t-77 -186t-191 -74q-115 0 -192 74t-77 186q0 97 62 170l252 317h69l-184 -235q32 8 70 8zM328 -160q86 0 149 58q62 57 62 147q0 92 -61 150q-60 57 -150 57t-152 -57q-61 -57 -61 -150q0 -90 61 -147q63 -58 152 -58z" />
    <glyph glyph-name="seveninferior" unicode="&#x2087;" horiz-adv-x="546" 
d="M526 532v-14l-358 -725h-70l346 684h-430v55h512z" />
    <glyph glyph-name="eightinferior" unicode="&#x2088;" horiz-adv-x="626" 
d="M395 190q83 -18 127 -71q43 -52 43 -125q0 -90 -69 -147q-68 -56 -183 -56q-113 0 -182 57q-70 58 -70 148q0 74 45 126q44 51 130 68q-150 38 -150 172q0 86 66 138q67 53 163 53q98 0 162 -53t64 -135q0 -65 -39 -112q-39 -46 -107 -63zM143 360q0 -61 50 -100
q49 -39 122 -39q77 0 120 37q44 38 48 100q2 68 -45 107q-46 39 -123 39q-72 0 -122 -41t-50 -103zM313 -156q85 0 137 42t52 116q0 68 -49 111t-138 43t-139 -43q-51 -43 -51 -113t52 -113t136 -43z" />
    <glyph glyph-name="nineinferior" unicode="&#x2089;" horiz-adv-x="653" 
d="M596 293q0 -103 -70 -178l-243 -310h-72l184 238q-29 -8 -67 -8q-115 0 -193 73q-76 72 -76 185q0 112 77 186t192 74q114 0 191 -74t77 -186zM115 293q0 -91 61 -149t152 -58q88 0 149 58q62 59 62 149t-62 147q-63 58 -149 58q-89 0 -152 -58q-61 -57 -61 -147z" />
    <glyph glyph-name="Euro" unicode="&#x20ac;" horiz-adv-x="2140" 
d="M1251 45q256 0 435 140q180 141 247 374l72 -16q-73 -256 -274 -412t-480 -156q-275 0 -484 163q-211 165 -280 421h-280v62h266q-14 67 -14 155q0 66 10 135h-262v60h274q63 265 277 437q213 171 493 171q278 0 480 -155q201 -154 274 -410l-72 -21q-67 234 -249 375
t-433 141q-250 0 -440 -150t-252 -388h836l-19 -60h-829q-12 -63 -12 -135q0 -79 16 -155h733l-16 -62h-703q67 -227 255 -371q186 -143 431 -143z" />
    <glyph glyph-name="uni2116" unicode="&#x2116;" horiz-adv-x="3098" 
d="M2382 1559q210 0 360 -144t150 -366q0 -223 -150 -367q-149 -143 -360 -143q-212 0 -364 143t-152 367q0 223 152 366q153 144 364 144zM1477 1556h73v-1556h-63l-1204 1430l-2 -1430h-74v1556h65l1205 -1431v1431zM2382 604q177 0 310 125q132 124 132 320
q0 194 -131 319t-311 125q-177 0 -310 -125t-133 -319q0 -195 133 -320t310 -125z" />
    <glyph glyph-name="uni2117" unicode="&#x2117;" horiz-adv-x="1798" 
d="M899 1579q335 0 565 -229q232 -230 232 -578q0 -341 -232 -568t-565 -227t-565 227t-232 568q0 348 232 578q230 229 565 229zM899 33q309 0 524 210t215 531q0 326 -215 539t-524 213t-524 -213t-215 -539q0 -321 215 -531t524 -210zM621 1176h391q126 0 203 -65
t77 -173t-77 -174t-203 -66h-334v-372h-57v850zM678 750h338q99 0 159 51t60 137t-60 137t-159 51h-338v-376z" />
    <glyph glyph-name="trademark" unicode="&#x2122;" horiz-adv-x="1304" 
d="M535 1509h-199v-487h-55v487h-201v47h455v-47zM1204 1022h-53v446l-213 -303h-39l-215 303v-446h-51v534h53l234 -333l233 333h51v-534z" />
    <glyph glyph-name="oneeighth" unicode="&#x215b;" horiz-adv-x="1357" 
d="M221 1477l-192 -76v57l239 98h15v-741h-62v662zM1155 1556l-1040 -1556h-64l1041 1556h63zM1126 381q82 -18 127 -72q43 -52 43 -123q0 -90 -69 -147t-183 -57q-113 0 -182 57t-69 147q0 74 45 126t129 69q-150 37 -150 172q0 85 66 137q67 53 164 53t161 -53t64 -135
q0 -65 -39 -112q-38 -45 -107 -62zM874 551q0 -61 50 -100t123 -39q76 0 119 37q44 38 48 100q1 67 -45 106q-47 39 -122 39q-73 0 -123 -41t-50 -102zM1044 35q84 0 137 42q52 42 52 116q0 67 -49 110t-137 43q-90 0 -140 -43q-51 -43 -51 -113q0 -69 52 -112t136 -43z" />
    <glyph glyph-name="threeeighths" unicode="&#x215c;" horiz-adv-x="1501" 
d="M606 1042q0 -106 -74 -172q-72 -65 -194 -65q-104 0 -179 60t-87 155l57 14q11 -81 70 -128q60 -48 139 -48q93 0 152 50t59 134q0 76 -53 123t-142 47h-106l-4 17l243 272h-387l2 55h492v-14l-250 -276h14q110 0 180 -62q68 -61 68 -162zM1319 1556l-1043 -1556h-63
l1042 1556h64zM1270 381q82 -18 127 -72q43 -52 43 -123q0 -89 -70 -147q-69 -57 -182 -57t-182 57q-70 58 -70 147q0 74 45 126t129 69q-149 37 -149 172q0 85 65 137q67 53 164 53q98 0 162 -53q63 -52 63 -135q0 -65 -39 -112q-38 -45 -106 -62zM1018 551q0 -61 49 -100
t123 -39q77 0 120 37q44 38 48 100q1 67 -45 106q-47 39 -123 39q-73 0 -123 -41q-49 -40 -49 -102zM1188 35q84 0 136 42t52 116q0 67 -49 110t-137 43q-89 0 -139 -43q-52 -44 -52 -113q0 -68 53 -112q52 -43 136 -43z" />
    <glyph glyph-name="fiveeighths" unicode="&#x215d;" horiz-adv-x="1499" 
d="M594 1042q0 -106 -72 -172q-71 -65 -188 -65q-102 0 -176 60t-86 155l57 8q11 -76 69 -123q59 -47 136 -47q88 0 146 50q57 50 57 134q0 76 -54 124q-52 46 -139 46h-211l53 344h385v-55h-338l-38 -235h157q108 0 175 -62t67 -162zM1309 1556l-1043 -1556h-63l1042 1556
h64zM1268 381q82 -18 127 -72q43 -52 43 -123q0 -89 -70 -147q-69 -57 -182 -57t-182 57q-70 58 -70 147q0 74 45 126t129 69q-150 37 -150 172q0 85 66 137q67 53 164 53q98 0 162 -53q63 -52 63 -135q0 -65 -39 -112q-38 -45 -106 -62zM1016 551q0 -61 49 -100t123 -39
q77 0 120 37q44 38 48 100q1 67 -45 106q-47 39 -123 39q-73 0 -123 -41q-49 -40 -49 -102zM1186 35q84 0 136 42t52 116q0 67 -49 110t-137 43q-89 0 -139 -43q-52 -44 -52 -113q0 -68 53 -112q52 -43 136 -43z" />
    <glyph glyph-name="seveneighths" unicode="&#x215e;" horiz-adv-x="1359" 
d="M1120 1556l-1042 -1556h-64l1043 1556h63zM492 1501h-431v55h512v-14l-358 -725h-70zM1128 381q82 -18 127 -72q43 -52 43 -123q0 -90 -69 -147t-182 -57q-114 0 -183 57t-69 147q0 74 45 126t129 69q-150 37 -150 172q0 85 66 137q67 53 164 53t161 -53t64 -135
q0 -65 -39 -112q-38 -45 -107 -62zM877 551q0 -61 49 -100q50 -39 123 -39q76 0 119 37q45 38 49 100q1 66 -46 106q-47 39 -122 39q-73 0 -123 -41q-49 -40 -49 -102zM1047 35q83 0 136 42q52 42 52 116q0 67 -49 110t-137 43q-90 0 -140 -43q-51 -43 -51 -113
q0 -69 52 -112t137 -43z" />
    <glyph glyph-name="arrowleft" unicode="&#x2190;" horiz-adv-x="1714" 
d="M1632 750h-1429l596 -594l-54 -54l-684 684l684 684l54 -53l-596 -594h1429v-73z" />
    <glyph glyph-name="arrowup" unicode="&#x2191;" horiz-adv-x="1531" 
d="M1397 834l-594 596v-1430h-74v1430l-594 -596l-53 53l684 684l684 -684z" />
    <glyph glyph-name="arrowright" unicode="&#x2192;" horiz-adv-x="1714" 
d="M1653 786l-684 -684l-54 54l596 594h-1429v73h1429l-596 594l54 53z" />
    <glyph glyph-name="arrowdown" unicode="&#x2193;" horiz-adv-x="1531" 
d="M1450 670l-684 -684l-684 684l53 53l594 -596v1429h74v-1429l594 596z" />
    <glyph glyph-name="uni2196" unicode="&#x2196;" horiz-adv-x="1708" 
d="M1573 -2l-1432 1432v-883h-73v1009h1007l-2 -75l-880 2l1433 -1434z" />
    <glyph glyph-name="uni2197" unicode="&#x2197;" horiz-adv-x="1701" 
d="M1640 1556v-1009h-73v883l-1432 -1432l-53 51l1434 1434l-883 -2v75h1007z" />
    <glyph glyph-name="uni2198" unicode="&#x2198;" horiz-adv-x="1701" 
d="M1640 1010v-1010h-1007v76l883 -2l-1434 1433l53 52l1432 -1432v883h73z" />
    <glyph glyph-name="uni2199" unicode="&#x2199;" horiz-adv-x="1701" 
d="M186 74l883 2v-76h-1008v1010h74v-883l1432 1432l53 -52z" />
    <glyph glyph-name="minus" unicode="&#x2212;" horiz-adv-x="1187" 
d="M1030 592h-870v65h870v-65z" />
    <glyph glyph-name="approxequal" unicode="&#x2248;" horiz-adv-x="1187" 
d="M1030 850v-74q-89 -49 -196 -49q-100 0 -232 65q-129 64 -221 64q-142 0 -221 -76v70q81 70 221 70q95 0 230 -65q132 -64 223 -64q119 0 196 59zM1030 508v-74q-89 -49 -196 -49q-100 0 -232 65q-129 64 -221 64q-142 0 -221 -76v70q81 70 221 70q95 0 230 -65
q132 -64 223 -64q119 0 196 59z" />
    <glyph glyph-name="notequal" unicode="&#x2260;" horiz-adv-x="1187" 
d="M733 801l-198 -307h495v-66h-538l-142 -215h-78l142 215h-254v66h297l198 307h-495v65h538l142 215h78l-142 -215h254v-65h-297z" />
    <glyph glyph-name="lessequal" unicode="&#x2264;" horiz-adv-x="851" 
d="M770 362l-709 295v54l709 295v-76l-606 -246l606 -248v-74zM770 256v-63h-700v63h700z" />
    <glyph glyph-name="greaterequal" unicode="&#x2265;" horiz-adv-x="851" 
d="M688 684l-606 246v76l709 -295v-54l-709 -295v74zM782 193h-700v63h700v-63z" />
    <glyph glyph-name="K.ss03" horiz-adv-x="1695" 
d="M1608 0h-101l-659 733l-567 -733h-74v1556h74v-1437l1110 1437h94l-590 -761z" />
    <glyph glyph-name="Kcommaaccent.ss03" horiz-adv-x="1695" 
d="M1608 0h-101l-659 733l-567 -733h-74v1556h74v-1437l1110 1437h94l-590 -761zM825 -92h78l-106 -281h-62z" />
    <glyph glyph-name="Q.ss04" horiz-adv-x="1849" 
d="M1677 -319l-342 409q-187 -113 -409 -113q-331 0 -561 232t-230 567t230 570q229 233 561 233q333 0 560 -233q228 -234 228 -570q0 -198 -85 -367q-86 -171 -232 -278l336 -403zM926 47q199 0 364 98l-321 385l57 45l326 -389q135 101 212 254q76 152 76 336
q0 308 -206 520q-207 213 -508 213t-508 -213t-207 -520q0 -306 207 -518q207 -211 508 -211z" />
    <glyph glyph-name="I.ss05" horiz-adv-x="1114" 
d="M594 1489v-1421h420v-68h-914v68h420v1421h-420v67h914v-67h-420z" />
    <glyph glyph-name="IJ.ss05" horiz-adv-x="2576" 
d="M1014 1556v-67h-420v-1421h420v-68h-914v68h420v1421h-420v67h914zM2388 1556v-890q0 -309 -170 -500t-446 -191q-230 0 -391 135q-158 133 -205 363l69 25q44 -210 182 -330q139 -121 345 -121q243 0 392 170q148 169 148 449v823h-805v67h881z" />
    <glyph glyph-name="Iacute.ss05" horiz-adv-x="1114" 
d="M606 1718h-65l182 281h82zM594 1489v-1421h420v-68h-914v68h420v1421h-420v67h914v-67h-420z" />
    <glyph glyph-name="Icircumflex.ss05" horiz-adv-x="1114" 
d="M360 1718h-79l245 281h68l244 -281h-78l-201 230zM594 1489v-1421h420v-68h-914v68h420v1421h-420v67h914v-67h-420z" />
    <glyph glyph-name="Idieresis.ss05" horiz-adv-x="1114" 
d="M350 1780q-29 0 -47 18t-18 45q0 25 19 44q20 20 46 20t46 -20t20 -44q0 -26 -19 -45q-18 -18 -47 -18zM768 1780q-28 0 -45 17q-18 18 -18 46q0 25 18 44q18 20 45 20q26 0 46 -20t20 -44q0 -26 -19 -45q-18 -18 -47 -18zM594 1489v-1421h420v-68h-914v68h420v1421h-420
v67h914v-67h-420z" />
    <glyph glyph-name="Idotaccent.ss05" horiz-adv-x="1114" 
d="M559 1780q-29 0 -47 18t-18 45q0 25 19 43q21 19 46 19t46 -19q20 -18 20 -43q0 -26 -19 -45q-18 -18 -47 -18zM594 1489v-1421h420v-68h-914v68h420v1421h-420v67h914v-67h-420z" />
    <glyph glyph-name="Igrave.ss05" horiz-adv-x="1114" 
d="M522 1718l-198 281h82l184 -281h-68zM594 1489v-1421h420v-68h-914v68h420v1421h-420v67h914v-67h-420z" />
    <glyph glyph-name="Imacron.ss05" horiz-adv-x="1114" 
d="M823 1769h-528v60h528v-60zM594 1489v-1421h420v-68h-914v68h420v1421h-420v67h914v-67h-420z" />
    <glyph glyph-name="Iogonek.ss05" horiz-adv-x="1114" 
d="M594 1489v-1421h420v-68h-420q-88 -85 -118 -129q-32 -47 -32 -100q0 -46 29 -77q28 -30 76 -30q29 0 94 19l10 -54q-67 -24 -110 -24q-73 0 -117 43q-45 44 -45 116q0 58 30 108q31 52 109 128h-420v68h420v1421h-420v67h914v-67h-420z" />
    <glyph glyph-name="J.ss05" horiz-adv-x="1462" 
d="M1274 1556v-890q0 -309 -170 -500t-447 -191q-229 0 -390 135q-160 134 -206 363l70 25q44 -210 182 -330q139 -121 344 -121q244 0 393 170q148 169 148 449v823h-805v67h881z" />
    <glyph glyph-name="P.ss08" horiz-adv-x="1529" 
d="M207 1556h606q280 0 458 -151q179 -152 179 -414q0 -261 -179 -413t-458 -152h-532v-426h-74v1556zM281 496h532q246 0 405 132q158 131 158 363t-158 365t-405 133h-532v-993z" />
    <glyph glyph-name="R.ss08" horiz-adv-x="1589" 
d="M1499 0h-108l-502 430q-44 -4 -80 -4h-528v-426h-74v1556h602q291 0 463 -154t172 -411q0 -214 -122 -360q-122 -145 -339 -189zM281 494h528q259 0 410 136t151 361q0 228 -151 363t-410 135h-528v-995z" />
    <glyph glyph-name="Racute.ss08" horiz-adv-x="1589" 
d="M778 1718h-65l182 281h82zM1499 0h-108l-502 430q-44 -4 -80 -4h-528v-426h-74v1556h602q291 0 463 -154t172 -411q0 -214 -122 -360q-122 -145 -339 -189zM281 494h528q259 0 410 136t151 361q0 228 -151 363t-410 135h-528v-995z" />
    <glyph glyph-name="Rcaron.ss08" horiz-adv-x="1589" 
d="M698 1716l-245 281h79l199 -228l201 228h78l-244 -281h-68zM1499 0h-108l-502 430q-44 -4 -80 -4h-528v-426h-74v1556h602q291 0 463 -154t172 -411q0 -214 -122 -360q-122 -145 -339 -189zM281 494h528q259 0 410 136t151 361q0 228 -151 363t-410 135h-528v-995z" />
    <glyph glyph-name="Rcommaaccent.ss08" horiz-adv-x="1589" 
d="M1499 0h-108l-502 430q-44 -4 -80 -4h-528v-426h-74v1556h602q291 0 463 -154t172 -411q0 -214 -122 -360q-122 -145 -339 -189zM281 494h528q259 0 410 136t151 361q0 228 -151 363t-410 135h-528v-995zM715 -92h78l-107 -281h-61z" />
    <glyph glyph-name="E.ss09" horiz-adv-x="1415" 
d="M1284 68v-68h-1077v1556h1075v-67h-1001v-676h958v-68h-958v-677h1003z" />
    <glyph glyph-name="Eacute.ss09" horiz-adv-x="1415" 
d="M819 1718h-65l182 281h82zM1284 68v-68h-1077v1556h1075v-67h-1001v-676h958v-68h-958v-677h1003z" />
    <glyph glyph-name="Ecaron.ss09" horiz-adv-x="1415" 
d="M739 1716l-245 281h79l199 -228l201 228h78l-244 -281h-68zM1284 68v-68h-1077v1556h1075v-67h-1001v-676h958v-68h-958v-677h1003z" />
    <glyph glyph-name="Ecircumflex.ss09" horiz-adv-x="1415" 
d="M573 1718h-79l245 281h68l244 -281h-78l-201 230zM1284 68v-68h-1077v1556h1075v-67h-1001v-676h958v-68h-958v-677h1003z" />
    <glyph glyph-name="Edieresis.ss09" horiz-adv-x="1415" 
d="M563 1780q-29 0 -47 18t-18 45q0 25 19 44q20 20 46 20t46 -20t20 -44q0 -26 -19 -45q-18 -18 -47 -18zM981 1780q-28 0 -45 17q-18 18 -18 46q0 25 18 44q18 20 45 20q26 0 46 -20t20 -44q0 -26 -19 -45q-18 -18 -47 -18zM1284 68v-68h-1077v1556h1075v-67h-1001v-676
h958v-68h-958v-677h1003z" />
    <glyph glyph-name="Edotaccent.ss09" horiz-adv-x="1415" 
d="M772 1780q-29 0 -47 18t-18 45q0 25 19 43q21 19 46 19t46 -19q20 -18 20 -43q0 -26 -19 -45q-18 -18 -47 -18zM1284 68v-68h-1077v1556h1075v-67h-1001v-676h958v-68h-958v-677h1003z" />
    <glyph glyph-name="Egrave.ss09" horiz-adv-x="1415" 
d="M735 1718l-198 281h81l185 -281h-68zM1284 68v-68h-1077v1556h1075v-67h-1001v-676h958v-68h-958v-677h1003z" />
    <glyph glyph-name="Emacron.ss09" horiz-adv-x="1415" 
d="M1036 1769h-528v60h528v-60zM1284 68v-68h-1077v1556h1075v-67h-1001v-676h958v-68h-958v-677h1003z" />
    <glyph glyph-name="Eogonek.ss09" horiz-adv-x="1415" 
d="M1284 0h-88q-88 -85 -118 -129q-31 -46 -31 -100q0 -48 28 -77q29 -30 76 -30q29 0 94 19l10 -54q-68 -24 -110 -24q-73 0 -117 43q-45 44 -45 116q0 58 30 108q31 52 109 128h-915v1556h1075v-67h-1001v-676h958v-68h-958v-677h1003v-68z" />
    <glyph glyph-name="F.ss09" horiz-adv-x="1323" 
d="M281 1489v-676h958v-68h-958v-745h-74v1556h1057v-67h-983z" />
    <glyph glyph-name="M.ss10" horiz-adv-x="2111" 
d="M1907 1556v-1556h-72v1405l-760 -1169h-37l-759 1165v-1401h-72v1556h57l793 -1216l792 1216h58z" />
    <glyph glyph-name="N.ss12" horiz-adv-x="1757" 
d="M1550 1556v-1556h-73v539l-1194 913l-2 -1452h-74v1556h65l1205 -927v927h73z" />
    <glyph glyph-name="Nacute.ss12" horiz-adv-x="1757" 
d="M928 1718h-66l182 281h82zM1550 1556v-1556h-73v539l-1194 913l-2 -1452h-74v1556h65l1205 -927v927h73z" />
    <glyph glyph-name="Ncaron.ss12" horiz-adv-x="1757" 
d="M850 1716l-246 281h80l199 -228l200 228h78l-243 -281h-68zM1550 1556v-1556h-73v539l-1194 913l-2 -1452h-74v1556h65l1205 -927v927h73z" />
    <glyph glyph-name="Ncommaaccent.ss12" horiz-adv-x="1757" 
d="M1550 1556v-1556h-73v539l-1194 913l-2 -1452h-74v1556h65l1205 -927v927h73zM829 -92h78l-106 -281h-62z" />
    <glyph glyph-name="Eng.ss12" horiz-adv-x="1757" 
d="M1550 1556v-1927q0 -99 -60 -161t-159 -62q-81 0 -149 43l20 66q53 -35 117 -35q71 0 115 42q43 42 43 113v904l-1194 913l-2 -1452h-74v1556h65l1205 -927v927h73z" />
    <glyph glyph-name="Ntilde.ss12" horiz-adv-x="1757" 
d="M758 1888q-44 0 -68 -28t-24 -78h-60q0 79 41 122q41 42 107 42q57 0 131 -56q73 -55 121 -55q88 0 88 111h59q0 -79 -41 -125q-40 -45 -104 -45q-61 0 -132 56t-118 56zM1550 1556v-1556h-73v539l-1194 913l-2 -1452h-74v1556h65l1205 -927v927h73z" />
    <glyph glyph-name="G.ss14" horiz-adv-x="1861" 
d="M1651 614v-614h-70l-2 379q-88 -200 -256 -302t-393 -102q-333 0 -564 233q-231 232 -231 568q0 335 230 570q229 233 561 233q264 0 470 -153q204 -152 281 -400l-69 -22q-68 226 -255 366q-185 139 -427 139q-301 0 -508 -213t-207 -520t209 -519t512 -212
q236 0 405 125q168 124 234 377h-852v67h932z" />
    <glyph glyph-name="Gbreve.ss14" horiz-adv-x="1861" 
d="M932 1704q-115 0 -189 71q-73 70 -73 181h61q0 -88 57 -142q58 -55 144 -55q85 0 143 55t58 142h63q0 -110 -75 -181q-76 -71 -189 -71zM1651 614v-614h-70l-2 379q-88 -200 -256 -302t-393 -102q-333 0 -564 233q-231 232 -231 568q0 335 230 570q229 233 561 233
q264 0 470 -153q204 -152 281 -400l-69 -22q-68 226 -255 366q-185 139 -427 139q-301 0 -508 -213t-207 -520t209 -519t512 -212q236 0 405 125q168 124 234 377h-852v67h932z" />
    <glyph glyph-name="Gcommaaccent.ss14" horiz-adv-x="1861" 
d="M1651 614v-614h-70l-2 379q-88 -200 -256 -302t-393 -102q-333 0 -564 233q-231 232 -231 568q0 335 230 570q229 233 561 233q264 0 470 -153q204 -152 281 -400l-69 -22q-68 226 -255 366q-185 139 -427 139q-301 0 -508 -213t-207 -520t209 -519t512 -212
q236 0 405 125q168 124 234 377h-852v67h932zM864 -92h78l-106 -281h-62z" />
    <glyph glyph-name="Gdotaccent.ss14" horiz-adv-x="1861" 
d="M932 1780q-29 0 -47 18q-19 19 -19 45q0 25 20 43q21 19 46 19t46 -19q19 -18 19 -43q0 -27 -18 -45t-47 -18zM1651 614v-614h-70l-2 379q-88 -200 -256 -302t-393 -102q-333 0 -564 233q-231 232 -231 568q0 335 230 570q229 233 561 233q264 0 470 -153
q204 -152 281 -400l-69 -22q-68 226 -255 366q-185 139 -427 139q-301 0 -508 -213t-207 -520t209 -519t512 -212q236 0 405 125q168 124 234 377h-852v67h932z" />
    <glyph glyph-name="i.loclTRK" horiz-adv-x="542" 
d="M272 1462q26 0 46 -18t20 -43q0 -26 -19 -45t-47 -19t-47 19q-18 18 -18 45q0 25 19 43t46 18zM307 0h-71v999h71v-999z" />
    <glyph glyph-name="germandbls.case" horiz-adv-x="2650" 
d="M653 1579q214 0 355 -112q138 -110 176 -300l-74 -18q-35 170 -155 265q-121 95 -300 95q-183 0 -294 -93t-111 -249q0 -130 76 -193q77 -63 223 -108l334 -102q325 -102 325 -375q0 -186 -140 -299q-142 -115 -370 -115q-238 0 -397 126t-186 335l82 19
q17 -190 156 -300q142 -112 352 -112q193 0 311 95q117 95 117 251q0 217 -271 303l-348 109q-166 52 -256 134q-88 81 -88 232q0 187 133 299q134 113 350 113zM1978 1579q214 0 355 -112q138 -110 176 -300l-74 -18q-35 170 -155 265q-121 95 -300 95q-182 0 -293 -93
q-112 -94 -112 -249q0 -130 76 -193q77 -63 223 -108l334 -102q325 -102 325 -375q0 -186 -140 -299q-142 -115 -370 -115q-238 0 -397 126t-186 335l82 19q17 -190 156 -300q142 -112 352 -112q193 0 311 95q117 94 117 251q0 217 -271 303l-348 109q-166 52 -256 134
q-88 81 -88 232q0 187 133 299q134 113 350 113z" />
    <glyph glyph-name="a.ss01" 
d="M1133 999v-999h-72v246q-63 -125 -182 -197t-265 -72q-212 0 -360 146t-148 377t148 376q147 144 360 144q146 0 265 -71t182 -195v245h72zM618 43q180 0 311 127q132 128 132 330q0 200 -132 327q-131 127 -311 127q-186 0 -314 -126t-128 -328q0 -205 128 -331
t314 -126z" />
    <glyph glyph-name="aacute.ss01" 
d="M696 1276h-65l182 280h82zM1133 999v-999h-72v246q-63 -125 -182 -197t-265 -72q-212 0 -360 146t-148 377t148 376q147 144 360 144q146 0 265 -71t182 -195v245h72zM618 43q180 0 311 127q132 128 132 330q0 200 -132 327q-131 127 -311 127q-186 0 -314 -126
t-128 -328q0 -205 128 -331t314 -126z" />
    <glyph glyph-name="abreve.ss01" 
d="M649 1260q-115 0 -188 70q-74 71 -74 181h62q0 -88 57 -142t143 -54q87 0 144 54t57 142h63q0 -111 -74 -181t-190 -70zM1133 999v-999h-72v246q-63 -125 -182 -197t-265 -72q-212 0 -360 146t-148 377t148 376q147 144 360 144q146 0 265 -71t182 -195v245h72zM618 43
q180 0 311 127q132 128 132 330q0 200 -132 327q-131 127 -311 127q-186 0 -314 -126t-128 -328q0 -205 128 -331t314 -126z" />
    <glyph glyph-name="acircumflex.ss01" 
d="M451 1276h-80l245 280h68l244 -280h-78l-201 229zM1133 999v-999h-72v246q-63 -125 -182 -197t-265 -72q-212 0 -360 146t-148 377t148 376q147 144 360 144q146 0 265 -71t182 -195v245h72zM618 43q180 0 311 127q132 128 132 330q0 200 -132 327q-131 127 -311 127
q-186 0 -314 -126t-128 -328q0 -205 128 -331t314 -126z" />
    <glyph glyph-name="adieresis.ss01" 
d="M440 1337q-28 0 -47 19q-18 18 -18 45q0 25 19 44t46 19t46 -19q20 -20 20 -44q0 -26 -19 -45t-47 -19zM858 1337q-27 0 -45 18t-18 46q0 24 18 44q18 19 45 19t46 -19q20 -20 20 -44q0 -26 -19 -45t-47 -19zM1133 999v-999h-72v246q-63 -125 -182 -197t-265 -72
q-212 0 -360 146t-148 377t148 376q147 144 360 144q146 0 265 -71t182 -195v245h72zM618 43q180 0 311 127q132 128 132 330q0 200 -132 327q-131 127 -311 127q-186 0 -314 -126t-128 -328q0 -205 128 -331t314 -126z" />
    <glyph glyph-name="agrave.ss01" 
d="M612 1276l-198 280h82l184 -280h-68zM1133 999v-999h-72v246q-63 -125 -182 -197t-265 -72q-212 0 -360 146t-148 377t148 376q147 144 360 144q146 0 265 -71t182 -195v245h72zM618 43q180 0 311 127q132 128 132 330q0 200 -132 327q-131 127 -311 127
q-186 0 -314 -126t-128 -328q0 -205 128 -331t314 -126z" />
    <glyph glyph-name="amacron.ss01" 
d="M913 1327h-528v59h528v-59zM1133 999v-999h-72v246q-63 -125 -182 -197t-265 -72q-212 0 -360 146t-148 377t148 376q147 144 360 144q146 0 265 -71t182 -195v245h72zM618 43q180 0 311 127q132 128 132 330q0 200 -132 327q-131 127 -311 127q-186 0 -314 -126
t-128 -328q0 -205 128 -331t314 -126z" />
    <glyph glyph-name="aogonek.ss01" 
d="M1182 -317l10 -54q-68 -24 -111 -24q-72 0 -116 43q-45 44 -45 116q0 62 29 110q31 52 112 128v244q-63 -125 -182 -197t-265 -72q-212 0 -360 146t-148 377t148 376q147 144 360 144q146 0 265 -71t182 -195v245h72v-999q-88 -85 -118 -129q-32 -47 -32 -100
q0 -46 29 -77q28 -30 75 -30q30 0 95 19zM618 43q180 0 311 127q132 128 132 330q0 200 -132 327q-131 127 -311 127q-186 0 -314 -126t-128 -328q0 -205 128 -331t314 -126z" />
    <glyph glyph-name="aring.ss01" 
d="M649 1249q-76 0 -133 54q-55 52 -55 129q0 76 55 130q56 54 133 54t133 -54t56 -130t-56 -129q-57 -54 -133 -54zM649 1565q-57 0 -96 -39t-39 -94q0 -54 39 -93t96 -39t97 39t40 93q0 55 -40 94t-97 39zM1133 999v-999h-72v246q-63 -125 -182 -197t-265 -72
q-212 0 -360 146t-148 377t148 376q147 144 360 144q146 0 265 -71t182 -195v245h72zM618 43q180 0 311 127q132 128 132 330q0 200 -132 327q-131 127 -311 127q-186 0 -314 -126t-128 -328q0 -205 128 -331t314 -126z" />
    <glyph glyph-name="atilde.ss01" 
d="M524 1444q-43 0 -67 -29q-25 -30 -25 -78h-59q0 79 41 122q40 42 106 42q58 0 131 -55t121 -55q88 0 88 110h60q0 -79 -41 -125q-41 -45 -105 -45q-60 0 -132 57q-71 56 -118 56zM1133 999v-999h-72v246q-63 -125 -182 -197t-265 -72q-212 0 -360 146t-148 377t148 376
q147 144 360 144q146 0 265 -71t182 -195v245h72zM618 43q180 0 311 127q132 128 132 330q0 200 -132 327q-131 127 -311 127q-186 0 -314 -126t-128 -328q0 -205 128 -331t314 -126z" />
    <glyph glyph-name="l.ss02" horiz-adv-x="610" 
d="M258 1638v-1431q0 -71 44 -117q44 -45 118 -45q65 0 117 37l22 -59q-69 -46 -147 -46q-100 0 -163 63t-63 165v1433h72z" />
    <glyph glyph-name="lacute.ss02" horiz-adv-x="610" 
d="M268 1800h-65l182 281h82zM258 1638v-1431q0 -71 44 -117q44 -45 118 -45q65 0 117 37l22 -59q-69 -46 -147 -46q-100 0 -163 63t-63 165v1433h72z" />
    <glyph glyph-name="lcaron.ss02" horiz-adv-x="610" 
d="M258 1638v-1431q0 -71 44 -117q44 -45 118 -45q65 0 117 37l22 -59q-69 -46 -147 -46q-100 0 -163 63t-63 165v1433h72zM502 1325h-58v313h74z" />
    <glyph glyph-name="lcommaaccent.ss02" horiz-adv-x="610" 
d="M258 1638v-1431q0 -71 44 -117q44 -45 118 -45q65 0 117 37l22 -59q-69 -46 -147 -46q-100 0 -163 63t-63 165v1433h72zM231 -373l91 281h77l-106 -281h-62z" />
    <glyph glyph-name="ldot.ss02" horiz-adv-x="649" 
d="M279 1638v-1431q0 -71 44 -117q43 -45 117 -45q65 0 117 37l23 -59q-69 -46 -148 -46q-100 0 -163 63q-62 62 -62 165v1433h72zM565 741q27 0 46 -18q20 -18 20 -43q0 -26 -19 -45t-47 -19q-29 0 -47 18t-18 46q0 25 18 43t47 18z" />
    <glyph glyph-name="lslash.ss02" horiz-adv-x="663" 
d="M590 82l20 -59q-69 -46 -147 -46q-100 0 -163 63q-62 62 -62 165v448l-177 -116v73l177 117v911h71v-862l213 142v-74l-213 -142v-495q0 -72 45 -117t119 -45q62 0 117 37z" />
    <glyph glyph-name="k.ss03" horiz-adv-x="1261" 
d="M1225 0h-105l-467 465l-374 -465h-72v1638h72v-1523l714 884h90l-383 -475z" />
    <glyph glyph-name="kcommaaccent.ss03" horiz-adv-x="1261" 
d="M1225 0h-105l-467 465l-374 -465h-72v1638h72v-1523l714 884h90l-383 -475zM614 -92h78l-106 -281h-62z" />
    <glyph glyph-name="g.ss06" 
d="M1133 999v-1136q-1 -196 -148 -327q-145 -130 -352 -130q-380 0 -492 289l68 39q99 -258 424 -258q177 0 301 111q125 112 127 282v377q-63 -125 -182 -197t-265 -72q-212 0 -360 146t-148 377t148 376q147 144 360 144q146 0 265 -71t182 -195v245h72zM618 43
q180 0 311 127q132 128 132 330q0 200 -132 327q-131 127 -311 127q-186 0 -314 -126t-128 -328q0 -205 128 -331t314 -126z" />
    <glyph glyph-name="gbreve.ss06" 
d="M645 1260q-115 0 -188 70q-74 71 -74 181h61q0 -87 58 -142q57 -54 143 -54t143 54q58 55 58 142h63q0 -111 -74 -181t-190 -70zM1133 999v-1136q-1 -196 -148 -327q-145 -130 -352 -130q-380 0 -492 289l68 39q99 -258 424 -258q177 0 301 111q125 112 127 282v377
q-63 -125 -182 -197t-265 -72q-212 0 -360 146t-148 377t148 376q147 144 360 144q146 0 265 -71t182 -195v245h72zM618 43q180 0 311 127q132 128 132 330q0 200 -132 327q-131 127 -311 127q-186 0 -314 -126t-128 -328q0 -205 128 -331t314 -126z" />
    <glyph glyph-name="gcommaaccent.ss06" 
d="M678 1268h-78l107 280h61zM1133 999v-1136q-1 -196 -148 -327q-145 -130 -352 -130q-380 0 -492 289l68 39q99 -258 424 -258q177 0 301 111q125 112 127 282v377q-63 -125 -182 -197t-265 -72q-212 0 -360 146t-148 377t148 376q147 144 360 144q146 0 265 -71t182 -195
v245h72zM618 43q180 0 311 127q132 128 132 330q0 200 -132 327q-131 127 -311 127q-186 0 -314 -126t-128 -328q0 -205 128 -331t314 -126z" />
    <glyph glyph-name="gdotaccent.ss06" 
d="M645 1337q-28 0 -47 19q-18 18 -18 45q0 25 19 43t46 18t46 -18q20 -18 20 -43q0 -26 -19 -45t-47 -19zM1133 999v-1136q-1 -196 -148 -327q-145 -130 -352 -130q-380 0 -492 289l68 39q99 -258 424 -258q177 0 301 111q125 112 127 282v377q-63 -125 -182 -197t-265 -72
q-212 0 -360 146t-148 377t148 376q147 144 360 144q146 0 265 -71t182 -195v245h72zM618 43q180 0 311 127q132 128 132 330q0 200 -132 327q-131 127 -311 127q-186 0 -314 -126t-128 -328q0 -205 128 -331t314 -126z" />
    <glyph glyph-name="y.ss07" horiz-adv-x="1290" 
d="M1083 999v-1157q0 -184 -128 -310q-127 -126 -328 -126q-358 0 -475 289l67 39q99 -258 408 -258q168 0 276 108q110 110 111 264v398q-52 -126 -165 -198q-112 -71 -261 -71q-181 0 -292 119q-112 120 -112 312v591h72v-583q0 -167 92 -270q91 -101 242 -101
q193 0 308 121q116 122 116 323v510h69z" />
    <glyph glyph-name="yacute.ss07" horiz-adv-x="1290" 
d="M705 1313h-66l182 280h82zM1083 999v-1157q0 -184 -128 -310q-127 -126 -328 -126q-358 0 -475 289l67 39q99 -258 408 -258q168 0 276 108q110 110 111 264v398q-52 -126 -165 -198q-112 -71 -261 -71q-181 0 -292 119q-112 120 -112 312v591h72v-583q0 -167 92 -270
q91 -101 242 -101q193 0 308 121q116 122 116 323v510h69z" />
    <glyph glyph-name="ycircumflex.ss07" horiz-adv-x="1290" 
d="M459 1313h-80l246 280h67l244 -280h-78l-201 229zM1083 999v-1157q0 -184 -128 -310q-127 -126 -328 -126q-358 0 -475 289l67 39q99 -258 408 -258q168 0 276 108q110 110 111 264v398q-52 -126 -165 -198q-112 -71 -261 -71q-181 0 -292 119q-112 120 -112 312v591h72
v-583q0 -167 92 -270q91 -101 242 -101q193 0 308 121q116 122 116 323v510h69z" />
    <glyph glyph-name="ydieresis.ss07" horiz-adv-x="1290" 
d="M449 1374q-29 0 -48 19q-18 18 -18 45q0 25 19 44t47 19q27 0 46 -19t19 -44q0 -27 -18 -45q-19 -19 -47 -19zM866 1374q-27 0 -45 18t-18 46q0 24 18 44q18 19 45 19t46 -19q20 -20 20 -44q0 -26 -19 -45t-47 -19zM1083 999v-1157q0 -184 -128 -310q-127 -126 -328 -126
q-358 0 -475 289l67 39q99 -258 408 -258q168 0 276 108q110 110 111 264v398q-52 -126 -165 -198q-112 -71 -261 -71q-181 0 -292 119q-112 120 -112 312v591h72v-583q0 -167 92 -270q91 -101 242 -101q193 0 308 121q116 122 116 323v510h69z" />
    <glyph glyph-name="ygrave.ss07" horiz-adv-x="1290" 
d="M621 1313l-199 280h82l184 -280h-67zM1083 999v-1157q0 -184 -128 -310q-127 -126 -328 -126q-358 0 -475 289l67 39q99 -258 408 -258q168 0 276 108q110 110 111 264v398q-52 -126 -165 -198q-112 -71 -261 -71q-181 0 -292 119q-112 120 -112 312v591h72v-583
q0 -167 92 -270q91 -101 242 -101q193 0 308 121q116 122 116 323v510h69z" />
    <glyph glyph-name="germandbls.ss11" horiz-adv-x="1404" 
d="M705 387h145q218 0 355 -133q138 -133 138 -344q0 -223 -149 -363q-150 -141 -383 -141q-189 0 -325 97t-183 268l70 24q40 -150 158 -236q119 -87 282 -87q201 0 331 124t130 314q0 180 -120 296q-121 116 -308 116h-260l-6 26l563 588h-864v-936h-72v1337q0 148 81 235
t222 87q80 0 152 -33l-25 -59q-51 26 -123 26q-110 0 -173 -69q-62 -68 -62 -187v-338h993v-20z" />
    <glyph glyph-name="j.ss13" horiz-adv-x="522" 
d="M260 1462q26 0 46 -18t20 -45q0 -26 -19 -45t-47 -19t-47 19q-18 18 -18 45t19 45t46 18zM297 -573h-72v1572h72v-1572z" />
    <glyph glyph-name="ij.ss13" horiz-adv-x="1046" 
d="M260 1462q26 0 46 -18t20 -45q0 -26 -19 -45t-47 -19t-47 19q-18 18 -18 45t19 45t46 18zM782 1462q26 0 46 -18t20 -45q0 -26 -19 -45t-47 -19t-47 19q-18 18 -18 45t19 45q20 18 46 18zM297 0h-72v999h72v-999zM819 -573h-71v1572h71v-1572z" />
    <glyph glyph-name="f_j" horiz-adv-x="1239" 
d="M1042 999v-1372q0 -101 -60 -161t-159 -60q-78 0 -135 33l23 61q43 -26 100 -26q73 0 116 43q44 44 44 114v1305h-668v-936h-72v936h-231v63h231v254q0 190 107 299t283 109q180 0 337 -139l-34 -56q-141 129 -303 129q-147 0 -232 -91q-86 -92 -86 -251v-254h739z" />
    <glyph glyph-name="f_f_f" horiz-adv-x="2052" 
d="M2073 936h-471v-936h-72v936h-590v-936h-72v936h-565v-936h-72v936h-231v63h231v254q0 190 107 299t283 109t331 -133q105 133 305 133q171 0 322 -123q78 131 254 131q80 0 152 -33l-25 -59q-60 27 -123 27q-110 0 -173 -71q-62 -69 -62 -190v-344h471v-63zM868 999v254
q0 128 50 220q-138 122 -297 122q-147 0 -232 -91q-86 -92 -86 -251v-254h565zM1530 999v344q0 77 20 134q-134 118 -293 118q-146 0 -231 -91q-86 -92 -86 -251v-254h590z" />
    <glyph glyph-name="f_k" horiz-adv-x="1843" 
d="M1698 0l-713 479v-479h-72v936h-610v-936h-72v936h-231v63h231v254q0 190 107 299t283 109q159 0 292 -102v79h72v-1120l678 481h104l-698 -499l739 -500h-110zM913 999v476q-132 120 -292 120q-147 0 -232 -91q-86 -92 -86 -251v-254h610z" />
    <glyph glyph-name="f_f_k" horiz-adv-x="2469" 
d="M2324 0l-712 479v-479h-72v936h-610v-936h-72v936h-555v-936h-72v936h-231v63h231v254q0 190 107 299t283 109q173 0 325 -129q105 129 301 129q159 0 293 -102v79h72v-1118l678 479h104l-698 -499l739 -500h-111zM858 999v254q0 130 51 226q-135 116 -288 116
q-147 0 -232 -91q-86 -92 -86 -251v-254h555zM1540 999v478q-134 118 -293 118q-146 0 -231 -91q-86 -92 -86 -251v-254h610z" />
    <glyph glyph-name="r_t" horiz-adv-x="1540" 
d="M1051 936v-668q0 -100 57 -162q57 -61 154 -61q94 0 176 72l30 -58q-95 -82 -211 -82q-125 0 -202 78q-76 77 -76 209v672h-254q-204 0 -326 -149q-120 -147 -120 -355v-432h-72v999h72v-280q62 131 176 206q112 74 264 74h260v447l72 29v-476h479v-63h-479z" />
    <glyph glyph-name="f_k.ss03" horiz-adv-x="1966" 
d="M1931 0h-104l-467 465l-377 -465h-72v936h-608v-936h-72v936h-231v63h231v254q0 190 107 299t283 109q156 0 290 -100v77h72v-1527l715 888h92l-383 -475zM911 999v478q-134 118 -290 118q-147 0 -232 -91q-86 -92 -86 -251v-254h608z" />
    <glyph glyph-name="f_f_k.ss03" horiz-adv-x="2594" 
d="M2558 0h-102l-469 467l-375 -467h-72v936h-610v-936h-72v936h-555v-936h-72v936h-231v63h231v254q0 190 107 299t283 109q173 0 325 -129q105 129 301 129q159 0 293 -102v79h72v-1527l715 888h90l-383 -475zM858 999v254q0 130 51 226q-135 116 -288 116
q-147 0 -232 -91q-86 -92 -86 -251v-254h555zM1540 999v478q-134 118 -293 118q-146 0 -231 -91q-86 -92 -86 -251v-254h610z" />
    <glyph glyph-name="fl.ss02" horiz-adv-x="1318" 
d="M1245 82l21 -59q-69 -46 -148 -46q-100 0 -163 63q-62 62 -62 165v731h-590v-936h-72v936h-231v63h231v254q0 190 107 299t283 109q148 0 272 -88v65h72v-1431q0 -72 45 -117t118 -45q62 0 117 37zM893 999v494q-125 102 -272 102t-232 -91q-86 -92 -86 -251v-254h590z
" />
    <glyph glyph-name="f_h" horiz-adv-x="1998" 
d="M1411 1020q180 0 291 -118q110 -117 110 -312v-590h-71v584q0 165 -92 268q-91 102 -242 102q-192 0 -306 -120q-116 -122 -116 -324v-510h-72v936h-610v-936h-72v936h-231v63h231v254q0 190 107 299t283 109q159 0 292 -102v79h72v-880q55 124 166 193t260 69zM913 999
v476q-132 120 -292 120q-147 0 -232 -91q-86 -92 -86 -251v-254h610z" />
    <glyph glyph-name="t_z" horiz-adv-x="1775" 
d="M1061 387h160q218 0 355 -133q138 -133 138 -344q0 -223 -149 -363q-150 -141 -383 -141q-189 0 -325 97t-183 268l69 24q39 -148 158 -236q119 -87 283 -87q198 0 329 125q132 126 132 313q0 180 -120 296q-121 116 -308 116h-267l-12 26l526 588h-1173v-668
q0 -100 57 -162q57 -61 154 -61q93 0 176 72l31 -58q-95 -82 -211 -82q-126 0 -203 78q-76 77 -76 209v672h-219v63h219v447l72 29v-476h1298v-16z" />
    <glyph glyph-name="y_t" horiz-adv-x="1951" 
d="M1464 936v-668q0 -99 58 -162q57 -61 153 -61q91 0 174 72l33 -58q-95 -82 -211 -82q-127 0 -203 78q-75 76 -75 209v672h-291l-770 -1509h-78l295 577l-510 995h80l469 -917l469 917h336v447l71 29v-476h480v-63h-480z" />
    <glyph glyph-name="L_A" horiz-adv-x="2670" 
d="M2636 0h-80l-197 422h-960l-197 -422h-995v1556h74v-1488h872l696 1488h60zM2327 489l-449 963l-448 -963h897z" />
    <glyph glyph-name="R_A" horiz-adv-x="3061" 
d="M3025 0h-80l-197 422h-960l-197 -422h-110l-809 817h-391v-817h-74v1556h547q193 0 314 -100q122 -101 122 -268q0 -166 -118 -266q-119 -101 -304 -105l764 -772l706 1511h60zM281 885h473q160 0 261 82t101 221q0 137 -101 219t-261 82h-473v-604zM2718 489l-449 963
l-448 -963h897z" />
    <glyph glyph-name="t_i" horiz-adv-x="1302" 
d="M1077 999v-999h-71v936h-715v-668q0 -100 57 -162q57 -61 154 -61q93 0 176 72l31 -58q-95 -82 -211 -82q-126 0 -203 78q-76 77 -76 209v672h-219v63h219v447l72 29v-476h786zM1040 1462q26 0 46 -18t20 -45q0 -26 -19 -45t-47 -19t-47 19q-18 18 -18 45t19 45
q20 18 46 18z" />
    <glyph glyph-name="t_h" horiz-adv-x="2070" 
d="M1483 1020q180 0 291 -118q110 -117 110 -312v-590h-69v584q0 165 -94 268q-93 102 -242 102q-193 0 -307 -120q-115 -121 -115 -324v-510h-72v936h-694v-668q0 -100 57 -162q57 -61 154 -61q93 0 176 72l31 -58q-95 -82 -211 -82q-126 0 -203 78q-76 77 -76 209v672
h-219v63h219v447l72 29v-476h694v639h72v-884q52 123 165 195q112 71 261 71z" />
    <glyph glyph-name="t_u" horiz-adv-x="2050" 
d="M1843 999v-999h-71v242q-56 -126 -166 -194q-109 -68 -260 -68q-181 0 -291 117q-111 119 -111 313v526h-653v-668q0 -100 57 -162q57 -61 154 -61q93 0 176 72l31 -58q-95 -82 -211 -82q-126 0 -203 78q-76 77 -76 209v672h-219v63h219v447l72 29v-476h725v-583
q0 -166 92 -269q92 -102 242 -102q191 0 306 121q116 122 116 323v510h71z" />
    <glyph glyph-name="t_y" horiz-adv-x="1951" 
d="M1915 999l-803 -1572h-78l295 577l-479 932h-559v-668q0 -100 57 -162q57 -61 154 -61q93 0 176 72l31 -58q-95 -82 -211 -82q-126 0 -203 78q-76 77 -76 209v672h-219v63h219v447l72 29v-476h608l469 -919l469 919h78z" />
    <glyph glyph-name="w_w_w" horiz-adv-x="4681" 
d="M4643 999l-383 -1005h-74l-336 887l-336 -887h-73l-344 905l-347 -905h-73l-336 887l-336 -887h-74l-344 905l-346 -905h-74l-336 887l-335 -887h-74l-383 1005h78l346 -897l340 897h57l340 -897l348 897h78l346 -897l340 897h58l340 -897l348 897h77l347 -897l340 897
h57l340 -897l348 897h76z" />
    <glyph glyph-name="W_W_W" horiz-adv-x="6483" 
d="M6220 1556l-510 -1556h-62l-485 1427l-485 -1427h-62l-471 1438l-471 -1438h-61l-484 1427l-485 -1427h-61l-472 1438l-471 -1438h-61l-485 1427l-484 -1427h-61l-510 1556h78l463 -1429l485 1429h59l486 -1429l463 1429h77l463 -1429l486 1429h59l485 -1429l463 1429h78
l465 -1429l483 1429h62l483 -1429l465 1429h78z" />
    <glyph glyph-name="r_f" horiz-adv-x="1583" 
d="M1604 936h-471v-936h-72v936h-336q-204 0 -326 -149q-120 -147 -120 -355v-432h-72v999h72v-280q62 131 176 206q112 74 264 74h342v344q0 149 81 238q81 88 222 88q80 0 152 -33l-25 -59q-60 27 -123 27q-110 0 -173 -71q-62 -69 -62 -190v-344h471v-63z" />
    <glyph glyph-name="E_R" horiz-adv-x="3002" 
d="M2972 0h-101l-809 817h-385v-817h-75v817h-1321v-749h925v-68h-999v1556h999v-67h-925v-604h1321v671h548q194 0 315 -100q122 -101 122 -268q0 -166 -118 -266q-119 -101 -304 -105zM1677 885h473q161 0 262 82t101 221q0 137 -101 219t-262 82h-473v-604z" />
    <glyph glyph-name="f_f_j" horiz-adv-x="1878" 
d="M1679 999v-1372q0 -101 -60 -161t-159 -60q-76 0 -133 33l23 61q43 -26 98 -26q71 0 117 44q45 43 45 113v1305h-670v-936h-72v936h-565v-936h-72v936h-231v63h231v254q0 190 107 299t283 109t331 -133q105 133 305 133q179 0 340 -139l-36 -56q-139 129 -304 129
q-146 0 -231 -91q-86 -92 -86 -251v-254h739zM868 999v254q0 128 50 220q-138 122 -297 122q-147 0 -232 -91q-86 -92 -86 -251v-254h565z" />
    <glyph glyph-name="f_f_l.ss02" horiz-adv-x="1955" 
d="M1882 82l23 -59q-69 -46 -148 -46q-100 0 -163 63q-62 62 -62 165v731h-592v-936h-72v936h-565v-936h-72v936h-231v63h231v254q0 190 107 299t283 109t331 -133q105 133 305 133q147 0 275 -88v65h72v-1431q0 -71 44 -117q44 -45 117 -45q67 0 117 37zM868 999v254
q0 128 50 220q-138 122 -297 122q-147 0 -232 -91q-86 -92 -86 -251v-254h565zM1532 999v492q-123 104 -275 104q-146 0 -231 -91q-86 -92 -86 -251v-254h592z" />
    <glyph glyph-name="f_f_j.ss13" horiz-adv-x="1822" 
d="M1626 999v-1572h-72v1509h-614v-936h-72v936h-565v-936h-72v936h-231v63h231v254q0 190 107 299t283 109t331 -133q105 133 305 133q179 0 340 -139l-36 -56q-139 129 -304 129q-146 0 -231 -91q-86 -92 -86 -251v-254h686zM868 999v254q0 128 50 220q-138 122 -297 122
q-147 0 -232 -91q-86 -92 -86 -251v-254h565z" />
    <glyph glyph-name="f_j.ss13" horiz-adv-x="1185" 
d="M987 999v-1572h-72v1509h-612v-936h-72v936h-231v63h231v254q0 190 107 299t283 109q180 0 337 -139l-34 -56q-141 129 -303 129q-147 0 -232 -91q-86 -92 -86 -251v-254h684z" />
    <glyph glyph-name="zero.osf" horiz-adv-x="1480" 
d="M741 1235q270 0 452 -182q183 -183 183 -449q0 -264 -183 -445q-184 -182 -452 -182q-267 0 -451 182t-184 445q0 265 184 449q182 182 451 182zM741 47q235 0 398 161q161 160 161 396q0 239 -161 401t-398 162q-238 0 -399 -162q-162 -163 -162 -401q0 -236 162 -396
q163 -161 399 -161z" />
    <glyph glyph-name="one.osf" horiz-adv-x="1224" 
d="M1161 68v-68h-954v68h455v1050l-381 -145v69l438 172h16v-1146h426z" />
    <glyph glyph-name="two.osf" horiz-adv-x="1163" 
d="M1061 68v-68h-969v31l51 37l408 288q192 133 258 201q117 121 117 266q0 154 -102 251q-101 97 -263 97q-179 0 -289 -101q-111 -102 -112 -269l-72 10q6 190 136 307t333 117q199 0 319 -114q119 -113 119 -298q0 -111 -57 -206q-57 -94 -130 -155q-77 -64 -212 -157
l-342 -237h807z" />
    <glyph glyph-name="three.osf" horiz-adv-x="1331" 
d="M610 614h101q221 0 361 -133t140 -344q0 -219 -151 -361q-152 -143 -389 -143t-388 145q-152 145 -153 382l74 14q0 -215 131 -344q130 -129 338 -129q206 0 337 124q132 124 132 312q0 180 -122 296t-314 116h-220l-8 22l596 576h-872v67h999v-28z" />
    <glyph glyph-name="four.osf" horiz-adv-x="1536" 
d="M1507 0h-360v-319h-74v319h-999v43l1028 1171h45v-1146h360v-68zM1073 68v1009l-880 -1009h880z" />
    <glyph glyph-name="five.osf" horiz-adv-x="1314" 
d="M303 616h402q219 0 361 -134q140 -133 140 -345q0 -219 -151 -361q-152 -143 -389 -143t-388 145q-152 145 -153 382l74 14q0 -215 130 -344q131 -129 339 -129q206 0 337 124q132 124 132 312q0 181 -123 296q-124 116 -314 116h-479l111 665h833v-67h-770z" />
    <glyph glyph-name="six.osf" horiz-adv-x="1394" 
d="M696 1061q243 0 403 -153q161 -153 161 -386q0 -235 -161 -390t-403 -155q-240 0 -400 156q-161 156 -161 389q0 212 137 363l539 671h90l-432 -538q104 43 227 43zM696 47q209 0 350 135q140 134 140 340t-140 339q-142 134 -350 134t-348 -134q-139 -133 -139 -339
q0 -205 139 -340q140 -135 348 -135z" />
    <glyph glyph-name="seven.osf" horiz-adv-x="1171" 
d="M1137 1214v-28l-727 -1528h-91l719 1489h-975v67h1074z" />
    <glyph glyph-name="eight.osf" horiz-adv-x="1259" 
d="M782 803q184 -39 270 -151q85 -110 85 -253q0 -190 -140 -306t-366 -116q-227 0 -368 117q-140 116 -140 307q0 141 86 251t268 149q-154 35 -226 140q-73 106 -73 235q0 177 131 290t320 113q190 0 321 -113t131 -288q0 -131 -71 -236q-72 -106 -228 -139zM250 1178
q-5 -145 97 -239q103 -95 284 -95q179 0 279 95t100 235q0 152 -111 243q-112 92 -268 92t-267 -90q-113 -91 -114 -241zM631 49q190 0 308 97t118 255q0 156 -116 258q-117 103 -310 103q-191 0 -310 -102q-118 -102 -118 -259q0 -158 118 -255t310 -97z" />
    <glyph glyph-name="nine.osf" horiz-adv-x="1361" 
d="M1260 692q0 -210 -138 -362l-538 -672h-90l430 537q-106 -41 -226 -41q-243 0 -402 152q-161 153 -161 386q0 235 161 390t402 155t401 -156q161 -156 161 -389zM209 692q0 -206 140 -339q142 -134 349 -134q209 0 349 134q139 133 139 339q0 205 -139 340t-349 135
q-208 0 -349 -135q-140 -134 -140 -340z" />
    <glyph glyph-name="zero.tf" horiz-adv-x="1372" 
d="M686 1579q283 0 457 -222t174 -581q0 -357 -173 -578t-458 -221t-458 221t-173 578q0 359 174 581t457 222zM686 47q250 0 404 202q153 201 153 527q0 331 -153 532t-404 201q-250 0 -403 -201q-154 -202 -154 -532q0 -325 154 -527t403 -202z" />
    <glyph glyph-name="one.tf" horiz-adv-x="1372" 
d="M1204 68v-68h-1036v68h500v1392l-449 -176v72l506 200h16v-1488h463z" />
    <glyph glyph-name="two.tf" horiz-adv-x="1372" 
d="M1206 68v-68h-1005v35l544 530q101 95 149 146t102 123q56 74 76 138q22 69 22 146q0 178 -114 286q-113 107 -292 107q-191 0 -307 -122q-118 -124 -119 -318l-74 12q6 221 144 359q137 137 356 137q210 0 344 -126q133 -126 133 -335q0 -93 -23 -165q-23 -73 -84 -155
q-58 -79 -109 -131q-89 -92 -152 -153l-463 -446h872z" />
    <glyph glyph-name="three.tf" horiz-adv-x="1372" 
d="M666 956h100q221 0 361 -133q141 -134 141 -344q0 -219 -153 -361q-154 -143 -390 -143q-235 0 -386 145q-152 145 -153 382l74 14q0 -215 130 -344t339 -129q204 0 335 124q132 125 132 312q0 180 -122 296t-314 116h-219l-6 22l595 576h-874v67h1001v-28z" />
    <glyph glyph-name="four.tf" horiz-adv-x="1372" 
d="M1329 328h-272v-328h-74v328h-926v39l959 1189h41v-1161h272v-67zM983 395v1010l-813 -1010h813z" />
    <glyph glyph-name="five.tf" horiz-adv-x="1372" 
d="M319 958h402q219 0 361 -134q141 -134 141 -345q0 -218 -152 -361t-389 -143t-388 145q-152 145 -153 382l74 14q0 -215 130 -344q131 -129 339 -129q206 0 337 124q132 125 132 312q0 181 -123 296q-124 116 -313 116h-479l110 665h834v-67h-770z" />
    <glyph glyph-name="six.tf" horiz-adv-x="1372" 
d="M684 1061q242 0 402 -153q161 -153 161 -386q0 -235 -161 -390t-402 -155q-239 0 -400 156t-161 389q0 212 137 363l539 671h90l-430 -536q108 41 225 41zM684 47q208 0 349 135t141 340q0 206 -141 339q-142 134 -349 134q-205 0 -347 -134q-140 -133 -140 -339
t140 -340q141 -135 347 -135z" />
    <glyph glyph-name="seven.tf" horiz-adv-x="1372" 
d="M1266 1556v-40l-858 -1516h-84l843 1489h-1001v67h1100z" />
    <glyph glyph-name="eight.tf" horiz-adv-x="1372" 
d="M840 803q182 -39 269 -151q85 -110 85 -253q0 -191 -139 -306q-140 -116 -367 -116q-226 0 -367 117t-141 307q0 141 86 251t269 149q-155 35 -227 140t-72 235q0 177 131 290t319 113q191 0 322 -113t131 -288q0 -130 -72 -236t-227 -139zM307 1178q-5 -145 97 -239
q103 -95 284 -95q180 0 280 95q99 95 99 235q0 152 -111 243q-112 92 -268 92t-267 -90q-113 -91 -114 -241zM688 49q190 0 308 97t118 255q0 156 -116 258q-117 103 -310 103q-192 0 -310 -102t-118 -259q0 -158 118 -255t310 -97z" />
    <glyph glyph-name="nine.tf" horiz-adv-x="1372" 
d="M1249 1034q0 -211 -137 -362l-539 -672h-90l428 537q-106 -41 -223 -41q-243 0 -402 152q-161 153 -161 386q0 235 161 390t402 155t401 -156t160 -389zM199 1034q0 -206 140 -339q142 -134 349 -134q205 0 347 134q141 133 141 339q0 205 -141 340t-347 135
q-208 0 -349 -135q-140 -134 -140 -340z" />
    <glyph glyph-name="zero.zero.tf" horiz-adv-x="1372" 
d="M680 1579q283 0 457 -222t174 -581q0 -358 -174 -578q-174 -221 -457 -221q-285 0 -459 221q-174 220 -174 578q0 359 174 581t459 222zM680 1509q-252 0 -405 -201q-152 -200 -152 -532q0 -289 121 -479l790 1067q-145 145 -354 145zM680 47q248 0 402 202
q153 201 153 527q0 337 -160 539l-794 -1073q151 -195 399 -195z" />
    <glyph glyph-name="zero.zero" horiz-adv-x="1812" 
d="M907 1579q322 0 545 -233t223 -570q0 -336 -222 -567q-223 -232 -546 -232q-322 0 -548 232q-224 230 -224 567t224 570t548 233zM211 776q0 -306 203 -520l886 1126q-175 127 -393 127q-293 0 -494 -213q-202 -214 -202 -520zM907 47q293 0 494 211q201 212 201 518
q0 170 -68 318t-184 249l-891 -1130q191 -166 448 -166z" />
    <glyph glyph-name="zero.zero.osf" horiz-adv-x="1488" 
d="M741 1235q270 0 452 -182q183 -183 183 -449q0 -264 -183 -445q-184 -182 -452 -182q-267 0 -451 182t-184 445q0 265 184 449q182 182 451 182zM180 604q0 -245 174 -407l693 882q-136 88 -306 88q-238 0 -399 -162q-162 -163 -162 -401zM741 47q235 0 398 161
q161 160 161 396q0 273 -200 436l-697 -884q153 -109 338 -109z" />
    <glyph glyph-name="zero.dnom" horiz-adv-x="925" 
d="M463 743q161 0 271 -106q112 -107 112 -275q0 -167 -112 -274q-110 -106 -271 -106q-160 0 -270 106q-111 107 -111 274q0 168 111 275q110 106 270 106zM463 37q131 0 225 90t94 235q0 144 -94 235t-225 91q-130 0 -222 -91q-94 -92 -94 -235q0 -144 93 -235
q92 -90 223 -90z" />
    <glyph glyph-name="one.dnom" horiz-adv-x="419" 
d="M283 0h-62v662l-192 -76v57l239 98h15v-741z" />
    <glyph glyph-name="two.dnom" horiz-adv-x="688" 
d="M590 53v-53h-502v18l246 234q86 83 108 107q31 34 54 76q24 43 24 89q0 76 -48 124t-126 48q-84 0 -139 -54t-55 -142l-58 10q0 107 71 173q72 67 181 67q104 0 168 -62t64 -162q0 -79 -46 -140q-50 -66 -161 -169l-172 -164h391z" />
    <glyph glyph-name="three.dnom" horiz-adv-x="671" 
d="M344 442h14q112 0 180 -61t68 -162q0 -106 -74 -172q-72 -65 -194 -65q-104 0 -179 60t-87 155l57 14q11 -81 70 -128q60 -48 139 -48q93 0 152 50t59 134q0 76 -53 123t-142 47h-106l-4 17l243 272h-387l2 55h492v-14z" />
    <glyph glyph-name="four.dnom" horiz-adv-x="722" 
d="M682 170h-135v-170h-58v170h-430v31l459 538h29v-516h135v-53zM489 223v402l-339 -402h339z" />
    <glyph glyph-name="five.dnom" horiz-adv-x="655" 
d="M195 442h157q110 0 175 -61q67 -62 67 -162q0 -106 -72 -172q-71 -65 -188 -65q-102 0 -176 60t-86 155l57 8q11 -77 69 -123q59 -47 136 -47q88 0 146 50q57 49 57 134q0 76 -54 124q-52 46 -139 46h-211l53 344h385v-55h-338z" />
    <glyph glyph-name="six.dnom" horiz-adv-x="653" 
d="M328 500q114 0 191 -74t77 -186q0 -113 -77 -187q-76 -73 -191 -73q-116 0 -192 73q-77 74 -77 187q0 97 62 170l252 317h69l-184 -235q32 8 70 8zM328 35q88 0 149 57q62 57 62 148t-61 149q-60 57 -150 57t-152 -57q-61 -57 -61 -149q0 -91 61 -148q62 -57 152 -57z
" />
    <glyph glyph-name="seven.dnom" horiz-adv-x="546" 
d="M526 739v-14l-358 -725h-70l346 684h-430v55h512z" />
    <glyph glyph-name="eight.dnom" horiz-adv-x="626" 
d="M395 381q82 -18 127 -72q43 -52 43 -123q0 -90 -69 -147t-183 -57q-113 0 -182 57q-70 58 -70 147q0 74 45 126t130 69q-150 37 -150 172q0 85 66 137q67 53 163 53q98 0 162 -53t64 -135q0 -65 -39 -112q-38 -45 -107 -62zM143 551q0 -61 50 -100q49 -39 122 -39
q77 0 120 37q44 38 48 100q1 67 -45 106t-123 39q-72 0 -122 -41t-50 -102zM313 35q85 0 137 42t52 116q0 67 -49 110t-138 43t-139 -43q-51 -43 -51 -113q0 -69 52 -112t136 -43z" />
    <glyph glyph-name="nine.dnom" horiz-adv-x="653" 
d="M596 487q0 -103 -70 -178l-243 -309h-72l184 238q-32 -9 -67 -9q-115 0 -193 73q-76 72 -76 185t77 187t192 74q114 0 191 -74t77 -187zM115 487q0 -90 61 -148t152 -58q88 0 149 58q62 59 62 148q0 91 -62 148t-149 57q-90 0 -152 -57q-61 -57 -61 -148z" />
    <glyph glyph-name="zero.numr" horiz-adv-x="925" 
d="M463 1577q159 0 271 -107t112 -274t-112 -274t-271 -107q-158 0 -270 107q-111 106 -111 274t111 274q112 107 270 107zM463 870q129 0 225 91q94 90 94 235q0 144 -94 235t-225 91q-130 0 -222 -91q-94 -92 -94 -235q0 -144 93 -235t223 -91z" />
    <glyph glyph-name="one.numr" horiz-adv-x="419" 
d="M283 815h-62v662l-192 -76v57l239 98h15v-741z" />
    <glyph glyph-name="two.numr" horiz-adv-x="688" 
d="M590 881v-54h-502v19l246 233q80 77 108 108q31 34 54 76q24 43 24 89q0 76 -48 124t-126 48q-82 0 -139 -55q-55 -54 -55 -142l-58 10q0 107 71 173q72 67 181 67q106 0 168 -61q64 -62 64 -162q0 -80 -46 -141q-50 -66 -161 -169l-172 -163h391z" />
    <glyph glyph-name="three.numr" horiz-adv-x="671" 
d="M344 1266h14q110 0 180 -62q68 -61 68 -162q0 -106 -74 -172q-72 -65 -194 -65q-104 0 -179 60t-87 155l57 14q11 -81 70 -128q60 -48 139 -48q93 0 152 50t59 134q0 76 -53 123t-142 47h-106l-4 17l243 272h-387l2 55h492v-14z" />
    <glyph glyph-name="four.numr" horiz-adv-x="722" 
d="M682 987h-135v-170h-58v170h-430v31l459 538h29v-516h135v-53zM489 1040v402l-339 -402h339z" />
    <glyph glyph-name="five.numr" horiz-adv-x="655" 
d="M195 1266h157q108 0 175 -62t67 -162q0 -106 -72 -172q-71 -65 -188 -65q-102 0 -176 60t-86 155l57 8q11 -76 69 -123q59 -47 136 -47q88 0 146 50q57 50 57 134q0 76 -54 124q-52 46 -139 46h-211l53 344h385v-55h-338z" />
    <glyph glyph-name="six.numr" horiz-adv-x="653" 
d="M328 1329q114 0 191 -74t77 -186t-77 -186t-191 -74q-115 0 -192 74t-77 186q0 97 62 170l252 317h69l-184 -235q32 8 70 8zM328 864q86 0 149 58q62 57 62 147q0 92 -61 150q-60 57 -150 57t-152 -57q-61 -57 -61 -150q0 -90 61 -147q63 -58 152 -58z" />
    <glyph glyph-name="seven.numr" horiz-adv-x="546" 
d="M526 1556v-14l-358 -725h-70l346 684h-430v55h512z" />
    <glyph glyph-name="eight.numr" horiz-adv-x="626" 
d="M395 1214q83 -18 127 -71q43 -52 43 -123q0 -91 -69 -148t-183 -57q-113 0 -182 57q-70 58 -70 148q0 74 45 126q44 51 130 68q-150 38 -150 172q0 86 66 138q67 53 163 53q98 0 162 -53t64 -135q0 -65 -39 -112q-39 -46 -107 -63zM143 1384q0 -61 50 -100
q49 -39 122 -39q77 0 120 37q44 38 48 100q2 68 -45 107q-46 39 -123 39q-72 0 -122 -41t-50 -103zM313 868q85 0 137 42t52 116q0 68 -49 111t-138 43t-139 -43q-51 -43 -51 -113t52 -113t136 -43z" />
    <glyph glyph-name="nine.numr" horiz-adv-x="653" 
d="M596 1317q0 -103 -70 -178l-243 -310h-72l184 238q-29 -8 -67 -8q-115 0 -193 73q-76 72 -76 185q0 112 77 186t192 74q114 0 191 -74t77 -186zM115 1317q0 -91 61 -149t152 -58q88 0 149 58q62 59 62 149t-62 147q-63 58 -149 58q-89 0 -152 -58q-61 -57 -61 -147z" />
    <glyph glyph-name="backslash.case" horiz-adv-x="677" 
d="M614 0h-67l-486 1556h70z" />
    <glyph glyph-name="periodcentered.case" horiz-adv-x="366" 
d="M182 827q26 0 46 -18t20 -45q0 -25 -19 -44q-18 -18 -47 -18q-28 0 -46 18q-17 17 -17 44t18 45t45 18z" />
    <glyph glyph-name="bullet.case" horiz-adv-x="776" 
d="M387 1044q116 0 194 -77t78 -185q0 -111 -77 -184q-79 -74 -195 -74q-114 0 -191 74t-77 184q0 107 78 185q77 77 190 77z" />
    <glyph glyph-name="colon.case" horiz-adv-x="366" 
d="M182 1190q25 0 46 -19q20 -18 20 -43q0 -26 -19 -45q-18 -18 -47 -18q-27 0 -45 18t-18 45q0 25 18 43q19 19 45 19zM182 461q25 0 46 -19q20 -18 20 -43q0 -26 -19 -45q-18 -18 -47 -18q-27 0 -45 18t-18 45q0 25 18 43q19 19 45 19z" />
    <glyph glyph-name="exclamdown.case" horiz-adv-x="522" 
d="M260 1436q-27 0 -45 18t-18 45q0 26 18 44t45 18q29 0 47 -18q19 -19 19 -44q0 -27 -20 -45q-19 -18 -46 -18zM225 1135h74v-1135h-74v1135z" />
    <glyph glyph-name="questiondown.case" horiz-adv-x="1050" 
d="M545 1440q-27 0 -46 18q-20 18 -20 45q0 25 19 44q18 18 47 18q27 0 45 -18t18 -44q0 -27 -18 -45t-45 -18zM903 432l72 -10q-2 -198 -126 -319t-327 -121q-198 0 -320 114t-122 301q0 176 122 290q121 113 306 124v328h72v-389h-39q-163 0 -278 -100q-113 -98 -113 -253
q0 -158 102 -254t270 -96q170 0 274 107q102 105 107 278z" />
    <glyph glyph-name="semicolon.case" horiz-adv-x="413" 
d="M231 1190q26 0 45 -19t19 -43q0 -26 -19 -45q-18 -18 -45 -18q-29 0 -47 18t-18 45q0 25 19 43q21 19 46 19zM100 -270h-61l143 530h90v-4z" />
    <glyph glyph-name="slash.case" horiz-adv-x="729" 
d="M131 0h-74l539 1556h74z" />
    <glyph glyph-name="braceleft.case" horiz-adv-x="888" 
d="M432 1268v-238q0 -196 -141 -262q141 -66 141 -264v-213q0 -100 51 -163q50 -62 135 -62h134v-66h-140q-115 0 -184 80q-70 81 -70 211v209q0 104 -53 168q-52 62 -141 67l-33 2v64l33 2q88 1 141 63t53 166v236q0 129 70 210q68 78 184 78h140v-65h-134q-84 0 -135 -61
q-51 -62 -51 -162z" />
    <glyph glyph-name="braceright.case" horiz-adv-x="888" 
d="M758 801v-64l-33 -2q-88 -4 -142 -67q-55 -64 -55 -168v-209q0 -133 -68 -211q-69 -80 -184 -80h-141v66h135q86 0 136 62q51 63 51 163v213q0 198 141 264q-141 66 -141 262v238q0 100 -51 162q-51 61 -136 61h-135v65h141q116 0 184 -78t68 -210v-236q0 -103 55 -166
q54 -62 142 -63z" />
    <glyph glyph-name="bracketleft.case" horiz-adv-x="780" 
d="M279 1491v-1425h364v-66h-436v1556h436v-65h-364z" />
    <glyph glyph-name="bracketright.case" horiz-adv-x="780" 
d="M573 1556v-1556h-438v66h367v1425h-367v65h438z" />
    <glyph glyph-name="parenleft.case" horiz-adv-x="653" 
d="M475 1577l41 -43q-305 -316 -305 -758q0 -440 305 -756l-41 -43q-340 331 -340 799q0 470 340 801z" />
    <glyph glyph-name="parenright.case" horiz-adv-x="653" 
d="M135 1534l41 43q340 -330 340 -801q0 -469 -340 -799l-41 43q305 316 305 756q0 442 -305 758z" />
    <glyph glyph-name="emdash.case" horiz-adv-x="2560" 
d="M2437 739h-2314v62h2314v-62z" />
    <glyph glyph-name="endash.case" horiz-adv-x="1269" 
d="M1147 739h-1024v62h1024v-62z" />
    <glyph glyph-name="hyphen.case" horiz-adv-x="899" 
d="M776 737h-653v66h653v-66z" />
    <glyph glyph-name="guillemotleft.case" horiz-adv-x="759" 
d="M51 782l266 365h78l-266 -365l266 -364h-78zM367 782l266 365h78l-267 -365l267 -364h-78z" />
    <glyph glyph-name="guillemotright.case" horiz-adv-x="759" 
d="M51 418l266 364l-266 365h80l264 -365l-264 -364h-80zM365 418l266 364l-266 365h79l265 -365l-265 -364h-79z" />
    <glyph glyph-name="guilsinglleft.case" horiz-adv-x="446" 
d="M51 782l266 365h78l-266 -365l266 -364h-78z" />
    <glyph glyph-name="guilsinglright.case" horiz-adv-x="446" 
d="M51 418l266 364l-266 365h78l266 -365l-266 -364h-78z" />
    <glyph glyph-name="cent.tf" horiz-adv-x="1372" 
d="M692 47q149 0 259 79q113 81 153 212l65 -23q-40 -143 -159 -233q-119 -91 -281 -98v-250h-72v248q-212 15 -349 159q-138 146 -138 361q0 212 138 358q138 145 349 160v270h72v-272q160 -8 279 -98q117 -89 161 -232l-67 -22q-40 130 -152 210q-109 78 -258 78
q-194 0 -322 -128t-128 -324t128 -326q127 -129 322 -129z" />
    <glyph glyph-name="dollar.tf" horiz-adv-x="1372" 
d="M1214 389q0 -174 -128 -288q-127 -114 -338 -124v-296h-80v294q-222 10 -373 136q-150 124 -172 325l80 19q17 -189 157 -300q142 -112 353 -112q191 0 309 95q117 95 117 251q0 217 -271 303l-348 109q-166 52 -256 134q-88 81 -88 232q0 179 123 290q124 112 328 122
v252h78v-254q196 -10 323 -121q128 -111 162 -289l-74 -18q-33 172 -153 265q-122 95 -301 95q-183 0 -294 -93q-112 -94 -112 -249q0 -130 76 -193q77 -63 223 -108l334 -102q325 -100 325 -375z" />
    <glyph glyph-name="Euro.tf" horiz-adv-x="1372" 
d="M748 47q176 0 303 124t178 343l71 -16q-51 -238 -198 -379q-148 -142 -354 -142q-222 0 -373 156q-152 157 -197 424h-141v61h131q-8 72 -8 158q0 72 6 135h-129v64h137q40 275 195 441q153 163 379 163q208 0 354 -143q147 -144 198 -381l-71 -19q-49 218 -177 346
q-127 127 -304 127q-196 0 -327 -143q-133 -145 -173 -391h643l-19 -64h-632q-7 -73 -7 -135q0 -72 11 -158h553l-15 -61h-530q44 -238 174 -374t322 -136z" />
    <glyph glyph-name="florin.tf" horiz-adv-x="1372" 
d="M1038 1513q-116 0 -193 -72q-77 -73 -100 -196l-96 -524h434v-68h-446l-139 -757q-21 -108 -92 -170q-73 -64 -173 -64q-81 0 -139 47l33 58q43 -37 109 -37q72 0 125 45q52 45 67 121l137 757h-272v68h285l96 524q29 155 127 244q99 90 246 90q131 0 219 -84l-37 -55
q-77 73 -191 73z" />
    <glyph glyph-name="sterling.tf" horiz-adv-x="1372" 
d="M1288 68v-68h-1222v47l198 19v589h-198v68h198v367q0 217 139 353t365 136q222 0 362 -134q141 -134 142 -345l-72 -15q-2 193 -121 308q-119 114 -311 114q-191 0 -310 -115q-120 -116 -120 -302v-367h672v-68h-672v-587h950z" />
    <glyph glyph-name="yen.tf" horiz-adv-x="1372" 
d="M754 672h430v-62h-461v-217h461v-61h-461v-332h-74v332h-461v61h461v217h-461v62h430l-569 884h84l553 -870l551 870h86z" />
    <glyph glyph-name="approxequal.tf" horiz-adv-x="1372" 
d="M1122 850v-74q-89 -49 -196 -49q-99 0 -231 65q-129 64 -222 64q-142 0 -221 -76v70q81 70 221 70q95 0 228 -65q131 -64 225 -64q119 0 196 59zM1122 508v-74q-89 -49 -196 -49q-99 0 -231 65q-129 64 -222 64q-142 0 -221 -76v70q81 70 221 70q95 0 228 -65
q131 -64 225 -64q119 0 196 59z" />
    <glyph glyph-name="divide.tf" horiz-adv-x="1372" 
d="M686 1059q25 0 46 -19q20 -18 20 -43q0 -26 -19 -45q-18 -18 -47 -18t-47 18t-18 45q0 25 19 43q21 19 46 19zM1122 592h-870v65h870v-65zM686 311q27 0 46 -19q20 -20 20 -44q0 -26 -19 -45t-47 -19t-47 19q-18 18 -18 45q0 25 19 44t46 19z" />
    <glyph glyph-name="equal.tf" horiz-adv-x="1372" 
d="M1122 801h-870v65h870v-65zM1122 428h-870v66h870v-66z" />
    <glyph glyph-name="greater.tf" horiz-adv-x="1372" 
d="M981 631l-635 305v78l731 -355v-57l-731 -354v78z" />
    <glyph glyph-name="greaterequal.tf" horiz-adv-x="1372" 
d="M952 684l-606 246v76l709 -295v-54l-709 -295v74zM1049 193h-703v63h703v-63z" />
    <glyph glyph-name="less.tf" horiz-adv-x="1372" 
d="M993 248l-731 354v57l731 355v-78l-635 -305l635 -305v-78z" />
    <glyph glyph-name="lessequal.tf" horiz-adv-x="1372" 
d="M1008 362l-709 295v54l709 295v-76l-607 -246l607 -248v-74zM1008 256v-63h-703v63h703z" />
    <glyph glyph-name="minus.tf" horiz-adv-x="1372" 
d="M1122 592h-870v65h870v-65z" />
    <glyph glyph-name="multiply.tf" horiz-adv-x="1372" 
d="M739 625l299 -299l-49 -50l-299 299l-301 -299l-47 50l299 299l-299 299l47 49l301 -299l299 299l49 -49z" />
    <glyph glyph-name="notequal.tf" horiz-adv-x="1372" 
d="M825 801l-198 -307h495v-66h-538l-142 -215h-77l141 215h-254v66h297l199 307h-496v65h539l141 215h78l-142 -215h254v-65h-297z" />
    <glyph glyph-name="plus.tf" horiz-adv-x="1372" 
d="M1122 592h-403v-404h-66v404h-401v65h401v404h66v-404h403v-65z" />
    <glyph glyph-name="plusminus.tf" horiz-adv-x="1372" 
d="M1122 723v-64h-403v-378h-66v378h-401v64h401v383h66v-383h403zM252 66h870v-66h-870v66z" />
    <glyph glyph-name="bar.case" horiz-adv-x="483" 
d="M279 0h-72v1556h72v-1556z" />
    <glyph glyph-name="at.case" horiz-adv-x="2170" 
d="M1090 1702q392 0 658 -255q265 -255 265 -646q0 -136 -32 -250q-32 -115 -110 -191q-78 -77 -196 -77q-115 0 -183 62q-69 63 -69 167v25q-53 -112 -155 -175t-228 -63q-188 0 -317 131t-129 338q0 209 129 341t317 132q126 0 228 -63q103 -63 155 -174v213h60v-707
q0 -77 53 -127q52 -49 137 -49q137 0 208 137t71 330q0 371 -247 608q-249 238 -615 238q-376 0 -624 -247q-249 -248 -249 -618q0 -371 244 -621q243 -249 594 -249q133 0 283 39q153 40 251 104l31 -51q-104 -68 -262 -109q-156 -40 -301 -40q-376 0 -639 263
q-262 262 -262 662t266 661t668 261zM1047 354q160 0 268 116t108 300t-108 297t-268 113q-165 0 -276 -113q-112 -114 -112 -297q0 -184 113 -300t275 -116z" />
    <glyph glyph-name="caron.alt" horiz-adv-x="1228" 
d="M625 1018h-58v313h74z" />
    </font>
</defs>
</svg>
