<?xml version="1.0" standalone="no"?>
<!DOCTYPE svg PUBLIC "-//W3C//DTD SVG 1.1//EN" "http://www.w3.org/Graphics/SVG/1.1/DTD/svg11.dtd" >
<svg xmlns="http://www.w3.org/2000/svg" xmlns:xlink="http://www.w3.org/1999/xlink" version="1.1">
<metadata>
Created by FontForge 20170731 at Thu Jan 13 15:26:18 2022
 By Aleksey,,,
Copyright (c) 2014 by Rene' Bieder. All rights reserved.
</metadata>
<defs>
<font id="GalanoClassic-Bold" horiz-adv-x="1372" >
  <font-face 
    font-family="GalanoClassic-Bold"
    font-weight="400"
    font-stretch="normal"
    units-per-em="2048"
    panose-1="0 0 8 0 0 0 0 0 0 0"
    ascent="1483"
    descent="-565"
    x-height="1028"
    cap-height="1556"
    bbox="-354 -635 6035 2142"
    underline-thickness="102"
    underline-position="-204"
    unicode-range="U+0020-FB02"
  />
<missing-glyph horiz-adv-x="1740" 
d="M870 1573q328 0 561 -228q232 -228 232 -571q0 -340 -232 -566t-561 -226q-330 0 -562 226t-232 566q0 343 232 571t562 228zM870 1456q-278 0 -472 -194q-195 -195 -195 -486q0 -290 195 -485t472 -195t472 195q196 196 196 485q0 290 -196 486q-194 194 -472 194z
M1180 926q0 -94 -65 -159q-64 -64 -173 -81v-72h-174v201h92q61 0 99 29t38 78q0 52 -34 83t-93 31q-62 0 -99 -36q-39 -37 -46 -97l-180 33q12 111 102 188q89 76 230 76q135 0 219 -78t84 -196zM852 539q46 0 76 -32q30 -31 30 -73q0 -46 -30 -76t-76 -30t-76 30
q-31 31 -31 76q0 40 31 73q30 32 76 32z" />
    <glyph glyph-name="fi" unicode="fi" horiz-adv-x="1316" 
d="M1208 1028v-1028h-327v768h-377v-768h-326v768h-178v260h178v150q0 220 148 356q147 135 385 135q195 0 385 -133l-129 -246q-118 99 -244 99q-96 0 -158 -62q-61 -61 -61 -160v-139h704z" />
    <glyph glyph-name="fl" unicode="fl" horiz-adv-x="1349" 
d="M1219 1638v-1638h-326v768h-389v-768h-326v768h-178v260h178v150q0 220 148 356q147 135 385 135q95 0 190 -31h318zM893 1028v313q-82 48 -170 48q-96 0 -158 -62q-61 -61 -61 -160v-139h389z" />
    <glyph glyph-name="f_f" unicode="ff" horiz-adv-x="1554" 
d="M1561 768h-342v-768h-328v768h-387v-768h-326v768h-178v260h178v150q0 220 148 356q147 135 385 135q165 0 323 -94q110 94 279 94q125 0 219 -63l-88 -238q-47 21 -94 21q-60 0 -96 -39q-35 -38 -35 -103v-219h342v-260zM891 1028v219q0 49 8 92q-86 50 -176 50
q-96 0 -158 -62q-61 -61 -61 -160v-139h387z" />
    <glyph glyph-name="f_f_i" unicode="ffi" horiz-adv-x="2023" 
d="M1915 1028v-1028h-328v768h-377v-768h-325v768h-381v-768h-326v768h-178v260h178v150q0 220 148 356q147 135 385 135q181 0 352 -110q138 110 354 110q195 0 385 -133l-129 -246q-119 99 -243 99q-99 0 -159 -62q-61 -63 -61 -160v-139h705zM885 1028v150q0 83 22 155
q-89 56 -184 56q-96 0 -158 -62q-61 -61 -61 -160v-139h381z" />
    <glyph glyph-name="f_f_l" unicode="ffl" horiz-adv-x="2062" 
d="M1933 1638v-1638h-327v768h-387v-768h-328v768h-387v-768h-326v768h-178v260h178v150q0 220 148 356q147 135 385 135q179 0 354 -113q146 113 358 113q96 0 191 -31h319zM891 1028v150q0 79 20 153q-90 58 -188 58q-96 0 -158 -62q-61 -61 -61 -160v-139h387zM1606 1028
v315q-80 46 -168 46q-99 0 -159 -62q-60 -61 -60 -160v-139h387z" />
    <glyph glyph-name=".notdef" horiz-adv-x="1740" 
d="M870 1573q328 0 561 -228q232 -228 232 -571q0 -340 -232 -566t-561 -226q-330 0 -562 226t-232 566q0 343 232 571t562 228zM870 1456q-278 0 -472 -194q-195 -195 -195 -486q0 -290 195 -485t472 -195t472 195q196 196 196 485q0 290 -196 486q-194 194 -472 194z
M1180 926q0 -94 -65 -159q-64 -64 -173 -81v-72h-174v201h92q61 0 99 29t38 78q0 52 -34 83t-93 31q-62 0 -99 -36q-39 -37 -46 -97l-180 33q12 111 102 188q89 76 230 76q135 0 219 -78t84 -196zM852 539q46 0 76 -32q30 -31 30 -73q0 -46 -30 -76t-76 -30t-76 30
q-31 31 -31 76q0 40 31 73q30 32 76 32z" />
    <glyph glyph-name=".null" horiz-adv-x="0" 
 />
    <glyph glyph-name="nonmarkingreturn" horiz-adv-x="681" 
 />
    <glyph glyph-name="space" unicode=" " horiz-adv-x="475" 
 />
    <glyph glyph-name="exclam" unicode="!" horiz-adv-x="608" 
d="M487 1556v-69l-20 -961h-324l-20 961v69h364zM309 352q80 0 133 -53q54 -54 54 -129q0 -78 -53 -129t-134 -51q-83 0 -135 51q-53 51 -53 129q0 76 53 129t135 53z" />
    <glyph glyph-name="quotedbl" unicode="&#x22;" horiz-adv-x="917" 
d="M96 911v645h310v-645h-310zM512 911v645h309v-645h-309z" />
    <glyph glyph-name="numbersign" unicode="#" horiz-adv-x="1456" 
d="M1151 920l-68 -314h213l-69 -254h-199l-78 -352h-270l78 352h-240l-76 -352h-270l76 352h-211l67 254h199l68 314h-211l65 251h201l84 385h270l-84 -385h240l84 385h270l-84 -385h211l-69 -251h-197zM881 920h-240l-68 -314h238z" />
    <glyph glyph-name="dollar" unicode="$" horiz-adv-x="1390" 
d="M1309 453q0 -188 -116 -309q-114 -119 -304 -158v-305h-314v299q-201 30 -338 149t-161 307l352 72q50 -246 303 -246q110 0 169 46q61 47 61 126q0 60 -36 97q-37 39 -116 61l-299 82q-178 51 -286 150q-107 98 -107 284q0 187 112 308t306 159v256h313v-258
q175 -34 292 -147q116 -111 150 -283l-336 -70q-21 114 -95 170q-75 57 -175 57q-86 0 -147 -44q-60 -44 -60 -123q0 -109 131 -148l330 -98q183 -55 277 -158t94 -276z" />
    <glyph glyph-name="percent" unicode="%" horiz-adv-x="1771" 
d="M438 1587q146 0 252 -95q105 -94 105 -249q0 -153 -105 -247q-106 -95 -252 -95q-148 0 -254 95q-104 94 -104 247q0 155 104 249q106 95 254 95zM289 0l991 1556h193l-994 -1556h-190zM438 1384q-56 0 -96 -37q-41 -38 -41 -102q0 -63 41 -102q40 -39 96 -39q54 0 94 39
q41 39 41 102q0 64 -41 102q-40 37 -94 37zM1335 655q146 0 252 -95q105 -95 105 -249q0 -151 -105 -246q-107 -96 -252 -96q-147 0 -254 96q-104 94 -104 246q0 155 104 249q106 95 254 95zM1335 453q-55 0 -96 -38t-41 -102q0 -63 41 -102t96 -39t95 39t40 102
q0 65 -40 102q-41 38 -95 38z" />
    <glyph glyph-name="ampersand" unicode="&#x26;" horiz-adv-x="1558" 
d="M1341 -57l-202 180q-193 -154 -463 -154q-266 0 -430 131t-164 349q0 258 266 399q-112 146 -112 311q0 190 137 309t350 119q217 0 342 -117q125 -118 152 -313l-302 -55q-21 221 -192 221q-78 0 -126 -45t-48 -125q0 -73 44 -141q41 -63 159 -172l323 -285
q23 80 23 170v98h297v-98q0 -216 -80 -381l217 -190zM688 233q128 0 234 82l-392 344q-127 -78 -127 -198q0 -102 78 -165t207 -63z" />
    <glyph glyph-name="quotesingle" unicode="'" horiz-adv-x="499" 
d="M96 911v645h310v-645h-310z" />
    <glyph glyph-name="parenleft" unicode="(" horiz-adv-x="778" 
d="M418 768q0 -221 68 -394q69 -174 221 -360l-232 -202q-403 421 -403 956q0 533 403 958l225 -204q-148 -186 -215 -360t-67 -394z" />
    <glyph glyph-name="parenright" unicode=")" horiz-adv-x="778" 
d="M78 1522l223 204q406 -426 406 -958q0 -533 -406 -956l-229 202q150 184 220 362q68 173 68 392q0 220 -67 394t-215 360z" />
    <glyph glyph-name="asterisk" unicode="*" horiz-adv-x="909" 
d="M633 1180l207 -121l-90 -158l-199 115v-217h-201v217l-198 -115l-91 158l207 121l-207 118l91 158l198 -115v215h201v-215l199 115l90 -158z" />
    <glyph glyph-name="plus" unicode="+" horiz-adv-x="1173" 
d="M1071 487h-350v-356h-268v356h-351v269h351v356h268v-356h350v-269z" />
    <glyph glyph-name="comma" unicode="," horiz-adv-x="540" 
d="M254 -270h-248l121 589h362v-8z" />
    <glyph glyph-name="hyphen" unicode="-" horiz-adv-x="923" 
d="M801 399h-678v277h678v-277z" />
    <glyph glyph-name="period" unicode="." horiz-adv-x="503" 
d="M252 358q80 0 134 -54t54 -130q0 -78 -53 -131t-135 -53q-81 0 -133 52q-53 53 -53 132q0 75 53 130q53 54 133 54z" />
    <glyph glyph-name="slash" unicode="/" horiz-adv-x="890" 
d="M860 1700l-590 -1866h-239l590 1866h239z" />
    <glyph glyph-name="zero" unicode="0" horiz-adv-x="1744" 
d="M872 1587q337 0 569 -236t232 -577q0 -338 -232 -571q-233 -234 -569 -234q-335 0 -568 234q-232 233 -232 571q0 341 232 577t568 236zM872 276q196 0 330 143q133 142 133 355q0 217 -133 360q-134 144 -330 144t-329 -144q-133 -143 -133 -360q0 -213 133 -355
q134 -143 329 -143z" />
    <glyph glyph-name="one" unicode="1" horiz-adv-x="919" 
d="M745 1556v-1556h-335v1151l-363 -113v308l639 210h59z" />
    <glyph glyph-name="two" unicode="2" horiz-adv-x="1284" 
d="M1188 301v-301h-1131v109l588 645q96 106 138 177t42 156q0 95 -58 152q-59 57 -153 57q-111 0 -178 -73q-69 -75 -76 -199l-315 59q12 231 171 367q160 137 402 137q247 0 396 -136t149 -361q0 -80 -16 -141q-17 -63 -60 -132q-52 -82 -81 -117q-51 -61 -121 -141
l-226 -258h529z" />
    <glyph glyph-name="three" unicode="3" horiz-adv-x="1292" 
d="M1219 1454l-398 -483q190 -33 295 -154t105 -311q0 -238 -163 -388q-165 -151 -417 -151q-243 0 -416 143q-172 142 -178 390l328 63q2 -147 83 -224q82 -77 191 -77q104 0 179 66t75 172q0 101 -68 162t-180 61h-331l-19 51l383 483h-551l4 299h1078v-102z" />
    <glyph glyph-name="four" unicode="4" horiz-adv-x="1509" 
d="M1503 260h-291v-260h-323v260h-869v178l986 1118h206v-1015h291v-281zM889 541v471l-404 -471h404z" />
    <glyph glyph-name="five" unicode="5" horiz-adv-x="1302" 
d="M471 1004h225q250 0 395 -136q144 -135 144 -364q0 -237 -163 -387q-164 -150 -417 -150q-242 0 -415 143t-179 390l326 63q1 -147 83 -225q81 -78 192 -78q103 0 179 67q74 65 74 173q0 101 -67 162t-180 61h-549l127 833h932v-301h-666z" />
    <glyph glyph-name="six" unicode="6" horiz-adv-x="1343" 
d="M1049 1556l-320 -456q230 -18 387 -175q156 -156 156 -390q0 -248 -174 -407t-424 -159q-252 0 -427 159t-175 407q0 197 118 348l476 673h383zM674 262q108 0 191 77t83 196q0 120 -83 198t-191 78q-113 0 -196 -78t-83 -198t83 -197q82 -76 196 -76z" />
    <glyph glyph-name="seven" unicode="7" horiz-adv-x="1275" 
d="M1221 1556v-94l-656 -1462h-381l576 1255h-692v301h1153z" />
    <glyph glyph-name="eight" unicode="8" horiz-adv-x="1349" 
d="M1010 797q111 -49 174 -149q63 -99 63 -228q0 -196 -160 -324q-158 -127 -411 -127t-413 127q-161 128 -161 324q0 127 65 227q64 99 173 150q-188 106 -188 336q0 197 152 325q153 129 372 129t372 -129q152 -128 152 -325q0 -230 -190 -336zM674 1313q-86 0 -148 -52
q-63 -53 -63 -141q0 -89 61 -141q62 -53 148 -53q87 0 152 53t65 141t-65 141q-64 52 -150 52zM672 252q94 0 162 56q69 57 69 149q0 91 -69 147q-68 55 -162 55q-92 0 -157 -55q-66 -56 -66 -147q0 -95 65 -150t158 -55z" />
    <glyph glyph-name="nine" unicode="9" horiz-adv-x="1368" 
d="M1272 1022q0 -196 -119 -348l-475 -674h-383l319 457q-230 18 -387 175q-155 155 -155 390q0 247 174 406t424 159q252 0 427 -159t175 -406zM395 1022q0 -121 83 -199t192 -78q112 0 195 78t83 199q0 120 -83 197q-81 75 -195 75q-110 0 -192 -76q-83 -77 -83 -196z" />
    <glyph glyph-name="colon" unicode=":" horiz-adv-x="503" 
d="M252 1016q80 0 134 -54t54 -131q0 -78 -53 -131t-135 -53q-80 0 -133 53t-53 131q0 76 53 131q53 54 133 54zM252 358q80 0 134 -54t54 -130q0 -78 -53 -131t-135 -53q-81 0 -133 52q-53 53 -53 132q0 75 53 130q53 54 133 54z" />
    <glyph glyph-name="semicolon" unicode=";" horiz-adv-x="573" 
d="M322 1016q80 0 133 -54q53 -55 53 -131q0 -78 -53 -131t-133 -53q-84 0 -136 52q-53 53 -53 132q0 76 53 131q52 54 136 54zM254 -270h-248l121 589h362v-8z" />
    <glyph glyph-name="less" unicode="&#x3c;" horiz-adv-x="956" 
d="M879 221l-813 289v317l813 293v-315l-467 -133l467 -140v-311z" />
    <glyph glyph-name="equal" unicode="=" horiz-adv-x="1173" 
d="M1071 719h-969v260h969v-260zM1071 313h-969v260h969v-260z" />
    <glyph glyph-name="greater" unicode="&#x3e;" horiz-adv-x="956" 
d="M549 672l-467 133v315l813 -293v-317l-813 -289v311z" />
    <glyph glyph-name="question" unicode="?" horiz-adv-x="1112" 
d="M573 1587q223 0 362 -125q138 -124 138 -323q0 -166 -99 -271t-272 -135v-207h-311v435h164q86 0 140 48q55 49 55 124q0 70 -52 119q-51 48 -129 48q-79 0 -131 -47q-50 -45 -65 -131l-318 64q21 174 160 288q138 113 358 113zM543 352q80 0 133 -53t53 -129
q0 -78 -52 -129q-53 -51 -134 -51q-83 0 -135 51q-54 52 -54 129q0 75 54 129q53 53 135 53z" />
    <glyph glyph-name="at" unicode="@" horiz-adv-x="2076" 
d="M1487 1087v-653q0 -53 35 -85t86 -32q92 0 142 116q50 117 50 269q0 318 -215 518q-214 199 -530 199q-334 0 -556 -223q-223 -225 -223 -561q0 -334 220 -556q219 -220 542 -220q300 0 539 184l92 -147q-257 -207 -627 -207q-402 0 -674 266t-272 676q0 411 275 684
q273 272 684 272q386 0 656 -249q269 -248 269 -627q0 -103 -21 -196q-20 -91 -68 -178q-46 -85 -133 -136t-202 -51q-204 0 -270 149q-110 -143 -313 -143q-191 0 -317 131t-126 344q0 217 127 347t316 130q174 0 287 -119v98h227zM1026 371q96 0 165 72t69 190
q0 117 -69 187q-69 71 -165 71t-164 -70q-67 -68 -67 -188q0 -119 68 -190q69 -72 163 -72z" />
    <glyph glyph-name="A" unicode="A" horiz-adv-x="1691" 
d="M1692 0h-369l-119 264h-717l-118 -264h-369l733 1556h225zM1075 555l-227 510l-230 -510h457z" />
    <glyph glyph-name="B" unicode="B" horiz-adv-x="1515" 
d="M1204 862q242 -122 242 -399q0 -210 -148 -337q-147 -126 -397 -126h-772v1556h731q221 0 347 -110q128 -111 128 -297q0 -185 -131 -287zM467 1270v-318h358q77 0 126 44q48 44 48 120q0 70 -48 112t-126 42h-358zM467 287h397q117 0 183 54q65 53 65 151q0 94 -66 151
t-182 57h-397v-413z" />
    <glyph glyph-name="C" unicode="C" horiz-adv-x="1722" 
d="M883 274q165 0 285 99t159 278l324 -80q-62 -277 -273 -440q-212 -164 -495 -164q-342 0 -577 235q-234 234 -234 574q0 343 234 577t577 234q281 0 493 -162q212 -163 275 -430l-324 -94q-39 180 -160 279q-120 98 -284 98q-201 0 -337 -144q-136 -143 -136 -358
q0 -214 136 -357q137 -145 337 -145z" />
    <glyph glyph-name="D" unicode="D" horiz-adv-x="1693" 
d="M129 1556h666q373 0 600 -214t227 -564t-227 -564t-600 -214h-666v1556zM467 295h334q219 0 351 133q132 134 132 350q0 217 -132 350q-132 134 -351 134h-334v-967z" />
    <glyph glyph-name="E" unicode="E" horiz-adv-x="1366" 
d="M1272 295v-295h-1143v1556h1133v-296h-795v-338h743v-283h-743v-344h805z" />
    <glyph glyph-name="F" unicode="F" horiz-adv-x="1302" 
d="M467 1262v-349h743v-292h-743v-621h-338v1556h1128v-294h-790z" />
    <glyph glyph-name="G" unicode="G" horiz-adv-x="1753" 
d="M766 899h907q8 -70 8 -125q0 -350 -222 -578q-223 -229 -568 -229q-346 0 -583 234q-236 233 -236 575q0 343 235 577t578 234q261 0 466 -128q203 -127 281 -353l-325 -94q-123 266 -422 266q-201 0 -337 -144q-136 -143 -136 -358q0 -214 139 -357q140 -145 346 -145
q169 0 287 92q117 91 157 246h-575v287z" />
    <glyph glyph-name="H" unicode="H" horiz-adv-x="1626" 
d="M1497 1556v-1556h-336v635h-694v-635h-338v1556h338v-626h694v626h336z" />
    <glyph glyph-name="I" unicode="I" horiz-adv-x="595" 
d="M467 0h-338v1556h338v-1556z" />
    <glyph glyph-name="J" unicode="J" horiz-adv-x="1390" 
d="M1268 1556v-993q0 -264 -172 -430t-451 -166q-254 0 -419 142q-162 140 -197 376l327 68q16 -132 90 -209q73 -76 199 -76q127 0 206 82t79 213v993h338z" />
    <glyph glyph-name="K" unicode="K" horiz-adv-x="1531" 
d="M1094 0l-627 672v-672h-338v1556h338v-698l623 698h419l-698 -778l727 -778h-444z" />
    <glyph glyph-name="L" unicode="L" horiz-adv-x="1306" 
d="M1239 295v-295h-1110v1556h338v-1261h772z" />
    <glyph glyph-name="M" unicode="M" horiz-adv-x="1916" 
d="M1788 1556v-1556h-328v956l-436 -499h-129l-438 499v-956h-328v1556h215l614 -704l615 704h215z" />
    <glyph glyph-name="N" unicode="N" horiz-adv-x="1734" 
d="M1604 1556v-1556h-211l-926 950v-950h-338v1556h213l926 -972v972h336z" />
    <glyph glyph-name="O" unicode="O" horiz-adv-x="1779" 
d="M889 1587q343 0 580 -236q239 -237 239 -577q0 -337 -239 -571t-580 -234q-343 0 -580 234t-237 571q0 340 237 577q236 236 580 236zM889 276q203 0 341 143t138 355q0 216 -138 360t-341 144t-341 -144t-138 -360q0 -212 138 -355t341 -143z" />
    <glyph glyph-name="P" unicode="P" horiz-adv-x="1339" 
d="M129 1556h631q246 0 391 -129t145 -335q0 -209 -145 -338t-391 -129h-293v-625h-338v1556zM467 913h276q103 0 163 51q59 50 59 128q0 77 -59 127q-58 49 -163 49h-276v-355z" />
    <glyph glyph-name="Q" unicode="Q" horiz-adv-x="1779" 
d="M1499 -438l-336 452q-135 -45 -274 -45q-343 0 -580 234t-237 571q0 340 237 577q236 236 580 236q343 0 580 -236q239 -237 239 -577q0 -358 -266 -598l463 -614h-406zM410 774q0 -212 138 -355t341 -143t341 143t138 355q0 216 -138 360t-341 144t-341 -144t-138 -360z
" />
    <glyph glyph-name="R" unicode="R" horiz-adv-x="1597" 
d="M1647 0h-414l-557 625h-209v-625h-338v1556h631q246 0 391 -129t145 -335q0 -140 -67 -247t-193 -165zM467 913h276q103 0 163 51q59 50 59 128q0 77 -59 127q-58 49 -163 49h-276v-355z" />
    <glyph glyph-name="S" unicode="S" horiz-adv-x="1390" 
d="M686 1587q242 0 401 -117q160 -118 203 -327l-336 -70q-21 114 -95 170q-75 57 -175 57q-86 0 -147 -44q-60 -44 -60 -123q0 -109 131 -148l330 -98q183 -55 277 -158t94 -276q0 -232 -170 -358q-169 -126 -426 -126q-251 0 -430 123q-178 123 -207 344l352 72
q50 -246 303 -246q110 0 169 46q61 47 61 126q0 60 -36 97q-37 39 -116 61l-299 82q-178 51 -286 150q-107 98 -107 284q0 224 156 351q157 128 413 128z" />
    <glyph glyph-name="T" unicode="T" horiz-adv-x="1353" 
d="M1313 1262h-467v-1262h-338v1262h-467v294h1272v-294z" />
    <glyph glyph-name="U" unicode="U" horiz-adv-x="1630" 
d="M1507 1556v-860q0 -330 -189 -529q-189 -200 -499 -200q-317 0 -510 199q-192 198 -192 530v860h336v-854q0 -193 100 -305t266 -112q158 0 254 112t96 305v854h338z" />
    <glyph glyph-name="V" unicode="V" horiz-adv-x="1679" 
d="M1665 1556l-711 -1556h-231l-709 1556h373l453 -1003l452 1003h373z" />
    <glyph glyph-name="W" unicode="W" horiz-adv-x="2271" 
d="M2257 1556l-506 -1556h-270l-344 928l-346 -928h-271l-506 1556h353l303 -933l356 933h217l359 -933l301 933h354z" />
    <glyph glyph-name="X" unicode="X" horiz-adv-x="1583" 
d="M1169 0l-376 537l-379 -537h-400l549 780l-538 776h399l369 -530l366 530h400l-541 -776l551 -780h-400z" />
    <glyph glyph-name="Y" unicode="Y" horiz-adv-x="1624" 
d="M977 492v-492h-344v487l-619 1069h369l426 -725l424 725h377z" />
    <glyph glyph-name="Z" unicode="Z" horiz-adv-x="1449" 
d="M1374 285v-285h-1290v106l793 1166h-771v284h1250v-106l-766 -1165h784z" />
    <glyph glyph-name="bracketleft" unicode="[" horiz-adv-x="849" 
d="M434 1432v-1352h340v-268h-645v1888h645v-268h-340z" />
    <glyph glyph-name="backslash" unicode="\" horiz-adv-x="890" 
d="M860 -166h-239l-590 1866h239z" />
    <glyph glyph-name="bracketright" unicode="]" horiz-adv-x="839" 
d="M711 1700v-1888h-645v268h340v1352h-340v268h645z" />
    <glyph glyph-name="asciicircum" unicode="^" horiz-adv-x="950" 
d="M313 1047h-278l319 509h242l319 -509h-278l-162 258z" />
    <glyph glyph-name="underscore" unicode="_" horiz-adv-x="1105" 
d="M1065 -358h-1024v243h1024v-243z" />
    <glyph glyph-name="grave" unicode="`" horiz-adv-x="1228" 
d="M655 1473l146 -312h-291l-244 312h389z" />
    <glyph glyph-name="a" unicode="a" horiz-adv-x="1193" 
d="M1151 270l23 -235q-92 -53 -185 -53q-170 0 -233 124q-128 -137 -342 -137q-165 0 -266 88t-101 230q0 308 424 338l252 20v12q0 67 -40 107q-41 41 -110 41q-128 0 -155 -133l-303 63q35 154 156 239t309 85q209 0 334 -107q124 -106 124 -301v-327q0 -58 37 -58
q10 0 17 1q4 1 13 1.5t14 0.5q12 1 32 1zM514 215q89 0 150 53q59 52 59 138v43l-199 -23q-137 -15 -137 -113q0 -46 35 -72t92 -26z" />
    <glyph glyph-name="b" unicode="b" horiz-adv-x="1329" 
d="M776 1059q208 0 356 -154q146 -152 146 -391q0 -240 -146 -392q-147 -153 -356 -153q-194 0 -319 113v-82h-328v1638h328v-692q125 113 319 113zM709 248q109 0 178 74t69 192q0 117 -69 192q-68 74 -178 74q-104 0 -178 -75t-74 -191q0 -117 74 -191q75 -75 178 -75z
" />
    <glyph glyph-name="c" unicode="c" horiz-adv-x="1193" 
d="M850 436l301 -65q-39 -180 -187 -291t-346 -111q-237 0 -402 153t-165 392q0 238 165 391q166 154 402 154q192 0 340 -109t191 -286l-305 -74q-23 92 -83 139q-61 47 -143 47q-110 0 -181 -75q-70 -74 -70 -187q0 -115 70 -188q71 -74 181 -74q177 0 232 184z" />
    <glyph glyph-name="d" unicode="d" horiz-adv-x="1329" 
d="M1200 1638v-1638h-328v82q-125 -113 -319 -113q-208 0 -355 153t-147 392q0 238 147 391q148 154 355 154q194 0 319 -113v692h328zM621 248q102 0 177 75q74 74 74 191q0 116 -74 191t-177 75q-111 0 -179 -74q-69 -75 -69 -192q0 -118 69 -192t179 -74z" />
    <glyph glyph-name="e" unicode="e" horiz-adv-x="1177" 
d="M1126 514v-84h-753q22 -94 80 -145q62 -54 141 -54q153 0 219 119l291 -59q-67 -160 -198 -241q-132 -81 -312 -81q-227 0 -385 153t-158 392q0 238 158 391q159 154 387 154q224 0 375 -150q151 -149 155 -395zM596 793q-72 0 -133 -43q-62 -44 -84 -119h424
q-23 81 -78 121q-56 41 -129 41z" />
    <glyph glyph-name="f" unicode="f" horiz-adv-x="839" 
d="M848 768h-344v-768h-326v768h-178v260h178v219q0 188 117 305t303 117q122 0 221 -63l-90 -238q-44 21 -94 21q-59 0 -95 -39t-36 -103v-219h344v-260z" />
    <glyph glyph-name="g" unicode="g" horiz-adv-x="1267" 
d="M1257 768h-178q21 -72 21 -135q0 -182 -136 -300t-341 -118q-138 0 -252 57q-25 -23 -25 -53q0 -36 32 -59t83 -23h334q198 0 312 -96t114 -268q0 -186 -149 -297q-148 -111 -408 -111h-138q-229 0 -359 100t-130 261q0 160 123 256q-99 83 -99 208q0 156 136 242
q-54 91 -54 201q0 185 136 306q135 120 344 120q100 0 188 -31h446v-260zM623 467q77 0 129 49q53 50 53 121t-53 121q-52 49 -129 49q-78 0 -130 -49q-53 -50 -53 -121t53 -121q52 -49 130 -49zM778 -119h-268q-70 0 -108 -33q-37 -33 -37 -90q0 -131 178 -131h139
q102 0 155 40q54 41 54 104q0 48 -31 79t-82 31z" />
    <glyph glyph-name="h" unicode="h" horiz-adv-x="1275" 
d="M774 1059q179 0 288 -118t109 -310v-631h-325v561q0 91 -49 147t-129 56q-98 0 -155 -72q-56 -71 -56 -215v-477h-328v1638h328v-708q125 129 317 129z" />
    <glyph glyph-name="i" unicode="i" horiz-adv-x="598" 
d="M299 1544q82 0 136 -54t54 -130q0 -78 -54 -131q-55 -53 -136 -53q-83 0 -135 52q-53 53 -53 132q0 75 53 130q52 54 135 54zM463 0h-328v1028h328v-1028z" />
    <glyph glyph-name="j" unicode="j" horiz-adv-x="620" 
d="M322 1544q82 0 136 -54t54 -130q0 -78 -54 -131q-55 -53 -136 -53q-84 0 -136 52q-53 53 -53 132q0 75 53 130q52 54 136 54zM-55 -551l49 258q51 -16 82 -16q39 0 62 22q24 23 24 60v1255h325v-1292q0 -149 -89 -240q-88 -90 -238 -90q-110 0 -215 43z" />
    <glyph glyph-name="k" unicode="k" horiz-adv-x="1249" 
d="M825 0l-368 377v-377h-328v1638h328v-999l356 389h406l-463 -514l495 -514h-426z" />
    <glyph glyph-name="l" unicode="l" horiz-adv-x="585" 
d="M457 0h-328v1638h328v-1638z" />
    <glyph glyph-name="m" unicode="m" horiz-adv-x="1947" 
d="M1450 1059q168 0 281 -116q112 -115 112 -300v-643h-325v573q0 86 -50 139q-49 52 -122 52q-92 0 -147 -67q-54 -66 -54 -193v-504h-328v573q0 87 -49 139t-125 52q-91 0 -144 -67t-53 -193v-504h-327v1028h327v-94q113 125 304 125q227 0 335 -174q133 174 365 174z" />
    <glyph glyph-name="n" unicode="n" horiz-adv-x="1275" 
d="M772 1059q181 0 290 -118t109 -310v-631h-325v561q0 91 -49 147t-127 56q-100 0 -157 -71q-56 -69 -56 -216v-477h-328v1028h328v-98q123 129 315 129z" />
    <glyph glyph-name="o" unicode="o" horiz-adv-x="1249" 
d="M627 1059q236 0 404 -154q167 -153 167 -391q0 -239 -166 -392t-405 -153q-243 0 -409 153q-167 153 -167 392q0 238 167 391q168 154 409 154zM627 248q105 0 181 74q75 74 75 192q0 117 -75 192q-74 74 -181 74q-112 0 -186 -74t-74 -192q0 -119 74 -192
q76 -74 186 -74z" />
    <glyph glyph-name="p" unicode="p" horiz-adv-x="1329" 
d="M776 1059q208 0 356 -154q146 -152 146 -391q0 -240 -146 -392q-147 -153 -356 -153q-194 0 -319 113v-655h-328v1601h328v-82q125 113 319 113zM709 248q109 0 178 74t69 192q0 117 -69 192q-68 74 -178 74q-104 0 -178 -75t-74 -191q0 -117 74 -191q75 -75 178 -75z
" />
    <glyph glyph-name="q" unicode="q" horiz-adv-x="1329" 
d="M1200 1028v-1601h-328v655q-125 -113 -319 -113q-208 0 -355 153t-147 392q0 238 147 391q148 154 355 154q194 0 319 -113v82h328zM621 248q102 0 177 75q74 74 74 191q0 116 -74 191t-177 75q-111 0 -179 -74q-69 -75 -69 -192q0 -118 69 -192t179 -74z" />
    <glyph glyph-name="r" unicode="r" horiz-adv-x="905" 
d="M811 1042q39 0 74 -8l-15 -327h-59q-354 0 -354 -385v-322h-328v1028h328v-178q127 192 354 192z" />
    <glyph glyph-name="s" unicode="s" horiz-adv-x="989" 
d="M49 268l320 66q21 -125 149 -125q56 0 83 24q28 25 28 62q0 56 -74 74l-205 47q-278 63 -278 299q0 155 114 250q113 94 306 94q177 0 294 -81q118 -81 146 -214l-301 -59q-6 53 -43 90q-36 36 -99 36q-47 0 -72 -21q-26 -21 -26 -54q0 -59 86 -82l203 -49
q266 -68 266 -310q0 -166 -122 -256t-322 -90q-175 0 -303 74q-127 73 -150 225z" />
    <glyph glyph-name="t" unicode="t" horiz-adv-x="886" 
d="M518 768v-377q0 -59 31 -95q30 -34 86 -34q76 0 149 41l76 -258q-140 -76 -280 -76q-182 0 -286 104t-104 285v410h-194v260h194v350l328 97v-447h365v-260h-365z" />
    <glyph glyph-name="u" unicode="u" horiz-adv-x="1275" 
d="M1147 1028v-1028h-328v98q-123 -129 -315 -129q-181 0 -290 118q-110 119 -110 310v631h326v-561q0 -90 49 -146q49 -57 127 -57q100 0 157 71q56 69 56 216v477h328z" />
    <glyph glyph-name="v" unicode="v" horiz-adv-x="1208" 
d="M1194 1030l-471 -1030h-238l-471 1030h344l246 -571l246 571h344z" />
    <glyph glyph-name="w" unicode="w" horiz-adv-x="1703" 
d="M1690 1028l-390 -1030h-245l-203 530l-203 -530h-246l-389 1030h336l189 -557l204 557h218l204 -557l189 557h336z" />
    <glyph glyph-name="x" unicode="x" horiz-adv-x="1263" 
d="M866 498l353 -498h-375l-213 303l-211 -303h-375l352 498l-352 530h375l211 -326l213 326h375z" />
    <glyph glyph-name="y" unicode="y" horiz-adv-x="1236" 
d="M1223 1028l-701 -1601h-346l266 610l-428 991h346l250 -608l267 608h346z" />
    <glyph glyph-name="z" unicode="z" horiz-adv-x="1054" 
d="M1001 920l-462 -660h454v-260h-917v102l461 666h-451v260h915v-108z" />
    <glyph glyph-name="braceleft" unicode="{" horiz-adv-x="862" 
d="M539 1350v-351q0 -183 -127 -243q127 -63 127 -246v-344q0 -86 84 -86h163v-268h-231q-152 0 -236 80q-86 81 -86 217v358q0 111 -122 145l-70 21v244l70 20q122 34 122 145v359q0 134 86 217q85 82 236 82h231v-268h-165q-82 0 -82 -82z" />
    <glyph glyph-name="bar" unicode="|" horiz-adv-x="563" 
d="M434 -166h-305v1866h305v-1866z" />
    <glyph glyph-name="braceright" unicode="}" horiz-adv-x="862" 
d="M821 877v-244l-69 -21q-125 -35 -125 -145v-358q0 -136 -85 -217q-84 -80 -235 -80h-231v268h164q84 0 84 86v344q0 182 125 244q-125 63 -125 245v351q0 82 -82 82h-166v268h231q150 0 235 -82t85 -217v-359q0 -110 125 -145z" />
    <glyph glyph-name="asciitilde" unicode="~" horiz-adv-x="1038" 
d="M328 465h-240q0 180 83 261t185 81q84 0 165 -42t110 -42q33 0 52 22q19 21 17 58h252q0 -181 -87 -264q-86 -82 -193 -82q-84 0 -163 40t-106 40q-71 0 -75 -72z" />
    <glyph glyph-name="exclamdown" unicode="&#xa1;" horiz-adv-x="608" 
d="M309 694q-81 0 -135 54q-53 53 -53 129q0 78 53 129q52 51 135 51q81 0 134 -51t53 -129q0 -75 -54 -129t-133 -54zM123 -440l20 960h324l20 -960v-70h-364v70z" />
    <glyph glyph-name="cent" unicode="&#xa2;" horiz-adv-x="1202" 
d="M850 436l301 -65q-33 -144 -134 -245q-100 -100 -245 -138v-248h-313v250q-181 47 -294 187q-114 141 -114 337q0 195 114 336q115 142 294 188v252h313v-252q143 -38 243 -135q101 -98 134 -239l-305 -74q-23 92 -83 139q-61 47 -143 47q-110 0 -181 -75
q-70 -74 -70 -187q0 -115 70 -188q71 -74 181 -74q177 0 232 184z" />
    <glyph glyph-name="sterling" unicode="&#xa3;" horiz-adv-x="1406" 
d="M1352 293v-293h-1276v211l176 49v301h-176v283h176v215q0 237 150 383q149 145 399 145q238 0 384 -142q147 -142 163 -376l-316 -59q-21 270 -231 270q-99 0 -159 -60t-60 -161v-215h428v-283h-428v-268h770z" />
    <glyph glyph-name="yen" unicode="&#xa5;" horiz-adv-x="1531" 
d="M1034 756h293v-213h-399v-119h399v-215h-399v-209h-338v209h-383v215h383v119h-383v213h278l-450 800h358l367 -677l362 677h375z" />
    <glyph glyph-name="section" unicode="&#xa7;" horiz-adv-x="1249" 
d="M1194 580q0 -218 -190 -324q65 -84 65 -209q0 -180 -130 -277q-131 -98 -333 -98q-233 0 -364 113q-132 113 -136 301l275 51q15 -223 211 -223q75 0 121 40q47 41 47 101q0 91 -123 142l-305 122q-152 60 -221 146q-70 87 -70 213q0 211 192 319q-67 88 -67 209
q0 184 129 283q128 98 334 98q221 0 349 -111t138 -294l-280 -52q-4 106 -57 159q-52 52 -136 52q-76 0 -121 -38q-47 -39 -47 -105q0 -88 123 -139l305 -123q152 -57 221 -143q70 -87 70 -213zM772 422l33 -14q100 57 100 141q0 49 -29 82q-30 35 -102 69l-311 136l-35 16
q-98 -55 -98 -143q0 -50 28 -84q29 -35 103 -70z" />
    <glyph glyph-name="dieresis" unicode="&#xa8;" horiz-adv-x="1228" 
d="M369 1497q78 0 131 -53t53 -127q0 -79 -52 -128q-53 -50 -132 -50t-131 50t-52 128q0 74 53 127t130 53zM860 1497q78 0 131 -53t53 -127q0 -79 -52 -128q-53 -50 -132 -50t-131 50q-51 49 -51 128q0 75 52 127q53 53 130 53z" />
    <glyph glyph-name="copyright" unicode="&#xa9;" horiz-adv-x="1710" 
d="M856 1587q330 0 563 -232q234 -233 234 -583q0 -347 -233 -575q-232 -228 -564 -228q-330 0 -565 229q-234 228 -234 574q0 350 234 583q233 232 565 232zM856 1468q-279 0 -473 -197q-195 -198 -195 -497q0 -294 195 -489t473 -195t472 195q194 196 194 489
q0 299 -195 497q-194 197 -471 197zM868 1210q168 0 281 -92q112 -91 127 -231l-199 -39q-17 79 -75 122q-59 44 -136 44q-95 0 -159 -67t-64 -173q0 -103 64 -172q63 -67 159 -67q79 0 140 47q59 46 71 131l201 -35q-15 -151 -127 -245q-113 -95 -283 -95q-180 0 -308 122
t-128 314q0 193 128 315q127 121 308 121z" />
    <glyph glyph-name="ordfeminine" unicode="&#xaa;" horiz-adv-x="892" 
d="M864 985l19 -184q-73 -41 -144 -41q-127 0 -178 90q-83 -92 -242 -92q-129 0 -207 65q-79 66 -79 170q0 223 334 256l163 17v6q0 48 -29 77t-79 29q-98 0 -127 -96l-225 47q30 116 118 175q90 61 222 61q169 0 267 -79q99 -80 99 -235v-223q0 -47 29 -47q8 0 13 1
q3 1 10 1.5t11 0.5q9 1 25 1zM385 930q69 0 107 37t38 96v53l-137 -14q-112 -15 -112 -88q0 -40 28 -62t76 -22z" />
    <glyph glyph-name="guillemotleft" unicode="&#xab;" horiz-adv-x="1034" 
d="M51 537l215 364h307l-215 -364l215 -365h-307zM461 537l215 364h307l-215 -364l215 -365h-307z" />
    <glyph glyph-name="registered" unicode="&#xae;" horiz-adv-x="997" 
d="M498 1587q172 0 290 -117q119 -117 119 -294q0 -176 -119 -293q-118 -117 -290 -117t-291 117t-119 293q0 177 119 294t291 117zM498 852q135 0 228 93t93 231t-93 233q-93 94 -228 94q-134 0 -227 -94q-93 -95 -93 -233t94 -231q95 -93 226 -93zM678 1249
q0 -90 -86 -123l104 -125h-110l-94 115h-52v-115h-94v373h180q70 0 111 -35t41 -90zM440 1196h84q64 0 64 51q0 47 -64 47h-84v-98z" />
    <glyph glyph-name="macron" unicode="&#xaf;" horiz-adv-x="1228" 
d="M954 1167h-680v254h680v-254z" />
    <glyph glyph-name="degree" unicode="&#xb0;" horiz-adv-x="876" 
d="M440 1587q134 0 228 -87t94 -226q0 -137 -94 -224t-228 -87q-136 0 -230 87q-95 87 -95 224q0 139 95 226q94 87 230 87zM440 1147q46 0 84 35q37 34 37 94q0 58 -37 92q-38 35 -84 35q-50 0 -88 -35q-37 -34 -37 -92q0 -60 37 -94q38 -35 88 -35z" />
    <glyph glyph-name="plusminus" unicode="&#xb1;" horiz-adv-x="1173" 
d="M1071 952v-266h-350v-289h-268v289h-351v266h351v328h268v-328h350zM102 266h969v-266h-969v266z" />
    <glyph glyph-name="twosuperior" unicode="&#xb2;" horiz-adv-x="731" 
d="M446 1167h211v-190h-602v45l283 319q23 27 56 66q18 21 34 51q18 33 18 58q0 36 -23 56q-24 21 -63 21q-44 0 -70 -33q-29 -36 -30 -96l-199 41q0 124 82 200q83 77 217 77q136 0 219 -71t83 -195q0 -52 -30 -110q-32 -62 -53 -87q-24 -29 -90 -102z" />
    <glyph glyph-name="threesuperior" unicode="&#xb3;" horiz-adv-x="704" 
d="M662 1683l-160 -221q81 -28 125 -89q45 -63 45 -150q0 -125 -86 -202t-226 -77q-132 0 -221 71q-88 70 -100 175l209 37q7 -44 39 -71q31 -26 71 -26q43 0 72 23t29 64q0 39 -27 63q-28 25 -72 25h-157l-8 24l149 225h-268l6 193h580v-64z" />
    <glyph glyph-name="acute" unicode="&#xb4;" horiz-adv-x="1228" 
d="M698 1161h-290l145 312h389z" />
    <glyph glyph-name="paragraph" unicode="&#xb6;" horiz-adv-x="1251" 
d="M799 0h-228v797h-102q-185 0 -307 105q-121 105 -121 282q0 181 107 276q108 96 292 96h359v-1556zM1120 0h-225v1556h225v-1556z" />
    <glyph glyph-name="periodcentered" unicode="&#xb7;" horiz-adv-x="503" 
d="M252 719q80 0 134 -54t54 -130q0 -79 -53 -132t-135 -53q-81 0 -133 52q-53 53 -53 133q0 75 53 130q53 54 133 54z" />
    <glyph glyph-name="cedilla" unicode="&#xb8;" horiz-adv-x="1228" 
d="M575 0h236l-100 -328h-340z" />
    <glyph glyph-name="onesuperior" unicode="&#xb9;" horiz-adv-x="497" 
d="M418 977h-223v487l-179 -61v217l359 141h43v-784z" />
    <glyph glyph-name="ordmasculine" unicode="&#xba;" horiz-adv-x="909" 
d="M455 1565q175 0 296 -112q119 -110 119 -286t-119 -286q-120 -111 -296 -111q-175 0 -296 112q-120 111 -120 285q0 175 121 286q123 112 295 112zM455 971q84 0 140 56t56 140q0 85 -57 142t-139 57q-85 0 -140 -57q-55 -56 -55 -142q0 -84 55 -140t140 -56z" />
    <glyph glyph-name="guillemotright" unicode="&#xbb;" horiz-adv-x="1034" 
d="M51 172l215 365l-215 364h307l215 -364l-215 -365h-307zM461 172l215 365l-215 364h307l215 -364l-215 -365h-307z" />
    <glyph glyph-name="onequarter" unicode="&#xbc;" horiz-adv-x="1454" 
d="M195 1260l-179 -62v217l359 141h43v-784h-223v488zM1298 1556l-991 -1556h-192l993 1556h190zM1421 117h-112v-117h-207v117h-402v114l496 553h113v-491h112v-176zM1102 293v147l-127 -147h127z" />
    <glyph glyph-name="onehalf" unicode="&#xbd;" horiz-adv-x="1523" 
d="M195 1260l-179 -62v217l359 141h43v-784h-223v488zM1278 1556l-991 -1556h-193l993 1556h191zM1241 190h211v-190h-602v45l283 320q42 49 56 65q18 21 34 51q18 33 18 58q0 36 -23 56q-24 21 -63 21q-45 0 -71 -33q-28 -35 -29 -96l-199 41q0 124 82 200q83 77 217 77
q135 0 218 -71t83 -195q0 -51 -30 -110q-32 -62 -53 -87q-39 -46 -89 -102z" />
    <glyph glyph-name="threequarters" unicode="&#xbe;" horiz-adv-x="1601" 
d="M678 1032q0 -125 -86 -202q-85 -76 -225 -76q-134 0 -222 70t-100 175l209 37q7 -43 39 -70q31 -26 72 -26q42 0 71 23t29 63t-27 64t-71 24h-158l-8 25l149 225h-268l6 192h580v-63l-160 -221q81 -28 125 -89q45 -63 45 -151zM1456 1556l-991 -1556h-193l994 1556h190z
M1569 117h-113v-117h-207v117h-401v114l495 553h113v-491h113v-176zM1249 293v147l-127 -147h127z" />
    <glyph glyph-name="questiondown" unicode="&#xbf;" horiz-adv-x="1112" 
d="M586 694q-80 0 -133 55q-54 56 -54 128q0 78 53 129q52 51 134 51t135 -51t53 -129q0 -73 -53 -128t-135 -55zM756 -74l317 -65q-21 -174 -160 -288q-140 -114 -358 -114q-223 0 -361 126q-139 127 -139 325q0 163 100 269t271 136v207h311v-434h-164q-87 0 -140 -49
q-54 -49 -54 -125q0 -70 51 -119q50 -49 129 -49t131 47q51 46 66 133z" />
    <glyph glyph-name="Agrave" unicode="&#xc0;" horiz-adv-x="1691" 
d="M707 1690l-244 311h389l145 -311h-290zM1692 0h-369l-119 264h-717l-118 -264h-369l733 1556h225zM1075 555l-227 510l-230 -510h457z" />
    <glyph glyph-name="Aacute" unicode="&#xc1;" horiz-adv-x="1691" 
d="M995 1690h-290l145 311h389zM1692 0h-369l-119 264h-717l-118 -264h-369l733 1556h225zM1075 555l-227 510l-230 -510h457z" />
    <glyph glyph-name="Acircumflex" unicode="&#xc2;" horiz-adv-x="1691" 
d="M764 1683h-315l235 318h326l237 -318h-317l-82 115zM1692 0h-369l-119 264h-717l-118 -264h-369l733 1556h225zM1075 555l-227 510l-230 -510h457z" />
    <glyph glyph-name="Atilde" unicode="&#xc3;" horiz-adv-x="1691" 
d="M752 1782q-53 0 -64 -68h-199q0 155 70 234q68 77 166 77q73 0 141 -37q70 -38 107 -38q53 0 63 73h199q0 -159 -69 -237t-169 -78q-72 0 -140 37t-105 37zM1692 0h-369l-119 264h-717l-118 -264h-369l733 1556h225zM1075 555l-227 510l-230 -510h457z" />
    <glyph glyph-name="Adieresis" unicode="&#xc4;" horiz-adv-x="1691" 
d="M602 1667q-79 0 -131 50q-51 49 -51 128q0 75 52 127q53 53 130 53q78 0 131 -53t53 -127q0 -79 -52 -128q-53 -50 -132 -50zM1094 1667q-79 0 -131 50t-52 128q0 74 53 127t130 53q78 0 131 -53t53 -127q0 -79 -52 -128q-53 -50 -132 -50zM1692 0h-369l-119 264h-717
l-118 -264h-369l733 1556h225zM1075 555l-227 510l-230 -510h457z" />
    <glyph glyph-name="Aring" unicode="&#xc5;" horiz-adv-x="1691" 
d="M848 1640q-107 0 -183 73q-75 72 -75 177q0 108 75 180t183 72t183 -72t75 -180q0 -105 -75 -177q-76 -73 -183 -73zM848 1972q-37 0 -60 -23q-24 -24 -24 -59q0 -32 24 -56t60 -24q35 0 59 24q25 25 25 56q0 34 -25 59q-23 23 -59 23zM1692 0h-369l-119 264h-717
l-118 -264h-369l733 1556h225zM1075 555l-227 510l-230 -510h457z" />
    <glyph glyph-name="AE" unicode="&#xc6;" horiz-adv-x="2381" 
d="M2298 295v-295h-1143v264h-577l-185 -264h-393l1112 1556h1176v-296h-797v-338h743v-283h-743v-344h807zM1155 555v535l-373 -535h373z" />
    <glyph glyph-name="Ccedilla" unicode="&#xc7;" horiz-adv-x="1722" 
d="M883 274q165 0 285 99t159 278l324 -80q-57 -253 -241 -413t-435 -187l-92 -299h-340l192 308q-288 51 -476 273q-187 221 -187 523q0 343 234 577t577 234q281 0 493 -162q212 -163 275 -430l-324 -94q-39 180 -160 279q-120 98 -284 98q-201 0 -337 -144
q-136 -143 -136 -358q0 -214 136 -357q137 -145 337 -145z" />
    <glyph glyph-name="Egrave" unicode="&#xc8;" horiz-adv-x="1366" 
d="M578 1690l-244 311h389l145 -311h-290zM1272 295v-295h-1143v1556h1133v-296h-795v-338h743v-283h-743v-344h805z" />
    <glyph glyph-name="Eacute" unicode="&#xc9;" horiz-adv-x="1366" 
d="M868 1690h-290l145 311h389zM1272 295v-295h-1143v1556h1133v-296h-795v-338h743v-283h-743v-344h805z" />
    <glyph glyph-name="Ecircumflex" unicode="&#xca;" horiz-adv-x="1366" 
d="M637 1683h-315l235 318h326l237 -318h-317l-82 115zM1272 295v-295h-1143v1556h1133v-296h-795v-338h743v-283h-743v-344h805z" />
    <glyph glyph-name="Edieresis" unicode="&#xcb;" horiz-adv-x="1366" 
d="M473 1667q-79 0 -131 50q-51 49 -51 128q0 75 52 127q53 53 130 53q78 0 131 -53t53 -127q0 -79 -52 -128q-53 -50 -132 -50zM965 1667q-79 0 -131 50t-52 128q0 74 53 127t130 53q78 0 131 -53t53 -127q0 -79 -52 -128q-53 -50 -132 -50zM1272 295v-295h-1143v1556h1133
v-296h-795v-338h743v-283h-743v-344h805z" />
    <glyph glyph-name="Igrave" unicode="&#xcc;" horiz-adv-x="595" 
d="M303 2001l146 -311h-291l-244 311h389zM467 0h-338v1556h338v-1556z" />
    <glyph glyph-name="Iacute" unicode="&#xcd;" horiz-adv-x="595" 
d="M446 1690h-290l145 311h389zM467 0h-338v1556h338v-1556z" />
    <glyph glyph-name="Icircumflex" unicode="&#xce;" horiz-adv-x="595" 
d="M215 1683h-315l235 318h326l237 -318h-317l-82 115zM129 1556h338v-1556h-338v1556z" />
    <glyph glyph-name="Idieresis" unicode="&#xcf;" horiz-adv-x="595" 
d="M53 2025q78 0 131 -53q54 -54 54 -127q0 -78 -53 -128t-132 -50t-131 50q-51 49 -51 128q0 75 52 127q53 53 130 53zM545 2025q78 0 131 -53t53 -127q0 -79 -52 -128q-53 -50 -132 -50t-131 50t-52 128q0 74 53 127t130 53zM467 0h-338v1556h338v-1556z" />
    <glyph glyph-name="Eth" unicode="&#xd0;" horiz-adv-x="1734" 
d="M170 1556h666q373 0 600 -214t227 -564t-227 -564t-600 -214h-666v625h-123v295h123v636zM508 295h334q219 0 351 133q132 134 132 350q0 217 -132 350q-132 134 -351 134h-334v-342h250v-295h-250v-330z" />
    <glyph glyph-name="Ntilde" unicode="&#xd1;" horiz-adv-x="1734" 
d="M756 1782q-53 0 -64 -68h-198q0 156 69 234q68 77 166 77q73 0 141 -37q70 -38 107 -38q53 0 63 73h199q0 -159 -69 -237t-169 -78q-72 0 -140 37t-105 37zM1604 1556v-1556h-211l-926 950v-950h-338v1556h213l926 -972v972h336z" />
    <glyph glyph-name="Ograve" unicode="&#xd2;" horiz-adv-x="1779" 
d="M748 1690l-244 311h389l145 -311h-290zM889 1587q343 0 580 -236q239 -237 239 -577q0 -337 -239 -571t-580 -234q-343 0 -580 234t-237 571q0 340 237 577q236 236 580 236zM889 276q203 0 341 143t138 355q0 216 -138 360t-341 144t-341 -144t-138 -360
q0 -212 138 -355t341 -143z" />
    <glyph glyph-name="Oacute" unicode="&#xd3;" horiz-adv-x="1779" 
d="M1038 1690h-290l145 311h389zM889 1587q343 0 580 -236q239 -237 239 -577q0 -337 -239 -571t-580 -234q-343 0 -580 234t-237 571q0 340 237 577q236 236 580 236zM889 276q203 0 341 143t138 355q0 216 -138 360t-341 144t-341 -144t-138 -360q0 -212 138 -355
t341 -143z" />
    <glyph glyph-name="Ocircumflex" unicode="&#xd4;" horiz-adv-x="1779" 
d="M807 1683h-315l235 318h326l237 -318h-317l-82 115zM889 1587q343 0 580 -236q239 -237 239 -577q0 -337 -239 -571t-580 -234q-343 0 -580 234t-237 571q0 340 237 577q236 236 580 236zM889 276q203 0 341 143t138 355q0 216 -138 360t-341 144t-341 -144t-138 -360
q0 -212 138 -355t341 -143z" />
    <glyph glyph-name="Otilde" unicode="&#xd5;" horiz-adv-x="1779" 
d="M795 1782q-53 0 -64 -68h-199q0 155 70 234q68 77 166 77q73 0 141 -37q70 -38 107 -38q53 0 63 73h199q0 -159 -69 -237t-169 -78q-72 0 -140 37t-105 37zM889 1587q343 0 580 -236q239 -237 239 -577q0 -337 -239 -571t-580 -234q-343 0 -580 234t-237 571
q0 340 237 577q236 236 580 236zM889 276q203 0 341 143t138 355q0 216 -138 360t-341 144t-341 -144t-138 -360q0 -212 138 -355t341 -143z" />
    <glyph glyph-name="Odieresis" unicode="&#xd6;" horiz-adv-x="1779" 
d="M643 1667q-79 0 -131 50q-51 49 -51 128q0 75 52 127q53 53 130 53q78 0 131 -53t53 -127q0 -79 -52 -128q-53 -50 -132 -50zM1135 1667q-79 0 -131 50t-52 128q0 74 53 127t130 53q78 0 131 -53t53 -127q0 -79 -52 -128q-53 -50 -132 -50zM889 1587q343 0 580 -236
q239 -237 239 -577q0 -337 -239 -571t-580 -234q-343 0 -580 234t-237 571q0 340 237 577q236 236 580 236zM889 276q203 0 341 143t138 355q0 216 -138 360t-341 144t-341 -144t-138 -360q0 -212 138 -355t341 -143z" />
    <glyph glyph-name="multiply" unicode="&#xd7;" horiz-adv-x="1126" 
d="M754 623l270 -271l-188 -190l-273 270l-272 -270l-189 190l271 271l-271 268l189 190l272 -270l273 270l188 -190z" />
    <glyph glyph-name="Oslash" unicode="&#xd8;" horiz-adv-x="1765" 
d="M1647 1458l-138 -151q199 -226 199 -533q0 -337 -239 -571t-580 -234q-255 0 -463 140l-135 -150l-170 160l131 145q-180 224 -180 510q0 340 237 577q236 236 580 236q242 0 444 -127l144 158zM410 774q0 -144 67 -260l639 707q-105 57 -227 57q-203 0 -341 -144
t-138 -360zM889 276q203 0 341 143t138 355q0 159 -80 287l-647 -715q113 -70 248 -70z" />
    <glyph glyph-name="Ugrave" unicode="&#xd9;" horiz-adv-x="1630" 
d="M670 1690l-244 311h389l146 -311h-291zM1507 1556v-860q0 -330 -189 -529q-189 -200 -499 -200q-317 0 -510 199q-192 198 -192 530v860h336v-854q0 -193 100 -305t266 -112q158 0 254 112t96 305v854h338z" />
    <glyph glyph-name="Uacute" unicode="&#xda;" horiz-adv-x="1630" 
d="M958 1690h-290l145 311h389zM1507 1556v-860q0 -330 -189 -529q-189 -200 -499 -200q-317 0 -510 199q-192 198 -192 530v860h336v-854q0 -193 100 -305t266 -112q158 0 254 112t96 305v854h338z" />
    <glyph glyph-name="Ucircumflex" unicode="&#xdb;" horiz-adv-x="1630" 
d="M727 1683h-315l235 318h326l237 -318h-317l-82 115zM1507 1556v-860q0 -330 -189 -529q-189 -200 -499 -200q-317 0 -510 199q-192 198 -192 530v860h336v-854q0 -193 100 -305t266 -112q158 0 254 112t96 305v854h338z" />
    <glyph glyph-name="Udieresis" unicode="&#xdc;" horiz-adv-x="1630" 
d="M565 1667q-79 0 -131 50q-51 49 -51 128q0 75 52 127q53 53 130 53q78 0 131 -53q54 -54 54 -127q0 -78 -53 -128t-132 -50zM1057 1667q-79 0 -131 50t-52 128q0 74 53 127t130 53q78 0 131 -53t53 -127q0 -79 -52 -128q-53 -50 -132 -50zM1507 1556v-860
q0 -330 -189 -529q-189 -200 -499 -200q-317 0 -510 199q-192 198 -192 530v860h336v-854q0 -193 100 -305t266 -112q158 0 254 112t96 305v854h338z" />
    <glyph glyph-name="Yacute" unicode="&#xdd;" horiz-adv-x="1624" 
d="M958 1690h-290l145 311h389zM977 492v-492h-344v487l-619 1069h369l426 -725l424 725h377z" />
    <glyph glyph-name="Thorn" unicode="&#xde;" horiz-adv-x="1327" 
d="M467 1245h315q227 0 363 -123q137 -123 137 -331q0 -211 -140 -335t-374 -124h-301v-332h-338v1556h338v-311zM467 614h281q94 0 148 45t54 127t-54 126q-55 44 -148 44h-281v-342z" />
    <glyph glyph-name="germandbls" unicode="&#xdf;" horiz-adv-x="1406" 
d="M1055 852q136 -39 215 -141q80 -103 80 -260q0 -207 -135 -339q-133 -130 -353 -130q-157 0 -287 26l35 268q125 -22 201 -22q103 0 165 58t62 153q0 110 -79 170q-78 59 -214 59h-88v262h48q92 0 151 48q57 46 57 120q0 88 -56 138q-57 51 -148 51q-114 0 -183 -72
t-69 -197v-1044h-328v1020q0 254 160 411q159 156 420 156q229 0 375 -121q147 -122 147 -307q0 -107 -47 -190q-46 -83 -129 -117z" />
    <glyph glyph-name="agrave" unicode="&#xe0;" horiz-adv-x="1193" 
d="M430 1202l-244 311h389l146 -311h-291zM1151 270l23 -235q-92 -53 -185 -53q-170 0 -233 124q-128 -137 -342 -137q-165 0 -266 88t-101 230q0 308 424 338l252 20v12q0 67 -40 107q-41 41 -110 41q-128 0 -155 -133l-303 63q35 154 156 239t309 85q209 0 334 -107
q124 -106 124 -301v-327q0 -58 37 -58q10 0 17 1q4 1 13 1.5t14 0.5q12 1 32 1zM514 215q89 0 150 53q59 52 59 138v43l-199 -23q-137 -15 -137 -113q0 -46 35 -72t92 -26z" />
    <glyph glyph-name="aacute" unicode="&#xe1;" horiz-adv-x="1193" 
d="M719 1202h-291l145 311h390zM1151 270l23 -235q-92 -53 -185 -53q-170 0 -233 124q-128 -137 -342 -137q-165 0 -266 88t-101 230q0 308 424 338l252 20v12q0 67 -40 107q-41 41 -110 41q-128 0 -155 -133l-303 63q35 154 156 239t309 85q209 0 334 -107
q124 -106 124 -301v-327q0 -58 37 -58q10 0 17 1q4 1 13 1.5t14 0.5q12 1 32 1zM514 215q89 0 150 53q59 52 59 138v43l-199 -23q-137 -15 -137 -113q0 -46 35 -72t92 -26z" />
    <glyph glyph-name="acircumflex" unicode="&#xe2;" horiz-adv-x="1193" 
d="M489 1196h-315l236 317h325l238 -317h-318l-82 115zM1151 270l23 -235q-92 -53 -185 -53q-170 0 -233 124q-128 -137 -342 -137q-165 0 -266 88t-101 230q0 308 424 338l252 20v12q0 67 -40 107q-41 41 -110 41q-128 0 -155 -133l-303 63q35 154 156 239t309 85
q209 0 334 -107q124 -106 124 -301v-327q0 -58 37 -58q10 0 17 1q4 1 13 1.5t14 0.5q12 1 32 1zM514 215q89 0 150 53q59 52 59 138v43l-199 -23q-137 -15 -137 -113q0 -46 35 -72t92 -26z" />
    <glyph glyph-name="atilde" unicode="&#xe3;" horiz-adv-x="1193" 
d="M475 1294q-53 0 -63 -67h-199q0 154 70 233q69 78 166 78q71 0 141 -38t106 -38q53 0 64 74h198q0 -161 -68 -238t-169 -77q-74 0 -140 36q-68 37 -106 37zM1151 270l22 -235q-92 -53 -184 -53q-170 0 -233 124q-128 -137 -342 -137q-165 0 -266 88t-101 230
q0 308 424 338l252 20v12q0 67 -40 107q-41 41 -110 41q-128 0 -155 -133l-303 63q35 154 156 239t309 85q209 0 334 -107q124 -106 124 -301v-327q0 -58 37 -58q10 0 17 1q4 1 13 1.5t14 0.5q12 1 32 1zM514 215q89 0 150 53q59 52 59 138v43l-199 -23q-137 -15 -137 -113
q0 -46 35 -72t92 -26z" />
    <glyph glyph-name="adieresis" unicode="&#xe4;" horiz-adv-x="1193" 
d="M326 1180q-79 0 -131 50t-52 128q0 74 53 127t130 53q78 0 131 -53t53 -127q0 -79 -52 -128q-53 -50 -132 -50zM817 1180q-79 0 -131 50q-51 50 -51 128q0 75 52 127q53 53 130 53q78 0 131 -53t53 -127q0 -79 -52 -128q-53 -50 -132 -50zM1151 270l23 -235
q-92 -53 -185 -53q-170 0 -233 124q-128 -137 -342 -137q-165 0 -266 88t-101 230q0 308 424 338l252 20v12q0 67 -40 107q-41 41 -110 41q-128 0 -155 -133l-303 63q35 154 156 239t309 85q209 0 334 -107q124 -106 124 -301v-327q0 -58 37 -58q10 0 17 1q4 1 13 1.5
t14 0.5q12 1 32 1zM514 215q89 0 150 53q59 52 59 138v43l-199 -23q-137 -15 -137 -113q0 -46 35 -72t92 -26z" />
    <glyph glyph-name="aring" unicode="&#xe5;" horiz-adv-x="1193" 
d="M571 1153q-107 0 -183 73q-75 72 -75 177q0 107 75 179q76 73 183 73q108 0 184 -73q74 -71 74 -179q0 -106 -74 -177q-76 -73 -184 -73zM571 1485q-35 0 -59 -24q-25 -25 -25 -58q0 -31 25 -56q24 -24 59 -24q36 0 60 24t24 56q0 34 -24 58t-60 24zM1151 270l23 -235
q-92 -53 -185 -53q-170 0 -233 124q-128 -137 -342 -137q-165 0 -266 88t-101 230q0 308 424 338l252 20v12q0 67 -40 107q-41 41 -110 41q-128 0 -155 -133l-303 63q35 154 156 239t309 85q209 0 334 -107q124 -106 124 -301v-327q0 -58 37 -58q10 0 17 1q4 1 13 1.5
t14 0.5q12 1 32 1zM514 215q89 0 150 53q59 52 59 138v43l-199 -23q-137 -15 -137 -113q0 -46 35 -72t92 -26z" />
    <glyph glyph-name="ae" unicode="&#xe6;" horiz-adv-x="1835" 
d="M1784 418h-752q50 -187 230 -187q142 0 204 119l287 -59q-40 -144 -178 -233q-137 -89 -318 -89q-225 0 -383 146q-154 -146 -411 -146q-199 0 -307 90q-109 91 -109 240q0 145 111 228q112 83 305 83h274v47q0 68 -44 109t-115 41q-67 0 -111 -35q-43 -34 -51 -98
l-303 61q23 145 146 234q125 90 321 90q213 0 342 -109q145 109 329 109q229 0 381 -153q152 -154 152 -406v-82zM1032 610h430q-19 94 -73 140q-56 47 -132 47q-81 0 -144 -48t-81 -139zM737 414h-239q-59 0 -94 -26q-33 -24 -33 -71q0 -48 39 -78t104 -30q86 0 155 51
q68 50 68 123v31z" />
    <glyph glyph-name="ccedilla" unicode="&#xe7;" horiz-adv-x="1193" 
d="M850 436l301 -65q-33 -153 -147 -258q-113 -104 -275 -133l-94 -308h-340l194 310q-193 41 -315 184q-123 144 -123 348q0 238 165 391q166 154 402 154q192 0 340 -109t191 -286l-305 -74q-23 92 -83 139q-61 47 -143 47q-110 0 -181 -75q-70 -74 -70 -187
q0 -115 70 -188q71 -74 181 -74q177 0 232 184z" />
    <glyph glyph-name="egrave" unicode="&#xe8;" horiz-adv-x="1177" 
d="M459 1208l-244 312h389l146 -312h-291zM1126 514v-84h-753q22 -94 80 -145q62 -54 141 -54q153 0 219 119l291 -59q-67 -160 -198 -241q-132 -81 -312 -81q-227 0 -385 153t-158 392q0 238 158 391q159 154 387 154q224 0 375 -150q151 -149 155 -395zM596 793
q-72 0 -133 -43q-62 -44 -84 -119h424q-23 81 -78 121q-56 41 -129 41z" />
    <glyph glyph-name="eacute" unicode="&#xe9;" horiz-adv-x="1177" 
d="M748 1208h-291l145 312h389zM1126 514v-84h-753q22 -94 80 -145q62 -54 141 -54q153 0 219 119l291 -59q-67 -160 -198 -241q-132 -81 -312 -81q-227 0 -385 153t-158 392q0 238 158 391q159 154 387 154q224 0 375 -150q151 -149 155 -395zM596 793q-72 0 -133 -43
q-62 -44 -84 -119h424q-23 81 -78 121q-56 41 -129 41z" />
    <glyph glyph-name="ecircumflex" unicode="&#xea;" horiz-adv-x="1177" 
d="M518 1202h-315l235 318h326l237 -318h-317l-82 115zM1126 514v-84h-753q22 -94 80 -145q62 -54 141 -54q153 0 219 119l291 -59q-67 -160 -198 -241q-132 -81 -312 -81q-227 0 -385 153t-158 392q0 238 158 391q159 154 387 154q224 0 375 -150q151 -149 155 -395z
M596 793q-72 0 -133 -43q-62 -44 -84 -119h424q-23 81 -78 121q-56 41 -129 41z" />
    <glyph glyph-name="edieresis" unicode="&#xeb;" horiz-adv-x="1177" 
d="M354 1186q-79 0 -131 50q-51 50 -51 128q0 75 52 127q53 53 130 53q78 0 131 -53q54 -54 54 -127q0 -78 -53 -128t-132 -50zM846 1186q-79 0 -131 50q-51 50 -51 128q0 75 52 127q53 53 130 53q78 0 131 -53t53 -127q0 -79 -52 -128q-53 -50 -132 -50zM1126 514v-84h-753
q22 -94 80 -145q62 -54 141 -54q153 0 219 119l291 -59q-67 -160 -198 -241q-132 -81 -312 -81q-227 0 -385 153t-158 392q0 238 158 391q159 154 387 154q224 0 375 -150q151 -149 155 -395zM596 793q-72 0 -133 -43q-62 -44 -84 -119h424q-23 81 -78 121q-56 41 -129 41z
" />
    <glyph glyph-name="igrave" unicode="&#xec;" horiz-adv-x="608" 
d="M309 1520l146 -312h-291l-244 312h389zM467 0h-326v1028h326v-1028z" />
    <glyph glyph-name="iacute" unicode="&#xed;" horiz-adv-x="608" 
d="M453 1208h-291l145 312h389zM467 0h-326v1028h326v-1028z" />
    <glyph glyph-name="icircumflex" unicode="&#xee;" horiz-adv-x="608" 
d="M221 1202h-315l235 318h326l238 -318h-318l-82 115zM141 1028h326v-1028h-326v1028z" />
    <glyph glyph-name="idieresis" unicode="&#xef;" horiz-adv-x="608" 
d="M59 1544q78 0 131 -53q54 -54 54 -127q0 -78 -53 -128t-132 -50t-131 50q-51 50 -51 128q0 75 52 127q53 53 130 53zM551 1544q78 0 131 -53t53 -127q0 -79 -52 -128q-53 -50 -132 -50t-131 50q-51 50 -51 128q0 75 52 127q53 53 130 53zM467 0h-326v1028h326v-1028z" />
    <glyph glyph-name="eth" unicode="&#xf0;" horiz-adv-x="1239" 
d="M1006 1384l-111 -43q293 -404 293 -788q0 -150 -49 -266q-50 -119 -132 -184q-81 -64 -181 -100q-96 -34 -201 -34q-238 0 -406 153t-168 394q0 233 158 388t373 155q97 0 178 -37q-64 108 -158 205l-280 -109l-74 178l190 76q-155 120 -329 203v63h495q64 -35 160 -137
l166 66zM625 248q111 0 177 82t66 188q0 113 -72 188q-71 74 -180 74q-107 0 -178 -75t-71 -189q0 -117 74 -192q75 -76 184 -76z" />
    <glyph glyph-name="ntilde" unicode="&#xf1;" horiz-adv-x="1275" 
d="M555 1300q-53 0 -63 -67h-199q0 155 69 233t166 78q72 0 142 -38t106 -38q53 0 64 74h198q0 -160 -68 -237q-69 -78 -169 -78q-73 0 -141 37q-66 36 -105 36zM772 1059q181 0 290 -118t109 -310v-631h-325v561q0 91 -49 147t-127 56q-100 0 -157 -71q-56 -69 -56 -216
v-477h-328v1028h328v-98q123 129 315 129z" />
    <glyph glyph-name="ograve" unicode="&#xf2;" horiz-adv-x="1249" 
d="M485 1208l-243 312h389l145 -312h-291zM627 1059q236 0 404 -154q167 -153 167 -391q0 -239 -166 -392t-405 -153q-243 0 -409 153q-167 153 -167 392q0 238 167 391q168 154 409 154zM627 248q105 0 181 74q75 74 75 192q0 117 -75 192q-74 74 -181 74q-112 0 -186 -74
t-74 -192q0 -119 74 -192q76 -74 186 -74z" />
    <glyph glyph-name="oacute" unicode="&#xf3;" horiz-adv-x="1249" 
d="M774 1208h-291l146 312h389zM627 1059q236 0 404 -154q167 -153 167 -391q0 -239 -166 -392t-405 -153q-243 0 -409 153q-167 153 -167 392q0 238 167 391q168 154 409 154zM627 248q105 0 181 74q75 74 75 192q0 117 -75 192q-74 74 -181 74q-112 0 -186 -74t-74 -192
q0 -119 74 -192q76 -74 186 -74z" />
    <glyph glyph-name="ocircumflex" unicode="&#xf4;" horiz-adv-x="1249" 
d="M543 1202h-316l236 318h325l238 -318h-317l-82 115zM627 1059q236 0 404 -154q167 -153 167 -391q0 -239 -166 -392t-405 -153q-243 0 -409 153q-167 153 -167 392q0 238 167 391q168 154 409 154zM627 248q105 0 181 74q75 74 75 192q0 117 -75 192q-74 74 -181 74
q-112 0 -186 -74t-74 -192q0 -119 74 -192q76 -74 186 -74z" />
    <glyph glyph-name="otilde" unicode="&#xf5;" horiz-adv-x="1249" 
d="M530 1300q-53 0 -63 -67h-199q0 154 70 233q69 78 166 78q71 0 141 -38t107 -38q52 0 63 74h199q0 -159 -69 -237t-169 -78q-72 0 -140 37q-66 36 -106 36zM627 1059q236 0 404 -154q167 -153 167 -391q0 -239 -166 -392t-405 -153q-243 0 -409 153q-167 153 -167 392
q0 238 167 391q168 154 409 154zM627 248q105 0 181 74q75 74 75 192q0 117 -75 192q-74 74 -181 74q-112 0 -186 -74t-74 -192q0 -119 74 -192q76 -74 186 -74z" />
    <glyph glyph-name="odieresis" unicode="&#xf6;" horiz-adv-x="1249" 
d="M381 1186q-79 0 -131 50q-51 50 -51 128q0 75 52 127q53 53 130 53q78 0 131 -53t53 -127q0 -79 -52 -128q-53 -50 -132 -50zM872 1186q-79 0 -131 50q-51 50 -51 128q0 75 52 127q53 53 130 53q79 0 132 -53t53 -127q0 -79 -52 -128q-53 -50 -133 -50zM627 1059
q236 0 404 -154q167 -153 167 -391q0 -239 -166 -392t-405 -153q-243 0 -409 153q-167 153 -167 392q0 238 167 391q168 154 409 154zM627 248q105 0 181 74q75 74 75 192q0 117 -75 192q-74 74 -181 74q-112 0 -186 -74t-74 -192q0 -119 74 -192q76 -74 186 -74z" />
    <glyph glyph-name="divide" unicode="&#xf7;" horiz-adv-x="1173" 
d="M582 1194q76 0 126 -51q50 -52 50 -121q0 -73 -50 -123q-49 -49 -126 -49t-126 49q-50 50 -50 123q0 69 50 121q50 51 126 51zM1071 508h-969v268h969v-268zM582 440q76 0 126 -51q50 -52 50 -121q0 -73 -50 -123q-49 -49 -126 -49t-126 49q-50 50 -50 123q0 69 50 121
q50 51 126 51z" />
    <glyph glyph-name="oslash" unicode="&#xf8;" horiz-adv-x="1243" 
d="M1180 930l-90 -90q108 -141 108 -326q0 -239 -166 -392t-405 -153q-177 0 -322 86l-106 -106l-146 145l101 101q-103 136 -103 319q0 238 167 391q168 154 409 154q170 0 309 -82l98 98zM367 514q0 -54 14 -92l340 340q-43 18 -94 18q-112 0 -186 -74t-74 -192zM627 248
q105 0 181 74q75 74 75 192q0 46 -19 100l-346 -346q53 -20 109 -20z" />
    <glyph glyph-name="ugrave" unicode="&#xf9;" horiz-adv-x="1275" 
d="M487 1208l-243 312h389l145 -312h-291zM1147 1028v-1028h-328v98q-123 -129 -315 -129q-181 0 -290 118q-110 119 -110 310v631h326v-561q0 -90 49 -146q49 -57 127 -57q100 0 157 71q56 69 56 216v477h328z" />
    <glyph glyph-name="uacute" unicode="&#xfa;" horiz-adv-x="1275" 
d="M778 1208h-291l146 312h389zM1147 1028v-1028h-328v98q-123 -129 -315 -129q-181 0 -290 118q-110 119 -110 310v631h326v-561q0 -90 49 -146q49 -57 127 -57q100 0 157 71q56 69 56 216v477h328z" />
    <glyph glyph-name="ucircumflex" unicode="&#xfb;" horiz-adv-x="1275" 
d="M547 1202h-316l236 318h326l237 -318h-317l-82 115zM1147 1028v-1028h-328v98q-123 -129 -315 -129q-181 0 -290 118q-110 119 -110 310v631h326v-561q0 -90 49 -146q49 -57 127 -57q100 0 157 71q56 69 56 216v477h328z" />
    <glyph glyph-name="udieresis" unicode="&#xfc;" horiz-adv-x="1275" 
d="M383 1186q-79 0 -131 50q-51 50 -51 128q0 75 52 127q53 53 130 53q78 0 131 -53t53 -127q0 -79 -52 -128q-53 -50 -132 -50zM874 1186q-79 0 -131 50q-51 50 -51 128q0 75 52 127q53 53 130 53q79 0 132 -53t53 -127q0 -79 -52 -128q-53 -50 -133 -50zM1147 1028v-1028
h-328v98q-123 -129 -315 -129q-181 0 -290 118q-110 119 -110 310v631h326v-561q0 -90 49 -146q49 -57 127 -57q100 0 157 71q56 69 56 216v477h328z" />
    <glyph glyph-name="yacute" unicode="&#xfd;" horiz-adv-x="1236" 
d="M776 1210h-291l146 312h389zM1223 1028l-701 -1601h-346l266 610l-428 991h346l250 -608l267 608h346z" />
    <glyph glyph-name="thorn" unicode="&#xfe;" horiz-adv-x="1329" 
d="M776 1059q208 0 356 -154q146 -152 146 -391q0 -240 -146 -392q-147 -153 -356 -153q-194 0 -319 113v-655h-328v2211h328v-692q125 113 319 113zM709 248q109 0 178 74t69 192q0 117 -69 192q-68 74 -178 74q-104 0 -178 -75t-74 -191q0 -117 74 -191q75 -75 178 -75z
" />
    <glyph glyph-name="ydieresis" unicode="&#xff;" horiz-adv-x="1236" 
d="M383 1188q-79 0 -131 50q-51 50 -51 128q0 75 52 127q53 53 130 53q78 0 131 -53t53 -127q0 -79 -52 -128q-53 -50 -132 -50zM874 1188q-79 0 -131 50q-51 50 -51 128q0 75 52 127q53 53 130 53q79 0 132 -53t53 -127q0 -79 -52 -128q-53 -50 -133 -50zM1223 1028
l-701 -1601h-346l266 610l-428 991h346l250 -608l267 608h346z" />
    <glyph glyph-name="Amacron" unicode="&#x100;" horiz-adv-x="1691" 
d="M1188 1696h-680v254h680v-254zM1692 0h-369l-119 264h-717l-118 -264h-369l733 1556h225zM1075 555l-227 510l-230 -510h457z" />
    <glyph glyph-name="amacron" unicode="&#x101;" horiz-adv-x="1193" 
d="M911 1208h-680v254h680v-254zM1151 270l23 -235q-92 -53 -185 -53q-170 0 -233 124q-128 -137 -342 -137q-165 0 -266 88t-101 230q0 308 424 338l252 20v12q0 67 -40 107q-41 41 -110 41q-128 0 -155 -133l-303 63q35 154 156 239t309 85q209 0 334 -107
q124 -106 124 -301v-327q0 -58 37 -58q10 0 17 1q4 1 13 1.5t14 0.5q12 1 32 1zM514 215q89 0 150 53q59 52 59 138v43l-199 -23q-137 -15 -137 -113q0 -46 35 -72t92 -26z" />
    <glyph glyph-name="Abreve" unicode="&#x102;" horiz-adv-x="1691" 
d="M848 1655q-167 0 -265 88q-100 89 -100 235h258q0 -43 31 -74q30 -30 76 -30q47 0 77 30q29 29 29 74h258q0 -147 -99 -235q-98 -88 -265 -88zM1692 0h-369l-119 264h-717l-118 -264h-369l733 1556h225zM1075 555l-227 510l-230 -510h457z" />
    <glyph glyph-name="abreve" unicode="&#x103;" horiz-adv-x="1193" 
d="M571 1167q-167 0 -265 88q-99 89 -99 236h258q0 -44 31 -75q30 -30 75 -30q47 0 77 30t30 75h258q0 -147 -99 -236q-98 -88 -266 -88zM1151 270l23 -235q-92 -53 -185 -53q-170 0 -233 124q-128 -137 -342 -137q-165 0 -266 88t-101 230q0 308 424 338l252 20v12
q0 67 -40 107q-41 41 -110 41q-128 0 -155 -133l-303 63q35 154 156 239t309 85q209 0 334 -107q124 -106 124 -301v-327q0 -58 37 -58q10 0 17 1q4 1 13 1.5t14 0.5q12 1 32 1zM514 215q89 0 150 53q59 52 59 138v43l-199 -23q-137 -15 -137 -113q0 -46 35 -72t92 -26z" />
    <glyph glyph-name="Aogonek" unicode="&#x104;" horiz-adv-x="1691" 
d="M1729 -205l12 -186q-95 -45 -191 -45q-91 0 -150 50t-59 140q0 131 138 246h-156l-119 264h-717l-118 -264h-369l733 1556h225l734 -1556q-3 -4 -34 -37q-22 -23 -29 -32q-19 -23 -21 -25q-14 -15 -19 -24q-6 -10 -10 -18q-7 -14 -8 -21q-2 -12 -2 -19q0 -49 57 -49
q39 0 103 20zM1075 555l-227 510l-230 -510h457z" />
    <glyph glyph-name="aogonek" unicode="&#x105;" horiz-adv-x="1193" 
d="M1210 -170l13 -186q-95 -45 -191 -45q-91 0 -150 50t-59 140q0 107 88 201q-108 24 -155 116q-128 -137 -342 -137q-165 0 -266 88t-101 230q0 308 424 338l252 20v12q0 67 -40 107q-41 41 -110 41q-128 0 -155 -133l-303 63q35 154 156 239t309 85q209 0 334 -107
q124 -106 124 -301v-327q0 -58 37 -58q10 0 17 1q4 1 13 1.5t14 0.5q12 1 32 1l23 -235q-3 -4 -34 -37q-22 -23 -29 -32q-19 -23 -21 -25q-14 -15 -19 -24q-6 -10 -10 -18q-7 -13 -8 -21q-2 -12 -2 -19q0 -49 57 -49q38 0 102 20zM514 215q89 0 150 53q59 52 59 138v43
l-199 -23q-137 -15 -137 -113q0 -46 35 -72t92 -26z" />
    <glyph glyph-name="Cacute" unicode="&#x106;" horiz-adv-x="1722" 
d="M1032 1690h-291l146 311h389zM883 274q165 0 285 99t159 278l324 -80q-62 -277 -273 -440q-212 -164 -495 -164q-342 0 -577 235q-234 234 -234 574q0 343 234 577t577 234q281 0 493 -162q212 -163 275 -430l-324 -94q-39 180 -160 279q-120 98 -284 98
q-201 0 -337 -144q-136 -143 -136 -358q0 -214 136 -357q137 -145 337 -145z" />
    <glyph glyph-name="cacute" unicode="&#x107;" horiz-adv-x="1193" 
d="M766 1208h-291l146 312h389zM850 436l301 -65q-39 -180 -187 -291t-346 -111q-237 0 -402 153t-165 392q0 238 165 391q166 154 402 154q192 0 340 -109t191 -286l-305 -74q-23 92 -83 139q-61 47 -143 47q-110 0 -181 -75q-70 -74 -70 -187q0 -115 70 -188
q71 -74 181 -74q177 0 232 184z" />
    <glyph glyph-name="Cdotaccent" unicode="&#x10a;" horiz-adv-x="1722" 
d="M883 1661q-80 0 -132 52q-53 53 -53 130q0 74 53 127t132 53q80 0 133 -53t53 -127q0 -78 -52 -130t-134 -52zM883 274q165 0 285 99t159 278l324 -80q-62 -277 -273 -440q-212 -164 -495 -164q-342 0 -577 235q-234 234 -234 574q0 343 234 577t577 234q281 0 493 -162
q212 -163 275 -430l-324 -94q-39 180 -160 279q-120 98 -284 98q-201 0 -337 -144q-136 -143 -136 -358q0 -214 136 -357q137 -145 337 -145z" />
    <glyph glyph-name="cdotaccent" unicode="&#x10b;" horiz-adv-x="1193" 
d="M616 1180q-80 0 -132 51t-52 131q0 75 52 127q53 53 132 53q81 0 134 -53t53 -127q0 -78 -52 -130t-135 -52zM850 436l301 -65q-39 -180 -187 -291t-346 -111q-237 0 -402 153t-165 392q0 238 165 391q166 154 402 154q192 0 340 -109t191 -286l-305 -74q-23 92 -83 139
q-61 47 -143 47q-110 0 -181 -75q-70 -74 -70 -187q0 -115 70 -188q71 -74 181 -74q177 0 232 184z" />
    <glyph glyph-name="Ccaron" unicode="&#x10c;" horiz-adv-x="1722" 
d="M723 1683l-236 318h316l84 -115l82 115h317l-237 -318h-326zM883 274q165 0 285 99t159 278l324 -80q-62 -277 -273 -440q-212 -164 -495 -164q-342 0 -577 235q-234 234 -234 574q0 343 234 577t577 234q281 0 493 -162q212 -163 275 -430l-324 -94q-39 180 -160 279
q-120 98 -284 98q-201 0 -337 -144q-136 -143 -136 -358q0 -214 136 -357q137 -145 337 -145z" />
    <glyph glyph-name="ccaron" unicode="&#x10d;" horiz-adv-x="1193" 
d="M457 1202l-236 318h316l84 -115l81 115h318l-238 -318h-325zM850 436l301 -65q-39 -180 -187 -291t-346 -111q-237 0 -402 153t-165 392q0 238 165 391q166 154 402 154q192 0 340 -109t191 -286l-305 -74q-23 92 -83 139q-61 47 -143 47q-110 0 -181 -75
q-70 -74 -70 -187q0 -115 70 -188q71 -74 181 -74q177 0 232 184z" />
    <glyph glyph-name="Dcaron" unicode="&#x10e;" horiz-adv-x="1693" 
d="M641 1683l-235 318h315l84 -115l82 115h317l-237 -318h-326zM129 1556h666q373 0 600 -214t227 -564t-227 -564t-600 -214h-666v1556zM467 295h334q219 0 351 133q132 134 132 350q0 217 -132 350q-132 134 -351 134h-334v-967z" />
    <glyph glyph-name="dcaron" unicode="&#x10f;" horiz-adv-x="1318" 
d="M872 1638h328v-1638h-328v82q-125 -113 -319 -113q-208 0 -355 153t-147 392q0 238 147 391q148 154 355 154q194 0 319 -113v692zM1616 1638l-72 -407h-237v407h309zM621 248q102 0 177 75q74 74 74 191q0 116 -74 191t-177 75q-111 0 -179 -74q-69 -75 -69 -192
q0 -118 69 -192t179 -74z" />
    <glyph glyph-name="Dcroat" unicode="&#x110;" horiz-adv-x="1734" 
d="M170 1556h666q373 0 600 -214t227 -564t-227 -564t-600 -214h-666v625h-123v295h123v636zM508 295h334q219 0 351 133q132 134 132 350q0 217 -132 350q-132 134 -351 134h-334v-342h250v-295h-250v-330z" />
    <glyph glyph-name="dcroat" unicode="&#x111;" horiz-adv-x="1390" 
d="M1343 1200h-143v-1200h-328v82q-125 -113 -319 -113q-208 0 -355 153t-147 392q0 238 147 391q148 154 355 154q194 0 319 -113v254h-276v244h276v194h328v-194h143v-244zM621 248q102 0 177 75q74 74 74 191q0 116 -74 191t-177 75q-111 0 -179 -74q-69 -75 -69 -192
q0 -118 69 -192t179 -74z" />
    <glyph glyph-name="Emacron" unicode="&#x112;" horiz-adv-x="1366" 
d="M1059 1696h-680v254h680v-254zM1272 295v-295h-1143v1556h1133v-296h-795v-338h743v-283h-743v-344h805z" />
    <glyph glyph-name="emacron" unicode="&#x113;" horiz-adv-x="1177" 
d="M940 1214h-680v254h680v-254zM1126 514v-84h-753q22 -94 80 -145q62 -54 141 -54q153 0 219 119l291 -59q-67 -160 -198 -241q-132 -81 -312 -81q-227 0 -385 153t-158 392q0 238 158 391q159 154 387 154q224 0 375 -150q151 -149 155 -395zM596 793q-72 0 -133 -43
q-62 -44 -84 -119h424q-23 81 -78 121q-56 41 -129 41z" />
    <glyph glyph-name="Edotaccent" unicode="&#x116;" horiz-adv-x="1366" 
d="M717 1661q-82 0 -133 52q-52 54 -52 130q0 74 53 127t132 53q80 0 133 -53t53 -127q0 -78 -52 -130t-134 -52zM1272 295v-295h-1143v1556h1133v-296h-795v-338h743v-283h-743v-344h805z" />
    <glyph glyph-name="edotaccent" unicode="&#x117;" horiz-adv-x="1177" 
d="M598 1180q-82 0 -133 51t-51 131q0 75 52 127q53 53 132 53q80 0 133 -53t53 -127q0 -78 -52 -130t-134 -52zM1126 514v-84h-753q22 -94 80 -145q62 -54 141 -54q153 0 219 119l291 -59q-67 -160 -198 -241q-132 -81 -312 -81q-227 0 -385 153t-158 392q0 238 158 391
q159 154 387 154q224 0 375 -150q151 -149 155 -395zM596 793q-72 0 -133 -43q-62 -44 -84 -119h424q-23 81 -78 121q-56 41 -129 41z" />
    <glyph glyph-name="Eogonek" unicode="&#x118;" horiz-adv-x="1366" 
d="M1272 0h-64q-9 -11 -33 -37q-22 -23 -29 -32q-8 -10 -22 -25q-11 -12 -18 -24q-6 -10 -10 -18q-8 -16 -9 -21q-2 -12 -2 -19q0 -49 58 -49q38 0 102 20l12 -186q-95 -45 -190 -45q-92 0 -151 50q-58 49 -58 140q0 132 137 246h-866v1556h1133v-296h-795v-338h743v-283
h-743v-344h805v-295z" />
    <glyph glyph-name="eogonek" unicode="&#x119;" horiz-adv-x="1177" 
d="M1126 430h-753q18 -93 78 -146q61 -53 143 -53q156 0 219 119l291 -59q-33 -70 -148 -189q-88 -87 -125 -141q-40 -59 -40 -125q0 -61 65 -61q38 0 102 20l25 -190q-87 -43 -195 -43q-107 0 -171 58t-64 157q0 98 84 194l-43 -2q-227 0 -385 153t-158 392q0 238 158 391
q159 154 385 154t380 -154q152 -152 152 -405v-70zM375 631h424q-35 162 -205 162q-72 0 -134 -43q-63 -43 -85 -119z" />
    <glyph glyph-name="Ecaron" unicode="&#x11a;" horiz-adv-x="1366" 
d="M557 1683l-235 318h315l84 -115l82 115h317l-237 -318h-326zM1272 295v-295h-1143v1556h1133v-296h-795v-338h743v-283h-743v-344h805z" />
    <glyph glyph-name="ecaron" unicode="&#x11b;" horiz-adv-x="1177" 
d="M438 1202l-235 318h315l84 -115l82 115h317l-237 -318h-326zM1126 514v-84h-753q22 -94 80 -145q62 -54 141 -54q153 0 219 119l291 -59q-67 -160 -198 -241q-132 -81 -312 -81q-227 0 -385 153t-158 392q0 238 158 391q159 154 387 154q224 0 375 -150
q151 -149 155 -395zM596 793q-72 0 -133 -43q-62 -44 -84 -119h424q-23 81 -78 121q-56 41 -129 41z" />
    <glyph glyph-name="Gbreve" unicode="&#x11e;" horiz-adv-x="1753" 
d="M895 1655q-167 0 -265 88q-100 89 -100 235h258q0 -43 31 -74q30 -30 76 -30q47 0 77 30q29 29 29 74h259q0 -146 -100 -235q-98 -88 -265 -88zM766 899h907q8 -70 8 -125q0 -350 -222 -578q-223 -229 -568 -229q-346 0 -583 234q-236 233 -236 575q0 343 235 577
t578 234q261 0 466 -128q203 -127 281 -353l-325 -94q-123 266 -422 266q-201 0 -337 -144q-136 -143 -136 -358q0 -214 139 -357q140 -145 346 -145q169 0 287 92q117 91 157 246h-575v287z" />
    <glyph glyph-name="gbreve" unicode="&#x11f;" horiz-adv-x="1267" 
d="M645 1174q-167 0 -265 88q-99 88 -99 235h258q0 -45 30 -75q29 -29 76 -29q48 0 77 29q30 30 30 75h258q0 -146 -100 -235q-98 -88 -265 -88zM1257 768h-178q21 -72 21 -135q0 -182 -136 -300t-341 -118q-138 0 -252 57q-25 -23 -25 -53q0 -36 32 -59t83 -23h334
q198 0 312 -96t114 -268q0 -186 -149 -297q-148 -111 -408 -111h-138q-229 0 -359 100t-130 261q0 160 123 256q-99 83 -99 208q0 156 136 242q-54 91 -54 201q0 185 136 306q135 120 344 120q100 0 188 -31h446v-260zM623 467q77 0 129 49q53 50 53 121t-53 121
q-52 49 -129 49q-78 0 -130 -49q-53 -50 -53 -121t53 -121q52 -49 130 -49zM778 -119h-268q-70 0 -108 -33q-37 -33 -37 -90q0 -131 178 -131h139q102 0 155 40q54 41 54 104q0 48 -31 79t-82 31z" />
    <glyph glyph-name="Gdotaccent" unicode="&#x120;" horiz-adv-x="1753" 
d="M893 1661q-82 0 -133 52q-51 53 -51 130q0 75 52 127q53 53 132 53q80 0 133 -53t53 -127q0 -78 -52 -130t-134 -52zM766 899h907q8 -70 8 -125q0 -350 -222 -578q-223 -229 -568 -229q-346 0 -583 234q-236 233 -236 575q0 343 235 577t578 234q261 0 466 -128
q203 -127 281 -353l-325 -94q-123 266 -422 266q-201 0 -337 -144q-136 -143 -136 -358q0 -214 139 -357q140 -145 346 -145q169 0 287 92q117 91 157 246h-575v287z" />
    <glyph glyph-name="gdotaccent" unicode="&#x121;" horiz-adv-x="1267" 
d="M643 1180q-82 0 -133 51t-51 131q0 75 52 127q53 53 132 53q80 0 133 -53t53 -127q0 -78 -52 -130t-134 -52zM1257 768h-178q21 -72 21 -135q0 -182 -136 -300t-341 -118q-138 0 -252 57q-25 -23 -25 -53q0 -36 32 -59t83 -23h334q198 0 312 -96t114 -268
q0 -186 -149 -297q-148 -111 -408 -111h-138q-229 0 -359 100t-130 261q0 160 123 256q-99 83 -99 208q0 156 136 242q-54 91 -54 201q0 185 136 306q135 120 344 120q100 0 188 -31h446v-260zM623 467q77 0 129 49q53 50 53 121t-53 121q-52 49 -129 49q-78 0 -130 -49
q-53 -50 -53 -121t53 -121q52 -49 130 -49zM778 -119h-268q-70 0 -108 -33q-37 -33 -37 -90q0 -131 178 -131h139q102 0 155 40q54 41 54 104q0 48 -31 79t-82 31z" />
    <glyph glyph-name="Gcommaaccent" unicode="&#x122;" horiz-adv-x="1753" 
d="M766 899h907q8 -70 8 -125q0 -350 -222 -578q-223 -229 -568 -229q-346 0 -583 234q-236 233 -236 575q0 343 235 577t578 234q261 0 466 -128q203 -127 281 -353l-325 -94q-123 266 -422 266q-201 0 -337 -144q-136 -143 -136 -358q0 -214 139 -357q140 -145 346 -145
q169 0 287 92q117 91 157 246h-575v287zM717 -92h332l-203 -322h-234z" />
    <glyph glyph-name="gcommaaccent" unicode="&#x123;" horiz-adv-x="1267" 
d="M786 1198h-333l202 322h236zM1257 768h-178q21 -72 21 -135q0 -182 -136 -300t-341 -118q-138 0 -252 57q-25 -23 -25 -53q0 -36 32 -59t83 -23h334q198 0 312 -96t114 -268q0 -186 -149 -297q-148 -111 -408 -111h-138q-229 0 -359 100t-130 261q0 160 123 256
q-99 83 -99 208q0 156 136 242q-54 91 -54 201q0 185 136 306q135 120 344 120q100 0 188 -31h446v-260zM623 467q77 0 129 49q53 50 53 121t-53 121q-52 49 -129 49q-78 0 -130 -49q-53 -50 -53 -121t53 -121q52 -49 130 -49zM778 -119h-268q-70 0 -108 -33
q-37 -33 -37 -90q0 -131 178 -131h139q102 0 155 40q54 41 54 104q0 48 -31 79t-82 31z" />
    <glyph glyph-name="Hbar" unicode="&#x126;" horiz-adv-x="1716" 
d="M1667 1053h-119v-1053h-336v580h-708v-580h-336v1053h-121v260h121v243h336v-243h708v243h336v-243h119v-260zM1212 1053h-708v-191h708v191z" />
    <glyph glyph-name="hbar" unicode="&#x127;" horiz-adv-x="1312" 
d="M811 1059q181 0 290 -118t109 -310v-631h-327v561q0 90 -48 147q-47 56 -128 56q-100 0 -157 -71q-56 -69 -56 -216v-477h-326v1200h-121v244h121v194h326v-194h260v-244h-260v-272q125 131 317 131z" />
    <glyph glyph-name="Imacron" unicode="&#x12a;" horiz-adv-x="595" 
d="M639 1696h-680v254h680v-254zM467 0h-338v1556h338v-1556z" />
    <glyph glyph-name="imacron" unicode="&#x12b;" horiz-adv-x="608" 
d="M645 1214h-680v254h680v-254zM467 0h-326v1028h326v-1028z" />
    <glyph glyph-name="Iogonek" unicode="&#x12e;" horiz-adv-x="595" 
d="M502 -205l12 -186q-94 -45 -190 -45q-92 0 -151 50q-58 49 -58 140q0 132 137 246h-123v1556h338v-1556h-2q-3 -4 -34 -37q-22 -23 -29 -32q-19 -23 -21 -25q-14 -15 -19 -24q-6 -10 -10 -18q-7 -14 -8 -21q-2 -12 -2 -19q0 -49 57 -49q39 0 103 20z" />
    <glyph glyph-name="iogonek" unicode="&#x12f;" horiz-adv-x="608" 
d="M303 1180q-82 0 -133 51t-51 131q0 75 52 127q53 53 132 53q80 0 133 -53t53 -127q0 -78 -52 -130t-134 -52zM504 -205l12 -186q-95 -45 -190 -45q-92 0 -151 50q-58 49 -58 140q0 132 137 246h-113v1028h326v-1028q-3 -4 -34 -37q-22 -23 -29 -32q-19 -23 -21 -25
q-11 -12 -18 -24l-5 -6q-4 -7 -6 -12q-7 -14 -8 -21q-2 -12 -2 -19q0 -49 57 -49q39 0 103 20z" />
    <glyph glyph-name="Idotaccent" unicode="&#x130;" horiz-adv-x="595" 
d="M297 2023q80 0 133 -53t53 -127q0 -78 -52 -130t-134 -52q-80 0 -132 52t-52 130q0 75 52 127q53 53 132 53zM467 0h-338v1556h338v-1556z" />
    <glyph glyph-name="dotlessi" unicode="&#x131;" horiz-adv-x="608" 
d="M467 0h-326v1028h326v-1028z" />
    <glyph glyph-name="IJ" unicode="&#x132;" horiz-adv-x="1986" 
d="M129 1556h338v-1556h-338v1556zM1864 1556v-993q0 -264 -172 -430t-451 -166q-254 0 -419 142q-162 140 -197 376l327 68q16 -132 90 -209q73 -76 199 -76q127 0 206 82t79 213v993h338z" />
    <glyph glyph-name="ij" unicode="&#x133;" horiz-adv-x="1220" 
d="M299 1544q82 0 136 -54t54 -130q0 -78 -54 -131q-55 -53 -136 -53q-83 0 -135 52q-53 53 -53 132q0 75 53 130q52 54 135 54zM920 1544q82 0 136 -54t54 -130q0 -78 -54 -131q-55 -53 -136 -53q-84 0 -136 52q-53 53 -53 132q0 75 53 130q52 54 136 54zM463 0h-328v1028
h328v-1028zM543 -551l49 258q51 -16 82 -16q39 0 62 22q24 23 24 60v1255h325v-1292q0 -149 -89 -240q-88 -90 -238 -90q-110 0 -215 43z" />
    <glyph glyph-name="Kcommaaccent" unicode="&#x136;" horiz-adv-x="1531" 
d="M1538 0h-444l-627 672v-672h-338v1556h338v-698l623 698h419l-698 -778zM610 -92h332l-203 -322h-233z" />
    <glyph glyph-name="kcommaaccent" unicode="&#x137;" horiz-adv-x="1249" 
d="M1251 0h-426l-368 377v-377h-328v1638h328v-999l356 389h406l-463 -514zM483 -92h332l-203 -322h-233z" />
    <glyph glyph-name="Lacute" unicode="&#x139;" horiz-adv-x="1306" 
d="M449 1690h-291l145 311h389zM1239 295v-295h-1110v1556h338v-1261h772z" />
    <glyph glyph-name="lacute" unicode="&#x13a;" horiz-adv-x="585" 
d="M444 1772h-290l145 311h389zM457 0h-328v1638h328v-1638z" />
    <glyph glyph-name="Lcommaaccent" unicode="&#x13b;" horiz-adv-x="1306" 
d="M1239 295v-295h-1110v1556h338v-1261h772zM518 -92h332l-203 -322h-233z" />
    <glyph glyph-name="lcommaaccent" unicode="&#x13c;" horiz-adv-x="585" 
d="M457 0h-328v1638h328v-1638zM27 -414l104 322h332l-203 -322h-233z" />
    <glyph glyph-name="Lcaron" unicode="&#x13d;" horiz-adv-x="1306" 
d="M1239 295v-295h-1110v1556h338v-1261h772zM922 1149h-236v407h307z" />
    <glyph glyph-name="lcaron" unicode="&#x13e;" horiz-adv-x="585" 
d="M457 0h-328v1638h328v-1638zM805 1231h-236v407h308z" />
    <glyph glyph-name="Ldot" unicode="&#x13f;" horiz-adv-x="1351" 
d="M1239 295v-295h-1110v1556h338v-1261h772zM850 532q-81 0 -134 53q-52 52 -52 130q0 73 53 128q53 54 133 54q78 0 132 -54t54 -128q0 -77 -53 -130t-133 -53z" />
    <glyph glyph-name="ldot" unicode="&#x140;" horiz-adv-x="894" 
d="M457 0h-328v1638h328v-1638zM698 897q81 0 135 -54t54 -128q0 -77 -53 -130t-136 -53q-79 0 -132 53q-52 52 -52 130q0 73 53 128q53 54 131 54z" />
    <glyph glyph-name="Lslash" unicode="&#x141;" horiz-adv-x="1347" 
d="M1280 295v-295h-1110v586l-123 -56v301l123 56v669h338v-514l242 111v-301l-242 -111v-446h772z" />
    <glyph glyph-name="lslash" unicode="&#x142;" horiz-adv-x="659" 
d="M612 729l-120 -65v-664h-328v485l-117 -63v307l117 64v845h328v-667l120 65v-307z" />
    <glyph glyph-name="Nacute" unicode="&#x143;" horiz-adv-x="1734" 
d="M999 1690h-290l145 311h389zM1604 1556v-1556h-211l-926 950v-950h-338v1556h213l926 -972v972h336z" />
    <glyph glyph-name="nacute" unicode="&#x144;" horiz-adv-x="1275" 
d="M799 1208h-291l145 312h389zM772 1059q181 0 290 -118t109 -310v-631h-325v561q0 91 -49 147t-127 56q-100 0 -157 -71q-56 -69 -56 -216v-477h-328v1028h328v-98q123 129 315 129z" />
    <glyph glyph-name="Ncommaaccent" unicode="&#x145;" horiz-adv-x="1734" 
d="M1604 1556v-1556h-211l-926 950v-950h-338v1556h213l926 -972v972h336zM733 -92h332l-203 -322h-233z" />
    <glyph glyph-name="ncommaaccent" unicode="&#x146;" horiz-adv-x="1275" 
d="M772 1059q181 0 290 -118t109 -310v-631h-325v561q0 91 -49 147t-127 56q-100 0 -157 -71q-56 -69 -56 -216v-477h-328v1028h328v-98q123 129 315 129zM489 -92h332l-203 -322h-233z" />
    <glyph glyph-name="Ncaron" unicode="&#x147;" horiz-adv-x="1734" 
d="M690 1683l-235 318h315l84 -115l82 115h317l-237 -318h-326zM1604 1556v-1556h-211l-926 950v-950h-338v1556h213l926 -972v972h336z" />
    <glyph glyph-name="ncaron" unicode="&#x148;" horiz-adv-x="1275" 
d="M487 1202l-235 318h315l84 -115l82 115h318l-238 -318h-326zM772 1059q181 0 290 -118t109 -310v-631h-325v561q0 91 -49 147t-127 56q-100 0 -157 -71q-56 -69 -56 -216v-477h-328v1028h328v-98q123 129 315 129z" />
    <glyph glyph-name="Eng" unicode="&#x14a;" horiz-adv-x="1734" 
d="M1604 1556v-1830q0 -143 -91 -232q-89 -88 -237 -88q-116 0 -254 47l45 279q89 -21 125 -21q86 0 86 76v332l-811 831v-950h-338v1556h213l926 -972v972h336z" />
    <glyph glyph-name="eng" unicode="&#x14b;" horiz-adv-x="1277" 
d="M772 1059q181 0 290 -118t109 -310v-680q0 -143 -90 -232q-89 -88 -237 -88q-108 0 -254 35l31 250q116 -14 153 -14q72 0 72 63v596q0 91 -49 147t-127 56q-100 0 -157 -71q-56 -69 -56 -216v-477h-328v1028h328v-98q123 129 315 129z" />
    <glyph glyph-name="Omacron" unicode="&#x14c;" horiz-adv-x="1779" 
d="M1229 1696h-680v254h680v-254zM889 1587q343 0 580 -236q239 -237 239 -577q0 -337 -239 -571t-580 -234q-343 0 -580 234t-237 571q0 340 237 577q236 236 580 236zM889 276q203 0 341 143t138 355q0 216 -138 360t-341 144t-341 -144t-138 -360q0 -212 138 -355
t341 -143z" />
    <glyph glyph-name="omacron" unicode="&#x14d;" horiz-adv-x="1249" 
d="M967 1214h-680v254h680v-254zM627 1059q236 0 404 -154q167 -153 167 -391q0 -239 -166 -392t-405 -153q-243 0 -409 153q-167 153 -167 392q0 238 167 391q168 154 409 154zM627 248q105 0 181 74q75 74 75 192q0 117 -75 192q-74 74 -181 74q-112 0 -186 -74t-74 -192
q0 -119 74 -192q76 -74 186 -74z" />
    <glyph glyph-name="Ohungarumlaut" unicode="&#x150;" horiz-adv-x="1779" 
d="M815 1690h-280l151 311h369zM946 1690l152 311h375l-248 -311h-279zM889 1587q343 0 580 -236q239 -237 239 -577q0 -337 -239 -571t-580 -234q-343 0 -580 234t-237 571q0 340 237 577q236 236 580 236zM889 276q203 0 341 143t138 355q0 216 -138 360t-341 144
t-341 -144t-138 -360q0 -212 138 -355t341 -143z" />
    <glyph glyph-name="ohungarumlaut" unicode="&#x151;" horiz-adv-x="1249" 
d="M553 1208h-281l152 312h369zM684 1208l152 312h374l-247 -312h-279zM627 1059q236 0 404 -154q167 -153 167 -391q0 -239 -166 -392t-405 -153q-243 0 -409 153q-167 153 -167 392q0 238 167 391q168 154 409 154zM627 248q105 0 181 74q75 74 75 192q0 117 -75 192
q-74 74 -181 74q-112 0 -186 -74t-74 -192q0 -119 74 -192q76 -74 186 -74z" />
    <glyph glyph-name="OE" unicode="&#x152;" horiz-adv-x="2269" 
d="M2175 295v-295h-1243q-388 0 -624 214t-236 566q0 348 236 562t624 214h1233v-296h-797v-338h743v-283h-743v-344h807zM1032 291v975h-100q-236 0 -379 -133t-143 -353t143 -354q144 -135 379 -135h100z" />
    <glyph glyph-name="oe" unicode="&#x153;" horiz-adv-x="2011" 
d="M1960 514v-84h-752q21 -93 79 -145q60 -54 143 -54q151 0 219 119l290 -59q-67 -161 -197 -241q-132 -81 -312 -81q-239 0 -392 158q-164 -158 -411 -158q-243 0 -409 153q-167 153 -167 392q0 238 167 391q168 154 409 154q243 0 411 -160q157 160 394 160
q223 0 373 -150q151 -151 155 -395zM1432 793q-78 0 -137 -43q-61 -44 -83 -119h424q-23 82 -77 121q-56 41 -127 41zM627 248q105 0 181 74q75 74 75 192q0 117 -75 192q-74 74 -181 74q-112 0 -186 -74t-74 -192q0 -119 74 -192q76 -74 186 -74z" />
    <glyph glyph-name="Racute" unicode="&#x154;" horiz-adv-x="1597" 
d="M807 1690h-291l146 311h389zM1647 0h-414l-557 625h-209v-625h-338v1556h631q246 0 391 -129t145 -335q0 -140 -67 -247t-193 -165zM467 913h276q103 0 163 51q59 50 59 128q0 77 -59 127q-58 49 -163 49h-276v-355z" />
    <glyph glyph-name="racute" unicode="&#x155;" horiz-adv-x="905" 
d="M637 1208h-291l146 312h389zM811 1042q39 0 74 -8l-15 -327h-59q-354 0 -354 -385v-322h-328v1028h328v-178q127 192 354 192z" />
    <glyph glyph-name="Rcommaaccent" unicode="&#x156;" horiz-adv-x="1597" 
d="M1647 0h-414l-557 625h-209v-625h-338v1556h631q246 0 391 -129t145 -335q0 -140 -67 -247t-193 -165zM467 913h276q103 0 163 51q59 50 59 128q0 77 -59 127q-58 49 -163 49h-276v-355zM668 -92h331l-202 -322h-234z" />
    <glyph glyph-name="rcommaaccent" unicode="&#x157;" horiz-adv-x="905" 
d="M811 1042q39 0 74 -8l-15 -327h-59q-354 0 -354 -385v-322h-328v1028h328v-178q127 192 354 192zM131 -92h332l-203 -322h-233z" />
    <glyph glyph-name="Rcaron" unicode="&#x158;" horiz-adv-x="1597" 
d="M496 1683l-236 318h315l84 -115l82 115h318l-238 -318h-325zM1647 0h-414l-557 625h-209v-625h-338v1556h631q246 0 391 -129t145 -335q0 -140 -67 -247t-193 -165zM467 913h276q103 0 163 51q59 50 59 128q0 77 -59 127q-58 49 -163 49h-276v-355z" />
    <glyph glyph-name="rcaron" unicode="&#x159;" horiz-adv-x="905" 
d="M326 1202l-236 318h316l83 -115l82 115h318l-238 -318h-325zM457 1028v-178q127 192 354 192q39 0 74 -8l-15 -327h-59q-354 0 -354 -385v-322h-328v1028h328z" />
    <glyph glyph-name="Sacute" unicode="&#x15a;" horiz-adv-x="1390" 
d="M850 1690h-291l146 311h389zM686 1587q242 0 401 -117q160 -118 203 -327l-336 -70q-21 114 -95 170q-75 57 -175 57q-86 0 -147 -44q-60 -44 -60 -123q0 -109 131 -148l330 -98q183 -55 277 -158t94 -276q0 -232 -170 -358q-169 -126 -426 -126q-251 0 -430 123
q-178 123 -207 344l352 72q50 -246 303 -246q110 0 169 46q61 47 61 126q0 60 -36 97q-37 39 -116 61l-299 82q-178 51 -286 150q-107 98 -107 284q0 224 156 351q157 128 413 128z" />
    <glyph glyph-name="sacute" unicode="&#x15b;" horiz-adv-x="989" 
d="M659 1208h-290l145 312h389zM49 268l320 66q21 -125 149 -125q56 0 83 24q28 25 28 62q0 56 -74 74l-205 47q-278 63 -278 299q0 155 114 250q113 94 306 94q177 0 294 -81q118 -81 146 -214l-301 -59q-6 53 -43 90q-36 36 -99 36q-47 0 -72 -21q-26 -21 -26 -54
q0 -59 86 -82l203 -49q266 -68 266 -310q0 -166 -122 -256t-322 -90q-175 0 -303 74q-127 73 -150 225z" />
    <glyph glyph-name="Scedilla" unicode="&#x15e;" horiz-adv-x="1390" 
d="M1309 453q0 -205 -135 -328t-351 -150l-92 -303h-340l191 305q-206 30 -344 150t-162 309l352 72q50 -246 303 -246q110 0 169 46q61 47 61 126q0 60 -36 97q-37 39 -116 61l-299 82q-178 51 -286 150q-107 98 -107 284q0 224 156 351q157 128 413 128q242 0 401 -117
q160 -118 203 -327l-336 -70q-21 114 -95 170q-75 57 -175 57q-86 0 -147 -44q-60 -44 -60 -123q0 -109 131 -148l330 -98q183 -55 277 -158t94 -276z" />
    <glyph glyph-name="scedilla" unicode="&#x15f;" horiz-adv-x="989" 
d="M946 315q0 -141 -90 -228t-244 -110l-94 -305h-340l193 308q-285 55 -322 288l320 66q21 -125 149 -125q56 0 83 24q28 25 28 62q0 56 -74 74l-205 47q-278 63 -278 299q0 155 114 250q113 94 306 94q177 0 294 -81q118 -81 146 -214l-301 -59q-6 53 -43 90
q-36 36 -99 36q-47 0 -72 -21q-26 -21 -26 -54q0 -59 86 -82l203 -49q266 -68 266 -310z" />
    <glyph glyph-name="Scaron" unicode="&#x160;" horiz-adv-x="1390" 
d="M541 1683l-236 318h316l84 -115l81 115h318l-238 -318h-325zM608 985l330 -98q183 -55 277 -158t94 -276q0 -232 -170 -358q-169 -126 -426 -126q-251 0 -430 123q-178 123 -207 344l352 72q50 -246 303 -246q110 0 169 46q61 47 61 126q0 60 -36 97q-37 39 -116 61
l-299 82q-178 51 -286 150q-107 98 -107 284q0 224 156 351q157 128 413 128q242 0 401 -117q160 -118 203 -327l-336 -70q-21 114 -95 170q-75 57 -175 57q-86 0 -147 -44q-60 -44 -60 -123q0 -109 131 -148z" />
    <glyph glyph-name="scaron" unicode="&#x161;" horiz-adv-x="989" 
d="M348 1202l-235 318h315l84 -115l82 115h317l-237 -318h-326zM477 674l203 -49q266 -68 266 -310q0 -166 -122 -256t-322 -90q-175 0 -303 74q-127 73 -150 225l320 66q21 -125 149 -125q56 0 83 24q28 25 28 62q0 56 -74 74l-205 47q-278 63 -278 299q0 155 114 250
q113 94 306 94q177 0 294 -81q118 -81 146 -214l-301 -59q-6 53 -43 90q-36 36 -99 36q-47 0 -72 -21q-26 -21 -26 -54q0 -59 86 -82z" />
    <glyph glyph-name="tcedilla" unicode="&#x163;" horiz-adv-x="886" 
d="M518 768v-377q0 -59 31 -95q30 -34 86 -34q76 0 149 41l76 -258q-104 -58 -198 -70l-93 -301h-340l199 318q-238 78 -238 366v410h-194v260h194v350l328 97v-447h365v-260h-365z" />
    <glyph glyph-name="Tcaron" unicode="&#x164;" horiz-adv-x="1353" 
d="M514 1683l-235 318h315l84 -115l82 115h317l-237 -318h-326zM1313 1262h-467v-1262h-338v1262h-467v294h1272v-294z" />
    <glyph glyph-name="tcaron" unicode="&#x165;" horiz-adv-x="886" 
d="M868 1147h-235v407h307zM518 1028h365v-260h-365v-377q0 -59 31 -95q30 -34 86 -34q76 0 149 41l76 -258q-140 -76 -280 -76q-182 0 -286 104t-104 285v410h-194v260h194v350l328 97v-447z" />
    <glyph glyph-name="Tbar" unicode="&#x166;" horiz-adv-x="1353" 
d="M846 1262v-461h231v-269h-231v-532h-338v532h-232v269h232v461h-467v294h1272v-294h-467z" />
    <glyph glyph-name="tbar" unicode="&#x167;" horiz-adv-x="886" 
d="M518 795v-86h324v-232h-324v-86q0 -59 31 -95q30 -34 86 -34q76 0 149 41l76 -258q-140 -76 -280 -76q-182 0 -286 104t-104 285v119h-163v232h163v86h-194v233h194v350l328 97v-447h365v-233h-365z" />
    <glyph glyph-name="Umacron" unicode="&#x16a;" horiz-adv-x="1630" 
d="M1151 1696h-680v254h680v-254zM1507 1556v-860q0 -330 -189 -529q-189 -200 -499 -200q-317 0 -510 199q-192 198 -192 530v860h336v-854q0 -193 100 -305t266 -112q158 0 254 112t96 305v854h338z" />
    <glyph glyph-name="umacron" unicode="&#x16b;" horiz-adv-x="1275" 
d="M969 1214h-680v254h680v-254zM1147 1028v-1028h-328v98q-123 -129 -315 -129q-181 0 -290 118q-110 119 -110 310v631h326v-561q0 -90 49 -146q49 -57 127 -57q100 0 157 71q56 69 56 216v477h328z" />
    <glyph glyph-name="Uring" unicode="&#x16e;" horiz-adv-x="1630" 
d="M811 1640q-107 0 -183 73q-75 72 -75 177q0 108 75 180t183 72t183 -72t75 -180q0 -105 -75 -177q-76 -73 -183 -73zM811 1972q-36 0 -59 -23q-25 -25 -25 -59q0 -31 25 -56q24 -24 59 -24t59 24q25 25 25 56q0 34 -25 59q-23 23 -59 23zM1507 1556v-860
q0 -330 -189 -529q-189 -200 -499 -200q-317 0 -510 199q-192 198 -192 530v860h336v-854q0 -193 100 -305t266 -112q158 0 254 112t96 305v854h338z" />
    <glyph glyph-name="uring" unicode="&#x16f;" horiz-adv-x="1275" 
d="M629 1159q-108 0 -184 73q-74 71 -74 177q0 108 74 179q76 73 184 73q107 0 183 -73q75 -72 75 -179q0 -105 -75 -177q-76 -73 -183 -73zM629 1491q-36 0 -60 -24t-24 -58q0 -32 24 -56t60 -24q35 0 59 24q25 25 25 56q0 33 -25 58q-24 24 -59 24zM1147 1028v-1028h-328
v98q-123 -129 -315 -129q-181 0 -290 118q-110 119 -110 310v631h326v-561q0 -90 49 -146q49 -57 127 -57q100 0 157 71q56 69 56 216v477h328z" />
    <glyph glyph-name="Uhungarumlaut" unicode="&#x170;" horiz-adv-x="1630" 
d="M737 1690h-280l151 311h369zM868 1690l152 311h375l-248 -311h-279zM1507 1556v-860q0 -330 -189 -529q-189 -200 -499 -200q-317 0 -510 199q-192 198 -192 530v860h336v-854q0 -193 100 -305t266 -112q158 0 254 112t96 305v854h338z" />
    <glyph glyph-name="uhungarumlaut" unicode="&#x171;" horiz-adv-x="1275" 
d="M555 1208h-281l152 312h369zM686 1208l152 312h374l-247 -312h-279zM819 1028h328v-1028h-328v98q-123 -129 -315 -129q-181 0 -290 118q-110 119 -110 310v631h326v-561q0 -90 49 -146q49 -57 127 -57q100 0 157 71q56 69 56 216v477z" />
    <glyph glyph-name="Uogonek" unicode="&#x172;" horiz-adv-x="1632" 
d="M1507 1556v-874q0 -189 -65 -335q-66 -150 -182 -234q-111 -83 -161 -140q-50 -58 -50 -120q0 -70 73 -70q45 0 144 33l16 -209q-103 -53 -215 -53q-114 0 -179 56q-67 58 -67 159q0 110 90 206q-49 -6 -100 -6q-310 0 -502 198t-192 515v874h336v-872q0 -177 100 -287
t262 -110q160 0 258 110t98 287v872h336z" />
    <glyph glyph-name="uogonek" unicode="&#x173;" horiz-adv-x="1275" 
d="M1182 -205l12 -186q-94 -45 -190 -45q-92 0 -151 50q-58 49 -58 140q0 132 137 246h-113v98q-123 -129 -315 -129q-181 0 -290 118q-110 119 -110 310v631h326v-561q0 -90 49 -146q49 -57 127 -57q100 0 157 71q56 69 56 216v477h328v-1028h-2q-3 -4 -34 -37
q-22 -23 -29 -32q-19 -23 -21 -25q-14 -15 -19 -24q-6 -10 -10 -18q-7 -14 -8 -21q-2 -12 -2 -19q0 -49 57 -49q39 0 103 20z" />
    <glyph glyph-name="Wcircumflex" unicode="&#x174;" horiz-adv-x="2271" 
d="M1053 1683h-316l236 318h325l238 -318h-317l-82 115zM2257 1556l-506 -1556h-270l-344 928l-346 -928h-271l-506 1556h353l303 -933l356 933h217l359 -933l301 933h354z" />
    <glyph glyph-name="wcircumflex" unicode="&#x175;" horiz-adv-x="1703" 
d="M770 1202h-315l235 318h326l237 -318h-317l-82 115zM1690 1028l-390 -1030h-245l-203 530l-203 -530h-246l-389 1030h336l189 -557l204 557h218l204 -557l189 557h336z" />
    <glyph glyph-name="Ycircumflex" unicode="&#x176;" horiz-adv-x="1624" 
d="M729 1683h-315l235 318h326l237 -318h-317l-82 115zM977 492v-492h-344v487l-619 1069h369l426 -725l424 725h377z" />
    <glyph glyph-name="ycircumflex" unicode="&#x177;" horiz-adv-x="1236" 
d="M545 1204h-316l236 318h326l237 -318h-317l-82 115zM1223 1028l-701 -1601h-346l266 610l-428 991h346l250 -608l267 608h346z" />
    <glyph glyph-name="Ydieresis" unicode="&#x178;" horiz-adv-x="1624" 
d="M565 1667q-79 0 -131 50q-51 49 -51 128q0 75 52 127q53 53 130 53q78 0 131 -53q54 -54 54 -127q0 -78 -53 -128t-132 -50zM1057 1667q-79 0 -131 50t-52 128q0 74 53 127t130 53q78 0 131 -53t53 -127q0 -79 -52 -128q-53 -50 -132 -50zM977 492v-492h-344v487
l-619 1069h369l426 -725l424 725h377z" />
    <glyph glyph-name="Zacute" unicode="&#x179;" horiz-adv-x="1449" 
d="M883 1690h-291l145 311h389zM1374 285v-285h-1290v106l793 1166h-771v284h1250v-106l-766 -1165h784z" />
    <glyph glyph-name="zacute" unicode="&#x17a;" horiz-adv-x="1054" 
d="M698 1208h-290l145 312h389zM1001 920l-462 -660h454v-260h-917v102l461 666h-451v260h915v-108z" />
    <glyph glyph-name="Zdotaccent" unicode="&#x17b;" horiz-adv-x="1449" 
d="M733 1661q-82 0 -133 52q-51 53 -51 130q0 75 52 127q53 53 132 53q80 0 133 -53q54 -54 54 -127q0 -77 -53 -130q-52 -52 -134 -52zM1374 285v-285h-1290v106l793 1166h-771v284h1250v-106l-766 -1165h784z" />
    <glyph glyph-name="zdotaccent" unicode="&#x17c;" horiz-adv-x="1054" 
d="M549 1180q-82 0 -133 51t-51 131q0 75 52 127q53 53 132 53q80 0 133 -53t53 -127q0 -78 -52 -130t-134 -52zM1001 920l-462 -660h454v-260h-917v102l461 666h-451v260h915v-108z" />
    <glyph glyph-name="Zcaron" unicode="&#x17d;" horiz-adv-x="1449" 
d="M571 1683l-235 318h315l84 -115l82 115h318l-238 -318h-326zM1374 285v-285h-1290v106l793 1166h-771v284h1250v-106l-766 -1165h784z" />
    <glyph glyph-name="zcaron" unicode="&#x17e;" horiz-adv-x="1054" 
d="M387 1202l-235 318h315l84 -115l82 115h317l-237 -318h-326zM1001 920l-462 -660h454v-260h-917v102l461 666h-451v260h915v-108z" />
    <glyph glyph-name="florin" unicode="&#x192;" horiz-adv-x="1204" 
d="M973 1307q-133 0 -162 -144l-61 -319h264v-283h-320l-102 -530q-33 -171 -146 -270q-112 -99 -276 -99q-104 0 -225 66l96 247q66 -22 115 -22q43 0 74 25q33 26 40 65l99 518h-205v283h260l63 332q38 190 166 300q129 111 316 111q143 0 256 -69l-103 -256
q-69 45 -149 45z" />
    <glyph glyph-name="AEacute" unicode="&#x1fc;" horiz-adv-x="2381" 
d="M1714 1690h-291l146 311h389zM2298 295v-295h-1143v264h-577l-185 -264h-393l1112 1556h1176v-296h-797v-338h743v-283h-743v-344h807zM1155 555v535l-373 -535h373z" />
    <glyph glyph-name="aeacute" unicode="&#x1fd;" horiz-adv-x="1835" 
d="M1059 1208h-291l145 312h390zM1784 418h-752q50 -187 230 -187q142 0 204 119l287 -59q-40 -144 -178 -233q-137 -89 -318 -89q-225 0 -383 146q-154 -146 -411 -146q-199 0 -307 90q-109 91 -109 240q0 145 111 228q112 83 305 83h274v47q0 68 -44 109t-115 41
q-67 0 -111 -35q-43 -34 -51 -98l-303 61q23 145 146 234q125 90 321 90q213 0 342 -109q145 109 329 109q229 0 381 -153q152 -154 152 -406v-82zM1032 610h430q-19 94 -73 140q-56 47 -132 47q-81 0 -144 -48t-81 -139zM737 414h-239q-59 0 -94 -26q-33 -24 -33 -71
q0 -48 39 -78t104 -30q86 0 155 51q68 50 68 123v31z" />
    <glyph glyph-name="Scommaaccent" unicode="&#x218;" horiz-adv-x="1390" 
d="M686 1587q242 0 401 -117q160 -118 203 -327l-336 -70q-21 114 -95 170q-75 57 -175 57q-86 0 -147 -44q-60 -44 -60 -123q0 -109 131 -148l330 -98q183 -55 277 -158t94 -276q0 -232 -170 -358q-169 -126 -426 -126q-251 0 -430 123q-178 123 -207 344l352 72
q50 -246 303 -246q110 0 169 46q61 47 61 126q0 60 -36 97q-37 39 -116 61l-299 82q-178 51 -286 150q-107 98 -107 284q0 224 156 351q157 128 413 128zM434 -414l105 322h331l-202 -322h-234z" />
    <glyph glyph-name="scommaaccent" unicode="&#x219;" horiz-adv-x="989" 
d="M49 268l320 66q21 -125 149 -125q56 0 83 24q28 25 28 62q0 56 -74 74l-205 47q-278 63 -278 299q0 155 114 250q113 94 306 94q177 0 294 -81q118 -81 146 -214l-301 -59q-6 53 -43 90q-36 36 -99 36q-47 0 -72 -21q-26 -21 -26 -54q0 -59 86 -82l203 -49
q266 -68 266 -310q0 -166 -122 -256t-322 -90q-175 0 -303 74q-127 73 -150 225zM221 -414l105 322h331l-202 -322h-234z" />
    <glyph glyph-name="uni021A" unicode="&#x21a;" horiz-adv-x="1353" 
d="M1313 1556v-294h-467v-1262h-338v1262h-467v294h1272zM516 -92h332l-203 -322h-233z" />
    <glyph glyph-name="uni021B" unicode="&#x21b;" horiz-adv-x="886" 
d="M518 768v-377q0 -59 31 -95q30 -34 86 -34q76 0 149 41l76 -258q-140 -76 -280 -76q-182 0 -286 104t-104 285v410h-194v260h194v350l328 97v-447h365v-260h-365zM377 -90h332l-203 -322h-234z" />
    <glyph glyph-name="circumflex" unicode="&#x2c6;" horiz-adv-x="1228" 
d="M698 1155l-82 115l-84 -115h-315l236 318h325l238 -318h-318z" />
    <glyph glyph-name="caron" unicode="&#x2c7;" horiz-adv-x="1228" 
d="M1016 1473l-238 -318h-325l-236 318h315l84 -115l82 115h318z" />
    <glyph glyph-name="breve" unicode="&#x2d8;" horiz-adv-x="1228" 
d="M614 1124q-167 0 -265 88q-99 88 -99 236h258q0 -44 31 -75q30 -30 75 -30q47 0 77 30t30 75h258q0 -148 -99 -236q-98 -88 -266 -88z" />
    <glyph glyph-name="dotaccent" unicode="&#x2d9;" horiz-adv-x="1228" 
d="M614 1495q81 0 134 -53t53 -127q0 -78 -52 -130t-135 -52q-82 0 -133 52q-51 53 -51 130q0 75 52 127q53 53 132 53z" />
    <glyph glyph-name="ring" unicode="&#x2da;" horiz-adv-x="1228" 
d="M872 1362q0 -106 -74 -177q-76 -73 -184 -73q-107 0 -183 73q-75 72 -75 177q0 107 75 179q76 73 183 73q108 0 184 -73q74 -71 74 -179zM698 1362q0 34 -24 58t-60 24q-35 0 -59 -24q-25 -25 -25 -58q0 -31 25 -56q24 -24 59 -24q36 0 60 24t24 56z" />
    <glyph glyph-name="ogonek" unicode="&#x2db;" horiz-adv-x="1228" 
d="M469 6l205 -6q-3 -4 -34 -37q-22 -23 -29 -32q-19 -23 -21 -25q-14 -15 -19 -24q-6 -10 -10 -18q-7 -14 -8 -21q-2 -12 -2 -19q0 -49 57 -49q39 0 103 20l12 -186q-95 -45 -191 -45q-91 0 -150 50q-58 49 -58 140q0 135 145 252z" />
    <glyph glyph-name="tilde" unicode="&#x2dc;" horiz-adv-x="1228" 
d="M457 1186h-199q0 154 70 233q69 78 166 78q71 0 141 -38t106 -38q53 0 64 74h199q0 -160 -69 -238q-68 -77 -169 -77q-72 0 -140 37q-66 36 -106 36q-53 0 -63 -67z" />
    <glyph glyph-name="hungarumlaut" unicode="&#x2dd;" horiz-adv-x="1228" 
d="M438 1161h-280l151 312h369zM848 1161h-279l152 312h375z" />
    <glyph glyph-name="uni0326" unicode="&#x326;" horiz-adv-x="0" 
d="M381 -414l104 322h332l-203 -322h-233z" />
    <glyph glyph-name="Wgrave" unicode="&#x1e80;" horiz-adv-x="2271" 
d="M995 1690l-243 311h389l145 -311h-291zM2257 1556l-506 -1556h-270l-344 928l-346 -928h-271l-506 1556h353l303 -933l356 933h217l359 -933l301 933h354z" />
    <glyph glyph-name="wgrave" unicode="&#x1e81;" horiz-adv-x="1703" 
d="M711 1208l-244 312h389l145 -312h-290zM1690 1028l-390 -1030h-245l-203 530l-203 -530h-246l-389 1030h336l189 -557l204 557h218l204 -557l189 557h336z" />
    <glyph glyph-name="Wacute" unicode="&#x1e82;" horiz-adv-x="2271" 
d="M1284 1690h-291l146 311h389zM2257 1556l-506 -1556h-270l-344 928l-346 -928h-271l-506 1556h353l303 -933l356 933h217l359 -933l301 933h354z" />
    <glyph glyph-name="wacute" unicode="&#x1e83;" horiz-adv-x="1703" 
d="M1001 1208h-290l145 312h389zM1690 1028l-390 -1030h-245l-203 530l-203 -530h-246l-389 1030h336l189 -557l204 557h218l204 -557l189 557h336z" />
    <glyph glyph-name="Wdieresis" unicode="&#x1e84;" horiz-adv-x="2271" 
d="M891 1667q-79 0 -131 50q-51 49 -51 128q0 75 52 127q53 53 130 53q78 0 131 -53t53 -127q0 -79 -52 -128q-53 -50 -132 -50zM1382 1667q-79 0 -131 50q-51 49 -51 128q0 75 52 127q53 53 130 53q78 0 131 -53q54 -54 54 -127q0 -78 -53 -128t-132 -50zM2257 1556
l-506 -1556h-270l-344 928l-346 -928h-271l-506 1556h353l303 -933l356 933h217l359 -933l301 933h354z" />
    <glyph glyph-name="wdieresis" unicode="&#x1e85;" horiz-adv-x="1703" 
d="M606 1186q-79 0 -131 50q-51 50 -51 128q0 75 52 127q53 53 130 53q78 0 131 -53q54 -54 54 -127q0 -78 -53 -128t-132 -50zM1098 1186q-79 0 -131 50t-52 128q0 74 53 127t130 53q78 0 131 -53t53 -127q0 -79 -52 -128q-53 -50 -132 -50zM1690 1028l-390 -1030h-245
l-203 530l-203 -530h-246l-389 1030h336l189 -557l204 557h218l204 -557l189 557h336z" />
    <glyph glyph-name="Ygrave" unicode="&#x1ef2;" horiz-adv-x="1624" 
d="M670 1690l-244 311h389l146 -311h-291zM977 492v-492h-344v487l-619 1069h369l426 -725l424 725h377z" />
    <glyph glyph-name="ygrave" unicode="&#x1ef3;" horiz-adv-x="1236" 
d="M487 1210l-243 312h389l145 -312h-291zM1223 1028l-701 -1601h-346l266 610l-428 991h346l250 -608l267 608h346z" />
    <glyph glyph-name="endash" unicode="&#x2013;" horiz-adv-x="1269" 
d="M1147 412h-1024v252h1024v-252z" />
    <glyph glyph-name="emdash" unicode="&#x2014;" horiz-adv-x="2560" 
d="M2437 412h-2314v252h2314v-252z" />
    <glyph glyph-name="quoteleft" unicode="&#x2018;" horiz-adv-x="612" 
d="M301 1556h248l-121 -589h-362v8z" />
    <glyph glyph-name="quoteright" unicode="&#x2019;" horiz-adv-x="612" 
d="M313 967h-247l120 589h363v-8z" />
    <glyph glyph-name="quotesinglbase" unicode="&#x201a;" horiz-adv-x="612" 
d="M313 -270h-247l120 589h363v-8z" />
    <glyph glyph-name="quotedblleft" unicode="&#x201c;" horiz-adv-x="1050" 
d="M301 1556h248l-121 -589h-362v8zM737 1556h248l-121 -589h-362v8z" />
    <glyph glyph-name="quotedblright" unicode="&#x201d;" horiz-adv-x="1050" 
d="M313 967h-247l120 589h363v-8zM750 967h-248l121 589h362v-8z" />
    <glyph glyph-name="quotedblbase" unicode="&#x201e;" horiz-adv-x="1050" 
d="M313 -270h-247l120 589h363v-8zM750 -270h-248l121 589h362v-8z" />
    <glyph glyph-name="dagger" unicode="&#x2020;" horiz-adv-x="819" 
d="M741 1372v-190h-229v-508h-205v508h-229v190h229v184h205v-184h229z" />
    <glyph glyph-name="daggerdbl" unicode="&#x2021;" horiz-adv-x="819" 
d="M512 1182v-133h229v-191h-229v-184h-205v184h-229v191h229v133h-229v190h229v184h205v-184h229v-190h-229z" />
    <glyph glyph-name="bullet" unicode="&#x2022;" horiz-adv-x="847" 
d="M424 887q153 0 257 -106q103 -104 103 -249q0 -148 -102 -249q-103 -101 -258 -101q-154 0 -257 101q-101 100 -101 249q0 145 102 250t256 105z" />
    <glyph glyph-name="ellipsis" unicode="&#x2026;" horiz-adv-x="1638" 
d="M252 358q80 0 134 -54t54 -130q0 -78 -53 -131t-135 -53q-81 0 -133 52q-53 53 -53 132q0 75 53 130q53 54 133 54zM819 358q81 0 133 -54q54 -56 54 -130q0 -79 -53 -132q-52 -52 -134 -52q-83 0 -135 52q-53 53 -53 132q0 75 53 130q52 54 135 54zM1384 358
q84 0 136 -54q53 -55 53 -130q0 -79 -53 -132q-52 -52 -136 -52q-82 0 -134 52t-52 132q0 75 53 130q53 54 133 54z" />
    <glyph glyph-name="perthousand" unicode="&#x2030;" horiz-adv-x="2603" 
d="M438 1587q146 0 252 -95q105 -94 105 -249q0 -153 -105 -247q-106 -95 -252 -95q-148 0 -254 95q-104 94 -104 247q0 155 104 249q106 95 254 95zM293 0l991 1556h193l-994 -1556h-190zM438 1384q-56 0 -96 -37q-41 -38 -41 -102q0 -63 41 -102q40 -39 96 -39q54 0 94 39
q41 39 41 102q0 64 -41 102q-40 37 -94 37zM1335 655q146 0 252 -95q105 -95 105 -249q0 -151 -105 -246q-107 -96 -252 -96q-147 0 -254 96q-104 94 -104 246q0 155 104 249q106 95 254 95zM2169 655q147 0 251 -95q103 -94 103 -249q0 -152 -103 -246q-105 -96 -251 -96
q-147 0 -254 96q-105 95 -105 246q0 155 105 249q106 95 254 95zM1335 453q-55 0 -96 -38t-41 -102q0 -63 41 -102t96 -39t95 39t40 102q0 65 -40 102q-41 38 -95 38zM2167 453q-52 0 -95 -38q-42 -37 -42 -102q0 -63 41 -102t96 -39t96 39t41 102q0 65 -42 102
q-43 38 -95 38z" />
    <glyph glyph-name="guilsinglleft" unicode="&#x2039;" horiz-adv-x="624" 
d="M51 537l215 364h307l-215 -364l215 -365h-307z" />
    <glyph glyph-name="guilsinglright" unicode="&#x203a;" horiz-adv-x="624" 
d="M51 172l215 365l-215 364h307l215 -364l-215 -365h-307z" />
    <glyph glyph-name="fraction" unicode="&#x2044;" horiz-adv-x="501" 
d="M-354 0l991 1556h192l-993 -1556h-190z" />
    <glyph glyph-name="zerosuperior" unicode="&#x2070;" horiz-adv-x="995" 
d="M498 1782q182 0 309 -114t127 -296t-127 -296q-126 -113 -309 -113q-180 0 -308 114q-127 114 -127 295t127 295q129 115 308 115zM498 1163q84 0 145 56q59 55 59 153q0 96 -60 152q-59 55 -144 55q-84 0 -143 -55q-60 -56 -60 -152q0 -98 60 -153q61 -56 143 -56z" />
    <glyph glyph-name="foursuperior" unicode="&#x2074;" horiz-adv-x="790" 
d="M758 1094h-113v-117h-207v117h-401v114l495 553h113v-491h113v-176zM438 1270v147l-127 -147h127z" />
    <glyph glyph-name="fivesuperior" unicode="&#x2075;" horiz-adv-x="700" 
d="M301 1491h94q118 0 191 -70q71 -68 71 -184q0 -125 -83 -202t-218 -77q-128 0 -214 71q-85 70 -97 175l209 37q16 -96 100 -96q40 0 65 22t25 64q0 41 -28 62q-30 22 -72 22h-266l63 446h484v-192h-314z" />
    <glyph glyph-name="sixsuperior" unicode="&#x2076;" horiz-adv-x="706" 
d="M590 1761l-160 -221q103 -24 169 -101q67 -78 67 -186q0 -128 -92 -211q-90 -81 -222 -81q-130 0 -220 81q-91 82 -91 211q0 118 76 197l227 311h246zM352 1147q44 0 79 29q34 28 34 77q0 51 -34 81t-79 30q-42 0 -77 -30q-33 -29 -33 -81q0 -50 33 -77q35 -29 77 -29z
" />
    <glyph glyph-name="sevensuperior" unicode="&#x2077;" horiz-adv-x="628" 
d="M610 1761v-41l-311 -743h-231l262 592h-316v192h596z" />
    <glyph glyph-name="eightsuperior" unicode="&#x2078;" horiz-adv-x="749" 
d="M559 1393q133 -55 133 -195q0 -101 -87 -167t-230 -66q-142 0 -229 66t-87 167q0 139 134 195q-103 53 -103 166q0 91 83 157t204 66t204 -66t83 -157q0 -115 -105 -166zM375 1620q-39 0 -64 -23q-24 -23 -24 -61q0 -32 25 -56q26 -24 63 -24q35 0 63 23q27 23 27 57
q0 38 -26 61t-64 23zM377 1137q40 0 64 23q26 24 26 63q0 37 -27 61q-28 25 -65 25q-41 0 -67 -24q-25 -24 -25 -62q0 -40 26 -63t68 -23z" />
    <glyph glyph-name="ninesuperior" unicode="&#x2079;" horiz-adv-x="706" 
d="M666 1491q0 -109 -70 -193l-234 -317h-247l159 221q-101 24 -168 103q-65 77 -65 186q0 127 91 209t222 82q129 0 220 -82q92 -83 92 -209zM242 1489q0 -52 33 -81q35 -30 79 -30q42 0 77 30q34 30 34 81q0 49 -34 79q-33 29 -77 29q-46 0 -79 -29t-33 -79z" />
    <glyph glyph-name="zeroinferior" unicode="&#x2080;" horiz-adv-x="995" 
d="M498 553q182 0 309 -114t127 -296t-127 -296q-126 -113 -309 -113q-180 0 -308 114q-127 114 -127 295t127 295q129 115 308 115zM498 -66q84 0 145 56q59 55 59 153q0 97 -60 152q-59 55 -144 55q-84 0 -143 -55q-60 -55 -60 -152t60 -153q61 -56 143 -56z" />
    <glyph glyph-name="oneinferior" unicode="&#x2081;" horiz-adv-x="497" 
d="M418 -252h-223v488l-179 -62v217l359 141h43v-784z" />
    <glyph glyph-name="twoinferior" unicode="&#x2082;" horiz-adv-x="731" 
d="M446 -61h211v-191h-602v45l283 320q42 49 56 65q18 21 34 51q18 33 18 58q0 36 -23 56q-25 22 -63 22q-43 0 -70 -34q-29 -37 -30 -95l-199 40q0 124 82 200q83 77 217 77q136 0 219 -71t83 -195q0 -51 -30 -110q-32 -62 -53 -87q-24 -28 -90 -102z" />
    <glyph glyph-name="threeinferior" unicode="&#x2083;" horiz-adv-x="704" 
d="M668 469l-160 -221q81 -28 125 -89q45 -63 45 -151q0 -125 -86 -202q-85 -76 -225 -76q-134 0 -222 70t-100 175l209 37q7 -43 39 -70q31 -26 72 -26q42 0 71 23t29 63t-27 64t-71 24h-158l-8 25l149 225h-268l6 192h580v-63z" />
    <glyph glyph-name="fourinferior" unicode="&#x2084;" horiz-adv-x="790" 
d="M758 -135h-113v-117h-207v117h-401v115l495 552h113v-491h113v-176zM438 41v147l-127 -147h127z" />
    <glyph glyph-name="fiveinferior" unicode="&#x2085;" horiz-adv-x="700" 
d="M301 262h94q119 0 191 -69q71 -68 71 -185q0 -125 -83 -202q-82 -76 -218 -76q-129 0 -214 70t-97 175l209 37q16 -96 100 -96q39 0 65 23q25 22 25 63q0 42 -28 63t-72 21h-266l63 446h484v-192h-314z" />
    <glyph glyph-name="sixinferior" unicode="&#x2086;" horiz-adv-x="706" 
d="M590 532l-160 -221q103 -24 169 -101q67 -78 67 -185q0 -128 -92 -211q-91 -82 -222 -82q-129 0 -220 82t-91 211q0 117 76 196l227 311h246zM352 -82q44 0 79 29q34 28 34 78t-34 80q-35 30 -79 30q-42 0 -77 -30q-33 -29 -33 -80t33 -78q35 -29 77 -29z" />
    <glyph glyph-name="seveninferior" unicode="&#x2087;" horiz-adv-x="628" 
d="M610 532v-40l-311 -744h-231l262 592h-316v192h596z" />
    <glyph glyph-name="eightinferior" unicode="&#x2088;" horiz-adv-x="749" 
d="M559 164q133 -55 133 -195q0 -101 -87 -167t-230 -66q-142 0 -229 66t-87 167q0 139 134 195q-103 53 -103 166q0 91 83 157t204 66t204 -66t83 -157q0 -115 -105 -166zM375 391q-41 0 -64 -22q-24 -23 -24 -62q0 -32 25 -56q26 -24 63 -24q35 0 63 23q27 22 27 57
q0 39 -26 62q-25 22 -64 22zM377 -92q40 0 64 23q26 24 26 63q0 37 -27 61q-28 25 -65 25q-41 0 -67 -24q-25 -24 -25 -62q0 -40 26 -63t68 -23z" />
    <glyph glyph-name="nineinferior" unicode="&#x2089;" horiz-adv-x="706" 
d="M666 262q0 -108 -70 -192l-234 -318h-247l159 221q-101 24 -168 103q-65 77 -65 186q0 127 91 209t222 82q129 0 220 -82q92 -83 92 -209zM242 260q0 -52 33 -81t79 -29q44 0 77 29q34 30 34 81q0 49 -34 79t-77 30q-44 0 -79 -30q-33 -29 -33 -79z" />
    <glyph glyph-name="Euro" unicode="&#x20ac;" horiz-adv-x="1972" 
d="M1133 274q165 0 285 99t157 278l326 -80q-61 -276 -274 -440q-212 -164 -494 -164q-274 0 -487 157q-212 156 -290 408h-243v197h211l-2 47q0 23 2 43h-211v197h243q73 252 287 412q213 159 490 159q281 0 492 -162q213 -164 276 -430l-326 -94q-38 180 -157 278
q-120 99 -285 99q-136 0 -248 -71q-111 -71 -172 -191h635l-50 -197h-636l-3 -43q0 -14 3 -47h612l-49 -197h-510q62 -120 172 -188q113 -70 246 -70z" />
    <glyph glyph-name="uni2116" unicode="&#x2116;" horiz-adv-x="3012" 
d="M2300 1577q245 0 414 -155q168 -154 168 -398t-168 -398q-169 -155 -414 -155q-242 0 -410 156t-168 397t168 397t410 156zM1268 1556h336v-1556h-211l-926 950v-950h-338v1556h213l926 -972v972zM2298 748q121 0 199 78q79 79 79 198t-79 198q-78 78 -199 78
q-111 0 -190 -79q-78 -78 -78 -197t78 -197q79 -79 190 -79z" />
    <glyph glyph-name="uni2117" unicode="&#x2117;" horiz-adv-x="1710" 
d="M856 1587q330 0 563 -232q234 -233 234 -583q0 -347 -233 -575q-232 -228 -564 -228q-330 0 -565 229q-234 228 -234 574q0 350 234 583q233 232 565 232zM856 90q278 0 472 195q194 196 194 489q0 299 -195 497q-194 197 -471 197q-279 0 -473 -197q-195 -198 -195 -497
q0 -294 195 -489t473 -195zM555 1169h397q151 0 234 -70q84 -71 84 -190q0 -125 -88 -197q-90 -73 -238 -73h-196v-285h-193v815zM748 805h219q114 0 114 102q0 94 -114 94h-219v-196z" />
    <glyph glyph-name="trademark" unicode="&#x2122;" horiz-adv-x="1411" 
d="M598 1405h-174v-416h-180v416h-172v151h526v-151zM1317 989h-168v289l-115 -174h-90l-115 174v-289h-170v567h164l166 -245l166 245h162v-567z" />
    <glyph glyph-name="oneeighth" unicode="&#x215b;" horiz-adv-x="1538" 
d="M195 1260l-179 -62v217l359 141h43v-784h-223v488zM1298 1556l-991 -1556h-192l993 1556h190zM1346 418q133 -55 133 -195q0 -101 -87 -167t-231 -66q-141 0 -228 66t-87 167q0 140 133 195q-102 53 -102 166q0 91 82 157q83 66 204 66t204 -66t83 -157q0 -115 -104 -166
zM1161 645q-40 0 -63 -22q-25 -23 -25 -62q0 -32 26 -56q25 -24 62 -24q36 0 64 23q26 22 26 57q0 40 -25 62t-65 22zM1163 162q41 0 65 23q25 24 25 63q0 38 -26 61q-28 25 -66 25q-41 0 -66 -24q-26 -24 -26 -62q0 -39 27 -63q26 -23 67 -23z" />
    <glyph glyph-name="threeeighths" unicode="&#x215c;" horiz-adv-x="1683" 
d="M678 1032q0 -125 -86 -202q-85 -76 -225 -76q-134 0 -222 70t-100 175l209 37q7 -43 39 -70q31 -26 72 -26q42 0 71 23t29 63t-27 64t-71 24h-158l-8 25l149 225h-268l6 192h580v-63l-160 -221q81 -28 125 -89q45 -63 45 -151zM1440 1556l-994 -1556h-190l991 1556h193z
M1493 418q133 -55 133 -195q0 -101 -87 -167t-230 -66q-142 0 -229 66t-87 167q0 140 133 195q-102 53 -102 166q0 91 83 157t204 66t203 -66q83 -66 83 -157q0 -115 -104 -166zM1309 645q-41 0 -64 -22q-24 -23 -24 -62q0 -32 25 -56q26 -24 63 -24q35 0 63 23q27 22 27 57
q0 39 -26 62q-25 22 -64 22zM1311 162q40 0 64 23q26 24 26 63q0 37 -27 61q-28 25 -65 25q-41 0 -67 -24q-25 -24 -25 -62q0 -40 26 -63t68 -23z" />
    <glyph glyph-name="fiveeighths" unicode="&#x215d;" horiz-adv-x="1656" 
d="M657 1032q0 -125 -83 -202q-82 -76 -218 -76q-129 0 -214 70t-97 175l209 37q16 -96 100 -96q39 0 65 23q25 22 25 63q0 42 -28 63t-72 21h-266l63 446h484v-192h-314l-10 -78h94q119 0 191 -69q71 -68 71 -185zM1405 1556l-993 -1556h-191l991 1556h193zM1464 418
q133 -55 133 -195q0 -101 -87 -167t-230 -66q-141 0 -228 66t-87 167q0 140 133 195q-103 53 -103 166q0 91 83 157q82 66 204 66t204 -66q83 -66 83 -157q0 -115 -105 -166zM1280 645q-40 0 -63 -22q-25 -23 -25 -62q0 -32 26 -56t62 -24q35 0 63 23q27 22 27 57
q0 40 -25 62t-65 22zM1282 162q41 0 65 23q25 24 25 63q0 38 -26 61q-28 25 -66 25q-41 0 -67 -24q-25 -24 -25 -62q0 -40 26 -63t68 -23z" />
    <glyph glyph-name="seveneighths" unicode="&#x215e;" horiz-adv-x="1492" 
d="M342 1364h-315v192h596v-40l-312 -744h-231zM1214 1556l-991 -1556h-192l991 1556h192zM1300 418q134 -56 134 -195q0 -101 -87 -167t-231 -66q-141 0 -228 66t-87 167q0 140 133 195q-103 53 -103 166q0 91 83 157q82 66 204 66t204 -66q83 -66 83 -157
q0 -115 -105 -166zM1116 645q-40 0 -63 -22q-25 -23 -25 -62q0 -32 26 -56t62 -24t64 23q26 22 26 57q0 40 -25 62t-65 22zM1118 162q41 0 65 23q25 24 25 63q0 38 -26 61q-28 25 -66 25q-40 0 -66 -24t-26 -62q0 -39 27 -63q26 -23 67 -23z" />
    <glyph glyph-name="arrowleft" unicode="&#x2190;" horiz-adv-x="1714" 
d="M1632 635h-991l315 -318l-213 -213l-682 682l684 684l213 -215l-317 -317h991v-303z" />
    <glyph glyph-name="arrowup" unicode="&#x2191;" horiz-adv-x="1529" 
d="M1235 676l-317 315v-991h-304v991l-317 -317l-215 213l684 684l682 -682z" />
    <glyph glyph-name="arrowright" unicode="&#x2192;" horiz-adv-x="1714" 
d="M1653 786l-682 -682l-213 213l315 318h-991v303h991l-317 317l213 215z" />
    <glyph glyph-name="arrowdown" unicode="&#x2193;" horiz-adv-x="1529" 
d="M1448 668l-682 -682l-684 684l215 213l317 -318v991h304v-991l317 316z" />
    <glyph glyph-name="uni2196" unicode="&#x2196;" horiz-adv-x="1714" 
d="M1419 -14l-1057 1056v-493h-301v1007h1006v-301l-489 -2l1054 -1054z" />
    <glyph glyph-name="uni2197" unicode="&#x2197;" horiz-adv-x="1714" 
d="M1653 1556v-1007h-303v491l-1055 -1054l-213 213l1055 1054l-490 2l-2 301h1008z" />
    <glyph glyph-name="uni2198" unicode="&#x2198;" horiz-adv-x="1714" 
d="M1653 1008v-1008h-1008l2 301l490 2l-1055 1055l213 213l1055 -1055v492h303z" />
    <glyph glyph-name="uni2199" unicode="&#x2199;" horiz-adv-x="1714" 
d="M578 303l489 -2v-301h-1006v1008h301v-494l1057 1057l213 -213z" />
    <glyph glyph-name="minus" unicode="&#x2212;" horiz-adv-x="1173" 
d="M1071 487h-969v269h969v-269z" />
    <glyph glyph-name="approxequal" unicode="&#x2248;" horiz-adv-x="1171" 
d="M1069 942v-248q-89 -43 -217 -43q-111 0 -254 49q-145 50 -248 50q-166 0 -248 -60v244q84 63 248 63q108 0 255 -49t251 -49q134 0 213 43zM1069 618v-245q-95 -45 -217 -45q-109 0 -254 50t-248 50q-164 0 -248 -59v241q88 66 248 66q108 0 255 -49t251 -49
q132 0 213 40z" />
    <glyph glyph-name="notequal" unicode="&#x2260;" horiz-adv-x="1173" 
d="M756 719l-80 -146h395v-260h-536l-86 -157h-252l86 157h-181v260h322l80 146h-402v260h543l82 151h252l-82 -151h174v-260h-315z" />
    <glyph glyph-name="lessequal" unicode="&#x2264;" horiz-adv-x="935" 
d="M858 442l-792 234v307l792 234v-293l-477 -95l477 -100v-287zM858 410v-267h-792v267h792z" />
    <glyph glyph-name="greaterequal" unicode="&#x2265;" horiz-adv-x="935" 
d="M559 829l-477 95v293l792 -234v-307l-792 -234v287zM874 143h-792v267h792v-267z" />
    <glyph glyph-name="K.ss03" horiz-adv-x="1716" 
d="M1722 0h-456l-424 522l-375 -522h-338v1556h338v-985l717 985h401l-532 -741z" />
    <glyph glyph-name="Kcommaaccent.ss03" horiz-adv-x="1716" 
d="M1722 0h-456l-424 522l-375 -522h-338v1556h338v-985l717 985h401l-532 -741zM709 -92h331l-202 -322h-234z" />
    <glyph glyph-name="Q.ss04" horiz-adv-x="1779" 
d="M1495 -297l-276 332q-153 -66 -330 -66q-343 0 -580 234t-237 571q0 340 237 577q236 236 580 236q343 0 580 -236q239 -237 239 -577q0 -334 -233 -567l247 -299zM889 276q66 0 117 15l-277 332l248 186l289 -348q102 135 102 313q0 216 -138 360t-341 144t-341 -144
t-138 -360q0 -212 138 -355t341 -143z" />
    <glyph glyph-name="I.ss05" horiz-adv-x="1169" 
d="M754 1262v-967h333v-295h-1005v295h334v967h-334v294h1005v-294h-333z" />
    <glyph glyph-name="IJ.ss05" horiz-adv-x="2641" 
d="M1087 1556v-294h-333v-967h333v-295h-1005v295h334v967h-334v294h1005zM2517 1556v-860q0 -330 -183 -529q-183 -200 -485 -200q-245 0 -418 131t-233 361l322 112q28 -135 115 -211q85 -75 214 -75q150 0 240 112t90 305v560h-690v294h1028z" />
    <glyph glyph-name="Iacute.ss05" horiz-adv-x="1169" 
d="M735 1690h-291l146 311h389zM754 1262v-967h333v-295h-1005v295h334v967h-334v294h1005v-294h-333z" />
    <glyph glyph-name="Icircumflex.ss05" horiz-adv-x="1169" 
d="M506 1683h-316l236 318h326l237 -318h-317l-82 115zM754 1262v-967h333v-295h-1005v295h334v967h-334v294h1005v-294h-333z" />
    <glyph glyph-name="Idieresis.ss05" horiz-adv-x="1169" 
d="M342 1667q-79 0 -131 50q-51 49 -51 128q0 75 52 127q53 53 130 53q78 0 131 -53t53 -127q0 -79 -52 -128q-53 -50 -132 -50zM834 1667q-80 0 -132 50q-51 49 -51 128q0 75 52 127q53 53 131 53t131 -53t53 -127q0 -79 -52 -128q-53 -50 -132 -50zM754 1262v-967h333
v-295h-1005v295h334v967h-334v294h1005v-294h-333z" />
    <glyph glyph-name="Idotaccent.ss05" horiz-adv-x="1169" 
d="M586 1661q-82 0 -133 52q-52 54 -52 130q0 74 53 127t132 53q80 0 133 -53t53 -127q0 -78 -52 -130t-134 -52zM754 1262v-967h333v-295h-1005v295h334v967h-334v294h1005v-294h-333z" />
    <glyph glyph-name="Igrave.ss05" horiz-adv-x="1169" 
d="M446 1690l-243 311h389l145 -311h-291zM754 1262v-967h333v-295h-1005v295h334v967h-334v294h1005v-294h-333z" />
    <glyph glyph-name="Imacron.ss05" horiz-adv-x="1169" 
d="M928 1696h-680v254h680v-254zM754 1262v-967h333v-295h-1005v295h334v967h-334v294h1005v-294h-333z" />
    <glyph glyph-name="Iogonek.ss05" horiz-adv-x="1169" 
d="M754 1262v-967h333v-295h-335q-3 -4 -34 -37q-22 -23 -29 -32q-19 -23 -21 -25q-14 -15 -19 -24q-6 -10 -10 -18q-7 -14 -8 -21q-2 -12 -2 -19q0 -49 57 -49q38 0 102 20l13 -186q-95 -45 -191 -45q-91 0 -150 50t-59 140q0 131 138 246h-457v295h334v967h-334v294h1005
v-294h-333z" />
    <glyph glyph-name="J.ss05" horiz-adv-x="1472" 
d="M1348 1556v-860q0 -328 -184 -529q-183 -200 -484 -200q-246 0 -419 131q-172 130 -232 361l321 112q28 -134 116 -211q85 -75 214 -75q150 0 240 112q90 113 90 305v560h-691v294h1029z" />
    <glyph glyph-name="P.ss08" horiz-adv-x="1552" 
d="M129 1556h694q302 0 483 -163t181 -435q0 -268 -184 -436q-185 -168 -480 -168h-356v-354h-338v1556zM467 649h350q146 0 246 86q98 85 98 223q0 139 -98 221q-100 83 -246 83h-350v-613z" />
    <glyph glyph-name="R.ss08" horiz-adv-x="1605" 
d="M1591 0h-430l-330 354h-8h-356v-354h-338v1556h694q302 0 483 -163t181 -435q0 -174 -82 -310t-227 -212zM467 649h350q146 0 246 86q98 85 98 223q0 139 -98 221q-100 83 -246 83h-350v-613z" />
    <glyph glyph-name="Racute.ss08" horiz-adv-x="1605" 
d="M895 1690h-291l146 311h389zM1591 0h-430l-330 354h-8h-356v-354h-338v1556h694q302 0 483 -163t181 -435q0 -174 -82 -310t-227 -212zM467 649h350q146 0 246 86q98 85 98 223q0 139 -98 221q-100 83 -246 83h-350v-613z" />
    <glyph glyph-name="Rcaron.ss08" horiz-adv-x="1605" 
d="M586 1683l-236 318h316l84 -115l81 115h318l-238 -318h-325zM1591 0h-430l-330 354h-8h-356v-354h-338v1556h694q302 0 483 -163t181 -435q0 -174 -82 -310t-227 -212zM467 649h350q146 0 246 86q98 85 98 223q0 139 -98 221q-100 83 -246 83h-350v-613z" />
    <glyph glyph-name="Rcommaaccent.ss08" horiz-adv-x="1605" 
d="M1591 0h-430l-330 354h-8h-356v-354h-338v1556h694q302 0 483 -163t181 -435q0 -174 -82 -310t-227 -212zM467 649h350q146 0 246 86q98 85 98 223q0 139 -98 221q-100 83 -246 83h-350v-613zM629 -92h332l-203 -322h-234z" />
    <glyph glyph-name="E.ss09" horiz-adv-x="1390" 
d="M1296 295v-295h-1177v1556h1167v-296h-829v-330h815v-295h-815v-340h839z" />
    <glyph glyph-name="Eacute.ss09" horiz-adv-x="1390" 
d="M883 1690h-291l145 311h389zM1296 295v-295h-1177v1556h1167v-296h-829v-330h815v-295h-815v-340h839z" />
    <glyph glyph-name="Ecaron.ss09" horiz-adv-x="1390" 
d="M571 1683l-235 318h315l84 -115l82 115h318l-238 -318h-326zM1296 295v-295h-1177v1556h1167v-296h-829v-330h815v-295h-815v-340h839z" />
    <glyph glyph-name="Ecircumflex.ss09" horiz-adv-x="1390" 
d="M651 1683h-315l235 318h326l238 -318h-318l-82 115zM1296 295v-295h-1177v1556h1167v-296h-829v-330h815v-295h-815v-340h839z" />
    <glyph glyph-name="Edieresis.ss09" horiz-adv-x="1390" 
d="M487 1667q-79 0 -131 50q-51 49 -51 128q0 75 52 127q53 53 130 53q78 0 131 -53q54 -54 54 -127q0 -79 -52 -128q-53 -50 -133 -50zM979 1667q-79 0 -131 50q-51 49 -51 128q0 75 52 127q53 53 130 53q78 0 131 -53t53 -127q0 -79 -52 -128q-53 -50 -132 -50zM1296 295
v-295h-1177v1556h1167v-296h-829v-330h815v-295h-815v-340h839z" />
    <glyph glyph-name="Edotaccent.ss09" horiz-adv-x="1390" 
d="M731 1661q-80 0 -132 52t-52 130q0 75 52 127q53 53 132 53q80 0 133 -53q54 -54 54 -127q0 -77 -53 -130q-52 -52 -134 -52zM1296 295v-295h-1177v1556h1167v-296h-829v-330h815v-295h-815v-340h839z" />
    <glyph glyph-name="Egrave.ss09" horiz-adv-x="1390" 
d="M592 1690l-244 311h389l146 -311h-291zM1296 295v-295h-1177v1556h1167v-296h-829v-330h815v-295h-815v-340h839z" />
    <glyph glyph-name="Emacron.ss09" horiz-adv-x="1390" 
d="M1073 1696h-680v254h680v-254zM1296 295v-295h-1177v1556h1167v-296h-829v-330h815v-295h-815v-340h839z" />
    <glyph glyph-name="Eogonek.ss09" horiz-adv-x="1390" 
d="M1296 0h-67q-3 -4 -34 -37q-22 -23 -29 -32q-19 -23 -21 -25q-14 -15 -19 -24q-6 -10 -10 -18q-7 -14 -8 -21q-2 -12 -2 -19q0 -49 57 -49q39 0 103 20l12 -186q-94 -45 -191 -45q-91 0 -150 50q-58 49 -58 140q0 132 137 246h-897v1556h1167v-296h-829v-330h815v-295
h-815v-340h839v-295z" />
    <glyph glyph-name="F.ss09" horiz-adv-x="1337" 
d="M467 1262v-332h776v-295h-776v-635h-338v1556h1163v-294h-825z" />
    <glyph glyph-name="M.ss10" horiz-adv-x="2019" 
d="M1890 1556v-1556h-327v823l-502 -706h-100l-504 708v-825h-328v1556h209l672 -972l676 972h204z" />
    <glyph glyph-name="N.ss12" horiz-adv-x="1746" 
d="M1618 1556v-1556h-336v451l-815 583v-1034h-338v1556h213l940 -702v702h336z" />
    <glyph glyph-name="Nacute.ss12" horiz-adv-x="1746" 
d="M1008 1690h-291l145 311h389zM1618 1556v-1556h-336v451l-815 583v-1034h-338v1556h213l940 -702v702h336z" />
    <glyph glyph-name="Ncaron.ss12" horiz-adv-x="1746" 
d="M696 1683l-235 318h315l84 -115l82 115h318l-238 -318h-326zM1618 1556v-1556h-336v451l-815 583v-1034h-338v1556h213l940 -702v702h336z" />
    <glyph glyph-name="Ncommaaccent.ss12" horiz-adv-x="1746" 
d="M1618 1556v-1556h-336v451l-815 583v-1034h-338v1556h213l940 -702v702h336zM741 -92h332l-203 -322h-233z" />
    <glyph glyph-name="Eng.ss12" horiz-adv-x="1734" 
d="M1618 1556v-1830q0 -144 -90 -232q-89 -88 -238 -88q-120 0 -258 47l39 279q89 -21 125 -21q86 0 86 76v664l-815 583v-1034h-338v1556h213l940 -702v702h336z" />
    <glyph glyph-name="Ntilde.ss12" horiz-adv-x="1746" 
d="M764 1782q-53 0 -64 -68h-198q0 156 69 234q68 77 166 77q74 0 142 -37q70 -38 106 -38q54 0 64 73h198q0 -160 -68 -237q-69 -78 -169 -78q-73 0 -141 37t-105 37zM1618 1556v-1556h-336v451l-815 583v-1034h-338v1556h213l940 -702v702h336z" />
    <glyph glyph-name="G.ss14" horiz-adv-x="1804" 
d="M1681 762v-762h-262l-18 184q-184 -217 -510 -217q-346 0 -583 234q-236 233 -236 575q0 343 235 577t578 234q261 0 466 -128q203 -127 281 -353l-325 -94q-123 266 -422 266q-201 0 -337 -144q-136 -143 -136 -358q0 -214 139 -357q140 -145 346 -145q255 0 379 199
h-510v289h915z" />
    <glyph glyph-name="Gbreve.ss14" horiz-adv-x="1804" 
d="M895 1655q-167 0 -265 88q-100 89 -100 235h258q0 -43 31 -74q30 -30 76 -30q47 0 77 30q29 29 29 74h259q0 -146 -100 -235q-98 -88 -265 -88zM1681 762v-762h-262l-18 184q-184 -217 -510 -217q-346 0 -583 234q-236 233 -236 575q0 343 235 577t578 234
q261 0 466 -128q203 -127 281 -353l-325 -94q-123 266 -422 266q-201 0 -337 -144q-136 -143 -136 -358q0 -214 139 -357q140 -145 346 -145q255 0 379 199h-510v289h915z" />
    <glyph glyph-name="Gcommaaccent.ss14" horiz-adv-x="1804" 
d="M1681 762v-762h-262l-18 184q-184 -217 -510 -217q-346 0 -583 234q-236 233 -236 575q0 343 235 577t578 234q261 0 466 -128q203 -127 281 -353l-325 -94q-123 266 -422 266q-201 0 -337 -144q-136 -143 -136 -358q0 -214 139 -357q140 -145 346 -145q255 0 379 199
h-510v289h915zM717 -92h332l-203 -322h-234z" />
    <glyph glyph-name="Gdotaccent.ss14" horiz-adv-x="1804" 
d="M893 1661q-82 0 -133 52q-51 53 -51 130q0 75 52 127q53 53 132 53q80 0 133 -53t53 -127q0 -78 -52 -130t-134 -52zM1681 762v-762h-262l-18 184q-184 -217 -510 -217q-346 0 -583 234q-236 233 -236 575q0 343 235 577t578 234q261 0 466 -128q203 -127 281 -353
l-325 -94q-123 266 -422 266q-201 0 -337 -144q-136 -143 -136 -358q0 -214 139 -357q140 -145 346 -145q255 0 379 199h-510v289h915z" />
    <glyph glyph-name="i.loclTRK" horiz-adv-x="608" 
d="M303 1542q80 0 133 -53t53 -127q0 -78 -52 -130t-134 -52t-133 51t-51 131q0 75 52 127q53 53 132 53zM467 0h-326v1028h326v-1028z" />
    <glyph glyph-name="germandbls.case" horiz-adv-x="2779" 
d="M686 1587q242 0 401 -117q160 -118 203 -327l-336 -70q-21 114 -95 170q-75 57 -175 57q-86 0 -147 -44q-60 -44 -60 -123q0 -109 131 -148l330 -98q183 -55 277 -158t94 -276q0 -232 -170 -358q-169 -126 -426 -126q-251 0 -430 123q-178 123 -207 344l352 72
q50 -246 303 -246q110 0 169 46q61 47 61 126q0 60 -36 97q-37 39 -116 61l-299 82q-178 51 -286 150q-107 98 -107 284q0 224 156 351q157 128 413 128zM2077 1587q242 0 401 -117q160 -118 203 -327l-336 -70q-21 114 -95 170q-75 57 -175 57q-87 0 -148 -44
q-59 -43 -59 -123q0 -109 131 -148l330 -98q183 -55 277 -158q93 -102 93 -276q0 -232 -170 -358q-169 -126 -426 -126q-251 0 -430 123q-178 123 -207 344l353 72q49 -246 303 -246q110 0 169 46q60 46 60 126q0 60 -36 97q-38 39 -115 61l-299 82q-178 51 -286 150
t-108 284q0 223 157 351t413 128z" />
    <glyph glyph-name="a.ss01" horiz-adv-x="1329" 
d="M1200 1028v-1028h-328v82q-125 -113 -319 -113q-208 0 -355 153t-147 392q0 238 147 391q148 154 355 154q194 0 319 -113v82h328zM621 248q102 0 177 75q74 74 74 191q0 116 -74 191t-177 75q-111 0 -179 -74q-69 -75 -69 -192q0 -118 69 -192t179 -74z" />
    <glyph glyph-name="aacute.ss01" horiz-adv-x="1329" 
d="M807 1208h-291l146 312h389zM1200 1028v-1028h-328v82q-125 -113 -319 -113q-208 0 -355 153t-147 392q0 238 147 391q148 154 355 154q194 0 319 -113v82h328zM621 248q102 0 177 75q74 74 74 191q0 116 -74 191t-177 75q-111 0 -179 -74q-69 -75 -69 -192
q0 -118 69 -192t179 -74z" />
    <glyph glyph-name="abreve.ss01" horiz-adv-x="1329" 
d="M657 1174q-167 0 -265 88q-99 88 -99 235h258q0 -44 31 -75q29 -29 75 -29q48 0 77 29q30 30 30 75h258q0 -147 -99 -235q-98 -88 -266 -88zM1200 1028v-1028h-328v82q-125 -113 -319 -113q-208 0 -355 153t-147 392q0 238 147 391q148 154 355 154q194 0 319 -113v82
h328zM621 248q102 0 177 75q74 74 74 191q0 116 -74 191t-177 75q-111 0 -179 -74q-69 -75 -69 -192q0 -118 69 -192t179 -74z" />
    <glyph glyph-name="acircumflex.ss01" horiz-adv-x="1329" 
d="M575 1202h-315l236 318h325l238 -318h-318l-82 115zM1200 1028v-1028h-328v82q-125 -113 -319 -113q-208 0 -355 153t-147 392q0 238 147 391q148 154 355 154q194 0 319 -113v82h328zM621 248q102 0 177 75q74 74 74 191q0 116 -74 191t-177 75q-111 0 -179 -74
q-69 -75 -69 -192q0 -118 69 -192t179 -74z" />
    <glyph glyph-name="adieresis.ss01" horiz-adv-x="1329" 
d="M412 1186q-79 0 -131 50t-52 128q0 74 53 127t130 53q78 0 131 -53t53 -127q0 -79 -52 -128q-53 -50 -132 -50zM903 1186q-79 0 -131 50q-51 50 -51 128q0 75 52 127q53 53 130 53q78 0 131 -53t53 -127q0 -79 -52 -128q-53 -50 -132 -50zM1200 1028v-1028h-328v82
q-125 -113 -319 -113q-208 0 -355 153t-147 392q0 238 147 391q148 154 355 154q194 0 319 -113v82h328zM621 248q102 0 177 75q74 74 74 191q0 116 -74 191t-177 75q-111 0 -179 -74q-69 -75 -69 -192q0 -118 69 -192t179 -74z" />
    <glyph glyph-name="agrave.ss01" horiz-adv-x="1329" 
d="M516 1208l-244 312h390l145 -312h-291zM1200 1028v-1028h-328v82q-125 -113 -319 -113q-208 0 -355 153t-147 392q0 238 147 391q148 154 355 154q194 0 319 -113v82h328zM621 248q102 0 177 75q74 74 74 191q0 116 -74 191t-177 75q-111 0 -179 -74q-69 -75 -69 -192
q0 -118 69 -192t179 -74z" />
    <glyph glyph-name="amacron.ss01" horiz-adv-x="1329" 
d="M997 1214h-680v254h680v-254zM1200 1028v-1028h-328v82q-125 -113 -319 -113q-208 0 -355 153t-147 392q0 238 147 391q148 154 355 154q194 0 319 -113v82h328zM621 248q102 0 177 75q74 74 74 191q0 116 -74 191t-177 75q-111 0 -179 -74q-69 -75 -69 -192
q0 -118 69 -192t179 -74z" />
    <glyph glyph-name="aogonek.ss01" horiz-adv-x="1329" 
d="M1235 -205l12 -186q-95 -45 -190 -45q-92 0 -151 50q-58 49 -58 140q0 132 137 246h-113v82q-125 -113 -319 -113q-208 0 -355 153t-147 392q0 238 147 391q148 154 355 154q194 0 319 -113v82h328v-1028h-2q-3 -4 -34 -37q-12 -13 -28 -32q-8 -10 -22 -25
q-11 -12 -18 -24l-4 -6q-5 -7 -7 -12q-7 -14 -8 -21q-2 -12 -2 -19q0 -49 58 -49q38 0 102 20zM621 248q102 0 177 75q74 74 74 191q0 116 -74 191t-177 75q-111 0 -179 -74q-69 -75 -69 -192q0 -118 69 -192t179 -74z" />
    <glyph glyph-name="aring.ss01" horiz-adv-x="1329" 
d="M657 1159q-107 0 -183 73q-75 72 -75 177q0 107 75 179q76 73 183 73q108 0 184 -73q74 -71 74 -179q0 -106 -74 -177q-76 -73 -184 -73zM657 1491q-35 0 -59 -24q-25 -25 -25 -58q0 -31 25 -56q24 -24 59 -24q36 0 60 24t24 56q0 34 -24 58t-60 24zM1200 1028v-1028
h-328v82q-125 -113 -319 -113q-208 0 -355 153t-147 392q0 238 147 391q148 154 355 154q194 0 319 -113v82h328zM621 248q102 0 177 75q74 74 74 191q0 116 -74 191t-177 75q-111 0 -179 -74q-69 -75 -69 -192q0 -118 69 -192t179 -74z" />
    <glyph glyph-name="atilde.ss01" horiz-adv-x="1329" 
d="M563 1300q-53 0 -63 -67h-199q0 154 70 233q69 78 166 78q71 0 141 -38t106 -38q53 0 64 74h199q0 -159 -69 -237t-169 -78q-72 0 -140 37q-66 36 -106 36zM1200 1028v-1028h-328v82q-125 -113 -319 -113q-208 0 -355 153t-147 392q0 238 147 391q148 154 355 154
q194 0 319 -113v82h328zM621 248q102 0 177 75q74 74 74 191q0 116 -74 191t-177 75q-111 0 -179 -74q-69 -75 -69 -192q0 -118 69 -192t179 -74z" />
    <glyph glyph-name="l.ss02" horiz-adv-x="694" 
d="M432 1638v-1288q0 -41 27 -65q28 -25 71 -25q35 0 119 29l51 -256q-133 -64 -241 -64q-159 0 -257 99q-98 100 -98 258v1312h328z" />
    <glyph glyph-name="lacute.ss02" horiz-adv-x="694" 
d="M418 1772h-291l145 311h390zM432 1638v-1288q0 -41 27 -65q28 -25 71 -25q35 0 119 29l51 -256q-133 -64 -241 -64q-159 0 -257 99q-98 100 -98 258v1312h328z" />
    <glyph glyph-name="lcaron.ss02" horiz-adv-x="694" 
d="M432 1638v-1288q0 -41 27 -65q28 -25 71 -25q35 0 119 29l51 -256q-133 -64 -241 -64q-159 0 -257 99q-98 100 -98 258v1312h328zM758 1231h-236v407h307z" />
    <glyph glyph-name="lcommaaccent.ss02" horiz-adv-x="694" 
d="M432 1638v-1288q0 -41 27 -65q28 -25 71 -25q35 0 119 29l51 -256q-133 -64 -241 -64q-159 0 -257 99q-98 100 -98 258v1312h328zM137 -414l105 322h331l-202 -322h-234z" />
    <glyph glyph-name="ldot.ss02" horiz-adv-x="915" 
d="M457 1638v-1288q0 -42 26 -65q28 -25 72 -25q38 0 119 29l51 -256q-133 -64 -240 -64q-161 0 -259 99q-97 98 -97 258v1312h328zM725 897q78 0 132 -54t54 -128q0 -77 -53 -130t-133 -53q-81 0 -134 53q-52 52 -52 130q0 73 53 128q52 54 133 54z" />
    <glyph glyph-name="lslash.ss02" horiz-adv-x="780" 
d="M700 289l54 -256q-6 -2 -20 -9l-22 -11l-22 -9q-20 -8 -23 -9l-25 -8q-20 -6 -29 -7l-15 -3t-14 -3q-11 -2 -35 -4q-12 -1 -37 -1q-160 0 -257 99q-97 98 -97 258v155l-111 -59v307l111 59v850h325v-671l129 69v-307l-129 -70v-309q0 -40 28 -65t73 -25q37 0 116 29z" />
    <glyph glyph-name="k.ss03" horiz-adv-x="1349" 
d="M1352 0h-432l-254 266l-209 -266h-328v1638h328v-1120l426 510h379l-398 -506z" />
    <glyph glyph-name="kcommaaccent.ss03" horiz-adv-x="1349" 
d="M1352 0h-432l-254 266l-209 -266h-328v1638h328v-1120l426 510h379l-398 -506zM545 -92h332l-203 -322h-234z" />
    <glyph glyph-name="g.ss06" horiz-adv-x="1329" 
d="M1200 1028v-1130q0 -231 -172 -361q-173 -131 -432 -131q-364 0 -514 248l237 199q67 -87 128 -122q63 -36 153 -36q119 0 196 60q76 60 76 175v152q-125 -113 -319 -113q-208 0 -355 153t-147 392q0 238 147 391q148 154 355 154q194 0 319 -113v82h328zM621 248
q102 0 177 75q74 74 74 191q0 116 -74 191t-177 75q-111 0 -179 -74q-69 -75 -69 -192q0 -118 69 -192t179 -74z" />
    <glyph glyph-name="gbreve.ss06" horiz-adv-x="1329" 
d="M655 1174q-167 0 -265 88q-99 88 -99 235h258q0 -44 31 -75q29 -29 75 -29q48 0 77 29q30 30 30 75h258q0 -147 -99 -235q-98 -88 -266 -88zM1200 1028v-1130q0 -231 -172 -361q-173 -131 -432 -131q-364 0 -514 248l237 199q67 -87 128 -122q63 -36 153 -36
q119 0 196 60q76 60 76 175v152q-125 -113 -319 -113q-208 0 -355 153t-147 392q0 238 147 391q148 154 355 154q194 0 319 -113v82h328zM621 248q102 0 177 75q74 74 74 191q0 116 -74 191t-177 75q-111 0 -179 -74q-69 -75 -69 -192q0 -118 69 -192t179 -74z" />
    <glyph glyph-name="gcommaaccent.ss06" horiz-adv-x="1329" 
d="M772 1194h-332l203 319h234zM1200 1028v-1130q0 -231 -172 -361q-173 -131 -432 -131q-364 0 -514 248l237 199q67 -87 128 -122q63 -36 153 -36q119 0 196 60q76 60 76 175v152q-125 -113 -319 -113q-208 0 -355 153t-147 392q0 238 147 391q148 154 355 154
q194 0 319 -113v82h328zM621 248q102 0 177 75q74 74 74 191q0 116 -74 191t-177 75q-111 0 -179 -74q-69 -75 -69 -192q0 -118 69 -192t179 -74z" />
    <glyph glyph-name="gdotaccent.ss06" horiz-adv-x="1329" 
d="M653 1180q-79 0 -132 51q-52 51 -52 131q0 75 52 127q53 53 132 53q80 0 133 -53q54 -54 54 -127q0 -77 -53 -130q-52 -52 -134 -52zM1200 1028v-1130q0 -231 -172 -361q-173 -131 -432 -131q-364 0 -514 248l237 199q67 -87 128 -122q63 -36 153 -36q119 0 196 60
q76 60 76 175v152q-125 -113 -319 -113q-208 0 -355 153t-147 392q0 238 147 391q148 154 355 154q194 0 319 -113v82h328zM621 248q102 0 177 75q74 74 74 191q0 116 -74 191t-177 75q-111 0 -179 -74q-69 -75 -69 -192q0 -118 69 -192t179 -74z" />
    <glyph glyph-name="y.ss07" horiz-adv-x="1275" 
d="M1147 1028v-1145q0 -210 -157 -344q-155 -133 -408 -133q-372 0 -519 248l238 199q63 -86 128 -122t153 -36q106 0 171 62q66 63 66 153v188q-123 -129 -315 -129q-181 0 -290 118q-110 119 -110 310v631h326v-561q0 -90 49 -146q49 -57 127 -57q100 0 157 71
q56 69 56 216v477h328z" />
    <glyph glyph-name="yacute.ss07" horiz-adv-x="1275" 
d="M778 1208h-291l146 312h389zM1147 1028v-1145q0 -210 -157 -344q-155 -133 -408 -133q-372 0 -519 248l238 199q63 -86 128 -122t153 -36q106 0 171 62q66 63 66 153v188q-123 -129 -315 -129q-181 0 -290 118q-110 119 -110 310v631h326v-561q0 -90 49 -146
q49 -57 127 -57q100 0 157 71q56 69 56 216v477h328z" />
    <glyph glyph-name="ycircumflex.ss07" horiz-adv-x="1275" 
d="M549 1202h-316l236 318h326l237 -318h-317l-82 115zM1147 1028v-1145q0 -210 -157 -344q-155 -133 -408 -133q-372 0 -519 248l238 199q63 -86 128 -122t153 -36q106 0 171 62q66 63 66 153v188q-123 -129 -315 -129q-181 0 -290 118q-110 119 -110 310v631h326v-561
q0 -90 49 -146q49 -57 127 -57q100 0 157 71q56 69 56 216v477h328z" />
    <glyph glyph-name="ydieresis.ss07" horiz-adv-x="1275" 
d="M385 1186q-79 0 -131 50q-51 50 -51 128q0 75 52 127q53 53 130 53q78 0 131 -53t53 -127q0 -79 -52 -128q-53 -50 -132 -50zM877 1186q-80 0 -132 50q-51 50 -51 128q0 75 52 127q53 53 131 53t131 -53t53 -127q0 -79 -52 -128q-53 -50 -132 -50zM1147 1028v-1145
q0 -210 -157 -344q-155 -133 -408 -133q-372 0 -519 248l238 199q63 -86 128 -122t153 -36q106 0 171 62q66 63 66 153v188q-123 -129 -315 -129q-181 0 -290 118q-110 119 -110 310v631h326v-561q0 -90 49 -146q49 -57 127 -57q100 0 157 71q56 69 56 216v477h328z" />
    <glyph glyph-name="ygrave.ss07" horiz-adv-x="1275" 
d="M489 1208l-243 312h389l145 -312h-291zM1147 1028v-1145q0 -210 -157 -344q-155 -133 -408 -133q-372 0 -519 248l238 199q63 -86 128 -122t153 -36q106 0 171 62q66 63 66 153v188q-123 -129 -315 -129q-181 0 -290 118q-110 119 -110 310v631h326v-561q0 -90 49 -146
q49 -57 127 -57q100 0 157 71q56 69 56 216v477h328z" />
    <glyph glyph-name="germandbls.ss11" horiz-adv-x="1507" 
d="M1403 969l-363 -549q198 -29 307 -153t109 -318q0 -242 -161 -392q-162 -151 -412 -151q-185 0 -335 90t-210 246l297 133q33 -86 103 -132t151 -46q102 0 178 67t76 175q0 99 -70 163t-178 64h-277l-22 80l340 522h-479v-768h-328v1257q0 187 114 298q115 112 300 112
q109 0 202 -43l-67 -254q-51 16 -88 16q-59 0 -96 -34t-37 -95v-229h946v-59z" />
    <glyph glyph-name="j.ss13" horiz-adv-x="598" 
d="M299 1544q82 0 136 -54t54 -130q0 -78 -54 -131q-55 -53 -136 -53q-83 0 -135 52q-53 53 -53 132q0 75 53 130q52 54 135 54zM463 -573h-328v1601h328v-1601z" />
    <glyph glyph-name="ij.ss13" horiz-adv-x="1198" 
d="M299 1544q82 0 136 -54t54 -130q0 -78 -54 -131q-55 -53 -136 -53q-83 0 -135 52q-53 53 -53 132q0 75 53 130q52 54 135 54zM897 1544q82 0 136 -54t54 -130q0 -78 -54 -131q-55 -53 -136 -53q-83 0 -135 52q-53 53 -53 132q0 75 53 130q52 54 135 54zM463 0h-328v1028
h328v-1028zM1061 -573h-328v1601h328v-1601z" />
    <glyph glyph-name="f_j" horiz-adv-x="1337" 
d="M1227 1028v-1292q0 -149 -89 -240q-88 -90 -239 -90q-110 0 -215 43l49 258q51 -16 82 -16q40 0 63 22t23 60v995h-397v-768h-326v768h-178v260h178v150q0 220 148 356q147 135 385 135q195 0 385 -133l-129 -246q-118 99 -244 99q-96 0 -158 -62q-61 -61 -61 -160v-139
h723z" />
    <glyph glyph-name="f_f_f" horiz-adv-x="2269" 
d="M2275 768h-342v-768h-327v768h-387v-768h-328v768h-387v-768h-326v768h-178v260h178v150q0 220 148 356q147 135 385 135q179 0 354 -113q146 113 358 113q165 0 326 -94q110 94 276 94q126 0 222 -63l-90 -238q-43 21 -93 21q-59 0 -95 -39t-36 -103v-219h342v-260z
M891 1028v150q0 79 20 153q-90 58 -188 58q-96 0 -158 -62q-61 -61 -61 -160v-139h387zM1606 1028v219q0 48 8 90q-86 52 -176 52q-99 0 -159 -62q-60 -61 -60 -160v-139h387z" />
    <glyph glyph-name="f_k" horiz-adv-x="2013" 
d="M1589 0l-368 377v-377h-328v768h-389v-768h-326v768h-178v260h178v150q0 220 148 356q147 135 385 135q95 0 190 -31h320v-999l356 389h405l-462 -514l495 -514h-426zM893 1028v313q-82 48 -170 48q-96 0 -158 -62q-61 -61 -61 -160v-139h389z" />
    <glyph glyph-name="f_f_k" horiz-adv-x="2760" 
d="M2335 0l-367 375v-375h-328v768h-391v-768h-327v768h-418v-768h-326v768h-178v260h178v150q0 220 148 356q147 135 385 135q186 0 370 -125q148 125 373 125q96 0 191 -31h323v-999l356 389h404l-461 -514l496 -514h-428zM922 1028v150q0 68 16 135q-100 76 -215 76
q-96 0 -158 -62q-61 -61 -61 -160v-139h418zM1640 1028v311q-83 50 -172 50q-97 0 -158 -61t-61 -161v-139h391z" />
    <glyph glyph-name="r_t" horiz-adv-x="1765" 
d="M1397 768v-377q0 -61 31 -95t85 -34q77 0 150 41l78 -258q-140 -76 -281 -76q-181 0 -285 104t-104 285v410h-178q-196 0 -316 -123t-120 -323v-322h-328v1028h328v-154q154 154 383 154h231v350l326 97v-447h366v-260h-366z" />
    <glyph glyph-name="f_k.ss03" horiz-adv-x="2105" 
d="M2107 0h-432l-254 266l-209 -266h-327v768h-381v-768h-326v768h-178v260h178v150q0 220 148 356q147 135 385 135q95 0 190 -31h311v-1120l426 510h379l-397 -506zM885 1028v320q-79 41 -162 41q-96 0 -158 -62q-61 -61 -61 -160v-139h381z" />
    <glyph glyph-name="f_f_k.ss03" horiz-adv-x="2891" 
d="M2863 0h-432l-254 266l-209 -266h-328v768h-391v-768h-327v768h-418v-768h-326v768h-178v260h178v150q0 220 148 356q147 135 385 135q186 0 370 -125q148 125 373 125q96 0 191 -31h323v-1118l424 508h379l-395 -506zM922 1028v150q0 68 16 135q-100 76 -215 76
q-96 0 -158 -62q-61 -61 -61 -160v-139h418zM1640 1028v311q-83 50 -172 50q-97 0 -158 -61t-61 -161v-139h391z" />
    <glyph glyph-name="fl.ss02" horiz-adv-x="1458" 
d="M1413 289l53 -256q-3 -1 -19 -9q-18 -9 -23 -11l-21 -9q-15 -6 -24 -9l-24 -8q-20 -6 -29 -7q-5 -1 -15.5 -3t-14.5 -3q-12 -2 -34 -4q-12 -1 -37 -1q-159 0 -257 99q-98 100 -98 258v442h-366v-768h-326v768h-178v260h178v150q0 220 148 356q147 135 385 135
q95 0 190 -31h295v-1288q0 -40 28 -65t72 -25q38 0 117 29zM870 1028v326q-68 35 -147 35q-96 0 -158 -62q-61 -61 -61 -160v-139h366z" />
    <glyph glyph-name="f_h" horiz-adv-x="2039" 
d="M1538 1059q179 0 288 -118t109 -310v-631h-325v561q0 91 -49 147t-129 56q-98 0 -155 -72q-56 -71 -56 -215v-477h-328v768h-389v-768h-326v768h-178v260h178v150q0 220 148 356q147 135 385 135q95 0 190 -31h320v-708q125 129 317 129zM893 1028v313q-82 48 -170 48
q-96 0 -158 -62q-61 -61 -61 -160v-139h389z" />
    <glyph glyph-name="t_z" horiz-adv-x="1886" 
d="M1804 983l-379 -563q199 -29 310 -153q110 -123 110 -318q0 -242 -161 -392q-162 -151 -412 -151q-185 0 -335 90t-210 246l297 133q33 -86 103 -132t151 -46q102 0 178 67t76 175q0 99 -70 163t-178 64h-319l-23 65l365 537h-789v-377q0 -59 31 -95q30 -34 86 -34
q76 0 149 41l76 -258q-140 -76 -280 -76q-182 0 -286 104t-104 285v410h-194v260h194v350l328 97v-447h1286v-45z" />
    <glyph glyph-name="y_t" horiz-adv-x="2123" 
d="M1755 768v-377q0 -59 31 -95q30 -34 86 -34q76 0 149 41l76 -258q-140 -76 -280 -76q-182 0 -286 104t-104 285v410h-319l-586 -1341h-346l266 610l-428 991h346l250 -608l267 608h550v350l328 97v-447h365v-260h-365z" />
    <glyph glyph-name="L_A" horiz-adv-x="2664" 
d="M2664 0h-368l-119 264h-717l-119 -264h-1212v1556h338v-1261h645l594 1261h225zM2048 555l-227 510l-230 -510h457z" />
    <glyph glyph-name="R_A" horiz-adv-x="3145" 
d="M3146 0h-369l-119 264h-716l-119 -264h-590l-557 625h-209v-625h-338v1556h631q246 0 391 -129t145 -335q0 -140 -67 -247t-193 -165l484 -539l669 1415h224zM467 913h276q103 0 163 51q59 50 59 128q0 77 -59 127q-58 49 -163 49h-276v-355zM2529 555l-227 510
l-229 -510h456z" />
    <glyph glyph-name="t_i" horiz-adv-x="1484" 
d="M1186 1176q-85 0 -137 52q-54 54 -54 132q0 75 55 130q54 54 136 54q80 0 134 -54t54 -130q0 -78 -53 -131t-135 -53zM1350 1028v-1028h-328v768h-504v-377q0 -59 31 -95q30 -34 86 -34q76 0 149 41l76 -258q-140 -76 -280 -76q-182 0 -286 104t-104 285v410h-194v260
h194v350l328 97v-447h832z" />
    <glyph glyph-name="t_h" horiz-adv-x="2162" 
d="M1659 1059q181 0 290 -118t109 -310v-631h-327v561q0 89 -49 147q-47 56 -128 56q-97 0 -154 -72t-57 -215v-477h-327v768h-498v-377q0 -59 31 -95q30 -34 86 -34q76 0 149 41l76 -258q-140 -76 -280 -76q-182 0 -286 104t-104 285v410h-194v260h194v350l328 97v-447h498
v610h327v-708q123 129 316 129z" />
    <glyph glyph-name="t_u" horiz-adv-x="2142" 
d="M2011 1028v-1028h-325v100q-125 -131 -318 -131q-181 0 -290 118t-109 310v371h-451v-377q0 -59 31 -95q30 -34 86 -34q76 0 149 41l76 -258q-140 -76 -280 -76q-182 0 -286 104t-104 285v410h-194v260h194v350l328 97v-447h778v-561q0 -88 49 -146q48 -57 128 -57
q99 0 156 71t57 216v477h325z" />
    <glyph glyph-name="t_y" horiz-adv-x="2088" 
d="M2075 1028l-701 -1601h-346l266 610l-315 731h-461v-377q0 -59 31 -95q30 -34 86 -34q76 0 149 41l76 -258q-140 -76 -280 -76q-182 0 -286 104t-104 285v410h-194v260h194v350l328 97v-447h694l250 -608l267 608h346z" />
    <glyph glyph-name="w_w_w" horiz-adv-x="4481" 
d="M4469 1028l-389 -1030h-246l-203 530l-205 -530h-245l-246 651l-246 -651h-246l-200 530l-205 -530h-246l-246 651l-246 -651h-245l-203 530l-203 -530h-246l-389 1030h336l189 -557l204 557h218l204 -557l189 557h385l188 -555l205 555h217l205 -559l188 559h385
l189 -555l205 555h219l204 -557l189 557h336z" />
    <glyph glyph-name="W_W_W" horiz-adv-x="6049" 
d="M6035 1556l-505 -1556h-273l-344 928l-346 -928h-270l-328 1008l-328 -1008h-272l-344 928l-346 -928h-271l-327 1012l-330 -1012h-270l-344 928l-346 -928h-271l-506 1556h353l303 -933l356 933h217l359 -933l301 933h354l301 -933l358 933h215l359 -933l301 933h356
l-2 -4l301 -929l359 933h217l356 -933l303 933h354z" />
    <glyph glyph-name="r_f" horiz-adv-x="1724" 
d="M1731 768h-342v-768h-328v768h-168q-196 0 -316 -123t-120 -323v-322h-328v1028h328v-154q154 154 383 154h221v219q0 188 118 305q119 117 304 117q123 0 219 -63l-88 -238q-46 21 -94 21q-60 0 -96 -39q-35 -38 -35 -103v-219h342v-260z" />
    <glyph glyph-name="E_R" horiz-adv-x="3012" 
d="M3060 0h-414l-567 637h-199v-637h-336v639h-1077v-344h805v-295h-1143v1556h1133v-296h-795v-338h1077v634h631q248 0 390 -126q145 -128 145 -332q0 -141 -71 -248q-71 -106 -198 -162zM1880 922h281q103 0 159 49q58 50 58 127q0 76 -58 123t-159 47h-281v-346z" />
    <glyph glyph-name="f_f_j" horiz-adv-x="2052" 
d="M1942 1028v-1292q0 -149 -91 -240q-90 -90 -237 -90q-112 0 -217 43l51 258q51 -16 82 -16q39 0 61 22q23 23 23 60v995h-395v-768h-328v768h-387v-768h-326v768h-178v260h178v150q0 220 148 356q147 135 385 135q179 0 354 -113q146 113 358 113q193 0 387 -133
l-131 -246q-119 99 -241 99q-99 0 -159 -62q-60 -61 -60 -160v-139h723zM891 1028v150q0 79 20 153q-90 58 -188 58q-96 0 -158 -62q-61 -61 -61 -160v-139h387z" />
    <glyph glyph-name="f_f_l.ss02" horiz-adv-x="2172" 
d="M2128 289l51 -256q-133 -64 -240 -64q-161 0 -259 99q-97 98 -97 258v442h-364v-768h-328v768h-387v-768h-326v768h-178v260h178v150q0 220 148 356q147 135 385 135q179 0 354 -113q146 113 358 113q96 0 191 -31h297v-1288q0 -42 26 -65q28 -25 72 -25q38 0 119 29z
M891 1028v150q0 79 20 153q-90 58 -188 58q-96 0 -158 -62q-61 -61 -61 -160v-139h387zM1583 1028v326q-68 35 -145 35q-99 0 -159 -62q-60 -61 -60 -160v-139h364z" />
    <glyph glyph-name="f_f_j.ss13" horiz-adv-x="2031" 
d="M1921 1028v-1601h-326v1341h-376v-768h-328v768h-387v-768h-326v768h-178v260h178v150q0 220 148 356q147 135 385 135q179 0 354 -113q146 113 358 113q193 0 387 -133l-131 -246q-119 99 -241 99q-99 0 -159 -62q-60 -61 -60 -160v-139h702zM891 1028v150q0 79 20 153
q-90 58 -188 58q-96 0 -158 -62q-61 -61 -61 -160v-139h387z" />
    <glyph glyph-name="f_j.ss13" horiz-adv-x="1316" 
d="M1208 1028v-1601h-327v1341h-377v-768h-326v768h-178v260h178v150q0 220 148 356q147 135 385 135q195 0 385 -133l-129 -246q-118 99 -244 99q-96 0 -158 -62q-61 -61 -61 -160v-139h704z" />
    <glyph glyph-name="zero.osf" horiz-adv-x="1419" 
d="M709 1268q275 0 468 -190q191 -188 191 -460t-190 -459q-191 -188 -469 -188t-468 187t-190 460q0 271 191 460q192 190 467 190zM709 270q140 0 234 100q93 99 93 248t-93 248t-234 99q-142 0 -235 -99t-93 -248t93 -248q94 -100 235 -100z" />
    <glyph glyph-name="one.osf" horiz-adv-x="1230" 
d="M1163 299v-299h-1034v299h369v551l-281 -88v299l555 186h62v-948h329z" />
    <glyph glyph-name="two.osf" horiz-adv-x="1222" 
d="M1128 301v-301h-1083v106l492 412q115 97 161 159q47 64 47 132q0 75 -47 125q-46 49 -125 49q-83 0 -142 -55q-62 -57 -69 -164l-311 59q12 204 157 325q144 120 363 120q226 0 362 -124t136 -325q0 -85 -22 -151q-22 -65 -76 -132q-53 -65 -94 -103q-37 -34 -125 -105
l-33 -27h409z" />
    <glyph glyph-name="three.osf" horiz-adv-x="1292" 
d="M1219 1145l-398 -483q190 -33 295 -154q105 -122 105 -311q0 -238 -163 -388q-165 -151 -417 -151q-244 0 -416 142t-178 390l328 64q2 -147 83 -224q82 -77 191 -77q105 0 179 65q75 66 75 172q0 101 -68 162q-70 62 -180 62h-331l-19 51l383 483h-551l4 299h1078v-102z
" />
    <glyph glyph-name="four.osf" horiz-adv-x="1509" 
d="M1503 0h-291v-297h-323v297h-869v178l986 1067h206v-946h291v-299zM889 299v432l-383 -432h383z" />
    <glyph glyph-name="five.osf" horiz-adv-x="1302" 
d="M471 694h225q251 0 395 -135t144 -364q0 -238 -163 -388q-162 -149 -417 -149q-243 0 -415 142q-173 143 -179 390l326 64q1 -147 83 -225q81 -78 192 -78q104 0 179 66q74 65 74 173q0 101 -67 162q-68 62 -180 62h-549l127 833h932v-301h-666z" />
    <glyph glyph-name="six.osf" horiz-adv-x="1343" 
d="M1049 1556l-320 -456q230 -18 387 -175q156 -156 156 -390q0 -248 -174 -407t-424 -159q-252 0 -427 159t-175 407q0 197 118 348l476 673h383zM674 262q108 0 191 77t83 196q0 120 -83 198t-191 78q-113 0 -196 -78t-83 -198t83 -197q82 -76 196 -76z" />
    <glyph glyph-name="seven.osf" horiz-adv-x="1275" 
d="M1221 1247v-94l-656 -1462h-381l576 1255h-692v301h1153z" />
    <glyph glyph-name="eight.osf" horiz-adv-x="1349" 
d="M1010 797q111 -49 174 -149q63 -99 63 -228q0 -196 -160 -324q-158 -127 -411 -127t-413 127q-161 128 -161 324q0 127 65 227q64 99 173 150q-188 106 -188 336q0 197 152 325q153 129 372 129t372 -129q152 -128 152 -325q0 -230 -190 -336zM674 1313q-86 0 -148 -52
q-63 -53 -63 -141q0 -89 61 -141q62 -53 148 -53q87 0 152 53t65 141t-65 141q-64 52 -150 52zM672 252q94 0 162 56q69 57 69 149q0 91 -69 147q-68 55 -162 55q-92 0 -157 -55q-66 -56 -66 -147q0 -95 65 -150t158 -55z" />
    <glyph glyph-name="nine.osf" horiz-adv-x="1368" 
d="M1272 702q0 -196 -119 -348l-475 -673h-383l319 456q-230 18 -387 175q-155 155 -155 390q0 248 174 407t424 159q252 0 427 -159t175 -407zM395 702q0 -120 83 -198t192 -78q112 0 195 78t83 198t-83 197q-82 76 -195 76q-109 0 -192 -77t-83 -196z" />
    <glyph glyph-name="zero.tf" 
d="M686 1587q293 0 473 -223t180 -586q0 -365 -180 -587t-473 -222t-473 222t-180 587q0 362 180 586q180 223 473 223zM686 266q142 0 228 137q85 136 85 375q0 238 -85 374t-228 136t-228 -136t-85 -374q0 -239 85 -375q86 -137 228 -137z" />
    <glyph glyph-name="one.tf" 
d="M1262 299v-299h-1151v299h421v852l-362 -113v308l639 210h59v-1257h394z" />
    <glyph glyph-name="two.tf" 
d="M1257 301v-301h-1130v109l588 645q96 106 138 177t42 156q0 95 -58 152q-59 57 -153 57q-111 0 -178 -73q-69 -75 -76 -199l-315 59q12 231 171 367q160 137 402 137q246 0 395 -136q150 -137 150 -361q0 -80 -16 -141q-17 -63 -60 -132q-49 -77 -82 -117
q-51 -61 -121 -141l-225 -258h528z" />
    <glyph glyph-name="three.tf" 
d="M1255 1454l-397 -483q190 -33 295 -154q104 -120 104 -311q0 -239 -162 -388q-165 -151 -415 -151q-245 0 -417 143t-179 390l328 63q2 -147 83 -224q82 -77 191 -77q104 0 179 66t75 172q0 100 -69 162q-68 61 -179 61h-332l-18 51l383 483h-551l4 299h1077v-102z" />
    <glyph glyph-name="four.tf" 
d="M1339 260h-204v-260h-318v260h-790v170l909 1126h199v-1017h204v-279zM817 539v460l-350 -460h350z" />
    <glyph glyph-name="five.tf" 
d="M508 1004h225q249 0 394 -136t145 -364q0 -237 -163 -387t-417 -150q-243 0 -416 143q-172 142 -178 390l326 63q1 -147 83 -225q81 -78 191 -78q104 0 180 67q74 65 74 173q0 101 -67 162t-180 61h-549l127 833h931v-301h-665z" />
    <glyph glyph-name="six.tf" 
d="M1067 1556l-319 -456q230 -18 387 -175q155 -155 155 -390q0 -248 -174 -407t-424 -159q-252 0 -427 159t-175 407q0 196 119 348l475 673h383zM692 262q109 0 192 77t83 196q0 120 -83 198q-82 78 -192 78q-112 0 -195 -78t-83 -198t83 -197q82 -76 195 -76z" />
    <glyph glyph-name="seven.tf" 
d="M1311 1556v-153l-697 -1403h-378l643 1262h-779v294h1211z" />
    <glyph glyph-name="eight.tf" 
d="M1020 797q111 -49 174 -149q63 -99 63 -228q0 -196 -159 -324q-158 -127 -412 -127q-253 0 -413 127t-160 324q0 129 64 227q64 99 173 150q-188 106 -188 336q0 197 152 325q153 129 372 129t372 -129q152 -128 152 -325q0 -230 -190 -336zM684 1313q-85 0 -147 -52
q-64 -53 -64 -141t62 -141t147 -53q88 0 153 53q64 52 64 141t-64 141t-151 52zM682 252q94 0 162 56q69 57 69 149q0 91 -69 147q-68 55 -162 55q-92 0 -157 -55q-66 -56 -66 -147q0 -95 65 -150t158 -55z" />
    <glyph glyph-name="nine.tf" 
d="M1280 1022q0 -182 -102 -328l-492 -694h-383l320 457q-232 21 -387 176q-156 156 -156 389q0 247 175 406q176 159 425 159q252 0 426 -159t174 -406zM406 1022q0 -122 81 -199q83 -78 193 -78t193 78t83 199q0 120 -83 197q-81 75 -193 75t-193 -75t-81 -197z" />
    <glyph glyph-name="zero.zero.tf" 
d="M686 1587q293 0 473 -223t180 -586q0 -365 -180 -587t-473 -222t-473 222t-180 587q0 362 180 586q180 223 473 223zM686 1288q-143 0 -228 -136t-85 -374q0 -136 26 -231l484 649q-80 92 -197 92zM686 266q142 0 228 137q85 136 85 375q0 130 -22 217l-479 -645
q78 -84 188 -84z" />
    <glyph glyph-name="zero.zero" horiz-adv-x="1744" 
d="M872 1587q337 0 569 -236t232 -577q0 -338 -232 -571q-233 -234 -569 -234q-335 0 -568 234q-232 233 -232 571q0 341 232 577t568 236zM872 1278q-196 0 -329 -144q-133 -143 -133 -360q0 -184 102 -319l578 768q-104 55 -218 55zM872 276q196 0 330 143
q133 142 133 355q0 186 -100 320l-573 -766q101 -52 210 -52z" />
    <glyph glyph-name="zero.zero.osf" horiz-adv-x="1460" 
d="M709 1268q275 0 468 -190q191 -188 191 -460t-190 -459q-191 -188 -469 -188t-468 187t-190 460q0 271 191 460q192 190 467 190zM709 965q-142 0 -235 -99t-93 -248q0 -111 53 -196l391 522q-57 21 -116 21zM709 270q140 0 234 100q93 99 93 248q0 117 -57 203
l-395 -526q62 -25 125 -25z" />
    <glyph glyph-name="zero.dnom" horiz-adv-x="995" 
d="M498 805q182 0 309 -114t127 -296t-127 -296q-126 -113 -309 -113q-180 0 -308 114q-127 114 -127 295t127 295q129 115 308 115zM498 186q84 0 145 56q59 55 59 153q0 97 -60 152q-59 55 -144 55q-84 0 -143 -55q-60 -55 -60 -152t60 -153q61 -56 143 -56z" />
    <glyph glyph-name="one.dnom" horiz-adv-x="497" 
d="M418 0h-223v487l-179 -61v217l359 141h43v-784z" />
    <glyph glyph-name="two.dnom" horiz-adv-x="731" 
d="M446 190h211v-190h-602v45l283 320q42 49 56 65q18 21 34 51q18 33 18 58q0 36 -23 56q-24 21 -63 21q-44 0 -70 -33q-29 -36 -30 -96l-199 41q0 124 82 200q83 77 217 77q136 0 219 -71t83 -195q0 -51 -30 -110q-32 -62 -53 -87q-24 -28 -90 -102z" />
    <glyph glyph-name="three.dnom" horiz-adv-x="704" 
d="M668 725l-160 -221q81 -28 125 -89q45 -63 45 -151q0 -125 -86 -202q-85 -76 -225 -76q-134 0 -222 70t-100 175l209 37q7 -43 39 -70q31 -26 72 -26q42 0 71 23t29 63t-27 64t-71 24h-158l-8 25l149 225h-268l6 192h580v-63z" />
    <glyph glyph-name="four.dnom" horiz-adv-x="790" 
d="M758 117h-113v-117h-207v117h-401v114l495 553h113v-491h113v-176zM438 293v147l-127 -147h127z" />
    <glyph glyph-name="five.dnom" horiz-adv-x="700" 
d="M301 518h94q119 0 191 -69q71 -68 71 -185q0 -125 -83 -202q-82 -76 -218 -76q-129 0 -214 70t-97 175l209 37q16 -96 100 -96q39 0 65 23q25 22 25 63q0 42 -28 63t-72 21h-266l63 446h484v-192h-314z" />
    <glyph glyph-name="six.dnom" horiz-adv-x="706" 
d="M590 784l-160 -221q103 -24 169 -101q67 -78 67 -186q0 -127 -92 -210q-91 -82 -222 -82q-129 0 -220 82t-91 210q0 118 76 197l227 311h246zM352 170q44 0 79 29q34 28 34 77q0 51 -34 81t-79 30q-42 0 -77 -30q-33 -29 -33 -81q0 -50 33 -77q35 -29 77 -29z" />
    <glyph glyph-name="seven.dnom" horiz-adv-x="628" 
d="M610 784v-41l-311 -743h-231l262 592h-316v192h596z" />
    <glyph glyph-name="eight.dnom" horiz-adv-x="749" 
d="M559 418q133 -55 133 -195q0 -101 -87 -167t-230 -66q-142 0 -229 66t-87 167q0 139 134 195q-103 53 -103 166q0 91 83 157t204 66t204 -66t83 -157q0 -115 -105 -166zM375 645q-41 0 -64 -22q-24 -23 -24 -62q0 -32 25 -56q26 -24 63 -24q35 0 63 23q27 22 27 57
q0 39 -26 62q-25 22 -64 22zM377 162q40 0 64 23q26 24 26 63q0 37 -27 61q-28 25 -65 25q-41 0 -67 -24q-25 -24 -25 -62q0 -40 26 -63t68 -23z" />
    <glyph glyph-name="nine.dnom" horiz-adv-x="706" 
d="M666 510q0 -109 -70 -193l-234 -317h-247l159 221q-101 24 -168 103q-65 77 -65 186q0 127 91 209t222 82q129 0 220 -82q92 -83 92 -209zM242 508q0 -52 33 -81q35 -30 79 -30q42 0 77 30q34 30 34 81q0 49 -34 79q-33 29 -77 29q-46 0 -79 -29t-33 -79z" />
    <glyph glyph-name="zero.numr" horiz-adv-x="995" 
d="M498 1577q182 0 309 -114t127 -296t-127 -296q-126 -113 -309 -113q-180 0 -308 114q-127 114 -127 295t127 295q129 115 308 115zM498 958q84 0 145 56q59 55 59 153q0 97 -60 152q-59 55 -144 55q-84 0 -143 -55q-60 -55 -60 -152t60 -153q61 -56 143 -56z" />
    <glyph glyph-name="one.numr" horiz-adv-x="497" 
d="M418 772h-223v488l-179 -62v217l359 141h43v-784z" />
    <glyph glyph-name="two.numr" horiz-adv-x="731" 
d="M446 963h211v-191h-602v45l283 320q42 49 56 65q18 21 34 51q18 33 18 58q0 36 -23 56q-25 22 -63 22q-43 0 -70 -34q-29 -37 -30 -95l-199 40q0 124 82 200q83 77 217 77q136 0 219 -71t83 -195q0 -51 -30 -110q-32 -62 -53 -87q-24 -28 -90 -102z" />
    <glyph glyph-name="three.numr" horiz-adv-x="704" 
d="M668 1493l-160 -221q81 -28 125 -89q45 -63 45 -151q0 -125 -86 -202q-85 -76 -225 -76q-134 0 -222 70t-100 175l209 37q7 -43 39 -70q31 -26 72 -26q42 0 71 23t29 63t-27 64t-71 24h-158l-8 25l149 225h-268l6 192h580v-63z" />
    <glyph glyph-name="four.numr" horiz-adv-x="790" 
d="M758 889h-113v-117h-207v117h-401v115l495 552h113v-491h113v-176zM438 1065v147l-127 -147h127z" />
    <glyph glyph-name="five.numr" horiz-adv-x="700" 
d="M301 1286h94q119 0 191 -69q71 -68 71 -185q0 -125 -83 -202q-82 -76 -218 -76q-129 0 -214 70t-97 175l209 37q16 -96 100 -96q39 0 65 23q25 22 25 63q0 42 -28 63t-72 21h-266l63 446h484v-192h-314z" />
    <glyph glyph-name="six.numr" horiz-adv-x="706" 
d="M590 1556l-160 -221q103 -24 169 -101q67 -78 67 -185q0 -128 -92 -211q-91 -82 -222 -82q-129 0 -220 82t-91 211q0 117 76 196l227 311h246zM352 942q44 0 79 29q34 28 34 78t-34 80t-79 30q-42 0 -77 -30q-33 -29 -33 -80t33 -78q35 -29 77 -29z" />
    <glyph glyph-name="seven.numr" horiz-adv-x="628" 
d="M610 1556v-40l-311 -744h-231l262 592h-316v192h596z" />
    <glyph glyph-name="eight.numr" horiz-adv-x="749" 
d="M559 1188q133 -55 133 -195q0 -101 -87 -167t-230 -66q-142 0 -229 66t-87 167q0 139 134 195q-103 53 -103 166q0 91 83 157t204 66t204 -66t83 -157q0 -115 -105 -166zM375 1415q-41 0 -64 -22q-24 -23 -24 -62q0 -32 25 -56q26 -24 63 -24q35 0 63 23q27 22 27 57
q0 39 -26 62q-25 22 -64 22zM377 932q40 0 64 23q26 24 26 63q0 37 -27 61q-28 25 -65 25q-41 0 -67 -24q-25 -24 -25 -62q0 -40 26 -63t68 -23z" />
    <glyph glyph-name="nine.numr" horiz-adv-x="706" 
d="M666 1286q0 -108 -70 -192l-234 -318h-247l159 221q-101 24 -168 103q-65 77 -65 186q0 127 91 209t222 82q129 0 220 -82q92 -83 92 -209zM242 1284q0 -52 33 -81t79 -29q44 0 77 29q34 30 34 81q0 49 -34 79t-77 30q-44 0 -79 -30q-33 -29 -33 -79z" />
    <glyph glyph-name="backslash.case" horiz-adv-x="890" 
d="M842 0h-307l-486 1556h307z" />
    <glyph glyph-name="periodcentered.case" horiz-adv-x="503" 
d="M252 954q80 0 134 -54t54 -130q0 -78 -53 -131t-135 -53q-80 0 -133 53t-53 131q0 75 53 130q53 54 133 54z" />
    <glyph glyph-name="bullet.case" horiz-adv-x="847" 
d="M424 1122q154 0 257 -105q103 -104 103 -249q0 -150 -102 -250q-101 -100 -258 -100q-156 0 -257 100t-101 250q0 145 102 250q101 104 256 104z" />
    <glyph glyph-name="colon.case" horiz-adv-x="503" 
d="M252 1255q80 0 134 -55q54 -56 54 -131q0 -77 -53 -130q-52 -52 -135 -52q-81 0 -133 52q-53 53 -53 130q0 75 53 131q52 55 133 55zM252 625q79 0 134 -55q54 -54 54 -130q0 -78 -53 -131t-135 -53q-81 0 -133 52q-53 53 -53 132q0 75 53 130t133 55z" />
    <glyph glyph-name="exclamdown.case" horiz-adv-x="608" 
d="M309 1204q-82 0 -135 53t-53 129q0 79 53 130q52 51 135 51q81 0 134 -51t53 -130q0 -75 -54 -129q-53 -53 -133 -53zM123 70l20 960h324l20 -960v-70h-364v70z" />
    <glyph glyph-name="questiondown.case" horiz-adv-x="1112" 
d="M586 1202q-80 0 -133 54q-54 56 -54 128q0 78 53 129q54 52 134 52q81 0 135 -52q53 -51 53 -129q0 -73 -53 -128q-53 -54 -135 -54zM756 434l317 -65q-21 -174 -160 -288t-358 -114q-223 0 -361 126q-139 127 -139 325q0 163 100 269t271 136v207h311v-434h-164
q-87 0 -140 -49q-54 -50 -54 -125q0 -70 51 -119q50 -49 129 -49t131 47q51 46 66 133z" />
    <glyph glyph-name="semicolon.case" horiz-adv-x="573" 
d="M322 1255q81 0 133 -55q53 -56 53 -131q0 -77 -53 -130q-52 -52 -133 -52q-84 0 -136 52q-53 53 -53 130q0 75 53 131q52 55 136 55zM254 -270h-248l121 589h362v-8z" />
    <glyph glyph-name="slash.case" horiz-adv-x="985" 
d="M373 0h-277l516 1556h277z" />
    <glyph glyph-name="braceleft.case" horiz-adv-x="862" 
d="M539 1221v-199q0 -182 -125 -250q125 -63 125 -250v-186q0 -31 19 -49q21 -19 52 -19h176v-268h-272q-127 0 -204 83t-77 220v176q0 118 -122 152l-70 20v246l70 18q122 34 122 148v192q0 136 77 219q76 82 204 82h272v-268h-176q-32 0 -52 -18q-19 -18 -19 -49z" />
    <glyph glyph-name="braceright.case" horiz-adv-x="851" 
d="M811 897v-246l-70 -20q-125 -35 -125 -152v-176q0 -138 -76 -220q-77 -83 -202 -83h-272v268h174q31 0 53 19q20 17 20 49v186q0 187 125 250q-125 68 -125 250v199q0 32 -20 49q-21 18 -53 18h-174v268h272q126 0 202 -82t76 -219v-192q0 -113 125 -148z" />
    <glyph glyph-name="bracketleft.case" horiz-adv-x="849" 
d="M434 1288v-1020h340v-268h-645v1556h645v-268h-340z" />
    <glyph glyph-name="bracketright.case" horiz-adv-x="839" 
d="M711 1556v-1556h-645v268h340v1020h-340v268h645z" />
    <glyph glyph-name="parenleft.case" horiz-adv-x="716" 
d="M418 774q0 -177 56 -316q57 -141 171 -300l-211 -195q-362 368 -362 811q0 448 362 813l205 -194q-114 -164 -167 -301q-54 -140 -54 -318z" />
    <glyph glyph-name="parenright.case" horiz-adv-x="716" 
d="M78 1393l203 194q364 -364 364 -813q0 -443 -364 -811l-209 195q114 159 171 300q56 139 56 316q0 178 -54 318q-53 137 -167 301z" />
    <glyph glyph-name="emdash.case" horiz-adv-x="2560" 
d="M2437 649h-2314v252h2314v-252z" />
    <glyph glyph-name="endash.case" horiz-adv-x="1269" 
d="M1147 649h-1024v252h1024v-252z" />
    <glyph glyph-name="hyphen.case" horiz-adv-x="923" 
d="M801 637h-678v276h678v-276z" />
    <glyph glyph-name="guillemotleft.case" horiz-adv-x="1034" 
d="M51 782l215 365h307l-215 -365l215 -364h-307zM461 782l215 365h307l-215 -365l215 -364h-307z" />
    <glyph glyph-name="guillemotright.case" horiz-adv-x="1034" 
d="M51 418l215 364l-215 365h307l215 -365l-215 -364h-307zM461 418l215 364l-215 365h307l215 -365l-215 -364h-307z" />
    <glyph glyph-name="guilsinglleft.case" horiz-adv-x="624" 
d="M51 782l215 365h307l-215 -365l215 -364h-307z" />
    <glyph glyph-name="guilsinglright.case" horiz-adv-x="624" 
d="M51 418l215 364l-215 365h307l215 -365l-215 -364h-307z" />
    <glyph glyph-name="cent.tf" 
d="M932 436l301 -65q-33 -144 -134 -245q-100 -100 -245 -138v-248h-313v250q-181 47 -294 187q-114 141 -114 337q0 195 114 336q115 142 294 188v252h313v-252q143 -38 243 -135q101 -98 134 -239l-305 -74q-23 92 -83 139q-61 47 -143 47q-110 0 -181 -75
q-70 -74 -70 -187q0 -115 70 -188q71 -74 181 -74q177 0 232 184z" />
    <glyph glyph-name="dollar.tf" 
d="M1290 453q0 -189 -114 -309q-113 -118 -304 -158v-305h-315v299q-205 33 -338 150q-136 120 -160 306l353 72q50 -246 303 -246q109 0 168 46t59 126q0 60 -35 98t-116 60l-297 82q-178 51 -286 150t-108 284q0 186 113 308q114 123 303 157v258h315v-260
q176 -35 292 -146q116 -112 149 -282l-334 -70q-23 113 -96 170q-74 57 -174 57q-87 0 -148 -44q-59 -43 -59 -123q0 -109 131 -148l330 -98q184 -55 276 -158t92 -276z" />
    <glyph glyph-name="Euro.tf" 
d="M735 266q170 0 238 322l332 -62q-43 -251 -196 -404t-374 -153q-216 0 -366 144t-201 403h-107v199h84l-2 63q0 32 2 60h-84v196h105q51 265 201 409t368 144q222 0 374 -155t196 -412l-328 -57q-28 164 -93 247q-64 82 -149 82q-174 0 -231 -258h348l-41 -196h-330
l-2 -60q0 -35 2 -63h316l-41 -199h-252q60 -250 231 -250z" />
    <glyph glyph-name="florin.tf" 
d="M1065 1307q-133 0 -162 -144l-61 -319h264v-283h-320l-102 -530q-33 -172 -145 -270q-113 -99 -277 -99q-104 0 -225 66l96 247q66 -22 115 -22q44 0 75 25t39 65l99 518h-205v283h260l64 332q38 191 165 300q129 111 316 111q143 0 256 -69l-103 -256q-69 45 -149 45z
" />
    <glyph glyph-name="sterling.tf" 
d="M1296 293v-293h-1214v211l168 47v301h-168v283h168v231q0 231 143 371q144 141 379 141q231 0 368 -136q137 -135 152 -366l-305 -53q-18 132 -72 192q-52 58 -143 58q-87 0 -139 -56q-53 -58 -53 -151v-231h389v-283h-389v-266h716z" />
    <glyph glyph-name="yen.tf" 
d="M918 715h270v-213h-342v-80h342v-213h-342v-209h-336v209h-326v213h326v80h-326v213h254l-409 841h358l291 -679l289 679h374z" />
    <glyph glyph-name="approxequal.tf" 
d="M1169 942v-248q-89 -43 -217 -43q-111 0 -254 49q-145 50 -247 50q-165 0 -248 -60v244q84 63 248 63q108 0 255 -49t250 -49q134 0 213 43zM1169 618v-245q-95 -45 -217 -45q-109 0 -254 50t-247 50q-164 0 -248 -59v241q89 66 248 66q108 0 255 -49t250 -49
q132 0 213 40z" />
    <glyph glyph-name="divide.tf" 
d="M688 1149q72 0 120 -49q48 -50 48 -117q0 -72 -47 -119t-121 -47q-73 0 -122 47q-48 47 -48 119q0 68 49 117t121 49zM1171 487h-970v269h970v-269zM688 410q72 0 120 -50t48 -116q0 -72 -47 -119t-121 -47q-73 0 -122 47q-48 46 -48 119q0 67 49 116q50 50 121 50z" />
    <glyph glyph-name="equal.tf" 
d="M1171 719h-970v260h970v-260zM1171 313h-970v260h970v-260z" />
    <glyph glyph-name="greater.tf" 
d="M774 672l-469 133v315l815 -293v-317l-815 -289v311z" />
    <glyph glyph-name="greaterequal.tf" 
d="M780 829l-477 95v293l793 -234v-307l-793 -234v287zM1096 143h-793v267h793v-267z" />
    <glyph glyph-name="less.tf" 
d="M1067 221l-813 289v317l813 293v-315l-467 -133l467 -140v-311z" />
    <glyph glyph-name="lessequal.tf" 
d="M1067 442l-793 234v307l793 234v-293l-477 -95l477 -100v-287zM1067 410v-267h-795v267h795z" />
    <glyph glyph-name="minus.tf" 
d="M1171 487h-970v269h970v-269z" />
    <glyph glyph-name="multiply.tf" 
d="M895 623l270 -271l-188 -190l-272 270l-271 -270l-190 190l270 271l-270 268l190 190l271 -270l272 270l188 -190z" />
    <glyph glyph-name="notequal.tf" 
d="M856 719l-80 -146h395v-260h-536l-86 -157h-254l86 157h-180v260h321l80 146h-401v260h542l82 151h254l-82 -151h174v-260h-315z" />
    <glyph glyph-name="plus.tf" 
d="M1171 487h-352v-356h-266v356h-352v269h352v356h266v-356h352v-269z" />
    <glyph glyph-name="plusminus.tf" 
d="M1171 952v-266h-352v-289h-266v289h-352v266h352v328h266v-328h352zM201 266h970v-266h-970v266z" />
    <glyph glyph-name="bar.case" horiz-adv-x="563" 
d="M434 0h-305v1556h305v-1556z" />
    <glyph glyph-name="at.case" horiz-adv-x="2076" 
d="M1487 1210v-653q0 -53 35 -85t86 -32q92 0 142 116q50 117 50 269q0 317 -215 517t-530 200q-334 0 -556 -223q-223 -225 -223 -561q0 -334 220 -556q219 -220 542 -220q300 0 539 184l92 -148q-255 -206 -627 -206q-402 0 -674 266t-272 676q0 411 275 684
q273 272 684 272q386 0 656 -249q269 -248 269 -627q0 -103 -21 -196q-20 -91 -68 -178q-46 -85 -133 -136q-89 -52 -202 -52q-204 0 -270 150q-110 -143 -313 -143q-191 0 -317 131q-126 130 -126 344q0 217 127 347t316 130q174 0 287 -119v98h227zM1026 494q96 0 165 72
t69 190q0 116 -69 187t-165 71t-164 -70q-67 -68 -67 -188q0 -119 68 -190q69 -72 163 -72z" />
    <glyph glyph-name="caron.alt" horiz-adv-x="1228" 
d="M725 924h-236v407h308z" />
    </font>
</defs>
</svg>
