<?xml version="1.0" encoding="UTF-8"?>
<svg width="64px" height="61px" viewBox="0 0 64 61" version="1.1" xmlns="http://www.w3.org/2000/svg" xmlns:xlink="http://www.w3.org/1999/xlink">
    <title>global-network</title>
    <g id="Page-1" stroke="none" stroke-width="1" fill="none" fill-rule="evenodd">
        <g id="Home-(Final)" transform="translate(-1194.000000, -2947.000000)" fill="#CC2227" fill-rule="nonzero">
            <g id="ADVANTAGES" transform="translate(0.000000, 2618.000000)">
                <g id="adv---4" transform="translate(1082.000000, 263.928709)">
                    <g id="hex+icon" transform="translate(45.145209, 0.000000)">
                        <g id="global-network" transform="translate(67.642465, 65.678549)">
                            <path d="M60.0781916,41.8746658 C60.0965102,41.8374179 60.1127528,41.7993151 60.1256979,41.7602354 C63.8286281,33.2138563 63.1669588,22.7363261 58.3575826,14.7281487 C60.9251234,11.6587993 57.5900316,7.26330227 53.9429121,8.96400495 C53.3020039,8.30905245 52.6290992,7.68133367 51.9317695,7.08780968 C53.3005384,3.3669272 48.7323577,0.314553013 45.8873506,3.09459006 C37.6181936,-1.0809611 27.3332534,-1.02808129 19.1097709,3.23588785 C16.184406,0.135763071 11.2714684,3.45974165 13.0426368,7.34939988 C12.0282726,8.23638851 11.0681315,9.19457559 10.1828526,10.2078407 C9.41847675,11.082739 10.8032439,12.2818773 11.5623684,11.4130852 C12.3859746,10.47053 13.2783367,9.57890069 14.2208918,8.75260783 C16.0435967,10.0672757 18.6864882,9.39754614 19.6864417,7.39080001 C22.9863618,8.34068264 26.1376567,9.70395595 29.0741349,11.4536305 C28.8282988,12.3401306 28.9286849,13.3301921 29.3505022,14.1485469 C26.9336627,16.2362614 24.7571639,18.5979007 22.8671685,21.1860805 C21.122379,20.65887 19.1991659,21.54134 18.4404077,23.1936815 C14.5926381,23.2143205 10.7329003,23.6281997 6.94338402,24.4292128 C6.6087635,23.8056463 6.10145925,23.2889384 5.48644139,22.9428382 C6.19842593,20.1663428 7.32612151,17.525161 8.84510327,15.0830419 C9.45035118,14.1097114 7.92257648,13.0979117 7.28960635,14.1154512 C5.6746349,16.7118134 4.47513025,19.5195726 3.71649424,22.4710721 C-0.671431043,22.545568 -1.40808468,28.6158773 2.76917622,29.7836296 C2.70762559,38.4229453 6.44291873,46.8224088 12.9201462,52.5441754 C11.5689631,56.1941037 15.9555451,59.2047114 18.8503789,56.6303316 C27.2986922,61.1226732 37.9758956,61.1232838 46.4246974,56.6317971 C49.3689916,59.5437284 54.0846984,56.2905819 52.4262507,52.483846 C55.7645179,49.517081 58.3578269,45.8884023 60.0781916,41.8746658 Z M58.9241172,39.8261532 C56.388695,37.3072179 53.6140315,35.0221505 50.6516629,33.0162592 C51.072381,31.6984162 50.7067409,30.2157053 49.7242511,29.2428633 C52.2153421,25.1010185 54.1709182,20.659847 55.547503,16.0204678 C56.0062018,16.0220554 56.4471926,15.9374233 56.8535,15.7842795 C61.0715505,22.9081549 61.8430095,32.0931218 58.9241172,39.8261532 Z M16.7758538,50.1803379 C16.0050054,42.6300045 17.3576539,35.0975012 20.7054467,28.2904161 C22.7852231,28.9393845 25.0331647,27.5717147 25.4370297,25.4368602 C31.7526867,26.2154025 37.8353306,28.0696154 43.5436636,30.9572439 C43.2691282,32.0243659 43.4964015,33.2010333 44.150377,34.0887546 C37.7160152,42.240428 29.2226381,48.3743641 19.5020341,51.8899557 C18.9130287,50.9572926 17.9224787,50.3047826 16.7758538,50.1803379 Z M45.2585327,31.8853884 C45.2585327,30.8474542 46.0967937,30.003087 47.1271562,30.003087 C49.6060348,30.106282 49.6053021,33.6648613 47.1271562,33.7676899 C46.0967937,33.7676899 45.2585327,32.9233227 45.2585327,31.8853884 Z M57.4241868,12.3064243 C57.4241868,13.3443585 56.5859258,14.1887258 55.5555632,14.1887258 C53.0765625,14.0855308 53.0771731,10.5269515 55.5555632,10.4241228 C56.5859258,10.4241228 57.4241868,11.2684901 57.4241868,12.3064243 L57.4241868,12.3064243 Z M52.5432458,10.153129 C51.2773055,11.9318691 51.8648454,14.5031958 53.7734036,15.5604257 C52.4399287,20.0355477 50.5494448,24.3194231 48.1444515,28.3152073 C47.6416658,28.1706122 47.0835579,28.1347076 46.5666058,28.2138442 C44.0527997,22.8458716 40.3950554,18.0108493 35.9267724,14.1487911 C36.348956,13.3299479 36.4495864,12.3415961 36.2033839,11.4538747 C39.03166,9.76880394 42.061197,8.44082455 45.2292228,7.49680389 C46.2821784,9.52968461 49.1067908,10.1036687 50.8603733,8.58187809 C51.4415627,9.08185488 52.0041892,9.6071114 52.5432458,10.153129 L52.5432458,10.153129 Z M30.7700748,12.4482106 C30.7700748,11.4102764 31.6083358,10.5659091 32.6386983,10.5659091 C35.117699,10.6691041 35.1169663,14.2275613 32.6386983,14.3303899 C31.6083358,14.3303899 30.7700748,13.4860227 30.7700748,12.4482106 L30.7700748,12.4482106 Z M48.4863994,3.85322607 C49.5168841,3.85322607 50.3551451,4.69759333 50.3551451,5.73552756 C50.2523165,8.23260266 46.7202381,8.23199203 46.6177759,5.73552756 C46.6177759,4.69759333 47.4560369,3.85322607 48.4863994,3.85322607 Z M16.375042,7.61770692 C15.3446794,7.61770692 14.5064184,6.77333967 14.5064184,5.73540543 C14.609247,3.23820821 18.1413254,3.23906308 18.2437876,5.73540543 C18.2437876,6.77333967 17.4054045,7.61770692 16.375042,7.61770692 Z M20.0721102,5.59496251 C20.0625845,5.34069977 20.027657,5.09315386 19.9695258,4.85427877 C27.6368543,0.889269862 37.2154278,0.820147521 44.9418644,4.66987111 C44.8425774,5.00192702 44.7882321,5.35303432 44.7864002,5.7165983 C41.4541172,6.70238546 38.2677727,8.09484647 35.2930695,9.86406088 C33.8632385,8.38501375 31.4147688,8.38452526 29.9844493,9.86393875 C26.8845688,8.02010641 23.5570486,6.5868559 20.0721102,5.59496251 Z M30.5631962,15.521468 C31.8017807,16.3668123 33.4752496,16.3669344 34.7139562,15.521468 C38.9800014,19.2049805 42.4747098,23.8157826 44.8819014,28.9358429 C44.7187434,29.0612645 44.5663323,29.2001198 44.4261336,29.3504548 C38.4079713,26.2979585 31.9856998,24.3571595 25.3147833,23.5762969 C25.13465,23.0311341 24.8322703,22.54166 24.4397629,22.1409702 C26.2301048,19.7088652 28.2847236,17.4875468 30.5631962,15.521468 Z M21.8022448,22.8605265 C22.8326074,22.8605265 23.6708684,23.7048937 23.6708684,24.742828 C23.5680398,27.2400252 20.0359614,27.2392924 19.9334991,24.742828 C19.9336213,23.7048937 20.7718823,22.8605265 21.8022448,22.8605265 L21.8022448,22.8605265 Z M1.81440862,26.184505 C1.81440862,25.1465708 2.65266966,24.3022036 3.68303219,24.3022036 C6.16191077,24.4053986 6.16117802,27.9638558 3.68303219,28.0666844 C2.65279179,28.0668065 1.81440862,27.2224393 1.81440862,26.184505 L1.81440862,26.184505 Z M4.60091826,29.7828969 C4.60091826,29.7828969 7.38303142,29.1761835 7.38303142,26.2086857 C7.38303142,26.2086857 14.5219282,25.0675564 18.1137253,25.0274996 C18.1811379,25.9148546 18.5600895,26.7156235 19.141279,27.3198945 C15.5718306,34.5009241 14.1321075,42.46245 14.9608428,50.4405848 C14.6039957,50.5893321 14.2754814,50.7926691 13.9850698,51.0398486 C8.00940684,45.686653 4.60091826,36.7173576 4.60091826,29.7828969 Z M16.375042,55.7544563 C15.3446794,55.7544563 14.5064184,54.9100891 14.5064184,53.8721548 C14.5064184,52.8342206 15.3446794,51.9898533 16.375042,51.9898533 C17.3916044,51.9898533 18.2437876,52.8703694 18.2437876,53.8721548 C18.2437876,54.9100891 17.4054045,55.7544563 16.375042,55.7544563 Z M32.6386983,58.1819206 C28.1932525,58.1819206 23.797267,57.1172411 19.8682848,55.0959622 C20.0277791,54.638851 20.0981227,54.1181131 20.0671031,53.6330355 C30.1225719,50.0085091 38.9095357,43.6742892 45.5660416,35.2517441 C46.1129141,35.5082051 46.7197496,35.6259329 47.3226772,35.5943027 C47.7295953,37.1046137 48.0511485,38.6454557 48.2790324,40.1861756 C48.453548,41.3656518 50.2662387,41.1021076 50.0912346,39.9182349 C49.8493064,38.2822581 49.5067478,36.646037 49.0718632,35.0435222 C49.290832,34.9072316 49.4942911,34.7483479 49.6796757,34.570657 C52.7362022,36.6456706 55.58585,39.0277047 58.1674351,41.6640014 C56.5663859,45.2032851 54.2361325,48.4079483 51.2754737,51.055969 C50.9827418,50.8361453 50.6563036,50.6593093 50.305929,50.5335213 C50.4859402,48.8307425 50.564344,47.111477 50.5379652,45.4110185 C50.5194023,44.2144449 48.6876602,44.2425334 48.7063453,45.4393514 C48.7317471,47.0738627 48.6560301,48.7265705 48.4821251,50.3634022 C46.3218687,50.7069378 44.909013,52.9469413 45.5042467,55.0462576 C41.5505954,57.0996552 37.1205372,58.1819206 32.6386983,58.1819206 L32.6386983,58.1819206 Z M49.0631924,55.9137064 C48.0328299,55.9137064 47.1945688,55.0693391 47.1945688,54.0314049 C47.2973975,51.5342077 50.8294758,51.5350625 50.9319381,54.0314049 C50.9319381,55.0693391 50.093677,55.9137064 49.0631924,55.9137064 Z" id="Shape"></path>
                        </g>
                    </g>
                </g>
            </g>
        </g>
    </g>
</svg>