<?xml version="1.0" encoding="UTF-8"?>
<svg width="54px" height="61px" viewBox="0 0 54 61" version="1.1" xmlns="http://www.w3.org/2000/svg" xmlns:xlink="http://www.w3.org/1999/xlink">
    <title>feather</title>
    <g id="Page-1" stroke="none" stroke-width="1" fill="none" fill-rule="evenodd">
        <g id="Home-(Final)" transform="translate(-530.000000, -2946.000000)" fill="#CC2227" fill-rule="nonzero">
            <g id="ADVANTAGES" transform="translate(0.000000, 2618.000000)">
                <g id="adv---2" transform="translate(414.000000, 262.642903)">
                    <g id="hex+icon" transform="translate(43.715070, 0.000000)">
                        <g id="feather" transform="translate(72.642465, 65.678549)">
                            <path d="M51.6188717,1.25526084 C50.6083489,0.244620839 49.1678588,-0.194487241 47.7654551,0.0804387144 L44.6518542,0.690994652 C41.7098184,1.26780009 38.9088784,2.55231134 36.551734,4.4053076 C35.774535,5.01644948 35.3905058,6.00212817 35.5494144,6.97784578 L35.7004714,7.90563299 L34.0301731,7.28312375 C33.5546192,7.10581643 33.0117986,7.19077863 32.6130037,7.50437704 L28.5812251,10.6758694 C28.1997741,10.9759911 28.1337966,11.5285383 28.433801,11.9101065 C28.7340398,12.2915575 29.2867043,12.3576522 29.6680381,12.0575306 L33.5705569,8.98775843 L35.5592583,9.72886318 C36.0539141,9.91308466 36.592633,9.82320052 37.000686,9.48803929 C37.4086217,9.15299526 37.601398,8.64181579 37.516553,8.12079244 L37.2845183,6.69530253 C37.2283847,6.35088335 37.3640898,6.00283131 37.638547,5.78708592 C39.7777194,4.10518596 42.3199056,2.9393874 44.9902968,2.41578588 L48.1038977,1.80522994 C48.9430898,1.64093063 49.7712662,1.89323906 50.3760798,2.49805273 C50.9805419,3.10263201 51.2329675,3.93010523 51.068551,4.76835986 L50.4603389,7.86696054 C49.9339248,10.549891 48.7613293,13.1012179 47.0692339,15.2447263 L38.0646471,26.64888 L34.5720562,26.9072822 C33.9391171,26.9541579 33.4254767,27.3809611 33.2637555,27.9946812 C33.1019172,28.6084012 33.3382879,29.2329027 33.8658738,29.5857595 L35.0969468,30.4091311 L33.1369568,32.8911992 C31.3425551,32.9755754 29.1995155,33.1210073 27.7013683,33.2296417 C27.0728824,33.2751111 26.5598279,33.697344 26.3943567,34.3052045 C26.2286511,34.9136511 26.4571701,35.5382697 26.9763184,35.8965172 L29.4287376,37.5882611 L27.4523411,40.091306 C24.2230744,38.8522642 22.0673784,36.543519 21.0050579,33.1954224 L42.8333116,11.3671687 C43.1765589,11.0239215 43.1765589,10.4673898 42.8333116,10.1242597 C42.4900643,9.78101239 41.9335326,9.78101239 41.5904025,10.1242597 L20.5207148,31.1938302 C20.2972349,29.908733 20.203132,28.501759 20.2395778,26.9739629 C20.2511795,26.4886823 19.8671504,26.0859028 19.3818698,26.0743011 C18.8950657,26.0601212 18.4936925,26.4467285 18.482208,26.9320092 C18.432051,29.0382514 18.6229523,30.9535923 19.0450679,32.6694771 L13.7292468,37.9854154 C11.3513599,34.2889152 10.5064255,30.2461209 10.2295074,27.3484997 L11.054754,26.6992713 L13.6097138,28.1039016 C14.0682753,28.3559756 14.6108615,28.3474208 15.0611025,28.0811668 C15.5114608,27.8149129 15.7802929,27.3435778 15.7802929,26.8203278 L15.7802929,22.9820287 L19.3383926,20.183198 C19.1006156,21.2711829 18.9084252,22.3521365 18.7662747,23.4150429 C18.702055,23.8961047 19.0399116,24.3383769 19.5209734,24.4027138 C19.5604662,24.4079873 19.5997246,24.4105655 19.6385142,24.4105655 C20.0721144,24.4105655 20.4495809,24.0895842 20.5086443,23.6480151 C20.7370461,21.9389272 21.0986921,20.1792136 21.5831524,18.4175078 L27.0120612,14.1470147 C27.3936293,13.8468931 27.4596069,13.2943458 27.1594852,12.9127776 C26.8593636,12.5312095 26.3066991,12.4653491 25.9253653,12.7653536 L14.5815641,21.688611 C14.2262464,21.9682245 14.0224543,22.387762 14.0224543,22.8398781 L14.0224543,26.3250861 L11.3919074,24.8789709 C11.0827622,24.7091637 10.7022487,24.740336 10.4250962,24.9584252 L7.78212728,27.0377139 C6.52972587,28.0239785 5.77608187,29.5027895 5.71432315,31.0955085 L5.11431424,46.848086 C5.11197045,46.9094932 5.11665802,46.9694941 5.12650192,47.0280887 C2.52478361,50.5400158 0.777257675,54.6022636 0.0133010228,58.9694378 C-0.0703720942,59.4475699 0.24943734,59.9029673 0.727569438,59.9866404 C0.778898324,59.995664 0.829758454,60 0.880032638,60 C1.29898417,60 1.67012249,59.6992924 1.74477204,59.272372 C2.47415786,55.1027789 4.15969069,51.2296745 6.67304831,47.8955235 L10.7664684,48.6242061 C10.8186177,48.6334641 10.8704153,48.6380345 10.9215098,48.6380345 C11.3394066,48.6380345 11.7100762,48.3387332 11.7857805,47.9129846 C11.8708598,47.4350869 11.5524567,46.9786348 11.074559,46.8936726 L7.94384843,46.3363206 C8.32131497,45.9071736 8.71284422,45.4882221 9.11995963,45.0811067 L13.5198296,40.6812367 C15.7220498,43.4454965 18.5650608,45.5538481 22.0127682,46.9747676 C21.1695916,47.9781419 19.8591815,48.4577974 18.562717,48.2265831 L14.4129288,47.4879393 C13.9347967,47.4029771 13.478579,47.7213802 13.3936168,48.1991608 C13.3085374,48.6770585 13.6269406,49.1335106 14.1048383,49.2184728 L18.2543921,49.9571166 C18.57385,50.0140705 18.8937766,50.0418444 19.211125,50.0418444 C20.8536494,50.0418444 22.424454,49.2959349 23.4649773,47.9782591 L31.0020032,38.4326096 C31.2518506,38.1160814 31.3608366,37.7056847 31.3008357,37.3070069 C31.2408349,36.9082119 31.0160659,36.5482066 30.6840688,36.3191016 L28.6616169,34.9240809 C30.0906225,34.8241185 31.8560784,34.7099762 33.3502412,34.6416548 C33.7751694,34.6222014 34.1700971,34.4196984 34.4334213,34.0861779 L36.6727905,31.2503154 C36.9252161,30.9306232 37.0336162,30.5165936 36.9700996,30.114283 C36.906583,29.7119723 36.6760718,29.351381 36.3375121,29.1248542 L35.5498832,28.5980886 L38.3226978,28.3930074 C38.7308679,28.3627726 39.110561,28.1610899 39.3641586,27.8398742 L48.4485512,16.3348206 C50.3129148,13.9728715 51.6049262,11.1619704 52.1847786,8.20634058 L52.7929907,5.1077399 C53.068151,3.70557065 52.629043,2.26566646 51.6188717,1.25526084 L51.6188717,1.25526084 Z M7.87705056,43.8374945 C7.55958491,44.1549601 7.25161159,44.4795743 6.95102119,44.8095792 L7.47075547,31.1625407 C7.50802165,30.200417 7.91982463,29.3002865 8.61077239,28.643558 C8.95167589,31.1474233 9.72852335,34.3918074 11.4596428,37.567753 C11.775585,38.1473709 12.1129728,38.7058949 12.4711031,39.2434419 L7.87705056,43.8374945 Z M14.7615668,39.4389136 L19.6361704,34.5643099 C20.886228,37.8093972 23.1342692,40.1640806 26.318418,41.527343 L23.1531367,45.5360353 C19.3730806,44.0762089 16.678314,41.8853561 14.7615668,39.4389136 L14.7615668,39.4389136 Z" id="Shape"></path>
                        </g>
                    </g>
                </g>
            </g>
        </g>
    </g>
</svg>