<?xml version="1.0" encoding="UTF-8"?>
<svg width="61px" height="61px" viewBox="0 0 61 61" version="1.1" xmlns="http://www.w3.org/2000/svg" xmlns:xlink="http://www.w3.org/1999/xlink">
    <title>resilience</title>
    <g id="Page-1" stroke="none" stroke-width="1" fill="none" fill-rule="evenodd">
        <g id="Home-(Final)" transform="translate(-861.000000, -2946.000000)" fill="#CC2227" fill-rule="nonzero">
            <g id="ADVANTAGES" transform="translate(0.000000, 2618.000000)">
                <g id="adv---3" transform="translate(748.000000, 263.285806)">
                    <g id="hex+icon" transform="translate(44.430140, 0.000000)">
                        <g id="resilience" transform="translate(68.642465, 65.678549)">
                            <path d="M30,0 C28.4058984,0 27.1089844,1.29691406 27.1089844,2.89101563 L27.1089844,57.1089844 C27.1089844,58.7030859 28.4058984,60 30,60 C31.5941016,60 32.8910156,58.7030859 32.8910156,57.1089844 L32.8910156,12.5390625 C32.8910156,12.0536719 32.4976172,11.6601563 32.0121094,11.6601563 C31.5266016,11.6601563 31.1332031,12.0536719 31.1332031,12.5390625 L31.1332031,57.1089844 C31.1332031,57.7338281 30.6248438,58.2421875 30,58.2421875 C29.3751563,58.2421875 28.8667969,57.7338281 28.8667969,57.1089844 L28.8667969,2.89101563 C28.8667969,2.26617187 29.3751563,1.7578125 30,1.7578125 C30.3025781,1.7578125 30.5871094,1.87570313 30.8010938,2.08980469 C31.0153125,2.30390625 31.1332031,2.5884375 31.1332031,2.89101563 L31.1332031,8.4375 C31.1332031,8.92289062 31.5266016,9.31640625 32.0121094,9.31640625 C32.4976172,9.31640625 32.8910156,8.92289062 32.8910156,8.4375 L32.8910156,2.89101563 C32.8910156,2.11898438 32.5903125,1.39300781 32.0441016,0.846914063 C31.498125,0.300703125 30.7721484,0 30,0 L30,0 Z" id="Path"></path>
                            <path d="M40.704375,30 C40.704375,21.1125 41.660625,12.1972266 43.5466406,3.50203125 C43.7328516,2.64398438 43.5234375,1.75980469 42.9723047,1.07625 C42.4205859,0.39234375 41.6002734,6.66133815e-15 40.7214844,6.66133815e-15 C39.3699609,6.66133815e-15 38.1812109,0.957890625 37.8950391,2.27753906 C35.9220703,11.3744531 34.9216406,20.7017578 34.9216406,30 C34.9216406,39.2982422 35.9220703,48.6255469 37.8950391,57.7224609 C38.1812109,59.0421094 39.3699609,60 40.7214844,60 C41.6002734,60 42.4205859,59.6076562 42.9721875,58.92375 C43.5233203,58.2401953 43.7327344,57.3561328 43.5465234,56.4979687 C41.660625,47.8027734 40.704375,38.8875 40.704375,30 L40.704375,30 Z M41.6039063,57.8203125 C41.3876953,58.0884375 41.0661328,58.2421875 40.7216016,58.2421875 C40.1914453,58.2421875 39.7251563,57.8669531 39.6130078,57.3499219 C37.6664063,48.3751172 36.6794531,39.1732031 36.6794531,30 C36.6794531,20.8267969 37.6664063,11.6248828 39.6130078,2.65007813 C39.7250391,2.13304688 40.1913281,1.7578125 40.7214844,1.7578125 C41.0660156,1.7578125 41.3876953,1.9115625 41.6037891,2.1796875 C41.8196484,2.44734375 41.9015625,2.79351563 41.8287891,3.129375 C39.9162891,11.9469141 38.9464453,20.9874609 38.9464453,30 C38.9464453,39.0125391 39.9161719,48.0530859 41.8287891,56.870625 C41.9016797,57.2064844 41.8196484,57.5526563 41.6039063,57.8203125 L41.6039063,57.8203125 Z" id="Shape"></path>
                            <path d="M19.2783984,6.66133815e-15 C18.3996094,6.66133815e-15 17.5792969,0.39234375 17.0278125,1.07636719 C16.4765625,1.75992188 16.2672656,2.64398438 16.4533594,3.50203125 C18.339375,12.1975781 19.295625,21.1127344 19.295625,30 C19.295625,38.8872656 18.339375,47.8025391 16.4533594,56.4979687 C16.2672656,57.3560156 16.4765625,58.2401953 17.0278125,58.9236328 C17.5792969,59.6076562 18.3997266,60 19.2783984,60 C20.6300391,60 21.8186719,59.0422266 22.1049609,57.7224609 C24.0779297,48.6253125 25.0783594,39.298125 25.0783594,30 C25.0783594,20.701875 24.0779297,11.3745703 22.1049609,2.27753906 C21.8187891,0.957773438 20.6300391,6.66133815e-15 19.2783984,6.66133815e-15 L19.2783984,6.66133815e-15 Z M20.3871094,57.3499219 C20.2749609,57.8669531 19.8086719,58.2421875 19.2785156,58.2421875 C18.9341016,58.2421875 18.6124219,58.0884375 18.3963281,57.8203125 C18.1804688,57.5526562 18.0985547,57.2064844 18.1714453,56.870625 C20.0839453,48.0528516 21.0536719,39.0123047 21.0536719,30 C21.0536719,20.9876953 20.0839453,11.9471484 18.1714453,3.129375 C18.0985547,2.79339844 18.1805859,2.44734375 18.3963281,2.1796875 C18.6125391,1.9115625 18.9341016,1.7578125 19.2785156,1.7578125 C19.8087891,1.7578125 20.2749609,2.13304688 20.3871094,2.65007813 C22.3335938,11.625 23.3205469,20.8269141 23.3205469,30 C23.3205469,39.1730859 22.3335938,48.375 20.3871094,57.3499219 Z" id="Shape"></path>
                            <path d="M59.1870703,28.0391016 C58.6635938,27.515625 57.9676172,27.2273438 57.2272266,27.2273438 L56.4666797,27.2273438 C55.9811719,27.2273438 55.5877734,27.6208594 55.5877734,28.10625 C55.5877734,28.5916406 55.9811719,28.9851563 56.4666797,28.9851563 L57.2272266,28.9851563 C57.4980469,28.9851563 57.7525781,29.090625 57.9440625,29.2821094 C58.13625,29.4742969 58.2420703,29.7291797 58.2420703,30 C58.2420703,30.5595703 57.7867969,31.0148438 57.2272266,31.0148438 L50.08125,31.0148438 C49.7257031,31.0148438 49.4050781,31.2290625 49.2691406,31.5575391 C49.1332031,31.8860156 49.2084375,32.2641797 49.4600391,32.5154297 L50.8614844,33.9158203 C51.0535547,34.1083594 51.1592578,34.3637109 51.1592578,34.6346484 C51.1592578,34.9055859 51.0535547,35.1609375 50.8630078,35.3521875 C50.4664453,35.7480469 49.8219141,35.7481641 49.4265234,35.3526563 L44.7911719,30.7174219 C44.5992188,30.5258203 44.4936328,30.2710547 44.4936328,29.9998828 C44.4936328,29.7287109 44.5992188,29.4739453 44.7917578,29.281875 L49.4274609,24.6461719 C49.6176563,24.4553906 49.8724219,24.3502734 50.1445313,24.3502734 C50.4160547,24.3502734 50.6710547,24.4557422 50.8624219,24.6471094 C51.2580469,25.0426172 51.2578125,25.6871484 50.8627734,26.0827734 L49.4600391,27.4843359 C49.2085547,27.7357031 49.1332031,28.11375 49.2691406,28.4422266 C49.4050781,28.7707031 49.7257031,28.9849219 50.08125,28.9849219 L52.3651172,28.9849219 C52.850625,28.9849219 53.2440234,28.5914063 53.2440234,28.1060156 C53.2440234,27.620625 52.850625,27.2271094 52.3651172,27.2271094 L52.1994141,27.2271094 C53.1850781,26.1396094 53.1536719,24.4523438 52.1054297,23.4041016 C51.5819531,22.880625 50.8855078,22.5923438 50.1445312,22.5923438 C49.4017969,22.5923438 48.705,22.8809766 48.1835156,23.4041016 L43.5493359,28.0382813 C43.0246875,28.5619922 42.7359375,29.2585547 42.7359375,29.9997656 C42.7359375,30.7409766 43.0248047,31.4375391 43.5488672,31.9606641 L48.18375,36.5954297 C48.7238672,37.1355469 49.4335547,37.4056641 50.1437109,37.4056641 C50.8541016,37.4056641 51.5648438,37.1353125 52.1066016,36.5944922 C52.629375,36.0700781 52.9173047,35.3739844 52.9173047,34.6345313 C52.9173047,33.9405469 52.6637109,33.2848828 52.1995313,32.7724219 L57.2274609,32.7724219 C58.7562891,32.7724219 60.0001172,31.5285938 60.0001172,29.9997656 C60.0001172,29.2596094 59.71125,28.5631641 59.1870703,28.0391016 L59.1870703,28.0391016 Z" id="Path"></path>
                            <path d="M17.2640625,30 C17.2640625,29.2587891 16.9751953,28.5622266 16.4511328,28.0391016 L11.8173047,23.4053906 C11.2948828,22.8812109 10.5982031,22.5925781 9.85535156,22.5925781 C9.11425781,22.5925781 8.4178125,22.8808594 7.89445313,23.4043359 C6.84644531,24.4523438 6.81480469,26.1390234 7.80046875,27.2273437 L2.77265625,27.2273437 C2.03238281,27.2273437 1.33640625,27.515625 0.812929688,28.0391016 C0.288632813,28.5632812 1.66533454e-15,29.2597266 1.66533454e-15,30 C1.66533454e-15,31.5288281 1.24382813,32.7726562 2.77265625,32.7726562 L3.37265625,32.7726562 C3.85804688,32.7726562 4.2515625,32.3791406 4.2515625,31.89375 C4.2515625,31.4083594 3.85804688,31.0148437 3.37265625,31.0148437 L2.77265625,31.0148437 C2.21308594,31.0148437 1.7578125,30.5595703 1.7578125,30 C1.7578125,29.7291797 1.86363281,29.4741797 2.05582031,29.2819922 C2.24730469,29.090625 2.50183594,28.9851562 2.77265625,28.9851562 L9.91875,28.9851562 C10.2742969,28.9851562 10.5948047,28.7709375 10.7308594,28.4424609 C10.8669141,28.1139844 10.7915625,27.7358203 10.5399609,27.4845703 L9.13804688,26.0837109 C8.7421875,25.6872656 8.74195313,25.0428516 9.13757813,24.6473437 C9.3290625,24.4559766 9.5840625,24.3505078 9.85558594,24.3505078 C10.1276953,24.3505078 10.3823438,24.4555078 10.5734766,24.6473437 L15.2087109,29.2825781 C15.4006641,29.4741797 15.50625,29.7289453 15.50625,30.0001172 C15.50625,30.2712891 15.4006641,30.5260547 15.2082422,30.718125 L10.5733594,35.3528906 C10.1778516,35.7483984 9.53355469,35.7483984 9.13851563,35.3538281 C8.94644531,35.1611719 8.840625,34.9058203 8.840625,34.6348828 C8.840625,34.3639453 8.94632813,34.1085937 9.13722656,33.9172266 L10.5399609,32.5156641 C10.7914453,32.2642969 10.8669141,31.88625 10.7308594,31.5577734 C10.5948047,31.2292969 10.2742969,31.0150781 9.91875,31.0150781 L7.47421875,31.0150781 C6.98882812,31.0150781 6.5953125,31.4085938 6.5953125,31.8939844 C6.5953125,32.379375 6.98882812,32.7728906 7.47421875,32.7728906 L7.80058594,32.7728906 C7.33675781,33.2845313 7.0828125,33.9405469 7.0828125,34.635 C7.0828125,35.3744531 7.37074219,36.0704297 7.89503906,36.5964844 C8.43585937,37.1364844 9.14589844,37.4064844 9.8559375,37.4064844 C10.5660938,37.4064844 11.2761328,37.13625 11.8163672,36.5960156 L16.4506641,31.9618359 C16.9751953,31.4377734 17.2640625,30.7412109 17.2640625,30 L17.2640625,30 Z" id="Path"></path>
                        </g>
                    </g>
                </g>
            </g>
        </g>
    </g>
</svg>