<?xml version="1.0" encoding="UTF-8"?>
<svg width="48px" height="63px" viewBox="0 0 48 63" version="1.1" xmlns="http://www.w3.org/2000/svg" xmlns:xlink="http://www.w3.org/1999/xlink">
    <title>medal</title>
    <g id="Page-1" stroke="none" stroke-width="1" fill="none" fill-rule="evenodd">
        <g id="Home-(Final)" transform="translate(-198.000000, -2945.000000)" fill="#CC2227" fill-rule="nonzero">
            <g id="ADVANTAGES" transform="translate(0.000000, 2618.000000)">
                <g id="adv---1" transform="translate(80.000000, 262.000000)">
                    <g id="hex+icon" transform="translate(43.000000, 0.000000)">
                        <g id="medal" transform="translate(75.642465, 65.678549)">
                            <path d="M31.4183373,7.72521619 C24.5986641,4.279173 16.3836449,5.59677775 10.976755,11.0037888 C4.69267275,17.2877499 4.06371961,27.3076491 9.51383951,34.3108981 C9.70649728,34.5584107 9.99445464,34.6879794 10.2855604,34.6879794 C10.4952922,34.6879794 10.7065982,34.6207732 10.884967,34.4818804 C11.3108485,34.1504509 11.3873788,33.5366343 11.0560704,33.1107529 C6.21007971,26.8839473 6.77013136,17.9739797 12.3586597,12.3854514 C17.1672329,7.576636 24.472486,6.40470522 30.5372701,9.46918674 C31.0187329,9.71282435 31.6065147,9.51931893 31.8499101,9.03773506 C32.0931844,8.55615119 31.9001634,7.96849051 31.4183373,7.72521619 Z" id="Path"></path>
                            <path d="M39.220432,15.5287639 C38.9770365,15.0471801 38.3896181,14.8539168 37.9076709,15.0970701 C37.426087,15.3403444 37.2327027,15.927884 37.475977,16.40971 C40.5382789,22.4735254 39.3657427,29.7778098 34.5582593,34.5851721 C28.9696099,40.1735793 20.0597634,40.7335099 13.8329578,35.8877614 C13.4069553,35.556453 12.7932598,35.6329833 12.4618303,36.0587436 C12.1304008,36.4846251 12.2070522,37.0984417 12.6329336,37.4298712 C15.8229878,39.9125044 19.6387256,41.1335987 23.4423542,41.1335987 C27.9890049,41.1335987 32.5184604,39.3885383 35.9401641,35.9668346 C41.3458431,30.5612767 42.6640533,22.3478317 39.220432,15.5287639 Z" id="Path"></path>
                            <path d="M36.6960219,11.8074781 C36.4539585,11.5335674 36.1996647,11.2630473 35.9401641,11.0036677 C35.6806634,10.744167 35.4102644,10.4898733 35.1363537,10.2478099 C34.7320267,9.89034558 34.1144562,9.92861073 33.7573552,10.3329377 C33.3997698,10.7371437 33.4377928,11.354593 33.8421198,11.7119363 C34.0861207,11.9274805 34.3270942,12.1541652 34.5583804,12.3853303 C34.7894244,12.6166165 35.0161091,12.8574689 35.2317744,13.1014698 C35.4247955,13.3199202 35.6938624,13.4314462 35.9642614,13.4314462 C36.1942156,13.4314462 36.4250174,13.3506777 36.610894,13.1864766 C37.0153421,12.8292544 37.0533651,12.2118051 36.6960219,11.8074781 Z" id="Path"></path>
                            <path d="M46.5197516,25.2368505 C47.1712279,24.1679693 47.1712279,22.8403139 46.5195094,21.7716748 L45.2341152,19.663822 C45.0648282,19.3860364 44.9993173,19.0561811 45.0499339,18.7350445 L45.4330697,16.300727 C45.6283915,15.0601369 45.1187143,13.8306873 44.1032347,13.0919035 L42.1111461,11.6429137 C41.8477705,11.4512247 41.6605619,11.1716227 41.5839105,10.8550875 L41.0037575,8.4575821 C40.7092612,7.23975737 39.7697064,6.30032371 38.5520028,6.00558518 L36.1543762,5.42531112 C35.8378411,5.34865973 35.5579969,5.16145111 35.3665501,4.89807548 L33.9173181,2.90550254 C33.1786553,1.89002294 31.9490847,1.38010349 30.7088579,1.57554638 L28.2736927,1.95868225 C27.9525561,2.00917772 27.6225797,1.9437879 27.3450363,1.77450094 L25.2368203,0.48874345 C24.1680601,-0.162975028 22.8404047,-0.162853936 21.7716445,0.48874345 L19.6636706,1.77413766 C19.3861272,1.94354572 19.056393,2.00869335 18.7348931,1.95831897 L16.3004545,1.5751831 C15.0602277,1.3799824 13.830536,1.88965967 13.0918733,2.90513926 L11.6428834,4.89722783 C11.4511944,5.16060347 11.1714713,5.34781208 10.8548151,5.42446348 L8.45730965,6.00461644 C7.23972709,6.29911278 6.30005125,7.23866754 6.00531272,8.45637118 L5.42503867,10.8539977 C5.34838727,11.1705328 5.16129975,11.450377 4.89780302,11.6418239 L2.90523008,13.0910559 C1.88975049,13.8295975 1.38019431,15.058926 1.57527392,16.2995161 L1.95840979,18.7348023 C2.00890526,19.05606 1.94351544,19.3859153 1.77422848,19.6634587 L0.488592085,21.7717959 C-0.162884209,22.840556 -0.162884209,24.1682114 0.488713177,25.2368505 L1.77410739,27.3448244 C1.94339435,27.62261 2.00890526,27.9524653 1.9582887,28.2736019 L1.57515283,30.7080405 C1.37983103,31.9485095 1.8895083,33.1780802 2.90498789,33.9167429 L4.89707646,35.3657327 C5.1604521,35.5571796 5.34766072,35.8370237 5.42431211,36.1535589 L6.00446507,38.5510643 C6.29896142,39.768889 7.23851617,40.7083227 8.45621982,41.0030612 L9.45741052,41.2453668 L2.68181488,56.3593746 C2.5378362,56.6806324 2.57767555,57.0543231 2.78631749,57.3379211 C2.99483834,57.6215191 3.33958797,57.7710681 3.68930238,57.7291702 L9.14111757,57.0773306 L12.2817661,61.5808724 C12.4655841,61.844248 12.7655296,61.999125 13.0829124,61.999125 C13.1133066,61.999125 13.144064,61.9975508 13.1745793,61.9947657 C13.5250202,61.9618286 13.8307781,61.7427727 13.9747568,61.4217572 L20.8945733,45.9850385 L21.7714023,46.5196608 C22.3057824,46.84552 22.9048258,47.0083891 23.5039902,47.0083891 C24.1031546,47.0083891 24.702198,46.8453989 25.2365781,46.5196608 L26.1450121,45.9657848 L33.0735473,61.4217572 C33.217526,61.7430149 33.5231628,61.9618286 33.8737248,61.9947657 C33.9043612,61.9976719 33.9349975,61.999125 33.9653917,61.999125 C34.2827745,61.999125 34.5828411,61.8443691 34.766538,61.5809935 L37.9071865,57.0774517 L43.3590017,57.7292912 C43.7084739,57.7708259 44.0534658,57.6216402 44.2619866,57.3380422 C44.4705075,57.0544441 44.510589,56.6807535 44.3664892,56.3594957 L37.5873819,41.2371325 L38.5509129,41.00403 C39.7684955,40.7095336 40.7081713,39.7699789 41.0029099,38.5522752 L41.5831839,36.1546487 C41.6598353,35.8381136 41.8470439,35.5582694 42.1104196,35.3668225 L44.1029925,33.9175905 C45.1184721,33.1790489 45.6280283,31.9497204 45.4329487,30.7091303 L45.0498128,28.2738441 C44.9993173,27.9525864 45.0647071,27.6227311 45.2339941,27.3451877 L46.5197516,25.2368505 Z M12.8975202,59.0478647 L10.4085901,55.4787918 C10.2022489,55.1828424 9.84938613,55.0244537 9.49119526,55.0675625 L5.17074494,55.5841421 L11.3439067,41.8131684 C11.4567646,41.8961165 11.5579977,41.9955333 11.6414303,42.1104498 L13.0906623,44.1030228 C13.2283442,44.29229 13.3831001,44.4638777 13.5517816,44.6166961 L10.3025133,51.8649148 C10.0818832,52.3573969 10.302029,52.9353702 10.79439,53.1561214 C10.9242009,53.2143668 11.0599453,53.2418547 11.193389,53.2418547 C11.5665953,53.2418547 11.9230909,53.0267949 12.0854756,52.6642447 L15.3232401,45.4418187 C15.6418338,45.485533 15.9698727,45.4848064 16.2991225,45.4329789 L18.7342876,45.0498431 C18.8800827,45.0269566 19.027452,45.0290152 19.1709463,45.0527493 L12.8975202,59.0478647 Z M41.8778013,55.5838999 L37.5572299,55.0675625 C37.1986758,55.0245748 36.8461763,55.1828424 36.6398351,55.4787918 L34.150905,59.0478647 L27.8748149,45.0473001 C28.0064422,45.0293785 28.1407335,45.0293785 28.2735717,45.0502063 L30.7078891,45.4333422 C31.0504591,45.4872283 31.3918181,45.485533 31.7225211,45.4362484 L34.9627074,52.6644869 C35.1253343,53.0271582 35.4815877,53.2420969 35.854794,53.2420969 C35.9883588,53.2420969 36.1241032,53.214609 36.253793,53.1563636 C36.7461541,52.9357335 36.9664209,52.357518 36.7456697,51.865157 L33.48405,44.5893292 C33.6413488,44.443292 33.7867806,44.2816338 33.9164704,44.103386 L35.3654602,42.1112975 C35.4567638,41.9857248 35.568653,41.8780738 35.6943468,41.7910085 L41.8778013,55.5838999 Z M44.8512215,24.2194335 L43.5655851,26.3277706 C43.1556878,27.0003169 42.997057,27.7992836 43.1194813,28.5774224 L43.5026171,31.0125875 C43.5831435,31.5246866 43.3726851,32.0321842 42.9535849,32.3370945 L40.9608908,33.7864476 C40.323098,34.2504731 39.8694864,34.9282264 39.6839731,35.6948614 L39.103699,38.0924879 C38.9820013,38.5951419 38.5942639,38.9830003 38.0914889,39.104698 L35.6938624,39.684851 C34.9271063,39.8703643 34.2492319,40.3239759 33.7852064,40.9618899 L32.3362166,42.9539784 C32.0313063,43.3733209 31.5239298,43.583537 31.0115885,43.5028896 L28.5771499,43.1197537 C27.79889,42.9973295 26.9998023,43.1557181 26.3271349,43.5658576 L24.2192821,44.8512518 C23.778143,45.1200766 23.2298373,45.1200766 22.7889405,44.8512518 L20.6806033,43.5657365 C20.1562739,43.2459318 19.555172,43.0793089 18.9469256,43.0793089 C18.7749746,43.0793089 18.602176,43.092629 18.4308305,43.1196326 L15.9955443,43.5027685 C15.4833241,43.5834159 14.9759475,43.3728365 14.6710373,42.9537362 L13.2216841,40.9611633 C12.7576586,40.3233704 12.0799053,39.8697589 11.3132703,39.6842455 L8.9156438,39.1039715 C8.41298988,38.9822738 8.02513141,38.5945364 7.9034337,38.0917614 L7.32328074,35.694256 C7.13776742,34.9274999 6.68427695,34.2495044 6.0462419,33.7854789 L4.05427442,32.3363679 C3.63505306,32.0314577 3.42471582,31.523839 3.50536326,31.0117398 L3.88849913,28.5773013 C4.01092339,27.7990414 3.85253473,27.0000748 3.44239529,26.3274073 L2.15700108,24.2193124 C1.88805519,23.7781733 1.88805519,23.2299887 2.15700108,22.7889707 L3.44263747,20.6806336 C3.85265583,20.0080873 4.01116558,19.2091206 3.88874132,18.4309818 L3.50560544,15.9958167 C3.4250791,15.4837176 3.63553742,14.97622 4.0546377,14.6713097 L6.04733173,13.2219566 C6.6851246,12.7579311 7.13873616,12.0801778 7.32424948,11.3135428 L7.90452353,8.91591626 C8.02622124,8.41326234 8.41395862,8.02540387 8.91673364,7.90370616 L11.3143601,7.3235532 C12.0811163,7.13803988 12.7589907,6.68442832 13.2228951,6.04651435 L14.6718849,4.05442578 C14.9767952,3.63520442 15.4841717,3.424625 15.996513,3.50539353 L18.4309516,3.8885294 C19.2093325,4.01119585 20.0084203,3.85256501 20.6809666,3.44242556 L22.7888194,2.15703135 C23.2299584,1.88820656 23.7782641,1.88820656 24.219161,2.15703135 L26.3274981,3.44254665 C27.0000445,3.85280719 27.7992533,4.01131694 28.577271,3.88877159 L31.0125572,3.50563572 C31.5245352,3.42535156 32.0321539,3.6355677 32.3370642,4.05466797 L33.7864173,6.04724091 C34.2504428,6.68503378 34.9281961,7.13864534 35.6948312,7.32415866 L38.0924577,7.90443272 C38.5951116,8.02613042 38.9829701,8.4138678 39.1046678,8.91664282 L39.6848207,11.3141482 C39.8703341,12.0809043 40.3238245,12.7588998 40.9618596,13.2229253 L42.9539482,14.6719152 C43.3731695,14.9768255 43.5835067,15.4844442 43.5028593,15.9965433 L43.1197234,18.4309818 C42.9972992,19.2092417 43.1556878,20.0082084 43.5658273,20.6808758 L44.8512215,22.7889707 C45.1202885,23.2301098 45.1202885,23.7782944 44.8512215,24.2194335 Z" id="Shape"></path>
                            <path d="M34.9372781,20.4642418 C34.721976,19.8013828 34.1582916,19.3385682 33.4661283,19.2564677 L27.5869786,18.5593396 L25.1072516,13.1834493 C24.8152981,12.5506212 24.2009972,12.1574346 23.5039902,12.1574346 C22.8071043,12.1574346 22.1926822,12.5506212 21.9007288,13.1834493 L19.4210018,18.5594607 L13.541852,19.2565888 C12.8496888,19.3386893 12.2858833,19.8015039 12.0707023,20.4643629 C11.8554003,21.1268585 12.0394605,21.8327053 12.5509542,22.3058127 L16.8975604,26.3254698 L15.7437935,32.1323275 C15.6080491,32.8160143 15.8739676,33.4950997 16.4378942,33.9046336 C16.7489802,34.1305918 17.1099562,34.2451376 17.473233,34.2451376 C17.768577,34.2451376 18.065253,34.1694624 18.3378316,34.0168862 L23.5038691,31.1253244 L28.6699066,34.0168862 C29.2781529,34.3573976 30.0060384,34.3144098 30.569965,33.9047547 C31.1338916,33.4950997 31.3998102,32.8158932 31.2639447,32.1323275 L30.1101778,26.3255909 L34.456784,22.3059338 C34.9685199,21.8328264 35.1525801,21.1271007 34.9372781,20.4642418 Z M28.3820703,25.2622799 C28.1326203,25.4929606 28.0209732,25.8367415 28.0870896,26.1699874 L29.267739,32.1121051 L23.9810937,29.1529738 C23.8328767,29.0700256 23.6684335,29.028491 23.5038691,29.028491 C23.3393047,29.028491 23.1749826,29.0699046 23.0266446,29.1529738 L17.7399992,32.1121051 L18.9206486,26.1699874 C18.9870072,25.8366204 18.875239,25.4929606 18.6256679,25.2622799 L14.1777074,21.1487762 L20.1942969,20.4354218 C20.5316599,20.3954614 20.8240977,20.1829445 20.9665021,19.8745225 L23.5039902,14.3731806 L26.0414782,19.8745225 C26.1838827,20.1829445 26.4761994,20.3954614 26.8136835,20.4354218 L32.8300308,21.1487762 L28.3820703,25.2622799 Z" id="Shape"></path>
                        </g>
                    </g>
                </g>
            </g>
        </g>
    </g>
</svg>