<?xml version="1.0" encoding="UTF-8"?>
<svg width="362px" height="361px" viewBox="0 0 362 361" version="1.1" xmlns="http://www.w3.org/2000/svg" xmlns:xlink="http://www.w3.org/1999/xlink">
    <title>3d-model</title>
    <g id="Page-1" stroke="none" stroke-width="1" fill="none" fill-rule="evenodd" opacity="0.0405738467">
        <g id="Product-(tab-2)-(Final)" transform="translate(-940.000000, -295.000000)" fill="#000000" fill-rule="nonzero">
            <g id="mini-content-2" transform="translate(888.500000, 250.000000)">
                <g id="3d-model" transform="translate(51.500000, 45.000000)">
                    <path d="M297,122.714028 C297,111.716504 288.07929,102.76969 277.113853,102.76969 C271.043902,102.76969 265.603533,105.514823 261.953093,109.828605 C261.948152,109.826481 261.943917,109.82365 261.939682,109.821526 L200.827277,82.6009558 C201.357339,80.8064963 201.64672,78.9086872 201.64672,76.944338 C201.64672,65.9468141 192.72601,57 181.760573,57 C170.795137,57 161.874427,65.9468141 161.874427,76.944338 C161.874427,78.9093951 162.163808,80.8064963 162.69387,82.6009558 L145.722711,90.1603377 C143.051227,91.3502732 141.847118,94.4875689 143.033582,97.1675782 C143.910196,99.1467928 145.845522,100.323279 147.874015,100.323279 C148.591822,100.323279 149.321627,100.176041 150.019672,99.8652844 L168.380567,91.687221 C171.91596,94.9172481 176.612408,96.8893839 181.759868,96.8893839 C186.907327,96.8893839 191.603775,94.9172481 195.139168,91.687221 L257.495914,119.462057 C257.321579,120.521035 257.227001,121.606913 257.227001,122.714736 C257.227001,123.717085 257.303228,124.702445 257.445801,125.665861 L197.536799,152.350571 C193.886359,148.008474 188.426932,145.24352 182.33369,145.24352 C176.066819,145.24352 170.471171,148.169162 166.823554,152.726452 L103.679833,124.601219 C103.738415,123.980414 103.770882,123.351822 103.770882,122.716151 C103.770882,121.9743 103.727122,121.242359 103.648071,120.521035 L129.764387,108.888549 C132.436577,107.698613 133.640686,104.561318 132.454222,101.881308 C131.267759,99.201299 128.138911,97.9943746 125.468133,99.1843101 L99.711073,110.656817 C96.0754548,105.869468 90.3358223,102.771813 83.8861468,102.771813 C72.9207102,102.771813 64,111.718627 64,122.716151 C64,132.769372 71.4561581,141.104583 81.1130263,142.462285 L81.1130263,219.5122 C71.4568639,220.869902 64,229.205113 64,239.258333 C64,250.255857 72.9207102,259.202671 83.8861468,259.202671 C90.3358223,259.202671 96.0754548,256.105017 99.711073,251.318376 L162.092521,279.104537 C161.949242,280.067953 161.873015,281.052605 161.873015,282.055662 C161.873015,293.053186 170.793725,302 181.759162,302 C192.724598,302 201.645309,293.053186 201.645309,282.055662 C201.645309,281.052605 201.569081,280.067953 201.426508,279.104537 L222.158919,269.869618 C224.831109,268.679683 226.035218,265.542387 224.848754,262.862378 C223.66229,260.182368 220.533443,258.975444 217.861958,260.165379 L197.120372,269.403838 C194.552642,266.273621 191.053245,263.943301 187.052724,262.834063 L187.052724,204.953364 L257.445801,236.307916 C257.302522,237.271332 257.227001,238.255984 257.227001,239.259041 C257.227001,240.366863 257.321579,241.452741 257.495914,242.51172 L238.513907,250.966562 C235.842423,252.156498 234.638314,255.293794 235.824778,257.973803 C236.701392,259.953017 238.636718,261.129503 240.665211,261.129503 C241.383018,261.129503 242.112823,260.982266 242.811573,260.670801 L261.953093,252.145172 C265.603533,256.458246 271.043197,259.203379 277.113147,259.203379 C288.078584,259.203379 297,250.256565 297,239.259041 C297,230.099865 290.809356,222.36847 282.406709,220.03815 L282.406709,141.934919 C290.810062,139.603891 297,131.872496 297,122.714028 L297,122.714028 Z M181.760573,86.2698645 C176.632877,86.2698645 172.46155,82.0863317 172.46155,76.9436301 C172.46155,71.8009286 176.632877,67.6173958 181.760573,67.6173958 C186.88827,67.6173958 191.059597,71.8009286 191.059597,76.9436301 C191.058891,82.0863317 186.887564,86.2698645 181.760573,86.2698645 Z M277.113853,113.387793 C282.24155,113.387793 286.412877,117.571326 286.412877,122.714028 C286.412877,127.856729 282.24155,132.040262 277.113853,132.040262 C271.986156,132.040262 267.81483,127.856729 267.81483,122.714028 C267.81483,117.571326 271.986156,113.387793 277.113853,113.387793 Z M182.335101,155.860208 C187.462798,155.860208 191.634125,160.043741 191.634125,165.186442 C191.634125,170.329144 187.462798,174.512677 182.335101,174.512677 C177.207405,174.512677 173.036078,170.329144 173.036078,165.186442 C173.036078,160.043741 177.207405,155.860208 182.335101,155.860208 Z M162.637405,162.47741 C162.516712,163.363668 162.448955,164.266915 162.448955,165.185734 C162.448955,174.13538 168.357275,181.725908 176.466306,184.243107 L176.466306,193.334327 L99.8931715,227.4418 C97.801156,224.59898 94.9765114,222.330245 91.6994438,220.920868 L91.6994438,141.051493 C94.9765114,139.641409 97.801156,137.373382 99.8931715,134.530561 L162.637405,162.47741 Z M74.5878292,122.714028 C74.5878292,117.571326 78.7591558,113.387793 83.8868526,113.387793 C89.0145493,113.387793 93.185876,117.571326 93.185876,122.714028 C93.185876,127.856729 89.0145493,132.040262 83.8868526,132.040262 C78.7591558,132.039554 74.5878292,127.856021 74.5878292,122.714028 Z M83.8868526,248.584568 C78.7591558,248.584568 74.5878292,244.401035 74.5878292,239.258333 C74.5878292,234.115632 78.7591558,229.932099 83.8868526,229.932099 C89.0145493,229.932099 93.185876,234.115632 93.185876,239.258333 C93.1851702,244.401035 89.0138435,248.584568 83.8868526,248.584568 Z M103.649483,241.453449 C103.728533,240.732126 103.772294,240.000185 103.772294,239.258333 C103.772294,238.622663 103.739121,237.994071 103.681244,237.373266 L176.467012,204.952656 L176.467012,262.833355 C172.466491,263.943301 168.967094,266.272913 166.399363,269.40313 L103.649483,241.453449 Z M191.058891,282.054954 C191.058891,287.197656 186.887564,291.381188 181.759868,291.381188 C176.632171,291.381188 172.460844,287.197656 172.460844,282.054954 C172.460844,276.912253 176.632171,272.72872 181.759868,272.72872 C186.887564,272.72872 191.058891,276.912253 191.058891,282.054954 Z M187.054135,193.334327 L187.054135,184.558111 C195.748281,182.427411 202.221248,174.552318 202.221248,165.185734 C202.221248,164.099856 202.130905,163.035215 201.963628,161.996056 L261.752643,135.365144 C264.320373,138.495361 267.819771,140.825681 271.820292,141.934919 L271.820292,220.037442 C267.819771,221.147388 264.320373,223.477 261.752643,226.607217 L187.054135,193.334327 Z M286.412877,239.258333 C286.412877,244.401035 282.24155,248.584568 277.113853,248.584568 C271.986156,248.584568 267.81483,244.401035 267.81483,239.258333 C267.81483,234.115632 271.986156,229.932099 277.113853,229.932099 C282.240844,229.932099 286.412877,234.115632 286.412877,239.258333 Z" id="Shape"></path>
                    <path d="M6.45258147,153.917211 C6.77199602,153.973111 7.08925236,154 7.40219229,154 C9.96829972,154 12.2437687,152.192093 12.7085025,149.619982 C13.3163973,146.255364 14.0357994,142.867395 14.8487238,139.550894 C15.5465439,136.701405 13.7638654,133.834935 10.866833,133.148567 C7.96980058,132.462907 5.05550252,134.215621 4.35768244,137.06511 C3.49439988,140.589644 2.7296754,144.189184 2.08437169,147.764666 C1.56208573,150.649534 3.51885955,153.404204 6.45258147,153.917211 L6.45258147,153.917211 Z" id="Path"></path>
                    <path d="M32.3874765,84.7605193 C29.8405209,83.2440474 26.5389384,84.0666853 25.0139183,86.5943757 C23.1212594,89.7297933 21.302415,92.9612803 19.6068334,96.1998835 C18.2380419,98.8151037 19.2628439,102.03734 21.8965135,103.397254 C22.6891226,103.806438 23.5361968,104 24.3710879,104 C26.3124786,104 28.1872214,102.952489 29.1446588,101.123614 C30.7399101,98.0757258 32.4526911,95.0342426 34.2342701,92.0831357 C35.7607234,89.5540221 34.9337154,86.2755679 32.3874765,84.7605193 L32.3874765,84.7605193 Z" id="Path"></path>
                    <path d="M67.6686305,45.7737312 C65.74501,43.5809538 62.445486,43.3962091 60.2977679,45.3594768 C57.6399146,47.7902906 55.0196429,50.3347936 52.510724,52.9219299 C50.4820143,55.0130977 50.4987172,58.3875306 52.5476096,60.4580923 C53.5650963,61.4869782 54.892979,62 56.2201658,62 C57.5647514,62 58.9086411,61.4727671 59.9296075,60.4204328 C62.2930717,57.9839345 64.7602333,55.5879379 67.2635845,53.2985248 C69.4099107,51.3352571 69.591555,47.9657981 67.6686305,45.7737312 Z" id="Path"></path>
                    <path d="M21.4663699,241.342756 C20.3961992,238.658298 17.2650661,237.316416 14.4745402,238.347298 C11.6840144,239.377486 10.2898339,242.38891 11.3607261,245.073368 C12.6834657,248.390933 14.1303249,251.713357 15.660171,254.948312 C16.5672542,256.867071 18.5329621,258 20.5895949,258 C21.3386421,258 22.1006787,257.849359 22.8273556,257.531417 C25.5486054,256.34087 26.7508335,253.253779 25.5125241,250.636658 C24.0728812,247.591218 22.7118955,244.464557 21.4663699,241.342756 L21.4663699,241.342756 Z" id="Path"></path>
                    <path d="M47.2375647,285.047085 C45.4669367,282.714516 42.2120449,282.316308 39.9687434,284.157394 C37.7254419,285.999198 37.3424728,289.382893 39.1131009,291.715461 C41.3025797,294.599064 43.6072942,297.453967 45.9623813,300.200529 C46.9850121,301.392284 48.4030326,302 49.8265734,302 C51.0520743,302 52.2830955,301.549415 53.2691545,300.634612 C55.4020505,298.656484 55.5897398,295.254852 53.6873153,293.037082 C51.469545,290.451239 49.2993872,287.762794 47.2375647,285.047085 L47.2375647,285.047085 Z" id="Path"></path>
                    <path d="M250.129293,24.0209396 C253.223117,25.3852091 256.317642,26.8632259 259.328076,28.4138177 C260.100306,28.8115843 260.925092,29 261.738666,29 C263.640509,29 265.477183,27.9685983 266.411286,26.1702747 C267.744819,23.6029358 266.736435,20.4452275 264.158366,19.1165477 C260.960129,17.4689567 257.672197,15.8981277 254.384965,14.44942 C251.731214,13.2791489 248.626879,14.4731464 247.451716,17.1165495 C246.275853,19.7599525 247.474841,22.8513663 250.129293,24.0209396 L250.129293,24.0209396 Z" id="Path"></path>
                    <path d="M348.408162,147.677894 C348.895391,150.225811 351.135645,152 353.650143,152 C353.981373,152 354.316877,151.968824 354.654518,151.905764 C357.552957,151.357352 359.456283,148.575617 358.904945,145.692559 C358.222541,142.122216 357.420466,138.527074 356.521515,135.007037 C355.795658,132.16295 352.889383,130.44261 350.028696,131.164614 C347.168721,131.886619 345.439203,134.778887 346.165771,137.622975 C347.011298,140.935408 347.765648,144.317988 348.408162,147.677894 Z" id="Path"></path>
                    <path d="M148.277538,12 C148.601572,12 148.930536,11.9702218 149.26091,11.9092803 C152.599867,11.2915553 156.00363,10.7659351 159.377808,10.347655 C162.272275,9.98893128 164.322845,7.39060833 163.957955,4.54436437 C163.59236,1.69812041 160.951485,-0.318488444 158.054905,0.04162028 C154.47081,0.486216051 150.854311,1.04438457 147.306845,1.70089048 C144.439146,2.23135833 142.552002,4.94671662 143.092293,7.76595242 C143.568482,10.2603979 145.786,12 148.277538,12 L148.277538,12 Z" id="Path"></path>
                    <path d="M98.2817546,30 C99.1190488,30 99.9683043,29.8031717 100.75916,29.3880304 C103.752311,27.8168693 106.833413,26.3157071 109.917329,24.9261271 C112.567822,23.7319893 113.732998,20.647191 112.519977,18.0364439 C111.306956,15.4256969 108.175194,14.2779939 105.526108,15.4728248 C102.250107,16.9490369 98.9762163,18.544455 95.7966093,20.2133371 C93.2242165,21.5634128 92.2504223,24.7119724 93.6210517,27.245097 C94.569516,29.0006113 96.3946766,30 98.2817546,30 L98.2817546,30 Z" id="Path"></path>
                    <path d="M200.683034,10.4651717 C204.061679,10.847304 207.468474,11.3365174 210.809118,11.9202141 C211.118059,11.9741046 211.424889,12 211.727496,12 C214.242655,12 216.469986,10.2055177 216.919674,7.65726874 C217.42355,4.80177422 215.504457,2.0806559 212.633207,1.57954461 C209.083553,0.960154251 205.464229,0.440146302 201.875166,0.0342181587 C198.979284,-0.294023737 196.363491,1.77620979 196.034141,4.65619998 C195.705496,7.53689005 197.786449,10.1376297 200.683034,10.4651717 Z" id="Path"></path>
                    <path d="M11.9576718,201.088193 C11.5230205,197.733373 11.1893489,194.315401 10.9647059,190.929006 C10.7722593,188.028185 8.16288837,185.826256 5.1393548,186.010803 C2.11435776,186.19535 -0.181830129,188.696202 0.0113482015,191.597022 C0.24989417,195.192524 0.604786179,198.822409 1.06577992,202.384931 C1.41115936,205.049279 3.7753987,207 6.5055061,207 C6.73088082,207 6.95918248,206.986668 7.18894762,206.959302 C10.1949195,206.601435 12.3308572,203.972874 11.9576718,201.088193 Z" id="Path"></path>
                    <path d="M350.287509,227.244317 C347.504669,226.360591 344.546626,227.949715 343.68187,230.7936 C342.67287,234.110626 341.549883,237.442753 340.343869,240.695064 C339.310946,243.480704 340.68372,246.593518 343.408159,247.649098 C344.023832,247.887827 344.655688,248 345.276989,248 C347.406865,248 349.412902,246.672614 350.212925,244.516871 C351.494931,241.060346 352.68828,237.520411 353.760606,233.994857 C354.626066,231.150254 353.071053,228.128042 350.287509,227.244317 Z" id="Path"></path>
                    <path d="M93.3699108,326.365371 C90.3752955,324.642677 87.3937161,322.808597 84.509181,320.913634 C82.0374466,319.289875 78.6561023,319.888321 76.9563776,322.249587 C75.2566528,324.610853 75.8830959,327.841767 78.3548303,329.464835 C81.4182456,331.477411 84.5852233,333.425646 87.7659609,335.255575 C88.6429812,335.75993 89.6090796,336 90.5628664,336 C92.4052608,336 94.2013058,335.104753 95.2209958,333.48722 C96.7679119,331.032555 95.9394138,327.843843 93.3699108,326.365371 L93.3699108,326.365371 Z" id="Path"></path>
                    <path d="M328.695258,274.932906 C326.26984,273.280813 322.947253,273.881319 321.272441,276.27282 C319.320866,279.05928 317.256166,281.825396 315.135971,284.494 C313.318153,286.781676 313.725828,290.088668 316.045236,291.880365 C317.022091,292.634505 318.181083,293 319.332961,293 C320.916704,293 322.484794,292.307594 323.537066,290.983113 C325.788883,288.148949 327.981649,285.211661 330.054175,282.251924 C331.728987,279.861124 331.120676,276.584298 328.695258,274.932906 Z" id="Path"></path>
                    <path d="M356.658282,175 C353.708229,175 351.316564,177.351854 351.316564,180.252801 C351.316564,183.641909 351.213291,187.068136 351.009594,190.435532 C350.834385,193.331577 353.080043,195.818603 356.025111,195.990895 C356.132657,195.997199 356.240204,196 356.347038,196 C359.152508,196 361.505713,193.848453 361.674511,191.058865 C361.891029,187.484158 362,183.848519 362,180.252101 C362,177.351854 359.608335,175 356.658282,175 L356.658282,175 Z" id="Path"></path>
                    <path d="M299.614494,43.3242026 C297.453471,41.3767528 294.17315,41.6038482 292.284334,43.8305253 C290.395517,46.0572023 290.615775,49.4407803 292.775412,51.38823 C295.293834,53.6584694 297.777625,56.0365434 300.15752,58.4574655 C301.16946,59.486536 302.487545,60 303.804937,60 C305.146572,60 306.487514,59.4672543 307.50361,58.4053336 C309.518486,56.2993455 309.495629,52.9079121 307.453048,50.8312037 C304.925621,48.2603129 302.288066,45.7344127 299.614494,43.3242026 Z" id="Path"></path>
                    <path d="M340.36656,94.1095956 C338.644684,90.8825474 336.801749,87.6662179 334.889027,84.5499297 C333.342329,82.0296022 330.052392,81.2442776 327.540788,82.7970623 C325.029184,84.3491324 324.247289,87.6504971 325.793987,90.1708246 C327.594196,93.10418 329.32889,96.1318601 330.95036,99.1695443 C331.913129,100.973862 333.756776,102 335.663089,102 C336.514057,102 337.377132,101.79563 338.179677,101.364023 C340.779583,99.9670168 341.758731,96.7192457 340.36656,94.1095956 L340.36656,94.1095956 Z" id="Path"></path>
                    <path d="M139.915243,345.874852 C136.571075,345.093625 133.209797,344.204217 129.924798,343.229907 C127.102465,342.39322 124.109752,343.911855 123.239313,346.621846 C122.368161,349.331836 123.950064,352.206835 126.771684,353.042838 C130.263421,354.078084 133.835715,355.023637 137.38876,355.853477 C137.813643,355.952757 138.238525,356 138.656279,356 C141.065135,356 143.252996,354.42522 143.847546,352.07743 C144.544753,349.32225 142.784627,346.545161 139.915243,345.874852 L139.915243,345.874852 Z" id="Path"></path>
                    <path d="M191.425074,350.010433 C188.05618,350.220841 184.630567,350.331021 181.241366,350.337419 C178.340939,350.343105 175.994408,352.735078 176,355.679372 C176.005612,358.620112 178.355644,361 181.25187,361 L181.263074,361 C184.858848,360.992892 188.494536,360.875603 192.070002,360.653111 C194.964827,360.472558 197.167808,357.943393 196.989945,355.004786 C196.811381,352.066178 194.322,349.827747 191.425074,350.010433 L191.425074,350.010433 Z" id="Path"></path>
                    <path d="M285.478173,314.140377 C282.813135,316.261773 280.050484,318.32841 277.266766,320.281972 C274.876308,321.960314 274.281503,325.282863 275.938812,327.704369 C276.96199,329.19852 278.603148,330 280.271693,330 C281.306809,330 282.352459,329.691356 283.268193,329.049176 C286.223962,326.974006 289.157961,324.77936 291.988028,322.52711 C294.274553,320.706535 294.671324,317.353407 292.873565,315.037863 C291.075103,312.721609 287.764698,312.320513 285.478173,314.140377 L285.478173,314.140377 Z" id="Path"></path>
                    <path d="M241.675607,339.347318 C238.430892,340.554985 235.104106,341.681813 231.787398,342.695466 C228.941523,343.565717 227.356962,346.523025 228.248233,349.301784 C228.97104,351.556142 231.101307,353 233.399317,353 C233.934223,353 234.477768,352.921973 235.014115,352.757482 C238.538161,351.679861 242.073727,350.482738 245.522181,349.199153 C248.309022,348.162303 249.706402,345.11572 248.644508,342.395306 C247.581175,339.675595 244.461728,338.309765 241.675607,339.347318 L241.675607,339.347318 Z" id="Path"></path>
                </g>
            </g>
        </g>
    </g>
</svg>