<svg xmlns="http://www.w3.org/2000/svg" viewBox="0 0 579.62 133.02"><defs><style>.cls-1{fill:#575756;}.cls-2{fill:#cc2227;}</style></defs><g id="Layer_2" data-name="Layer 2"><g id="Layer_1-2" data-name="Layer 1"><path class="cls-1" d="M143.89,30H69.45L83.7,0h93.43l-6.08,12.79A30.09,30.09,0,0,1,143.89,30Z"/><path class="cls-1" d="M62.08,45.44,35,102.41,60,133,87.39,75.38h34.84a30.08,30.08,0,0,0,27.16-17.15l6.08-12.79Z"/><polygon class="cls-1" points="46.45 45.43 25.1 90.31 0 59.59 6.73 45.43 46.45 45.43"/><polygon class="cls-2" points="68.07 0 53.79 29.96 14.09 29.96 28.35 0 68.07 0"/><path class="cls-1" d="M214,63.67V9.94h13.57V63.67Z"/><path class="cls-1" d="M289,63.67h-8L251,34.4V63.67H237.42V9.94h7.92l30,30.12V9.94H289Z"/><path class="cls-1" d="M312.32,31.93h24.25v11.6H312.32V63.67H298.75V9.94h39.73V21.6H312.32Z"/><path class="cls-1" d="M385.24,63.67H345.58V9.94h13.57V52h26.09Z"/><path class="cls-1" d="M393,63.67V9.94h13.57V63.67Z"/><path class="cls-1" d="M470.6,32.28c.19,2.55.29,4.1.29,4.67q0,12.22-7.78,20t-20,7.81a28,28,0,0,1-20.35-8.09,26.67,26.67,0,0,1-8.27-19.84,26.64,26.64,0,0,1,8.27-19.82A27.78,27.78,0,0,1,443,9a30.71,30.71,0,0,1,16.44,4.39,22.25,22.25,0,0,1,9.72,12.09l-13.79,3.46q-3.52-7.71-12.37-7.7a13.78,13.78,0,0,0-10.56,4.52,15.75,15.75,0,0,0-4.21,11.16,15.72,15.72,0,0,0,4.24,11.18,14.12,14.12,0,0,0,10.75,4.52,14.61,14.61,0,0,0,8.51-2.41,13,13,0,0,0,5-6.63H439V32.28Z"/><path class="cls-1" d="M527.13,63.67H513.49V42.46H492.42V63.67H478.85V9.94h13.57V30.8h21.07V9.94h13.64Z"/><path class="cls-1" d="M563.78,21.6V63.67H550.21V21.6H534.38V9.94h45.24V21.6Z"/><path class="cls-1" d="M221,100.66h19.57v6.19H221V123.3h-7V84.46h27.6v6.28H221Z"/><path class="cls-1" d="M270.62,123.3V84.46h6.95V123.3Z"/><path class="cls-1" d="M325.17,90.74V123.3h-6.95V90.74H306.31V84.46h30.77v6.28Z"/><path class="cls-1" d="M402.17,123.3h-4.8L372.78,97.09V123.3h-6.95V84.46h4.81l24.58,26.73V84.46h6.95Z"/><path class="cls-1" d="M461.55,123.3H433.49V84.46h27.85V90.8h-20.9v9.86H460v6.19H440.44V117h21.11Z"/><path class="cls-1" d="M515.14,86.61a13.24,13.24,0,0,1,5,8.12L513,96.21a7.41,7.41,0,0,0-2.6-4.62,7.75,7.75,0,0,0-5.06-1.71,7.26,7.26,0,0,0-4.4,1.3A4.42,4.42,0,0,0,499.2,95a3.84,3.84,0,0,0,.91,2.63,6.42,6.42,0,0,0,3.12,1.66l8.95,2.56q8.54,2.44,8.53,10.53a10.34,10.34,0,0,1-4,8.59q-4,3.11-10.4,3.11a18.31,18.31,0,0,1-10.5-2.91,11.53,11.53,0,0,1-5-8.54l7.47-1.48q1.32,6.75,8.68,6.75a7.82,7.82,0,0,0,5-1.41,4.67,4.67,0,0,0,1.76-3.86,3.89,3.89,0,0,0-1.07-2.86,8,8,0,0,0-3.53-1.74l-7.67-2q-9.7-2.59-9.71-10.72a10.45,10.45,0,0,1,3.71-8.41q3.71-3.15,9.89-3.15A15.92,15.92,0,0,1,515.14,86.61Z"/><path class="cls-1" d="M574.05,86.61a13.24,13.24,0,0,1,5,8.12L572,96.21a7.41,7.41,0,0,0-2.6-4.62,7.76,7.76,0,0,0-5.06-1.71,7.26,7.26,0,0,0-4.4,1.3A4.43,4.43,0,0,0,558.1,95a3.85,3.85,0,0,0,.92,2.63,6.33,6.33,0,0,0,3.12,1.66l8.94,2.56q8.55,2.44,8.54,10.53a10.34,10.34,0,0,1-4,8.59q-4,3.11-10.4,3.11a18.37,18.37,0,0,1-10.51-2.91,11.55,11.55,0,0,1-5-8.54l7.46-1.48q1.34,6.75,8.69,6.75a7.77,7.77,0,0,0,5-1.41,4.65,4.65,0,0,0,1.77-3.86,3.86,3.86,0,0,0-1.08-2.86A7.89,7.89,0,0,0,568,108l-7.67-2q-9.71-2.59-9.71-10.72a10.48,10.48,0,0,1,3.7-8.41c2.48-2.1,5.77-3.15,9.9-3.15A15.92,15.92,0,0,1,574.05,86.61Z"/></g></g></svg>