<?xml version="1.0" encoding="UTF-8"?>
<svg width="200px" height="46px" viewBox="0 0 200 46" version="1.1" xmlns="http://www.w3.org/2000/svg" xmlns:xlink="http://www.w3.org/1999/xlink">
    <title>IF Logo</title>
    <g id="Page-1" stroke="none" stroke-width="1" fill="none" fill-rule="evenodd">
        <g id="Home-(Final)" transform="translate(-41.000000, -72.000000)" fill-rule="nonzero">
            <g id="NAVIGATION" transform="translate(0.000000, 50.000000)">
                <g id="IF-Logo" transform="translate(41.000000, 22.000000)">
                    <path d="M49.5567973,10.3322254 L23.9191019,10.3322254 L28.826909,0 L61.004903,0 L58.9109053,4.40497211 C57.1983851,8.02068353 53.5575565,10.3277034 49.5567973,10.3322254 Z" id="Path" fill="#DBDBDB"></path>
                    <path d="M21.3808185,15.6498775 L12.054263,35.2707736 L20.6644509,45.8061994 L30.0977727,25.9614384 L42.0969305,25.9614384 C46.0932149,25.9615463 49.7332209,23.6630889 51.4510386,20.0548496 L53.5450363,15.6498775 L21.3808185,15.6498775 Z" id="Path" fill="#DBDBDB"></path>
                    <polygon id="Path" fill="#DBDBDB" points="15.997729 15.6464334 8.64462861 31.1034426 0 20.5232438 2.31786257 15.6464334"></polygon>
                    <polygon id="Path" fill="#CC2227" points="23.4438195 0 18.5256802 10.3184491 4.85270188 10.3184491 9.76395304 0"></polygon>
                    <polygon id="Path" fill="#DBDBDB" points="73.7032081 21.9284264 73.7032081 3.42341069 78.3768181 3.42341069 78.3768181 21.9284264"></polygon>
                    <polygon id="Path" fill="#DBDBDB" points="99.5337717 21.9284264 96.7785116 21.9284264 86.4462861 11.8476185 86.4462861 21.9284264 81.7692321 21.9284264 81.7692321 3.42341069 84.4969396 3.42341069 94.829165 13.796965 94.829165 3.42341069 99.5337717 3.42341069"></polygon>
                    <polygon id="Path" fill="#DBDBDB" points="107.565355 10.9969319 115.917237 10.9969319 115.917237 14.9920591 107.565355 14.9920591 107.565355 21.9284264 102.891745 21.9284264 102.891745 3.42341069 116.575055 3.42341069 116.575055 7.43920231 107.565355 7.43920231"></polygon>
                    <polygon id="Path" fill="#DBDBDB" points="132.679551 21.9284264 119.020349 21.9284264 119.020349 3.42341069 123.693959 3.42341069 123.693959 17.9091908 132.679551 17.9091908"></polygon>
                    <polygon id="Path" fill="#DBDBDB" points="135.352153 21.9284264 135.352153 3.42341069 140.025763 3.42341069 140.025763 21.9284264"></polygon>
                    <path d="M162.078176,11.1174746 C162.143614,11.9957137 162.178054,12.5295454 162.178054,12.7258577 C162.178054,15.5316309 161.284891,17.827681 159.498564,19.6140079 C157.712237,21.4003349 155.416187,22.2969425 152.610414,22.3038306 C149.992806,22.3650716 147.46282,21.3592933 145.601721,19.5175738 C143.735856,17.7402551 142.702376,15.2609027 142.753471,12.6845288 C142.703039,10.1102916 143.736568,7.63332121 145.601721,5.85837182 C147.453311,4.02884437 149.9704,3.03270399 152.572529,3.09966763 C154.564619,3.06027245 156.527323,3.58437653 158.234588,4.61161662 C159.81385,5.55304264 161.001995,7.03088977 161.582229,8.77550347 L156.83285,9.96715347 C156.02464,8.19689884 154.604533,7.31291956 152.572529,7.31521561 C151.191418,7.28002448 149.863529,7.84840131 148.935586,8.87193757 C147.967063,9.91349907 147.446364,11.2937858 147.48563,12.7155254 C147.446208,14.1412614 147.970975,15.5249621 148.945918,16.5660014 C149.898114,17.5941033 151.247524,18.1614833 152.648299,18.1227234 C153.68756,18.155519 154.711462,17.865554 155.579207,17.2927013 C156.387418,16.7402907 156.992303,15.9382132 157.301244,15.0092795 L151.194899,15.0092795 L151.194899,11.1174746 L162.078176,11.1174746 Z" id="Path" fill="#DBDBDB"></path>
                    <polygon id="Path" fill="#DBDBDB" points="181.547533 21.9284264 176.849815 21.9284264 176.849815 14.6235431 169.593148 14.6235431 169.593148 21.9284264 164.919538 21.9284264 164.919538 3.42341069 169.593148 3.42341069 169.593148 10.6077514 176.849815 10.6077514 176.849815 3.42341069 181.547533 3.42341069"></polygon>
                    <polygon id="Path" fill="#DBDBDB" points="194.170069 7.43920231 194.170069 21.9284264 189.496459 21.9284264 189.496459 7.43920231 184.044488 7.43920231 184.044488 3.42341069 199.625484 3.42341069 199.625484 7.43920231"></polygon>
                    <polygon id="Path" fill="#DBDBDB" points="76.1140607 34.6680604 82.8541158 34.6680604 82.8541158 36.7999429 76.1140607 36.7999429 76.1140607 42.4654465 73.7032081 42.4654465 73.7032081 29.0886587 83.2088555 29.0886587 83.2088555 31.2515379 76.1140607 31.2515379"></polygon>
                    <polygon id="Path" fill="#DBDBDB" points="93.2035616 42.4654465 93.2035616 29.0886587 95.5971938 29.0886587 95.5971938 42.4654465"></polygon>
                    <polygon id="Path" fill="#DBDBDB" points="111.990991 31.2515379 111.990991 42.4654465 109.597359 42.4654465 109.597359 31.2515379 105.495466 31.2515379 105.495466 29.0886587 116.092885 29.0886587 116.092885 31.2515379"></polygon>
                    <polygon id="Path" fill="#DBDBDB" points="138.51037 42.4654465 136.857214 42.4654465 128.388233 33.4385256 128.388233 42.4654465 125.994601 42.4654465 125.994601 29.0886587 127.651201 29.0886587 136.116738 38.2946715 136.116738 29.0886587 138.51037 29.0886587"></polygon>
                    <polygon id="Path" fill="#DBDBDB" points="158.961288 42.4654465 149.297213 42.4654465 149.297213 29.0886587 158.888963 29.0886587 158.888963 31.2722023 151.690846 31.2722023 151.690846 34.6680604 158.427457 34.6680604 158.427457 36.7999429 151.690846 36.7999429 151.690846 40.2956792 158.961288 40.2956792"></polygon>
                    <path d="M177.418087,29.8291348 C178.319529,30.5150853 178.933391,31.5119971 179.140125,32.6257238 L176.681055,33.135447 C176.589002,32.5127806 176.270089,31.9460966 175.785595,31.5442842 C175.29283,31.1476779 174.675227,30.9389624 174.042893,30.9553474 C173.502645,30.9368595 172.970953,31.0939501 172.5275,31.4030772 C172.118962,31.7127441 171.893721,32.2072394 171.928231,32.7187139 C171.915768,33.0492116 172.027588,33.3723847 172.241642,33.6245056 C172.539286,33.9118539 172.911577,34.1099319 173.316194,34.1962221 L176.398641,35.0779053 C178.359468,35.6381416 179.338733,36.8470119 179.336437,38.7045165 C179.3827,39.8554318 178.869444,40.9576496 177.958807,41.662977 C177.040387,42.3770486 175.846441,42.7340844 174.376969,42.7340844 C173.097769,42.7747176 171.836484,42.4251616 170.76069,41.7318585 C169.773732,41.0601483 169.141352,39.9800435 169.038652,38.7906184 L171.611376,38.2808952 C171.914455,39.830729 172.910941,40.605646 174.600834,40.605646 C175.213413,40.6447398 175.820969,40.4734091 176.322871,40.1200314 C176.726156,39.7995321 176.951525,39.3052563 176.929028,38.7906184 C176.945581,38.4257788 176.812473,38.0699949 176.560512,37.8056129 C176.211483,37.5077372 175.793585,37.301748 175.344754,37.2063438 L172.703148,36.5175288 C170.47598,35.9228518 169.361247,34.6921689 169.358951,32.8254802 C169.314574,31.7144492 169.786226,30.6452869 170.636703,29.929013 C171.488538,29.2057572 172.623934,28.8441293 174.042893,28.8441293 C175.245582,28.7930545 176.431654,29.1391941 177.418087,29.8291348 L177.418087,29.8291348 Z" id="Path" fill="#DBDBDB"></path>
                    <path d="M197.707134,29.8291348 C198.608576,30.5150853 199.222438,31.5119971 199.429171,32.6257238 L197.001098,33.135447 C196.909045,32.5127806 196.590132,31.9460966 196.105639,31.5442842 C195.612727,31.1479443 194.995225,30.9392628 194.362937,30.9553474 C193.822688,30.9368595 193.290997,31.0939501 192.847544,31.4030772 C192.426525,31.7054937 192.187857,32.2009904 192.213834,32.7187139 C192.202662,33.0496142 192.315688,33.3727227 192.530689,33.6245056 C192.82733,33.91323 193.200042,34.1115319 193.60524,34.1962221 L196.684243,35.0779053 C198.647366,35.6381416 199.62778,36.8470119 199.625484,38.7045165 C199.671747,39.8554318 199.15849,40.9576496 198.247853,41.662977 C197.329433,42.3770486 196.135487,42.7340844 194.666015,42.7340844 C193.385809,42.7741112 192.123602,42.4246324 191.046292,41.7318585 C190.060071,41.0594614 189.427914,39.9797383 189.324255,38.7906184 L191.893535,38.2808952 C192.201206,39.830729 193.198839,40.605646 194.886436,40.605646 C195.499164,40.6461442 196.107179,40.4746839 196.608474,40.1200314 C197.013965,39.800968 197.240894,39.306083 197.218075,38.7906184 C197.234934,38.4250846 197.10038,38.0687642 196.846115,37.8056129 C196.497131,37.5016065 196.076281,37.2917745 195.623468,37.1960116 L192.981863,36.5071965 C190.752398,35.9125196 189.637666,34.6818367 189.637666,32.815148 C189.594013,31.7049919 190.064059,30.6365896 190.911973,29.9186808 C191.766104,29.195425 192.899205,28.8337971 194.321608,28.8337971 C195.528966,28.7834383 196.719141,29.1333475 197.707134,29.8291348 Z" id="Path" fill="#DBDBDB"></path>
                </g>
            </g>
        </g>
    </g>
</svg>