<svg xmlns="http://www.w3.org/2000/svg" viewBox="0 0 579.62 550.75"><defs><style>.cls-1{fill:#575756;}.cls-2{fill:#cc2227;}</style></defs><g id="Layer_2" data-name="Layer 2"><g id="Layer_1-2" data-name="Layer 1"><path class="cls-1" d="M466,62.81H309.83L339.73,0h196L522.93,26.83A63.07,63.07,0,0,1,466,62.81Z"/><path class="cls-1" d="M294.37,95.3,237.53,214.79,290,279l57.49-120.9h73.08a63.08,63.08,0,0,0,57-36L490.27,95.3Z"/><polygon class="cls-1" points="261.6 95.29 216.81 189.43 164.17 124.98 178.3 95.29 261.6 95.29"/><polygon class="cls-2" points="306.94 0 277 62.84 193.73 62.84 223.63 0 306.94 0"/><path class="cls-1" d="M0,455V369.82H21.52V455Z"/><path class="cls-1" d="M118.82,455H106.15l-47.51-46.4V455H37.12V369.82H49.67l47.52,47.74V369.82h21.63Z"/><path class="cls-1" d="M155.86,404.68H194.3v18.38H155.86V455H134.35V369.82h63V388.3H155.86Z"/><path class="cls-1" d="M271.46,455H208.59V369.82H230.1V436.5h41.36Z"/><path class="cls-1" d="M283.72,455V369.82h21.51V455Z"/><path class="cls-1" d="M406.79,405.23c.3,4,.45,6.5.45,7.4q0,19.38-12.33,31.77T363.2,456.78q-19.17,0-32.28-12.83a44.24,44.24,0,0,1,0-62.87Q344,368.24,363,368.25q14.8,0,26.06,6.95a35.24,35.24,0,0,1,15.41,19.17l-21.85,5.48Q377,387.63,363,387.64a21.89,21.89,0,0,0-16.75,7.18,26.74,26.74,0,0,0,.06,35.41,22.37,22.37,0,0,0,17,7.17,23.24,23.24,0,0,0,13.5-3.82,20.57,20.57,0,0,0,7.91-10.52h-28V405.23Z"/><path class="cls-1" d="M496.41,455H474.78V421.37h-33.4V455H419.86V369.82h21.52v33.07h33.4V369.82h21.63Z"/><path class="cls-1" d="M554.51,388.3V455H533V388.3H507.9V369.82h71.72V388.3Z"/><path class="cls-1" d="M11,513.64h31v9.81H11v26.08H0V488H43.75v10H11Z"/><path class="cls-1" d="M89.75,549.53V488h11v61.58Z"/><path class="cls-1" d="M176.23,497.91v51.62h-11V497.91H146.33V488h48.78v10Z"/><path class="cls-1" d="M298.31,549.53h-7.62l-39-41.56v41.56h-11V488h7.61l39,42.38V488h11Z"/><path class="cls-1" d="M392.43,549.53H348V488h44.16V498H359v15.63h31v9.81H359v16.12h33.46Z"/><path class="cls-1" d="M477.4,491.35a21,21,0,0,1,7.94,12.88l-11.26,2.35a11.74,11.74,0,0,0-4.13-7.32,12.29,12.29,0,0,0-8-2.72,11.46,11.46,0,0,0-7,2.07,7,7,0,0,0-2.84,6,6,6,0,0,0,1.46,4.17,10.07,10.07,0,0,0,4.94,2.64l14.18,4.05q13.53,3.88,13.53,16.69,0,8.67-6.28,13.62t-16.49,4.94q-9.81,0-16.65-4.62t-8-13.53l11.83-2.35q2.11,10.69,13.78,10.69c3.4,0,6-.74,7.9-2.23a7.38,7.38,0,0,0,2.79-6.11,6.11,6.11,0,0,0-1.7-4.54,12.53,12.53,0,0,0-5.59-2.75l-12.16-3.25q-15.39-4.11-15.39-17a16.6,16.6,0,0,1,5.87-13.33q5.88-5,15.69-5Q471.24,486.74,477.4,491.35Z"/><path class="cls-1" d="M570.79,491.35a21.06,21.06,0,0,1,7.94,12.88l-11.26,2.35a11.78,11.78,0,0,0-4.13-7.32,12.29,12.29,0,0,0-8-2.72,11.44,11.44,0,0,0-7,2.07,7,7,0,0,0-2.84,6,6,6,0,0,0,1.46,4.17,10.07,10.07,0,0,0,4.94,2.64l14.18,4.05q13.53,3.88,13.53,16.69,0,8.67-6.28,13.62t-16.49,4.94q-9.81,0-16.65-4.62t-8-13.53l11.83-2.35q2.12,10.69,13.78,10.69c3.39,0,6-.74,7.89-2.23a7.39,7.39,0,0,0,2.8-6.11,6.15,6.15,0,0,0-1.7-4.54,12.57,12.57,0,0,0-5.6-2.75l-12.15-3.25q-15.39-4.11-15.39-17a16.6,16.6,0,0,1,5.87-13.33q5.88-5,15.68-5Q564.62,486.74,570.79,491.35Z"/></g></g></svg>