<?xml version="1.0" encoding="UTF-8"?>
<svg width="24px" height="24px" viewBox="0 0 24 24" version="1.1" xmlns="http://www.w3.org/2000/svg" xmlns:xlink="http://www.w3.org/1999/xlink">
    <title>instagram</title>
    <g id="Page-1" stroke="none" stroke-width="1" fill="none" fill-rule="evenodd">
        <g id="Home-(Final)" transform="translate(-1338.000000, -13.000000)" fill="#575756" fill-rule="nonzero">
            <g id="socials" transform="translate(1262.000000, 13.000000)">
                <g id="instagram" transform="translate(76.000000, 0.000000)">
                    <circle id="Oval" cx="12" cy="12" r="2.52"></circle>
                    <path d="M12,0 C5.372592,0 0,5.372592 0,12 C0,18.627408 5.372592,24 12,24 C18.627408,24 24,18.627408 24,12 C24,5.372592 18.627408,0 12,0 Z M19.413984,15.04992 C19.356384,16.190784 19.035792,17.315808 18.204384,18.138384 C17.364912,18.968784 16.23456,19.278192 15.082704,19.335216 L8.917344,19.335216 C7.765344,19.278192 6.635136,18.968976 5.795664,18.138384 C4.964208,17.315808 4.643664,16.190784 4.586064,15.04992 L4.586064,8.95008 C4.643664,7.809216 4.964256,6.684192 5.795664,5.861568 C6.635136,5.031168 7.765488,4.72176 8.917344,4.664784 L15.082656,4.664784 C16.234656,4.72176 17.364864,5.031024 18.204336,5.861568 C19.035792,6.684192 19.356336,7.809216 19.413984,8.95008 L19.413984,15.04992 Z" id="Shape"></path>
                    <path d="M15.0048,6.054624 C13.503072,6.01344 10.497312,6.01344 8.995584,6.054624 C8.214096,6.07608 7.32816,6.270624 6.77136,6.865344 C6.192768,7.483536 5.974128,8.230416 5.951952,9.065952 C5.912976,10.532448 5.951952,14.934048 5.951952,14.934048 C5.977344,15.769488 6.192768,16.516464 6.77136,17.134656 C7.32816,17.729568 8.214096,17.92392 8.995584,17.945376 C10.497312,17.98656 13.503072,17.98656 15.0048,17.945376 C15.786288,17.92392 16.672224,17.729376 17.229024,17.134656 C17.807616,16.516464 18.026256,15.769584 18.048432,14.934048 L18.048432,9.065952 C18.026256,8.230416 17.807616,7.483536 17.229024,6.865344 C16.672032,6.270432 15.786096,6.07608 15.0048,6.054624 Z M12,15.906 C9.84277577,15.906 8.094,14.1572242 8.094,12 C8.094,9.84277577 9.84277577,8.094 12,8.094 C14.1572242,8.094 15.906,9.84277577 15.906,12 C15.906,13.0359356 15.4944762,14.029442 14.7619591,14.7619591 C14.029442,15.4944762 13.0359356,15.906 12,15.906 Z M15.922608,8.90025602 C15.4911882,8.90014997 15.1415293,8.55034788 15.1416,8.11892803 C15.1416707,7.68750819 15.4914441,7.33782069 15.922864,7.33785603 C16.3542838,7.33789136 16.704,7.68763615 16.704,8.119056 C16.704,8.32627639 16.6216689,8.52500677 16.4751239,8.67151571 C16.328579,8.81802465 16.1298284,8.90030693 15.922608,8.90025602 L15.922608,8.90025602 Z" id="Shape"></path>
                </g>
            </g>
        </g>
    </g>
</svg>