<?xml version="1.0" encoding="UTF-8"?>
<svg width="399px" height="379px" viewBox="0 0 399 379" version="1.1" xmlns="http://www.w3.org/2000/svg" xmlns:xlink="http://www.w3.org/1999/xlink">
    <title>Logo (vertical)</title>
    <g id="Page-1" stroke="none" stroke-width="1" fill="none" fill-rule="evenodd" opacity="0.0424296061">
        <g id="Product-(tab-4)-(Final)" transform="translate(-936.000000, -303.000000)" fill-rule="nonzero">
            <g id="mini-content-4" transform="translate(905.000000, 245.000000)">
                <g id="Logo-(vertical)" transform="translate(31.000000, 58.000000)">
                    <path d="M320.480522,43.1960978 L213.078283,43.1960978 L233.641304,0 L368.435686,0 L359.632788,18.4517004 C352.446532,33.560547 337.211316,43.1892679 320.480522,43.1960978 L320.480522,43.1960978 Z" id="Path" fill="#575756"></path>
                    <path d="M202.446033,65.5403299 L163.355662,147.716762 L199.440668,191.875677 L238.978061,108.72955 L289.237109,108.72955 C305.987949,108.737099 321.246447,99.1001524 328.437517,83.9713985 L337.171642,65.5403299 L202.446033,65.5403299 Z" id="Path" fill="#575756"></path>
                    <polygon id="Path" fill="#575756" points="179.909237 65.5334526 149.10597 130.27602 112.90405 85.9520507 122.621625 65.5334526"></polygon>
                    <polygon id="Path" fill="#CC2227" points="211.090754 0 190.500224 43.2167296 133.233244 43.2167296 153.796264 0"></polygon>
                    <polygon id="Path" fill="#575756" points="0 312.915531 0 254.334993 14.799873 254.334993 14.799873 312.915531"></polygon>
                    <polygon id="Path" fill="#575756" points="81.7156558 312.915531 73.0021618 312.915531 40.3282785 281.005024 40.3282785 312.915531 25.5284055 312.915531 25.5284055 254.334993 34.1593723 254.334993 66.8401328 287.167053 66.8401328 254.334993 81.7156558 254.334993"></polygon>
                    <polygon id="Path" fill="#575756" points="107.189043 278.309136 133.625248 278.309136 133.625248 290.949548 107.189043 290.949548 107.189043 312.915531 92.3960474 312.915531 92.3960474 254.334993 135.722813 254.334993 135.722813 267.044177 107.189043 267.044177"></polygon>
                    <polygon id="Path" fill="#575756" points="186.69022 312.915531 143.452858 312.915531 143.452858 254.334993 158.245854 254.334993 158.245854 300.192592 186.69022 300.192592"></polygon>
                    <polygon id="Path" fill="#575756" points="195.121746 312.915531 195.121746 254.334993 209.914742 254.334993 209.914742 312.915531"></polygon>
                    <path d="M279.760239,278.687386 C279.966557,281.438292 280.069716,283.157608 280.069716,283.776562 C280.069716,292.661987 277.24316,299.94501 271.590049,305.625631 C265.936938,311.306251 258.667669,314.144269 249.782244,314.139689 C240.9931,314.139689 233.593163,311.198507 227.582434,305.316154 C221.812162,299.602041 218.565694,291.818257 218.565694,283.697473 C218.565694,275.576689 221.812162,267.792905 227.582434,262.078792 C233.579409,256.191854 240.933497,253.250677 249.644698,253.255257 C256.430266,253.255257 262.404316,254.848495 267.566849,258.034961 C272.568197,261.014097 276.330117,265.693916 278.164714,271.218677 L263.137891,274.987418 C260.561209,269.38474 256.063478,266.585693 249.644698,266.590278 C245.269696,266.483646 241.06484,268.286086 238.12528,271.528154 C231.992425,278.49321 232.01012,288.936314 238.166544,295.880547 C241.172791,299.12963 245.432866,300.926379 249.857893,300.811545 C253.149406,300.913219 256.391978,299.995692 259.1422,298.18443 C261.698947,296.433683 263.610131,293.89188 264.582117,290.949548 L245.325776,290.949548 L245.325776,278.687386 L279.760239,278.687386 Z" id="Path" fill="#575756"></path>
                    <polygon id="Path" fill="#575756" points="341.394283 312.915531 326.51876 312.915531 326.51876 289.787291 303.548697 289.787291 303.548697 312.915531 288.748824 312.915531 288.748824 254.334993 303.548697 254.334993 303.548697 277.078106 326.51876 277.078106 326.51876 254.334993 341.394283 254.334993"></polygon>
                    <polygon id="Path" fill="#575756" points="381.351189 267.044177 381.351189 312.915531 366.558193 312.915531 366.558193 267.044177 349.29626 267.044177 349.29626 254.334993 398.62 254.334993 398.62 267.044177"></polygon>
                    <polygon id="Path" fill="#575756" points="7.56499086 353.243809 28.8845105 353.243809 28.8845105 359.990406 7.56499086 359.990406 7.56499086 377.926311 0 377.926311 0 335.610503 30.0880318 335.610503 30.0880318 342.487768 7.56499086 342.487768"></polygon>
                    <polygon id="Path" fill="#575756" points="61.7234481 377.926311 61.7234481 335.610503 69.288439 335.610503 69.288439 377.960698"></polygon>
                    <polygon id="Path" fill="#575756" points="121.198031 342.425872 121.198031 377.926311 113.63304 377.926311 113.63304 342.425872 100.63501 342.425872 100.63501 335.610503 134.182306 335.610503 134.182306 342.487768"></polygon>
                    <polygon id="Path" fill="#575756" points="205.155675 377.926311 199.915199 377.926311 173.093868 349.3444 173.093868 377.926311 165.528877 377.926311 165.528877 335.610503 170.762475 335.610503 197.583807 364.75635 197.583807 335.610503 205.148797 335.610503"></polygon>
                    <polygon id="Path" fill="#575756" points="269.884487 377.926311 239.328802 377.926311 239.328802 335.610503 269.698801 335.610503 269.698801 342.487768 246.893792 342.487768 246.893792 353.236932 268.213312 353.236932 268.213312 359.983529 246.893792 359.983529 246.893792 371.069679 269.905119 371.069679"></polygon>
                    <path d="M328.320603,337.914387 C331.178208,340.085944 333.124855,343.243728 333.781151,346.772304 L326.037351,348.388461 C325.744267,346.417396 324.732614,344.624346 323.197041,343.354303 C321.641833,342.100103 319.692614,341.437369 317.69523,341.483687 C315.978261,341.420802 314.287773,341.920703 312.881145,342.907281 C311.577845,343.866956 310.844009,345.417313 310.928001,347.03364 C310.885738,348.082496 311.244799,349.108032 311.932082,349.901459 C312.87005,350.815767 314.048082,351.445323 315.329451,351.717057 L325.081412,354.502349 C331.284704,356.281268 334.38635,360.107319 334.38635,365.980503 C334.38635,369.955562 332.94671,373.07784 330.067428,375.347337 C327.188147,377.616834 323.407944,378.749291 318.726819,378.74472 C314.229088,378.74472 310.412207,377.685607 307.276174,375.56741 C304.140141,373.449212 302.306204,370.347566 301.774363,366.262471 L309.910166,364.646314 C310.877568,369.547511 314.036525,371.998109 319.387037,371.998109 C321.725307,371.998109 323.513395,371.489192 324.820076,370.464479 C326.09694,369.452897 326.810649,367.8899 326.738832,366.262471 C326.796343,365.105021 326.373284,363.975205 325.569697,363.140193 C324.467887,362.196183 323.145553,361.545661 321.725307,361.248945 L313.362553,359.013834 C306.30648,357.129464 302.778443,353.232347 302.778443,347.322485 C302.640055,343.80797 304.129401,340.42586 306.815397,338.155091 C309.511285,335.86267 313.108094,334.716459 317.605825,334.716459 C321.924747,334.734798 325.49634,335.800774 328.320603,337.914387 Z" id="Path" fill="#575756"></path>
                    <path d="M392.547376,337.914387 C395.402006,340.088641 397.347881,343.245175 398.007923,346.772304 L390.264124,348.388461 C389.968546,346.418253 388.957364,344.626037 387.423814,343.354303 C385.868605,342.100103 383.919387,341.437369 381.922002,341.483687 C380.204905,341.419787 378.5141,341.919782 377.107917,342.907281 C375.804617,343.866956 375.070781,345.417313 375.154774,347.03364 C375.112511,348.082496 375.471571,349.108032 376.158854,349.901459 C377.096822,350.815767 378.274855,351.445323 379.556223,351.717057 L389.308184,354.502349 C395.511476,356.281268 398.613123,360.107319 398.613123,365.980503 C398.613123,369.955562 397.173482,373.07784 394.294201,375.347337 C391.414919,377.616834 387.634716,378.749291 382.953592,378.74472 C378.455861,378.74472 374.638979,377.685607 371.502946,375.56741 C368.366914,373.449212 366.532977,370.347566 366.001135,366.262471 L374.136939,364.646314 C375.108925,369.547511 378.267882,371.998109 383.613809,371.998109 C385.945202,371.998109 387.740168,371.489192 389.039971,370.464479 C390.3185,369.453612 391.034644,367.890882 390.965605,366.262471 C391.019832,365.105534 390.597244,363.976975 389.79647,363.140193 C388.692043,362.196153 387.367491,361.545703 385.945202,361.248945 L377.589325,359.013834 C370.533252,357.129464 367.005215,353.232347 367.005215,347.322485 C366.866827,343.80797 368.356173,340.42586 371.04217,338.155091 C373.738057,335.86267 377.332574,334.716459 381.82572,334.716459 C386.144642,334.734798 389.718527,335.800774 392.547376,337.914387 Z" id="Path" fill="#575756"></path>
                </g>
            </g>
        </g>
    </g>
</svg>