<?xml version="1.0" encoding="UTF-8"?>
<svg width="18px" height="18px" viewBox="0 0 18 18" version="1.1" xmlns="http://www.w3.org/2000/svg" xmlns:xlink="http://www.w3.org/1999/xlink">
    <title>paper-plane</title>
    <g id="Page-1" stroke="none" stroke-width="1" fill="none" fill-rule="evenodd">
        <g id="Home-(Final)" transform="translate(-266.000000, -17.000000)" fill="#CC2227" fill-rule="nonzero">
            <g id="email" transform="translate(266.000000, 9.000000)">
                <g id="paper-plane" transform="translate(0.000000, 8.000000)">
                    <path d="M6.56311447,13.2102361 L6.56311447,16.6890441 C6.56311447,16.9320657 6.71912829,17.1473347 6.95014874,17.2238415 C7.00790386,17.2425932 7.0671591,17.251594 7.12566428,17.251594 C7.30117982,17.251594 7.47069483,17.1690867 7.5787044,17.0220736 L9.61363457,14.2528284 L6.56311447,13.2102361 Z" id="Path"></path>
                    <path d="M17.7653563,0.104325695 C17.5928411,-0.0179351301 17.366321,-0.0344365912 17.1788044,0.0638221089 L0.302310126,8.87710246 C0.10279246,8.98136169 -0.0149679669,9.19438055 0.0015334942,9.41865041 C0.0187850217,9.64367033 0.168048238,9.83568734 0.380317033,9.90844378 L5.07198244,11.5120858 L15.0636171,2.96882933 L7.33193255,12.2839041 L15.1948788,14.9713921 C15.2533839,14.9908938 15.3148894,15.0013947 15.3763948,15.0013947 C15.4784039,15.0013947 15.5796628,14.9736423 15.6689207,14.9196375 C15.8114333,14.8326298 15.9081919,14.6863668 15.9329441,14.5221023 L17.9956267,0.645873645 C18.0263795,0.43585505 17.9378716,0.227336587 17.7653563,0.104325695 Z" id="Path"></path>
                </g>
            </g>
        </g>
    </g>
</svg>