<svg height="512" viewBox="0 0 54 58" width="512" xmlns="http://www.w3.org/2000/svg"><g id="Page-1" fill="none" fill-rule="evenodd"><g id="020---Downloadable-Help-File" fill-rule="nonzero" transform="translate(-1)"><path id="Shape" d="m3 4c-1.15225064.05404309-2.04521019 1.027369-2 2.18v39.64c-.04521019 1.152631.84774936 2.1259569 2 2.18h50c1.1522506-.0540431 2.0452102-1.027369 2-2.18v-39.64c.0452102-1.152631-.8477494-2.12595691-2-2.18z" fill="#35495e"/><path id="Shape" d="m36 47 3 8h-11-11l3-8z" fill="#547580"/><rect id="Rectangle-path" fill="#9fc9d3" height="4" rx="2" width="34" x="11" y="54"/><path id="Shape" d="m12 37v5h32v-36l-6-6h-24c-1.1032019.0032948-1.9967052.89679813-2 2v21" fill="#ecf0f1"/><rect id="Rectangle-path" fill="#e64c3c" height="14" rx="2" width="27" x="5" y="23"/><g fill="#fff"><path id="Shape" d="m11 26h-1c-1.1045695 0-2 .8954305-2 2v5c0 .5522847.44771525 1 1 1s1-.4477153 1-1v-1h1c1.6568542 0 3-1.3431458 3-3s-1.3431458-3-3-3zm0 4h-1v-2h1c.5522847 0 1 .4477153 1 1s-.4477153 1-1 1z"/><path id="Shape" d="m18 26c-1.1045695 0-2 .8954305-2 2v4c0 1.1045695.8954305 2 2 2 2.209139 0 4-1.790861 4-4s-1.790861-4-4-4zm0 6v-4c1.1045695 0 2 .8954305 2 2s-.8954305 2-2 2z"/><path id="Shape" d="m28 26h-2c-1.1045695 0-2 .8954305-2 2v5c0 .5522847.4477153 1 1 1s1-.4477153 1-1v-1h1c.5522847 0 1-.4477153 1-1s-.4477153-1-1-1h-1v-2h2c.5522847 0 1-.4477153 1-1s-.4477153-1-1-1z"/></g><path id="Shape" d="m25 13v-6c0-1.1045695.8954305-2 2-2h2c1.1045695 0 2 .8954305 2 2v6h2.085c.3764779-.012494.7193388.2154824.8534558.5674829.1341169.3520004.0298851.7503251-.2594558.9915171l-5.085 4.228c-.3444027.2858847-.8435973.2858847-1.188 0l-5.085-4.228c-.2893409-.241192-.3935727-.6395167-.2594558-.9915171.134117-.3520005.4769779-.5799769.8534558-.5674829z" fill="#e64c3c"/><path id="Shape" d="m55 42v3.82c.0452102 1.152631-.8477494 2.1259569-2 2.18h-50c-1.15225064-.0540431-2.04521019-1.027369-2-2.18v-3.82z" fill="#9fc9d3"/><path id="Shape" d="m44 6h-4c-1.1045695 0-2-.8954305-2-2v-4z" fill="#bdc3c7"/></g></g></svg>