<?xml version="1.0" encoding="UTF-8"?>
<svg width="18px" height="18px" viewBox="0 0 18 18" version="1.1" xmlns="http://www.w3.org/2000/svg" xmlns:xlink="http://www.w3.org/1999/xlink">
    <title>phone-call</title>
    <g id="Page-1" stroke="none" stroke-width="1" fill="none" fill-rule="evenodd">
        <g id="Home-(Final)" transform="translate(-41.000000, -16.000000)" fill="#CC2227" fill-rule="nonzero">
            <g id="phone-call" transform="translate(41.000000, 16.000000)">
                <path d="M17.421,12.96 C17.3718,12.921 13.8,10.3464 12.8196,10.5312 C12.3516,10.614 12.084,10.9332 11.547,11.5722 C11.4606,11.6754 11.253,11.9226 11.0916,12.0984 C10.7522376,11.9877122 10.4211984,11.8529707 10.101,11.6952 C8.44831296,10.8906052 7.11299482,9.55528704 6.3084,7.9026 C6.15051918,7.58245107 6.01577436,7.25140389 5.9052,6.912 C6.0816,6.75 6.3288,6.5424 6.4344,6.4536 C7.0704,5.9196 7.3902,5.652 7.473,5.1828 C7.6428,4.2108 5.07,0.6144 5.043,0.582 C4.80661676,0.244312343 4.43106011,0.0306525434 4.02,0 C2.9772,0 0,3.8622 0,4.5126 C0,4.5504 0.0546,8.3928 4.7928,13.2126 C9.6078,17.9454 13.4496,18 13.4874,18 C14.1384,18 18,15.0228 18,13.98 C17.969683,13.5703891 17.7571616,13.1959991 17.421,12.96 L17.421,12.96 Z" id="Path"></path>
            </g>
        </g>
    </g>
</svg>