<?xml version="1.0" encoding="UTF-8"?>
<svg width="24px" height="24px" viewBox="0 0 24 24" version="1.1" xmlns="http://www.w3.org/2000/svg" xmlns:xlink="http://www.w3.org/1999/xlink">
    <title>twitter</title>
    <g id="Page-1" stroke="none" stroke-width="1" fill="none" fill-rule="evenodd">
        <g id="Home-(Final)" transform="translate(-1300.000000, -13.000000)" fill="#575756" fill-rule="nonzero">
            <g id="socials" transform="translate(1262.000000, 13.000000)">
                <g id="twitter" transform="translate(38.000000, 0.000000)">
                    <path d="M12,0 C5.38322726,0 0,5.38322726 0,12 C0,18.6162894 5.38322726,24 12,24 C18.6162894,24 24,18.6162894 24,12 C24,5.38322726 18.6172561,0 12,0 Z M17.3532587,9.25352453 C17.3585757,9.37243213 17.3614759,9.49230645 17.3614759,9.61218078 C17.3614759,13.262064 14.5840651,17.4692661 9.5024571,17.4692661 C7.94264078,17.4692661 6.49061468,17.0134536 5.26866994,16.2294369 C5.48473375,16.2550552 5.70466446,16.268106 5.92749537,16.268106 C7.22194474,16.268106 8.4124708,15.8263111 9.3579312,15.0857971 C8.14952066,15.0635624 7.12913881,14.2650447 6.77773302,13.1673246 C6.94594377,13.1992266 7.11947152,13.2171111 7.29686619,13.2171111 C7.54869894,13.2171111 7.79328124,13.1842423 8.0248127,13.1209216 C6.76129864,12.8676388 5.8095545,11.7515508 5.8095545,10.4126319 C5.8095545,10.4010312 5.8095545,10.3889471 5.81003786,10.3778297 C6.18222831,10.5842262 6.60807218,10.7089342 7.06050109,10.7229517 C6.31998711,10.2284702 5.83227262,9.38258278 5.83227262,8.4245549 C5.83227262,7.9179892 5.96809796,7.44332555 6.20591316,7.03536615 C7.56755015,8.7068396 9.60348022,9.80600983 11.8984935,9.92201724 C11.8511238,9.71948763 11.827439,9.5092242 11.827439,9.29219367 C11.827439,7.76717957 13.0638846,6.53025054 14.5888987,6.53025054 C15.3835495,6.53025054 16.1003786,6.86570531 16.6050109,7.40223959 C17.2348344,7.27849835 17.8245388,7.04938371 18.359623,6.73181342 C18.1517764,7.37710465 17.7152985,7.9179892 17.1434786,8.26021107 C17.702731,8.19350681 18.2363651,8.04559736 18.72988,7.82566664 C18.3615564,8.3786353 17.8931765,8.86538307 17.3532587,9.25352453 L17.3532587,9.25352453 Z" id="Shape"></path>
                </g>
            </g>
        </g>
    </g>
</svg>