<?xml version="1.0" encoding="UTF-8"?>
<svg width="24px" height="24px" viewBox="0 0 24 24" version="1.1" xmlns="http://www.w3.org/2000/svg" xmlns:xlink="http://www.w3.org/1999/xlink">
    <title>youtube</title>
    <g id="Page-1" stroke="none" stroke-width="1" fill="none" fill-rule="evenodd">
        <g id="Home-(Final)" transform="translate(-1376.000000, -13.000000)" fill="#575756" fill-rule="nonzero">
            <g id="socials" transform="translate(1262.000000, 13.000000)">
                <g id="youtube" transform="translate(114.000000, 0.000000)">
                    <polygon id="Path" points="10.3357895 13.9357895 13.6642105 12.0047368 10.3357895 10.0642105"></polygon>
                    <path d="M12,0 C5.372583,0 0,5.372583 0,12 C0,18.627417 5.372583,24 12,24 C18.627417,24 24,18.627417 24,12 C24,5.372583 18.627417,0 12,0 Z M18.31579,14.1236842 C18.3162084,14.757546 18.0647014,15.3655898 17.6166415,15.8139459 C17.1685815,16.262302 16.560704,16.5142105 15.9268421,16.5142105 L8.07315789,16.5142105 C7.43929599,16.5142105 6.83141848,16.262302 6.38335852,15.8139459 C5.93529857,15.3655898 5.68379158,14.757546 5.68421,14.1236842 L5.68421,9.87631579 C5.68379158,9.24245403 5.93529857,8.6344102 6.38335852,8.18605411 C6.83141848,7.73769801 7.43929599,7.48578947 8.07315789,7.48578947 L15.9268421,7.48578947 C16.560704,7.48578947 17.1685815,7.73769801 17.6166415,8.18605411 C18.0647014,8.6344102 18.3162084,9.24245403 18.31579,9.87631579 L18.31579,14.1236842 Z" id="Shape"></path>
                </g>
            </g>
        </g>
    </g>
</svg>